<svg width="500" height="500" xmlns="http://www.w3.org/2000/svg" xmlns:xlink="http://www.w3.org/1999/xlink" version="1.1" baseProfile="full" viewBox="0 0 500 500">
<rect width="500" height="500" x="0" y="0" id="0" fill="none"></rect>
<path d="M250 228.8A21.2 21.2 0 1 1 235.9 234.2L241.7 240.7A12.5 12.5 0 1 0 250 237.5Z" fill="#C8C8C8" stroke="white" stroke-linejoin="bevel" class="zr28-cls-0"></path>
<path d="M250 220.1A29.9 29.9 0 1 1 220.9 243.3L229.3 245.3A21.2 21.2 0 1 0 250 228.8Z" fill="#C8C8C8" stroke="white" stroke-linejoin="bevel" class="zr28-cls-1"></path>
<path d="M220.9 243.3A29.9 29.9 0 0 1 230.1 227.7L235.9 234.2A21.2 21.2 0 0 0 229.3 245.3Z" fill="#C8C8C8" stroke="white" stroke-linejoin="bevel" class="zr28-cls-2"></path>
<path d="M235.9 234.2A21.2 21.2 0 0 1 250 228.8L250 237.5A12.5 12.5 0 0 0 241.7 240.7Z" fill="#000" stroke="white" stroke-linejoin="bevel" class="zr28-cls-3"></path>
<path d="M230.1 227.7A29.9 29.9 0 0 1 241.7 221.3L244.1 229.6A21.2 21.2 0 0 0 235.9 234.2Z" fill="#4949CD" fill-opacity="0.5" stroke="#fff" stroke-width="4" stroke-opacity="0.5" stroke-linejoin="bevel" class="zr28-cls-4"></path>
<path d="M224.3 221.2A38.6 38.6 0 0 1 237.3 213.6L240.1 221.8A29.9 29.9 0 0 0 230.1 227.7Z" fill="#000" stroke="white" stroke-linejoin="bevel" class="zr28-cls-5"></path>
<path d="M218.5 214.7A47.3 47.3 0 0 1 234.4 205.4L237.3 213.6A38.6 38.6 0 0 0 224.3 221.2Z" fill="#000" stroke="white" stroke-linejoin="bevel" class="zr28-cls-6"></path>
<path d="M212.7 208.3A56 56 0 0 1 231.5 197.2L234.4 205.4A47.3 47.3 0 0 0 218.5 214.7Z" fill="#4949CD" fill-opacity="0.5" stroke="#fff" stroke-width="4" stroke-opacity="0.5" stroke-linejoin="bevel" class="zr28-cls-7"></path>
<path d="M206.9 201.8A64.7 64.7 0 0 1 228.6 189L231.5 197.2A56 56 0 0 0 212.7 208.3Z" fill="#0AA40D" stroke="white" stroke-linejoin="bevel" class="zr28-cls-8"></path>
<path d="M201.1 195.3A73.4 73.4 0 0 1 218.2 183.9L221.9 191.7A64.7 64.7 0 0 0 206.9 201.8Z" fill="#000" stroke="white" stroke-linejoin="bevel" class="zr28-cls-9"></path>
<path d="M195.3 188.8A82.1 82.1 0 0 1 208.3 179.3L212.7 186.8A73.4 73.4 0 0 0 201.1 195.3Z" fill="#4949CD" fill-opacity="0.5" stroke="#fff" stroke-width="4" stroke-opacity="0.5" stroke-linejoin="bevel" class="zr28-cls-10"></path>
<path d="M189.5 182.3A90.8 90.8 0 0 1 203.9 171.8L208.3 179.3A82.1 82.1 0 0 0 195.3 188.8Z" fill="#000" stroke="white" stroke-linejoin="bevel" class="zr28-cls-11"></path>
<path d="M183.7 175.8A99.5 99.5 0 0 1 188 172.2L193.4 179A90.8 90.8 0 0 0 189.5 182.3Z" fill="#000" stroke="white" stroke-linejoin="bevel" class="zr28-cls-12"></path>
<path d="M177.9 169.4A108.2 108.2 0 0 1 182.6 165.4L188 172.2A99.5 99.5 0 0 0 183.7 175.8Z" fill="#C8C8C8" stroke="white" stroke-linejoin="bevel" class="zr28-cls-13"></path>
<path d="M188 172.2A99.5 99.5 0 0 1 192.4 168.9L197.5 176A90.8 90.8 0 0 0 193.4 179Z" fill="#000" stroke="white" stroke-linejoin="bevel" class="zr28-cls-14"></path>
<path d="M182.6 165.4A108.2 108.2 0 0 1 185 163.6L190.2 170.5A99.5 99.5 0 0 0 188 172.2Z" fill="#A0522D" stroke="white" stroke-linejoin="bevel" class="zr28-cls-15"></path>
<path d="M177.1 158.6A116.8 116.8 0 0 1 179.7 156.6L185 163.6A108.2 108.2 0 0 0 182.6 165.4Z" fill="#A0522D" stroke="white" stroke-linejoin="bevel" class="zr28-cls-16"></path>
<path d="M171.7 151.8A125.5 125.5 0 0 1 174.5 149.7L179.7 156.6A116.8 116.8 0 0 0 177.1 158.6Z" fill="#A0522D" stroke="white" stroke-linejoin="bevel" class="zr28-cls-17"></path>
<path d="M166.3 145A134.2 134.2 0 0 1 169.3 142.7L174.5 149.7A125.5 125.5 0 0 0 171.7 151.8Z" fill="#ff4949" fill-opacity="0.5" stroke="#fff" stroke-width="4" stroke-opacity="0.5" stroke-linejoin="bevel" class="zr28-cls-18"></path>
<path d="M160.9 138.2A142.9 142.9 0 0 1 164.1 135.8L169.3 142.7A134.2 134.2 0 0 0 166.3 145Z" fill="#A0522D" stroke="white" stroke-linejoin="bevel" class="zr28-cls-19"></path>
<path d="M185 163.6A108.2 108.2 0 0 1 187.4 161.8L192.4 168.9A99.5 99.5 0 0 0 190.2 170.5Z" fill="#C8C8C8" stroke="white" stroke-linejoin="bevel" class="zr28-cls-20"></path>
<path d="M192.4 168.9A99.5 99.5 0 0 1 194.7 167.3L199.6 174.5A90.8 90.8 0 0 0 197.5 176Z" fill="#000" stroke="white" stroke-linejoin="bevel" class="zr28-cls-21"></path>
<path d="M187.4 161.8A108.2 108.2 0 0 1 189.9 160.1L194.7 167.3A99.5 99.5 0 0 0 192.4 168.9Z" fill="#A0522D" stroke="white" stroke-linejoin="bevel" class="zr28-cls-22"></path>
<path d="M182.4 154.7A116.8 116.8 0 0 1 185.1 152.8L189.9 160.1A108.2 108.2 0 0 0 187.4 161.8Z" fill="#A0522D" stroke="white" stroke-linejoin="bevel" class="zr28-cls-23"></path>
<path d="M194.7 167.3A99.5 99.5 0 0 1 197.1 165.8L201.7 173.2A90.8 90.8 0 0 0 199.6 174.5Z" fill="#000" stroke="white" stroke-linejoin="bevel" class="zr28-cls-24"></path>
<path d="M189.9 160.1A108.2 108.2 0 0 1 192.5 158.4L197.1 165.8A99.5 99.5 0 0 0 194.7 167.3Z" fill="#C8C8C8" stroke="white" stroke-linejoin="bevel" class="zr28-cls-25"></path>
<path d="M197.1 165.8A99.5 99.5 0 0 1 199.5 164.3L203.9 171.8A90.8 90.8 0 0 0 201.7 173.2Z" fill="#000" stroke="white" stroke-linejoin="bevel" class="zr28-cls-26"></path>
<path d="M192.5 158.4A108.2 108.2 0 0 1 195.1 156.8L199.5 164.3A99.5 99.5 0 0 0 197.1 165.8Z" fill="#C8C8C8" stroke="white" stroke-linejoin="bevel" class="zr28-cls-27"></path>
<path d="M208.3 179.3A82.1 82.1 0 0 1 212.3 177.1L216.3 184.8A73.4 73.4 0 0 0 212.7 186.8Z" fill="#49ff49" fill-opacity="0.5" stroke="#fff" stroke-width="4" stroke-opacity="0.5" stroke-linejoin="bevel" class="zr28-cls-28"></path>
<path d="M203.9 171.8A90.8 90.8 0 0 1 208.3 169.4L212.3 177.1A82.1 82.1 0 0 0 208.3 179.3Z" fill="#000" stroke="white" stroke-linejoin="bevel" class="zr28-cls-29"></path>
<path d="M199.5 164.3A99.5 99.5 0 0 1 201.9 163L206.1 170.6A90.8 90.8 0 0 0 203.9 171.8Z" fill="#000" stroke="white" stroke-linejoin="bevel" class="zr28-cls-30"></path>
<path d="M201.9 163A99.5 99.5 0 0 1 204.4 161.6L208.3 169.4A90.8 90.8 0 0 0 206.1 170.6Z" fill="#000" stroke="white" stroke-linejoin="bevel" class="zr28-cls-31"></path>
<path d="M212.3 177.1A82.1 82.1 0 0 1 214.4 176.1L218.2 183.9A73.4 73.4 0 0 0 216.3 184.8Z" fill="#ff4949" fill-opacity="0.5" stroke="#fff" stroke-width="4" stroke-opacity="0.5" stroke-linejoin="bevel" class="zr28-cls-32"></path>
<path d="M208.3 169.4A90.8 90.8 0 0 1 210.6 168.2L214.4 176.1A82.1 82.1 0 0 0 212.3 177.1Z" fill="#000" stroke="white" stroke-linejoin="bevel" class="zr28-cls-33"></path>
<path d="M204.4 161.6A99.5 99.5 0 0 1 206.8 160.4L210.6 168.2A90.8 90.8 0 0 0 208.3 169.4Z" fill="#000" stroke="white" stroke-linejoin="bevel" class="zr28-cls-34"></path>
<path d="M218.2 183.9A73.4 73.4 0 0 1 225.8 180.7L228.6 189A64.7 64.7 0 0 0 221.9 191.7Z" fill="#000" stroke="white" stroke-linejoin="bevel" class="zr28-cls-35"></path>
<path d="M214.4 176.1A82.1 82.1 0 0 1 222.9 172.5L225.8 180.7A73.4 73.4 0 0 0 218.2 183.9Z" fill="#4949CD" fill-opacity="0.5" stroke="#fff" stroke-width="4" stroke-opacity="0.5" stroke-linejoin="bevel" class="zr28-cls-36"></path>
<path d="M210.6 168.2A90.8 90.8 0 0 1 220 164.3L222.9 172.5A82.1 82.1 0 0 0 214.4 176.1Z" fill="#000" stroke="white" stroke-linejoin="bevel" class="zr28-cls-37"></path>
<path d="M206.8 160.4A99.5 99.5 0 0 1 217.2 156.1L220 164.3A90.8 90.8 0 0 0 210.6 168.2Z" fill="#000" stroke="white" stroke-linejoin="bevel" class="zr28-cls-38"></path>
<path d="M203.1 152.6A108.2 108.2 0 0 1 214.3 147.9L217.2 156.1A99.5 99.5 0 0 0 206.8 160.4Z" fill="#4949CD" fill-opacity="0.5" stroke="#fff" stroke-width="4" stroke-opacity="0.5" stroke-linejoin="bevel" class="zr28-cls-39"></path>
<path d="M199.3 144.7A116.8 116.8 0 0 1 211.4 139.7L214.3 147.9A108.2 108.2 0 0 0 203.1 152.6Z" fill="#000" stroke="white" stroke-linejoin="bevel" class="zr28-cls-40"></path>
<path d="M195.5 136.9A125.5 125.5 0 0 1 208.5 131.5L211.4 139.7A116.8 116.8 0 0 0 199.3 144.7Z" fill="#A0522D" stroke="white" stroke-linejoin="bevel" class="zr28-cls-41"></path>
<path d="M191.8 129.1A134.2 134.2 0 0 1 205.7 123.3L208.5 131.5A125.5 125.5 0 0 0 195.5 136.9Z" fill="#A0522D" stroke="white" stroke-linejoin="bevel" class="zr28-cls-42"></path>
<path d="M188 121.2A142.9 142.9 0 0 1 202.8 115.1L205.7 123.3A134.2 134.2 0 0 0 191.8 129.1Z" fill="#4949CD" fill-opacity="0.5" stroke="#fff" stroke-width="4" stroke-opacity="0.5" stroke-linejoin="bevel" class="zr28-cls-43"></path>
<path d="M184.2 113.4A151.6 151.6 0 0 1 199.9 106.9L202.8 115.1A142.9 142.9 0 0 0 188 121.2Z" fill="#A0522D" stroke="white" stroke-linejoin="bevel" class="zr28-cls-44"></path>
<path d="M180.4 105.6A160.3 160.3 0 0 1 197 98.7L199.9 106.9A151.6 151.6 0 0 0 184.2 113.4Z" fill="#A0522D" stroke="white" stroke-linejoin="bevel" class="zr28-cls-45"></path>
<path d="M176.7 97.7A169 169 0 0 1 189.7 92.1L192.8 100.2A160.3 160.3 0 0 0 180.4 105.6Z" fill="#4949CD" fill-opacity="0.5" stroke="#fff" stroke-width="4" stroke-opacity="0.5" stroke-linejoin="bevel" class="zr28-cls-46"></path>
<path d="M172.9 89.9A177.7 177.7 0 0 1 186.6 84L189.7 92.1A169 169 0 0 0 176.7 97.7Z" fill="#A0522D" stroke="white" stroke-linejoin="bevel" class="zr28-cls-47"></path>
<path d="M169.1 82A186.4 186.4 0 0 1 183.5 75.8L186.6 84A177.7 177.7 0 0 0 172.9 89.9Z" fill="#A0522D" stroke="white" stroke-linejoin="bevel" class="zr28-cls-48"></path>
<path d="M165.3 74.2A195.1 195.1 0 0 1 180.4 67.7L183.5 75.8A186.4 186.4 0 0 0 169.1 82Z" fill="#4949CD" fill-opacity="0.5" stroke="#fff" stroke-width="4" stroke-opacity="0.5" stroke-linejoin="bevel" class="zr28-cls-49"></path>
<path d="M161.6 66.4A203.8 203.8 0 0 1 166.8 64L170.3 71.9A195.1 195.1 0 0 0 165.3 74.2Z" fill="#A0522D" stroke="white" stroke-linejoin="bevel" class="zr28-cls-50"></path>
<path d="M157.8 58.5A212.5 212.5 0 0 1 163.2 56L166.8 64A203.8 203.8 0 0 0 161.6 66.4Z" fill="#C8C8C8" stroke="white" stroke-linejoin="bevel" class="zr28-cls-51"></path>
<path d="M166.8 64A203.8 203.8 0 0 1 172 61.7L175.3 69.7A195.1 195.1 0 0 0 170.3 71.9Z" fill="#A0522D" stroke="white" stroke-linejoin="bevel" class="zr28-cls-52"></path>
<path d="M163.2 56A212.5 212.5 0 0 1 168.7 53.7L172 61.7A203.8 203.8 0 0 0 166.8 64Z" fill="#C8C8C8" stroke="white" stroke-linejoin="bevel" class="zr28-cls-53"></path>
<path d="M172 61.7A203.8 203.8 0 0 1 177.3 59.6L180.4 67.7A195.1 195.1 0 0 0 175.3 69.7Z" fill="#A0522D" stroke="white" stroke-linejoin="bevel" class="zr28-cls-54"></path>
<path d="M168.7 53.7A212.5 212.5 0 0 1 174.2 51.5L177.3 59.6A203.8 203.8 0 0 0 172 61.7Z" fill="#C8C8C8" stroke="white" stroke-linejoin="bevel" class="zr28-cls-55"></path>
<path d="M189.7 92.1A169 169 0 0 1 194.2 90.5L197 98.7A160.3 160.3 0 0 0 192.8 100.2Z" fill="#ff4949" fill-opacity="0.5" stroke="#fff" stroke-width="4" stroke-opacity="0.5" stroke-linejoin="bevel" class="zr28-cls-56"></path>
<path d="M186.6 84A177.7 177.7 0 0 1 191.3 82.3L194.2 90.5A169 169 0 0 0 189.7 92.1Z" fill="#A0522D" stroke="white" stroke-linejoin="bevel" class="zr28-cls-57"></path>
<path d="M237.3 213.6A38.6 38.6 0 0 1 239.3 212.9L241.7 221.3A29.9 29.9 0 0 0 240.1 221.8Z" fill="#000" stroke="white" stroke-linejoin="bevel" class="zr28-cls-58"></path>
<path d="M234.4 205.4A47.3 47.3 0 0 1 236.9 204.6L239.3 212.9A38.6 38.6 0 0 0 237.3 213.6Z" fill="#000" stroke="white" stroke-linejoin="bevel" class="zr28-cls-59"></path>
<path d="M231.5 197.2A56 56 0 0 1 234.5 196.2L236.9 204.6A47.3 47.3 0 0 0 234.4 205.4Z" fill="#4949CD" fill-opacity="0.5" stroke="#fff" stroke-width="4" stroke-opacity="0.5" stroke-linejoin="bevel" class="zr28-cls-60"></path>
<path d="M228.6 189A64.7 64.7 0 0 1 232.1 187.9L234.5 196.2A56 56 0 0 0 231.5 197.2Z" fill="#FF0000" stroke="white" stroke-linejoin="bevel" class="zr28-cls-61"></path>
<path d="M225.8 180.7A73.4 73.4 0 0 1 229.7 179.5L232.1 187.9A64.7 64.7 0 0 0 228.6 189Z" fill="#000" stroke="white" stroke-linejoin="bevel" class="zr28-cls-62"></path>
<path d="M222.9 172.5A82.1 82.1 0 0 1 227.3 171.1L229.7 179.5A73.4 73.4 0 0 0 225.8 180.7Z" fill="#4949CD" fill-opacity="0.5" stroke="#fff" stroke-width="4" stroke-opacity="0.5" stroke-linejoin="bevel" class="zr28-cls-63"></path>
<path d="M220 164.3A90.8 90.8 0 0 1 224.9 162.8L227.3 171.1A82.1 82.1 0 0 0 222.9 172.5Z" fill="#000" stroke="white" stroke-linejoin="bevel" class="zr28-cls-64"></path>
<path d="M217.2 156.1A99.5 99.5 0 0 1 219.8 155.2L222.4 163.5A90.8 90.8 0 0 0 220 164.3Z" fill="#C8C8C8" stroke="white" stroke-linejoin="bevel" class="zr28-cls-65"></path>
<path d="M219.8 155.2A99.5 99.5 0 0 1 222.5 154.4L224.9 162.8A90.8 90.8 0 0 0 222.4 163.5Z" fill="#000" stroke="white" stroke-linejoin="bevel" class="zr28-cls-66"></path>
<path d="M217.2 147A108.2 108.2 0 0 1 220.1 146.1L222.5 154.4A99.5 99.5 0 0 0 219.8 155.2Z" fill="#49ff49" fill-opacity="0.5" stroke="#fff" stroke-width="4" stroke-opacity="0.5" stroke-linejoin="bevel" class="zr28-cls-67"></path>
<path d="M214.5 138.7A116.8 116.8 0 0 1 217.7 137.7L220.1 146.1A108.2 108.2 0 0 0 217.2 147Z" fill="#000" stroke="white" stroke-linejoin="bevel" class="zr28-cls-68"></path>
<path d="M241.7 221.3A29.9 29.9 0 0 1 245.8 220.4L247 229A21.2 21.2 0 0 0 244.1 229.6Z" fill="#49ff49" fill-opacity="0.5" stroke="#fff" stroke-width="4" stroke-opacity="0.5" stroke-linejoin="bevel" class="zr28-cls-69"></path>
<path d="M239.3 212.9A38.6 38.6 0 0 1 242.5 212.2L244.2 220.7A29.9 29.9 0 0 0 241.7 221.3Z" fill="#000" stroke="white" stroke-linejoin="bevel" class="zr28-cls-70"></path>
<path d="M236.9 204.6A47.3 47.3 0 0 1 238.2 204.2L240.4 212.6A38.6 38.6 0 0 0 239.3 212.9Z" fill="#FF0000" stroke="white" stroke-linejoin="bevel" class="zr28-cls-71"></path>
<path d="M238.2 204.2A47.3 47.3 0 0 1 239.5 203.9L241.4 212.4A38.6 38.6 0 0 0 240.4 212.6Z" fill="#0AA40D" stroke="white" stroke-linejoin="bevel" class="zr28-cls-72"></path>
<path d="M239.5 203.9A47.3 47.3 0 0 1 240.8 203.6L242.5 212.2A38.6 38.6 0 0 0 241.4 212.4Z" fill="#d6c9d4" stroke="white" stroke-linejoin="bevel" class="zr28-cls-73"></path>
<path d="M242.5 212.2A38.6 38.6 0 0 1 244.6 211.8L245.8 220.4A29.9 29.9 0 0 0 244.2 220.7Z" fill="#000" stroke="white" stroke-linejoin="bevel" class="zr28-cls-74"></path>
<path d="M240.8 203.6A47.3 47.3 0 0 1 242.1 203.4L243.5 212A38.6 38.6 0 0 0 242.5 212.2Z" fill="#F3C142" stroke="white" stroke-linejoin="bevel" class="zr28-cls-75"></path>
<path d="M242.1 203.4A47.3 47.3 0 0 1 243.4 203.2L244.6 211.8A38.6 38.6 0 0 0 243.5 212Z" fill="#0AA40D" stroke="white" stroke-linejoin="bevel" class="zr28-cls-76"></path>
<path d="M245.8 220.4A29.9 29.9 0 0 1 250 220.1L250 228.8A21.2 21.2 0 0 0 247 229Z" fill="#ff4949" fill-opacity="0.5" stroke="#fff" stroke-width="4" stroke-opacity="0.5" stroke-linejoin="bevel" class="zr28-cls-77"></path>
<path d="M244.6 211.8A38.6 38.6 0 0 1 247.8 211.5L248.3 220.2A29.9 29.9 0 0 0 245.8 220.4Z" fill="#000" stroke="white" stroke-linejoin="bevel" class="zr28-cls-78"></path>
<path d="M243.4 203.2A47.3 47.3 0 0 1 244.7 203L245.7 211.7A38.6 38.6 0 0 0 244.6 211.8Z" fill="#0AA40D" stroke="white" stroke-linejoin="bevel" class="zr28-cls-79"></path>
<path d="M244.7 203A47.3 47.3 0 0 1 246 202.9L246.8 211.5A38.6 38.6 0 0 0 245.7 211.7Z" fill="#d6c9d4" stroke="white" stroke-linejoin="bevel" class="zr28-cls-80"></path>
<path d="M246 202.9A47.3 47.3 0 0 1 247.3 202.8L247.8 211.5A38.6 38.6 0 0 0 246.8 211.5Z" fill="#FF0000" stroke="white" stroke-linejoin="bevel" class="zr28-cls-81"></path>
<path d="M247.8 211.5A38.6 38.6 0 0 1 250 211.4L250 220.1A29.9 29.9 0 0 0 248.3 220.2Z" fill="#000" stroke="white" stroke-linejoin="bevel" class="zr28-cls-82"></path>
<path d="M247.3 202.8A47.3 47.3 0 0 1 248.7 202.7L248.9 211.4A38.6 38.6 0 0 0 247.8 211.5Z" fill="#0AA40D" stroke="white" stroke-linejoin="bevel" class="zr28-cls-83"></path>
<path d="M248.7 202.7A47.3 47.3 0 0 1 250 202.7L250 211.4A38.6 38.6 0 0 0 248.9 211.4Z" fill="#F3C142" stroke="white" stroke-linejoin="bevel" class="zr28-cls-84"></path>
<text dominant-baseline="central" text-anchor="middle" style="font-size:10px;font-family:sans-serif;" transform="matrix(0.782,-0.623,0.623,0.782,265.9261,269.9707)" fill="#333">version</text>
<text dominant-baseline="central" text-anchor="middle" style="font-size:12px;font-family:sans-serif;" transform="matrix(0.934,-0.357,0.357,0.934,243.9917,234.2599)" fill="#ccc" stroke="#000" stroke-width="2" paint-order="stroke" stroke-miterlimit="2">paths</text>
<text dominant-baseline="central" text-anchor="middle" style="font-size:9px;font-family:sans-serif;" transform="matrix(0.861,-0.508,0.508,0.861,228.1859,213.0197)" fill="#ccc" stroke="#000" stroke-width="2" paint-order="stroke" stroke-miterlimit="2">operations</text>
<text dominant-baseline="central" text-anchor="middle" style="font-size:12px;font-family:sans-serif;" transform="matrix(0.861,-0.508,0.508,0.861,219.3498,198.0404)" fill="#eee" stroke="#0AA40D" stroke-width="2" paint-order="stroke" stroke-miterlimit="2">GET</text>
<text dominant-baseline="central" text-anchor="middle" style="font-size:12px;font-family:sans-serif;" transform="matrix(0.807,-0.59,0.59,0.807,199.0118,180.2331)" fill="#ccc" stroke="#000" stroke-width="2" paint-order="stroke" stroke-miterlimit="2">query</text>
<path d="M-14.8 -16l66.6 0l0 32l-66.6 0Z" transform="translate(448.253 16)" fill="none" stroke="#ccc" stroke-width="0"></path>
<path d="M-7.3 -1.8L-0.1 4.8L7.3 -1.6M-7.3 4.3L-7.3 8.5L7.1 8.5L7.1 4.3M-0.1 4.7L-0.1 -8.5" transform="translate(448.253 16)" fill="none" stroke="#666"></path>
<path d="M-7.9 1M5.1 -3.4L8.1 -3.4L8.1 -6.4M8 -3C6.7 -6.4 3.2 -8.9 -1 -8.4C-5.3 -8 -8.6 -4.2 -8.4 0.2M-5.1 3.4L-8.1 3.4L-8.1 6.4M-8 3C-6.7 6.4 -3.2 8.9 1 8.4C5.3 8 8.6 4.2 8.4 -0.2" transform="translate(484.0476 16)" fill="none" stroke="#666"></path>
<style ><![CDATA[
.zr28-cls-0 {
animation:zr28-ani-0 1s cubic-bezier(0.65,0,0.35,1) both;
}
.zr28-cls-1 {
animation:zr28-ani-1 1s cubic-bezier(0.65,0,0.35,1) both;
}
.zr28-cls-2 {
animation:zr28-ani-2 1s cubic-bezier(0.65,0,0.35,1) both;
}
.zr28-cls-3 {
animation:zr28-ani-3 1s cubic-bezier(0.65,0,0.35,1) both;
}
.zr28-cls-4 {
animation:zr28-ani-4 1s cubic-bezier(0.65,0,0.35,1) both;
}
.zr28-cls-5 {
animation:zr28-ani-5 1s cubic-bezier(0.65,0,0.35,1) both;
}
.zr28-cls-6 {
animation:zr28-ani-6 1s cubic-bezier(0.65,0,0.35,1) both;
}
.zr28-cls-7 {
animation:zr28-ani-7 1s cubic-bezier(0.65,0,0.35,1) both;
}
.zr28-cls-8 {
animation:zr28-ani-8 1s cubic-bezier(0.65,0,0.35,1) both;
}
.zr28-cls-9 {
animation:zr28-ani-9 1s cubic-bezier(0.65,0,0.35,1) both;
}
.zr28-cls-10 {
animation:zr28-ani-10 1s cubic-bezier(0.65,0,0.35,1) both;
}
.zr28-cls-11 {
animation:zr28-ani-11 1s cubic-bezier(0.65,0,0.35,1) both;
}
.zr28-cls-12 {
animation:zr28-ani-12 1s cubic-bezier(0.65,0,0.35,1) both;
}
.zr28-cls-13 {
animation:zr28-ani-13 1s cubic-bezier(0.65,0,0.35,1) both;
}
.zr28-cls-14 {
animation:zr28-ani-14 1s cubic-bezier(0.65,0,0.35,1) both;
}
.zr28-cls-15 {
animation:zr28-ani-15 1s cubic-bezier(0.65,0,0.35,1) both;
}
.zr28-cls-16 {
animation:zr28-ani-16 1s cubic-bezier(0.65,0,0.35,1) both;
}
.zr28-cls-17 {
animation:zr28-ani-17 1s cubic-bezier(0.65,0,0.35,1) both;
}
.zr28-cls-18 {
animation:zr28-ani-18 1s cubic-bezier(0.65,0,0.35,1) both;
}
.zr28-cls-19 {
animation:zr28-ani-19 1s cubic-bezier(0.65,0,0.35,1) both;
}
.zr28-cls-20 {
animation:zr28-ani-20 1s cubic-bezier(0.65,0,0.35,1) both;
}
.zr28-cls-21 {
animation:zr28-ani-21 1s cubic-bezier(0.65,0,0.35,1) both;
}
.zr28-cls-22 {
animation:zr28-ani-22 1s cubic-bezier(0.65,0,0.35,1) both;
}
.zr28-cls-23 {
animation:zr28-ani-23 1s cubic-bezier(0.65,0,0.35,1) both;
}
.zr28-cls-24 {
animation:zr28-ani-24 1s cubic-bezier(0.65,0,0.35,1) both;
}
.zr28-cls-25 {
animation:zr28-ani-25 1s cubic-bezier(0.65,0,0.35,1) both;
}
.zr28-cls-26 {
animation:zr28-ani-26 1s cubic-bezier(0.65,0,0.35,1) both;
}
.zr28-cls-27 {
animation:zr28-ani-27 1s cubic-bezier(0.65,0,0.35,1) both;
}
.zr28-cls-28 {
animation:zr28-ani-28 1s cubic-bezier(0.65,0,0.35,1) both;
}
.zr28-cls-29 {
animation:zr28-ani-29 1s cubic-bezier(0.65,0,0.35,1) both;
}
.zr28-cls-30 {
animation:zr28-ani-30 1s cubic-bezier(0.65,0,0.35,1) both;
}
.zr28-cls-31 {
animation:zr28-ani-31 1s cubic-bezier(0.65,0,0.35,1) both;
}
.zr28-cls-32 {
animation:zr28-ani-32 1s cubic-bezier(0.65,0,0.35,1) both;
}
.zr28-cls-33 {
animation:zr28-ani-33 1s cubic-bezier(0.65,0,0.35,1) both;
}
.zr28-cls-34 {
animation:zr28-ani-34 1s cubic-bezier(0.65,0,0.35,1) both;
}
.zr28-cls-35 {
animation:zr28-ani-35 1s cubic-bezier(0.65,0,0.35,1) both;
}
.zr28-cls-36 {
animation:zr28-ani-36 1s cubic-bezier(0.65,0,0.35,1) both;
}
.zr28-cls-37 {
animation:zr28-ani-37 1s cubic-bezier(0.65,0,0.35,1) both;
}
.zr28-cls-38 {
animation:zr28-ani-38 1s cubic-bezier(0.65,0,0.35,1) both;
}
.zr28-cls-39 {
animation:zr28-ani-39 1s cubic-bezier(0.65,0,0.35,1) both;
}
.zr28-cls-40 {
animation:zr28-ani-40 1s cubic-bezier(0.65,0,0.35,1) both;
}
.zr28-cls-41 {
animation:zr28-ani-41 1s cubic-bezier(0.65,0,0.35,1) both;
}
.zr28-cls-42 {
animation:zr28-ani-42 1s cubic-bezier(0.65,0,0.35,1) both;
}
.zr28-cls-43 {
animation:zr28-ani-43 1s cubic-bezier(0.65,0,0.35,1) both;
}
.zr28-cls-44 {
animation:zr28-ani-44 1s cubic-bezier(0.65,0,0.35,1) both;
}
.zr28-cls-45 {
animation:zr28-ani-45 1s cubic-bezier(0.65,0,0.35,1) both;
}
.zr28-cls-46 {
animation:zr28-ani-46 1s cubic-bezier(0.65,0,0.35,1) both;
}
.zr28-cls-47 {
animation:zr28-ani-47 1s cubic-bezier(0.65,0,0.35,1) both;
}
.zr28-cls-48 {
animation:zr28-ani-48 1s cubic-bezier(0.65,0,0.35,1) both;
}
.zr28-cls-49 {
animation:zr28-ani-49 1s cubic-bezier(0.65,0,0.35,1) both;
}
.zr28-cls-50 {
animation:zr28-ani-50 1s cubic-bezier(0.65,0,0.35,1) both;
}
.zr28-cls-51 {
animation:zr28-ani-51 1s cubic-bezier(0.65,0,0.35,1) both;
}
.zr28-cls-52 {
animation:zr28-ani-52 1s cubic-bezier(0.65,0,0.35,1) both;
}
.zr28-cls-53 {
animation:zr28-ani-53 1s cubic-bezier(0.65,0,0.35,1) both;
}
.zr28-cls-54 {
animation:zr28-ani-54 1s cubic-bezier(0.65,0,0.35,1) both;
}
.zr28-cls-55 {
animation:zr28-ani-55 1s cubic-bezier(0.65,0,0.35,1) both;
}
.zr28-cls-56 {
animation:zr28-ani-56 1s cubic-bezier(0.65,0,0.35,1) both;
}
.zr28-cls-57 {
animation:zr28-ani-57 1s cubic-bezier(0.65,0,0.35,1) both;
}
.zr28-cls-58 {
animation:zr28-ani-58 1s cubic-bezier(0.65,0,0.35,1) both;
}
.zr28-cls-59 {
animation:zr28-ani-59 1s cubic-bezier(0.65,0,0.35,1) both;
}
.zr28-cls-60 {
animation:zr28-ani-60 1s cubic-bezier(0.65,0,0.35,1) both;
}
.zr28-cls-61 {
animation:zr28-ani-61 1s cubic-bezier(0.65,0,0.35,1) both;
}
.zr28-cls-62 {
animation:zr28-ani-62 1s cubic-bezier(0.65,0,0.35,1) both;
}
.zr28-cls-63 {
animation:zr28-ani-63 1s cubic-bezier(0.65,0,0.35,1) both;
}
.zr28-cls-64 {
animation:zr28-ani-64 1s cubic-bezier(0.65,0,0.35,1) both;
}
.zr28-cls-65 {
animation:zr28-ani-65 1s cubic-bezier(0.65,0,0.35,1) both;
}
.zr28-cls-66 {
animation:zr28-ani-66 1s cubic-bezier(0.65,0,0.35,1) both;
}
.zr28-cls-67 {
animation:zr28-ani-67 1s cubic-bezier(0.65,0,0.35,1) both;
}
.zr28-cls-68 {
animation:zr28-ani-68 1s cubic-bezier(0.65,0,0.35,1) both;
}
.zr28-cls-69 {
animation:zr28-ani-69 1s cubic-bezier(0.65,0,0.35,1) both;
}
.zr28-cls-70 {
animation:zr28-ani-70 1s cubic-bezier(0.65,0,0.35,1) both;
}
.zr28-cls-71 {
animation:zr28-ani-71 1s cubic-bezier(0.65,0,0.35,1) both;
}
.zr28-cls-72 {
animation:zr28-ani-72 1s cubic-bezier(0.65,0,0.35,1) both;
}
.zr28-cls-73 {
animation:zr28-ani-73 1s cubic-bezier(0.65,0,0.35,1) both;
}
.zr28-cls-74 {
animation:zr28-ani-74 1s cubic-bezier(0.65,0,0.35,1) both;
}
.zr28-cls-75 {
animation:zr28-ani-75 1s cubic-bezier(0.65,0,0.35,1) both;
}
.zr28-cls-76 {
animation:zr28-ani-76 1s cubic-bezier(0.65,0,0.35,1) both;
}
.zr28-cls-77 {
animation:zr28-ani-77 1s cubic-bezier(0.65,0,0.35,1) both;
}
.zr28-cls-78 {
animation:zr28-ani-78 1s cubic-bezier(0.65,0,0.35,1) both;
}
.zr28-cls-79 {
animation:zr28-ani-79 1s cubic-bezier(0.65,0,0.35,1) both;
}
.zr28-cls-80 {
animation:zr28-ani-80 1s cubic-bezier(0.65,0,0.35,1) both;
}
.zr28-cls-81 {
animation:zr28-ani-81 1s cubic-bezier(0.65,0,0.35,1) both;
}
.zr28-cls-82 {
animation:zr28-ani-82 1s cubic-bezier(0.65,0,0.35,1) both;
}
.zr28-cls-83 {
animation:zr28-ani-83 1s cubic-bezier(0.65,0,0.35,1) both;
}
.zr28-cls-84 {
animation:zr28-ani-84 1s cubic-bezier(0.65,0,0.35,1) both;
}
@keyframes zr28-ani-0 {
0% {
d:path("M250 237.5A12.5 12.5 0 1 1 241.7 240.7A12.5 12.5 0 1 0 250 237.5Z");
}
100% {
d:path("M250 228.8A21.2 21.2 0 1 1 235.9 234.2L241.7 240.7A12.5 12.5 0 1 0 250 237.5Z");
}
}
@keyframes zr28-ani-1 {
0% {
d:path("M250 228.8A21.2 21.2 0 1 1 229.3 245.3A21.2 21.2 0 1 0 250 228.8Z");
}
100% {
d:path("M250 220.1A29.9 29.9 0 1 1 220.9 243.3L229.3 245.3A21.2 21.2 0 1 0 250 228.8Z");
}
}
@keyframes zr28-ani-2 {
0% {
d:path("M229.3 245.3A21.2 21.2 0 0 1 235.9 234.2L235.9 234.2A21.2 21.2 0 0 0 229.3 245.3Z");
}
100% {
d:path("M220.9 243.3A29.9 29.9 0 0 1 230.1 227.7L235.9 234.2A21.2 21.2 0 0 0 229.3 245.3Z");
}
}
@keyframes zr28-ani-3 {
0% {
d:path("M241.7 240.7A12.5 12.5 0 0 1 250 237.5L250 237.5A12.5 12.5 0 0 0 241.7 240.7Z");
}
100% {
d:path("M235.9 234.2A21.2 21.2 0 0 1 250 228.8L250 237.5A12.5 12.5 0 0 0 241.7 240.7Z");
}
}
@keyframes zr28-ani-4 {
0% {
d:path("M235.9 234.2A21.2 21.2 0 0 1 244.1 229.6L244.1 229.6A21.2 21.2 0 0 0 235.9 234.2Z");
}
100% {
d:path("M230.1 227.7A29.9 29.9 0 0 1 241.7 221.3L244.1 229.6A21.2 21.2 0 0 0 235.9 234.2Z");
}
}
@keyframes zr28-ani-5 {
0% {
d:path("M230.1 227.7A29.9 29.9 0 0 1 240.1 221.8L240.1 221.8A29.9 29.9 0 0 0 230.1 227.7Z");
}
100% {
d:path("M224.3 221.2A38.6 38.6 0 0 1 237.3 213.6L240.1 221.8A29.9 29.9 0 0 0 230.1 227.7Z");
}
}
@keyframes zr28-ani-6 {
0% {
d:path("M224.3 221.2A38.6 38.6 0 0 1 237.3 213.6L237.3 213.6A38.6 38.6 0 0 0 224.3 221.2Z");
}
100% {
d:path("M218.5 214.7A47.3 47.3 0 0 1 234.4 205.4L237.3 213.6A38.6 38.6 0 0 0 224.3 221.2Z");
}
}
@keyframes zr28-ani-7 {
0% {
d:path("M218.5 214.7A47.3 47.3 0 0 1 234.4 205.4L234.4 205.4A47.3 47.3 0 0 0 218.5 214.7Z");
}
100% {
d:path("M212.7 208.3A56 56 0 0 1 231.5 197.2L234.4 205.4A47.3 47.3 0 0 0 218.5 214.7Z");
}
}
@keyframes zr28-ani-8 {
0% {
d:path("M212.7 208.3A56 56 0 0 1 231.5 197.2L231.5 197.2A56 56 0 0 0 212.7 208.3Z");
}
100% {
d:path("M206.9 201.8A64.7 64.7 0 0 1 228.6 189L231.5 197.2A56 56 0 0 0 212.7 208.3Z");
}
}
@keyframes zr28-ani-9 {
0% {
d:path("M206.9 201.8A64.7 64.7 0 0 1 221.9 191.7L221.9 191.7A64.7 64.7 0 0 0 206.9 201.8Z");
}
100% {
d:path("M201.1 195.3A73.4 73.4 0 0 1 218.2 183.9L221.9 191.7A64.7 64.7 0 0 0 206.9 201.8Z");
}
}
@keyframes zr28-ani-10 {
0% {
d:path("M201.1 195.3A73.4 73.4 0 0 1 212.7 186.8L212.7 186.8A73.4 73.4 0 0 0 201.1 195.3Z");
}
100% {
d:path("M195.3 188.8A82.1 82.1 0 0 1 208.3 179.3L212.7 186.8A73.4 73.4 0 0 0 201.1 195.3Z");
}
}
@keyframes zr28-ani-11 {
0% {
d:path("M195.3 188.8A82.1 82.1 0 0 1 208.3 179.3L208.3 179.3A82.1 82.1 0 0 0 195.3 188.8Z");
}
100% {
d:path("M189.5 182.3A90.8 90.8 0 0 1 203.9 171.8L208.3 179.3A82.1 82.1 0 0 0 195.3 188.8Z");
}
}
@keyframes zr28-ani-12 {
0% {
d:path("M189.5 182.3A90.8 90.8 0 0 1 193.4 179L193.4 179A90.8 90.8 0 0 0 189.5 182.3Z");
}
100% {
d:path("M183.7 175.8A99.5 99.5 0 0 1 188 172.2L193.4 179A90.8 90.8 0 0 0 189.5 182.3Z");
}
}
@keyframes zr28-ani-13 {
0% {
d:path("M183.7 175.8A99.5 99.5 0 0 1 188 172.2L188 172.2A99.5 99.5 0 0 0 183.7 175.8Z");
}
100% {
d:path("M177.9 169.4A108.2 108.2 0 0 1 182.6 165.4L188 172.2A99.5 99.5 0 0 0 183.7 175.8Z");
}
}
@keyframes zr28-ani-14 {
0% {
d:path("M193.4 179A90.8 90.8 0 0 1 197.5 176L197.5 176A90.8 90.8 0 0 0 193.4 179Z");
}
100% {
d:path("M188 172.2A99.5 99.5 0 0 1 192.4 168.9L197.5 176A90.8 90.8 0 0 0 193.4 179Z");
}
}
@keyframes zr28-ani-15 {
0% {
d:path("M188 172.2A99.5 99.5 0 0 1 190.2 170.5L190.2 170.5A99.5 99.5 0 0 0 188 172.2Z");
}
100% {
d:path("M182.6 165.4A108.2 108.2 0 0 1 185 163.6L190.2 170.5A99.5 99.5 0 0 0 188 172.2Z");
}
}
@keyframes zr28-ani-16 {
0% {
d:path("M182.6 165.4A108.2 108.2 0 0 1 185 163.6L185 163.6A108.2 108.2 0 0 0 182.6 165.4Z");
}
100% {
d:path("M177.1 158.6A116.8 116.8 0 0 1 179.7 156.6L185 163.6A108.2 108.2 0 0 0 182.6 165.4Z");
}
}
@keyframes zr28-ani-17 {
0% {
d:path("M177.1 158.6A116.8 116.8 0 0 1 179.7 156.6L179.7 156.6A116.8 116.8 0 0 0 177.1 158.6Z");
}
100% {
d:path("M171.7 151.8A125.5 125.5 0 0 1 174.5 149.7L179.7 156.6A116.8 116.8 0 0 0 177.1 158.6Z");
}
}
@keyframes zr28-ani-18 {
0% {
d:path("M171.7 151.8A125.5 125.5 0 0 1 174.5 149.7L174.5 149.7A125.5 125.5 0 0 0 171.7 151.8Z");
}
100% {
d:path("M166.3 145A134.2 134.2 0 0 1 169.3 142.7L174.5 149.7A125.5 125.5 0 0 0 171.7 151.8Z");
}
}
@keyframes zr28-ani-19 {
0% {
d:path("M166.3 145A134.2 134.2 0 0 1 169.3 142.7L169.3 142.7A134.2 134.2 0 0 0 166.3 145Z");
}
100% {
d:path("M160.9 138.2A142.9 142.9 0 0 1 164.1 135.8L169.3 142.7A134.2 134.2 0 0 0 166.3 145Z");
}
}
@keyframes zr28-ani-20 {
0% {
d:path("M190.2 170.5A99.5 99.5 0 0 1 192.4 168.9L192.4 168.9A99.5 99.5 0 0 0 190.2 170.5Z");
}
100% {
d:path("M185 163.6A108.2 108.2 0 0 1 187.4 161.8L192.4 168.9A99.5 99.5 0 0 0 190.2 170.5Z");
}
}
@keyframes zr28-ani-21 {
0% {
d:path("M197.5 176A90.8 90.8 0 0 1 199.6 174.5L199.6 174.5A90.8 90.8 0 0 0 197.5 176Z");
}
100% {
d:path("M192.4 168.9A99.5 99.5 0 0 1 194.7 167.3L199.6 174.5A90.8 90.8 0 0 0 197.5 176Z");
}
}
@keyframes zr28-ani-22 {
0% {
d:path("M192.4 168.9A99.5 99.5 0 0 1 194.7 167.3L194.7 167.3A99.5 99.5 0 0 0 192.4 168.9Z");
}
100% {
d:path("M187.4 161.8A108.2 108.2 0 0 1 189.9 160.1L194.7 167.3A99.5 99.5 0 0 0 192.4 168.9Z");
}
}
@keyframes zr28-ani-23 {
0% {
d:path("M187.4 161.8A108.2 108.2 0 0 1 189.9 160.1L189.9 160.1A108.2 108.2 0 0 0 187.4 161.8Z");
}
100% {
d:path("M182.4 154.7A116.8 116.8 0 0 1 185.1 152.8L189.9 160.1A108.2 108.2 0 0 0 187.4 161.8Z");
}
}
@keyframes zr28-ani-24 {
0% {
d:path("M199.6 174.5A90.8 90.8 0 0 1 201.7 173.2L201.7 173.2A90.8 90.8 0 0 0 199.6 174.5Z");
}
100% {
d:path("M194.7 167.3A99.5 99.5 0 0 1 197.1 165.8L201.7 173.2A90.8 90.8 0 0 0 199.6 174.5Z");
}
}
@keyframes zr28-ani-25 {
0% {
d:path("M194.7 167.3A99.5 99.5 0 0 1 197.1 165.8L197.1 165.8A99.5 99.5 0 0 0 194.7 167.3Z");
}
100% {
d:path("M189.9 160.1A108.2 108.2 0 0 1 192.5 158.4L197.1 165.8A99.5 99.5 0 0 0 194.7 167.3Z");
}
}
@keyframes zr28-ani-26 {
0% {
d:path("M201.7 173.2A90.8 90.8 0 0 1 203.9 171.8L203.9 171.8A90.8 90.8 0 0 0 201.7 173.2Z");
}
100% {
d:path("M197.1 165.8A99.5 99.5 0 0 1 199.5 164.3L203.9 171.8A90.8 90.8 0 0 0 201.7 173.2Z");
}
}
@keyframes zr28-ani-27 {
0% {
d:path("M197.1 165.8A99.5 99.5 0 0 1 199.5 164.3L199.5 164.3A99.5 99.5 0 0 0 197.1 165.8Z");
}
100% {
d:path("M192.5 158.4A108.2 108.2 0 0 1 195.1 156.8L199.5 164.3A99.5 99.5 0 0 0 197.1 165.8Z");
}
}
@keyframes zr28-ani-28 {
0% {
d:path("M212.7 186.8A73.4 73.4 0 0 1 216.3 184.8L216.3 184.8A73.4 73.4 0 0 0 212.7 186.8Z");
}
100% {
d:path("M208.3 179.3A82.1 82.1 0 0 1 212.3 177.1L216.3 184.8A73.4 73.4 0 0 0 212.7 186.8Z");
}
}
@keyframes zr28-ani-29 {
0% {
d:path("M208.3 179.3A82.1 82.1 0 0 1 212.3 177.1L212.3 177.1A82.1 82.1 0 0 0 208.3 179.3Z");
}
100% {
d:path("M203.9 171.8A90.8 90.8 0 0 1 208.3 169.4L212.3 177.1A82.1 82.1 0 0 0 208.3 179.3Z");
}
}
@keyframes zr28-ani-30 {
0% {
d:path("M203.9 171.8A90.8 90.8 0 0 1 206.1 170.6L206.1 170.6A90.8 90.8 0 0 0 203.9 171.8Z");
}
100% {
d:path("M199.5 164.3A99.5 99.5 0 0 1 201.9 163L206.1 170.6A90.8 90.8 0 0 0 203.9 171.8Z");
}
}
@keyframes zr28-ani-31 {
0% {
d:path("M206.1 170.6A90.8 90.8 0 0 1 208.3 169.4L208.3 169.4A90.8 90.8 0 0 0 206.1 170.6Z");
}
100% {
d:path("M201.9 163A99.5 99.5 0 0 1 204.4 161.6L208.3 169.4A90.8 90.8 0 0 0 206.1 170.6Z");
}
}
@keyframes zr28-ani-32 {
0% {
d:path("M216.3 184.8A73.4 73.4 0 0 1 218.2 183.9L218.2 183.9A73.4 73.4 0 0 0 216.3 184.8Z");
}
100% {
d:path("M212.3 177.1A82.1 82.1 0 0 1 214.4 176.1L218.2 183.9A73.4 73.4 0 0 0 216.3 184.8Z");
}
}
@keyframes zr28-ani-33 {
0% {
d:path("M212.3 177.1A82.1 82.1 0 0 1 214.4 176.1L214.4 176.1A82.1 82.1 0 0 0 212.3 177.1Z");
}
100% {
d:path("M208.3 169.4A90.8 90.8 0 0 1 210.6 168.2L214.4 176.1A82.1 82.1 0 0 0 212.3 177.1Z");
}
}
@keyframes zr28-ani-34 {
0% {
d:path("M208.3 169.4A90.8 90.8 0 0 1 210.6 168.2L210.6 168.2A90.8 90.8 0 0 0 208.3 169.4Z");
}
100% {
d:path("M204.4 161.6A99.5 99.5 0 0 1 206.8 160.4L210.6 168.2A90.8 90.8 0 0 0 208.3 169.4Z");
}
}
@keyframes zr28-ani-35 {
0% {
d:path("M221.9 191.7A64.7 64.7 0 0 1 228.6 189L228.6 189A64.7 64.7 0 0 0 221.9 191.7Z");
}
100% {
d:path("M218.2 183.9A73.4 73.4 0 0 1 225.8 180.7L228.6 189A64.7 64.7 0 0 0 221.9 191.7Z");
}
}
@keyframes zr28-ani-36 {
0% {
d:path("M218.2 183.9A73.4 73.4 0 0 1 225.8 180.7L225.8 180.7A73.4 73.4 0 0 0 218.2 183.9Z");
}
100% {
d:path("M214.4 176.1A82.1 82.1 0 0 1 222.9 172.5L225.8 180.7A73.4 73.4 0 0 0 218.2 183.9Z");
}
}
@keyframes zr28-ani-37 {
0% {
d:path("M214.4 176.1A82.1 82.1 0 0 1 222.9 172.5L222.9 172.5A82.1 82.1 0 0 0 214.4 176.1Z");
}
100% {
d:path("M210.6 168.2A90.8 90.8 0 0 1 220 164.3L222.9 172.5A82.1 82.1 0 0 0 214.4 176.1Z");
}
}
@keyframes zr28-ani-38 {
0% {
d:path("M210.6 168.2A90.8 90.8 0 0 1 220 164.3L220 164.3A90.8 90.8 0 0 0 210.6 168.2Z");
}
100% {
d:path("M206.8 160.4A99.5 99.5 0 0 1 217.2 156.1L220 164.3A90.8 90.8 0 0 0 210.6 168.2Z");
}
}
@keyframes zr28-ani-39 {
0% {
d:path("M206.8 160.4A99.5 99.5 0 0 1 217.2 156.1L217.2 156.1A99.5 99.5 0 0 0 206.8 160.4Z");
}
100% {
d:path("M203.1 152.6A108.2 108.2 0 0 1 214.3 147.9L217.2 156.1A99.5 99.5 0 0 0 206.8 160.4Z");
}
}
@keyframes zr28-ani-40 {
0% {
d:path("M203.1 152.6A108.2 108.2 0 0 1 214.3 147.9L214.3 147.9A108.2 108.2 0 0 0 203.1 152.6Z");
}
100% {
d:path("M199.3 144.7A116.8 116.8 0 0 1 211.4 139.7L214.3 147.9A108.2 108.2 0 0 0 203.1 152.6Z");
}
}
@keyframes zr28-ani-41 {
0% {
d:path("M199.3 144.7A116.8 116.8 0 0 1 211.4 139.7L211.4 139.7A116.8 116.8 0 0 0 199.3 144.7Z");
}
100% {
d:path("M195.5 136.9A125.5 125.5 0 0 1 208.5 131.5L211.4 139.7A116.8 116.8 0 0 0 199.3 144.7Z");
}
}
@keyframes zr28-ani-42 {
0% {
d:path("M195.5 136.9A125.5 125.5 0 0 1 208.5 131.5L208.5 131.5A125.5 125.5 0 0 0 195.5 136.9Z");
}
100% {
d:path("M191.8 129.1A134.2 134.2 0 0 1 205.7 123.3L208.5 131.5A125.5 125.5 0 0 0 195.5 136.9Z");
}
}
@keyframes zr28-ani-43 {
0% {
d:path("M191.8 129.1A134.2 134.2 0 0 1 205.7 123.3L205.7 123.3A134.2 134.2 0 0 0 191.8 129.1Z");
}
100% {
d:path("M188 121.2A142.9 142.9 0 0 1 202.8 115.1L205.7 123.3A134.2 134.2 0 0 0 191.8 129.1Z");
}
}
@keyframes zr28-ani-44 {
0% {
d:path("M188 121.2A142.9 142.9 0 0 1 202.8 115.1L202.8 115.1A142.9 142.9 0 0 0 188 121.2Z");
}
100% {
d:path("M184.2 113.4A151.6 151.6 0 0 1 199.9 106.9L202.8 115.1A142.9 142.9 0 0 0 188 121.2Z");
}
}
@keyframes zr28-ani-45 {
0% {
d:path("M184.2 113.4A151.6 151.6 0 0 1 199.9 106.9L199.9 106.9A151.6 151.6 0 0 0 184.2 113.4Z");
}
100% {
d:path("M180.4 105.6A160.3 160.3 0 0 1 197 98.7L199.9 106.9A151.6 151.6 0 0 0 184.2 113.4Z");
}
}
@keyframes zr28-ani-46 {
0% {
d:path("M180.4 105.6A160.3 160.3 0 0 1 192.8 100.2L192.8 100.2A160.3 160.3 0 0 0 180.4 105.6Z");
}
100% {
d:path("M176.7 97.7A169 169 0 0 1 189.7 92.1L192.8 100.2A160.3 160.3 0 0 0 180.4 105.6Z");
}
}
@keyframes zr28-ani-47 {
0% {
d:path("M176.7 97.7A169 169 0 0 1 189.7 92.1L189.7 92.1A169 169 0 0 0 176.7 97.7Z");
}
100% {
d:path("M172.9 89.9A177.7 177.7 0 0 1 186.6 84L189.7 92.1A169 169 0 0 0 176.7 97.7Z");
}
}
@keyframes zr28-ani-48 {
0% {
d:path("M172.9 89.9A177.7 177.7 0 0 1 186.6 84L186.6 84A177.7 177.7 0 0 0 172.9 89.9Z");
}
100% {
d:path("M169.1 82A186.4 186.4 0 0 1 183.5 75.8L186.6 84A177.7 177.7 0 0 0 172.9 89.9Z");
}
}
@keyframes zr28-ani-49 {
0% {
d:path("M169.1 82A186.4 186.4 0 0 1 183.5 75.8L183.5 75.8A186.4 186.4 0 0 0 169.1 82Z");
}
100% {
d:path("M165.3 74.2A195.1 195.1 0 0 1 180.4 67.7L183.5 75.8A186.4 186.4 0 0 0 169.1 82Z");
}
}
@keyframes zr28-ani-50 {
0% {
d:path("M165.3 74.2A195.1 195.1 0 0 1 170.3 71.9L170.3 71.9A195.1 195.1 0 0 0 165.3 74.2Z");
}
100% {
d:path("M161.6 66.4A203.8 203.8 0 0 1 166.8 64L170.3 71.9A195.1 195.1 0 0 0 165.3 74.2Z");
}
}
@keyframes zr28-ani-51 {
0% {
d:path("M161.6 66.4A203.8 203.8 0 0 1 166.8 64L166.8 64A203.8 203.8 0 0 0 161.6 66.4Z");
}
100% {
d:path("M157.8 58.5A212.5 212.5 0 0 1 163.2 56L166.8 64A203.8 203.8 0 0 0 161.6 66.4Z");
}
}
@keyframes zr28-ani-52 {
0% {
d:path("M170.3 71.9A195.1 195.1 0 0 1 175.3 69.7L175.3 69.7A195.1 195.1 0 0 0 170.3 71.9Z");
}
100% {
d:path("M166.8 64A203.8 203.8 0 0 1 172 61.7L175.3 69.7A195.1 195.1 0 0 0 170.3 71.9Z");
}
}
@keyframes zr28-ani-53 {
0% {
d:path("M166.8 64A203.8 203.8 0 0 1 172 61.7L172 61.7A203.8 203.8 0 0 0 166.8 64Z");
}
100% {
d:path("M163.2 56A212.5 212.5 0 0 1 168.7 53.7L172 61.7A203.8 203.8 0 0 0 166.8 64Z");
}
}
@keyframes zr28-ani-54 {
0% {
d:path("M175.3 69.7A195.1 195.1 0 0 1 180.4 67.7A195.1 195.1 0 0 0 175.3 69.7Z");
}
100% {
d:path("M172 61.7A203.8 203.8 0 0 1 177.3 59.6L180.4 67.7A195.1 195.1 0 0 0 175.3 69.7Z");
}
}
@keyframes zr28-ani-55 {
0% {
d:path("M172 61.7A203.8 203.8 0 0 1 177.3 59.6A203.8 203.8 0 0 0 172 61.7Z");
}
100% {
d:path("M168.7 53.7A212.5 212.5 0 0 1 174.2 51.5L177.3 59.6A203.8 203.8 0 0 0 172 61.7Z");
}
}
@keyframes zr28-ani-56 {
0% {
d:path("M192.8 100.2A160.3 160.3 0 0 1 197 98.7L197 98.7A160.3 160.3 0 0 0 192.8 100.2Z");
}
100% {
d:path("M189.7 92.1A169 169 0 0 1 194.2 90.5L197 98.7A160.3 160.3 0 0 0 192.8 100.2Z");
}
}
@keyframes zr28-ani-57 {
0% {
d:path("M189.7 92.1A169 169 0 0 1 194.2 90.5L194.2 90.5A169 169 0 0 0 189.7 92.1Z");
}
100% {
d:path("M186.6 84A177.7 177.7 0 0 1 191.3 82.3L194.2 90.5A169 169 0 0 0 189.7 92.1Z");
}
}
@keyframes zr28-ani-58 {
0% {
d:path("M240.1 221.8A29.9 29.9 0 0 1 241.7 221.3L241.7 221.3A29.9 29.9 0 0 0 240.1 221.8Z");
}
100% {
d:path("M237.3 213.6A38.6 38.6 0 0 1 239.3 212.9L241.7 221.3A29.9 29.9 0 0 0 240.1 221.8Z");
}
}
@keyframes zr28-ani-59 {
0% {
d:path("M237.3 213.6A38.6 38.6 0 0 1 239.3 212.9L239.3 212.9A38.6 38.6 0 0 0 237.3 213.6Z");
}
100% {
d:path("M234.4 205.4A47.3 47.3 0 0 1 236.9 204.6L239.3 212.9A38.6 38.6 0 0 0 237.3 213.6Z");
}
}
@keyframes zr28-ani-60 {
0% {
d:path("M234.4 205.4A47.3 47.3 0 0 1 236.9 204.6L236.9 204.6A47.3 47.3 0 0 0 234.4 205.4Z");
}
100% {
d:path("M231.5 197.2A56 56 0 0 1 234.5 196.2L236.9 204.6A47.3 47.3 0 0 0 234.4 205.4Z");
}
}
@keyframes zr28-ani-61 {
0% {
d:path("M231.5 197.2A56 56 0 0 1 234.5 196.2L234.5 196.2A56 56 0 0 0 231.5 197.2Z");
}
100% {
d:path("M228.6 189A64.7 64.7 0 0 1 232.1 187.9L234.5 196.2A56 56 0 0 0 231.5 197.2Z");
}
}
@keyframes zr28-ani-62 {
0% {
d:path("M228.6 189A64.7 64.7 0 0 1 232.1 187.9L232.1 187.9A64.7 64.7 0 0 0 228.6 189Z");
}
100% {
d:path("M225.8 180.7A73.4 73.4 0 0 1 229.7 179.5L232.1 187.9A64.7 64.7 0 0 0 228.6 189Z");
}
}
@keyframes zr28-ani-63 {
0% {
d:path("M225.8 180.7A73.4 73.4 0 0 1 229.7 179.5L229.7 179.5A73.4 73.4 0 0 0 225.8 180.7Z");
}
100% {
d:path("M222.9 172.5A82.1 82.1 0 0 1 227.3 171.1L229.7 179.5A73.4 73.4 0 0 0 225.8 180.7Z");
}
}
@keyframes zr28-ani-64 {
0% {
d:path("M222.9 172.5A82.1 82.1 0 0 1 227.3 171.1L227.3 171.1A82.1 82.1 0 0 0 222.9 172.5Z");
}
100% {
d:path("M220 164.3A90.8 90.8 0 0 1 224.9 162.8L227.3 171.1A82.1 82.1 0 0 0 222.9 172.5Z");
}
}
@keyframes zr28-ani-65 {
0% {
d:path("M220 164.3A90.8 90.8 0 0 1 222.4 163.5L222.4 163.5A90.8 90.8 0 0 0 220 164.3Z");
}
100% {
d:path("M217.2 156.1A99.5 99.5 0 0 1 219.8 155.2L222.4 163.5A90.8 90.8 0 0 0 220 164.3Z");
}
}
@keyframes zr28-ani-66 {
0% {
d:path("M222.4 163.5A90.8 90.8 0 0 1 224.9 162.8L224.9 162.8A90.8 90.8 0 0 0 222.4 163.5Z");
}
100% {
d:path("M219.8 155.2A99.5 99.5 0 0 1 222.5 154.4L224.9 162.8A90.8 90.8 0 0 0 222.4 163.5Z");
}
}
@keyframes zr28-ani-67 {
0% {
d:path("M219.8 155.2A99.5 99.5 0 0 1 222.5 154.4L222.5 154.4A99.5 99.5 0 0 0 219.8 155.2Z");
}
100% {
d:path("M217.2 147A108.2 108.2 0 0 1 220.1 146.1L222.5 154.4A99.5 99.5 0 0 0 219.8 155.2Z");
}
}
@keyframes zr28-ani-68 {
0% {
d:path("M217.2 147A108.2 108.2 0 0 1 220.1 146.1L220.1 146.1A108.2 108.2 0 0 0 217.2 147Z");
}
100% {
d:path("M214.5 138.7A116.8 116.8 0 0 1 217.7 137.7L220.1 146.1A108.2 108.2 0 0 0 217.2 147Z");
}
}
@keyframes zr28-ani-69 {
0% {
d:path("M244.1 229.6A21.2 21.2 0 0 1 247 229L247 229A21.2 21.2 0 0 0 244.1 229.6Z");
}
100% {
d:path("M241.7 221.3A29.9 29.9 0 0 1 245.8 220.4L247 229A21.2 21.2 0 0 0 244.1 229.6Z");
}
}
@keyframes zr28-ani-70 {
0% {
d:path("M241.7 221.3A29.9 29.9 0 0 1 244.2 220.7L244.2 220.7A29.9 29.9 0 0 0 241.7 221.3Z");
}
100% {
d:path("M239.3 212.9A38.6 38.6 0 0 1 242.5 212.2L244.2 220.7A29.9 29.9 0 0 0 241.7 221.3Z");
}
}
@keyframes zr28-ani-71 {
0% {
d:path("M239.3 212.9A38.6 38.6 0 0 1 240.4 212.6L240.4 212.6A38.6 38.6 0 0 0 239.3 212.9Z");
}
100% {
d:path("M236.9 204.6A47.3 47.3 0 0 1 238.2 204.2L240.4 212.6A38.6 38.6 0 0 0 239.3 212.9Z");
}
}
@keyframes zr28-ani-72 {
0% {
d:path("M240.4 212.6A38.6 38.6 0 0 1 241.4 212.4L241.4 212.4A38.6 38.6 0 0 0 240.4 212.6Z");
}
100% {
d:path("M238.2 204.2A47.3 47.3 0 0 1 239.5 203.9L241.4 212.4A38.6 38.6 0 0 0 240.4 212.6Z");
}
}
@keyframes zr28-ani-73 {
0% {
d:path("M241.4 212.4A38.6 38.6 0 0 1 242.5 212.2L242.5 212.2A38.6 38.6 0 0 0 241.4 212.4Z");
}
100% {
d:path("M239.5 203.9A47.3 47.3 0 0 1 240.8 203.6L242.5 212.2A38.6 38.6 0 0 0 241.4 212.4Z");
}
}
@keyframes zr28-ani-74 {
0% {
d:path("M244.2 220.7A29.9 29.9 0 0 1 245.8 220.4L245.8 220.4A29.9 29.9 0 0 0 244.2 220.7Z");
}
100% {
d:path("M242.5 212.2A38.6 38.6 0 0 1 244.6 211.8L245.8 220.4A29.9 29.9 0 0 0 244.2 220.7Z");
}
}
@keyframes zr28-ani-75 {
0% {
d:path("M242.5 212.2A38.6 38.6 0 0 1 243.5 212L243.5 212A38.6 38.6 0 0 0 242.5 212.2Z");
}
100% {
d:path("M240.8 203.6A47.3 47.3 0 0 1 242.1 203.4L243.5 212A38.6 38.6 0 0 0 242.5 212.2Z");
}
}
@keyframes zr28-ani-76 {
0% {
d:path("M243.5 212A38.6 38.6 0 0 1 244.6 211.8L244.6 211.8A38.6 38.6 0 0 0 243.5 212Z");
}
100% {
d:path("M242.1 203.4A47.3 47.3 0 0 1 243.4 203.2L244.6 211.8A38.6 38.6 0 0 0 243.5 212Z");
}
}
@keyframes zr28-ani-77 {
0% {
d:path("M247 229A21.2 21.2 0 0 1 250 228.8L250 228.8A21.2 21.2 0 0 0 247 229Z");
}
100% {
d:path("M245.8 220.4A29.9 29.9 0 0 1 250 220.1L250 228.8A21.2 21.2 0 0 0 247 229Z");
}
}
@keyframes zr28-ani-78 {
0% {
d:path("M245.8 220.4A29.9 29.9 0 0 1 248.3 220.2L248.3 220.2A29.9 29.9 0 0 0 245.8 220.4Z");
}
100% {
d:path("M244.6 211.8A38.6 38.6 0 0 1 247.8 211.5L248.3 220.2A29.9 29.9 0 0 0 245.8 220.4Z");
}
}
@keyframes zr28-ani-79 {
0% {
d:path("M244.6 211.8A38.6 38.6 0 0 1 245.7 211.7L245.7 211.7A38.6 38.6 0 0 0 244.6 211.8Z");
}
100% {
d:path("M243.4 203.2A47.3 47.3 0 0 1 244.7 203L245.7 211.7A38.6 38.6 0 0 0 244.6 211.8Z");
}
}
@keyframes zr28-ani-80 {
0% {
d:path("M245.7 211.7A38.6 38.6 0 0 1 246.8 211.5L246.8 211.5A38.6 38.6 0 0 0 245.7 211.7Z");
}
100% {
d:path("M244.7 203A47.3 47.3 0 0 1 246 202.9L246.8 211.5A38.6 38.6 0 0 0 245.7 211.7Z");
}
}
@keyframes zr28-ani-81 {
0% {
d:path("M246.8 211.5A38.6 38.6 0 0 1 247.8 211.5L247.8 211.5A38.6 38.6 0 0 0 246.8 211.5Z");
}
100% {
d:path("M246 202.9A47.3 47.3 0 0 1 247.3 202.8L247.8 211.5A38.6 38.6 0 0 0 246.8 211.5Z");
}
}
@keyframes zr28-ani-82 {
0% {
d:path("M248.3 220.2A29.9 29.9 0 0 1 250 220.1L250 220.1A29.9 29.9 0 0 0 248.3 220.2Z");
}
100% {
d:path("M247.8 211.5A38.6 38.6 0 0 1 250 211.4L250 220.1A29.9 29.9 0 0 0 248.3 220.2Z");
}
}
@keyframes zr28-ani-83 {
0% {
d:path("M247.8 211.5A38.6 38.6 0 0 1 248.9 211.4L248.9 211.4A38.6 38.6 0 0 0 247.8 211.5Z");
}
100% {
d:path("M247.3 202.8A47.3 47.3 0 0 1 248.7 202.7L248.9 211.4A38.6 38.6 0 0 0 247.8 211.5Z");
}
}
@keyframes zr28-ani-84 {
0% {
d:path("M248.9 211.4A38.6 38.6 0 0 1 250 211.4L250 211.4A38.6 38.6 0 0 0 248.9 211.4Z");
}
100% {
d:path("M248.7 202.7A47.3 47.3 0 0 1 250 202.7L250 211.4A38.6 38.6 0 0 0 248.9 211.4Z");
}
}
]]>

</style>
</svg>