<svg width="500" height="500" xmlns="http://www.w3.org/2000/svg" xmlns:xlink="http://www.w3.org/1999/xlink" version="1.1" baseProfile="full" viewBox="0 0 500 500">
<rect width="500" height="500" x="0" y="0" id="0" fill="none"></rect>
<path d="M250 224.2A25.8 25.8 0 1 1 234.3 229.5L242.4 240.1A12.5 12.5 0 1 0 250 237.5Z" fill="#C8C8C8" stroke="white" stroke-linejoin="bevel" class="zr40-cls-0"></path>
<path d="M250 210.8A39.2 39.2 0 1 1 226.3 218.8L234.3 229.5A25.8 25.8 0 1 0 250 224.2Z" fill="#C8C8C8" stroke="white" stroke-linejoin="bevel" class="zr40-cls-1"></path>
<path d="M234.3 229.5A25.8 25.8 0 0 1 250 224.2L250 237.5A12.5 12.5 0 0 0 242.4 240.1Z" fill="#000" stroke="white" stroke-linejoin="bevel" class="zr40-cls-2"></path>
<path d="M226.3 218.8A39.2 39.2 0 0 1 246.2 211L247.5 224.3A25.8 25.8 0 0 0 234.3 229.5Z" fill="#4949CD" fill-opacity="0.5" stroke="#fff" stroke-width="4" stroke-opacity="0.5" stroke-linejoin="bevel" class="zr40-cls-3"></path>
<path d="M218.2 208.2A52.5 52.5 0 0 1 236.5 199.3L239.9 212.2A39.2 39.2 0 0 0 226.3 218.8Z" fill="#000" stroke="white" stroke-linejoin="bevel" class="zr40-cls-4"></path>
<path d="M210.1 197.6A65.8 65.8 0 0 1 233 186.4L236.5 199.3A52.5 52.5 0 0 0 218.2 208.2Z" fill="#000" stroke="white" stroke-linejoin="bevel" class="zr40-cls-5"></path>
<path d="M202 187A79.2 79.2 0 0 1 229.6 173.5L233 186.4A65.8 65.8 0 0 0 210.1 197.6Z" fill="#4949CD" fill-opacity="0.5" stroke="#fff" stroke-width="4" stroke-opacity="0.5" stroke-linejoin="bevel" class="zr40-cls-6"></path>
<path d="M193.9 176.4A92.5 92.5 0 0 1 226.2 160.6L229.6 173.5A79.2 79.2 0 0 0 202 187Z" fill="#F3C142" stroke="white" stroke-linejoin="bevel" class="zr40-cls-7"></path>
<path d="M185.9 165.8A105.8 105.8 0 0 1 222.7 147.7L226.2 160.6A92.5 92.5 0 0 0 193.9 176.4Z" fill="#000" stroke="white" stroke-linejoin="bevel" class="zr40-cls-8"></path>
<path d="M177.8 155.2A119.2 119.2 0 0 1 219.3 134.9L222.7 147.7A105.8 105.8 0 0 0 185.9 165.8Z" fill="#000" stroke="white" stroke-linejoin="bevel" class="zr40-cls-9"></path>
<path d="M169.7 144.6A132.5 132.5 0 0 1 215.9 122L219.3 134.9A119.2 119.2 0 0 0 177.8 155.2Z" fill="#4949CD" fill-opacity="0.5" stroke="#fff" stroke-width="4" stroke-opacity="0.5" stroke-linejoin="bevel" class="zr40-cls-10"></path>
<path d="M161.6 134A145.8 145.8 0 0 1 173.3 125.9L180.4 137.3A132.5 132.5 0 0 0 169.7 144.6Z" fill="#000" stroke="white" stroke-linejoin="bevel" class="zr40-cls-11"></path>
<path d="M153.5 123.4A159.2 159.2 0 0 1 166.3 114.6L173.3 125.9A145.8 145.8 0 0 0 161.6 134Z" fill="#A0522D" stroke="white" stroke-linejoin="bevel" class="zr40-cls-12"></path>
<path d="M145.5 112.8A172.5 172.5 0 0 1 159.3 103.3L166.3 114.6A159.2 159.2 0 0 0 153.5 123.4Z" fill="#A0522D" stroke="white" stroke-linejoin="bevel" class="zr40-cls-13"></path>
<path d="M137.4 102.2A185.8 185.8 0 0 1 152.3 91.9L159.3 103.3A172.5 172.5 0 0 0 145.5 112.8Z" fill="#4949CD" fill-opacity="0.5" stroke="#fff" stroke-width="4" stroke-opacity="0.5" stroke-linejoin="bevel" class="zr40-cls-14"></path>
<path d="M129.3 91.6A199.2 199.2 0 0 1 139.9 84.1L147.2 95.2A185.8 185.8 0 0 0 137.4 102.2Z" fill="#A0522D" stroke="white" stroke-linejoin="bevel" class="zr40-cls-15"></path>
<path d="M121.2 81A212.5 212.5 0 0 1 132.5 73L139.9 84.1A199.2 199.2 0 0 0 129.3 91.6Z" fill="#C8C8C8" stroke="white" stroke-linejoin="bevel" class="zr40-cls-16"></path>
<path d="M139.9 84.1A199.2 199.2 0 0 1 145.3 80.6L152.3 91.9A185.8 185.8 0 0 0 147.2 95.2Z" fill="#A0522D" stroke="white" stroke-linejoin="bevel" class="zr40-cls-17"></path>
<path d="M132.5 73A212.5 212.5 0 0 1 138.3 69.2L145.3 80.6A199.2 199.2 0 0 0 139.9 84.1Z" fill="#C8C8C8" stroke="white" stroke-linejoin="bevel" class="zr40-cls-18"></path>
<path d="M173.3 125.9A145.8 145.8 0 0 1 185.8 119.1L191.7 131A132.5 132.5 0 0 0 180.4 137.3Z" fill="#000" stroke="white" stroke-linejoin="bevel" class="zr40-cls-19"></path>
<path d="M166.3 114.6A159.2 159.2 0 0 1 179.9 107.1L185.8 119.1A145.8 145.8 0 0 0 173.3 125.9Z" fill="#A0522D" stroke="white" stroke-linejoin="bevel" class="zr40-cls-20"></path>
<path d="M159.3 103.3A172.5 172.5 0 0 1 174.1 95.1L179.9 107.1A159.2 159.2 0 0 0 166.3 114.6Z" fill="#A0522D" stroke="white" stroke-linejoin="bevel" class="zr40-cls-21"></path>
<path d="M152.3 91.9A185.8 185.8 0 0 1 168.2 83.1L174.1 95.1A172.5 172.5 0 0 0 159.3 103.3Z" fill="#4949CD" fill-opacity="0.5" stroke="#fff" stroke-width="4" stroke-opacity="0.5" stroke-linejoin="bevel" class="zr40-cls-22"></path>
<path d="M145.3 80.6A199.2 199.2 0 0 1 156.6 74.1L162.8 85.9A185.8 185.8 0 0 0 152.3 91.9Z" fill="#A0522D" stroke="white" stroke-linejoin="bevel" class="zr40-cls-23"></path>
<path d="M138.3 69.2A212.5 212.5 0 0 1 150.3 62.3L156.6 74.1A199.2 199.2 0 0 0 145.3 80.6Z" fill="#C8C8C8" stroke="white" stroke-linejoin="bevel" class="zr40-cls-24"></path>
<path d="M156.6 74.1A199.2 199.2 0 0 1 162.3 71.2L168.2 83.1A185.8 185.8 0 0 0 162.8 85.9Z" fill="#A0522D" stroke="white" stroke-linejoin="bevel" class="zr40-cls-25"></path>
<path d="M150.3 62.3A212.5 212.5 0 0 1 156.5 59.2L162.3 71.2A199.2 199.2 0 0 0 156.6 74.1Z" fill="#C8C8C8" stroke="white" stroke-linejoin="bevel" class="zr40-cls-26"></path>
<path d="M185.8 119.1A145.8 145.8 0 0 1 198.9 113.4L203.6 125.9A132.5 132.5 0 0 0 191.7 131Z" fill="#000" stroke="white" stroke-linejoin="bevel" class="zr40-cls-27"></path>
<path d="M179.9 107.1A159.2 159.2 0 0 1 194.2 100.9L198.9 113.4A145.8 145.8 0 0 0 185.8 119.1Z" fill="#A0522D" stroke="white" stroke-linejoin="bevel" class="zr40-cls-28"></path>
<path d="M174.1 95.1A172.5 172.5 0 0 1 189.5 88.4L194.2 100.9A159.2 159.2 0 0 0 179.9 107.1Z" fill="#A0522D" stroke="white" stroke-linejoin="bevel" class="zr40-cls-29"></path>
<path d="M168.2 83.1A185.8 185.8 0 0 1 184.9 76L189.5 88.4A172.5 172.5 0 0 0 174.1 95.1Z" fill="#4949CD" fill-opacity="0.5" stroke="#fff" stroke-width="4" stroke-opacity="0.5" stroke-linejoin="bevel" class="zr40-cls-30"></path>
<path d="M162.3 71.2A199.2 199.2 0 0 1 174.2 65.8L179.2 78.2A185.8 185.8 0 0 0 168.2 83.1Z" fill="#A0522D" stroke="white" stroke-linejoin="bevel" class="zr40-cls-31"></path>
<path d="M156.5 59.2A212.5 212.5 0 0 1 169.1 53.5L174.2 65.8A199.2 199.2 0 0 0 162.3 71.2Z" fill="#C8C8C8" stroke="white" stroke-linejoin="bevel" class="zr40-cls-32"></path>
<path d="M174.2 65.8A199.2 199.2 0 0 1 180.2 63.5L184.9 76A185.8 185.8 0 0 0 179.2 78.2Z" fill="#A0522D" stroke="white" stroke-linejoin="bevel" class="zr40-cls-33"></path>
<path d="M169.1 53.5A212.5 212.5 0 0 1 175.5 51L180.2 63.5A199.2 199.2 0 0 0 174.2 65.8Z" fill="#C8C8C8" stroke="white" stroke-linejoin="bevel" class="zr40-cls-34"></path>
<path d="M198.9 113.4A145.8 145.8 0 0 1 212.4 109.1L215.9 122A132.5 132.5 0 0 0 203.6 125.9Z" fill="#000" stroke="white" stroke-linejoin="bevel" class="zr40-cls-35"></path>
<path d="M194.2 100.9A159.2 159.2 0 0 1 209 96.2L212.4 109.1A145.8 145.8 0 0 0 198.9 113.4Z" fill="#A0522D" stroke="white" stroke-linejoin="bevel" class="zr40-cls-36"></path>
<path d="M189.5 88.4A172.5 172.5 0 0 1 205.6 83.3L209 96.2A159.2 159.2 0 0 0 194.2 100.9Z" fill="#A0522D" stroke="white" stroke-linejoin="bevel" class="zr40-cls-37"></path>
<path d="M184.9 76A185.8 185.8 0 0 1 202.1 70.4L205.6 83.3A172.5 172.5 0 0 0 189.5 88.4Z" fill="#4949CD" fill-opacity="0.5" stroke="#fff" stroke-width="4" stroke-opacity="0.5" stroke-linejoin="bevel" class="zr40-cls-38"></path>
<path d="M180.2 63.5A199.2 199.2 0 0 1 192.5 59.3L196.3 72.1A185.8 185.8 0 0 0 184.9 76Z" fill="#A0522D" stroke="white" stroke-linejoin="bevel" class="zr40-cls-39"></path>
<path d="M175.5 51A212.5 212.5 0 0 1 188.6 46.6L192.5 59.3A199.2 199.2 0 0 0 180.2 63.5Z" fill="#C8C8C8" stroke="white" stroke-linejoin="bevel" class="zr40-cls-40"></path>
<path d="M192.5 59.3A199.2 199.2 0 0 1 198.7 57.6L202.1 70.4A185.8 185.8 0 0 0 196.3 72.1Z" fill="#A0522D" stroke="white" stroke-linejoin="bevel" class="zr40-cls-41"></path>
<path d="M188.6 46.6A212.5 212.5 0 0 1 195.3 44.7L198.7 57.6A199.2 199.2 0 0 0 192.5 59.3Z" fill="#C8C8C8" stroke="white" stroke-linejoin="bevel" class="zr40-cls-42"></path>
<path d="M236.5 199.3A52.5 52.5 0 0 1 243.2 197.9L244.9 211.2A39.2 39.2 0 0 0 239.9 212.2Z" fill="#000" stroke="white" stroke-linejoin="bevel" class="zr40-cls-43"></path>
<path d="M233 186.4A65.8 65.8 0 0 1 241.5 184.7L243.2 197.9A52.5 52.5 0 0 0 236.5 199.3Z" fill="#000" stroke="white" stroke-linejoin="bevel" class="zr40-cls-44"></path>
<path d="M229.6 173.5A79.2 79.2 0 0 1 239.7 171.5L241.5 184.7A65.8 65.8 0 0 0 233 186.4Z" fill="#4949CD" fill-opacity="0.5" stroke="#fff" stroke-width="4" stroke-opacity="0.5" stroke-linejoin="bevel" class="zr40-cls-45"></path>
<path d="M226.2 160.6A92.5 92.5 0 0 1 238 158.3L239.7 171.5A79.2 79.2 0 0 0 229.6 173.5Z" fill="#6dc0e3" stroke="white" stroke-linejoin="bevel" class="zr40-cls-46"></path>
<path d="M222.7 147.7A105.8 105.8 0 0 1 236.3 145.1L238 158.3A92.5 92.5 0 0 0 226.2 160.6Z" fill="#000" stroke="white" stroke-linejoin="bevel" class="zr40-cls-47"></path>
<path d="M219.3 134.9A119.2 119.2 0 0 1 234.5 131.8L236.3 145.1A105.8 105.8 0 0 0 222.7 147.7Z" fill="#000" stroke="white" stroke-linejoin="bevel" class="zr40-cls-48"></path>
<path d="M215.9 122A132.5 132.5 0 0 1 232.8 118.6L234.5 131.8A119.2 119.2 0 0 0 219.3 134.9Z" fill="#4949CD" fill-opacity="0.5" stroke="#fff" stroke-width="4" stroke-opacity="0.5" stroke-linejoin="bevel" class="zr40-cls-49"></path>
<path d="M212.4 109.1A145.8 145.8 0 0 1 217.1 107.9L220.1 120.9A132.5 132.5 0 0 0 215.9 122Z" fill="#000" stroke="white" stroke-linejoin="bevel" class="zr40-cls-50"></path>
<path d="M209 96.2A159.2 159.2 0 0 1 214 94.9L217.1 107.9A145.8 145.8 0 0 0 212.4 109.1Z" fill="#A0522D" stroke="white" stroke-linejoin="bevel" class="zr40-cls-51"></path>
<path d="M205.6 83.3A172.5 172.5 0 0 1 211 82L214 94.9A159.2 159.2 0 0 0 209 96.2Z" fill="#A0522D" stroke="white" stroke-linejoin="bevel" class="zr40-cls-52"></path>
<path d="M202.1 70.4A185.8 185.8 0 0 1 208 69L211 82A172.5 172.5 0 0 0 205.6 83.3Z" fill="#ff4949" fill-opacity="0.5" stroke="#fff" stroke-width="4" stroke-opacity="0.5" stroke-linejoin="bevel" class="zr40-cls-53"></path>
<path d="M198.7 57.6A199.2 199.2 0 0 1 205 56L208 69A185.8 185.8 0 0 0 202.1 70.4Z" fill="#A0522D" stroke="white" stroke-linejoin="bevel" class="zr40-cls-54"></path>
<path d="M217.1 107.9A145.8 145.8 0 0 1 221.7 106.9L224.3 120A132.5 132.5 0 0 0 220.1 120.9Z" fill="#000" stroke="white" stroke-linejoin="bevel" class="zr40-cls-55"></path>
<path d="M214 94.9A159.2 159.2 0 0 1 219.1 93.9L221.7 106.9A145.8 145.8 0 0 0 217.1 107.9Z" fill="#A0522D" stroke="white" stroke-linejoin="bevel" class="zr40-cls-56"></path>
<path d="M211 82A172.5 172.5 0 0 1 216.5 80.8L219.1 93.9A159.2 159.2 0 0 0 214 94.9Z" fill="#A0522D" stroke="white" stroke-linejoin="bevel" class="zr40-cls-57"></path>
<path d="M208 69A185.8 185.8 0 0 1 213.9 67.7L216.5 80.8A172.5 172.5 0 0 0 211 82Z" fill="#ff4949" fill-opacity="0.5" stroke="#fff" stroke-width="4" stroke-opacity="0.5" stroke-linejoin="bevel" class="zr40-cls-58"></path>
<path d="M205 56A199.2 199.2 0 0 1 211.3 54.6L213.9 67.7A185.8 185.8 0 0 0 208 69Z" fill="#A0522D" stroke="white" stroke-linejoin="bevel" class="zr40-cls-59"></path>
<path d="M221.7 106.9A145.8 145.8 0 0 1 226.4 106.1L228.5 119.3A132.5 132.5 0 0 0 224.3 120Z" fill="#000" stroke="white" stroke-linejoin="bevel" class="zr40-cls-60"></path>
<path d="M219.1 93.9A159.2 159.2 0 0 1 224.2 92.9L226.4 106.1A145.8 145.8 0 0 0 221.7 106.9Z" fill="#A0522D" stroke="white" stroke-linejoin="bevel" class="zr40-cls-61"></path>
<path d="M216.5 80.8A172.5 172.5 0 0 1 222 79.8L224.2 92.9A159.2 159.2 0 0 0 219.1 93.9Z" fill="#A0522D" stroke="white" stroke-linejoin="bevel" class="zr40-cls-62"></path>
<path d="M213.9 67.7A185.8 185.8 0 0 1 219.9 66.6L222 79.8A172.5 172.5 0 0 0 216.5 80.8Z" fill="#ff4949" fill-opacity="0.5" stroke="#fff" stroke-width="4" stroke-opacity="0.5" stroke-linejoin="bevel" class="zr40-cls-63"></path>
<path d="M211.3 54.6A199.2 199.2 0 0 1 217.7 53.5L219.9 66.6A185.8 185.8 0 0 0 213.9 67.7Z" fill="#A0522D" stroke="white" stroke-linejoin="bevel" class="zr40-cls-64"></path>
<path d="M226.4 106.1A145.8 145.8 0 0 1 231.1 105.4L232.8 118.6A132.5 132.5 0 0 0 228.5 119.3Z" fill="#000" stroke="white" stroke-linejoin="bevel" class="zr40-cls-65"></path>
<path d="M224.2 92.9A159.2 159.2 0 0 1 229.3 92.2L231.1 105.4A145.8 145.8 0 0 0 226.4 106.1Z" fill="#A0522D" stroke="white" stroke-linejoin="bevel" class="zr40-cls-66"></path>
<path d="M222 79.8A172.5 172.5 0 0 1 227.6 79L229.3 92.2A159.2 159.2 0 0 0 224.2 92.9Z" fill="#A0522D" stroke="white" stroke-linejoin="bevel" class="zr40-cls-67"></path>
<path d="M219.9 66.6A185.8 185.8 0 0 1 225.9 65.7L227.6 79A172.5 172.5 0 0 0 222 79.8Z" fill="#ff4949" fill-opacity="0.5" stroke="#fff" stroke-width="4" stroke-opacity="0.5" stroke-linejoin="bevel" class="zr40-cls-68"></path>
<path d="M217.7 53.5A199.2 199.2 0 0 1 224.1 52.5L225.9 65.7A185.8 185.8 0 0 0 219.9 66.6Z" fill="#A0522D" stroke="white" stroke-linejoin="bevel" class="zr40-cls-69"></path>
<path d="M243.2 197.9A52.5 52.5 0 0 1 244.9 197.8L246.2 211A39.2 39.2 0 0 0 244.9 211.2Z" fill="#000" stroke="white" stroke-linejoin="bevel" class="zr40-cls-70"></path>
<path d="M241.5 184.7A65.8 65.8 0 0 1 243.6 184.5L244.9 197.8A52.5 52.5 0 0 0 243.2 197.9Z" fill="#000" stroke="white" stroke-linejoin="bevel" class="zr40-cls-71"></path>
<path d="M239.7 171.5A79.2 79.2 0 0 1 242.3 171.2L243.6 184.5A65.8 65.8 0 0 0 241.5 184.7Z" fill="#49ff49" fill-opacity="0.5" stroke="#fff" stroke-width="4" stroke-opacity="0.5" stroke-linejoin="bevel" class="zr40-cls-72"></path>
<path d="M238 158.3A92.5 92.5 0 0 1 241 157.9L242.3 171.2A79.2 79.2 0 0 0 239.7 171.5Z" fill="#d6c9d4" stroke="white" stroke-linejoin="bevel" class="zr40-cls-73"></path>
<path d="M246.2 211A39.2 39.2 0 0 1 250 210.8L250 224.2A25.8 25.8 0 0 0 247.5 224.3Z" fill="#49ff49" fill-opacity="0.5" stroke="#fff" stroke-width="4" stroke-opacity="0.5" stroke-linejoin="bevel" class="zr40-cls-74"></path>
<path d="M244.9 197.8A52.5 52.5 0 0 1 246.6 197.6L247.5 210.9A39.2 39.2 0 0 0 246.2 211Z" fill="#000" stroke="white" stroke-linejoin="bevel" class="zr40-cls-75"></path>
<path d="M243.6 184.5A65.8 65.8 0 0 1 245.7 184.3L246.6 197.6A52.5 52.5 0 0 0 244.9 197.8Z" fill="#0AA40D" stroke="white" stroke-linejoin="bevel" class="zr40-cls-76"></path>
<path d="M246.6 197.6A52.5 52.5 0 0 1 248.3 197.5L248.7 210.9A39.2 39.2 0 0 0 247.5 210.9Z" fill="#000" stroke="white" stroke-linejoin="bevel" class="zr40-cls-77"></path>
<path d="M245.7 184.3A65.8 65.8 0 0 1 247.9 184.2L248.3 197.5A52.5 52.5 0 0 0 246.6 197.6Z" fill="#0AA40D" stroke="white" stroke-linejoin="bevel" class="zr40-cls-78"></path>
<path d="M248.3 197.5A52.5 52.5 0 0 1 250 197.5L250 210.8A39.2 39.2 0 0 0 248.7 210.9Z" fill="#000" stroke="white" stroke-linejoin="bevel" class="zr40-cls-79"></path>
<path d="M247.9 184.2A65.8 65.8 0 0 1 250 184.2L250 197.5A52.5 52.5 0 0 0 248.3 197.5Z" fill="#d6c9d4" stroke="white" stroke-linejoin="bevel" class="zr40-cls-80"></path>
<text dominant-baseline="central" text-anchor="middle" style="font-size:12px;font-family:sans-serif;" transform="matrix(0.947,-0.32,0.32,0.947,256.1301,268.1599)" fill="#333">info</text>
<text dominant-baseline="central" text-anchor="middle" style="font-size:10px;font-family:sans-serif;" transform="matrix(0.947,-0.32,0.32,0.947,260.3946,280.7929)" fill="#333">version</text>
<text dominant-baseline="central" text-anchor="middle" style="font-size:12px;font-family:sans-serif;" transform="matrix(0.947,-0.32,0.32,0.947,243.8699,231.8401)" fill="#ccc" stroke="#000" stroke-width="2" paint-order="stroke" stroke-miterlimit="2">paths</text>
<text dominant-baseline="central" text-anchor="middle" style="font-size:9px;font-family:sans-serif;" transform="matrix(0.898,-0.44,0.44,0.898,223.9573,196.8731)" fill="#ccc" stroke="#000" stroke-width="2" paint-order="stroke" stroke-miterlimit="2">operations</text>
<text dominant-baseline="central" text-anchor="middle" style="font-size:12px;font-family:sans-serif;" transform="matrix(0.898,-0.44,0.44,0.898,212.2197,172.9285)" fill="#333">POST</text>
<text dominant-baseline="central" text-anchor="middle" style="font-size:9px;font-family:sans-serif;" transform="matrix(0.898,-0.44,0.44,0.898,206.351,160.9563)" fill="#ccc" stroke="#000" stroke-width="2" paint-order="stroke" stroke-miterlimit="2">requestBody</text>
<text dominant-baseline="central" text-anchor="middle" style="font-size:10px;font-family:sans-serif;" transform="matrix(0.898,-0.44,0.44,0.898,200.4822,148.984)" fill="#ccc" stroke="#000" stroke-width="2" paint-order="stroke" stroke-miterlimit="2">content</text>
<path d="M-14.8 -16l66.6 0l0 32l-66.6 0Z" transform="translate(448.253 16)" fill="none" stroke="#ccc" stroke-width="0"></path>
<path d="M-7.3 -1.8L-0.1 4.8L7.3 -1.6M-7.3 4.3L-7.3 8.5L7.1 8.5L7.1 4.3M-0.1 4.7L-0.1 -8.5" transform="translate(448.253 16)" fill="none" stroke="#666"></path>
<path d="M-7.9 1M5.1 -3.4L8.1 -3.4L8.1 -6.4M8 -3C6.7 -6.4 3.2 -8.9 -1 -8.4C-5.3 -8 -8.6 -4.2 -8.4 0.2M-5.1 3.4L-8.1 3.4L-8.1 6.4M-8 3C-6.7 6.4 -3.2 8.9 1 8.4C5.3 8 8.6 4.2 8.4 -0.2" transform="translate(484.0476 16)" fill="none" stroke="#666"></path>
<style ><![CDATA[
.zr40-cls-0 {
animation:zr40-ani-0 1s cubic-bezier(0.65,0,0.35,1) both;
}
.zr40-cls-1 {
animation:zr40-ani-1 1s cubic-bezier(0.65,0,0.35,1) both;
}
.zr40-cls-2 {
animation:zr40-ani-2 1s cubic-bezier(0.65,0,0.35,1) both;
}
.zr40-cls-3 {
animation:zr40-ani-3 1s cubic-bezier(0.65,0,0.35,1) both;
}
.zr40-cls-4 {
animation:zr40-ani-4 1s cubic-bezier(0.65,0,0.35,1) both;
}
.zr40-cls-5 {
animation:zr40-ani-5 1s cubic-bezier(0.65,0,0.35,1) both;
}
.zr40-cls-6 {
animation:zr40-ani-6 1s cubic-bezier(0.65,0,0.35,1) both;
}
.zr40-cls-7 {
animation:zr40-ani-7 1s cubic-bezier(0.65,0,0.35,1) both;
}
.zr40-cls-8 {
animation:zr40-ani-8 1s cubic-bezier(0.65,0,0.35,1) both;
}
.zr40-cls-9 {
animation:zr40-ani-9 1s cubic-bezier(0.65,0,0.35,1) both;
}
.zr40-cls-10 {
animation:zr40-ani-10 1s cubic-bezier(0.65,0,0.35,1) both;
}
.zr40-cls-11 {
animation:zr40-ani-11 1s cubic-bezier(0.65,0,0.35,1) both;
}
.zr40-cls-12 {
animation:zr40-ani-12 1s cubic-bezier(0.65,0,0.35,1) both;
}
.zr40-cls-13 {
animation:zr40-ani-13 1s cubic-bezier(0.65,0,0.35,1) both;
}
.zr40-cls-14 {
animation:zr40-ani-14 1s cubic-bezier(0.65,0,0.35,1) both;
}
.zr40-cls-15 {
animation:zr40-ani-15 1s cubic-bezier(0.65,0,0.35,1) both;
}
.zr40-cls-16 {
animation:zr40-ani-16 1s cubic-bezier(0.65,0,0.35,1) both;
}
.zr40-cls-17 {
animation:zr40-ani-17 1s cubic-bezier(0.65,0,0.35,1) both;
}
.zr40-cls-18 {
animation:zr40-ani-18 1s cubic-bezier(0.65,0,0.35,1) both;
}
.zr40-cls-19 {
animation:zr40-ani-19 1s cubic-bezier(0.65,0,0.35,1) both;
}
.zr40-cls-20 {
animation:zr40-ani-20 1s cubic-bezier(0.65,0,0.35,1) both;
}
.zr40-cls-21 {
animation:zr40-ani-21 1s cubic-bezier(0.65,0,0.35,1) both;
}
.zr40-cls-22 {
animation:zr40-ani-22 1s cubic-bezier(0.65,0,0.35,1) both;
}
.zr40-cls-23 {
animation:zr40-ani-23 1s cubic-bezier(0.65,0,0.35,1) both;
}
.zr40-cls-24 {
animation:zr40-ani-24 1s cubic-bezier(0.65,0,0.35,1) both;
}
.zr40-cls-25 {
animation:zr40-ani-25 1s cubic-bezier(0.65,0,0.35,1) both;
}
.zr40-cls-26 {
animation:zr40-ani-26 1s cubic-bezier(0.65,0,0.35,1) both;
}
.zr40-cls-27 {
animation:zr40-ani-27 1s cubic-bezier(0.65,0,0.35,1) both;
}
.zr40-cls-28 {
animation:zr40-ani-28 1s cubic-bezier(0.65,0,0.35,1) both;
}
.zr40-cls-29 {
animation:zr40-ani-29 1s cubic-bezier(0.65,0,0.35,1) both;
}
.zr40-cls-30 {
animation:zr40-ani-30 1s cubic-bezier(0.65,0,0.35,1) both;
}
.zr40-cls-31 {
animation:zr40-ani-31 1s cubic-bezier(0.65,0,0.35,1) both;
}
.zr40-cls-32 {
animation:zr40-ani-32 1s cubic-bezier(0.65,0,0.35,1) both;
}
.zr40-cls-33 {
animation:zr40-ani-33 1s cubic-bezier(0.65,0,0.35,1) both;
}
.zr40-cls-34 {
animation:zr40-ani-34 1s cubic-bezier(0.65,0,0.35,1) both;
}
.zr40-cls-35 {
animation:zr40-ani-35 1s cubic-bezier(0.65,0,0.35,1) both;
}
.zr40-cls-36 {
animation:zr40-ani-36 1s cubic-bezier(0.65,0,0.35,1) both;
}
.zr40-cls-37 {
animation:zr40-ani-37 1s cubic-bezier(0.65,0,0.35,1) both;
}
.zr40-cls-38 {
animation:zr40-ani-38 1s cubic-bezier(0.65,0,0.35,1) both;
}
.zr40-cls-39 {
animation:zr40-ani-39 1s cubic-bezier(0.65,0,0.35,1) both;
}
.zr40-cls-40 {
animation:zr40-ani-40 1s cubic-bezier(0.65,0,0.35,1) both;
}
.zr40-cls-41 {
animation:zr40-ani-41 1s cubic-bezier(0.65,0,0.35,1) both;
}
.zr40-cls-42 {
animation:zr40-ani-42 1s cubic-bezier(0.65,0,0.35,1) both;
}
.zr40-cls-43 {
animation:zr40-ani-43 1s cubic-bezier(0.65,0,0.35,1) both;
}
.zr40-cls-44 {
animation:zr40-ani-44 1s cubic-bezier(0.65,0,0.35,1) both;
}
.zr40-cls-45 {
animation:zr40-ani-45 1s cubic-bezier(0.65,0,0.35,1) both;
}
.zr40-cls-46 {
animation:zr40-ani-46 1s cubic-bezier(0.65,0,0.35,1) both;
}
.zr40-cls-47 {
animation:zr40-ani-47 1s cubic-bezier(0.65,0,0.35,1) both;
}
.zr40-cls-48 {
animation:zr40-ani-48 1s cubic-bezier(0.65,0,0.35,1) both;
}
.zr40-cls-49 {
animation:zr40-ani-49 1s cubic-bezier(0.65,0,0.35,1) both;
}
.zr40-cls-50 {
animation:zr40-ani-50 1s cubic-bezier(0.65,0,0.35,1) both;
}
.zr40-cls-51 {
animation:zr40-ani-51 1s cubic-bezier(0.65,0,0.35,1) both;
}
.zr40-cls-52 {
animation:zr40-ani-52 1s cubic-bezier(0.65,0,0.35,1) both;
}
.zr40-cls-53 {
animation:zr40-ani-53 1s cubic-bezier(0.65,0,0.35,1) both;
}
.zr40-cls-54 {
animation:zr40-ani-54 1s cubic-bezier(0.65,0,0.35,1) both;
}
.zr40-cls-55 {
animation:zr40-ani-55 1s cubic-bezier(0.65,0,0.35,1) both;
}
.zr40-cls-56 {
animation:zr40-ani-56 1s cubic-bezier(0.65,0,0.35,1) both;
}
.zr40-cls-57 {
animation:zr40-ani-57 1s cubic-bezier(0.65,0,0.35,1) both;
}
.zr40-cls-58 {
animation:zr40-ani-58 1s cubic-bezier(0.65,0,0.35,1) both;
}
.zr40-cls-59 {
animation:zr40-ani-59 1s cubic-bezier(0.65,0,0.35,1) both;
}
.zr40-cls-60 {
animation:zr40-ani-60 1s cubic-bezier(0.65,0,0.35,1) both;
}
.zr40-cls-61 {
animation:zr40-ani-61 1s cubic-bezier(0.65,0,0.35,1) both;
}
.zr40-cls-62 {
animation:zr40-ani-62 1s cubic-bezier(0.65,0,0.35,1) both;
}
.zr40-cls-63 {
animation:zr40-ani-63 1s cubic-bezier(0.65,0,0.35,1) both;
}
.zr40-cls-64 {
animation:zr40-ani-64 1s cubic-bezier(0.65,0,0.35,1) both;
}
.zr40-cls-65 {
animation:zr40-ani-65 1s cubic-bezier(0.65,0,0.35,1) both;
}
.zr40-cls-66 {
animation:zr40-ani-66 1s cubic-bezier(0.65,0,0.35,1) both;
}
.zr40-cls-67 {
animation:zr40-ani-67 1s cubic-bezier(0.65,0,0.35,1) both;
}
.zr40-cls-68 {
animation:zr40-ani-68 1s cubic-bezier(0.65,0,0.35,1) both;
}
.zr40-cls-69 {
animation:zr40-ani-69 1s cubic-bezier(0.65,0,0.35,1) both;
}
.zr40-cls-70 {
animation:zr40-ani-70 1s cubic-bezier(0.65,0,0.35,1) both;
}
.zr40-cls-71 {
animation:zr40-ani-71 1s cubic-bezier(0.65,0,0.35,1) both;
}
.zr40-cls-72 {
animation:zr40-ani-72 1s cubic-bezier(0.65,0,0.35,1) both;
}
.zr40-cls-73 {
animation:zr40-ani-73 1s cubic-bezier(0.65,0,0.35,1) both;
}
.zr40-cls-74 {
animation:zr40-ani-74 1s cubic-bezier(0.65,0,0.35,1) both;
}
.zr40-cls-75 {
animation:zr40-ani-75 1s cubic-bezier(0.65,0,0.35,1) both;
}
.zr40-cls-76 {
animation:zr40-ani-76 1s cubic-bezier(0.65,0,0.35,1) both;
}
.zr40-cls-77 {
animation:zr40-ani-77 1s cubic-bezier(0.65,0,0.35,1) both;
}
.zr40-cls-78 {
animation:zr40-ani-78 1s cubic-bezier(0.65,0,0.35,1) both;
}
.zr40-cls-79 {
animation:zr40-ani-79 1s cubic-bezier(0.65,0,0.35,1) both;
}
.zr40-cls-80 {
animation:zr40-ani-80 1s cubic-bezier(0.65,0,0.35,1) both;
}
@keyframes zr40-ani-0 {
0% {
d:path("M250 237.5A12.5 12.5 0 1 1 242.4 240.1A12.5 12.5 0 1 0 250 237.5Z");
}
100% {
d:path("M250 224.2A25.8 25.8 0 1 1 234.3 229.5L242.4 240.1A12.5 12.5 0 1 0 250 237.5Z");
}
}
@keyframes zr40-ani-1 {
0% {
d:path("M250 224.2A25.8 25.8 0 1 1 234.3 229.5L234.3 229.5A25.8 25.8 0 1 0 250 224.2Z");
}
100% {
d:path("M250 210.8A39.2 39.2 0 1 1 226.3 218.8L234.3 229.5A25.8 25.8 0 1 0 250 224.2Z");
}
}
@keyframes zr40-ani-2 {
0% {
d:path("M242.4 240.1A12.5 12.5 0 0 1 250 237.5L250 237.5A12.5 12.5 0 0 0 242.4 240.1Z");
}
100% {
d:path("M234.3 229.5A25.8 25.8 0 0 1 250 224.2L250 237.5A12.5 12.5 0 0 0 242.4 240.1Z");
}
}
@keyframes zr40-ani-3 {
0% {
d:path("M234.3 229.5A25.8 25.8 0 0 1 247.5 224.3L247.5 224.3A25.8 25.8 0 0 0 234.3 229.5Z");
}
100% {
d:path("M226.3 218.8A39.2 39.2 0 0 1 246.2 211L247.5 224.3A25.8 25.8 0 0 0 234.3 229.5Z");
}
}
@keyframes zr40-ani-4 {
0% {
d:path("M226.3 218.8A39.2 39.2 0 0 1 239.9 212.2L239.9 212.2A39.2 39.2 0 0 0 226.3 218.8Z");
}
100% {
d:path("M218.2 208.2A52.5 52.5 0 0 1 236.5 199.3L239.9 212.2A39.2 39.2 0 0 0 226.3 218.8Z");
}
}
@keyframes zr40-ani-5 {
0% {
d:path("M218.2 208.2A52.5 52.5 0 0 1 236.5 199.3L236.5 199.3A52.5 52.5 0 0 0 218.2 208.2Z");
}
100% {
d:path("M210.1 197.6A65.8 65.8 0 0 1 233 186.4L236.5 199.3A52.5 52.5 0 0 0 218.2 208.2Z");
}
}
@keyframes zr40-ani-6 {
0% {
d:path("M210.1 197.6A65.8 65.8 0 0 1 233 186.4L233 186.4A65.8 65.8 0 0 0 210.1 197.6Z");
}
100% {
d:path("M202 187A79.2 79.2 0 0 1 229.6 173.5L233 186.4A65.8 65.8 0 0 0 210.1 197.6Z");
}
}
@keyframes zr40-ani-7 {
0% {
d:path("M202 187A79.2 79.2 0 0 1 229.6 173.5L229.6 173.5A79.2 79.2 0 0 0 202 187Z");
}
100% {
d:path("M193.9 176.4A92.5 92.5 0 0 1 226.2 160.6L229.6 173.5A79.2 79.2 0 0 0 202 187Z");
}
}
@keyframes zr40-ani-8 {
0% {
d:path("M193.9 176.4A92.5 92.5 0 0 1 226.2 160.6L226.2 160.6A92.5 92.5 0 0 0 193.9 176.4Z");
}
100% {
d:path("M185.9 165.8A105.8 105.8 0 0 1 222.7 147.7L226.2 160.6A92.5 92.5 0 0 0 193.9 176.4Z");
}
}
@keyframes zr40-ani-9 {
0% {
d:path("M185.9 165.8A105.8 105.8 0 0 1 222.7 147.7L222.7 147.7A105.8 105.8 0 0 0 185.9 165.8Z");
}
100% {
d:path("M177.8 155.2A119.2 119.2 0 0 1 219.3 134.9L222.7 147.7A105.8 105.8 0 0 0 185.9 165.8Z");
}
}
@keyframes zr40-ani-10 {
0% {
d:path("M177.8 155.2A119.2 119.2 0 0 1 219.3 134.9L219.3 134.9A119.2 119.2 0 0 0 177.8 155.2Z");
}
100% {
d:path("M169.7 144.6A132.5 132.5 0 0 1 215.9 122L219.3 134.9A119.2 119.2 0 0 0 177.8 155.2Z");
}
}
@keyframes zr40-ani-11 {
0% {
d:path("M169.7 144.6A132.5 132.5 0 0 1 180.4 137.3L180.4 137.3A132.5 132.5 0 0 0 169.7 144.6Z");
}
100% {
d:path("M161.6 134A145.8 145.8 0 0 1 173.3 125.9L180.4 137.3A132.5 132.5 0 0 0 169.7 144.6Z");
}
}
@keyframes zr40-ani-12 {
0% {
d:path("M161.6 134A145.8 145.8 0 0 1 173.3 125.9L173.3 125.9A145.8 145.8 0 0 0 161.6 134Z");
}
100% {
d:path("M153.5 123.4A159.2 159.2 0 0 1 166.3 114.6L173.3 125.9A145.8 145.8 0 0 0 161.6 134Z");
}
}
@keyframes zr40-ani-13 {
0% {
d:path("M153.5 123.4A159.2 159.2 0 0 1 166.3 114.6L166.3 114.6A159.2 159.2 0 0 0 153.5 123.4Z");
}
100% {
d:path("M145.5 112.8A172.5 172.5 0 0 1 159.3 103.3L166.3 114.6A159.2 159.2 0 0 0 153.5 123.4Z");
}
}
@keyframes zr40-ani-14 {
0% {
d:path("M145.5 112.8A172.5 172.5 0 0 1 159.3 103.3L159.3 103.3A172.5 172.5 0 0 0 145.5 112.8Z");
}
100% {
d:path("M137.4 102.2A185.8 185.8 0 0 1 152.3 91.9L159.3 103.3A172.5 172.5 0 0 0 145.5 112.8Z");
}
}
@keyframes zr40-ani-15 {
0% {
d:path("M137.4 102.2A185.8 185.8 0 0 1 147.2 95.2L147.2 95.2A185.8 185.8 0 0 0 137.4 102.2Z");
}
100% {
d:path("M129.3 91.6A199.2 199.2 0 0 1 139.9 84.1L147.2 95.2A185.8 185.8 0 0 0 137.4 102.2Z");
}
}
@keyframes zr40-ani-16 {
0% {
d:path("M129.3 91.6A199.2 199.2 0 0 1 139.9 84.1L139.9 84.1A199.2 199.2 0 0 0 129.3 91.6Z");
}
100% {
d:path("M121.2 81A212.5 212.5 0 0 1 132.5 73L139.9 84.1A199.2 199.2 0 0 0 129.3 91.6Z");
}
}
@keyframes zr40-ani-17 {
0% {
d:path("M147.2 95.2A185.8 185.8 0 0 1 152.3 91.9L152.3 91.9A185.8 185.8 0 0 0 147.2 95.2Z");
}
100% {
d:path("M139.9 84.1A199.2 199.2 0 0 1 145.3 80.6L152.3 91.9A185.8 185.8 0 0 0 147.2 95.2Z");
}
}
@keyframes zr40-ani-18 {
0% {
d:path("M139.9 84.1A199.2 199.2 0 0 1 145.3 80.6L145.3 80.6A199.2 199.2 0 0 0 139.9 84.1Z");
}
100% {
d:path("M132.5 73A212.5 212.5 0 0 1 138.3 69.2L145.3 80.6A199.2 199.2 0 0 0 139.9 84.1Z");
}
}
@keyframes zr40-ani-19 {
0% {
d:path("M180.4 137.3A132.5 132.5 0 0 1 191.7 131L191.7 131A132.5 132.5 0 0 0 180.4 137.3Z");
}
100% {
d:path("M173.3 125.9A145.8 145.8 0 0 1 185.8 119.1L191.7 131A132.5 132.5 0 0 0 180.4 137.3Z");
}
}
@keyframes zr40-ani-20 {
0% {
d:path("M173.3 125.9A145.8 145.8 0 0 1 185.8 119.1L185.8 119.1A145.8 145.8 0 0 0 173.3 125.9Z");
}
100% {
d:path("M166.3 114.6A159.2 159.2 0 0 1 179.9 107.1L185.8 119.1A145.8 145.8 0 0 0 173.3 125.9Z");
}
}
@keyframes zr40-ani-21 {
0% {
d:path("M166.3 114.6A159.2 159.2 0 0 1 179.9 107.1L179.9 107.1A159.2 159.2 0 0 0 166.3 114.6Z");
}
100% {
d:path("M159.3 103.3A172.5 172.5 0 0 1 174.1 95.1L179.9 107.1A159.2 159.2 0 0 0 166.3 114.6Z");
}
}
@keyframes zr40-ani-22 {
0% {
d:path("M159.3 103.3A172.5 172.5 0 0 1 174.1 95.1L174.1 95.1A172.5 172.5 0 0 0 159.3 103.3Z");
}
100% {
d:path("M152.3 91.9A185.8 185.8 0 0 1 168.2 83.1L174.1 95.1A172.5 172.5 0 0 0 159.3 103.3Z");
}
}
@keyframes zr40-ani-23 {
0% {
d:path("M152.3 91.9A185.8 185.8 0 0 1 162.8 85.9L162.8 85.9A185.8 185.8 0 0 0 152.3 91.9Z");
}
100% {
d:path("M145.3 80.6A199.2 199.2 0 0 1 156.6 74.1L162.8 85.9A185.8 185.8 0 0 0 152.3 91.9Z");
}
}
@keyframes zr40-ani-24 {
0% {
d:path("M145.3 80.6A199.2 199.2 0 0 1 156.6 74.1L156.6 74.1A199.2 199.2 0 0 0 145.3 80.6Z");
}
100% {
d:path("M138.3 69.2A212.5 212.5 0 0 1 150.3 62.3L156.6 74.1A199.2 199.2 0 0 0 145.3 80.6Z");
}
}
@keyframes zr40-ani-25 {
0% {
d:path("M162.8 85.9A185.8 185.8 0 0 1 168.2 83.1L168.2 83.1A185.8 185.8 0 0 0 162.8 85.9Z");
}
100% {
d:path("M156.6 74.1A199.2 199.2 0 0 1 162.3 71.2L168.2 83.1A185.8 185.8 0 0 0 162.8 85.9Z");
}
}
@keyframes zr40-ani-26 {
0% {
d:path("M156.6 74.1A199.2 199.2 0 0 1 162.3 71.2L162.3 71.2A199.2 199.2 0 0 0 156.6 74.1Z");
}
100% {
d:path("M150.3 62.3A212.5 212.5 0 0 1 156.5 59.2L162.3 71.2A199.2 199.2 0 0 0 156.6 74.1Z");
}
}
@keyframes zr40-ani-27 {
0% {
d:path("M191.7 131A132.5 132.5 0 0 1 203.6 125.9L203.6 125.9A132.5 132.5 0 0 0 191.7 131Z");
}
100% {
d:path("M185.8 119.1A145.8 145.8 0 0 1 198.9 113.4L203.6 125.9A132.5 132.5 0 0 0 191.7 131Z");
}
}
@keyframes zr40-ani-28 {
0% {
d:path("M185.8 119.1A145.8 145.8 0 0 1 198.9 113.4L198.9 113.4A145.8 145.8 0 0 0 185.8 119.1Z");
}
100% {
d:path("M179.9 107.1A159.2 159.2 0 0 1 194.2 100.9L198.9 113.4A145.8 145.8 0 0 0 185.8 119.1Z");
}
}
@keyframes zr40-ani-29 {
0% {
d:path("M179.9 107.1A159.2 159.2 0 0 1 194.2 100.9L194.2 100.9A159.2 159.2 0 0 0 179.9 107.1Z");
}
100% {
d:path("M174.1 95.1A172.5 172.5 0 0 1 189.5 88.4L194.2 100.9A159.2 159.2 0 0 0 179.9 107.1Z");
}
}
@keyframes zr40-ani-30 {
0% {
d:path("M174.1 95.1A172.5 172.5 0 0 1 189.5 88.4L189.5 88.4A172.5 172.5 0 0 0 174.1 95.1Z");
}
100% {
d:path("M168.2 83.1A185.8 185.8 0 0 1 184.9 76L189.5 88.4A172.5 172.5 0 0 0 174.1 95.1Z");
}
}
@keyframes zr40-ani-31 {
0% {
d:path("M168.2 83.1A185.8 185.8 0 0 1 179.2 78.2L179.2 78.2A185.8 185.8 0 0 0 168.2 83.1Z");
}
100% {
d:path("M162.3 71.2A199.2 199.2 0 0 1 174.2 65.8L179.2 78.2A185.8 185.8 0 0 0 168.2 83.1Z");
}
}
@keyframes zr40-ani-32 {
0% {
d:path("M162.3 71.2A199.2 199.2 0 0 1 174.2 65.8L174.2 65.8A199.2 199.2 0 0 0 162.3 71.2Z");
}
100% {
d:path("M156.5 59.2A212.5 212.5 0 0 1 169.1 53.5L174.2 65.8A199.2 199.2 0 0 0 162.3 71.2Z");
}
}
@keyframes zr40-ani-33 {
0% {
d:path("M179.2 78.2A185.8 185.8 0 0 1 184.9 76L184.9 76A185.8 185.8 0 0 0 179.2 78.2Z");
}
100% {
d:path("M174.2 65.8A199.2 199.2 0 0 1 180.2 63.5L184.9 76A185.8 185.8 0 0 0 179.2 78.2Z");
}
}
@keyframes zr40-ani-34 {
0% {
d:path("M174.2 65.8A199.2 199.2 0 0 1 180.2 63.5L180.2 63.5A199.2 199.2 0 0 0 174.2 65.8Z");
}
100% {
d:path("M169.1 53.5A212.5 212.5 0 0 1 175.5 51L180.2 63.5A199.2 199.2 0 0 0 174.2 65.8Z");
}
}
@keyframes zr40-ani-35 {
0% {
d:path("M203.6 125.9A132.5 132.5 0 0 1 215.9 122L215.9 122A132.5 132.5 0 0 0 203.6 125.9Z");
}
100% {
d:path("M198.9 113.4A145.8 145.8 0 0 1 212.4 109.1L215.9 122A132.5 132.5 0 0 0 203.6 125.9Z");
}
}
@keyframes zr40-ani-36 {
0% {
d:path("M198.9 113.4A145.8 145.8 0 0 1 212.4 109.1L212.4 109.1A145.8 145.8 0 0 0 198.9 113.4Z");
}
100% {
d:path("M194.2 100.9A159.2 159.2 0 0 1 209 96.2L212.4 109.1A145.8 145.8 0 0 0 198.9 113.4Z");
}
}
@keyframes zr40-ani-37 {
0% {
d:path("M194.2 100.9A159.2 159.2 0 0 1 209 96.2L209 96.2A159.2 159.2 0 0 0 194.2 100.9Z");
}
100% {
d:path("M189.5 88.4A172.5 172.5 0 0 1 205.6 83.3L209 96.2A159.2 159.2 0 0 0 194.2 100.9Z");
}
}
@keyframes zr40-ani-38 {
0% {
d:path("M189.5 88.4A172.5 172.5 0 0 1 205.6 83.3L205.6 83.3A172.5 172.5 0 0 0 189.5 88.4Z");
}
100% {
d:path("M184.9 76A185.8 185.8 0 0 1 202.1 70.4L205.6 83.3A172.5 172.5 0 0 0 189.5 88.4Z");
}
}
@keyframes zr40-ani-39 {
0% {
d:path("M184.9 76A185.8 185.8 0 0 1 196.3 72.1L196.3 72.1A185.8 185.8 0 0 0 184.9 76Z");
}
100% {
d:path("M180.2 63.5A199.2 199.2 0 0 1 192.5 59.3L196.3 72.1A185.8 185.8 0 0 0 184.9 76Z");
}
}
@keyframes zr40-ani-40 {
0% {
d:path("M180.2 63.5A199.2 199.2 0 0 1 192.5 59.3L192.5 59.3A199.2 199.2 0 0 0 180.2 63.5Z");
}
100% {
d:path("M175.5 51A212.5 212.5 0 0 1 188.6 46.6L192.5 59.3A199.2 199.2 0 0 0 180.2 63.5Z");
}
}
@keyframes zr40-ani-41 {
0% {
d:path("M196.3 72.1A185.8 185.8 0 0 1 202.1 70.4L202.1 70.4A185.8 185.8 0 0 0 196.3 72.1Z");
}
100% {
d:path("M192.5 59.3A199.2 199.2 0 0 1 198.7 57.6L202.1 70.4A185.8 185.8 0 0 0 196.3 72.1Z");
}
}
@keyframes zr40-ani-42 {
0% {
d:path("M192.5 59.3A199.2 199.2 0 0 1 198.7 57.6L198.7 57.6A199.2 199.2 0 0 0 192.5 59.3Z");
}
100% {
d:path("M188.6 46.6A212.5 212.5 0 0 1 195.3 44.7L198.7 57.6A199.2 199.2 0 0 0 192.5 59.3Z");
}
}
@keyframes zr40-ani-43 {
0% {
d:path("M239.9 212.2A39.2 39.2 0 0 1 244.9 211.2L244.9 211.2A39.2 39.2 0 0 0 239.9 212.2Z");
}
100% {
d:path("M236.5 199.3A52.5 52.5 0 0 1 243.2 197.9L244.9 211.2A39.2 39.2 0 0 0 239.9 212.2Z");
}
}
@keyframes zr40-ani-44 {
0% {
d:path("M236.5 199.3A52.5 52.5 0 0 1 243.2 197.9L243.2 197.9A52.5 52.5 0 0 0 236.5 199.3Z");
}
100% {
d:path("M233 186.4A65.8 65.8 0 0 1 241.5 184.7L243.2 197.9A52.5 52.5 0 0 0 236.5 199.3Z");
}
}
@keyframes zr40-ani-45 {
0% {
d:path("M233 186.4A65.8 65.8 0 0 1 241.5 184.7L241.5 184.7A65.8 65.8 0 0 0 233 186.4Z");
}
100% {
d:path("M229.6 173.5A79.2 79.2 0 0 1 239.7 171.5L241.5 184.7A65.8 65.8 0 0 0 233 186.4Z");
}
}
@keyframes zr40-ani-46 {
0% {
d:path("M229.6 173.5A79.2 79.2 0 0 1 239.7 171.5L239.7 171.5A79.2 79.2 0 0 0 229.6 173.5Z");
}
100% {
d:path("M226.2 160.6A92.5 92.5 0 0 1 238 158.3L239.7 171.5A79.2 79.2 0 0 0 229.6 173.5Z");
}
}
@keyframes zr40-ani-47 {
0% {
d:path("M226.2 160.6A92.5 92.5 0 0 1 238 158.3L238 158.3A92.5 92.5 0 0 0 226.2 160.6Z");
}
100% {
d:path("M222.7 147.7A105.8 105.8 0 0 1 236.3 145.1L238 158.3A92.5 92.5 0 0 0 226.2 160.6Z");
}
}
@keyframes zr40-ani-48 {
0% {
d:path("M222.7 147.7A105.8 105.8 0 0 1 236.3 145.1L236.3 145.1A105.8 105.8 0 0 0 222.7 147.7Z");
}
100% {
d:path("M219.3 134.9A119.2 119.2 0 0 1 234.5 131.8L236.3 145.1A105.8 105.8 0 0 0 222.7 147.7Z");
}
}
@keyframes zr40-ani-49 {
0% {
d:path("M219.3 134.9A119.2 119.2 0 0 1 234.5 131.8L234.5 131.8A119.2 119.2 0 0 0 219.3 134.9Z");
}
100% {
d:path("M215.9 122A132.5 132.5 0 0 1 232.8 118.6L234.5 131.8A119.2 119.2 0 0 0 219.3 134.9Z");
}
}
@keyframes zr40-ani-50 {
0% {
d:path("M215.9 122A132.5 132.5 0 0 1 220.1 120.9L220.1 120.9A132.5 132.5 0 0 0 215.9 122Z");
}
100% {
d:path("M212.4 109.1A145.8 145.8 0 0 1 217.1 107.9L220.1 120.9A132.5 132.5 0 0 0 215.9 122Z");
}
}
@keyframes zr40-ani-51 {
0% {
d:path("M212.4 109.1A145.8 145.8 0 0 1 217.1 107.9L217.1 107.9A145.8 145.8 0 0 0 212.4 109.1Z");
}
100% {
d:path("M209 96.2A159.2 159.2 0 0 1 214 94.9L217.1 107.9A145.8 145.8 0 0 0 212.4 109.1Z");
}
}
@keyframes zr40-ani-52 {
0% {
d:path("M209 96.2A159.2 159.2 0 0 1 214 94.9L214 94.9A159.2 159.2 0 0 0 209 96.2Z");
}
100% {
d:path("M205.6 83.3A172.5 172.5 0 0 1 211 82L214 94.9A159.2 159.2 0 0 0 209 96.2Z");
}
}
@keyframes zr40-ani-53 {
0% {
d:path("M205.6 83.3A172.5 172.5 0 0 1 211 82L211 82A172.5 172.5 0 0 0 205.6 83.3Z");
}
100% {
d:path("M202.1 70.4A185.8 185.8 0 0 1 208 69L211 82A172.5 172.5 0 0 0 205.6 83.3Z");
}
}
@keyframes zr40-ani-54 {
0% {
d:path("M202.1 70.4A185.8 185.8 0 0 1 208 69L208 69A185.8 185.8 0 0 0 202.1 70.4Z");
}
100% {
d:path("M198.7 57.6A199.2 199.2 0 0 1 205 56L208 69A185.8 185.8 0 0 0 202.1 70.4Z");
}
}
@keyframes zr40-ani-55 {
0% {
d:path("M220.1 120.9A132.5 132.5 0 0 1 224.3 120L224.3 120A132.5 132.5 0 0 0 220.1 120.9Z");
}
100% {
d:path("M217.1 107.9A145.8 145.8 0 0 1 221.7 106.9L224.3 120A132.5 132.5 0 0 0 220.1 120.9Z");
}
}
@keyframes zr40-ani-56 {
0% {
d:path("M217.1 107.9A145.8 145.8 0 0 1 221.7 106.9L221.7 106.9A145.8 145.8 0 0 0 217.1 107.9Z");
}
100% {
d:path("M214 94.9A159.2 159.2 0 0 1 219.1 93.9L221.7 106.9A145.8 145.8 0 0 0 217.1 107.9Z");
}
}
@keyframes zr40-ani-57 {
0% {
d:path("M214 94.9A159.2 159.2 0 0 1 219.1 93.9L219.1 93.9A159.2 159.2 0 0 0 214 94.9Z");
}
100% {
d:path("M211 82A172.5 172.5 0 0 1 216.5 80.8L219.1 93.9A159.2 159.2 0 0 0 214 94.9Z");
}
}
@keyframes zr40-ani-58 {
0% {
d:path("M211 82A172.5 172.5 0 0 1 216.5 80.8L216.5 80.8A172.5 172.5 0 0 0 211 82Z");
}
100% {
d:path("M208 69A185.8 185.8 0 0 1 213.9 67.7L216.5 80.8A172.5 172.5 0 0 0 211 82Z");
}
}
@keyframes zr40-ani-59 {
0% {
d:path("M208 69A185.8 185.8 0 0 1 213.9 67.7L213.9 67.7A185.8 185.8 0 0 0 208 69Z");
}
100% {
d:path("M205 56A199.2 199.2 0 0 1 211.3 54.6L213.9 67.7A185.8 185.8 0 0 0 208 69Z");
}
}
@keyframes zr40-ani-60 {
0% {
d:path("M224.3 120A132.5 132.5 0 0 1 228.5 119.3L228.5 119.3A132.5 132.5 0 0 0 224.3 120Z");
}
100% {
d:path("M221.7 106.9A145.8 145.8 0 0 1 226.4 106.1L228.5 119.3A132.5 132.5 0 0 0 224.3 120Z");
}
}
@keyframes zr40-ani-61 {
0% {
d:path("M221.7 106.9A145.8 145.8 0 0 1 226.4 106.1L226.4 106.1A145.8 145.8 0 0 0 221.7 106.9Z");
}
100% {
d:path("M219.1 93.9A159.2 159.2 0 0 1 224.2 92.9L226.4 106.1A145.8 145.8 0 0 0 221.7 106.9Z");
}
}
@keyframes zr40-ani-62 {
0% {
d:path("M219.1 93.9A159.2 159.2 0 0 1 224.2 92.9L224.2 92.9A159.2 159.2 0 0 0 219.1 93.9Z");
}
100% {
d:path("M216.5 80.8A172.5 172.5 0 0 1 222 79.8L224.2 92.9A159.2 159.2 0 0 0 219.1 93.9Z");
}
}
@keyframes zr40-ani-63 {
0% {
d:path("M216.5 80.8A172.5 172.5 0 0 1 222 79.8L222 79.8A172.5 172.5 0 0 0 216.5 80.8Z");
}
100% {
d:path("M213.9 67.7A185.8 185.8 0 0 1 219.9 66.6L222 79.8A172.5 172.5 0 0 0 216.5 80.8Z");
}
}
@keyframes zr40-ani-64 {
0% {
d:path("M213.9 67.7A185.8 185.8 0 0 1 219.9 66.6L219.9 66.6A185.8 185.8 0 0 0 213.9 67.7Z");
}
100% {
d:path("M211.3 54.6A199.2 199.2 0 0 1 217.7 53.5L219.9 66.6A185.8 185.8 0 0 0 213.9 67.7Z");
}
}
@keyframes zr40-ani-65 {
0% {
d:path("M228.5 119.3A132.5 132.5 0 0 1 232.8 118.6L232.8 118.6A132.5 132.5 0 0 0 228.5 119.3Z");
}
100% {
d:path("M226.4 106.1A145.8 145.8 0 0 1 231.1 105.4L232.8 118.6A132.5 132.5 0 0 0 228.5 119.3Z");
}
}
@keyframes zr40-ani-66 {
0% {
d:path("M226.4 106.1A145.8 145.8 0 0 1 231.1 105.4L231.1 105.4A145.8 145.8 0 0 0 226.4 106.1Z");
}
100% {
d:path("M224.2 92.9A159.2 159.2 0 0 1 229.3 92.2L231.1 105.4A145.8 145.8 0 0 0 226.4 106.1Z");
}
}
@keyframes zr40-ani-67 {
0% {
d:path("M224.2 92.9A159.2 159.2 0 0 1 229.3 92.2L229.3 92.2A159.2 159.2 0 0 0 224.2 92.9Z");
}
100% {
d:path("M222 79.8A172.5 172.5 0 0 1 227.6 79L229.3 92.2A159.2 159.2 0 0 0 224.2 92.9Z");
}
}
@keyframes zr40-ani-68 {
0% {
d:path("M222 79.8A172.5 172.5 0 0 1 227.6 79L227.6 79A172.5 172.5 0 0 0 222 79.8Z");
}
100% {
d:path("M219.9 66.6A185.8 185.8 0 0 1 225.9 65.7L227.6 79A172.5 172.5 0 0 0 222 79.8Z");
}
}
@keyframes zr40-ani-69 {
0% {
d:path("M219.9 66.6A185.8 185.8 0 0 1 225.9 65.7L225.9 65.7A185.8 185.8 0 0 0 219.9 66.6Z");
}
100% {
d:path("M217.7 53.5A199.2 199.2 0 0 1 224.1 52.5L225.9 65.7A185.8 185.8 0 0 0 219.9 66.6Z");
}
}
@keyframes zr40-ani-70 {
0% {
d:path("M244.9 211.2A39.2 39.2 0 0 1 246.2 211L246.2 211A39.2 39.2 0 0 0 244.9 211.2Z");
}
100% {
d:path("M243.2 197.9A52.5 52.5 0 0 1 244.9 197.8L246.2 211A39.2 39.2 0 0 0 244.9 211.2Z");
}
}
@keyframes zr40-ani-71 {
0% {
d:path("M243.2 197.9A52.5 52.5 0 0 1 244.9 197.8L244.9 197.8A52.5 52.5 0 0 0 243.2 197.9Z");
}
100% {
d:path("M241.5 184.7A65.8 65.8 0 0 1 243.6 184.5L244.9 197.8A52.5 52.5 0 0 0 243.2 197.9Z");
}
}
@keyframes zr40-ani-72 {
0% {
d:path("M241.5 184.7A65.8 65.8 0 0 1 243.6 184.5L243.6 184.5A65.8 65.8 0 0 0 241.5 184.7Z");
}
100% {
d:path("M239.7 171.5A79.2 79.2 0 0 1 242.3 171.2L243.6 184.5A65.8 65.8 0 0 0 241.5 184.7Z");
}
}
@keyframes zr40-ani-73 {
0% {
d:path("M239.7 171.5A79.2 79.2 0 0 1 242.3 171.2L242.3 171.2A79.2 79.2 0 0 0 239.7 171.5Z");
}
100% {
d:path("M238 158.3A92.5 92.5 0 0 1 241 157.9L242.3 171.2A79.2 79.2 0 0 0 239.7 171.5Z");
}
}
@keyframes zr40-ani-74 {
0% {
d:path("M247.5 224.3A25.8 25.8 0 0 1 250 224.2L250 224.2A25.8 25.8 0 0 0 247.5 224.3Z");
}
100% {
d:path("M246.2 211A39.2 39.2 0 0 1 250 210.8L250 224.2A25.8 25.8 0 0 0 247.5 224.3Z");
}
}
@keyframes zr40-ani-75 {
0% {
d:path("M246.2 211A39.2 39.2 0 0 1 247.5 210.9L247.5 210.9A39.2 39.2 0 0 0 246.2 211Z");
}
100% {
d:path("M244.9 197.8A52.5 52.5 0 0 1 246.6 197.6L247.5 210.9A39.2 39.2 0 0 0 246.2 211Z");
}
}
@keyframes zr40-ani-76 {
0% {
d:path("M244.9 197.8A52.5 52.5 0 0 1 246.6 197.6L246.6 197.6A52.5 52.5 0 0 0 244.9 197.8Z");
}
100% {
d:path("M243.6 184.5A65.8 65.8 0 0 1 245.7 184.3L246.6 197.6A52.5 52.5 0 0 0 244.9 197.8Z");
}
}
@keyframes zr40-ani-77 {
0% {
d:path("M247.5 210.9A39.2 39.2 0 0 1 248.7 210.9L248.7 210.9A39.2 39.2 0 0 0 247.5 210.9Z");
}
100% {
d:path("M246.6 197.6A52.5 52.5 0 0 1 248.3 197.5L248.7 210.9A39.2 39.2 0 0 0 247.5 210.9Z");
}
}
@keyframes zr40-ani-78 {
0% {
d:path("M246.6 197.6A52.5 52.5 0 0 1 248.3 197.5L248.3 197.5A52.5 52.5 0 0 0 246.6 197.6Z");
}
100% {
d:path("M245.7 184.3A65.8 65.8 0 0 1 247.9 184.2L248.3 197.5A52.5 52.5 0 0 0 246.6 197.6Z");
}
}
@keyframes zr40-ani-79 {
0% {
d:path("M248.7 210.9A39.2 39.2 0 0 1 250 210.8L250 210.8A39.2 39.2 0 0 0 248.7 210.9Z");
}
100% {
d:path("M248.3 197.5A52.5 52.5 0 0 1 250 197.5L250 210.8A39.2 39.2 0 0 0 248.7 210.9Z");
}
}
@keyframes zr40-ani-80 {
0% {
d:path("M248.3 197.5A52.5 52.5 0 0 1 250 197.5L250 197.5A52.5 52.5 0 0 0 248.3 197.5Z");
}
100% {
d:path("M247.9 184.2A65.8 65.8 0 0 1 250 184.2L250 197.5A52.5 52.5 0 0 0 248.3 197.5Z");
}
}
]]>

</style>
</svg>