<svg width="500" height="500" xmlns="http://www.w3.org/2000/svg" xmlns:xlink="http://www.w3.org/1999/xlink" version="1.1" baseProfile="full" viewBox="0 0 500 500">
<rect width="500" height="500" x="0" y="0" id="0" fill="none"></rect>
<path d="M250 220.8A29.2 29.2 0 1 1 236.3 224.2L244.1 239A12.5 12.5 0 1 0 250 237.5Z" fill="#C8C8C8" stroke="white" stroke-linejoin="bevel" class="zr10-cls-0"></path>
<path d="M250 204.2A45.8 45.8 0 1 1 228.5 209.5L236.3 224.2A29.2 29.2 0 1 0 250 220.8Z" fill="#C8C8C8" stroke="white" stroke-linejoin="bevel" class="zr10-cls-1"></path>
<path d="M236.3 224.2A29.2 29.2 0 0 1 250 220.8L250 237.5A12.5 12.5 0 0 0 244.1 239Z" fill="#000" stroke="white" stroke-linejoin="bevel" class="zr10-cls-2"></path>
<path d="M228.5 209.5A45.8 45.8 0 0 1 240.5 205.2L243.9 221.5A29.2 29.2 0 0 0 236.3 224.2Z" fill="#49ff49" fill-opacity="0.5" stroke="#fff" stroke-width="4" stroke-opacity="0.5" stroke-linejoin="bevel" class="zr10-cls-3"></path>
<path d="M220.7 194.8A62.5 62.5 0 0 1 224.6 192.9L231.4 208.1A45.8 45.8 0 0 0 228.5 209.5Z" fill="#000" stroke="white" stroke-linejoin="bevel" class="zr10-cls-4"></path>
<path d="M212.8 180.1A79.2 79.2 0 0 1 217.8 177.7L224.6 192.9A62.5 62.5 0 0 0 220.7 194.8Z" fill="#0AA40D" stroke="white" stroke-linejoin="bevel" class="zr10-cls-5"></path>
<path d="M224.6 192.9A62.5 62.5 0 0 1 228.6 191.3L234.3 206.9A45.8 45.8 0 0 0 231.4 208.1Z" fill="#000" stroke="white" stroke-linejoin="bevel" class="zr10-cls-6"></path>
<path d="M217.8 177.7A79.2 79.2 0 0 1 222.9 175.6L228.6 191.3A62.5 62.5 0 0 0 224.6 192.9Z" fill="#0AA40D" stroke="white" stroke-linejoin="bevel" class="zr10-cls-7"></path>
<path d="M228.6 191.3A62.5 62.5 0 0 1 232.8 189.9L237.4 205.9A45.8 45.8 0 0 0 234.3 206.9Z" fill="#000" stroke="white" stroke-linejoin="bevel" class="zr10-cls-8"></path>
<path d="M222.9 175.6A79.2 79.2 0 0 1 228.2 173.9L232.8 189.9A62.5 62.5 0 0 0 228.6 191.3Z" fill="#F3C142" stroke="white" stroke-linejoin="bevel" class="zr10-cls-9"></path>
<path d="M232.8 189.9A62.5 62.5 0 0 1 237 188.9L240.5 205.2A45.8 45.8 0 0 0 237.4 205.9Z" fill="#000" stroke="white" stroke-linejoin="bevel" class="zr10-cls-10"></path>
<path d="M228.2 173.9A79.2 79.2 0 0 1 233.5 172.6L237 188.9A62.5 62.5 0 0 0 232.8 189.9Z" fill="#F3C142" stroke="white" stroke-linejoin="bevel" class="zr10-cls-11"></path>
<path d="M240.5 205.2A45.8 45.8 0 0 1 246.8 204.3L248 220.9A29.2 29.2 0 0 0 243.9 221.5Z" fill="#4949CD" fill-opacity="0.5" stroke="#fff" stroke-width="4" stroke-opacity="0.5" stroke-linejoin="bevel" class="zr10-cls-12"></path>
<path d="M237 188.9A62.5 62.5 0 0 1 241.3 188.1L243.6 204.6A45.8 45.8 0 0 0 240.5 205.2Z" fill="#000" stroke="white" stroke-linejoin="bevel" class="zr10-cls-13"></path>
<path d="M233.5 172.6A79.2 79.2 0 0 1 239 171.6L241.3 188.1A62.5 62.5 0 0 0 237 188.9Z" fill="#000" stroke="white" stroke-linejoin="bevel" class="zr10-cls-14"></path>
<path d="M230.1 156.3A95.8 95.8 0 0 1 236.7 155.1L239 171.6A79.2 79.2 0 0 0 233.5 172.6Z" fill="#4949CD" fill-opacity="0.5" stroke="#fff" stroke-width="4" stroke-opacity="0.5" stroke-linejoin="bevel" class="zr10-cls-15"></path>
<path d="M226.6 140A112.5 112.5 0 0 1 234.3 138.6L236.7 155.1A95.8 95.8 0 0 0 230.1 156.3Z" fill="#0AA40D" stroke="white" stroke-linejoin="bevel" class="zr10-cls-16"></path>
<path d="M223.1 123.7A129.2 129.2 0 0 1 232 122.1L234.3 138.6A112.5 112.5 0 0 0 226.6 140Z" fill="#000" stroke="white" stroke-linejoin="bevel" class="zr10-cls-17"></path>
<path d="M219.7 107.4A145.8 145.8 0 0 1 229.7 105.6L232 122.1A129.2 129.2 0 0 0 223.1 123.7Z" fill="#4949CD" fill-opacity="0.5" stroke="#fff" stroke-width="4" stroke-opacity="0.5" stroke-linejoin="bevel" class="zr10-cls-18"></path>
<path d="M216.2 91.1A162.5 162.5 0 0 1 227.4 89.1L229.7 105.6A145.8 145.8 0 0 0 219.7 107.4Z" fill="#000" stroke="white" stroke-linejoin="bevel" class="zr10-cls-19"></path>
<path d="M212.7 74.7A179.2 179.2 0 0 1 225.1 72.6L227.4 89.1A162.5 162.5 0 0 0 216.2 91.1Z" fill="#000" stroke="white" stroke-linejoin="bevel" class="zr10-cls-20"></path>
<path d="M209.3 58.4A195.8 195.8 0 0 1 222.7 56.1L225.1 72.6A179.2 179.2 0 0 0 212.7 74.7Z" fill="#A0522D" stroke="white" stroke-linejoin="bevel" class="zr10-cls-21"></path>
<path d="M205.8 42.1A212.5 212.5 0 0 1 220.4 39.6L222.7 56.1A195.8 195.8 0 0 0 209.3 58.4Z" fill="#A0522D" stroke="white" stroke-linejoin="bevel" class="zr10-cls-22"></path>
<path d="M241.3 188.1A62.5 62.5 0 0 1 245.6 187.7L246.8 204.3A45.8 45.8 0 0 0 243.6 204.6Z" fill="#000" stroke="white" stroke-linejoin="bevel" class="zr10-cls-23"></path>
<path d="M239 171.6A79.2 79.2 0 0 1 244.5 171L245.6 187.7A62.5 62.5 0 0 0 241.3 188.1Z" fill="#000" stroke="white" stroke-linejoin="bevel" class="zr10-cls-24"></path>
<path d="M236.7 155.1A95.8 95.8 0 0 1 243.3 154.4L244.5 171A79.2 79.2 0 0 0 239 171.6Z" fill="#4949CD" fill-opacity="0.5" stroke="#fff" stroke-width="4" stroke-opacity="0.5" stroke-linejoin="bevel" class="zr10-cls-25"></path>
<path d="M234.3 138.6A112.5 112.5 0 0 1 242.2 137.8L243.3 154.4A95.8 95.8 0 0 0 236.7 155.1Z" fill="#0AA40D" stroke="white" stroke-linejoin="bevel" class="zr10-cls-26"></path>
<path d="M232 122.1A129.2 129.2 0 0 1 241 121.1L242.2 137.8A112.5 112.5 0 0 0 234.3 138.6Z" fill="#000" stroke="white" stroke-linejoin="bevel" class="zr10-cls-27"></path>
<path d="M229.7 105.6A145.8 145.8 0 0 1 239.8 104.5L241 121.1A129.2 129.2 0 0 0 232 122.1Z" fill="#ff4949" fill-opacity="0.5" stroke="#fff" stroke-width="4" stroke-opacity="0.5" stroke-linejoin="bevel" class="zr10-cls-28"></path>
<path d="M227.4 89.1A162.5 162.5 0 0 1 238.7 87.9L239.8 104.5A145.8 145.8 0 0 0 229.7 105.6Z" fill="#000" stroke="white" stroke-linejoin="bevel" class="zr10-cls-29"></path>
<path d="M246.8 204.3A45.8 45.8 0 0 1 250 204.2L250 220.8A29.2 29.2 0 0 0 248 220.9Z" fill="#ff4949" fill-opacity="0.5" stroke="#fff" stroke-width="4" stroke-opacity="0.5" stroke-linejoin="bevel" class="zr10-cls-30"></path>
<path d="M245.6 187.7A62.5 62.5 0 0 1 250 187.5L250 204.2A45.8 45.8 0 0 0 246.8 204.3Z" fill="#000" stroke="white" stroke-linejoin="bevel" class="zr10-cls-31"></path>
<path d="M244.5 171A79.2 79.2 0 0 1 250 170.8L250 187.5A62.5 62.5 0 0 0 245.6 187.7Z" fill="#0AA40D" stroke="white" stroke-linejoin="bevel" class="zr10-cls-32"></path>
<text dominant-baseline="central" text-anchor="middle" style="font-size:12px;font-family:sans-serif;" transform="matrix(0.97,-0.242,0.242,0.97,255.04,270.2145)" fill="#333">info</text>
<text dominant-baseline="central" text-anchor="middle" style="font-size:10px;font-family:sans-serif;" transform="matrix(0.97,-0.242,0.242,0.97,259.0721,286.3861)" fill="#333">version</text>
<text dominant-baseline="central" text-anchor="middle" style="font-size:12px;font-family:sans-serif;" transform="matrix(0.97,-0.242,0.242,0.97,244.96,229.7855)" fill="#ccc" stroke="#000" stroke-width="2" paint-order="stroke" stroke-miterlimit="2">paths</text>
<path d="M-14.8 -16l66.6 0l0 32l-66.6 0Z" transform="translate(448.253 16)" fill="none" stroke="#ccc" stroke-width="0"></path>
<path d="M-7.3 -1.8L-0.1 4.8L7.3 -1.6M-7.3 4.3L-7.3 8.5L7.1 8.5L7.1 4.3M-0.1 4.7L-0.1 -8.5" transform="translate(448.253 16)" fill="none" stroke="#666"></path>
<path d="M-7.9 1M5.1 -3.4L8.1 -3.4L8.1 -6.4M8 -3C6.7 -6.4 3.2 -8.9 -1 -8.4C-5.3 -8 -8.6 -4.2 -8.4 0.2M-5.1 3.4L-8.1 3.4L-8.1 6.4M-8 3C-6.7 6.4 -3.2 8.9 1 8.4C5.3 8 8.6 4.2 8.4 -0.2" transform="translate(484.0476 16)" fill="none" stroke="#666"></path>
<style ><![CDATA[
.zr10-cls-0 {
animation:zr10-ani-0 1s cubic-bezier(0.65,0,0.35,1) both;
}
.zr10-cls-1 {
animation:zr10-ani-1 1s cubic-bezier(0.65,0,0.35,1) both;
}
.zr10-cls-2 {
animation:zr10-ani-2 1s cubic-bezier(0.65,0,0.35,1) both;
}
.zr10-cls-3 {
animation:zr10-ani-3 1s cubic-bezier(0.65,0,0.35,1) both;
}
.zr10-cls-4 {
animation:zr10-ani-4 1s cubic-bezier(0.65,0,0.35,1) both;
}
.zr10-cls-5 {
animation:zr10-ani-5 1s cubic-bezier(0.65,0,0.35,1) both;
}
.zr10-cls-6 {
animation:zr10-ani-6 1s cubic-bezier(0.65,0,0.35,1) both;
}
.zr10-cls-7 {
animation:zr10-ani-7 1s cubic-bezier(0.65,0,0.35,1) both;
}
.zr10-cls-8 {
animation:zr10-ani-8 1s cubic-bezier(0.65,0,0.35,1) both;
}
.zr10-cls-9 {
animation:zr10-ani-9 1s cubic-bezier(0.65,0,0.35,1) both;
}
.zr10-cls-10 {
animation:zr10-ani-10 1s cubic-bezier(0.65,0,0.35,1) both;
}
.zr10-cls-11 {
animation:zr10-ani-11 1s cubic-bezier(0.65,0,0.35,1) both;
}
.zr10-cls-12 {
animation:zr10-ani-12 1s cubic-bezier(0.65,0,0.35,1) both;
}
.zr10-cls-13 {
animation:zr10-ani-13 1s cubic-bezier(0.65,0,0.35,1) both;
}
.zr10-cls-14 {
animation:zr10-ani-14 1s cubic-bezier(0.65,0,0.35,1) both;
}
.zr10-cls-15 {
animation:zr10-ani-15 1s cubic-bezier(0.65,0,0.35,1) both;
}
.zr10-cls-16 {
animation:zr10-ani-16 1s cubic-bezier(0.65,0,0.35,1) both;
}
.zr10-cls-17 {
animation:zr10-ani-17 1s cubic-bezier(0.65,0,0.35,1) both;
}
.zr10-cls-18 {
animation:zr10-ani-18 1s cubic-bezier(0.65,0,0.35,1) both;
}
.zr10-cls-19 {
animation:zr10-ani-19 1s cubic-bezier(0.65,0,0.35,1) both;
}
.zr10-cls-20 {
animation:zr10-ani-20 1s cubic-bezier(0.65,0,0.35,1) both;
}
.zr10-cls-21 {
animation:zr10-ani-21 1s cubic-bezier(0.65,0,0.35,1) both;
}
.zr10-cls-22 {
animation:zr10-ani-22 1s cubic-bezier(0.65,0,0.35,1) both;
}
.zr10-cls-23 {
animation:zr10-ani-23 1s cubic-bezier(0.65,0,0.35,1) both;
}
.zr10-cls-24 {
animation:zr10-ani-24 1s cubic-bezier(0.65,0,0.35,1) both;
}
.zr10-cls-25 {
animation:zr10-ani-25 1s cubic-bezier(0.65,0,0.35,1) both;
}
.zr10-cls-26 {
animation:zr10-ani-26 1s cubic-bezier(0.65,0,0.35,1) both;
}
.zr10-cls-27 {
animation:zr10-ani-27 1s cubic-bezier(0.65,0,0.35,1) both;
}
.zr10-cls-28 {
animation:zr10-ani-28 1s cubic-bezier(0.65,0,0.35,1) both;
}
.zr10-cls-29 {
animation:zr10-ani-29 1s cubic-bezier(0.65,0,0.35,1) both;
}
.zr10-cls-30 {
animation:zr10-ani-30 1s cubic-bezier(0.65,0,0.35,1) both;
}
.zr10-cls-31 {
animation:zr10-ani-31 1s cubic-bezier(0.65,0,0.35,1) both;
}
.zr10-cls-32 {
animation:zr10-ani-32 1s cubic-bezier(0.65,0,0.35,1) both;
}
@keyframes zr10-ani-0 {
0% {
d:path("M250 237.5A12.5 12.5 0 1 1 244.1 239A12.5 12.5 0 1 0 250 237.5Z");
}
100% {
d:path("M250 220.8A29.2 29.2 0 1 1 236.3 224.2L244.1 239A12.5 12.5 0 1 0 250 237.5Z");
}
}
@keyframes zr10-ani-1 {
0% {
d:path("M250 220.8A29.2 29.2 0 1 1 236.3 224.2A29.2 29.2 0 1 0 250 220.8Z");
}
100% {
d:path("M250 204.2A45.8 45.8 0 1 1 228.5 209.5L236.3 224.2A29.2 29.2 0 1 0 250 220.8Z");
}
}
@keyframes zr10-ani-2 {
0% {
d:path("M244.1 239A12.5 12.5 0 0 1 250 237.5L250 237.5A12.5 12.5 0 0 0 244.1 239Z");
}
100% {
d:path("M236.3 224.2A29.2 29.2 0 0 1 250 220.8L250 237.5A12.5 12.5 0 0 0 244.1 239Z");
}
}
@keyframes zr10-ani-3 {
0% {
d:path("M236.3 224.2A29.2 29.2 0 0 1 243.9 221.5L243.9 221.5A29.2 29.2 0 0 0 236.3 224.2Z");
}
100% {
d:path("M228.5 209.5A45.8 45.8 0 0 1 240.5 205.2L243.9 221.5A29.2 29.2 0 0 0 236.3 224.2Z");
}
}
@keyframes zr10-ani-4 {
0% {
d:path("M228.5 209.5A45.8 45.8 0 0 1 231.4 208.1L231.4 208.1A45.8 45.8 0 0 0 228.5 209.5Z");
}
100% {
d:path("M220.7 194.8A62.5 62.5 0 0 1 224.6 192.9L231.4 208.1A45.8 45.8 0 0 0 228.5 209.5Z");
}
}
@keyframes zr10-ani-5 {
0% {
d:path("M220.7 194.8A62.5 62.5 0 0 1 224.6 192.9L224.6 192.9A62.5 62.5 0 0 0 220.7 194.8Z");
}
100% {
d:path("M212.8 180.1A79.2 79.2 0 0 1 217.8 177.7L224.6 192.9A62.5 62.5 0 0 0 220.7 194.8Z");
}
}
@keyframes zr10-ani-6 {
0% {
d:path("M231.4 208.1A45.8 45.8 0 0 1 234.3 206.9L234.3 206.9A45.8 45.8 0 0 0 231.4 208.1Z");
}
100% {
d:path("M224.6 192.9A62.5 62.5 0 0 1 228.6 191.3L234.3 206.9A45.8 45.8 0 0 0 231.4 208.1Z");
}
}
@keyframes zr10-ani-7 {
0% {
d:path("M224.6 192.9A62.5 62.5 0 0 1 228.6 191.3L228.6 191.3A62.5 62.5 0 0 0 224.6 192.9Z");
}
100% {
d:path("M217.8 177.7A79.2 79.2 0 0 1 222.9 175.6L228.6 191.3A62.5 62.5 0 0 0 224.6 192.9Z");
}
}
@keyframes zr10-ani-8 {
0% {
d:path("M234.3 206.9A45.8 45.8 0 0 1 237.4 205.9L237.4 205.9A45.8 45.8 0 0 0 234.3 206.9Z");
}
100% {
d:path("M228.6 191.3A62.5 62.5 0 0 1 232.8 189.9L237.4 205.9A45.8 45.8 0 0 0 234.3 206.9Z");
}
}
@keyframes zr10-ani-9 {
0% {
d:path("M228.6 191.3A62.5 62.5 0 0 1 232.8 189.9L232.8 189.9A62.5 62.5 0 0 0 228.6 191.3Z");
}
100% {
d:path("M222.9 175.6A79.2 79.2 0 0 1 228.2 173.9L232.8 189.9A62.5 62.5 0 0 0 228.6 191.3Z");
}
}
@keyframes zr10-ani-10 {
0% {
d:path("M237.4 205.9A45.8 45.8 0 0 1 240.5 205.2L240.5 205.2A45.8 45.8 0 0 0 237.4 205.9Z");
}
100% {
d:path("M232.8 189.9A62.5 62.5 0 0 1 237 188.9L240.5 205.2A45.8 45.8 0 0 0 237.4 205.9Z");
}
}
@keyframes zr10-ani-11 {
0% {
d:path("M232.8 189.9A62.5 62.5 0 0 1 237 188.9L237 188.9A62.5 62.5 0 0 0 232.8 189.9Z");
}
100% {
d:path("M228.2 173.9A79.2 79.2 0 0 1 233.5 172.6L237 188.9A62.5 62.5 0 0 0 232.8 189.9Z");
}
}
@keyframes zr10-ani-12 {
0% {
d:path("M243.9 221.5A29.2 29.2 0 0 1 248 220.9L248 220.9A29.2 29.2 0 0 0 243.9 221.5Z");
}
100% {
d:path("M240.5 205.2A45.8 45.8 0 0 1 246.8 204.3L248 220.9A29.2 29.2 0 0 0 243.9 221.5Z");
}
}
@keyframes zr10-ani-13 {
0% {
d:path("M240.5 205.2A45.8 45.8 0 0 1 243.6 204.6L243.6 204.6A45.8 45.8 0 0 0 240.5 205.2Z");
}
100% {
d:path("M237 188.9A62.5 62.5 0 0 1 241.3 188.1L243.6 204.6A45.8 45.8 0 0 0 240.5 205.2Z");
}
}
@keyframes zr10-ani-14 {
0% {
d:path("M237 188.9A62.5 62.5 0 0 1 241.3 188.1L241.3 188.1A62.5 62.5 0 0 0 237 188.9Z");
}
100% {
d:path("M233.5 172.6A79.2 79.2 0 0 1 239 171.6L241.3 188.1A62.5 62.5 0 0 0 237 188.9Z");
}
}
@keyframes zr10-ani-15 {
0% {
d:path("M233.5 172.6A79.2 79.2 0 0 1 239 171.6L239 171.6A79.2 79.2 0 0 0 233.5 172.6Z");
}
100% {
d:path("M230.1 156.3A95.8 95.8 0 0 1 236.7 155.1L239 171.6A79.2 79.2 0 0 0 233.5 172.6Z");
}
}
@keyframes zr10-ani-16 {
0% {
d:path("M230.1 156.3A95.8 95.8 0 0 1 236.7 155.1L236.7 155.1A95.8 95.8 0 0 0 230.1 156.3Z");
}
100% {
d:path("M226.6 140A112.5 112.5 0 0 1 234.3 138.6L236.7 155.1A95.8 95.8 0 0 0 230.1 156.3Z");
}
}
@keyframes zr10-ani-17 {
0% {
d:path("M226.6 140A112.5 112.5 0 0 1 234.3 138.6L234.3 138.6A112.5 112.5 0 0 0 226.6 140Z");
}
100% {
d:path("M223.1 123.7A129.2 129.2 0 0 1 232 122.1L234.3 138.6A112.5 112.5 0 0 0 226.6 140Z");
}
}
@keyframes zr10-ani-18 {
0% {
d:path("M223.1 123.7A129.2 129.2 0 0 1 232 122.1L232 122.1A129.2 129.2 0 0 0 223.1 123.7Z");
}
100% {
d:path("M219.7 107.4A145.8 145.8 0 0 1 229.7 105.6L232 122.1A129.2 129.2 0 0 0 223.1 123.7Z");
}
}
@keyframes zr10-ani-19 {
0% {
d:path("M219.7 107.4A145.8 145.8 0 0 1 229.7 105.6L229.7 105.6A145.8 145.8 0 0 0 219.7 107.4Z");
}
100% {
d:path("M216.2 91.1A162.5 162.5 0 0 1 227.4 89.1L229.7 105.6A145.8 145.8 0 0 0 219.7 107.4Z");
}
}
@keyframes zr10-ani-20 {
0% {
d:path("M216.2 91.1A162.5 162.5 0 0 1 227.4 89.1L227.4 89.1A162.5 162.5 0 0 0 216.2 91.1Z");
}
100% {
d:path("M212.7 74.7A179.2 179.2 0 0 1 225.1 72.6L227.4 89.1A162.5 162.5 0 0 0 216.2 91.1Z");
}
}
@keyframes zr10-ani-21 {
0% {
d:path("M212.7 74.7A179.2 179.2 0 0 1 225.1 72.6L225.1 72.6A179.2 179.2 0 0 0 212.7 74.7Z");
}
100% {
d:path("M209.3 58.4A195.8 195.8 0 0 1 222.7 56.1L225.1 72.6A179.2 179.2 0 0 0 212.7 74.7Z");
}
}
@keyframes zr10-ani-22 {
0% {
d:path("M209.3 58.4A195.8 195.8 0 0 1 222.7 56.1L222.7 56.1A195.8 195.8 0 0 0 209.3 58.4Z");
}
100% {
d:path("M205.8 42.1A212.5 212.5 0 0 1 220.4 39.6L222.7 56.1A195.8 195.8 0 0 0 209.3 58.4Z");
}
}
@keyframes zr10-ani-23 {
0% {
d:path("M243.6 204.6A45.8 45.8 0 0 1 246.8 204.3L246.8 204.3A45.8 45.8 0 0 0 243.6 204.6Z");
}
100% {
d:path("M241.3 188.1A62.5 62.5 0 0 1 245.6 187.7L246.8 204.3A45.8 45.8 0 0 0 243.6 204.6Z");
}
}
@keyframes zr10-ani-24 {
0% {
d:path("M241.3 188.1A62.5 62.5 0 0 1 245.6 187.7L245.6 187.7A62.5 62.5 0 0 0 241.3 188.1Z");
}
100% {
d:path("M239 171.6A79.2 79.2 0 0 1 244.5 171L245.6 187.7A62.5 62.5 0 0 0 241.3 188.1Z");
}
}
@keyframes zr10-ani-25 {
0% {
d:path("M239 171.6A79.2 79.2 0 0 1 244.5 171L244.5 171A79.2 79.2 0 0 0 239 171.6Z");
}
100% {
d:path("M236.7 155.1A95.8 95.8 0 0 1 243.3 154.4L244.5 171A79.2 79.2 0 0 0 239 171.6Z");
}
}
@keyframes zr10-ani-26 {
0% {
d:path("M236.7 155.1A95.8 95.8 0 0 1 243.3 154.4L243.3 154.4A95.8 95.8 0 0 0 236.7 155.1Z");
}
100% {
d:path("M234.3 138.6A112.5 112.5 0 0 1 242.2 137.8L243.3 154.4A95.8 95.8 0 0 0 236.7 155.1Z");
}
}
@keyframes zr10-ani-27 {
0% {
d:path("M234.3 138.6A112.5 112.5 0 0 1 242.2 137.8L242.2 137.8A112.5 112.5 0 0 0 234.3 138.6Z");
}
100% {
d:path("M232 122.1A129.2 129.2 0 0 1 241 121.1L242.2 137.8A112.5 112.5 0 0 0 234.3 138.6Z");
}
}
@keyframes zr10-ani-28 {
0% {
d:path("M232 122.1A129.2 129.2 0 0 1 241 121.1L241 121.1A129.2 129.2 0 0 0 232 122.1Z");
}
100% {
d:path("M229.7 105.6A145.8 145.8 0 0 1 239.8 104.5L241 121.1A129.2 129.2 0 0 0 232 122.1Z");
}
}
@keyframes zr10-ani-29 {
0% {
d:path("M229.7 105.6A145.8 145.8 0 0 1 239.8 104.5L239.8 104.5A145.8 145.8 0 0 0 229.7 105.6Z");
}
100% {
d:path("M227.4 89.1A162.5 162.5 0 0 1 238.7 87.9L239.8 104.5A145.8 145.8 0 0 0 229.7 105.6Z");
}
}
@keyframes zr10-ani-30 {
0% {
d:path("M248 220.9A29.2 29.2 0 0 1 250 220.8L250 220.8A29.2 29.2 0 0 0 248 220.9Z");
}
100% {
d:path("M246.8 204.3A45.8 45.8 0 0 1 250 204.2L250 220.8A29.2 29.2 0 0 0 248 220.9Z");
}
}
@keyframes zr10-ani-31 {
0% {
d:path("M246.8 204.3A45.8 45.8 0 0 1 250 204.2L250 204.2A45.8 45.8 0 0 0 246.8 204.3Z");
}
100% {
d:path("M245.6 187.7A62.5 62.5 0 0 1 250 187.5L250 204.2A45.8 45.8 0 0 0 246.8 204.3Z");
}
}
@keyframes zr10-ani-32 {
0% {
d:path("M245.6 187.7A62.5 62.5 0 0 1 250 187.5L250 187.5A62.5 62.5 0 0 0 245.6 187.7Z");
}
100% {
d:path("M244.5 171A79.2 79.2 0 0 1 250 170.8L250 187.5A62.5 62.5 0 0 0 245.6 187.7Z");
}
}
]]>

</style>
</svg>