<svg width="500" height="500" xmlns="http://www.w3.org/2000/svg" xmlns:xlink="http://www.w3.org/1999/xlink" version="1.1" baseProfile="full" viewBox="0 0 500 500">
<rect width="500" height="500" x="0" y="0" id="0" fill="none"></rect>
<path d="M250 187.5A62.5 62.5 0 1 1 199.4 213.3L239.9 242.7A12.5 12.5 0 1 0 250 237.5Z" fill="#000" stroke="white" stroke-linejoin="bevel" class="zr24-cls-0"></path>
<path d="M250 137.5A112.5 112.5 0 1 1 215.2 357L230.7 309.4A62.5 62.5 0 1 0 250 187.5Z" fill="#49ff49" fill-opacity="0.5" stroke="#fff" stroke-width="4" stroke-opacity="0.5" stroke-linejoin="bevel" class="zr24-cls-1"></path>
<path d="M250 87.5A162.5 162.5 0 0 1 404.5 199.8L357 215.2A112.5 112.5 0 0 0 250 137.5Z" fill="#000" stroke="white" stroke-linejoin="bevel" class="zr24-cls-2"></path>
<path d="M250 37.5A212.5 212.5 0 0 1 315.7 47.9L300.2 95.5A162.5 162.5 0 0 0 250 87.5Z" fill="#6dc0e3" stroke="white" stroke-linejoin="bevel" class="zr24-cls-3"></path>
<path d="M315.7 47.9A212.5 212.5 0 0 1 374.9 78.1L345.5 118.5A162.5 162.5 0 0 0 300.2 95.5Z" fill="#FF0000" stroke="white" stroke-linejoin="bevel" class="zr24-cls-4"></path>
<path d="M374.9 78.1A212.5 212.5 0 0 1 421.9 125.1L381.5 154.5A162.5 162.5 0 0 0 345.5 118.5Z" fill="#0AA40D" stroke="white" stroke-linejoin="bevel" class="zr24-cls-5"></path>
<path d="M421.9 125.1A212.5 212.5 0 0 1 452.1 184.3L404.5 199.8A162.5 162.5 0 0 0 381.5 154.5Z" fill="#F3C142" stroke="white" stroke-linejoin="bevel" class="zr24-cls-6"></path>
<path d="M404.5 199.8A162.5 162.5 0 0 1 412.5 250L362.5 250A112.5 112.5 0 0 0 357 215.2Z" fill="#000" stroke="white" stroke-linejoin="bevel" class="zr24-cls-7"></path>
<path d="M452.1 184.3A212.5 212.5 0 0 1 462.5 250L412.5 250A162.5 162.5 0 0 0 404.5 199.8Z" fill="#0AA40D" stroke="white" stroke-linejoin="bevel" class="zr24-cls-8"></path>
<path d="M412.5 250A162.5 162.5 0 0 1 404.5 300.2L357 284.8A112.5 112.5 0 0 0 362.5 250Z" fill="#000" stroke="white" stroke-linejoin="bevel" class="zr24-cls-9"></path>
<path d="M462.5 250A212.5 212.5 0 0 1 452.1 315.7L404.5 300.2A162.5 162.5 0 0 0 412.5 250Z" fill="#0AA40D" stroke="white" stroke-linejoin="bevel" class="zr24-cls-10"></path>
<path d="M404.5 300.2A162.5 162.5 0 0 1 381.5 345.5L341 316.1A112.5 112.5 0 0 0 357 284.8Z" fill="#000" stroke="white" stroke-linejoin="bevel" class="zr24-cls-11"></path>
<path d="M452.1 315.7A212.5 212.5 0 0 1 421.9 374.9L381.5 345.5A162.5 162.5 0 0 0 404.5 300.2Z" fill="#0AA40D" stroke="white" stroke-linejoin="bevel" class="zr24-cls-12"></path>
<path d="M381.5 345.5A162.5 162.5 0 0 1 345.5 381.5L316.1 341A112.5 112.5 0 0 0 341 316.1Z" fill="#000" stroke="white" stroke-linejoin="bevel" class="zr24-cls-13"></path>
<path d="M421.9 374.9A212.5 212.5 0 0 1 374.9 421.9L345.5 381.5A162.5 162.5 0 0 0 381.5 345.5Z" fill="#0AA40D" stroke="white" stroke-linejoin="bevel" class="zr24-cls-14"></path>
<path d="M345.5 381.5A162.5 162.5 0 0 1 300.2 404.5L284.8 357A112.5 112.5 0 0 0 316.1 341Z" fill="#000" stroke="white" stroke-linejoin="bevel" class="zr24-cls-15"></path>
<path d="M374.9 421.9A212.5 212.5 0 0 1 315.7 452.1L300.2 404.5A162.5 162.5 0 0 0 345.5 381.5Z" fill="#0AA40D" stroke="white" stroke-linejoin="bevel" class="zr24-cls-16"></path>
<path d="M300.2 404.5A162.5 162.5 0 0 1 250 412.5L250 362.5A112.5 112.5 0 0 0 284.8 357Z" fill="#000" stroke="white" stroke-linejoin="bevel" class="zr24-cls-17"></path>
<path d="M315.7 452.1A212.5 212.5 0 0 1 250 462.5L250 412.5A162.5 162.5 0 0 0 300.2 404.5Z" fill="#0AA40D" stroke="white" stroke-linejoin="bevel" class="zr24-cls-18"></path>
<path d="M250 412.5A162.5 162.5 0 0 1 199.8 404.5L215.2 357A112.5 112.5 0 0 0 250 362.5Z" fill="#000" stroke="white" stroke-linejoin="bevel" class="zr24-cls-19"></path>
<path d="M250 462.5A212.5 212.5 0 0 1 184.3 452.1L199.8 404.5A162.5 162.5 0 0 0 250 412.5Z" fill="#0AA40D" stroke="white" stroke-linejoin="bevel" class="zr24-cls-20"></path>
<path d="M215.2 357A112.5 112.5 0 0 1 159 183.9L199.4 213.3A62.5 62.5 0 0 0 230.7 309.4Z" fill="#ff4949" fill-opacity="0.5" stroke="#fff" stroke-width="4" stroke-opacity="0.5" stroke-linejoin="bevel" class="zr24-cls-21"></path>
<path d="M199.8 404.5A162.5 162.5 0 0 1 87.5 250L137.5 250A112.5 112.5 0 0 0 215.2 357Z" fill="#000" stroke="white" stroke-linejoin="bevel" class="zr24-cls-22"></path>
<path d="M184.3 452.1A212.5 212.5 0 0 1 125.1 421.9L154.5 381.5A162.5 162.5 0 0 0 199.8 404.5Z" fill="#FF0000" stroke="white" stroke-linejoin="bevel" class="zr24-cls-23"></path>
<path d="M125.1 421.9A212.5 212.5 0 0 1 78.1 374.9L118.5 345.5A162.5 162.5 0 0 0 154.5 381.5Z" fill="#0AA40D" stroke="white" stroke-linejoin="bevel" class="zr24-cls-24"></path>
<path d="M78.1 374.9A212.5 212.5 0 0 1 47.9 315.7L95.5 300.2A162.5 162.5 0 0 0 118.5 345.5Z" fill="#F3C142" stroke="white" stroke-linejoin="bevel" class="zr24-cls-25"></path>
<path d="M47.9 315.7A212.5 212.5 0 0 1 37.5 250L87.5 250A162.5 162.5 0 0 0 95.5 300.2Z" fill="#6dc0e3" stroke="white" stroke-linejoin="bevel" class="zr24-cls-26"></path>
<path d="M87.5 250A162.5 162.5 0 0 1 95.5 199.8L143 215.2A112.5 112.5 0 0 0 137.5 250Z" fill="#000" stroke="white" stroke-linejoin="bevel" class="zr24-cls-27"></path>
<path d="M37.5 250A212.5 212.5 0 0 1 47.9 184.3L95.5 199.8A162.5 162.5 0 0 0 87.5 250Z" fill="#0AA40D" stroke="white" stroke-linejoin="bevel" class="zr24-cls-28"></path>
<path d="M95.5 199.8A162.5 162.5 0 0 1 118.5 154.5L159 183.9A112.5 112.5 0 0 0 143 215.2Z" fill="#000" stroke="white" stroke-linejoin="bevel" class="zr24-cls-29"></path>
<path d="M47.9 184.3A212.5 212.5 0 0 1 78.1 125.1L118.5 154.5A162.5 162.5 0 0 0 95.5 199.8Z" fill="#0AA40D" stroke="white" stroke-linejoin="bevel" class="zr24-cls-30"></path>
<path d="M199.4 213.3A62.5 62.5 0 0 1 230.7 190.6L246.1 238.1A12.5 12.5 0 0 0 239.9 242.7Z" fill="#C8C8C8" stroke="white" stroke-linejoin="bevel" class="zr24-cls-31"></path>
<path d="M159 183.9A112.5 112.5 0 0 1 183.9 159L213.3 199.4A62.5 62.5 0 0 0 199.4 213.3Z" fill="#49ff49" fill-opacity="0.5" stroke="#fff" stroke-width="4" stroke-opacity="0.5" stroke-linejoin="bevel" class="zr24-cls-32"></path>
<path d="M118.5 154.5A162.5 162.5 0 0 1 154.5 118.5L183.9 159A112.5 112.5 0 0 0 159 183.9Z" fill="#C8C8C8" stroke="white" stroke-linejoin="bevel" class="zr24-cls-33"></path>
<path d="M183.9 159A112.5 112.5 0 0 1 215.2 143L230.7 190.6A62.5 62.5 0 0 0 213.3 199.4Z" fill="#ff4949" fill-opacity="0.5" stroke="#fff" stroke-width="4" stroke-opacity="0.5" stroke-linejoin="bevel" class="zr24-cls-34"></path>
<path d="M154.5 118.5A162.5 162.5 0 0 1 199.8 95.5L215.2 143A112.5 112.5 0 0 0 183.9 159Z" fill="#C8C8C8" stroke="white" stroke-linejoin="bevel" class="zr24-cls-35"></path>
<path d="M230.7 190.6A62.5 62.5 0 0 1 250 187.5L250 237.5A12.5 12.5 0 0 0 246.1 238.1Z" fill="#C8C8C8" stroke="white" stroke-linejoin="bevel" class="zr24-cls-36"></path>
<path d="M215.2 143A112.5 112.5 0 0 1 250 137.5L250 187.5A62.5 62.5 0 0 0 230.7 190.6Z" fill="#C8C8C8" stroke="white" stroke-linejoin="bevel" class="zr24-cls-37"></path>
<text dominant-baseline="central" text-anchor="middle" style="font-size:12px;font-family:sans-serif;" transform="matrix(0.891,-0.454,0.454,0.891,267.0246,283.4127)" fill="#ccc" stroke="#000" stroke-width="2" paint-order="stroke" stroke-miterlimit="2">paths</text>
<text dominant-baseline="central" text-anchor="middle" style="font-size:12px;font-family:sans-serif;" transform="matrix(0.988,0.156,-0.156,0.988,279.3315,64.8084)" fill="#333">PUT</text>
<text dominant-baseline="central" text-anchor="middle" style="font-size:12px;font-family:sans-serif;" transform="matrix(0.891,0.454,-0.454,0.891,335.1232,82.9363)" fill="#eee" stroke="#FF0000" stroke-width="2" paint-order="stroke" stroke-miterlimit="2">DELETE</text>
<text dominant-baseline="central" text-anchor="middle" style="font-size:12px;font-family:sans-serif;" transform="matrix(0.707,0.707,-0.707,0.707,382.5825,117.4175)" fill="#eee" stroke="#0AA40D" stroke-width="2" paint-order="stroke" stroke-miterlimit="2">GET</text>
<text dominant-baseline="central" text-anchor="middle" style="font-size:12px;font-family:sans-serif;" transform="matrix(0.454,0.891,-0.891,0.454,417.0637,164.8768)" fill="#333">POST</text>
<text dominant-baseline="central" text-anchor="middle" style="font-size:9px;font-family:sans-serif;" transform="matrix(0.156,0.988,-0.988,0.156,385.8071,228.4903)" fill="#ccc" stroke="#000" stroke-width="2" paint-order="stroke" stroke-miterlimit="2">/rest/DemoStats</text>
<text dominant-baseline="central" text-anchor="middle" style="font-size:12px;font-family:sans-serif;" transform="matrix(0.156,0.988,-0.988,0.156,435.1916,220.6685)" fill="#eee" stroke="#0AA40D" stroke-width="2" paint-order="stroke" stroke-miterlimit="2">GET</text>
<text dominant-baseline="central" text-anchor="middle" style="font-size:12px;font-family:sans-serif;" transform="matrix(0.156,-0.988,0.988,0.156,435.1916,279.3315)" fill="#eee" stroke="#0AA40D" stroke-width="2" paint-order="stroke" stroke-miterlimit="2">GET</text>
<text dominant-baseline="central" text-anchor="middle" style="font-size:12px;font-family:sans-serif;" transform="matrix(0.454,-0.891,0.891,0.454,417.0637,335.1232)" fill="#eee" stroke="#0AA40D" stroke-width="2" paint-order="stroke" stroke-miterlimit="2">GET</text>
<text dominant-baseline="central" text-anchor="middle" style="font-size:12px;font-family:sans-serif;" transform="matrix(0.707,-0.707,0.707,0.707,382.5825,382.5825)" fill="#eee" stroke="#0AA40D" stroke-width="2" paint-order="stroke" stroke-miterlimit="2">GET</text>
<text dominant-baseline="central" text-anchor="middle" style="font-size:12px;font-family:sans-serif;" transform="matrix(0.891,-0.454,0.454,0.891,335.1232,417.0637)" fill="#eee" stroke="#0AA40D" stroke-width="2" paint-order="stroke" stroke-miterlimit="2">GET</text>
<text dominant-baseline="central" text-anchor="middle" style="font-size:12px;font-family:sans-serif;" transform="matrix(0.988,-0.156,0.156,0.988,279.3315,435.1916)" fill="#eee" stroke="#0AA40D" stroke-width="2" paint-order="stroke" stroke-miterlimit="2">GET</text>
<text dominant-baseline="central" text-anchor="middle" style="font-size:12px;font-family:sans-serif;" transform="matrix(0.988,0.156,-0.156,0.988,220.6685,435.1916)" fill="#eee" stroke="#0AA40D" stroke-width="2" paint-order="stroke" stroke-miterlimit="2">GET</text>
<text dominant-baseline="central" text-anchor="middle" style="font-size:12px;font-family:sans-serif;" transform="matrix(0.891,0.454,-0.454,0.891,164.8768,417.0637)" fill="#eee" stroke="#FF0000" stroke-width="2" paint-order="stroke" stroke-miterlimit="2">DELETE</text>
<text dominant-baseline="central" text-anchor="middle" style="font-size:12px;font-family:sans-serif;" transform="matrix(0.707,0.707,-0.707,0.707,117.4175,382.5825)" fill="#eee" stroke="#0AA40D" stroke-width="2" paint-order="stroke" stroke-miterlimit="2">GET</text>
<text dominant-baseline="central" text-anchor="middle" style="font-size:12px;font-family:sans-serif;" transform="matrix(0.454,0.891,-0.891,0.454,82.9363,335.1232)" fill="#333">POST</text>
<text dominant-baseline="central" text-anchor="middle" style="font-size:12px;font-family:sans-serif;" transform="matrix(0.156,0.988,-0.988,0.156,64.8084,279.3315)" fill="#333">PUT</text>
<text dominant-baseline="central" text-anchor="middle" style="font-size:9px;font-family:sans-serif;" transform="matrix(0.156,-0.988,0.988,0.156,114.1929,228.4903)" fill="#ccc" stroke="#000" stroke-width="2" paint-order="stroke" stroke-miterlimit="2">/rest/DemoStats</text>
<text dominant-baseline="central" text-anchor="middle" style="font-size:12px;font-family:sans-serif;" transform="matrix(0.156,-0.988,0.988,0.156,64.8084,220.6685)" fill="#eee" stroke="#0AA40D" stroke-width="2" paint-order="stroke" stroke-miterlimit="2">GET</text>
<text dominant-baseline="central" text-anchor="middle" style="font-size:12px;font-family:sans-serif;" transform="matrix(0.454,-0.891,0.891,0.454,82.9363,164.8768)" fill="#eee" stroke="#0AA40D" stroke-width="2" paint-order="stroke" stroke-miterlimit="2">GET</text>
<text dominant-baseline="central" text-anchor="middle" style="font-size:12px;font-family:sans-serif;" transform="matrix(0.809,-0.588,0.588,0.809,227.9581,219.6619)" fill="#333">tags</text>
<text dominant-baseline="central" text-anchor="middle" style="font-size:10px;font-family:sans-serif;" transform="matrix(0.707,-0.707,0.707,0.707,152.7728,152.7728)" fill="#333">DemoStats</text>
<text dominant-baseline="central" text-anchor="middle" style="font-size:10px;font-family:sans-serif;" transform="matrix(0.988,-0.156,0.156,0.988,236.312,163.5773)" fill="#333">version</text>
<path d="M-14.8 -16l66.6 0l0 32l-66.6 0Z" transform="translate(448.253 16)" fill="none" stroke="#ccc" stroke-width="0"></path>
<path d="M-7.3 -1.8L-0.1 4.8L7.3 -1.6M-7.3 4.3L-7.3 8.5L7.1 8.5L7.1 4.3M-0.1 4.7L-0.1 -8.5" transform="translate(448.253 16)" fill="none" stroke="#666"></path>
<path d="M-7.9 1M5.1 -3.4L8.1 -3.4L8.1 -6.4M8 -3C6.7 -6.4 3.2 -8.9 -1 -8.4C-5.3 -8 -8.6 -4.2 -8.4 0.2M-5.1 3.4L-8.1 3.4L-8.1 6.4M-8 3C-6.7 6.4 -3.2 8.9 1 8.4C5.3 8 8.6 4.2 8.4 -0.2" transform="translate(484.0476 16)" fill="none" stroke="#666"></path>
<style ><![CDATA[
.zr24-cls-0 {
animation:zr24-ani-0 1s cubic-bezier(0.65,0,0.35,1) both;
}
.zr24-cls-1 {
animation:zr24-ani-1 1s cubic-bezier(0.65,0,0.35,1) both;
}
.zr24-cls-2 {
animation:zr24-ani-2 1s cubic-bezier(0.65,0,0.35,1) both;
}
.zr24-cls-3 {
animation:zr24-ani-3 1s cubic-bezier(0.65,0,0.35,1) both;
}
.zr24-cls-4 {
animation:zr24-ani-4 1s cubic-bezier(0.65,0,0.35,1) both;
}
.zr24-cls-5 {
animation:zr24-ani-5 1s cubic-bezier(0.65,0,0.35,1) both;
}
.zr24-cls-6 {
animation:zr24-ani-6 1s cubic-bezier(0.65,0,0.35,1) both;
}
.zr24-cls-7 {
animation:zr24-ani-7 1s cubic-bezier(0.65,0,0.35,1) both;
}
.zr24-cls-8 {
animation:zr24-ani-8 1s cubic-bezier(0.65,0,0.35,1) both;
}
.zr24-cls-9 {
animation:zr24-ani-9 1s cubic-bezier(0.65,0,0.35,1) both;
}
.zr24-cls-10 {
animation:zr24-ani-10 1s cubic-bezier(0.65,0,0.35,1) both;
}
.zr24-cls-11 {
animation:zr24-ani-11 1s cubic-bezier(0.65,0,0.35,1) both;
}
.zr24-cls-12 {
animation:zr24-ani-12 1s cubic-bezier(0.65,0,0.35,1) both;
}
.zr24-cls-13 {
animation:zr24-ani-13 1s cubic-bezier(0.65,0,0.35,1) both;
}
.zr24-cls-14 {
animation:zr24-ani-14 1s cubic-bezier(0.65,0,0.35,1) both;
}
.zr24-cls-15 {
animation:zr24-ani-15 1s cubic-bezier(0.65,0,0.35,1) both;
}
.zr24-cls-16 {
animation:zr24-ani-16 1s cubic-bezier(0.65,0,0.35,1) both;
}
.zr24-cls-17 {
animation:zr24-ani-17 1s cubic-bezier(0.65,0,0.35,1) both;
}
.zr24-cls-18 {
animation:zr24-ani-18 1s cubic-bezier(0.65,0,0.35,1) both;
}
.zr24-cls-19 {
animation:zr24-ani-19 1s cubic-bezier(0.65,0,0.35,1) both;
}
.zr24-cls-20 {
animation:zr24-ani-20 1s cubic-bezier(0.65,0,0.35,1) both;
}
.zr24-cls-21 {
animation:zr24-ani-21 1s cubic-bezier(0.65,0,0.35,1) both;
}
.zr24-cls-22 {
animation:zr24-ani-22 1s cubic-bezier(0.65,0,0.35,1) both;
}
.zr24-cls-23 {
animation:zr24-ani-23 1s cubic-bezier(0.65,0,0.35,1) both;
}
.zr24-cls-24 {
animation:zr24-ani-24 1s cubic-bezier(0.65,0,0.35,1) both;
}
.zr24-cls-25 {
animation:zr24-ani-25 1s cubic-bezier(0.65,0,0.35,1) both;
}
.zr24-cls-26 {
animation:zr24-ani-26 1s cubic-bezier(0.65,0,0.35,1) both;
}
.zr24-cls-27 {
animation:zr24-ani-27 1s cubic-bezier(0.65,0,0.35,1) both;
}
.zr24-cls-28 {
animation:zr24-ani-28 1s cubic-bezier(0.65,0,0.35,1) both;
}
.zr24-cls-29 {
animation:zr24-ani-29 1s cubic-bezier(0.65,0,0.35,1) both;
}
.zr24-cls-30 {
animation:zr24-ani-30 1s cubic-bezier(0.65,0,0.35,1) both;
}
.zr24-cls-31 {
animation:zr24-ani-31 1s cubic-bezier(0.65,0,0.35,1) both;
}
.zr24-cls-32 {
animation:zr24-ani-32 1s cubic-bezier(0.65,0,0.35,1) both;
}
.zr24-cls-33 {
animation:zr24-ani-33 1s cubic-bezier(0.65,0,0.35,1) both;
}
.zr24-cls-34 {
animation:zr24-ani-34 1s cubic-bezier(0.65,0,0.35,1) both;
}
.zr24-cls-35 {
animation:zr24-ani-35 1s cubic-bezier(0.65,0,0.35,1) both;
}
.zr24-cls-36 {
animation:zr24-ani-36 1s cubic-bezier(0.65,0,0.35,1) both;
}
.zr24-cls-37 {
animation:zr24-ani-37 1s cubic-bezier(0.65,0,0.35,1) both;
}
@keyframes zr24-ani-0 {
0% {
d:path("M250 237.5A12.5 12.5 0 1 1 239.9 242.7L239.9 242.7A12.5 12.5 0 1 0 250 237.5Z");
}
100% {
d:path("M250 187.5A62.5 62.5 0 1 1 199.4 213.3L239.9 242.7A12.5 12.5 0 1 0 250 237.5Z");
}
}
@keyframes zr24-ani-1 {
0% {
d:path("M250 187.5A62.5 62.5 0 1 1 230.7 309.4L230.7 309.4A62.5 62.5 0 1 0 250 187.5Z");
}
100% {
d:path("M250 137.5A112.5 112.5 0 1 1 215.2 357L230.7 309.4A62.5 62.5 0 1 0 250 187.5Z");
}
}
@keyframes zr24-ani-2 {
0% {
d:path("M250 137.5A112.5 112.5 0 0 1 357 215.2A112.5 112.5 0 0 0 250 137.5Z");
}
100% {
d:path("M250 87.5A162.5 162.5 0 0 1 404.5 199.8L357 215.2A112.5 112.5 0 0 0 250 137.5Z");
}
}
@keyframes zr24-ani-3 {
0% {
d:path("M250 87.5A162.5 162.5 0 0 1 300.2 95.5A162.5 162.5 0 0 0 250 87.5Z");
}
100% {
d:path("M250 37.5A212.5 212.5 0 0 1 315.7 47.9L300.2 95.5A162.5 162.5 0 0 0 250 87.5Z");
}
}
@keyframes zr24-ani-4 {
0% {
d:path("M300.2 95.5A162.5 162.5 0 0 1 345.5 118.5A162.5 162.5 0 0 0 300.2 95.5Z");
}
100% {
d:path("M315.7 47.9A212.5 212.5 0 0 1 374.9 78.1L345.5 118.5A162.5 162.5 0 0 0 300.2 95.5Z");
}
}
@keyframes zr24-ani-5 {
0% {
d:path("M345.5 118.5A162.5 162.5 0 0 1 381.5 154.5L381.5 154.5A162.5 162.5 0 0 0 345.5 118.5Z");
}
100% {
d:path("M374.9 78.1A212.5 212.5 0 0 1 421.9 125.1L381.5 154.5A162.5 162.5 0 0 0 345.5 118.5Z");
}
}
@keyframes zr24-ani-6 {
0% {
d:path("M381.5 154.5A162.5 162.5 0 0 1 404.5 199.8L404.5 199.8A162.5 162.5 0 0 0 381.5 154.5Z");
}
100% {
d:path("M421.9 125.1A212.5 212.5 0 0 1 452.1 184.3L404.5 199.8A162.5 162.5 0 0 0 381.5 154.5Z");
}
}
@keyframes zr24-ani-7 {
0% {
d:path("M357 215.2A112.5 112.5 0 0 1 362.5 250L362.5 250A112.5 112.5 0 0 0 357 215.2Z");
}
100% {
d:path("M404.5 199.8A162.5 162.5 0 0 1 412.5 250L362.5 250A112.5 112.5 0 0 0 357 215.2Z");
}
}
@keyframes zr24-ani-8 {
0% {
d:path("M404.5 199.8A162.5 162.5 0 0 1 412.5 250L412.5 250A162.5 162.5 0 0 0 404.5 199.8Z");
}
100% {
d:path("M452.1 184.3A212.5 212.5 0 0 1 462.5 250L412.5 250A162.5 162.5 0 0 0 404.5 199.8Z");
}
}
@keyframes zr24-ani-9 {
0% {
d:path("M362.5 250A112.5 112.5 0 0 1 357 284.8A112.5 112.5 0 0 0 362.5 250Z");
}
100% {
d:path("M412.5 250A162.5 162.5 0 0 1 404.5 300.2L357 284.8A112.5 112.5 0 0 0 362.5 250Z");
}
}
@keyframes zr24-ani-10 {
0% {
d:path("M412.5 250A162.5 162.5 0 0 1 404.5 300.2A162.5 162.5 0 0 0 412.5 250Z");
}
100% {
d:path("M462.5 250A212.5 212.5 0 0 1 452.1 315.7L404.5 300.2A162.5 162.5 0 0 0 412.5 250Z");
}
}
@keyframes zr24-ani-11 {
0% {
d:path("M357 284.8A112.5 112.5 0 0 1 341 316.1A112.5 112.5 0 0 0 357 284.8Z");
}
100% {
d:path("M404.5 300.2A162.5 162.5 0 0 1 381.5 345.5L341 316.1A112.5 112.5 0 0 0 357 284.8Z");
}
}
@keyframes zr24-ani-12 {
0% {
d:path("M404.5 300.2A162.5 162.5 0 0 1 381.5 345.5A162.5 162.5 0 0 0 404.5 300.2Z");
}
100% {
d:path("M452.1 315.7A212.5 212.5 0 0 1 421.9 374.9L381.5 345.5A162.5 162.5 0 0 0 404.5 300.2Z");
}
}
@keyframes zr24-ani-13 {
0% {
d:path("M341 316.1A112.5 112.5 0 0 1 316.1 341A112.5 112.5 0 0 0 341 316.1Z");
}
100% {
d:path("M381.5 345.5A162.5 162.5 0 0 1 345.5 381.5L316.1 341A112.5 112.5 0 0 0 341 316.1Z");
}
}
@keyframes zr24-ani-14 {
0% {
d:path("M381.5 345.5A162.5 162.5 0 0 1 345.5 381.5A162.5 162.5 0 0 0 381.5 345.5Z");
}
100% {
d:path("M421.9 374.9A212.5 212.5 0 0 1 374.9 421.9L345.5 381.5A162.5 162.5 0 0 0 381.5 345.5Z");
}
}
@keyframes zr24-ani-15 {
0% {
d:path("M316.1 341A112.5 112.5 0 0 1 284.8 357A112.5 112.5 0 0 0 316.1 341Z");
}
100% {
d:path("M345.5 381.5A162.5 162.5 0 0 1 300.2 404.5L284.8 357A112.5 112.5 0 0 0 316.1 341Z");
}
}
@keyframes zr24-ani-16 {
0% {
d:path("M345.5 381.5A162.5 162.5 0 0 1 300.2 404.5A162.5 162.5 0 0 0 345.5 381.5Z");
}
100% {
d:path("M374.9 421.9A212.5 212.5 0 0 1 315.7 452.1L300.2 404.5A162.5 162.5 0 0 0 345.5 381.5Z");
}
}
@keyframes zr24-ani-17 {
0% {
d:path("M284.8 357A112.5 112.5 0 0 1 250 362.5A112.5 112.5 0 0 0 284.8 357Z");
}
100% {
d:path("M300.2 404.5A162.5 162.5 0 0 1 250 412.5L250 362.5A112.5 112.5 0 0 0 284.8 357Z");
}
}
@keyframes zr24-ani-18 {
0% {
d:path("M300.2 404.5A162.5 162.5 0 0 1 250 412.5A162.5 162.5 0 0 0 300.2 404.5Z");
}
100% {
d:path("M315.7 452.1A212.5 212.5 0 0 1 250 462.5L250 412.5A162.5 162.5 0 0 0 300.2 404.5Z");
}
}
@keyframes zr24-ani-19 {
0% {
d:path("M250 362.5A112.5 112.5 0 0 1 215.2 357A112.5 112.5 0 0 0 250 362.5Z");
}
100% {
d:path("M250 412.5A162.5 162.5 0 0 1 199.8 404.5L215.2 357A112.5 112.5 0 0 0 250 362.5Z");
}
}
@keyframes zr24-ani-20 {
0% {
d:path("M250 412.5A162.5 162.5 0 0 1 199.8 404.5A162.5 162.5 0 0 0 250 412.5Z");
}
100% {
d:path("M250 462.5A212.5 212.5 0 0 1 184.3 452.1L199.8 404.5A162.5 162.5 0 0 0 250 412.5Z");
}
}
@keyframes zr24-ani-21 {
0% {
d:path("M230.7 309.4A62.5 62.5 0 0 1 199.4 213.3A62.5 62.5 0 0 0 230.7 309.4Z");
}
100% {
d:path("M215.2 357A112.5 112.5 0 0 1 159 183.9L199.4 213.3A62.5 62.5 0 0 0 230.7 309.4Z");
}
}
@keyframes zr24-ani-22 {
0% {
d:path("M215.2 357A112.5 112.5 0 0 1 137.5 250A112.5 112.5 0 0 0 215.2 357Z");
}
100% {
d:path("M199.8 404.5A162.5 162.5 0 0 1 87.5 250L137.5 250A112.5 112.5 0 0 0 215.2 357Z");
}
}
@keyframes zr24-ani-23 {
0% {
d:path("M199.8 404.5A162.5 162.5 0 0 1 154.5 381.5A162.5 162.5 0 0 0 199.8 404.5Z");
}
100% {
d:path("M184.3 452.1A212.5 212.5 0 0 1 125.1 421.9L154.5 381.5A162.5 162.5 0 0 0 199.8 404.5Z");
}
}
@keyframes zr24-ani-24 {
0% {
d:path("M154.5 381.5A162.5 162.5 0 0 1 118.5 345.5A162.5 162.5 0 0 0 154.5 381.5Z");
}
100% {
d:path("M125.1 421.9A212.5 212.5 0 0 1 78.1 374.9L118.5 345.5A162.5 162.5 0 0 0 154.5 381.5Z");
}
}
@keyframes zr24-ani-25 {
0% {
d:path("M118.5 345.5A162.5 162.5 0 0 1 95.5 300.2A162.5 162.5 0 0 0 118.5 345.5Z");
}
100% {
d:path("M78.1 374.9A212.5 212.5 0 0 1 47.9 315.7L95.5 300.2A162.5 162.5 0 0 0 118.5 345.5Z");
}
}
@keyframes zr24-ani-26 {
0% {
d:path("M95.5 300.2A162.5 162.5 0 0 1 87.5 250A162.5 162.5 0 0 0 95.5 300.2Z");
}
100% {
d:path("M47.9 315.7A212.5 212.5 0 0 1 37.5 250L87.5 250A162.5 162.5 0 0 0 95.5 300.2Z");
}
}
@keyframes zr24-ani-27 {
0% {
d:path("M137.5 250A112.5 112.5 0 0 1 143 215.2A112.5 112.5 0 0 0 137.5 250Z");
}
100% {
d:path("M87.5 250A162.5 162.5 0 0 1 95.5 199.8L143 215.2A112.5 112.5 0 0 0 137.5 250Z");
}
}
@keyframes zr24-ani-28 {
0% {
d:path("M87.5 250A162.5 162.5 0 0 1 95.5 199.8A162.5 162.5 0 0 0 87.5 250Z");
}
100% {
d:path("M37.5 250A212.5 212.5 0 0 1 47.9 184.3L95.5 199.8A162.5 162.5 0 0 0 87.5 250Z");
}
}
@keyframes zr24-ani-29 {
0% {
d:path("M143 215.2A112.5 112.5 0 0 1 159 183.9L159 183.9A112.5 112.5 0 0 0 143 215.2Z");
}
100% {
d:path("M95.5 199.8A162.5 162.5 0 0 1 118.5 154.5L159 183.9A112.5 112.5 0 0 0 143 215.2Z");
}
}
@keyframes zr24-ani-30 {
0% {
d:path("M95.5 199.8A162.5 162.5 0 0 1 118.5 154.5L118.5 154.5A162.5 162.5 0 0 0 95.5 199.8Z");
}
100% {
d:path("M47.9 184.3A212.5 212.5 0 0 1 78.1 125.1L118.5 154.5A162.5 162.5 0 0 0 95.5 199.8Z");
}
}
@keyframes zr24-ani-31 {
0% {
d:path("M239.9 242.7A12.5 12.5 0 0 1 246.1 238.1A12.5 12.5 0 0 0 239.9 242.7Z");
}
100% {
d:path("M199.4 213.3A62.5 62.5 0 0 1 230.7 190.6L246.1 238.1A12.5 12.5 0 0 0 239.9 242.7Z");
}
}
@keyframes zr24-ani-32 {
0% {
d:path("M199.4 213.3A62.5 62.5 0 0 1 213.3 199.4A62.5 62.5 0 0 0 199.4 213.3Z");
}
100% {
d:path("M159 183.9A112.5 112.5 0 0 1 183.9 159L213.3 199.4A62.5 62.5 0 0 0 199.4 213.3Z");
}
}
@keyframes zr24-ani-33 {
0% {
d:path("M159 183.9A112.5 112.5 0 0 1 183.9 159A112.5 112.5 0 0 0 159 183.9Z");
}
100% {
d:path("M118.5 154.5A162.5 162.5 0 0 1 154.5 118.5L183.9 159A112.5 112.5 0 0 0 159 183.9Z");
}
}
@keyframes zr24-ani-34 {
0% {
d:path("M213.3 199.4A62.5 62.5 0 0 1 230.7 190.6A62.5 62.5 0 0 0 213.3 199.4Z");
}
100% {
d:path("M183.9 159A112.5 112.5 0 0 1 215.2 143L230.7 190.6A62.5 62.5 0 0 0 213.3 199.4Z");
}
}
@keyframes zr24-ani-35 {
0% {
d:path("M183.9 159A112.5 112.5 0 0 1 215.2 143A112.5 112.5 0 0 0 183.9 159Z");
}
100% {
d:path("M154.5 118.5A162.5 162.5 0 0 1 199.8 95.5L215.2 143A112.5 112.5 0 0 0 183.9 159Z");
}
}
@keyframes zr24-ani-36 {
0% {
d:path("M246.1 238.1A12.5 12.5 0 0 1 250 237.5A12.5 12.5 0 0 0 246.1 238.1Z");
}
100% {
d:path("M230.7 190.6A62.5 62.5 0 0 1 250 187.5L250 237.5A12.5 12.5 0 0 0 246.1 238.1Z");
}
}
@keyframes zr24-ani-37 {
0% {
d:path("M230.7 190.6A62.5 62.5 0 0 1 250 187.5A62.5 62.5 0 0 0 230.7 190.6Z");
}
100% {
d:path("M215.2 143A112.5 112.5 0 0 1 250 137.5L250 187.5A62.5 62.5 0 0 0 230.7 190.6Z");
}
}
]]>

</style>
</svg>