<svg width="500" height="500" xmlns="http://www.w3.org/2000/svg" xmlns:xlink="http://www.w3.org/1999/xlink" version="1.1" baseProfile="full" viewBox="0 0 500 500">
<rect width="500" height="500" x="0" y="0" id="0" fill="none"></rect>
<path d="M250 219.3A30.7 30.7 0 1 1 236.1 222.6L244.3 238.9A12.5 12.5 0 1 0 250 237.5Z" fill="#C8C8C8" stroke="white" stroke-linejoin="bevel" class="zr18-cls-0"></path>
<path d="M250 201.1A48.9 48.9 0 1 1 214.5 216.4L227.7 228.9A30.7 30.7 0 1 0 250 219.3Z" fill="#C8C8C8" stroke="white" stroke-linejoin="bevel" class="zr18-cls-1"></path>
<path d="M214.5 216.4A48.9 48.9 0 0 1 226 207.4L234.9 223.3A30.7 30.7 0 0 0 227.7 228.9Z" fill="#C8C8C8" stroke="white" stroke-linejoin="bevel" class="zr18-cls-2"></path>
<path d="M226 207.4A48.9 48.9 0 0 1 227.9 206.4L236.1 222.6A30.7 30.7 0 0 0 234.9 223.3Z" fill="#C8C8C8" stroke="white" stroke-linejoin="bevel" class="zr18-cls-3"></path>
<path d="M236.1 222.6A30.7 30.7 0 0 1 243.5 220L247.3 237.8A12.5 12.5 0 0 0 244.3 238.9Z" fill="#000" stroke="white" stroke-linejoin="bevel" class="zr18-cls-4"></path>
<path d="M227.9 206.4A48.9 48.9 0 0 1 233.6 204L239.7 221.1A30.7 30.7 0 0 0 236.1 222.6Z" fill="#49ff49" fill-opacity="0.5" stroke="#fff" stroke-width="4" stroke-opacity="0.5" stroke-linejoin="bevel" class="zr18-cls-5"></path>
<path d="M219.6 190.2A67 67 0 0 1 224.8 187.9L231.7 204.7A48.9 48.9 0 0 0 227.9 206.4Z" fill="#000" stroke="white" stroke-linejoin="bevel" class="zr18-cls-6"></path>
<path d="M211.4 174A85.2 85.2 0 0 1 214.7 172.4L222.2 189A67 67 0 0 0 219.6 190.2Z" fill="#0AA40D" stroke="white" stroke-linejoin="bevel" class="zr18-cls-7"></path>
<path d="M214.7 172.4A85.2 85.2 0 0 1 218 171L224.8 187.9A67 67 0 0 0 222.2 189Z" fill="#F3C142" stroke="white" stroke-linejoin="bevel" class="zr18-cls-8"></path>
<path d="M224.8 187.9A67 67 0 0 1 227.5 186.8L233.6 204A48.9 48.9 0 0 0 231.7 204.7Z" fill="#000" stroke="white" stroke-linejoin="bevel" class="zr18-cls-9"></path>
<path d="M218 171A85.2 85.2 0 0 1 221.4 169.7L227.5 186.8A67 67 0 0 0 224.8 187.9Z" fill="#0AA40D" stroke="white" stroke-linejoin="bevel" class="zr18-cls-10"></path>
<path d="M233.6 204A48.9 48.9 0 0 1 239.6 202.2L243.5 220A30.7 30.7 0 0 0 239.7 221.1Z" fill="#4949CD" fill-opacity="0.5" stroke="#fff" stroke-width="4" stroke-opacity="0.5" stroke-linejoin="bevel" class="zr18-cls-11"></path>
<path d="M227.5 186.8A67 67 0 0 1 235.8 184.5L239.6 202.2A48.9 48.9 0 0 0 233.6 204Z" fill="#000" stroke="white" stroke-linejoin="bevel" class="zr18-cls-12"></path>
<path d="M221.4 169.7A85.2 85.2 0 0 1 231.9 166.7L235.8 184.5A67 67 0 0 0 227.5 186.8Z" fill="#000" stroke="white" stroke-linejoin="bevel" class="zr18-cls-13"></path>
<path d="M215.3 152.6A103.4 103.4 0 0 1 228.1 148.9L231.9 166.7A85.2 85.2 0 0 0 221.4 169.7Z" fill="#4949CD" fill-opacity="0.5" stroke="#fff" stroke-width="4" stroke-opacity="0.5" stroke-linejoin="bevel" class="zr18-cls-14"></path>
<path d="M209.2 135.4A121.6 121.6 0 0 1 219.2 132.4L223.8 150A103.4 103.4 0 0 0 215.3 152.6Z" fill="#F3C142" stroke="white" stroke-linejoin="bevel" class="zr18-cls-15"></path>
<path d="M203.1 118.3A139.8 139.8 0 0 1 214.5 114.8L219.2 132.4A121.6 121.6 0 0 0 209.2 135.4Z" fill="#C8C8C8" stroke="white" stroke-linejoin="bevel" class="zr18-cls-16"></path>
<path d="M197 101.2A158 158 0 0 1 203.4 99.1L208.8 116.4A139.8 139.8 0 0 0 203.1 118.3Z" fill="#49ff49" fill-opacity="0.5" stroke="#fff" stroke-width="4" stroke-opacity="0.5" stroke-linejoin="bevel" class="zr18-cls-17"></path>
<path d="M190.9 84.1A176.1 176.1 0 0 1 198.1 81.7L203.4 99.1A158 158 0 0 0 197 101.2Z" fill="#C8C8C8" stroke="white" stroke-linejoin="bevel" class="zr18-cls-18"></path>
<path d="M203.4 99.1A158 158 0 0 1 209.9 97.2L214.5 114.8A139.8 139.8 0 0 0 208.8 116.4Z" fill="#ff4949" fill-opacity="0.5" stroke="#fff" stroke-width="4" stroke-opacity="0.5" stroke-linejoin="bevel" class="zr18-cls-19"></path>
<path d="M198.1 81.7A176.1 176.1 0 0 1 205.3 79.6L209.9 97.2A158 158 0 0 0 203.4 99.1Z" fill="#C8C8C8" stroke="white" stroke-linejoin="bevel" class="zr18-cls-20"></path>
<path d="M219.2 132.4A121.6 121.6 0 0 1 224.2 131.2L228.1 148.9A103.4 103.4 0 0 0 223.8 150Z" fill="#0AA40D" stroke="white" stroke-linejoin="bevel" class="zr18-cls-21"></path>
<path d="M214.5 114.8A139.8 139.8 0 0 1 220.4 113.4L224.2 131.2A121.6 121.6 0 0 0 219.2 132.4Z" fill="#000" stroke="white" stroke-linejoin="bevel" class="zr18-cls-22"></path>
<path d="M209.9 97.2A158 158 0 0 1 216.5 95.6L220.4 113.4A139.8 139.8 0 0 0 214.5 114.8Z" fill="#4949CD" fill-opacity="0.5" stroke="#fff" stroke-width="4" stroke-opacity="0.5" stroke-linejoin="bevel" class="zr18-cls-23"></path>
<path d="M205.3 79.6A176.1 176.1 0 0 1 212.6 77.9L216.5 95.6A158 158 0 0 0 209.9 97.2Z" fill="#000" stroke="white" stroke-linejoin="bevel" class="zr18-cls-24"></path>
<path d="M200.7 62A194.3 194.3 0 0 1 208.8 60.1L212.6 77.9A176.1 176.1 0 0 0 205.3 79.6Z" fill="#000" stroke="white" stroke-linejoin="bevel" class="zr18-cls-25"></path>
<path d="M196.1 44.4A212.5 212.5 0 0 1 204.9 42.3L208.8 60.1A194.3 194.3 0 0 0 200.7 62Z" fill="#C8C8C8" stroke="white" stroke-linejoin="bevel" class="zr18-cls-26"></path>
<path d="M243.5 220A30.7 30.7 0 0 1 250 219.3L250 237.5A12.5 12.5 0 0 0 247.3 237.8Z" fill="#C8C8C8" stroke="white" stroke-linejoin="bevel" class="zr18-cls-27"></path>
<path d="M239.6 202.2A48.9 48.9 0 0 1 247.9 201.2L248.7 219.3A30.7 30.7 0 0 0 243.5 220Z" fill="#49ff49" fill-opacity="0.5" stroke="#fff" stroke-width="4" stroke-opacity="0.5" stroke-linejoin="bevel" class="zr18-cls-28"></path>
<path d="M235.8 184.5A67 67 0 0 1 238.6 183.9L241.7 201.8A48.9 48.9 0 0 0 239.6 202.2Z" fill="#C8C8C8" stroke="white" stroke-linejoin="bevel" class="zr18-cls-29"></path>
<path d="M238.6 183.9A67 67 0 0 1 241.4 183.5L243.8 201.5A48.9 48.9 0 0 0 241.7 201.8Z" fill="#C8C8C8" stroke="white" stroke-linejoin="bevel" class="zr18-cls-30"></path>
<path d="M241.4 183.5A67 67 0 0 1 244.3 183.2L245.8 201.3A48.9 48.9 0 0 0 243.8 201.5Z" fill="#C8C8C8" stroke="white" stroke-linejoin="bevel" class="zr18-cls-31"></path>
<path d="M244.3 183.2A67 67 0 0 1 247.1 183L247.9 201.2A48.9 48.9 0 0 0 245.8 201.3Z" fill="#C8C8C8" stroke="white" stroke-linejoin="bevel" class="zr18-cls-32"></path>
<path d="M247.9 201.2A48.9 48.9 0 0 1 250 201.1L250 219.3A30.7 30.7 0 0 0 248.7 219.3Z" fill="#ff4949" fill-opacity="0.5" stroke="#fff" stroke-width="4" stroke-opacity="0.5" stroke-linejoin="bevel" class="zr18-cls-33"></path>
<path d="M247.1 183A67 67 0 0 1 250 183L250 201.1A48.9 48.9 0 0 0 247.9 201.2Z" fill="#C8C8C8" stroke="white" stroke-linejoin="bevel" class="zr18-cls-34"></path>
<text dominant-baseline="central" text-anchor="middle" style="font-size:12px;font-family:sans-serif;" transform="matrix(0.972,-0.233,0.233,0.972,255.0291,270.997)" fill="#333">info</text>
<text dominant-baseline="central" text-anchor="middle" style="font-size:10px;font-family:sans-serif;" transform="matrix(0.919,-0.395,0.395,0.919,265.7098,286.5386)" fill="#333">version</text>
<text dominant-baseline="central" text-anchor="middle" style="font-size:9px;font-family:sans-serif;" transform="matrix(0.788,-0.615,0.615,0.788,225.5358,218.6412)" fill="#333">description</text>
<path d="M-14.8 -16l66.6 0l0 32l-66.6 0Z" transform="translate(448.253 16)" fill="none" stroke="#ccc" stroke-width="0"></path>
<path d="M-7.3 -1.8L-0.1 4.8L7.3 -1.6M-7.3 4.3L-7.3 8.5L7.1 8.5L7.1 4.3M-0.1 4.7L-0.1 -8.5" transform="translate(448.253 16)" fill="none" stroke="#666"></path>
<path d="M-7.9 1M5.1 -3.4L8.1 -3.4L8.1 -6.4M8 -3C6.7 -6.4 3.2 -8.9 -1 -8.4C-5.3 -8 -8.6 -4.2 -8.4 0.2M-5.1 3.4L-8.1 3.4L-8.1 6.4M-8 3C-6.7 6.4 -3.2 8.9 1 8.4C5.3 8 8.6 4.2 8.4 -0.2" transform="translate(484.0476 16)" fill="none" stroke="#666"></path>
<style ><![CDATA[
.zr18-cls-0 {
animation:zr18-ani-0 1s cubic-bezier(0.65,0,0.35,1) both;
}
.zr18-cls-1 {
animation:zr18-ani-1 1s cubic-bezier(0.65,0,0.35,1) both;
}
.zr18-cls-2 {
animation:zr18-ani-2 1s cubic-bezier(0.65,0,0.35,1) both;
}
.zr18-cls-3 {
animation:zr18-ani-3 1s cubic-bezier(0.65,0,0.35,1) both;
}
.zr18-cls-4 {
animation:zr18-ani-4 1s cubic-bezier(0.65,0,0.35,1) both;
}
.zr18-cls-5 {
animation:zr18-ani-5 1s cubic-bezier(0.65,0,0.35,1) both;
}
.zr18-cls-6 {
animation:zr18-ani-6 1s cubic-bezier(0.65,0,0.35,1) both;
}
.zr18-cls-7 {
animation:zr18-ani-7 1s cubic-bezier(0.65,0,0.35,1) both;
}
.zr18-cls-8 {
animation:zr18-ani-8 1s cubic-bezier(0.65,0,0.35,1) both;
}
.zr18-cls-9 {
animation:zr18-ani-9 1s cubic-bezier(0.65,0,0.35,1) both;
}
.zr18-cls-10 {
animation:zr18-ani-10 1s cubic-bezier(0.65,0,0.35,1) both;
}
.zr18-cls-11 {
animation:zr18-ani-11 1s cubic-bezier(0.65,0,0.35,1) both;
}
.zr18-cls-12 {
animation:zr18-ani-12 1s cubic-bezier(0.65,0,0.35,1) both;
}
.zr18-cls-13 {
animation:zr18-ani-13 1s cubic-bezier(0.65,0,0.35,1) both;
}
.zr18-cls-14 {
animation:zr18-ani-14 1s cubic-bezier(0.65,0,0.35,1) both;
}
.zr18-cls-15 {
animation:zr18-ani-15 1s cubic-bezier(0.65,0,0.35,1) both;
}
.zr18-cls-16 {
animation:zr18-ani-16 1s cubic-bezier(0.65,0,0.35,1) both;
}
.zr18-cls-17 {
animation:zr18-ani-17 1s cubic-bezier(0.65,0,0.35,1) both;
}
.zr18-cls-18 {
animation:zr18-ani-18 1s cubic-bezier(0.65,0,0.35,1) both;
}
.zr18-cls-19 {
animation:zr18-ani-19 1s cubic-bezier(0.65,0,0.35,1) both;
}
.zr18-cls-20 {
animation:zr18-ani-20 1s cubic-bezier(0.65,0,0.35,1) both;
}
.zr18-cls-21 {
animation:zr18-ani-21 1s cubic-bezier(0.65,0,0.35,1) both;
}
.zr18-cls-22 {
animation:zr18-ani-22 1s cubic-bezier(0.65,0,0.35,1) both;
}
.zr18-cls-23 {
animation:zr18-ani-23 1s cubic-bezier(0.65,0,0.35,1) both;
}
.zr18-cls-24 {
animation:zr18-ani-24 1s cubic-bezier(0.65,0,0.35,1) both;
}
.zr18-cls-25 {
animation:zr18-ani-25 1s cubic-bezier(0.65,0,0.35,1) both;
}
.zr18-cls-26 {
animation:zr18-ani-26 1s cubic-bezier(0.65,0,0.35,1) both;
}
.zr18-cls-27 {
animation:zr18-ani-27 1s cubic-bezier(0.65,0,0.35,1) both;
}
.zr18-cls-28 {
animation:zr18-ani-28 1s cubic-bezier(0.65,0,0.35,1) both;
}
.zr18-cls-29 {
animation:zr18-ani-29 1s cubic-bezier(0.65,0,0.35,1) both;
}
.zr18-cls-30 {
animation:zr18-ani-30 1s cubic-bezier(0.65,0,0.35,1) both;
}
.zr18-cls-31 {
animation:zr18-ani-31 1s cubic-bezier(0.65,0,0.35,1) both;
}
.zr18-cls-32 {
animation:zr18-ani-32 1s cubic-bezier(0.65,0,0.35,1) both;
}
.zr18-cls-33 {
animation:zr18-ani-33 1s cubic-bezier(0.65,0,0.35,1) both;
}
.zr18-cls-34 {
animation:zr18-ani-34 1s cubic-bezier(0.65,0,0.35,1) both;
}
@keyframes zr18-ani-0 {
0% {
d:path("M250 237.5A12.5 12.5 0 1 1 244.3 238.9A12.5 12.5 0 1 0 250 237.5Z");
}
100% {
d:path("M250 219.3A30.7 30.7 0 1 1 236.1 222.6L244.3 238.9A12.5 12.5 0 1 0 250 237.5Z");
}
}
@keyframes zr18-ani-1 {
0% {
d:path("M250 219.3A30.7 30.7 0 1 1 227.7 228.9L227.7 228.9A30.7 30.7 0 1 0 250 219.3Z");
}
100% {
d:path("M250 201.1A48.9 48.9 0 1 1 214.5 216.4L227.7 228.9A30.7 30.7 0 1 0 250 219.3Z");
}
}
@keyframes zr18-ani-2 {
0% {
d:path("M227.7 228.9A30.7 30.7 0 0 1 234.9 223.3L234.9 223.3A30.7 30.7 0 0 0 227.7 228.9Z");
}
100% {
d:path("M214.5 216.4A48.9 48.9 0 0 1 226 207.4L234.9 223.3A30.7 30.7 0 0 0 227.7 228.9Z");
}
}
@keyframes zr18-ani-3 {
0% {
d:path("M234.9 223.3A30.7 30.7 0 0 1 236.1 222.6L236.1 222.6A30.7 30.7 0 0 0 234.9 223.3Z");
}
100% {
d:path("M226 207.4A48.9 48.9 0 0 1 227.9 206.4L236.1 222.6A30.7 30.7 0 0 0 234.9 223.3Z");
}
}
@keyframes zr18-ani-4 {
0% {
d:path("M244.3 238.9A12.5 12.5 0 0 1 247.3 237.8L247.3 237.8A12.5 12.5 0 0 0 244.3 238.9Z");
}
100% {
d:path("M236.1 222.6A30.7 30.7 0 0 1 243.5 220L247.3 237.8A12.5 12.5 0 0 0 244.3 238.9Z");
}
}
@keyframes zr18-ani-5 {
0% {
d:path("M236.1 222.6A30.7 30.7 0 0 1 239.7 221.1L239.7 221.1A30.7 30.7 0 0 0 236.1 222.6Z");
}
100% {
d:path("M227.9 206.4A48.9 48.9 0 0 1 233.6 204L239.7 221.1A30.7 30.7 0 0 0 236.1 222.6Z");
}
}
@keyframes zr18-ani-6 {
0% {
d:path("M227.9 206.4A48.9 48.9 0 0 1 231.7 204.7L231.7 204.7A48.9 48.9 0 0 0 227.9 206.4Z");
}
100% {
d:path("M219.6 190.2A67 67 0 0 1 224.8 187.9L231.7 204.7A48.9 48.9 0 0 0 227.9 206.4Z");
}
}
@keyframes zr18-ani-7 {
0% {
d:path("M219.6 190.2A67 67 0 0 1 222.2 189L222.2 189A67 67 0 0 0 219.6 190.2Z");
}
100% {
d:path("M211.4 174A85.2 85.2 0 0 1 214.7 172.4L222.2 189A67 67 0 0 0 219.6 190.2Z");
}
}
@keyframes zr18-ani-8 {
0% {
d:path("M222.2 189A67 67 0 0 1 224.8 187.9L224.8 187.9A67 67 0 0 0 222.2 189Z");
}
100% {
d:path("M214.7 172.4A85.2 85.2 0 0 1 218 171L224.8 187.9A67 67 0 0 0 222.2 189Z");
}
}
@keyframes zr18-ani-9 {
0% {
d:path("M231.7 204.7A48.9 48.9 0 0 1 233.6 204L233.6 204A48.9 48.9 0 0 0 231.7 204.7Z");
}
100% {
d:path("M224.8 187.9A67 67 0 0 1 227.5 186.8L233.6 204A48.9 48.9 0 0 0 231.7 204.7Z");
}
}
@keyframes zr18-ani-10 {
0% {
d:path("M224.8 187.9A67 67 0 0 1 227.5 186.8L227.5 186.8A67 67 0 0 0 224.8 187.9Z");
}
100% {
d:path("M218 171A85.2 85.2 0 0 1 221.4 169.7L227.5 186.8A67 67 0 0 0 224.8 187.9Z");
}
}
@keyframes zr18-ani-11 {
0% {
d:path("M239.7 221.1A30.7 30.7 0 0 1 243.5 220L243.5 220A30.7 30.7 0 0 0 239.7 221.1Z");
}
100% {
d:path("M233.6 204A48.9 48.9 0 0 1 239.6 202.2L243.5 220A30.7 30.7 0 0 0 239.7 221.1Z");
}
}
@keyframes zr18-ani-12 {
0% {
d:path("M233.6 204A48.9 48.9 0 0 1 239.6 202.2L239.6 202.2A48.9 48.9 0 0 0 233.6 204Z");
}
100% {
d:path("M227.5 186.8A67 67 0 0 1 235.8 184.5L239.6 202.2A48.9 48.9 0 0 0 233.6 204Z");
}
}
@keyframes zr18-ani-13 {
0% {
d:path("M227.5 186.8A67 67 0 0 1 235.8 184.5L235.8 184.5A67 67 0 0 0 227.5 186.8Z");
}
100% {
d:path("M221.4 169.7A85.2 85.2 0 0 1 231.9 166.7L235.8 184.5A67 67 0 0 0 227.5 186.8Z");
}
}
@keyframes zr18-ani-14 {
0% {
d:path("M221.4 169.7A85.2 85.2 0 0 1 231.9 166.7L231.9 166.7A85.2 85.2 0 0 0 221.4 169.7Z");
}
100% {
d:path("M215.3 152.6A103.4 103.4 0 0 1 228.1 148.9L231.9 166.7A85.2 85.2 0 0 0 221.4 169.7Z");
}
}
@keyframes zr18-ani-15 {
0% {
d:path("M215.3 152.6A103.4 103.4 0 0 1 223.8 150L223.8 150A103.4 103.4 0 0 0 215.3 152.6Z");
}
100% {
d:path("M209.2 135.4A121.6 121.6 0 0 1 219.2 132.4L223.8 150A103.4 103.4 0 0 0 215.3 152.6Z");
}
}
@keyframes zr18-ani-16 {
0% {
d:path("M209.2 135.4A121.6 121.6 0 0 1 219.2 132.4L219.2 132.4A121.6 121.6 0 0 0 209.2 135.4Z");
}
100% {
d:path("M203.1 118.3A139.8 139.8 0 0 1 214.5 114.8L219.2 132.4A121.6 121.6 0 0 0 209.2 135.4Z");
}
}
@keyframes zr18-ani-17 {
0% {
d:path("M203.1 118.3A139.8 139.8 0 0 1 208.8 116.4L208.8 116.4A139.8 139.8 0 0 0 203.1 118.3Z");
}
100% {
d:path("M197 101.2A158 158 0 0 1 203.4 99.1L208.8 116.4A139.8 139.8 0 0 0 203.1 118.3Z");
}
}
@keyframes zr18-ani-18 {
0% {
d:path("M197 101.2A158 158 0 0 1 203.4 99.1L203.4 99.1A158 158 0 0 0 197 101.2Z");
}
100% {
d:path("M190.9 84.1A176.1 176.1 0 0 1 198.1 81.7L203.4 99.1A158 158 0 0 0 197 101.2Z");
}
}
@keyframes zr18-ani-19 {
0% {
d:path("M208.8 116.4A139.8 139.8 0 0 1 214.5 114.8L214.5 114.8A139.8 139.8 0 0 0 208.8 116.4Z");
}
100% {
d:path("M203.4 99.1A158 158 0 0 1 209.9 97.2L214.5 114.8A139.8 139.8 0 0 0 208.8 116.4Z");
}
}
@keyframes zr18-ani-20 {
0% {
d:path("M203.4 99.1A158 158 0 0 1 209.9 97.2L209.9 97.2A158 158 0 0 0 203.4 99.1Z");
}
100% {
d:path("M198.1 81.7A176.1 176.1 0 0 1 205.3 79.6L209.9 97.2A158 158 0 0 0 203.4 99.1Z");
}
}
@keyframes zr18-ani-21 {
0% {
d:path("M223.8 150A103.4 103.4 0 0 1 228.1 148.9L228.1 148.9A103.4 103.4 0 0 0 223.8 150Z");
}
100% {
d:path("M219.2 132.4A121.6 121.6 0 0 1 224.2 131.2L228.1 148.9A103.4 103.4 0 0 0 223.8 150Z");
}
}
@keyframes zr18-ani-22 {
0% {
d:path("M219.2 132.4A121.6 121.6 0 0 1 224.2 131.2L224.2 131.2A121.6 121.6 0 0 0 219.2 132.4Z");
}
100% {
d:path("M214.5 114.8A139.8 139.8 0 0 1 220.4 113.4L224.2 131.2A121.6 121.6 0 0 0 219.2 132.4Z");
}
}
@keyframes zr18-ani-23 {
0% {
d:path("M214.5 114.8A139.8 139.8 0 0 1 220.4 113.4L220.4 113.4A139.8 139.8 0 0 0 214.5 114.8Z");
}
100% {
d:path("M209.9 97.2A158 158 0 0 1 216.5 95.6L220.4 113.4A139.8 139.8 0 0 0 214.5 114.8Z");
}
}
@keyframes zr18-ani-24 {
0% {
d:path("M209.9 97.2A158 158 0 0 1 216.5 95.6L216.5 95.6A158 158 0 0 0 209.9 97.2Z");
}
100% {
d:path("M205.3 79.6A176.1 176.1 0 0 1 212.6 77.9L216.5 95.6A158 158 0 0 0 209.9 97.2Z");
}
}
@keyframes zr18-ani-25 {
0% {
d:path("M205.3 79.6A176.1 176.1 0 0 1 212.6 77.9L212.6 77.9A176.1 176.1 0 0 0 205.3 79.6Z");
}
100% {
d:path("M200.7 62A194.3 194.3 0 0 1 208.8 60.1L212.6 77.9A176.1 176.1 0 0 0 205.3 79.6Z");
}
}
@keyframes zr18-ani-26 {
0% {
d:path("M200.7 62A194.3 194.3 0 0 1 208.8 60.1L208.8 60.1A194.3 194.3 0 0 0 200.7 62Z");
}
100% {
d:path("M196.1 44.4A212.5 212.5 0 0 1 204.9 42.3L208.8 60.1A194.3 194.3 0 0 0 200.7 62Z");
}
}
@keyframes zr18-ani-27 {
0% {
d:path("M247.3 237.8A12.5 12.5 0 0 1 250 237.5L250 237.5A12.5 12.5 0 0 0 247.3 237.8Z");
}
100% {
d:path("M243.5 220A30.7 30.7 0 0 1 250 219.3L250 237.5A12.5 12.5 0 0 0 247.3 237.8Z");
}
}
@keyframes zr18-ani-28 {
0% {
d:path("M243.5 220A30.7 30.7 0 0 1 248.7 219.3L248.7 219.3A30.7 30.7 0 0 0 243.5 220Z");
}
100% {
d:path("M239.6 202.2A48.9 48.9 0 0 1 247.9 201.2L248.7 219.3A30.7 30.7 0 0 0 243.5 220Z");
}
}
@keyframes zr18-ani-29 {
0% {
d:path("M239.6 202.2A48.9 48.9 0 0 1 241.7 201.8L241.7 201.8A48.9 48.9 0 0 0 239.6 202.2Z");
}
100% {
d:path("M235.8 184.5A67 67 0 0 1 238.6 183.9L241.7 201.8A48.9 48.9 0 0 0 239.6 202.2Z");
}
}
@keyframes zr18-ani-30 {
0% {
d:path("M241.7 201.8A48.9 48.9 0 0 1 243.8 201.5L243.8 201.5A48.9 48.9 0 0 0 241.7 201.8Z");
}
100% {
d:path("M238.6 183.9A67 67 0 0 1 241.4 183.5L243.8 201.5A48.9 48.9 0 0 0 241.7 201.8Z");
}
}
@keyframes zr18-ani-31 {
0% {
d:path("M243.8 201.5A48.9 48.9 0 0 1 245.8 201.3L245.8 201.3A48.9 48.9 0 0 0 243.8 201.5Z");
}
100% {
d:path("M241.4 183.5A67 67 0 0 1 244.3 183.2L245.8 201.3A48.9 48.9 0 0 0 243.8 201.5Z");
}
}
@keyframes zr18-ani-32 {
0% {
d:path("M245.8 201.3A48.9 48.9 0 0 1 247.9 201.2L247.9 201.2A48.9 48.9 0 0 0 245.8 201.3Z");
}
100% {
d:path("M244.3 183.2A67 67 0 0 1 247.1 183L247.9 201.2A48.9 48.9 0 0 0 245.8 201.3Z");
}
}
@keyframes zr18-ani-33 {
0% {
d:path("M248.7 219.3A30.7 30.7 0 0 1 250 219.3L250 219.3A30.7 30.7 0 0 0 248.7 219.3Z");
}
100% {
d:path("M247.9 201.2A48.9 48.9 0 0 1 250 201.1L250 219.3A30.7 30.7 0 0 0 248.7 219.3Z");
}
}
@keyframes zr18-ani-34 {
0% {
d:path("M247.9 201.2A48.9 48.9 0 0 1 250 201.1L250 201.1A48.9 48.9 0 0 0 247.9 201.2Z");
}
100% {
d:path("M247.1 183A67 67 0 0 1 250 183L250 201.1A48.9 48.9 0 0 0 247.9 201.2Z");
}
}
]]>

</style>
</svg>