<svg width="500" height="500" xmlns="http://www.w3.org/2000/svg" xmlns:xlink="http://www.w3.org/1999/xlink" version="1.1" baseProfile="full" viewBox="0 0 500 500">
<rect width="500" height="500" x="0" y="0" id="0" fill="none"></rect>
<path d="M250 220.8A29.2 29.2 0 1 1 240 277.4L245.7 261.7A12.5 12.5 0 1 0 250 237.5Z" fill="#000" stroke="white" stroke-linejoin="bevel" class="zr76-cls-0"></path>
<path d="M250 204.2A45.8 45.8 0 0 1 265.7 293.1L260 277.4A29.2 29.2 0 0 0 250 220.8Z" fill="#4949CD" fill-opacity="0.5" stroke="#fff" stroke-width="4" stroke-opacity="0.5" stroke-linejoin="bevel" class="zr76-cls-1"></path>
<path d="M250 187.5A62.5 62.5 0 0 1 311.6 239.1L295.1 242A45.8 45.8 0 0 0 250 204.2Z" fill="#000" stroke="white" stroke-linejoin="bevel" class="zr76-cls-2"></path>
<path d="M250 170.8A79.2 79.2 0 0 1 328 236.3L311.6 239.1A62.5 62.5 0 0 0 250 187.5Z" fill="#000" stroke="white" stroke-linejoin="bevel" class="zr76-cls-3"></path>
<path d="M250 154.2A95.8 95.8 0 0 1 344.4 233.4L328 236.3A79.2 79.2 0 0 0 250 170.8Z" fill="#4949CD" fill-opacity="0.5" stroke="#fff" stroke-width="4" stroke-opacity="0.5" stroke-linejoin="bevel" class="zr76-cls-4"></path>
<path d="M250 137.5A112.5 112.5 0 0 1 360.8 230.5L344.4 233.4A95.8 95.8 0 0 0 250 154.2Z" fill="#0AA40D" stroke="white" stroke-linejoin="bevel" class="zr76-cls-5"></path>
<path d="M250 120.8A129.2 129.2 0 0 1 377.2 227.6L360.8 230.5A112.5 112.5 0 0 0 250 137.5Z" fill="#000" stroke="white" stroke-linejoin="bevel" class="zr76-cls-6"></path>
<path d="M250 104.2A145.8 145.8 0 0 1 393.6 224.7L377.2 227.6A129.2 129.2 0 0 0 250 120.8Z" fill="#4949CD" fill-opacity="0.5" stroke="#fff" stroke-width="4" stroke-opacity="0.5" stroke-linejoin="bevel" class="zr76-cls-7"></path>
<path d="M250 87.5A162.5 162.5 0 0 1 410 221.8L393.6 224.7A145.8 145.8 0 0 0 250 104.2Z" fill="#000" stroke="white" stroke-linejoin="bevel" class="zr76-cls-8"></path>
<path d="M250 70.8A179.2 179.2 0 0 1 365.2 112.8L354.5 125.5A162.5 162.5 0 0 0 250 87.5Z" fill="#000" stroke="white" stroke-linejoin="bevel" class="zr76-cls-9"></path>
<path d="M250 54.2A195.8 195.8 0 0 1 375.9 100L365.2 112.8A179.2 179.2 0 0 0 250 70.8Z" fill="#A0522D" stroke="white" stroke-linejoin="bevel" class="zr76-cls-10"></path>
<path d="M250 37.5A212.5 212.5 0 0 1 386.6 87.2L375.9 100A195.8 195.8 0 0 0 250 54.2Z" fill="#A0522D" stroke="white" stroke-linejoin="bevel" class="zr76-cls-11"></path>
<path d="M365.2 112.8A179.2 179.2 0 0 1 426.4 218.9L410 221.8A162.5 162.5 0 0 0 354.5 125.5Z" fill="#000" stroke="white" stroke-linejoin="bevel" class="zr76-cls-12"></path>
<path d="M375.9 100A195.8 195.8 0 0 1 442.9 216L426.4 218.9A179.2 179.2 0 0 0 365.2 112.8Z" fill="#A0522D" stroke="white" stroke-linejoin="bevel" class="zr76-cls-13"></path>
<path d="M386.6 87.2A212.5 212.5 0 0 1 459.3 213.1L442.9 216A195.8 195.8 0 0 0 375.9 100Z" fill="#A0522D" stroke="white" stroke-linejoin="bevel" class="zr76-cls-14"></path>
<path d="M311.6 239.1A62.5 62.5 0 0 1 304.1 281.2L289.7 272.9A45.8 45.8 0 0 0 295.1 242Z" fill="#000" stroke="white" stroke-linejoin="bevel" class="zr76-cls-15"></path>
<path d="M328 236.3A79.2 79.2 0 0 1 318.6 289.6L304.1 281.3A62.5 62.5 0 0 0 311.6 239.1Z" fill="#000" stroke="white" stroke-linejoin="bevel" class="zr76-cls-16"></path>
<path d="M344.4 233.4A95.8 95.8 0 0 1 333 297.9L318.6 289.6A79.2 79.2 0 0 0 328 236.3Z" fill="#4949CD" fill-opacity="0.5" stroke="#fff" stroke-width="4" stroke-opacity="0.5" stroke-linejoin="bevel" class="zr76-cls-17"></path>
<path d="M360.8 230.5A112.5 112.5 0 0 1 347.4 306.2L333 297.9A95.8 95.8 0 0 0 344.4 233.4Z" fill="#0AA40D" stroke="white" stroke-linejoin="bevel" class="zr76-cls-18"></path>
<path d="M377.2 227.6A129.2 129.2 0 0 1 361.9 314.6L347.4 306.3A112.5 112.5 0 0 0 360.8 230.5Z" fill="#C8C8C8" stroke="white" stroke-linejoin="bevel" class="zr76-cls-19"></path>
<path d="M304.1 281.3A62.5 62.5 0 0 1 271.4 308.7L265.7 293.1A45.8 45.8 0 0 0 289.7 272.9Z" fill="#000" stroke="white" stroke-linejoin="bevel" class="zr76-cls-20"></path>
<path d="M318.6 289.6A79.2 79.2 0 0 1 277.1 324.4L271.4 308.7A62.5 62.5 0 0 0 304.1 281.3Z" fill="#000" stroke="white" stroke-linejoin="bevel" class="zr76-cls-21"></path>
<path d="M333 297.9A95.8 95.8 0 0 1 282.8 340.1L277.1 324.4A79.2 79.2 0 0 0 318.6 289.6Z" fill="#49ff49" fill-opacity="0.5" stroke="#fff" stroke-width="4" stroke-opacity="0.5" stroke-linejoin="bevel" class="zr76-cls-22"></path>
<path d="M347.4 306.3A112.5 112.5 0 0 1 288.5 355.7L282.8 340.1A95.8 95.8 0 0 0 333 297.9Z" fill="#FF0000" stroke="white" stroke-linejoin="bevel" class="zr76-cls-23"></path>
<path d="M265.7 293.1A45.8 45.8 0 0 1 234.3 293.1L240 277.4A29.2 29.2 0 0 0 260 277.4Z" fill="rgb(255,255,255)" fill-opacity="0.5" stroke="#fff" stroke-width="4" stroke-opacity="0.5" stroke-linejoin="bevel" class="zr76-cls-24"></path>
<path d="M271.4 308.7A62.5 62.5 0 0 1 228.6 308.7L234.3 293.1A45.8 45.8 0 0 0 265.7 293.1Z" fill="#000" stroke="white" stroke-linejoin="bevel" class="zr76-cls-25"></path>
<path d="M277.1 324.4A79.2 79.2 0 0 1 222.9 324.4L228.6 308.7A62.5 62.5 0 0 0 271.4 308.7Z" fill="#FF0000" stroke="white" stroke-linejoin="bevel" class="zr76-cls-26"></path>
<path d="M240 277.4A29.2 29.2 0 0 1 221.3 244.9L237.7 247.8A12.5 12.5 0 0 0 245.7 261.7Z" fill="#C8C8C8" stroke="white" stroke-linejoin="bevel" class="zr76-cls-27"></path>
<path d="M234.3 293.1A45.8 45.8 0 0 1 204.9 242L221.3 244.9A29.2 29.2 0 0 0 240 277.4Z" fill="#C8C8C8" stroke="white" stroke-linejoin="bevel" class="zr76-cls-28"></path>
<path d="M221.3 244.9A29.2 29.2 0 0 1 250 220.8L250 237.5A12.5 12.5 0 0 0 237.7 247.8Z" fill="#C8C8C8" stroke="white" stroke-linejoin="bevel" class="zr76-cls-29"></path>
<path d="M204.9 242A45.8 45.8 0 0 1 250 204.2L250 220.8A29.2 29.2 0 0 0 221.3 244.9Z" fill="#ff4949" fill-opacity="0.5" stroke="#fff" stroke-width="4" stroke-opacity="0.5" stroke-linejoin="bevel" class="zr76-cls-30"></path>
<path d="M188.4 239.1A62.5 62.5 0 0 1 209.8 202.1L220.5 214.9A45.8 45.8 0 0 0 204.9 242Z" fill="#C8C8C8" stroke="white" stroke-linejoin="bevel" class="zr76-cls-31"></path>
<path d="M209.8 202.1A62.5 62.5 0 0 1 250 187.5L250 204.2A45.8 45.8 0 0 0 220.5 214.9Z" fill="#C8C8C8" stroke="white" stroke-linejoin="bevel" class="zr76-cls-32"></path>
<text dominant-baseline="central" text-anchor="middle" style="font-size:12px;font-family:sans-serif;" transform="matrix(0.174,-0.985,0.985,0.174,270.5168,253.6177)" fill="#ccc" stroke="#000" stroke-width="2" paint-order="stroke" stroke-miterlimit="2">paths</text>
<text dominant-baseline="central" text-anchor="middle" style="font-size:9px;font-family:sans-serif;" transform="matrix(0.766,0.643,-0.643,0.766,284.8177,208.5059)" fill="#ccc" stroke="#000" stroke-width="2" paint-order="stroke" stroke-miterlimit="2">/contributions</text>
<text dominant-baseline="central" text-anchor="middle" style="font-size:9px;font-family:sans-serif;" transform="matrix(0.766,0.643,-0.643,0.766,295.5308,195.7385)" fill="#ccc" stroke="#000" stroke-width="2" paint-order="stroke" stroke-miterlimit="2">operations</text>
<text dominant-baseline="central" text-anchor="middle" style="font-size:12px;font-family:sans-serif;" transform="matrix(0.766,0.643,-0.643,0.766,316.957,170.2037)" fill="#eee" stroke="#0AA40D" stroke-width="2" paint-order="stroke" stroke-miterlimit="2">GET</text>
<text dominant-baseline="central" text-anchor="middle" style="font-size:9px;font-family:sans-serif;" transform="matrix(0.766,0.643,-0.643,0.766,327.6702,157.4363)" fill="#ccc" stroke="#000" stroke-width="2" paint-order="stroke" stroke-miterlimit="2">params</text>
<text dominant-baseline="central" text-anchor="middle" style="font-size:12px;font-family:sans-serif;" transform="matrix(0.766,0.643,-0.643,0.766,349.0964,131.9015)" fill="#ccc" stroke="#000" stroke-width="2" paint-order="stroke" stroke-miterlimit="2">query</text>
<text dominant-baseline="central" text-anchor="middle" style="font-size:10px;font-family:sans-serif;" transform="matrix(0.94,0.342,-0.342,0.94,308.4284,89.4692)" fill="#ccc" stroke="#000" stroke-width="2" paint-order="stroke" stroke-miterlimit="2">endDate</text>
<text dominant-baseline="central" text-anchor="middle" style="font-size:12px;font-family:sans-serif;" transform="matrix(0.94,0.342,-0.342,0.94,314.1288,73.8076)" fill="#eee" stroke="#A0522D" stroke-width="2" paint-order="stroke" stroke-miterlimit="2">schema</text>
<text dominant-baseline="central" text-anchor="middle" style="font-size:12px;font-family:sans-serif;" transform="matrix(0.94,0.342,-0.342,0.94,319.8291,58.1461)" fill="#eee" stroke="#A0522D" stroke-width="2" paint-order="stroke" stroke-miterlimit="2">format</text>
<text dominant-baseline="central" text-anchor="middle" style="font-size:10px;font-family:sans-serif;" transform="matrix(0.5,0.866,-0.866,0.5,397.946,164.5833)" fill="#ccc" stroke="#000" stroke-width="2" paint-order="stroke" stroke-miterlimit="2">startDate</text>
<text dominant-baseline="central" text-anchor="middle" style="font-size:12px;font-family:sans-serif;" transform="matrix(0.5,0.866,-0.866,0.5,412.3798,156.25)" fill="#eee" stroke="#A0522D" stroke-width="2" paint-order="stroke" stroke-miterlimit="2">schema</text>
<text dominant-baseline="central" text-anchor="middle" style="font-size:12px;font-family:sans-serif;" transform="matrix(0.5,0.866,-0.866,0.5,426.8135,147.9167)" fill="#eee" stroke="#A0522D" stroke-width="2" paint-order="stroke" stroke-miterlimit="2">format</text>
<text dominant-baseline="central" text-anchor="middle" style="font-size:9px;font-family:sans-serif;" transform="matrix(0.174,-0.985,0.985,0.174,319.7572,262.3001)" fill="#ccc" stroke="#000" stroke-width="2" paint-order="stroke" stroke-miterlimit="2">operations</text>
<text dominant-baseline="central" text-anchor="middle" style="font-size:12px;font-family:sans-serif;" transform="matrix(0.174,-0.985,0.985,0.174,352.5841,268.0884)" fill="#eee" stroke="#0AA40D" stroke-width="2" paint-order="stroke" stroke-miterlimit="2">GET</text>
<text dominant-baseline="central" text-anchor="middle" style="font-size:10px;font-family:sans-serif;" transform="matrix(0.174,-0.985,0.985,0.174,368.9976,270.9825)" fill="#333">summary</text>
<text dominant-baseline="central" text-anchor="middle" style="font-size:9px;font-family:sans-serif;" transform="matrix(0.766,-0.643,0.643,0.766,284.8177,291.4941)" fill="#ccc" stroke="#000" stroke-width="2" paint-order="stroke" stroke-miterlimit="2">/accounts/{id}</text>
<text dominant-baseline="central" text-anchor="middle" style="font-size:9px;font-family:sans-serif;" transform="matrix(0.766,-0.643,0.643,0.766,295.5308,304.2615)" fill="#ccc" stroke="#000" stroke-width="2" paint-order="stroke" stroke-miterlimit="2">operations</text>
<text dominant-baseline="central" text-anchor="middle" style="font-size:12px;font-family:sans-serif;" transform="matrix(0.766,-0.643,0.643,0.766,316.957,329.7963)" fill="#eee" stroke="#FF0000" stroke-width="2" paint-order="stroke" stroke-miterlimit="2">DELETE</text>
<text dominant-baseline="central" text-anchor="middle" style="font-size:12px;font-family:sans-serif;" transform="translate(250 320.8333)" fill="#eee" stroke="#FF0000" stroke-width="2" paint-order="stroke" stroke-miterlimit="2">DELETE</text>
<text dominant-baseline="central" text-anchor="middle" style="font-size:12px;font-family:sans-serif;" transform="matrix(0.5,0.866,-0.866,0.5,231.9578,260.4167)" fill="#333">info</text>
<text dominant-baseline="central" text-anchor="middle" style="font-size:10px;font-family:sans-serif;" transform="matrix(0.5,0.866,-0.866,0.5,217.524,268.75)" fill="#333">version</text>
<text dominant-baseline="central" text-anchor="middle" style="font-size:12px;font-family:sans-serif;" transform="matrix(0.766,-0.643,0.643,0.766,236.6086,234.0407)" fill="#333">tags</text>
<text dominant-baseline="central" text-anchor="middle" style="font-size:10px;font-family:sans-serif;" transform="matrix(0.5,-0.866,0.866,0.5,203.0903,222.9167)" fill="#333">Incomes</text>
<path d="M-14.8 -16l66.6 0l0 32l-66.6 0Z" transform="translate(448.253 16)" fill="none" stroke="#ccc" stroke-width="0"></path>
<path d="M-7.3 -1.8L-0.1 4.8L7.3 -1.6M-7.3 4.3L-7.3 8.5L7.1 8.5L7.1 4.3M-0.1 4.7L-0.1 -8.5" transform="translate(448.253 16)" fill="none" stroke="#666"></path>
<path d="M-7.9 1M5.1 -3.4L8.1 -3.4L8.1 -6.4M8 -3C6.7 -6.4 3.2 -8.9 -1 -8.4C-5.3 -8 -8.6 -4.2 -8.4 0.2M-5.1 3.4L-8.1 3.4L-8.1 6.4M-8 3C-6.7 6.4 -3.2 8.9 1 8.4C5.3 8 8.6 4.2 8.4 -0.2" transform="translate(484.0476 16)" fill="none" stroke="#666"></path>
<style ><![CDATA[
.zr76-cls-0 {
animation:zr76-ani-0 1s cubic-bezier(0.65,0,0.35,1) both;
}
.zr76-cls-1 {
animation:zr76-ani-1 1s cubic-bezier(0.65,0,0.35,1) both;
}
.zr76-cls-2 {
animation:zr76-ani-2 1s cubic-bezier(0.65,0,0.35,1) both;
}
.zr76-cls-3 {
animation:zr76-ani-3 1s cubic-bezier(0.65,0,0.35,1) both;
}
.zr76-cls-4 {
animation:zr76-ani-4 1s cubic-bezier(0.65,0,0.35,1) both;
}
.zr76-cls-5 {
animation:zr76-ani-5 1s cubic-bezier(0.65,0,0.35,1) both;
}
.zr76-cls-6 {
animation:zr76-ani-6 1s cubic-bezier(0.65,0,0.35,1) both;
}
.zr76-cls-7 {
animation:zr76-ani-7 1s cubic-bezier(0.65,0,0.35,1) both;
}
.zr76-cls-8 {
animation:zr76-ani-8 1s cubic-bezier(0.65,0,0.35,1) both;
}
.zr76-cls-9 {
animation:zr76-ani-9 1s cubic-bezier(0.65,0,0.35,1) both;
}
.zr76-cls-10 {
animation:zr76-ani-10 1s cubic-bezier(0.65,0,0.35,1) both;
}
.zr76-cls-11 {
animation:zr76-ani-11 1s cubic-bezier(0.65,0,0.35,1) both;
}
.zr76-cls-12 {
animation:zr76-ani-12 1s cubic-bezier(0.65,0,0.35,1) both;
}
.zr76-cls-13 {
animation:zr76-ani-13 1s cubic-bezier(0.65,0,0.35,1) both;
}
.zr76-cls-14 {
animation:zr76-ani-14 1s cubic-bezier(0.65,0,0.35,1) both;
}
.zr76-cls-15 {
animation:zr76-ani-15 1s cubic-bezier(0.65,0,0.35,1) both;
}
.zr76-cls-16 {
animation:zr76-ani-16 1s cubic-bezier(0.65,0,0.35,1) both;
}
.zr76-cls-17 {
animation:zr76-ani-17 1s cubic-bezier(0.65,0,0.35,1) both;
}
.zr76-cls-18 {
animation:zr76-ani-18 1s cubic-bezier(0.65,0,0.35,1) both;
}
.zr76-cls-19 {
animation:zr76-ani-19 1s cubic-bezier(0.65,0,0.35,1) both;
}
.zr76-cls-20 {
animation:zr76-ani-20 1s cubic-bezier(0.65,0,0.35,1) both;
}
.zr76-cls-21 {
animation:zr76-ani-21 1s cubic-bezier(0.65,0,0.35,1) both;
}
.zr76-cls-22 {
animation:zr76-ani-22 1s cubic-bezier(0.65,0,0.35,1) both;
}
.zr76-cls-23 {
animation:zr76-ani-23 1s cubic-bezier(0.65,0,0.35,1) both;
}
.zr76-cls-24 {
animation:zr76-ani-24 1s cubic-bezier(0.65,0,0.35,1) both;
}
.zr76-cls-25 {
animation:zr76-ani-25 1s cubic-bezier(0.65,0,0.35,1) both;
}
.zr76-cls-26 {
animation:zr76-ani-26 1s cubic-bezier(0.65,0,0.35,1) both;
}
.zr76-cls-27 {
animation:zr76-ani-27 1s cubic-bezier(0.65,0,0.35,1) both;
}
.zr76-cls-28 {
animation:zr76-ani-28 1s cubic-bezier(0.65,0,0.35,1) both;
}
.zr76-cls-29 {
animation:zr76-ani-29 1s cubic-bezier(0.65,0,0.35,1) both;
}
.zr76-cls-30 {
animation:zr76-ani-30 1s cubic-bezier(0.65,0,0.35,1) both;
}
.zr76-cls-31 {
animation:zr76-ani-31 1s cubic-bezier(0.65,0,0.35,1) both;
}
.zr76-cls-32 {
animation:zr76-ani-32 1s cubic-bezier(0.65,0,0.35,1) both;
}
@keyframes zr76-ani-0 {
0% {
d:path("M250 237.5A12.5 12.5 0 1 1 245.7 261.7L245.7 261.7A12.5 12.5 0 1 0 250 237.5Z");
}
100% {
d:path("M250 220.8A29.2 29.2 0 1 1 240 277.4L245.7 261.7A12.5 12.5 0 1 0 250 237.5Z");
}
}
@keyframes zr76-ani-1 {
0% {
d:path("M250 220.8A29.2 29.2 0 0 1 260 277.4A29.2 29.2 0 0 0 250 220.8Z");
}
100% {
d:path("M250 204.2A45.8 45.8 0 0 1 265.7 293.1L260 277.4A29.2 29.2 0 0 0 250 220.8Z");
}
}
@keyframes zr76-ani-2 {
0% {
d:path("M250 204.2A45.8 45.8 0 0 1 295.1 242A45.8 45.8 0 0 0 250 204.2Z");
}
100% {
d:path("M250 187.5A62.5 62.5 0 0 1 311.6 239.1L295.1 242A45.8 45.8 0 0 0 250 204.2Z");
}
}
@keyframes zr76-ani-3 {
0% {
d:path("M250 187.5A62.5 62.5 0 0 1 311.6 239.1A62.5 62.5 0 0 0 250 187.5Z");
}
100% {
d:path("M250 170.8A79.2 79.2 0 0 1 328 236.3L311.6 239.1A62.5 62.5 0 0 0 250 187.5Z");
}
}
@keyframes zr76-ani-4 {
0% {
d:path("M250 170.8A79.2 79.2 0 0 1 328 236.3A79.2 79.2 0 0 0 250 170.8Z");
}
100% {
d:path("M250 154.2A95.8 95.8 0 0 1 344.4 233.4L328 236.3A79.2 79.2 0 0 0 250 170.8Z");
}
}
@keyframes zr76-ani-5 {
0% {
d:path("M250 154.2A95.8 95.8 0 0 1 344.4 233.4A95.8 95.8 0 0 0 250 154.2Z");
}
100% {
d:path("M250 137.5A112.5 112.5 0 0 1 360.8 230.5L344.4 233.4A95.8 95.8 0 0 0 250 154.2Z");
}
}
@keyframes zr76-ani-6 {
0% {
d:path("M250 137.5A112.5 112.5 0 0 1 360.8 230.5A112.5 112.5 0 0 0 250 137.5Z");
}
100% {
d:path("M250 120.8A129.2 129.2 0 0 1 377.2 227.6L360.8 230.5A112.5 112.5 0 0 0 250 137.5Z");
}
}
@keyframes zr76-ani-7 {
0% {
d:path("M250 120.8A129.2 129.2 0 0 1 377.2 227.6A129.2 129.2 0 0 0 250 120.8Z");
}
100% {
d:path("M250 104.2A145.8 145.8 0 0 1 393.6 224.7L377.2 227.6A129.2 129.2 0 0 0 250 120.8Z");
}
}
@keyframes zr76-ani-8 {
0% {
d:path("M250 104.2A145.8 145.8 0 0 1 393.6 224.7A145.8 145.8 0 0 0 250 104.2Z");
}
100% {
d:path("M250 87.5A162.5 162.5 0 0 1 410 221.8L393.6 224.7A145.8 145.8 0 0 0 250 104.2Z");
}
}
@keyframes zr76-ani-9 {
0% {
d:path("M250 87.5A162.5 162.5 0 0 1 354.5 125.5L354.5 125.5A162.5 162.5 0 0 0 250 87.5Z");
}
100% {
d:path("M250 70.8A179.2 179.2 0 0 1 365.2 112.8L354.5 125.5A162.5 162.5 0 0 0 250 87.5Z");
}
}
@keyframes zr76-ani-10 {
0% {
d:path("M250 70.8A179.2 179.2 0 0 1 365.2 112.8L365.2 112.8A179.2 179.2 0 0 0 250 70.8Z");
}
100% {
d:path("M250 54.2A195.8 195.8 0 0 1 375.9 100L365.2 112.8A179.2 179.2 0 0 0 250 70.8Z");
}
}
@keyframes zr76-ani-11 {
0% {
d:path("M250 54.2A195.8 195.8 0 0 1 375.9 100L375.9 100A195.8 195.8 0 0 0 250 54.2Z");
}
100% {
d:path("M250 37.5A212.5 212.5 0 0 1 386.6 87.2L375.9 100A195.8 195.8 0 0 0 250 54.2Z");
}
}
@keyframes zr76-ani-12 {
0% {
d:path("M354.5 125.5A162.5 162.5 0 0 1 410 221.8L410 221.8A162.5 162.5 0 0 0 354.5 125.5Z");
}
100% {
d:path("M365.2 112.8A179.2 179.2 0 0 1 426.4 218.9L410 221.8A162.5 162.5 0 0 0 354.5 125.5Z");
}
}
@keyframes zr76-ani-13 {
0% {
d:path("M365.2 112.8A179.2 179.2 0 0 1 426.4 218.9L426.4 218.9A179.2 179.2 0 0 0 365.2 112.8Z");
}
100% {
d:path("M375.9 100A195.8 195.8 0 0 1 442.9 216L426.4 218.9A179.2 179.2 0 0 0 365.2 112.8Z");
}
}
@keyframes zr76-ani-14 {
0% {
d:path("M375.9 100A195.8 195.8 0 0 1 442.9 216L442.9 216A195.8 195.8 0 0 0 375.9 100Z");
}
100% {
d:path("M386.6 87.2A212.5 212.5 0 0 1 459.3 213.1L442.9 216A195.8 195.8 0 0 0 375.9 100Z");
}
}
@keyframes zr76-ani-15 {
0% {
d:path("M295.1 242A45.8 45.8 0 0 1 289.7 272.9L289.7 272.9A45.8 45.8 0 0 0 295.1 242Z");
}
100% {
d:path("M311.6 239.1A62.5 62.5 0 0 1 304.1 281.2L289.7 272.9A45.8 45.8 0 0 0 295.1 242Z");
}
}
@keyframes zr76-ani-16 {
0% {
d:path("M311.6 239.1A62.5 62.5 0 0 1 304.1 281.2L304.1 281.3A62.5 62.5 0 0 0 311.6 239.1Z");
}
100% {
d:path("M328 236.3A79.2 79.2 0 0 1 318.6 289.6L304.1 281.3A62.5 62.5 0 0 0 311.6 239.1Z");
}
}
@keyframes zr76-ani-17 {
0% {
d:path("M328 236.3A79.2 79.2 0 0 1 318.6 289.6L318.6 289.6A79.2 79.2 0 0 0 328 236.3Z");
}
100% {
d:path("M344.4 233.4A95.8 95.8 0 0 1 333 297.9L318.6 289.6A79.2 79.2 0 0 0 328 236.3Z");
}
}
@keyframes zr76-ani-18 {
0% {
d:path("M344.4 233.4A95.8 95.8 0 0 1 333 297.9L333 297.9A95.8 95.8 0 0 0 344.4 233.4Z");
}
100% {
d:path("M360.8 230.5A112.5 112.5 0 0 1 347.4 306.2L333 297.9A95.8 95.8 0 0 0 344.4 233.4Z");
}
}
@keyframes zr76-ani-19 {
0% {
d:path("M360.8 230.5A112.5 112.5 0 0 1 347.4 306.2L347.4 306.3A112.5 112.5 0 0 0 360.8 230.5Z");
}
100% {
d:path("M377.2 227.6A129.2 129.2 0 0 1 361.9 314.6L347.4 306.3A112.5 112.5 0 0 0 360.8 230.5Z");
}
}
@keyframes zr76-ani-20 {
0% {
d:path("M289.7 272.9A45.8 45.8 0 0 1 265.7 293.1L265.7 293.1A45.8 45.8 0 0 0 289.7 272.9Z");
}
100% {
d:path("M304.1 281.3A62.5 62.5 0 0 1 271.4 308.7L265.7 293.1A45.8 45.8 0 0 0 289.7 272.9Z");
}
}
@keyframes zr76-ani-21 {
0% {
d:path("M304.1 281.3A62.5 62.5 0 0 1 271.4 308.7L271.4 308.7A62.5 62.5 0 0 0 304.1 281.3Z");
}
100% {
d:path("M318.6 289.6A79.2 79.2 0 0 1 277.1 324.4L271.4 308.7A62.5 62.5 0 0 0 304.1 281.3Z");
}
}
@keyframes zr76-ani-22 {
0% {
d:path("M318.6 289.6A79.2 79.2 0 0 1 277.1 324.4L277.1 324.4A79.2 79.2 0 0 0 318.6 289.6Z");
}
100% {
d:path("M333 297.9A95.8 95.8 0 0 1 282.8 340.1L277.1 324.4A79.2 79.2 0 0 0 318.6 289.6Z");
}
}
@keyframes zr76-ani-23 {
0% {
d:path("M333 297.9A95.8 95.8 0 0 1 282.8 340.1L282.8 340.1A95.8 95.8 0 0 0 333 297.9Z");
}
100% {
d:path("M347.4 306.3A112.5 112.5 0 0 1 288.5 355.7L282.8 340.1A95.8 95.8 0 0 0 333 297.9Z");
}
}
@keyframes zr76-ani-24 {
0% {
d:path("M260 277.4A29.2 29.2 0 0 1 240 277.4L240 277.4A29.2 29.2 0 0 0 260 277.4Z");
}
100% {
d:path("M265.7 293.1A45.8 45.8 0 0 1 234.3 293.1L240 277.4A29.2 29.2 0 0 0 260 277.4Z");
}
}
@keyframes zr76-ani-25 {
0% {
d:path("M265.7 293.1A45.8 45.8 0 0 1 234.3 293.1L234.3 293.1A45.8 45.8 0 0 0 265.7 293.1Z");
}
100% {
d:path("M271.4 308.7A62.5 62.5 0 0 1 228.6 308.7L234.3 293.1A45.8 45.8 0 0 0 265.7 293.1Z");
}
}
@keyframes zr76-ani-26 {
0% {
d:path("M271.4 308.7A62.5 62.5 0 0 1 228.6 308.7L228.6 308.7A62.5 62.5 0 0 0 271.4 308.7Z");
}
100% {
d:path("M277.1 324.4A79.2 79.2 0 0 1 222.9 324.4L228.6 308.7A62.5 62.5 0 0 0 271.4 308.7Z");
}
}
@keyframes zr76-ani-27 {
0% {
d:path("M245.7 261.7A12.5 12.5 0 0 1 237.7 247.8L237.7 247.8A12.5 12.5 0 0 0 245.7 261.7Z");
}
100% {
d:path("M240 277.4A29.2 29.2 0 0 1 221.3 244.9L237.7 247.8A12.5 12.5 0 0 0 245.7 261.7Z");
}
}
@keyframes zr76-ani-28 {
0% {
d:path("M240 277.4A29.2 29.2 0 0 1 221.3 244.9L221.3 244.9A29.2 29.2 0 0 0 240 277.4Z");
}
100% {
d:path("M234.3 293.1A45.8 45.8 0 0 1 204.9 242L221.3 244.9A29.2 29.2 0 0 0 240 277.4Z");
}
}
@keyframes zr76-ani-29 {
0% {
d:path("M237.7 247.8A12.5 12.5 0 0 1 250 237.5L250 237.5A12.5 12.5 0 0 0 237.7 247.8Z");
}
100% {
d:path("M221.3 244.9A29.2 29.2 0 0 1 250 220.8L250 237.5A12.5 12.5 0 0 0 237.7 247.8Z");
}
}
@keyframes zr76-ani-30 {
0% {
d:path("M221.3 244.9A29.2 29.2 0 0 1 250 220.8L250 220.8A29.2 29.2 0 0 0 221.3 244.9Z");
}
100% {
d:path("M204.9 242A45.8 45.8 0 0 1 250 204.2L250 220.8A29.2 29.2 0 0 0 221.3 244.9Z");
}
}
@keyframes zr76-ani-31 {
0% {
d:path("M204.9 242A45.8 45.8 0 0 1 220.5 214.9L220.5 214.9A45.8 45.8 0 0 0 204.9 242Z");
}
100% {
d:path("M188.4 239.1A62.5 62.5 0 0 1 209.8 202.1L220.5 214.9A45.8 45.8 0 0 0 204.9 242Z");
}
}
@keyframes zr76-ani-32 {
0% {
d:path("M220.5 214.9A45.8 45.8 0 0 1 250 204.2L250 204.2A45.8 45.8 0 0 0 220.5 214.9Z");
}
100% {
d:path("M209.8 202.1A62.5 62.5 0 0 1 250 187.5L250 204.2A45.8 45.8 0 0 0 220.5 214.9Z");
}
}
]]>

</style>
</svg>