<svg width="500" height="500" xmlns="http://www.w3.org/2000/svg" xmlns:xlink="http://www.w3.org/1999/xlink" version="1.1" baseProfile="full" viewBox="0 0 500 500">
<rect width="500" height="500" x="0" y="0" id="0" fill="none"></rect>
<path d="M250 224.2A25.8 25.8 0 1 1 231.6 231.9L241.1 241.2A12.5 12.5 0 1 0 250 237.5Z" fill="#C8C8C8" stroke="white" stroke-linejoin="bevel" class="zr70-cls-0"></path>
<path d="M250 210.8A39.2 39.2 0 1 1 219.2 225.8L229.7 234.1A25.8 25.8 0 1 0 250 224.2Z" fill="#C8C8C8" stroke="white" stroke-linejoin="bevel" class="zr70-cls-1"></path>
<path d="M219.2 225.8A39.2 39.2 0 0 1 222.1 222.5L231.6 231.9A25.8 25.8 0 0 0 229.7 234.1Z" fill="#C8C8C8" stroke="white" stroke-linejoin="bevel" class="zr70-cls-2"></path>
<path d="M231.6 231.9A25.8 25.8 0 0 1 250 224.2L250 237.5A12.5 12.5 0 0 0 241.1 241.2Z" fill="#000" stroke="white" stroke-linejoin="bevel" class="zr70-cls-3"></path>
<path d="M222.1 222.5A39.2 39.2 0 0 1 243.4 211.4L245.6 224.5A25.8 25.8 0 0 0 231.6 231.9Z" fill="#4949CD" fill-opacity="0.5" stroke="#fff" stroke-width="4" stroke-opacity="0.5" stroke-linejoin="bevel" class="zr70-cls-4"></path>
<path d="M212.6 213.1A52.5 52.5 0 0 1 224.4 204.2L230.9 215.8A39.2 39.2 0 0 0 222.1 222.5Z" fill="#000" stroke="white" stroke-linejoin="bevel" class="zr70-cls-5"></path>
<path d="M203.1 203.8A65.8 65.8 0 0 1 217.9 192.5L224.4 204.2A52.5 52.5 0 0 0 212.6 213.1Z" fill="#000" stroke="white" stroke-linejoin="bevel" class="zr70-cls-6"></path>
<path d="M193.6 194.4A79.2 79.2 0 0 1 203.8 185.7L211.6 196.5A65.8 65.8 0 0 0 203.1 203.8Z" fill="#4949CD" fill-opacity="0.5" stroke="#fff" stroke-width="4" stroke-opacity="0.5" stroke-linejoin="bevel" class="zr70-cls-7"></path>
<path d="M184.1 185.1A92.5 92.5 0 0 1 191.9 178L200.3 188.4A79.2 79.2 0 0 0 193.6 194.4Z" fill="#6dc0e3" stroke="white" stroke-linejoin="bevel" class="zr70-cls-8"></path>
<path d="M174.6 175.7A105.8 105.8 0 0 1 183.5 167.7L191.9 178A92.5 92.5 0 0 0 184.1 185.1Z" fill="#000" stroke="white" stroke-linejoin="bevel" class="zr70-cls-9"></path>
<path d="M165.1 166.3A119.2 119.2 0 0 1 175.1 157.3L183.5 167.7A105.8 105.8 0 0 0 174.6 175.7Z" fill="#4949CD" fill-opacity="0.5" stroke="#fff" stroke-width="4" stroke-opacity="0.5" stroke-linejoin="bevel" class="zr70-cls-10"></path>
<path d="M155.6 157A132.5 132.5 0 0 1 166.8 146.9L175.1 157.3A119.2 119.2 0 0 0 165.1 166.3Z" fill="#000" stroke="white" stroke-linejoin="bevel" class="zr70-cls-11"></path>
<path d="M146.2 147.6A145.8 145.8 0 0 1 152.1 141.9L161.1 151.8A132.5 132.5 0 0 0 155.6 157Z" fill="#C8C8C8" stroke="white" stroke-linejoin="bevel" class="zr70-cls-12"></path>
<path d="M152.1 141.9A145.8 145.8 0 0 1 158.4 136.5L166.8 146.9A132.5 132.5 0 0 0 161.1 151.8Z" fill="#000" stroke="white" stroke-linejoin="bevel" class="zr70-cls-13"></path>
<path d="M143.2 132A159.2 159.2 0 0 1 150 126.2L158.4 136.5A145.8 145.8 0 0 0 152.1 141.9Z" fill="#49ff49" fill-opacity="0.5" stroke="#fff" stroke-width="4" stroke-opacity="0.5" stroke-linejoin="bevel" class="zr70-cls-14"></path>
<path d="M134.2 122.1A172.5 172.5 0 0 1 141.6 115.8L150 126.2A159.2 159.2 0 0 0 143.2 132Z" fill="#000" stroke="white" stroke-linejoin="bevel" class="zr70-cls-15"></path>
<path d="M191.9 178A92.5 92.5 0 0 1 196.1 174.9L203.8 185.7A79.2 79.2 0 0 0 200.3 188.4Z" fill="#FF0000" stroke="white" stroke-linejoin="bevel" class="zr70-cls-16"></path>
<path d="M183.5 167.7A105.8 105.8 0 0 1 188.3 164L196.1 174.9A92.5 92.5 0 0 0 191.9 178Z" fill="#C8C8C8" stroke="white" stroke-linejoin="bevel" class="zr70-cls-17"></path>
<path d="M203.8 185.7A79.2 79.2 0 0 1 207.5 183.2L214.7 194.4A65.8 65.8 0 0 0 211.6 196.5Z" fill="#49ff49" fill-opacity="0.5" stroke="#fff" stroke-width="4" stroke-opacity="0.5" stroke-linejoin="bevel" class="zr70-cls-18"></path>
<path d="M196.1 174.9A92.5 92.5 0 0 1 200.4 171.9L207.5 183.2A79.2 79.2 0 0 0 203.8 185.7Z" fill="#F3C142" stroke="white" stroke-linejoin="bevel" class="zr70-cls-19"></path>
<path d="M207.5 183.2A79.2 79.2 0 0 1 211.4 180.9L217.9 192.5A65.8 65.8 0 0 0 214.7 194.4Z" fill="#ff4949" fill-opacity="0.5" stroke="#fff" stroke-width="4" stroke-opacity="0.5" stroke-linejoin="bevel" class="zr70-cls-20"></path>
<path d="M200.4 171.9A92.5 92.5 0 0 1 204.9 169.2L211.4 180.9A79.2 79.2 0 0 0 207.5 183.2Z" fill="#F3C142" stroke="white" stroke-linejoin="bevel" class="zr70-cls-21"></path>
<path d="M224.4 204.2A52.5 52.5 0 0 1 238.2 198.8L241.2 211.8A39.2 39.2 0 0 0 230.9 215.8Z" fill="#000" stroke="white" stroke-linejoin="bevel" class="zr70-cls-22"></path>
<path d="M217.9 192.5A65.8 65.8 0 0 1 235.2 185.8L238.2 198.8A52.5 52.5 0 0 0 224.4 204.2Z" fill="#000" stroke="white" stroke-linejoin="bevel" class="zr70-cls-23"></path>
<path d="M211.4 180.9A79.2 79.2 0 0 1 232.2 172.9L235.2 185.8A65.8 65.8 0 0 0 217.9 192.5Z" fill="#4949CD" fill-opacity="0.5" stroke="#fff" stroke-width="4" stroke-opacity="0.5" stroke-linejoin="bevel" class="zr70-cls-24"></path>
<path d="M204.9 169.2A92.5 92.5 0 0 1 229.2 159.9L232.2 172.9A79.2 79.2 0 0 0 211.4 180.9Z" fill="#F3C142" stroke="white" stroke-linejoin="bevel" class="zr70-cls-25"></path>
<path d="M198.4 157.6A105.8 105.8 0 0 1 214.7 150.2L219.2 162.8A92.5 92.5 0 0 0 204.9 169.2Z" fill="#000" stroke="white" stroke-linejoin="bevel" class="zr70-cls-26"></path>
<path d="M191.9 146A119.2 119.2 0 0 1 210.3 137.6L214.7 150.2A105.8 105.8 0 0 0 198.4 157.6Z" fill="#000" stroke="white" stroke-linejoin="bevel" class="zr70-cls-27"></path>
<path d="M185.4 134.3A132.5 132.5 0 0 1 205.9 125.1L210.3 137.6A119.2 119.2 0 0 0 191.9 146Z" fill="#4949CD" fill-opacity="0.5" stroke="#fff" stroke-width="4" stroke-opacity="0.5" stroke-linejoin="bevel" class="zr70-cls-28"></path>
<path d="M178.9 122.7A145.8 145.8 0 0 1 201.4 112.5L205.9 125.1A132.5 132.5 0 0 0 185.4 134.3Z" fill="#000" stroke="white" stroke-linejoin="bevel" class="zr70-cls-29"></path>
<path d="M172.4 111A159.2 159.2 0 0 1 197 99.9L201.4 112.5A145.8 145.8 0 0 0 178.9 122.7Z" fill="#A0522D" stroke="white" stroke-linejoin="bevel" class="zr70-cls-30"></path>
<path d="M165.9 99.4A172.5 172.5 0 0 1 192.5 87.4L197 99.9A159.2 159.2 0 0 0 172.4 111Z" fill="#A0522D" stroke="white" stroke-linejoin="bevel" class="zr70-cls-31"></path>
<path d="M159.4 87.8A185.8 185.8 0 0 1 188.1 74.8L192.5 87.4A172.5 172.5 0 0 0 165.9 99.4Z" fill="#A0522D" stroke="white" stroke-linejoin="bevel" class="zr70-cls-32"></path>
<path d="M152.9 76.1A199.2 199.2 0 0 1 183.6 62.2L188.1 74.8A185.8 185.8 0 0 0 159.4 87.8Z" fill="#49ff49" fill-opacity="0.5" stroke="#fff" stroke-width="4" stroke-opacity="0.5" stroke-linejoin="bevel" class="zr70-cls-33"></path>
<path d="M146.4 64.5A212.5 212.5 0 0 1 157 58.9L162.9 70.9A199.2 199.2 0 0 0 152.9 76.1Z" fill="#A0522D" stroke="white" stroke-linejoin="bevel" class="zr70-cls-34"></path>
<path d="M157 58.9A212.5 212.5 0 0 1 168 54L173.1 66.3A199.2 199.2 0 0 0 162.9 70.9Z" fill="#A0522D" stroke="white" stroke-linejoin="bevel" class="zr70-cls-35"></path>
<path d="M168 54A212.5 212.5 0 0 1 179.2 49.6L183.6 62.2A199.2 199.2 0 0 0 173.1 66.3Z" fill="#A0522D" stroke="white" stroke-linejoin="bevel" class="zr70-cls-36"></path>
<path d="M214.7 150.2A105.8 105.8 0 0 1 220.4 148.4L224.2 161.2A92.5 92.5 0 0 0 219.2 162.8Z" fill="#C8C8C8" stroke="white" stroke-linejoin="bevel" class="zr70-cls-37"></path>
<path d="M220.4 148.4A105.8 105.8 0 0 1 226.2 146.9L229.2 159.9A92.5 92.5 0 0 0 224.2 161.2Z" fill="#000" stroke="white" stroke-linejoin="bevel" class="zr70-cls-38"></path>
<path d="M216.7 135.6A119.2 119.2 0 0 1 223.2 133.9L226.2 146.9A105.8 105.8 0 0 0 220.4 148.4Z" fill="#ff4949" fill-opacity="0.5" stroke="#fff" stroke-width="4" stroke-opacity="0.5" stroke-linejoin="bevel" class="zr70-cls-39"></path>
<path d="M213 122.8A132.5 132.5 0 0 1 220.3 120.9L223.2 133.9A119.2 119.2 0 0 0 216.7 135.6Z" fill="#000" stroke="white" stroke-linejoin="bevel" class="zr70-cls-40"></path>
<path d="M209.3 110A145.8 145.8 0 0 1 217.3 107.9L220.3 120.9A132.5 132.5 0 0 0 213 122.8Z" fill="#000" stroke="white" stroke-linejoin="bevel" class="zr70-cls-41"></path>
<path d="M238.2 198.8A52.5 52.5 0 0 1 241.1 198.3L243.4 211.4A39.2 39.2 0 0 0 241.2 211.8Z" fill="#000" stroke="white" stroke-linejoin="bevel" class="zr70-cls-42"></path>
<path d="M235.2 185.8A65.8 65.8 0 0 1 238.9 185.1L241.1 198.3A52.5 52.5 0 0 0 238.2 198.8Z" fill="#000" stroke="white" stroke-linejoin="bevel" class="zr70-cls-43"></path>
<path d="M232.2 172.9A79.2 79.2 0 0 1 236.6 172L238.9 185.1A65.8 65.8 0 0 0 235.2 185.8Z" fill="#4949CD" fill-opacity="0.5" stroke="#fff" stroke-width="4" stroke-opacity="0.5" stroke-linejoin="bevel" class="zr70-cls-44"></path>
<path d="M229.2 159.9A92.5 92.5 0 0 1 234.4 158.8L236.6 172A79.2 79.2 0 0 0 232.2 172.9Z" fill="#0AA40D" stroke="white" stroke-linejoin="bevel" class="zr70-cls-45"></path>
<path d="M226.2 146.9A105.8 105.8 0 0 1 232.1 145.7L234.4 158.8A92.5 92.5 0 0 0 229.2 159.9Z" fill="#000" stroke="white" stroke-linejoin="bevel" class="zr70-cls-46"></path>
<path d="M223.2 133.9A119.2 119.2 0 0 1 229.9 132.5L232.1 145.7A105.8 105.8 0 0 0 226.2 146.9Z" fill="#4949CD" fill-opacity="0.5" stroke="#fff" stroke-width="4" stroke-opacity="0.5" stroke-linejoin="bevel" class="zr70-cls-47"></path>
<path d="M220.3 120.9A132.5 132.5 0 0 1 227.6 119.4L229.9 132.5A119.2 119.2 0 0 0 223.2 133.9Z" fill="#000" stroke="white" stroke-linejoin="bevel" class="zr70-cls-48"></path>
<path d="M217.3 107.9A145.8 145.8 0 0 1 225.4 106.3L227.6 119.4A132.5 132.5 0 0 0 220.3 120.9Z" fill="#000" stroke="white" stroke-linejoin="bevel" class="zr70-cls-49"></path>
<path d="M214.3 94.9A159.2 159.2 0 0 1 223.1 93.1L225.4 106.3A145.8 145.8 0 0 0 217.3 107.9Z" fill="#4949CD" fill-opacity="0.5" stroke="#fff" stroke-width="4" stroke-opacity="0.5" stroke-linejoin="bevel" class="zr70-cls-50"></path>
<path d="M211.3 81.9A172.5 172.5 0 0 1 220.8 80L223.1 93.1A159.2 159.2 0 0 0 214.3 94.9Z" fill="#000" stroke="white" stroke-linejoin="bevel" class="zr70-cls-51"></path>
<path d="M208.3 68.9A185.8 185.8 0 0 1 218.6 66.8L220.8 80A172.5 172.5 0 0 0 211.3 81.9Z" fill="#A0522D" stroke="white" stroke-linejoin="bevel" class="zr70-cls-52"></path>
<path d="M205.3 55.9A199.2 199.2 0 0 1 216.3 53.7L218.6 66.8A185.8 185.8 0 0 0 208.3 68.9Z" fill="#A0522D" stroke="white" stroke-linejoin="bevel" class="zr70-cls-53"></path>
<path d="M243.4 211.4A39.2 39.2 0 0 1 247.8 210.9L248.5 224.2A25.8 25.8 0 0 0 245.6 224.5Z" fill="#49ff49" fill-opacity="0.5" stroke="#fff" stroke-width="4" stroke-opacity="0.5" stroke-linejoin="bevel" class="zr70-cls-54"></path>
<path d="M241.1 198.3A52.5 52.5 0 0 1 244.1 197.8L245.6 211.1A39.2 39.2 0 0 0 243.4 211.4Z" fill="#000" stroke="white" stroke-linejoin="bevel" class="zr70-cls-55"></path>
<path d="M238.9 185.1A65.8 65.8 0 0 1 242.6 184.6L244.1 197.8A52.5 52.5 0 0 0 241.1 198.3Z" fill="#F3C142" stroke="white" stroke-linejoin="bevel" class="zr70-cls-56"></path>
<path d="M244.1 197.8A52.5 52.5 0 0 1 247 197.6L247.8 210.9A39.2 39.2 0 0 0 245.6 211.1Z" fill="#000" stroke="white" stroke-linejoin="bevel" class="zr70-cls-57"></path>
<path d="M242.6 184.6A65.8 65.8 0 0 1 246.3 184.3L247 197.6A52.5 52.5 0 0 0 244.1 197.8Z" fill="#0AA40D" stroke="white" stroke-linejoin="bevel" class="zr70-cls-58"></path>
<path d="M247.8 210.9A39.2 39.2 0 0 1 250 210.8L250 224.2A25.8 25.8 0 0 0 248.5 224.2Z" fill="rgb(255,255,255)" fill-opacity="0.5" stroke="#fff" stroke-width="4" stroke-opacity="0.5" stroke-linejoin="bevel" class="zr70-cls-59"></path>
<path d="M247 197.6A52.5 52.5 0 0 1 250 197.5L250 210.8A39.2 39.2 0 0 0 247.8 210.9Z" fill="#000" stroke="white" stroke-linejoin="bevel" class="zr70-cls-60"></path>
<path d="M246.3 184.3A65.8 65.8 0 0 1 250 184.2L250 197.5A52.5 52.5 0 0 0 247 197.6Z" fill="#F3C142" stroke="white" stroke-linejoin="bevel" class="zr70-cls-61"></path>
<text dominant-baseline="central" text-anchor="middle" style="font-size:12px;font-family:sans-serif;" transform="matrix(0.923,-0.386,0.386,0.923,257.3974,267.6816)" fill="#333">info</text>
<text dominant-baseline="central" text-anchor="middle" style="font-size:10px;font-family:sans-serif;" transform="matrix(0.899,-0.438,0.438,0.899,264.2195,279.2242)" fill="#333">version</text>
<text dominant-baseline="central" text-anchor="middle" style="font-size:12px;font-family:sans-serif;" transform="matrix(0.923,-0.386,0.386,0.923,242.6026,232.3184)" fill="#ccc" stroke="#000" stroke-width="2" paint-order="stroke" stroke-miterlimit="2">paths</text>
<text dominant-baseline="central" text-anchor="middle" style="font-size:9px;font-family:sans-serif;" transform="matrix(0.796,-0.606,0.606,0.796,214.1479,202.9328)" fill="#ccc" stroke="#000" stroke-width="2" paint-order="stroke" stroke-miterlimit="2">operations</text>
<text dominant-baseline="central" text-anchor="middle" style="font-size:12px;font-family:sans-serif;" transform="matrix(0.933,-0.36,0.36,0.933,219.1267,169.9113)" fill="#333">POST</text>
<path d="M-14.8 -16l66.6 0l0 32l-66.6 0Z" transform="translate(448.253 16)" fill="none" stroke="#ccc" stroke-width="0"></path>
<path d="M-7.3 -1.8L-0.1 4.8L7.3 -1.6M-7.3 4.3L-7.3 8.5L7.1 8.5L7.1 4.3M-0.1 4.7L-0.1 -8.5" transform="translate(448.253 16)" fill="none" stroke="#666"></path>
<path d="M-7.9 1M5.1 -3.4L8.1 -3.4L8.1 -6.4M8 -3C6.7 -6.4 3.2 -8.9 -1 -8.4C-5.3 -8 -8.6 -4.2 -8.4 0.2M-5.1 3.4L-8.1 3.4L-8.1 6.4M-8 3C-6.7 6.4 -3.2 8.9 1 8.4C5.3 8 8.6 4.2 8.4 -0.2" transform="translate(484.0476 16)" fill="none" stroke="#666"></path>
<style ><![CDATA[
.zr70-cls-0 {
animation:zr70-ani-0 1s cubic-bezier(0.65,0,0.35,1) both;
}
.zr70-cls-1 {
animation:zr70-ani-1 1s cubic-bezier(0.65,0,0.35,1) both;
}
.zr70-cls-2 {
animation:zr70-ani-2 1s cubic-bezier(0.65,0,0.35,1) both;
}
.zr70-cls-3 {
animation:zr70-ani-3 1s cubic-bezier(0.65,0,0.35,1) both;
}
.zr70-cls-4 {
animation:zr70-ani-4 1s cubic-bezier(0.65,0,0.35,1) both;
}
.zr70-cls-5 {
animation:zr70-ani-5 1s cubic-bezier(0.65,0,0.35,1) both;
}
.zr70-cls-6 {
animation:zr70-ani-6 1s cubic-bezier(0.65,0,0.35,1) both;
}
.zr70-cls-7 {
animation:zr70-ani-7 1s cubic-bezier(0.65,0,0.35,1) both;
}
.zr70-cls-8 {
animation:zr70-ani-8 1s cubic-bezier(0.65,0,0.35,1) both;
}
.zr70-cls-9 {
animation:zr70-ani-9 1s cubic-bezier(0.65,0,0.35,1) both;
}
.zr70-cls-10 {
animation:zr70-ani-10 1s cubic-bezier(0.65,0,0.35,1) both;
}
.zr70-cls-11 {
animation:zr70-ani-11 1s cubic-bezier(0.65,0,0.35,1) both;
}
.zr70-cls-12 {
animation:zr70-ani-12 1s cubic-bezier(0.65,0,0.35,1) both;
}
.zr70-cls-13 {
animation:zr70-ani-13 1s cubic-bezier(0.65,0,0.35,1) both;
}
.zr70-cls-14 {
animation:zr70-ani-14 1s cubic-bezier(0.65,0,0.35,1) both;
}
.zr70-cls-15 {
animation:zr70-ani-15 1s cubic-bezier(0.65,0,0.35,1) both;
}
.zr70-cls-16 {
animation:zr70-ani-16 1s cubic-bezier(0.65,0,0.35,1) both;
}
.zr70-cls-17 {
animation:zr70-ani-17 1s cubic-bezier(0.65,0,0.35,1) both;
}
.zr70-cls-18 {
animation:zr70-ani-18 1s cubic-bezier(0.65,0,0.35,1) both;
}
.zr70-cls-19 {
animation:zr70-ani-19 1s cubic-bezier(0.65,0,0.35,1) both;
}
.zr70-cls-20 {
animation:zr70-ani-20 1s cubic-bezier(0.65,0,0.35,1) both;
}
.zr70-cls-21 {
animation:zr70-ani-21 1s cubic-bezier(0.65,0,0.35,1) both;
}
.zr70-cls-22 {
animation:zr70-ani-22 1s cubic-bezier(0.65,0,0.35,1) both;
}
.zr70-cls-23 {
animation:zr70-ani-23 1s cubic-bezier(0.65,0,0.35,1) both;
}
.zr70-cls-24 {
animation:zr70-ani-24 1s cubic-bezier(0.65,0,0.35,1) both;
}
.zr70-cls-25 {
animation:zr70-ani-25 1s cubic-bezier(0.65,0,0.35,1) both;
}
.zr70-cls-26 {
animation:zr70-ani-26 1s cubic-bezier(0.65,0,0.35,1) both;
}
.zr70-cls-27 {
animation:zr70-ani-27 1s cubic-bezier(0.65,0,0.35,1) both;
}
.zr70-cls-28 {
animation:zr70-ani-28 1s cubic-bezier(0.65,0,0.35,1) both;
}
.zr70-cls-29 {
animation:zr70-ani-29 1s cubic-bezier(0.65,0,0.35,1) both;
}
.zr70-cls-30 {
animation:zr70-ani-30 1s cubic-bezier(0.65,0,0.35,1) both;
}
.zr70-cls-31 {
animation:zr70-ani-31 1s cubic-bezier(0.65,0,0.35,1) both;
}
.zr70-cls-32 {
animation:zr70-ani-32 1s cubic-bezier(0.65,0,0.35,1) both;
}
.zr70-cls-33 {
animation:zr70-ani-33 1s cubic-bezier(0.65,0,0.35,1) both;
}
.zr70-cls-34 {
animation:zr70-ani-34 1s cubic-bezier(0.65,0,0.35,1) both;
}
.zr70-cls-35 {
animation:zr70-ani-35 1s cubic-bezier(0.65,0,0.35,1) both;
}
.zr70-cls-36 {
animation:zr70-ani-36 1s cubic-bezier(0.65,0,0.35,1) both;
}
.zr70-cls-37 {
animation:zr70-ani-37 1s cubic-bezier(0.65,0,0.35,1) both;
}
.zr70-cls-38 {
animation:zr70-ani-38 1s cubic-bezier(0.65,0,0.35,1) both;
}
.zr70-cls-39 {
animation:zr70-ani-39 1s cubic-bezier(0.65,0,0.35,1) both;
}
.zr70-cls-40 {
animation:zr70-ani-40 1s cubic-bezier(0.65,0,0.35,1) both;
}
.zr70-cls-41 {
animation:zr70-ani-41 1s cubic-bezier(0.65,0,0.35,1) both;
}
.zr70-cls-42 {
animation:zr70-ani-42 1s cubic-bezier(0.65,0,0.35,1) both;
}
.zr70-cls-43 {
animation:zr70-ani-43 1s cubic-bezier(0.65,0,0.35,1) both;
}
.zr70-cls-44 {
animation:zr70-ani-44 1s cubic-bezier(0.65,0,0.35,1) both;
}
.zr70-cls-45 {
animation:zr70-ani-45 1s cubic-bezier(0.65,0,0.35,1) both;
}
.zr70-cls-46 {
animation:zr70-ani-46 1s cubic-bezier(0.65,0,0.35,1) both;
}
.zr70-cls-47 {
animation:zr70-ani-47 1s cubic-bezier(0.65,0,0.35,1) both;
}
.zr70-cls-48 {
animation:zr70-ani-48 1s cubic-bezier(0.65,0,0.35,1) both;
}
.zr70-cls-49 {
animation:zr70-ani-49 1s cubic-bezier(0.65,0,0.35,1) both;
}
.zr70-cls-50 {
animation:zr70-ani-50 1s cubic-bezier(0.65,0,0.35,1) both;
}
.zr70-cls-51 {
animation:zr70-ani-51 1s cubic-bezier(0.65,0,0.35,1) both;
}
.zr70-cls-52 {
animation:zr70-ani-52 1s cubic-bezier(0.65,0,0.35,1) both;
}
.zr70-cls-53 {
animation:zr70-ani-53 1s cubic-bezier(0.65,0,0.35,1) both;
}
.zr70-cls-54 {
animation:zr70-ani-54 1s cubic-bezier(0.65,0,0.35,1) both;
}
.zr70-cls-55 {
animation:zr70-ani-55 1s cubic-bezier(0.65,0,0.35,1) both;
}
.zr70-cls-56 {
animation:zr70-ani-56 1s cubic-bezier(0.65,0,0.35,1) both;
}
.zr70-cls-57 {
animation:zr70-ani-57 1s cubic-bezier(0.65,0,0.35,1) both;
}
.zr70-cls-58 {
animation:zr70-ani-58 1s cubic-bezier(0.65,0,0.35,1) both;
}
.zr70-cls-59 {
animation:zr70-ani-59 1s cubic-bezier(0.65,0,0.35,1) both;
}
.zr70-cls-60 {
animation:zr70-ani-60 1s cubic-bezier(0.65,0,0.35,1) both;
}
.zr70-cls-61 {
animation:zr70-ani-61 1s cubic-bezier(0.65,0,0.35,1) both;
}
@keyframes zr70-ani-0 {
0% {
d:path("M250 237.5A12.5 12.5 0 1 1 241.1 241.2A12.5 12.5 0 1 0 250 237.5Z");
}
100% {
d:path("M250 224.2A25.8 25.8 0 1 1 231.6 231.9L241.1 241.2A12.5 12.5 0 1 0 250 237.5Z");
}
}
@keyframes zr70-ani-1 {
0% {
d:path("M250 224.2A25.8 25.8 0 1 1 229.7 234.1L229.7 234.1A25.8 25.8 0 1 0 250 224.2Z");
}
100% {
d:path("M250 210.8A39.2 39.2 0 1 1 219.2 225.8L229.7 234.1A25.8 25.8 0 1 0 250 224.2Z");
}
}
@keyframes zr70-ani-2 {
0% {
d:path("M229.7 234.1A25.8 25.8 0 0 1 231.6 231.9L231.6 231.9A25.8 25.8 0 0 0 229.7 234.1Z");
}
100% {
d:path("M219.2 225.8A39.2 39.2 0 0 1 222.1 222.5L231.6 231.9A25.8 25.8 0 0 0 229.7 234.1Z");
}
}
@keyframes zr70-ani-3 {
0% {
d:path("M241.1 241.2A12.5 12.5 0 0 1 250 237.5L250 237.5A12.5 12.5 0 0 0 241.1 241.2Z");
}
100% {
d:path("M231.6 231.9A25.8 25.8 0 0 1 250 224.2L250 237.5A12.5 12.5 0 0 0 241.1 241.2Z");
}
}
@keyframes zr70-ani-4 {
0% {
d:path("M231.6 231.9A25.8 25.8 0 0 1 245.6 224.5L245.6 224.5A25.8 25.8 0 0 0 231.6 231.9Z");
}
100% {
d:path("M222.1 222.5A39.2 39.2 0 0 1 243.4 211.4L245.6 224.5A25.8 25.8 0 0 0 231.6 231.9Z");
}
}
@keyframes zr70-ani-5 {
0% {
d:path("M222.1 222.5A39.2 39.2 0 0 1 230.9 215.8L230.9 215.8A39.2 39.2 0 0 0 222.1 222.5Z");
}
100% {
d:path("M212.6 213.1A52.5 52.5 0 0 1 224.4 204.2L230.9 215.8A39.2 39.2 0 0 0 222.1 222.5Z");
}
}
@keyframes zr70-ani-6 {
0% {
d:path("M212.6 213.1A52.5 52.5 0 0 1 224.4 204.2L224.4 204.2A52.5 52.5 0 0 0 212.6 213.1Z");
}
100% {
d:path("M203.1 203.8A65.8 65.8 0 0 1 217.9 192.5L224.4 204.2A52.5 52.5 0 0 0 212.6 213.1Z");
}
}
@keyframes zr70-ani-7 {
0% {
d:path("M203.1 203.8A65.8 65.8 0 0 1 211.6 196.5L211.6 196.5A65.8 65.8 0 0 0 203.1 203.8Z");
}
100% {
d:path("M193.6 194.4A79.2 79.2 0 0 1 203.8 185.7L211.6 196.5A65.8 65.8 0 0 0 203.1 203.8Z");
}
}
@keyframes zr70-ani-8 {
0% {
d:path("M193.6 194.4A79.2 79.2 0 0 1 200.3 188.4L200.3 188.4A79.2 79.2 0 0 0 193.6 194.4Z");
}
100% {
d:path("M184.1 185.1A92.5 92.5 0 0 1 191.9 178L200.3 188.4A79.2 79.2 0 0 0 193.6 194.4Z");
}
}
@keyframes zr70-ani-9 {
0% {
d:path("M184.1 185.1A92.5 92.5 0 0 1 191.9 178L191.9 178A92.5 92.5 0 0 0 184.1 185.1Z");
}
100% {
d:path("M174.6 175.7A105.8 105.8 0 0 1 183.5 167.7L191.9 178A92.5 92.5 0 0 0 184.1 185.1Z");
}
}
@keyframes zr70-ani-10 {
0% {
d:path("M174.6 175.7A105.8 105.8 0 0 1 183.5 167.7L183.5 167.7A105.8 105.8 0 0 0 174.6 175.7Z");
}
100% {
d:path("M165.1 166.3A119.2 119.2 0 0 1 175.1 157.3L183.5 167.7A105.8 105.8 0 0 0 174.6 175.7Z");
}
}
@keyframes zr70-ani-11 {
0% {
d:path("M165.1 166.3A119.2 119.2 0 0 1 175.1 157.3L175.1 157.3A119.2 119.2 0 0 0 165.1 166.3Z");
}
100% {
d:path("M155.6 157A132.5 132.5 0 0 1 166.8 146.9L175.1 157.3A119.2 119.2 0 0 0 165.1 166.3Z");
}
}
@keyframes zr70-ani-12 {
0% {
d:path("M155.6 157A132.5 132.5 0 0 1 161.1 151.8L161.1 151.8A132.5 132.5 0 0 0 155.6 157Z");
}
100% {
d:path("M146.2 147.6A145.8 145.8 0 0 1 152.1 141.9L161.1 151.8A132.5 132.5 0 0 0 155.6 157Z");
}
}
@keyframes zr70-ani-13 {
0% {
d:path("M161.1 151.8A132.5 132.5 0 0 1 166.8 146.9L166.8 146.9A132.5 132.5 0 0 0 161.1 151.8Z");
}
100% {
d:path("M152.1 141.9A145.8 145.8 0 0 1 158.4 136.5L166.8 146.9A132.5 132.5 0 0 0 161.1 151.8Z");
}
}
@keyframes zr70-ani-14 {
0% {
d:path("M152.1 141.9A145.8 145.8 0 0 1 158.4 136.5L158.4 136.5A145.8 145.8 0 0 0 152.1 141.9Z");
}
100% {
d:path("M143.2 132A159.2 159.2 0 0 1 150 126.2L158.4 136.5A145.8 145.8 0 0 0 152.1 141.9Z");
}
}
@keyframes zr70-ani-15 {
0% {
d:path("M143.2 132A159.2 159.2 0 0 1 150 126.2L150 126.2A159.2 159.2 0 0 0 143.2 132Z");
}
100% {
d:path("M134.2 122.1A172.5 172.5 0 0 1 141.6 115.8L150 126.2A159.2 159.2 0 0 0 143.2 132Z");
}
}
@keyframes zr70-ani-16 {
0% {
d:path("M200.3 188.4A79.2 79.2 0 0 1 203.8 185.7L203.8 185.7A79.2 79.2 0 0 0 200.3 188.4Z");
}
100% {
d:path("M191.9 178A92.5 92.5 0 0 1 196.1 174.9L203.8 185.7A79.2 79.2 0 0 0 200.3 188.4Z");
}
}
@keyframes zr70-ani-17 {
0% {
d:path("M191.9 178A92.5 92.5 0 0 1 196.1 174.9L196.1 174.9A92.5 92.5 0 0 0 191.9 178Z");
}
100% {
d:path("M183.5 167.7A105.8 105.8 0 0 1 188.3 164L196.1 174.9A92.5 92.5 0 0 0 191.9 178Z");
}
}
@keyframes zr70-ani-18 {
0% {
d:path("M211.6 196.5A65.8 65.8 0 0 1 214.7 194.4L214.7 194.4A65.8 65.8 0 0 0 211.6 196.5Z");
}
100% {
d:path("M203.8 185.7A79.2 79.2 0 0 1 207.5 183.2L214.7 194.4A65.8 65.8 0 0 0 211.6 196.5Z");
}
}
@keyframes zr70-ani-19 {
0% {
d:path("M203.8 185.7A79.2 79.2 0 0 1 207.5 183.2L207.5 183.2A79.2 79.2 0 0 0 203.8 185.7Z");
}
100% {
d:path("M196.1 174.9A92.5 92.5 0 0 1 200.4 171.9L207.5 183.2A79.2 79.2 0 0 0 203.8 185.7Z");
}
}
@keyframes zr70-ani-20 {
0% {
d:path("M214.7 194.4A65.8 65.8 0 0 1 217.9 192.5L217.9 192.5A65.8 65.8 0 0 0 214.7 194.4Z");
}
100% {
d:path("M207.5 183.2A79.2 79.2 0 0 1 211.4 180.9L217.9 192.5A65.8 65.8 0 0 0 214.7 194.4Z");
}
}
@keyframes zr70-ani-21 {
0% {
d:path("M207.5 183.2A79.2 79.2 0 0 1 211.4 180.9L211.4 180.9A79.2 79.2 0 0 0 207.5 183.2Z");
}
100% {
d:path("M200.4 171.9A92.5 92.5 0 0 1 204.9 169.2L211.4 180.9A79.2 79.2 0 0 0 207.5 183.2Z");
}
}
@keyframes zr70-ani-22 {
0% {
d:path("M230.9 215.8A39.2 39.2 0 0 1 241.2 211.8L241.2 211.8A39.2 39.2 0 0 0 230.9 215.8Z");
}
100% {
d:path("M224.4 204.2A52.5 52.5 0 0 1 238.2 198.8L241.2 211.8A39.2 39.2 0 0 0 230.9 215.8Z");
}
}
@keyframes zr70-ani-23 {
0% {
d:path("M224.4 204.2A52.5 52.5 0 0 1 238.2 198.8L238.2 198.8A52.5 52.5 0 0 0 224.4 204.2Z");
}
100% {
d:path("M217.9 192.5A65.8 65.8 0 0 1 235.2 185.8L238.2 198.8A52.5 52.5 0 0 0 224.4 204.2Z");
}
}
@keyframes zr70-ani-24 {
0% {
d:path("M217.9 192.5A65.8 65.8 0 0 1 235.2 185.8L235.2 185.8A65.8 65.8 0 0 0 217.9 192.5Z");
}
100% {
d:path("M211.4 180.9A79.2 79.2 0 0 1 232.2 172.9L235.2 185.8A65.8 65.8 0 0 0 217.9 192.5Z");
}
}
@keyframes zr70-ani-25 {
0% {
d:path("M211.4 180.9A79.2 79.2 0 0 1 232.2 172.9L232.2 172.9A79.2 79.2 0 0 0 211.4 180.9Z");
}
100% {
d:path("M204.9 169.2A92.5 92.5 0 0 1 229.2 159.9L232.2 172.9A79.2 79.2 0 0 0 211.4 180.9Z");
}
}
@keyframes zr70-ani-26 {
0% {
d:path("M204.9 169.2A92.5 92.5 0 0 1 219.2 162.8L219.2 162.8A92.5 92.5 0 0 0 204.9 169.2Z");
}
100% {
d:path("M198.4 157.6A105.8 105.8 0 0 1 214.7 150.2L219.2 162.8A92.5 92.5 0 0 0 204.9 169.2Z");
}
}
@keyframes zr70-ani-27 {
0% {
d:path("M198.4 157.6A105.8 105.8 0 0 1 214.7 150.2L214.7 150.2A105.8 105.8 0 0 0 198.4 157.6Z");
}
100% {
d:path("M191.9 146A119.2 119.2 0 0 1 210.3 137.6L214.7 150.2A105.8 105.8 0 0 0 198.4 157.6Z");
}
}
@keyframes zr70-ani-28 {
0% {
d:path("M191.9 146A119.2 119.2 0 0 1 210.3 137.6L210.3 137.6A119.2 119.2 0 0 0 191.9 146Z");
}
100% {
d:path("M185.4 134.3A132.5 132.5 0 0 1 205.9 125.1L210.3 137.6A119.2 119.2 0 0 0 191.9 146Z");
}
}
@keyframes zr70-ani-29 {
0% {
d:path("M185.4 134.3A132.5 132.5 0 0 1 205.9 125.1L205.9 125.1A132.5 132.5 0 0 0 185.4 134.3Z");
}
100% {
d:path("M178.9 122.7A145.8 145.8 0 0 1 201.4 112.5L205.9 125.1A132.5 132.5 0 0 0 185.4 134.3Z");
}
}
@keyframes zr70-ani-30 {
0% {
d:path("M178.9 122.7A145.8 145.8 0 0 1 201.4 112.5L201.4 112.5A145.8 145.8 0 0 0 178.9 122.7Z");
}
100% {
d:path("M172.4 111A159.2 159.2 0 0 1 197 99.9L201.4 112.5A145.8 145.8 0 0 0 178.9 122.7Z");
}
}
@keyframes zr70-ani-31 {
0% {
d:path("M172.4 111A159.2 159.2 0 0 1 197 99.9L197 99.9A159.2 159.2 0 0 0 172.4 111Z");
}
100% {
d:path("M165.9 99.4A172.5 172.5 0 0 1 192.5 87.4L197 99.9A159.2 159.2 0 0 0 172.4 111Z");
}
}
@keyframes zr70-ani-32 {
0% {
d:path("M165.9 99.4A172.5 172.5 0 0 1 192.5 87.4L192.5 87.4A172.5 172.5 0 0 0 165.9 99.4Z");
}
100% {
d:path("M159.4 87.8A185.8 185.8 0 0 1 188.1 74.8L192.5 87.4A172.5 172.5 0 0 0 165.9 99.4Z");
}
}
@keyframes zr70-ani-33 {
0% {
d:path("M159.4 87.8A185.8 185.8 0 0 1 188.1 74.8L188.1 74.8A185.8 185.8 0 0 0 159.4 87.8Z");
}
100% {
d:path("M152.9 76.1A199.2 199.2 0 0 1 183.6 62.2L188.1 74.8A185.8 185.8 0 0 0 159.4 87.8Z");
}
}
@keyframes zr70-ani-34 {
0% {
d:path("M152.9 76.1A199.2 199.2 0 0 1 162.9 70.9L162.9 70.9A199.2 199.2 0 0 0 152.9 76.1Z");
}
100% {
d:path("M146.4 64.5A212.5 212.5 0 0 1 157 58.9L162.9 70.9A199.2 199.2 0 0 0 152.9 76.1Z");
}
}
@keyframes zr70-ani-35 {
0% {
d:path("M162.9 70.9A199.2 199.2 0 0 1 173.1 66.3L173.1 66.3A199.2 199.2 0 0 0 162.9 70.9Z");
}
100% {
d:path("M157 58.9A212.5 212.5 0 0 1 168 54L173.1 66.3A199.2 199.2 0 0 0 162.9 70.9Z");
}
}
@keyframes zr70-ani-36 {
0% {
d:path("M173.1 66.3A199.2 199.2 0 0 1 183.6 62.2L183.6 62.2A199.2 199.2 0 0 0 173.1 66.3Z");
}
100% {
d:path("M168 54A212.5 212.5 0 0 1 179.2 49.6L183.6 62.2A199.2 199.2 0 0 0 173.1 66.3Z");
}
}
@keyframes zr70-ani-37 {
0% {
d:path("M219.2 162.8A92.5 92.5 0 0 1 224.2 161.2L224.2 161.2A92.5 92.5 0 0 0 219.2 162.8Z");
}
100% {
d:path("M214.7 150.2A105.8 105.8 0 0 1 220.4 148.4L224.2 161.2A92.5 92.5 0 0 0 219.2 162.8Z");
}
}
@keyframes zr70-ani-38 {
0% {
d:path("M224.2 161.2A92.5 92.5 0 0 1 229.2 159.9L229.2 159.9A92.5 92.5 0 0 0 224.2 161.2Z");
}
100% {
d:path("M220.4 148.4A105.8 105.8 0 0 1 226.2 146.9L229.2 159.9A92.5 92.5 0 0 0 224.2 161.2Z");
}
}
@keyframes zr70-ani-39 {
0% {
d:path("M220.4 148.4A105.8 105.8 0 0 1 226.2 146.9L226.2 146.9A105.8 105.8 0 0 0 220.4 148.4Z");
}
100% {
d:path("M216.7 135.6A119.2 119.2 0 0 1 223.2 133.9L226.2 146.9A105.8 105.8 0 0 0 220.4 148.4Z");
}
}
@keyframes zr70-ani-40 {
0% {
d:path("M216.7 135.6A119.2 119.2 0 0 1 223.2 133.9L223.2 133.9A119.2 119.2 0 0 0 216.7 135.6Z");
}
100% {
d:path("M213 122.8A132.5 132.5 0 0 1 220.3 120.9L223.2 133.9A119.2 119.2 0 0 0 216.7 135.6Z");
}
}
@keyframes zr70-ani-41 {
0% {
d:path("M213 122.8A132.5 132.5 0 0 1 220.3 120.9L220.3 120.9A132.5 132.5 0 0 0 213 122.8Z");
}
100% {
d:path("M209.3 110A145.8 145.8 0 0 1 217.3 107.9L220.3 120.9A132.5 132.5 0 0 0 213 122.8Z");
}
}
@keyframes zr70-ani-42 {
0% {
d:path("M241.2 211.8A39.2 39.2 0 0 1 243.4 211.4L243.4 211.4A39.2 39.2 0 0 0 241.2 211.8Z");
}
100% {
d:path("M238.2 198.8A52.5 52.5 0 0 1 241.1 198.3L243.4 211.4A39.2 39.2 0 0 0 241.2 211.8Z");
}
}
@keyframes zr70-ani-43 {
0% {
d:path("M238.2 198.8A52.5 52.5 0 0 1 241.1 198.3L241.1 198.3A52.5 52.5 0 0 0 238.2 198.8Z");
}
100% {
d:path("M235.2 185.8A65.8 65.8 0 0 1 238.9 185.1L241.1 198.3A52.5 52.5 0 0 0 238.2 198.8Z");
}
}
@keyframes zr70-ani-44 {
0% {
d:path("M235.2 185.8A65.8 65.8 0 0 1 238.9 185.1L238.9 185.1A65.8 65.8 0 0 0 235.2 185.8Z");
}
100% {
d:path("M232.2 172.9A79.2 79.2 0 0 1 236.6 172L238.9 185.1A65.8 65.8 0 0 0 235.2 185.8Z");
}
}
@keyframes zr70-ani-45 {
0% {
d:path("M232.2 172.9A79.2 79.2 0 0 1 236.6 172L236.6 172A79.2 79.2 0 0 0 232.2 172.9Z");
}
100% {
d:path("M229.2 159.9A92.5 92.5 0 0 1 234.4 158.8L236.6 172A79.2 79.2 0 0 0 232.2 172.9Z");
}
}
@keyframes zr70-ani-46 {
0% {
d:path("M229.2 159.9A92.5 92.5 0 0 1 234.4 158.8L234.4 158.8A92.5 92.5 0 0 0 229.2 159.9Z");
}
100% {
d:path("M226.2 146.9A105.8 105.8 0 0 1 232.1 145.7L234.4 158.8A92.5 92.5 0 0 0 229.2 159.9Z");
}
}
@keyframes zr70-ani-47 {
0% {
d:path("M226.2 146.9A105.8 105.8 0 0 1 232.1 145.7L232.1 145.7A105.8 105.8 0 0 0 226.2 146.9Z");
}
100% {
d:path("M223.2 133.9A119.2 119.2 0 0 1 229.9 132.5L232.1 145.7A105.8 105.8 0 0 0 226.2 146.9Z");
}
}
@keyframes zr70-ani-48 {
0% {
d:path("M223.2 133.9A119.2 119.2 0 0 1 229.9 132.5L229.9 132.5A119.2 119.2 0 0 0 223.2 133.9Z");
}
100% {
d:path("M220.3 120.9A132.5 132.5 0 0 1 227.6 119.4L229.9 132.5A119.2 119.2 0 0 0 223.2 133.9Z");
}
}
@keyframes zr70-ani-49 {
0% {
d:path("M220.3 120.9A132.5 132.5 0 0 1 227.6 119.4L227.6 119.4A132.5 132.5 0 0 0 220.3 120.9Z");
}
100% {
d:path("M217.3 107.9A145.8 145.8 0 0 1 225.4 106.3L227.6 119.4A132.5 132.5 0 0 0 220.3 120.9Z");
}
}
@keyframes zr70-ani-50 {
0% {
d:path("M217.3 107.9A145.8 145.8 0 0 1 225.4 106.3L225.4 106.3A145.8 145.8 0 0 0 217.3 107.9Z");
}
100% {
d:path("M214.3 94.9A159.2 159.2 0 0 1 223.1 93.1L225.4 106.3A145.8 145.8 0 0 0 217.3 107.9Z");
}
}
@keyframes zr70-ani-51 {
0% {
d:path("M214.3 94.9A159.2 159.2 0 0 1 223.1 93.1L223.1 93.1A159.2 159.2 0 0 0 214.3 94.9Z");
}
100% {
d:path("M211.3 81.9A172.5 172.5 0 0 1 220.8 80L223.1 93.1A159.2 159.2 0 0 0 214.3 94.9Z");
}
}
@keyframes zr70-ani-52 {
0% {
d:path("M211.3 81.9A172.5 172.5 0 0 1 220.8 80L220.8 80A172.5 172.5 0 0 0 211.3 81.9Z");
}
100% {
d:path("M208.3 68.9A185.8 185.8 0 0 1 218.6 66.8L220.8 80A172.5 172.5 0 0 0 211.3 81.9Z");
}
}
@keyframes zr70-ani-53 {
0% {
d:path("M208.3 68.9A185.8 185.8 0 0 1 218.6 66.8L218.6 66.8A185.8 185.8 0 0 0 208.3 68.9Z");
}
100% {
d:path("M205.3 55.9A199.2 199.2 0 0 1 216.3 53.7L218.6 66.8A185.8 185.8 0 0 0 208.3 68.9Z");
}
}
@keyframes zr70-ani-54 {
0% {
d:path("M245.6 224.5A25.8 25.8 0 0 1 248.5 224.2L248.5 224.2A25.8 25.8 0 0 0 245.6 224.5Z");
}
100% {
d:path("M243.4 211.4A39.2 39.2 0 0 1 247.8 210.9L248.5 224.2A25.8 25.8 0 0 0 245.6 224.5Z");
}
}
@keyframes zr70-ani-55 {
0% {
d:path("M243.4 211.4A39.2 39.2 0 0 1 245.6 211.1L245.6 211.1A39.2 39.2 0 0 0 243.4 211.4Z");
}
100% {
d:path("M241.1 198.3A52.5 52.5 0 0 1 244.1 197.8L245.6 211.1A39.2 39.2 0 0 0 243.4 211.4Z");
}
}
@keyframes zr70-ani-56 {
0% {
d:path("M241.1 198.3A52.5 52.5 0 0 1 244.1 197.8L244.1 197.8A52.5 52.5 0 0 0 241.1 198.3Z");
}
100% {
d:path("M238.9 185.1A65.8 65.8 0 0 1 242.6 184.6L244.1 197.8A52.5 52.5 0 0 0 241.1 198.3Z");
}
}
@keyframes zr70-ani-57 {
0% {
d:path("M245.6 211.1A39.2 39.2 0 0 1 247.8 210.9L247.8 210.9A39.2 39.2 0 0 0 245.6 211.1Z");
}
100% {
d:path("M244.1 197.8A52.5 52.5 0 0 1 247 197.6L247.8 210.9A39.2 39.2 0 0 0 245.6 211.1Z");
}
}
@keyframes zr70-ani-58 {
0% {
d:path("M244.1 197.8A52.5 52.5 0 0 1 247 197.6L247 197.6A52.5 52.5 0 0 0 244.1 197.8Z");
}
100% {
d:path("M242.6 184.6A65.8 65.8 0 0 1 246.3 184.3L247 197.6A52.5 52.5 0 0 0 244.1 197.8Z");
}
}
@keyframes zr70-ani-59 {
0% {
d:path("M248.5 224.2A25.8 25.8 0 0 1 250 224.2L250 224.2A25.8 25.8 0 0 0 248.5 224.2Z");
}
100% {
d:path("M247.8 210.9A39.2 39.2 0 0 1 250 210.8L250 224.2A25.8 25.8 0 0 0 248.5 224.2Z");
}
}
@keyframes zr70-ani-60 {
0% {
d:path("M247.8 210.9A39.2 39.2 0 0 1 250 210.8L250 210.8A39.2 39.2 0 0 0 247.8 210.9Z");
}
100% {
d:path("M247 197.6A52.5 52.5 0 0 1 250 197.5L250 210.8A39.2 39.2 0 0 0 247.8 210.9Z");
}
}
@keyframes zr70-ani-61 {
0% {
d:path("M247 197.6A52.5 52.5 0 0 1 250 197.5L250 197.5A52.5 52.5 0 0 0 247 197.6Z");
}
100% {
d:path("M246.3 184.3A65.8 65.8 0 0 1 250 184.2L250 197.5A52.5 52.5 0 0 0 247 197.6Z");
}
}
]]>

</style>
</svg>