<svg width="500" height="500" xmlns="http://www.w3.org/2000/svg" xmlns:xlink="http://www.w3.org/1999/xlink" version="1.1" baseProfile="full" viewBox="0 0 500 500">
<rect width="500" height="500" x="0" y="0" id="0" fill="none"></rect>
<path d="M250 227A23 23 0 0 1 254.2 272.6L252.3 262.3A12.5 12.5 0 0 0 250 237.5Z" fill="#C8C8C8" stroke="white" stroke-linejoin="bevel" class="zr12-cls-0"></path>
<path d="M250 216.4A33.6 33.6 0 0 1 267.7 278.5L262.1 269.6A23 23 0 0 0 250 227Z" fill="#C8C8C8" stroke="white" stroke-linejoin="bevel" class="zr12-cls-1"></path>
<path d="M267.7 278.5A33.6 33.6 0 0 1 264 280.5L259.6 270.9A23 23 0 0 0 262.1 269.6Z" fill="#C8C8C8" stroke="white" stroke-linejoin="bevel" class="zr12-cls-2"></path>
<path d="M264 280.5A33.6 33.6 0 0 1 260.2 282L257 271.9A23 23 0 0 0 259.6 270.9Z" fill="#C8C8C8" stroke="white" stroke-linejoin="bevel" class="zr12-cls-3"></path>
<path d="M260.2 282A33.6 33.6 0 0 1 256.2 283L254.2 272.6A23 23 0 0 0 257 271.9Z" fill="#C8C8C8" stroke="white" stroke-linejoin="bevel" class="zr12-cls-4"></path>
<path d="M263.4 292A44.1 44.1 0 0 1 258.1 293.3L256.2 283A33.6 33.6 0 0 0 260.2 282Z" fill="#C8C8C8" stroke="white" stroke-linejoin="bevel" class="zr12-cls-5"></path>
<path d="M254.2 272.6A23 23 0 0 1 239.1 229.7L244.1 239A12.5 12.5 0 0 0 252.3 262.3Z" fill="#000" stroke="white" stroke-linejoin="bevel" class="zr12-cls-6"></path>
<path d="M256.2 283A33.6 33.6 0 0 1 217.2 242.8L227.5 245.1A23 23 0 0 0 254.2 272.6Z" fill="#49ff49" fill-opacity="0.5" stroke="#fff" stroke-width="4" stroke-opacity="0.5" stroke-linejoin="bevel" class="zr12-cls-7"></path>
<path d="M258.1 293.3A44.1 44.1 0 0 1 247.3 294L247.9 283.5A33.6 33.6 0 0 0 256.2 283Z" fill="#000" stroke="white" stroke-linejoin="bevel" class="zr12-cls-8"></path>
<path d="M260 303.7A54.6 54.6 0 0 1 253.4 304.5L252.7 294A44.1 44.1 0 0 0 258.1 293.3Z" fill="#F3C142" stroke="white" stroke-linejoin="bevel" class="zr12-cls-9"></path>
<path d="M253.4 304.5A54.6 54.6 0 0 1 246.6 304.5L247.3 294A44.1 44.1 0 0 0 252.7 294Z" fill="#0AA40D" stroke="white" stroke-linejoin="bevel" class="zr12-cls-10"></path>
<path d="M247.3 294A44.1 44.1 0 0 1 241.9 293.3L243.8 283A33.6 33.6 0 0 0 247.9 283.5Z" fill="#000" stroke="white" stroke-linejoin="bevel" class="zr12-cls-11"></path>
<path d="M246.6 304.5A54.6 54.6 0 0 1 240 303.7L241.9 293.3A44.1 44.1 0 0 0 247.3 294Z" fill="#d6c9d4" stroke="white" stroke-linejoin="bevel" class="zr12-cls-12"></path>
<path d="M241.9 293.3A44.1 44.1 0 0 1 236.6 292L239.8 282A33.6 33.6 0 0 0 243.8 283Z" fill="#000" stroke="white" stroke-linejoin="bevel" class="zr12-cls-13"></path>
<path d="M240 303.7A54.6 54.6 0 0 1 233.4 302L236.6 292A44.1 44.1 0 0 0 241.9 293.3Z" fill="#F3C142" stroke="white" stroke-linejoin="bevel" class="zr12-cls-14"></path>
<path d="M236.6 292A44.1 44.1 0 0 1 231.6 290L236 280.5A33.6 33.6 0 0 0 239.8 282Z" fill="#000" stroke="white" stroke-linejoin="bevel" class="zr12-cls-15"></path>
<path d="M233.4 302A54.6 54.6 0 0 1 227.2 299.6L231.6 290A44.1 44.1 0 0 0 236.6 292Z" fill="#F3C142" stroke="white" stroke-linejoin="bevel" class="zr12-cls-16"></path>
<path d="M231.6 290A44.1 44.1 0 0 1 226.8 287.5L232.3 278.5A33.6 33.6 0 0 0 236 280.5Z" fill="#000" stroke="white" stroke-linejoin="bevel" class="zr12-cls-17"></path>
<path d="M227.2 299.6A54.6 54.6 0 0 1 221.3 296.4L226.8 287.5A44.1 44.1 0 0 0 231.6 290Z" fill="#6dc0e3" stroke="white" stroke-linejoin="bevel" class="zr12-cls-18"></path>
<path d="M226.8 287.5A44.1 44.1 0 0 1 222.4 284.3L229 276.1A33.6 33.6 0 0 0 232.3 278.5Z" fill="#000" stroke="white" stroke-linejoin="bevel" class="zr12-cls-19"></path>
<path d="M221.3 296.4A54.6 54.6 0 0 1 215.8 292.5L222.4 284.3A44.1 44.1 0 0 0 226.8 287.5Z" fill="#d6c9d4" stroke="white" stroke-linejoin="bevel" class="zr12-cls-20"></path>
<path d="M222.4 284.3A44.1 44.1 0 0 1 218.4 280.7L225.9 273.4A33.6 33.6 0 0 0 229 276.1Z" fill="#000" stroke="white" stroke-linejoin="bevel" class="zr12-cls-21"></path>
<path d="M215.8 292.5A54.6 54.6 0 0 1 210.8 288L218.4 280.7A44.1 44.1 0 0 0 222.4 284.3Z" fill="#d6c9d4" stroke="white" stroke-linejoin="bevel" class="zr12-cls-22"></path>
<path d="M218.4 280.7A44.1 44.1 0 0 1 214.8 276.6L223.2 270.2A33.6 33.6 0 0 0 225.9 273.4Z" fill="#000" stroke="white" stroke-linejoin="bevel" class="zr12-cls-23"></path>
<path d="M210.8 288A54.6 54.6 0 0 1 206.4 282.9L214.8 276.6A44.1 44.1 0 0 0 218.4 280.7Z" fill="#F3C142" stroke="white" stroke-linejoin="bevel" class="zr12-cls-24"></path>
<path d="M214.8 276.6A44.1 44.1 0 0 1 211.8 272L220.9 266.8A33.6 33.6 0 0 0 223.2 270.2Z" fill="#000" stroke="white" stroke-linejoin="bevel" class="zr12-cls-25"></path>
<path d="M206.4 282.9A54.6 54.6 0 0 1 202.7 277.3L211.8 272A44.1 44.1 0 0 0 214.8 276.6Z" fill="#F3C142" stroke="white" stroke-linejoin="bevel" class="zr12-cls-26"></path>
<path d="M211.8 272A44.1 44.1 0 0 1 209.4 267.2L219.1 263.1A33.6 33.6 0 0 0 220.9 266.8Z" fill="#000" stroke="white" stroke-linejoin="bevel" class="zr12-cls-27"></path>
<path d="M202.7 277.3A54.6 54.6 0 0 1 199.7 271.3L209.4 267.2A44.1 44.1 0 0 0 211.8 272Z" fill="#0AA40D" stroke="white" stroke-linejoin="bevel" class="zr12-cls-28"></path>
<path d="M209.4 267.2A44.1 44.1 0 0 1 207.6 262.1L217.7 259.2A33.6 33.6 0 0 0 219.1 263.1Z" fill="#000" stroke="white" stroke-linejoin="bevel" class="zr12-cls-29"></path>
<path d="M199.7 271.3A54.6 54.6 0 0 1 197.5 264.9L207.6 262.1A44.1 44.1 0 0 0 209.4 267.2Z" fill="#F3C142" stroke="white" stroke-linejoin="bevel" class="zr12-cls-30"></path>
<path d="M207.6 262.1A44.1 44.1 0 0 1 206.4 256.8L216.8 255.1A33.6 33.6 0 0 0 217.7 259.2Z" fill="#000" stroke="white" stroke-linejoin="bevel" class="zr12-cls-31"></path>
<path d="M197.5 264.9A54.6 54.6 0 0 1 196 258.4L206.4 256.8A44.1 44.1 0 0 0 207.6 262.1Z" fill="#d6c9d4" stroke="white" stroke-linejoin="bevel" class="zr12-cls-32"></path>
<path d="M206.4 256.8A44.1 44.1 0 0 1 205.9 251.4L216.5 251A33.6 33.6 0 0 0 216.8 255.1Z" fill="#000" stroke="white" stroke-linejoin="bevel" class="zr12-cls-33"></path>
<path d="M196 258.4A54.6 54.6 0 0 1 195.4 251.7L205.9 251.4A44.1 44.1 0 0 0 206.4 256.8Z" fill="#6dc0e3" stroke="white" stroke-linejoin="bevel" class="zr12-cls-34"></path>
<path d="M205.9 251.4A44.1 44.1 0 0 1 206.1 245.9L216.6 246.9A33.6 33.6 0 0 0 216.5 251Z" fill="#000" stroke="white" stroke-linejoin="bevel" class="zr12-cls-35"></path>
<path d="M195.4 251.7A54.6 54.6 0 0 1 195.6 245L206.1 245.9A44.1 44.1 0 0 0 205.9 251.4Z" fill="#d6c9d4" stroke="white" stroke-linejoin="bevel" class="zr12-cls-36"></path>
<path d="M206.1 245.9A44.1 44.1 0 0 1 206.9 240.6L217.2 242.8A33.6 33.6 0 0 0 216.6 246.9Z" fill="#000" stroke="white" stroke-linejoin="bevel" class="zr12-cls-37"></path>
<path d="M195.6 245A54.6 54.6 0 0 1 196.7 238.3L206.9 240.6A44.1 44.1 0 0 0 206.1 245.9Z" fill="#d6c9d4" stroke="white" stroke-linejoin="bevel" class="zr12-cls-38"></path>
<path d="M217.2 242.8A33.6 33.6 0 0 1 227.4 225.2L234.5 233A23 23 0 0 0 227.5 245.1Z" fill="#4949CD" fill-opacity="0.5" stroke="#fff" stroke-width="4" stroke-opacity="0.5" stroke-linejoin="bevel" class="zr12-cls-39"></path>
<path d="M206.9 240.6A44.1 44.1 0 0 1 213.3 225.7L222 231.5A33.6 33.6 0 0 0 217.2 242.8Z" fill="#000" stroke="white" stroke-linejoin="bevel" class="zr12-cls-40"></path>
<path d="M196.7 238.3A54.6 54.6 0 0 1 204.5 219.8L213.3 225.7A44.1 44.1 0 0 0 206.9 240.6Z" fill="#000" stroke="white" stroke-linejoin="bevel" class="zr12-cls-41"></path>
<path d="M186.4 236.1A65.1 65.1 0 0 1 195.7 214L204.5 219.8A54.6 54.6 0 0 0 196.7 238.3Z" fill="#4949CD" fill-opacity="0.5" stroke="#fff" stroke-width="4" stroke-opacity="0.5" stroke-linejoin="bevel" class="zr12-cls-42"></path>
<path d="M176.1 233.8A75.7 75.7 0 0 1 186.9 208.2L195.7 214A65.1 65.1 0 0 0 186.4 236.1Z" fill="#d6c9d4" stroke="white" stroke-linejoin="bevel" class="zr12-cls-43"></path>
<path d="M165.8 231.6A86.2 86.2 0 0 1 178.2 202.4L186.9 208.2A75.7 75.7 0 0 0 176.1 233.8Z" fill="#000" stroke="white" stroke-linejoin="bevel" class="zr12-cls-44"></path>
<path d="M155.5 229.3A96.7 96.7 0 0 1 169.4 196.6L178.2 202.4A86.2 86.2 0 0 0 165.8 231.6Z" fill="#000" stroke="white" stroke-linejoin="bevel" class="zr12-cls-45"></path>
<path d="M145.2 227.1A107.2 107.2 0 0 1 160.6 190.8L169.4 196.6A96.7 96.7 0 0 0 155.5 229.3Z" fill="#4949CD" fill-opacity="0.5" stroke="#fff" stroke-width="4" stroke-opacity="0.5" stroke-linejoin="bevel" class="zr12-cls-46"></path>
<path d="M135 224.8A117.8 117.8 0 0 1 151.8 185L160.6 190.8A107.2 107.2 0 0 0 145.2 227.1Z" fill="#000" stroke="white" stroke-linejoin="bevel" class="zr12-cls-47"></path>
<path d="M124.7 222.6A128.3 128.3 0 0 1 143.1 179.1L151.8 185A117.8 117.8 0 0 0 135 224.8Z" fill="#A0522D" stroke="white" stroke-linejoin="bevel" class="zr12-cls-48"></path>
<path d="M114.4 220.3A138.8 138.8 0 0 1 134.3 173.3L143.1 179.1A128.3 128.3 0 0 0 124.7 222.6Z" fill="#A0522D" stroke="white" stroke-linejoin="bevel" class="zr12-cls-49"></path>
<path d="M104.1 218.1A149.3 149.3 0 0 1 125.5 167.5L134.3 173.3A138.8 138.8 0 0 0 114.4 220.3Z" fill="#A0522D" stroke="white" stroke-linejoin="bevel" class="zr12-cls-50"></path>
<path d="M93.8 215.8A159.9 159.9 0 0 1 99.2 196.9L109.1 200.4A149.3 149.3 0 0 0 104.1 218.1Z" fill="#49ff49" fill-opacity="0.5" stroke="#fff" stroke-width="4" stroke-opacity="0.5" stroke-linejoin="bevel" class="zr12-cls-51"></path>
<path d="M99.2 196.9A159.9 159.9 0 0 1 106.9 178.7L116.3 183.4A149.3 149.3 0 0 0 109.1 200.4Z" fill="#ff4949" fill-opacity="0.5" stroke="#fff" stroke-width="4" stroke-opacity="0.5" stroke-linejoin="bevel" class="zr12-cls-52"></path>
<path d="M106.9 178.7A159.9 159.9 0 0 1 116.7 161.7L125.5 167.5A149.3 149.3 0 0 0 116.3 183.4Z" fill="#4949CD" fill-opacity="0.5" stroke="#fff" stroke-width="4" stroke-opacity="0.5" stroke-linejoin="bevel" class="zr12-cls-53"></path>
<path d="M97.5 174A170.4 170.4 0 0 1 108 155.9L116.7 161.7A159.9 159.9 0 0 0 106.9 178.7Z" fill="#A0522D" stroke="white" stroke-linejoin="bevel" class="zr12-cls-54"></path>
<path d="M88 169.4A180.9 180.9 0 0 1 99.2 150.1L108 155.9A170.4 170.4 0 0 0 97.5 174Z" fill="#A0522D" stroke="white" stroke-linejoin="bevel" class="zr12-cls-55"></path>
<path d="M78.6 164.7A191.4 191.4 0 0 1 90.4 144.3L99.2 150.1A180.9 180.9 0 0 0 88 169.4Z" fill="#A0522D" stroke="white" stroke-linejoin="bevel" class="zr12-cls-56"></path>
<path d="M69.2 160A202 202 0 0 1 81.6 138.4L90.4 144.3A191.4 191.4 0 0 0 78.6 164.7Z" fill="#49ff49" fill-opacity="0.5" stroke="#fff" stroke-width="4" stroke-opacity="0.5" stroke-linejoin="bevel" class="zr12-cls-57"></path>
<path d="M59.8 155.3A212.5 212.5 0 0 1 72.9 132.6L81.6 138.4A202 202 0 0 0 69.2 160Z" fill="#A0522D" stroke="white" stroke-linejoin="bevel" class="zr12-cls-58"></path>
<path d="M213.3 225.7A44.1 44.1 0 0 1 216.5 221.3L224.5 228.2A33.6 33.6 0 0 0 222 231.5Z" fill="#000" stroke="white" stroke-linejoin="bevel" class="zr12-cls-59"></path>
<path d="M204.5 219.8A54.6 54.6 0 0 1 208.5 214.5L216.5 221.3A44.1 44.1 0 0 0 213.3 225.7Z" fill="#000" stroke="white" stroke-linejoin="bevel" class="zr12-cls-60"></path>
<path d="M195.7 214A65.1 65.1 0 0 1 200.5 207.6L208.5 214.5A54.6 54.6 0 0 0 204.5 219.8Z" fill="#4949CD" fill-opacity="0.5" stroke="#fff" stroke-width="4" stroke-opacity="0.5" stroke-linejoin="bevel" class="zr12-cls-61"></path>
<path d="M186.9 208.2A75.7 75.7 0 0 1 192.5 200.8L200.5 207.6A65.1 65.1 0 0 0 195.7 214Z" fill="#F3C142" stroke="white" stroke-linejoin="bevel" class="zr12-cls-62"></path>
<path d="M178.2 202.4A86.2 86.2 0 0 1 184.6 193.9L192.5 200.8A75.7 75.7 0 0 0 186.9 208.2Z" fill="#000" stroke="white" stroke-linejoin="bevel" class="zr12-cls-63"></path>
<path d="M169.4 196.6A96.7 96.7 0 0 1 176.6 187.1L184.6 193.9A86.2 86.2 0 0 0 178.2 202.4Z" fill="#000" stroke="white" stroke-linejoin="bevel" class="zr12-cls-64"></path>
<path d="M160.6 190.8A107.2 107.2 0 0 1 168.6 180.2L176.6 187.1A96.7 96.7 0 0 0 169.4 196.6Z" fill="#4949CD" fill-opacity="0.5" stroke="#fff" stroke-width="4" stroke-opacity="0.5" stroke-linejoin="bevel" class="zr12-cls-65"></path>
<path d="M151.8 185A117.8 117.8 0 0 1 160.6 173.4L168.6 180.2A107.2 107.2 0 0 0 160.6 190.8Z" fill="#000" stroke="white" stroke-linejoin="bevel" class="zr12-cls-66"></path>
<path d="M143.1 179.1A128.3 128.3 0 0 1 152.6 166.5L160.6 173.4A117.8 117.8 0 0 0 151.8 185Z" fill="#A0522D" stroke="white" stroke-linejoin="bevel" class="zr12-cls-67"></path>
<path d="M134.3 173.3A138.8 138.8 0 0 1 144.6 159.7L152.6 166.5A128.3 128.3 0 0 0 143.1 179.1Z" fill="#A0522D" stroke="white" stroke-linejoin="bevel" class="zr12-cls-68"></path>
<path d="M125.5 167.5A149.3 149.3 0 0 1 136.6 152.8L144.6 159.7A138.8 138.8 0 0 0 134.3 173.3Z" fill="#49ff49" fill-opacity="0.5" stroke="#fff" stroke-width="4" stroke-opacity="0.5" stroke-linejoin="bevel" class="zr12-cls-69"></path>
<path d="M116.7 161.7A159.9 159.9 0 0 1 128.6 146L136.6 152.8A149.3 149.3 0 0 0 125.5 167.5Z" fill="#A0522D" stroke="white" stroke-linejoin="bevel" class="zr12-cls-70"></path>
<path d="M216.5 221.3A44.1 44.1 0 0 1 220.3 217.4L227.4 225.2A33.6 33.6 0 0 0 224.5 228.2Z" fill="#000" stroke="white" stroke-linejoin="bevel" class="zr12-cls-71"></path>
<path d="M208.5 214.5A54.6 54.6 0 0 1 213.2 209.6L220.3 217.4A44.1 44.1 0 0 0 216.5 221.3Z" fill="#000" stroke="white" stroke-linejoin="bevel" class="zr12-cls-72"></path>
<path d="M200.5 207.6A65.1 65.1 0 0 1 206.1 201.9L213.2 209.6A54.6 54.6 0 0 0 208.5 214.5Z" fill="#49ff49" fill-opacity="0.5" stroke="#fff" stroke-width="4" stroke-opacity="0.5" stroke-linejoin="bevel" class="zr12-cls-73"></path>
<path d="M192.5 200.8A75.7 75.7 0 0 1 199 194.1L206.1 201.9A65.1 65.1 0 0 0 200.5 207.6Z" fill="#0AA40D" stroke="white" stroke-linejoin="bevel" class="zr12-cls-74"></path>
<path d="M227.4 225.2A33.6 33.6 0 0 1 234.1 220.4L239.1 229.7A23 23 0 0 0 234.5 233Z" fill="#ff4949" fill-opacity="0.5" stroke="#fff" stroke-width="4" stroke-opacity="0.5" stroke-linejoin="bevel" class="zr12-cls-75"></path>
<path d="M220.3 217.4A44.1 44.1 0 0 1 229.1 211.2L234.1 220.4A33.6 33.6 0 0 0 227.4 225.2Z" fill="#000" stroke="white" stroke-linejoin="bevel" class="zr12-cls-76"></path>
<path d="M213.2 209.6A54.6 54.6 0 0 1 218.5 205.4L224.5 214A44.1 44.1 0 0 0 220.3 217.4Z" fill="#0AA40D" stroke="white" stroke-linejoin="bevel" class="zr12-cls-77"></path>
<path d="M218.5 205.4A54.6 54.6 0 0 1 224.2 201.9L229.1 211.2A44.1 44.1 0 0 0 224.5 214Z" fill="#F3C142" stroke="white" stroke-linejoin="bevel" class="zr12-cls-78"></path>
<path d="M239.1 229.7A23 23 0 0 1 250 227L250 237.5A12.5 12.5 0 0 0 244.1 239Z" fill="#C8C8C8" stroke="white" stroke-linejoin="bevel" class="zr12-cls-79"></path>
<path d="M234.1 220.4A33.6 33.6 0 0 1 250 216.4L250 227A23 23 0 0 0 239.1 229.7Z" fill="#49ff49" fill-opacity="0.5" stroke="#fff" stroke-width="4" stroke-opacity="0.5" stroke-linejoin="bevel" class="zr12-cls-80"></path>
<path d="M229.1 211.2A44.1 44.1 0 0 1 234.1 208.9L237.9 218.7A33.6 33.6 0 0 0 234.1 220.4Z" fill="#C8C8C8" stroke="white" stroke-linejoin="bevel" class="zr12-cls-81"></path>
<path d="M234.1 208.9A44.1 44.1 0 0 1 239.2 207.3L241.8 217.5A33.6 33.6 0 0 0 237.9 218.7Z" fill="#C8C8C8" stroke="white" stroke-linejoin="bevel" class="zr12-cls-82"></path>
<path d="M239.2 207.3A44.1 44.1 0 0 1 244.6 206.3L245.9 216.7A33.6 33.6 0 0 0 241.8 217.5Z" fill="#C8C8C8" stroke="white" stroke-linejoin="bevel" class="zr12-cls-83"></path>
<path d="M244.6 206.3A44.1 44.1 0 0 1 250 205.9L250 216.4A33.6 33.6 0 0 0 245.9 216.7Z" fill="#C8C8C8" stroke="white" stroke-linejoin="bevel" class="zr12-cls-84"></path>
<text dominant-baseline="central" text-anchor="middle" style="font-size:10px;font-family:sans-serif;" transform="matrix(0.274,0.962,-0.962,0.274,277.2095,242.2582)" fill="#333">version</text>
<text dominant-baseline="central" text-anchor="middle" style="font-size:12px;font-family:sans-serif;" transform="matrix(0.332,0.943,-0.943,0.332,233.2466,255.9037)" fill="#ccc" stroke="#000" stroke-width="2" paint-order="stroke" stroke-miterlimit="2">paths</text>
<text dominant-baseline="central" text-anchor="middle" style="font-size:12px;font-family:sans-serif;" transform="matrix(0.998,-0.062,0.062,0.998,252.3895,288.7422)" fill="#ccc" stroke="#000" stroke-width="2" paint-order="stroke" stroke-miterlimit="2">/sync</text>
<text dominant-baseline="central" text-anchor="middle" style="font-size:9px;font-family:sans-serif;" transform="matrix(0.39,-0.921,0.921,0.39,204.5606,230.7671)" fill="#ccc" stroke="#000" stroke-width="2" paint-order="stroke" stroke-miterlimit="2">operations</text>
<text dominant-baseline="central" text-anchor="middle" style="font-size:12px;font-family:sans-serif;" transform="matrix(0.39,-0.921,0.921,0.39,185.1731,222.5611)" fill="#333">PATCH</text>
<text dominant-baseline="central" text-anchor="middle" style="font-size:10px;font-family:sans-serif;" transform="matrix(0.39,-0.921,0.921,0.39,165.7856,214.3551)" fill="#ccc" stroke="#000" stroke-width="2" paint-order="stroke" stroke-miterlimit="2">content</text>
<text dominant-baseline="central" text-anchor="middle" style="font-size:12px;font-family:sans-serif;" transform="matrix(0.39,-0.921,0.921,0.39,136.7044,202.0461)" fill="#eee" stroke="#A0522D" stroke-width="2" paint-order="stroke" stroke-miterlimit="2">schema</text>
<text dominant-baseline="central" text-anchor="middle" style="font-size:12px;font-family:sans-serif;" transform="matrix(0.39,-0.921,0.921,0.39,117.3169,193.8401)" fill="#eee" stroke="#A0522D" stroke-width="2" paint-order="stroke" stroke-miterlimit="2">allOf</text>
<path d="M-14.8 -16l66.6 0l0 32l-66.6 0Z" transform="translate(448.253 16)" fill="none" stroke="#ccc" stroke-width="0"></path>
<path d="M-7.3 -1.8L-0.1 4.8L7.3 -1.6M-7.3 4.3L-7.3 8.5L7.1 8.5L7.1 4.3M-0.1 4.7L-0.1 -8.5" transform="translate(448.253 16)" fill="none" stroke="#666"></path>
<path d="M-7.9 1M5.1 -3.4L8.1 -3.4L8.1 -6.4M8 -3C6.7 -6.4 3.2 -8.9 -1 -8.4C-5.3 -8 -8.6 -4.2 -8.4 0.2M-5.1 3.4L-8.1 3.4L-8.1 6.4M-8 3C-6.7 6.4 -3.2 8.9 1 8.4C5.3 8 8.6 4.2 8.4 -0.2" transform="translate(484.0476 16)" fill="none" stroke="#666"></path>
<style ><![CDATA[
.zr12-cls-0 {
animation:zr12-ani-0 1s cubic-bezier(0.65,0,0.35,1) both;
}
.zr12-cls-1 {
animation:zr12-ani-1 1s cubic-bezier(0.65,0,0.35,1) both;
}
.zr12-cls-2 {
animation:zr12-ani-2 1s cubic-bezier(0.65,0,0.35,1) both;
}
.zr12-cls-3 {
animation:zr12-ani-3 1s cubic-bezier(0.65,0,0.35,1) both;
}
.zr12-cls-4 {
animation:zr12-ani-4 1s cubic-bezier(0.65,0,0.35,1) both;
}
.zr12-cls-5 {
animation:zr12-ani-5 1s cubic-bezier(0.65,0,0.35,1) both;
}
.zr12-cls-6 {
animation:zr12-ani-6 1s cubic-bezier(0.65,0,0.35,1) both;
}
.zr12-cls-7 {
animation:zr12-ani-7 1s cubic-bezier(0.65,0,0.35,1) both;
}
.zr12-cls-8 {
animation:zr12-ani-8 1s cubic-bezier(0.65,0,0.35,1) both;
}
.zr12-cls-9 {
animation:zr12-ani-9 1s cubic-bezier(0.65,0,0.35,1) both;
}
.zr12-cls-10 {
animation:zr12-ani-10 1s cubic-bezier(0.65,0,0.35,1) both;
}
.zr12-cls-11 {
animation:zr12-ani-11 1s cubic-bezier(0.65,0,0.35,1) both;
}
.zr12-cls-12 {
animation:zr12-ani-12 1s cubic-bezier(0.65,0,0.35,1) both;
}
.zr12-cls-13 {
animation:zr12-ani-13 1s cubic-bezier(0.65,0,0.35,1) both;
}
.zr12-cls-14 {
animation:zr12-ani-14 1s cubic-bezier(0.65,0,0.35,1) both;
}
.zr12-cls-15 {
animation:zr12-ani-15 1s cubic-bezier(0.65,0,0.35,1) both;
}
.zr12-cls-16 {
animation:zr12-ani-16 1s cubic-bezier(0.65,0,0.35,1) both;
}
.zr12-cls-17 {
animation:zr12-ani-17 1s cubic-bezier(0.65,0,0.35,1) both;
}
.zr12-cls-18 {
animation:zr12-ani-18 1s cubic-bezier(0.65,0,0.35,1) both;
}
.zr12-cls-19 {
animation:zr12-ani-19 1s cubic-bezier(0.65,0,0.35,1) both;
}
.zr12-cls-20 {
animation:zr12-ani-20 1s cubic-bezier(0.65,0,0.35,1) both;
}
.zr12-cls-21 {
animation:zr12-ani-21 1s cubic-bezier(0.65,0,0.35,1) both;
}
.zr12-cls-22 {
animation:zr12-ani-22 1s cubic-bezier(0.65,0,0.35,1) both;
}
.zr12-cls-23 {
animation:zr12-ani-23 1s cubic-bezier(0.65,0,0.35,1) both;
}
.zr12-cls-24 {
animation:zr12-ani-24 1s cubic-bezier(0.65,0,0.35,1) both;
}
.zr12-cls-25 {
animation:zr12-ani-25 1s cubic-bezier(0.65,0,0.35,1) both;
}
.zr12-cls-26 {
animation:zr12-ani-26 1s cubic-bezier(0.65,0,0.35,1) both;
}
.zr12-cls-27 {
animation:zr12-ani-27 1s cubic-bezier(0.65,0,0.35,1) both;
}
.zr12-cls-28 {
animation:zr12-ani-28 1s cubic-bezier(0.65,0,0.35,1) both;
}
.zr12-cls-29 {
animation:zr12-ani-29 1s cubic-bezier(0.65,0,0.35,1) both;
}
.zr12-cls-30 {
animation:zr12-ani-30 1s cubic-bezier(0.65,0,0.35,1) both;
}
.zr12-cls-31 {
animation:zr12-ani-31 1s cubic-bezier(0.65,0,0.35,1) both;
}
.zr12-cls-32 {
animation:zr12-ani-32 1s cubic-bezier(0.65,0,0.35,1) both;
}
.zr12-cls-33 {
animation:zr12-ani-33 1s cubic-bezier(0.65,0,0.35,1) both;
}
.zr12-cls-34 {
animation:zr12-ani-34 1s cubic-bezier(0.65,0,0.35,1) both;
}
.zr12-cls-35 {
animation:zr12-ani-35 1s cubic-bezier(0.65,0,0.35,1) both;
}
.zr12-cls-36 {
animation:zr12-ani-36 1s cubic-bezier(0.65,0,0.35,1) both;
}
.zr12-cls-37 {
animation:zr12-ani-37 1s cubic-bezier(0.65,0,0.35,1) both;
}
.zr12-cls-38 {
animation:zr12-ani-38 1s cubic-bezier(0.65,0,0.35,1) both;
}
.zr12-cls-39 {
animation:zr12-ani-39 1s cubic-bezier(0.65,0,0.35,1) both;
}
.zr12-cls-40 {
animation:zr12-ani-40 1s cubic-bezier(0.65,0,0.35,1) both;
}
.zr12-cls-41 {
animation:zr12-ani-41 1s cubic-bezier(0.65,0,0.35,1) both;
}
.zr12-cls-42 {
animation:zr12-ani-42 1s cubic-bezier(0.65,0,0.35,1) both;
}
.zr12-cls-43 {
animation:zr12-ani-43 1s cubic-bezier(0.65,0,0.35,1) both;
}
.zr12-cls-44 {
animation:zr12-ani-44 1s cubic-bezier(0.65,0,0.35,1) both;
}
.zr12-cls-45 {
animation:zr12-ani-45 1s cubic-bezier(0.65,0,0.35,1) both;
}
.zr12-cls-46 {
animation:zr12-ani-46 1s cubic-bezier(0.65,0,0.35,1) both;
}
.zr12-cls-47 {
animation:zr12-ani-47 1s cubic-bezier(0.65,0,0.35,1) both;
}
.zr12-cls-48 {
animation:zr12-ani-48 1s cubic-bezier(0.65,0,0.35,1) both;
}
.zr12-cls-49 {
animation:zr12-ani-49 1s cubic-bezier(0.65,0,0.35,1) both;
}
.zr12-cls-50 {
animation:zr12-ani-50 1s cubic-bezier(0.65,0,0.35,1) both;
}
.zr12-cls-51 {
animation:zr12-ani-51 1s cubic-bezier(0.65,0,0.35,1) both;
}
.zr12-cls-52 {
animation:zr12-ani-52 1s cubic-bezier(0.65,0,0.35,1) both;
}
.zr12-cls-53 {
animation:zr12-ani-53 1s cubic-bezier(0.65,0,0.35,1) both;
}
.zr12-cls-54 {
animation:zr12-ani-54 1s cubic-bezier(0.65,0,0.35,1) both;
}
.zr12-cls-55 {
animation:zr12-ani-55 1s cubic-bezier(0.65,0,0.35,1) both;
}
.zr12-cls-56 {
animation:zr12-ani-56 1s cubic-bezier(0.65,0,0.35,1) both;
}
.zr12-cls-57 {
animation:zr12-ani-57 1s cubic-bezier(0.65,0,0.35,1) both;
}
.zr12-cls-58 {
animation:zr12-ani-58 1s cubic-bezier(0.65,0,0.35,1) both;
}
.zr12-cls-59 {
animation:zr12-ani-59 1s cubic-bezier(0.65,0,0.35,1) both;
}
.zr12-cls-60 {
animation:zr12-ani-60 1s cubic-bezier(0.65,0,0.35,1) both;
}
.zr12-cls-61 {
animation:zr12-ani-61 1s cubic-bezier(0.65,0,0.35,1) both;
}
.zr12-cls-62 {
animation:zr12-ani-62 1s cubic-bezier(0.65,0,0.35,1) both;
}
.zr12-cls-63 {
animation:zr12-ani-63 1s cubic-bezier(0.65,0,0.35,1) both;
}
.zr12-cls-64 {
animation:zr12-ani-64 1s cubic-bezier(0.65,0,0.35,1) both;
}
.zr12-cls-65 {
animation:zr12-ani-65 1s cubic-bezier(0.65,0,0.35,1) both;
}
.zr12-cls-66 {
animation:zr12-ani-66 1s cubic-bezier(0.65,0,0.35,1) both;
}
.zr12-cls-67 {
animation:zr12-ani-67 1s cubic-bezier(0.65,0,0.35,1) both;
}
.zr12-cls-68 {
animation:zr12-ani-68 1s cubic-bezier(0.65,0,0.35,1) both;
}
.zr12-cls-69 {
animation:zr12-ani-69 1s cubic-bezier(0.65,0,0.35,1) both;
}
.zr12-cls-70 {
animation:zr12-ani-70 1s cubic-bezier(0.65,0,0.35,1) both;
}
.zr12-cls-71 {
animation:zr12-ani-71 1s cubic-bezier(0.65,0,0.35,1) both;
}
.zr12-cls-72 {
animation:zr12-ani-72 1s cubic-bezier(0.65,0,0.35,1) both;
}
.zr12-cls-73 {
animation:zr12-ani-73 1s cubic-bezier(0.65,0,0.35,1) both;
}
.zr12-cls-74 {
animation:zr12-ani-74 1s cubic-bezier(0.65,0,0.35,1) both;
}
.zr12-cls-75 {
animation:zr12-ani-75 1s cubic-bezier(0.65,0,0.35,1) both;
}
.zr12-cls-76 {
animation:zr12-ani-76 1s cubic-bezier(0.65,0,0.35,1) both;
}
.zr12-cls-77 {
animation:zr12-ani-77 1s cubic-bezier(0.65,0,0.35,1) both;
}
.zr12-cls-78 {
animation:zr12-ani-78 1s cubic-bezier(0.65,0,0.35,1) both;
}
.zr12-cls-79 {
animation:zr12-ani-79 1s cubic-bezier(0.65,0,0.35,1) both;
}
.zr12-cls-80 {
animation:zr12-ani-80 1s cubic-bezier(0.65,0,0.35,1) both;
}
.zr12-cls-81 {
animation:zr12-ani-81 1s cubic-bezier(0.65,0,0.35,1) both;
}
.zr12-cls-82 {
animation:zr12-ani-82 1s cubic-bezier(0.65,0,0.35,1) both;
}
.zr12-cls-83 {
animation:zr12-ani-83 1s cubic-bezier(0.65,0,0.35,1) both;
}
.zr12-cls-84 {
animation:zr12-ani-84 1s cubic-bezier(0.65,0,0.35,1) both;
}
@keyframes zr12-ani-0 {
0% {
d:path("M250 237.5A12.5 12.5 0 0 1 252.3 262.3A12.5 12.5 0 0 0 250 237.5Z");
}
100% {
d:path("M250 227A23 23 0 0 1 254.2 272.6L252.3 262.3A12.5 12.5 0 0 0 250 237.5Z");
}
}
@keyframes zr12-ani-1 {
0% {
d:path("M250 227A23 23 0 0 1 262.1 269.6A23 23 0 0 0 250 227Z");
}
100% {
d:path("M250 216.4A33.6 33.6 0 0 1 267.7 278.5L262.1 269.6A23 23 0 0 0 250 227Z");
}
}
@keyframes zr12-ani-2 {
0% {
d:path("M262.1 269.6A23 23 0 0 1 259.6 270.9L259.6 270.9A23 23 0 0 0 262.1 269.6Z");
}
100% {
d:path("M267.7 278.5A33.6 33.6 0 0 1 264 280.5L259.6 270.9A23 23 0 0 0 262.1 269.6Z");
}
}
@keyframes zr12-ani-3 {
0% {
d:path("M259.6 270.9A23 23 0 0 1 257 271.9L257 271.9A23 23 0 0 0 259.6 270.9Z");
}
100% {
d:path("M264 280.5A33.6 33.6 0 0 1 260.2 282L257 271.9A23 23 0 0 0 259.6 270.9Z");
}
}
@keyframes zr12-ani-4 {
0% {
d:path("M257 271.9A23 23 0 0 1 254.2 272.6L254.2 272.6A23 23 0 0 0 257 271.9Z");
}
100% {
d:path("M260.2 282A33.6 33.6 0 0 1 256.2 283L254.2 272.6A23 23 0 0 0 257 271.9Z");
}
}
@keyframes zr12-ani-5 {
0% {
d:path("M260.2 282A33.6 33.6 0 0 1 256.2 283L256.2 283A33.6 33.6 0 0 0 260.2 282Z");
}
100% {
d:path("M263.4 292A44.1 44.1 0 0 1 258.1 293.3L256.2 283A33.6 33.6 0 0 0 260.2 282Z");
}
}
@keyframes zr12-ani-6 {
0% {
d:path("M252.3 262.3A12.5 12.5 0 0 1 244.1 239L244.1 239A12.5 12.5 0 0 0 252.3 262.3Z");
}
100% {
d:path("M254.2 272.6A23 23 0 0 1 239.1 229.7L244.1 239A12.5 12.5 0 0 0 252.3 262.3Z");
}
}
@keyframes zr12-ani-7 {
0% {
d:path("M254.2 272.6A23 23 0 0 1 227.5 245.1L227.5 245.1A23 23 0 0 0 254.2 272.6Z");
}
100% {
d:path("M256.2 283A33.6 33.6 0 0 1 217.2 242.8L227.5 245.1A23 23 0 0 0 254.2 272.6Z");
}
}
@keyframes zr12-ani-8 {
0% {
d:path("M256.2 283A33.6 33.6 0 0 1 247.9 283.5L247.9 283.5A33.6 33.6 0 0 0 256.2 283Z");
}
100% {
d:path("M258.1 293.3A44.1 44.1 0 0 1 247.3 294L247.9 283.5A33.6 33.6 0 0 0 256.2 283Z");
}
}
@keyframes zr12-ani-9 {
0% {
d:path("M258.1 293.3A44.1 44.1 0 0 1 252.7 294L252.7 294A44.1 44.1 0 0 0 258.1 293.3Z");
}
100% {
d:path("M260 303.7A54.6 54.6 0 0 1 253.4 304.5L252.7 294A44.1 44.1 0 0 0 258.1 293.3Z");
}
}
@keyframes zr12-ani-10 {
0% {
d:path("M252.7 294A44.1 44.1 0 0 1 247.3 294L247.3 294A44.1 44.1 0 0 0 252.7 294Z");
}
100% {
d:path("M253.4 304.5A54.6 54.6 0 0 1 246.6 304.5L247.3 294A44.1 44.1 0 0 0 252.7 294Z");
}
}
@keyframes zr12-ani-11 {
0% {
d:path("M247.9 283.5A33.6 33.6 0 0 1 243.8 283L243.8 283A33.6 33.6 0 0 0 247.9 283.5Z");
}
100% {
d:path("M247.3 294A44.1 44.1 0 0 1 241.9 293.3L243.8 283A33.6 33.6 0 0 0 247.9 283.5Z");
}
}
@keyframes zr12-ani-12 {
0% {
d:path("M247.3 294A44.1 44.1 0 0 1 241.9 293.3L241.9 293.3A44.1 44.1 0 0 0 247.3 294Z");
}
100% {
d:path("M246.6 304.5A54.6 54.6 0 0 1 240 303.7L241.9 293.3A44.1 44.1 0 0 0 247.3 294Z");
}
}
@keyframes zr12-ani-13 {
0% {
d:path("M243.8 283A33.6 33.6 0 0 1 239.8 282L239.8 282A33.6 33.6 0 0 0 243.8 283Z");
}
100% {
d:path("M241.9 293.3A44.1 44.1 0 0 1 236.6 292L239.8 282A33.6 33.6 0 0 0 243.8 283Z");
}
}
@keyframes zr12-ani-14 {
0% {
d:path("M241.9 293.3A44.1 44.1 0 0 1 236.6 292L236.6 292A44.1 44.1 0 0 0 241.9 293.3Z");
}
100% {
d:path("M240 303.7A54.6 54.6 0 0 1 233.4 302L236.6 292A44.1 44.1 0 0 0 241.9 293.3Z");
}
}
@keyframes zr12-ani-15 {
0% {
d:path("M239.8 282A33.6 33.6 0 0 1 236 280.5L236 280.5A33.6 33.6 0 0 0 239.8 282Z");
}
100% {
d:path("M236.6 292A44.1 44.1 0 0 1 231.6 290L236 280.5A33.6 33.6 0 0 0 239.8 282Z");
}
}
@keyframes zr12-ani-16 {
0% {
d:path("M236.6 292A44.1 44.1 0 0 1 231.6 290L231.6 290A44.1 44.1 0 0 0 236.6 292Z");
}
100% {
d:path("M233.4 302A54.6 54.6 0 0 1 227.2 299.6L231.6 290A44.1 44.1 0 0 0 236.6 292Z");
}
}
@keyframes zr12-ani-17 {
0% {
d:path("M236 280.5A33.6 33.6 0 0 1 232.3 278.5L232.3 278.5A33.6 33.6 0 0 0 236 280.5Z");
}
100% {
d:path("M231.6 290A44.1 44.1 0 0 1 226.8 287.5L232.3 278.5A33.6 33.6 0 0 0 236 280.5Z");
}
}
@keyframes zr12-ani-18 {
0% {
d:path("M231.6 290A44.1 44.1 0 0 1 226.8 287.5L226.8 287.5A44.1 44.1 0 0 0 231.6 290Z");
}
100% {
d:path("M227.2 299.6A54.6 54.6 0 0 1 221.3 296.4L226.8 287.5A44.1 44.1 0 0 0 231.6 290Z");
}
}
@keyframes zr12-ani-19 {
0% {
d:path("M232.3 278.5A33.6 33.6 0 0 1 229 276.1L229 276.1A33.6 33.6 0 0 0 232.3 278.5Z");
}
100% {
d:path("M226.8 287.5A44.1 44.1 0 0 1 222.4 284.3L229 276.1A33.6 33.6 0 0 0 232.3 278.5Z");
}
}
@keyframes zr12-ani-20 {
0% {
d:path("M226.8 287.5A44.1 44.1 0 0 1 222.4 284.3L222.4 284.3A44.1 44.1 0 0 0 226.8 287.5Z");
}
100% {
d:path("M221.3 296.4A54.6 54.6 0 0 1 215.8 292.5L222.4 284.3A44.1 44.1 0 0 0 226.8 287.5Z");
}
}
@keyframes zr12-ani-21 {
0% {
d:path("M229 276.1A33.6 33.6 0 0 1 225.9 273.4L225.9 273.4A33.6 33.6 0 0 0 229 276.1Z");
}
100% {
d:path("M222.4 284.3A44.1 44.1 0 0 1 218.4 280.7L225.9 273.4A33.6 33.6 0 0 0 229 276.1Z");
}
}
@keyframes zr12-ani-22 {
0% {
d:path("M222.4 284.3A44.1 44.1 0 0 1 218.4 280.7L218.4 280.7A44.1 44.1 0 0 0 222.4 284.3Z");
}
100% {
d:path("M215.8 292.5A54.6 54.6 0 0 1 210.8 288L218.4 280.7A44.1 44.1 0 0 0 222.4 284.3Z");
}
}
@keyframes zr12-ani-23 {
0% {
d:path("M225.9 273.4A33.6 33.6 0 0 1 223.2 270.2L223.2 270.2A33.6 33.6 0 0 0 225.9 273.4Z");
}
100% {
d:path("M218.4 280.7A44.1 44.1 0 0 1 214.8 276.6L223.2 270.2A33.6 33.6 0 0 0 225.9 273.4Z");
}
}
@keyframes zr12-ani-24 {
0% {
d:path("M218.4 280.7A44.1 44.1 0 0 1 214.8 276.6L214.8 276.6A44.1 44.1 0 0 0 218.4 280.7Z");
}
100% {
d:path("M210.8 288A54.6 54.6 0 0 1 206.4 282.9L214.8 276.6A44.1 44.1 0 0 0 218.4 280.7Z");
}
}
@keyframes zr12-ani-25 {
0% {
d:path("M223.2 270.2A33.6 33.6 0 0 1 220.9 266.8L220.9 266.8A33.6 33.6 0 0 0 223.2 270.2Z");
}
100% {
d:path("M214.8 276.6A44.1 44.1 0 0 1 211.8 272L220.9 266.8A33.6 33.6 0 0 0 223.2 270.2Z");
}
}
@keyframes zr12-ani-26 {
0% {
d:path("M214.8 276.6A44.1 44.1 0 0 1 211.8 272L211.8 272A44.1 44.1 0 0 0 214.8 276.6Z");
}
100% {
d:path("M206.4 282.9A54.6 54.6 0 0 1 202.7 277.3L211.8 272A44.1 44.1 0 0 0 214.8 276.6Z");
}
}
@keyframes zr12-ani-27 {
0% {
d:path("M220.9 266.8A33.6 33.6 0 0 1 219.1 263.1L219.1 263.1A33.6 33.6 0 0 0 220.9 266.8Z");
}
100% {
d:path("M211.8 272A44.1 44.1 0 0 1 209.4 267.2L219.1 263.1A33.6 33.6 0 0 0 220.9 266.8Z");
}
}
@keyframes zr12-ani-28 {
0% {
d:path("M211.8 272A44.1 44.1 0 0 1 209.4 267.2L209.4 267.2A44.1 44.1 0 0 0 211.8 272Z");
}
100% {
d:path("M202.7 277.3A54.6 54.6 0 0 1 199.7 271.3L209.4 267.2A44.1 44.1 0 0 0 211.8 272Z");
}
}
@keyframes zr12-ani-29 {
0% {
d:path("M219.1 263.1A33.6 33.6 0 0 1 217.7 259.2L217.7 259.2A33.6 33.6 0 0 0 219.1 263.1Z");
}
100% {
d:path("M209.4 267.2A44.1 44.1 0 0 1 207.6 262.1L217.7 259.2A33.6 33.6 0 0 0 219.1 263.1Z");
}
}
@keyframes zr12-ani-30 {
0% {
d:path("M209.4 267.2A44.1 44.1 0 0 1 207.6 262.1L207.6 262.1A44.1 44.1 0 0 0 209.4 267.2Z");
}
100% {
d:path("M199.7 271.3A54.6 54.6 0 0 1 197.5 264.9L207.6 262.1A44.1 44.1 0 0 0 209.4 267.2Z");
}
}
@keyframes zr12-ani-31 {
0% {
d:path("M217.7 259.2A33.6 33.6 0 0 1 216.8 255.1L216.8 255.1A33.6 33.6 0 0 0 217.7 259.2Z");
}
100% {
d:path("M207.6 262.1A44.1 44.1 0 0 1 206.4 256.8L216.8 255.1A33.6 33.6 0 0 0 217.7 259.2Z");
}
}
@keyframes zr12-ani-32 {
0% {
d:path("M207.6 262.1A44.1 44.1 0 0 1 206.4 256.8L206.4 256.8A44.1 44.1 0 0 0 207.6 262.1Z");
}
100% {
d:path("M197.5 264.9A54.6 54.6 0 0 1 196 258.4L206.4 256.8A44.1 44.1 0 0 0 207.6 262.1Z");
}
}
@keyframes zr12-ani-33 {
0% {
d:path("M216.8 255.1A33.6 33.6 0 0 1 216.5 251L216.5 251A33.6 33.6 0 0 0 216.8 255.1Z");
}
100% {
d:path("M206.4 256.8A44.1 44.1 0 0 1 205.9 251.4L216.5 251A33.6 33.6 0 0 0 216.8 255.1Z");
}
}
@keyframes zr12-ani-34 {
0% {
d:path("M206.4 256.8A44.1 44.1 0 0 1 205.9 251.4L205.9 251.4A44.1 44.1 0 0 0 206.4 256.8Z");
}
100% {
d:path("M196 258.4A54.6 54.6 0 0 1 195.4 251.7L205.9 251.4A44.1 44.1 0 0 0 206.4 256.8Z");
}
}
@keyframes zr12-ani-35 {
0% {
d:path("M216.5 251A33.6 33.6 0 0 1 216.6 246.9L216.6 246.9A33.6 33.6 0 0 0 216.5 251Z");
}
100% {
d:path("M205.9 251.4A44.1 44.1 0 0 1 206.1 245.9L216.6 246.9A33.6 33.6 0 0 0 216.5 251Z");
}
}
@keyframes zr12-ani-36 {
0% {
d:path("M205.9 251.4A44.1 44.1 0 0 1 206.1 245.9L206.1 245.9A44.1 44.1 0 0 0 205.9 251.4Z");
}
100% {
d:path("M195.4 251.7A54.6 54.6 0 0 1 195.6 245L206.1 245.9A44.1 44.1 0 0 0 205.9 251.4Z");
}
}
@keyframes zr12-ani-37 {
0% {
d:path("M216.6 246.9A33.6 33.6 0 0 1 217.2 242.8L217.2 242.8A33.6 33.6 0 0 0 216.6 246.9Z");
}
100% {
d:path("M206.1 245.9A44.1 44.1 0 0 1 206.9 240.6L217.2 242.8A33.6 33.6 0 0 0 216.6 246.9Z");
}
}
@keyframes zr12-ani-38 {
0% {
d:path("M206.1 245.9A44.1 44.1 0 0 1 206.9 240.6L206.9 240.6A44.1 44.1 0 0 0 206.1 245.9Z");
}
100% {
d:path("M195.6 245A54.6 54.6 0 0 1 196.7 238.3L206.9 240.6A44.1 44.1 0 0 0 206.1 245.9Z");
}
}
@keyframes zr12-ani-39 {
0% {
d:path("M227.5 245.1A23 23 0 0 1 234.5 233L234.5 233A23 23 0 0 0 227.5 245.1Z");
}
100% {
d:path("M217.2 242.8A33.6 33.6 0 0 1 227.4 225.2L234.5 233A23 23 0 0 0 227.5 245.1Z");
}
}
@keyframes zr12-ani-40 {
0% {
d:path("M217.2 242.8A33.6 33.6 0 0 1 222 231.5L222 231.5A33.6 33.6 0 0 0 217.2 242.8Z");
}
100% {
d:path("M206.9 240.6A44.1 44.1 0 0 1 213.3 225.7L222 231.5A33.6 33.6 0 0 0 217.2 242.8Z");
}
}
@keyframes zr12-ani-41 {
0% {
d:path("M206.9 240.6A44.1 44.1 0 0 1 213.3 225.7L213.3 225.7A44.1 44.1 0 0 0 206.9 240.6Z");
}
100% {
d:path("M196.7 238.3A54.6 54.6 0 0 1 204.5 219.8L213.3 225.7A44.1 44.1 0 0 0 206.9 240.6Z");
}
}
@keyframes zr12-ani-42 {
0% {
d:path("M196.7 238.3A54.6 54.6 0 0 1 204.5 219.8L204.5 219.8A54.6 54.6 0 0 0 196.7 238.3Z");
}
100% {
d:path("M186.4 236.1A65.1 65.1 0 0 1 195.7 214L204.5 219.8A54.6 54.6 0 0 0 196.7 238.3Z");
}
}
@keyframes zr12-ani-43 {
0% {
d:path("M186.4 236.1A65.1 65.1 0 0 1 195.7 214L195.7 214A65.1 65.1 0 0 0 186.4 236.1Z");
}
100% {
d:path("M176.1 233.8A75.7 75.7 0 0 1 186.9 208.2L195.7 214A65.1 65.1 0 0 0 186.4 236.1Z");
}
}
@keyframes zr12-ani-44 {
0% {
d:path("M176.1 233.8A75.7 75.7 0 0 1 186.9 208.2L186.9 208.2A75.7 75.7 0 0 0 176.1 233.8Z");
}
100% {
d:path("M165.8 231.6A86.2 86.2 0 0 1 178.2 202.4L186.9 208.2A75.7 75.7 0 0 0 176.1 233.8Z");
}
}
@keyframes zr12-ani-45 {
0% {
d:path("M165.8 231.6A86.2 86.2 0 0 1 178.2 202.4L178.2 202.4A86.2 86.2 0 0 0 165.8 231.6Z");
}
100% {
d:path("M155.5 229.3A96.7 96.7 0 0 1 169.4 196.6L178.2 202.4A86.2 86.2 0 0 0 165.8 231.6Z");
}
}
@keyframes zr12-ani-46 {
0% {
d:path("M155.5 229.3A96.7 96.7 0 0 1 169.4 196.6L169.4 196.6A96.7 96.7 0 0 0 155.5 229.3Z");
}
100% {
d:path("M145.2 227.1A107.2 107.2 0 0 1 160.6 190.8L169.4 196.6A96.7 96.7 0 0 0 155.5 229.3Z");
}
}
@keyframes zr12-ani-47 {
0% {
d:path("M145.2 227.1A107.2 107.2 0 0 1 160.6 190.8L160.6 190.8A107.2 107.2 0 0 0 145.2 227.1Z");
}
100% {
d:path("M135 224.8A117.8 117.8 0 0 1 151.8 185L160.6 190.8A107.2 107.2 0 0 0 145.2 227.1Z");
}
}
@keyframes zr12-ani-48 {
0% {
d:path("M135 224.8A117.8 117.8 0 0 1 151.8 185L151.8 185A117.8 117.8 0 0 0 135 224.8Z");
}
100% {
d:path("M124.7 222.6A128.3 128.3 0 0 1 143.1 179.1L151.8 185A117.8 117.8 0 0 0 135 224.8Z");
}
}
@keyframes zr12-ani-49 {
0% {
d:path("M124.7 222.6A128.3 128.3 0 0 1 143.1 179.1L143.1 179.1A128.3 128.3 0 0 0 124.7 222.6Z");
}
100% {
d:path("M114.4 220.3A138.8 138.8 0 0 1 134.3 173.3L143.1 179.1A128.3 128.3 0 0 0 124.7 222.6Z");
}
}
@keyframes zr12-ani-50 {
0% {
d:path("M114.4 220.3A138.8 138.8 0 0 1 134.3 173.3L134.3 173.3A138.8 138.8 0 0 0 114.4 220.3Z");
}
100% {
d:path("M104.1 218.1A149.3 149.3 0 0 1 125.5 167.5L134.3 173.3A138.8 138.8 0 0 0 114.4 220.3Z");
}
}
@keyframes zr12-ani-51 {
0% {
d:path("M104.1 218.1A149.3 149.3 0 0 1 109.1 200.4L109.1 200.4A149.3 149.3 0 0 0 104.1 218.1Z");
}
100% {
d:path("M93.8 215.8A159.9 159.9 0 0 1 99.2 196.9L109.1 200.4A149.3 149.3 0 0 0 104.1 218.1Z");
}
}
@keyframes zr12-ani-52 {
0% {
d:path("M109.1 200.4A149.3 149.3 0 0 1 116.3 183.4L116.3 183.4A149.3 149.3 0 0 0 109.1 200.4Z");
}
100% {
d:path("M99.2 196.9A159.9 159.9 0 0 1 106.9 178.7L116.3 183.4A149.3 149.3 0 0 0 109.1 200.4Z");
}
}
@keyframes zr12-ani-53 {
0% {
d:path("M116.3 183.4A149.3 149.3 0 0 1 125.5 167.5L125.5 167.5A149.3 149.3 0 0 0 116.3 183.4Z");
}
100% {
d:path("M106.9 178.7A159.9 159.9 0 0 1 116.7 161.7L125.5 167.5A149.3 149.3 0 0 0 116.3 183.4Z");
}
}
@keyframes zr12-ani-54 {
0% {
d:path("M106.9 178.7A159.9 159.9 0 0 1 116.7 161.7L116.7 161.7A159.9 159.9 0 0 0 106.9 178.7Z");
}
100% {
d:path("M97.5 174A170.4 170.4 0 0 1 108 155.9L116.7 161.7A159.9 159.9 0 0 0 106.9 178.7Z");
}
}
@keyframes zr12-ani-55 {
0% {
d:path("M97.5 174A170.4 170.4 0 0 1 108 155.9L108 155.9A170.4 170.4 0 0 0 97.5 174Z");
}
100% {
d:path("M88 169.4A180.9 180.9 0 0 1 99.2 150.1L108 155.9A170.4 170.4 0 0 0 97.5 174Z");
}
}
@keyframes zr12-ani-56 {
0% {
d:path("M88 169.4A180.9 180.9 0 0 1 99.2 150.1L99.2 150.1A180.9 180.9 0 0 0 88 169.4Z");
}
100% {
d:path("M78.6 164.7A191.4 191.4 0 0 1 90.4 144.3L99.2 150.1A180.9 180.9 0 0 0 88 169.4Z");
}
}
@keyframes zr12-ani-57 {
0% {
d:path("M78.6 164.7A191.4 191.4 0 0 1 90.4 144.3L90.4 144.3A191.4 191.4 0 0 0 78.6 164.7Z");
}
100% {
d:path("M69.2 160A202 202 0 0 1 81.6 138.4L90.4 144.3A191.4 191.4 0 0 0 78.6 164.7Z");
}
}
@keyframes zr12-ani-58 {
0% {
d:path("M69.2 160A202 202 0 0 1 81.6 138.4L81.6 138.4A202 202 0 0 0 69.2 160Z");
}
100% {
d:path("M59.8 155.3A212.5 212.5 0 0 1 72.9 132.6L81.6 138.4A202 202 0 0 0 69.2 160Z");
}
}
@keyframes zr12-ani-59 {
0% {
d:path("M222 231.5A33.6 33.6 0 0 1 224.5 228.2L224.5 228.2A33.6 33.6 0 0 0 222 231.5Z");
}
100% {
d:path("M213.3 225.7A44.1 44.1 0 0 1 216.5 221.3L224.5 228.2A33.6 33.6 0 0 0 222 231.5Z");
}
}
@keyframes zr12-ani-60 {
0% {
d:path("M213.3 225.7A44.1 44.1 0 0 1 216.5 221.3L216.5 221.3A44.1 44.1 0 0 0 213.3 225.7Z");
}
100% {
d:path("M204.5 219.8A54.6 54.6 0 0 1 208.5 214.5L216.5 221.3A44.1 44.1 0 0 0 213.3 225.7Z");
}
}
@keyframes zr12-ani-61 {
0% {
d:path("M204.5 219.8A54.6 54.6 0 0 1 208.5 214.5L208.5 214.5A54.6 54.6 0 0 0 204.5 219.8Z");
}
100% {
d:path("M195.7 214A65.1 65.1 0 0 1 200.5 207.6L208.5 214.5A54.6 54.6 0 0 0 204.5 219.8Z");
}
}
@keyframes zr12-ani-62 {
0% {
d:path("M195.7 214A65.1 65.1 0 0 1 200.5 207.6L200.5 207.6A65.1 65.1 0 0 0 195.7 214Z");
}
100% {
d:path("M186.9 208.2A75.7 75.7 0 0 1 192.5 200.8L200.5 207.6A65.1 65.1 0 0 0 195.7 214Z");
}
}
@keyframes zr12-ani-63 {
0% {
d:path("M186.9 208.2A75.7 75.7 0 0 1 192.5 200.8L192.5 200.8A75.7 75.7 0 0 0 186.9 208.2Z");
}
100% {
d:path("M178.2 202.4A86.2 86.2 0 0 1 184.6 193.9L192.5 200.8A75.7 75.7 0 0 0 186.9 208.2Z");
}
}
@keyframes zr12-ani-64 {
0% {
d:path("M178.2 202.4A86.2 86.2 0 0 1 184.6 193.9L184.6 193.9A86.2 86.2 0 0 0 178.2 202.4Z");
}
100% {
d:path("M169.4 196.6A96.7 96.7 0 0 1 176.6 187.1L184.6 193.9A86.2 86.2 0 0 0 178.2 202.4Z");
}
}
@keyframes zr12-ani-65 {
0% {
d:path("M169.4 196.6A96.7 96.7 0 0 1 176.6 187.1L176.6 187.1A96.7 96.7 0 0 0 169.4 196.6Z");
}
100% {
d:path("M160.6 190.8A107.2 107.2 0 0 1 168.6 180.2L176.6 187.1A96.7 96.7 0 0 0 169.4 196.6Z");
}
}
@keyframes zr12-ani-66 {
0% {
d:path("M160.6 190.8A107.2 107.2 0 0 1 168.6 180.2L168.6 180.2A107.2 107.2 0 0 0 160.6 190.8Z");
}
100% {
d:path("M151.8 185A117.8 117.8 0 0 1 160.6 173.4L168.6 180.2A107.2 107.2 0 0 0 160.6 190.8Z");
}
}
@keyframes zr12-ani-67 {
0% {
d:path("M151.8 185A117.8 117.8 0 0 1 160.6 173.4L160.6 173.4A117.8 117.8 0 0 0 151.8 185Z");
}
100% {
d:path("M143.1 179.1A128.3 128.3 0 0 1 152.6 166.5L160.6 173.4A117.8 117.8 0 0 0 151.8 185Z");
}
}
@keyframes zr12-ani-68 {
0% {
d:path("M143.1 179.1A128.3 128.3 0 0 1 152.6 166.5L152.6 166.5A128.3 128.3 0 0 0 143.1 179.1Z");
}
100% {
d:path("M134.3 173.3A138.8 138.8 0 0 1 144.6 159.7L152.6 166.5A128.3 128.3 0 0 0 143.1 179.1Z");
}
}
@keyframes zr12-ani-69 {
0% {
d:path("M134.3 173.3A138.8 138.8 0 0 1 144.6 159.7L144.6 159.7A138.8 138.8 0 0 0 134.3 173.3Z");
}
100% {
d:path("M125.5 167.5A149.3 149.3 0 0 1 136.6 152.8L144.6 159.7A138.8 138.8 0 0 0 134.3 173.3Z");
}
}
@keyframes zr12-ani-70 {
0% {
d:path("M125.5 167.5A149.3 149.3 0 0 1 136.6 152.8L136.6 152.8A149.3 149.3 0 0 0 125.5 167.5Z");
}
100% {
d:path("M116.7 161.7A159.9 159.9 0 0 1 128.6 146L136.6 152.8A149.3 149.3 0 0 0 125.5 167.5Z");
}
}
@keyframes zr12-ani-71 {
0% {
d:path("M224.5 228.2A33.6 33.6 0 0 1 227.4 225.2L227.4 225.2A33.6 33.6 0 0 0 224.5 228.2Z");
}
100% {
d:path("M216.5 221.3A44.1 44.1 0 0 1 220.3 217.4L227.4 225.2A33.6 33.6 0 0 0 224.5 228.2Z");
}
}
@keyframes zr12-ani-72 {
0% {
d:path("M216.5 221.3A44.1 44.1 0 0 1 220.3 217.4L220.3 217.4A44.1 44.1 0 0 0 216.5 221.3Z");
}
100% {
d:path("M208.5 214.5A54.6 54.6 0 0 1 213.2 209.6L220.3 217.4A44.1 44.1 0 0 0 216.5 221.3Z");
}
}
@keyframes zr12-ani-73 {
0% {
d:path("M208.5 214.5A54.6 54.6 0 0 1 213.2 209.6L213.2 209.6A54.6 54.6 0 0 0 208.5 214.5Z");
}
100% {
d:path("M200.5 207.6A65.1 65.1 0 0 1 206.1 201.9L213.2 209.6A54.6 54.6 0 0 0 208.5 214.5Z");
}
}
@keyframes zr12-ani-74 {
0% {
d:path("M200.5 207.6A65.1 65.1 0 0 1 206.1 201.9L206.1 201.9A65.1 65.1 0 0 0 200.5 207.6Z");
}
100% {
d:path("M192.5 200.8A75.7 75.7 0 0 1 199 194.1L206.1 201.9A65.1 65.1 0 0 0 200.5 207.6Z");
}
}
@keyframes zr12-ani-75 {
0% {
d:path("M234.5 233A23 23 0 0 1 239.1 229.7L239.1 229.7A23 23 0 0 0 234.5 233Z");
}
100% {
d:path("M227.4 225.2A33.6 33.6 0 0 1 234.1 220.4L239.1 229.7A23 23 0 0 0 234.5 233Z");
}
}
@keyframes zr12-ani-76 {
0% {
d:path("M227.4 225.2A33.6 33.6 0 0 1 234.1 220.4L234.1 220.4A33.6 33.6 0 0 0 227.4 225.2Z");
}
100% {
d:path("M220.3 217.4A44.1 44.1 0 0 1 229.1 211.2L234.1 220.4A33.6 33.6 0 0 0 227.4 225.2Z");
}
}
@keyframes zr12-ani-77 {
0% {
d:path("M220.3 217.4A44.1 44.1 0 0 1 224.5 214L224.5 214A44.1 44.1 0 0 0 220.3 217.4Z");
}
100% {
d:path("M213.2 209.6A54.6 54.6 0 0 1 218.5 205.4L224.5 214A44.1 44.1 0 0 0 220.3 217.4Z");
}
}
@keyframes zr12-ani-78 {
0% {
d:path("M224.5 214A44.1 44.1 0 0 1 229.1 211.2L229.1 211.2A44.1 44.1 0 0 0 224.5 214Z");
}
100% {
d:path("M218.5 205.4A54.6 54.6 0 0 1 224.2 201.9L229.1 211.2A44.1 44.1 0 0 0 224.5 214Z");
}
}
@keyframes zr12-ani-79 {
0% {
d:path("M244.1 239A12.5 12.5 0 0 1 250 237.5L250 237.5A12.5 12.5 0 0 0 244.1 239Z");
}
100% {
d:path("M239.1 229.7A23 23 0 0 1 250 227L250 237.5A12.5 12.5 0 0 0 244.1 239Z");
}
}
@keyframes zr12-ani-80 {
0% {
d:path("M239.1 229.7A23 23 0 0 1 250 227L250 227A23 23 0 0 0 239.1 229.7Z");
}
100% {
d:path("M234.1 220.4A33.6 33.6 0 0 1 250 216.4L250 227A23 23 0 0 0 239.1 229.7Z");
}
}
@keyframes zr12-ani-81 {
0% {
d:path("M234.1 220.4A33.6 33.6 0 0 1 237.9 218.7L237.9 218.7A33.6 33.6 0 0 0 234.1 220.4Z");
}
100% {
d:path("M229.1 211.2A44.1 44.1 0 0 1 234.1 208.9L237.9 218.7A33.6 33.6 0 0 0 234.1 220.4Z");
}
}
@keyframes zr12-ani-82 {
0% {
d:path("M237.9 218.7A33.6 33.6 0 0 1 241.8 217.5L241.8 217.5A33.6 33.6 0 0 0 237.9 218.7Z");
}
100% {
d:path("M234.1 208.9A44.1 44.1 0 0 1 239.2 207.3L241.8 217.5A33.6 33.6 0 0 0 237.9 218.7Z");
}
}
@keyframes zr12-ani-83 {
0% {
d:path("M241.8 217.5A33.6 33.6 0 0 1 245.9 216.7L245.9 216.7A33.6 33.6 0 0 0 241.8 217.5Z");
}
100% {
d:path("M239.2 207.3A44.1 44.1 0 0 1 244.6 206.3L245.9 216.7A33.6 33.6 0 0 0 241.8 217.5Z");
}
}
@keyframes zr12-ani-84 {
0% {
d:path("M245.9 216.7A33.6 33.6 0 0 1 250 216.4L250 216.4A33.6 33.6 0 0 0 245.9 216.7Z");
}
100% {
d:path("M244.6 206.3A44.1 44.1 0 0 1 250 205.9L250 216.4A33.6 33.6 0 0 0 245.9 216.7Z");
}
}
]]>

</style>
</svg>