<svg width="500" height="500" xmlns="http://www.w3.org/2000/svg" xmlns:xlink="http://www.w3.org/1999/xlink" version="1.1" baseProfile="full" viewBox="0 0 500 500">
<rect width="500" height="500" x="0" y="0" id="0" fill="none"></rect>
<path d="M250 219.3A30.7 30.7 0 1 1 226.5 269.7L240.4 258A12.5 12.5 0 1 0 250 237.5Z" fill="#C8C8C8" stroke="white" stroke-linejoin="bevel" class="zr134-cls-0"></path>
<path d="M250 201.1A48.9 48.9 0 1 1 212.6 281.4L226.5 269.7A30.7 30.7 0 1 0 250 219.3Z" fill="#C8C8C8" stroke="white" stroke-linejoin="bevel" class="zr134-cls-1"></path>
<path d="M226.5 269.7A30.7 30.7 0 0 1 250 219.3L250 237.5A12.5 12.5 0 0 0 240.4 258Z" fill="#000" stroke="white" stroke-linejoin="bevel" class="zr134-cls-2"></path>
<path d="M212.6 281.4A48.9 48.9 0 0 1 212.6 218.6L226.5 230.3A30.7 30.7 0 0 0 226.5 269.7Z" fill="#49ff49" fill-opacity="0.5" stroke="#fff" stroke-width="4" stroke-opacity="0.5" stroke-linejoin="bevel" class="zr134-cls-3"></path>
<path d="M198.6 293.1A67 67 0 0 1 184 261.6L201.9 258.5A48.9 48.9 0 0 0 212.6 281.4Z" fill="#000" stroke="white" stroke-linejoin="bevel" class="zr134-cls-4"></path>
<path d="M184.7 304.8A85.2 85.2 0 0 1 176.2 292.6L191.9 283.5A67 67 0 0 0 198.6 293.1Z" fill="#FF0000" stroke="white" stroke-linejoin="bevel" class="zr134-cls-5"></path>
<path d="M176.2 292.6A85.2 85.2 0 0 1 169.9 279.1L187 272.9A67 67 0 0 0 191.9 283.5Z" fill="#0AA40D" stroke="white" stroke-linejoin="bevel" class="zr134-cls-6"></path>
<path d="M169.9 279.1A85.2 85.2 0 0 1 166.1 264.8L184 261.6A67 67 0 0 0 187 272.9Z" fill="#F3C142" stroke="white" stroke-linejoin="bevel" class="zr134-cls-7"></path>
<path d="M184 261.6A67 67 0 0 1 183 250L201.1 250A48.9 48.9 0 0 0 201.9 258.5Z" fill="#000" stroke="white" stroke-linejoin="bevel" class="zr134-cls-8"></path>
<path d="M166.1 264.8A85.2 85.2 0 0 1 164.8 250L183 250A67 67 0 0 0 184 261.6Z" fill="#FF0000" stroke="white" stroke-linejoin="bevel" class="zr134-cls-9"></path>
<path d="M183 250A67 67 0 0 1 184 238.4L201.9 241.5A48.9 48.9 0 0 0 201.1 250Z" fill="#000" stroke="white" stroke-linejoin="bevel" class="zr134-cls-10"></path>
<path d="M164.8 250A85.2 85.2 0 0 1 166.1 235.2L184 238.4A67 67 0 0 0 183 250Z" fill="#0AA40D" stroke="white" stroke-linejoin="bevel" class="zr134-cls-11"></path>
<path d="M184 238.4A67 67 0 0 1 187 227.1L204.1 233.3A48.9 48.9 0 0 0 201.9 241.5Z" fill="#000" stroke="white" stroke-linejoin="bevel" class="zr134-cls-12"></path>
<path d="M166.1 235.2A85.2 85.2 0 0 1 169.9 220.9L187 227.1A67 67 0 0 0 184 238.4Z" fill="#FF0000" stroke="white" stroke-linejoin="bevel" class="zr134-cls-13"></path>
<path d="M187 227.1A67 67 0 0 1 191.9 216.5L207.7 225.6A48.9 48.9 0 0 0 204.1 233.3Z" fill="#000" stroke="white" stroke-linejoin="bevel" class="zr134-cls-14"></path>
<path d="M169.9 220.9A85.2 85.2 0 0 1 176.2 207.4L191.9 216.5A67 67 0 0 0 187 227.1Z" fill="#FF0000" stroke="white" stroke-linejoin="bevel" class="zr134-cls-15"></path>
<path d="M191.9 216.5A67 67 0 0 1 198.6 206.9L212.6 218.6A48.9 48.9 0 0 0 207.7 225.6Z" fill="#000" stroke="white" stroke-linejoin="bevel" class="zr134-cls-16"></path>
<path d="M176.2 207.4A85.2 85.2 0 0 1 184.7 195.2L198.6 206.9A67 67 0 0 0 191.9 216.5Z" fill="#FF0000" stroke="white" stroke-linejoin="bevel" class="zr134-cls-17"></path>
<path d="M212.6 218.6A48.9 48.9 0 0 1 250 201.1L250 219.3A30.7 30.7 0 0 0 226.5 230.3Z" fill="#4949CD" fill-opacity="0.5" stroke="#fff" stroke-width="4" stroke-opacity="0.5" stroke-linejoin="bevel" class="zr134-cls-18"></path>
<path d="M198.6 206.9A67 67 0 0 1 216.5 191.9L225.6 207.7A48.9 48.9 0 0 0 212.6 218.6Z" fill="#000" stroke="white" stroke-linejoin="bevel" class="zr134-cls-19"></path>
<path d="M184.7 195.2A85.2 85.2 0 0 1 207.4 176.2L216.5 191.9A67 67 0 0 0 198.6 206.9Z" fill="#000" stroke="white" stroke-linejoin="bevel" class="zr134-cls-20"></path>
<path d="M170.8 183.5A103.4 103.4 0 0 1 183.5 170.8L195.2 184.7A85.2 85.2 0 0 0 184.7 195.2Z" fill="#4949CD" fill-opacity="0.5" stroke="#fff" stroke-width="4" stroke-opacity="0.5" stroke-linejoin="bevel" class="zr134-cls-21"></path>
<path d="M156.9 171.8A121.6 121.6 0 0 1 171.8 156.9L183.5 170.8A103.4 103.4 0 0 0 170.8 183.5Z" fill="#0AA40D" stroke="white" stroke-linejoin="bevel" class="zr134-cls-22"></path>
<path d="M142.9 160.2A139.8 139.8 0 0 1 160.2 142.9L171.8 156.9A121.6 121.6 0 0 0 156.9 171.8Z" fill="#000" stroke="white" stroke-linejoin="bevel" class="zr134-cls-23"></path>
<path d="M129 148.5A158 158 0 0 1 148.5 129L160.2 142.9A139.8 139.8 0 0 0 142.9 160.2Z" fill="#4949CD" fill-opacity="0.5" stroke="#fff" stroke-width="4" stroke-opacity="0.5" stroke-linejoin="bevel" class="zr134-cls-24"></path>
<path d="M115.1 136.8A176.1 176.1 0 0 1 136.8 115.1L148.5 129A158 158 0 0 0 129 148.5Z" fill="#000" stroke="white" stroke-linejoin="bevel" class="zr134-cls-25"></path>
<path d="M101.1 125.1A194.3 194.3 0 0 1 125.1 101.1L136.8 115.1A176.1 176.1 0 0 0 115.1 136.8Z" fill="#000" stroke="white" stroke-linejoin="bevel" class="zr134-cls-26"></path>
<path d="M87.2 113.4A212.5 212.5 0 0 1 113.4 87.2L125.1 101.1A194.3 194.3 0 0 0 101.1 125.1Z" fill="#C8C8C8" stroke="white" stroke-linejoin="bevel" class="zr134-cls-27"></path>
<path d="M183.5 170.8A103.4 103.4 0 0 1 198.3 160.4L207.4 176.2A85.2 85.2 0 0 0 195.2 184.7Z" fill="#49ff49" fill-opacity="0.5" stroke="#fff" stroke-width="4" stroke-opacity="0.5" stroke-linejoin="bevel" class="zr134-cls-28"></path>
<path d="M171.8 156.9A121.6 121.6 0 0 1 189.2 144.7L198.3 160.4A103.4 103.4 0 0 0 183.5 170.8Z" fill="#FF0000" stroke="white" stroke-linejoin="bevel" class="zr134-cls-29"></path>
<path d="M216.5 191.9A67 67 0 0 1 227.1 187L233.3 204.1A48.9 48.9 0 0 0 225.6 207.7Z" fill="#000" stroke="white" stroke-linejoin="bevel" class="zr134-cls-30"></path>
<path d="M207.4 176.2A85.2 85.2 0 0 1 220.9 169.9L227.1 187A67 67 0 0 0 216.5 191.9Z" fill="#000" stroke="white" stroke-linejoin="bevel" class="zr134-cls-31"></path>
<path d="M198.3 160.4A103.4 103.4 0 0 1 214.6 152.8L220.9 169.9A85.2 85.2 0 0 0 207.4 176.2Z" fill="#49ff49" fill-opacity="0.5" stroke="#fff" stroke-width="4" stroke-opacity="0.5" stroke-linejoin="bevel" class="zr134-cls-32"></path>
<path d="M189.2 144.7A121.6 121.6 0 0 1 208.4 135.7L214.6 152.8A103.4 103.4 0 0 0 198.3 160.4Z" fill="#FF0000" stroke="white" stroke-linejoin="bevel" class="zr134-cls-33"></path>
<path d="M227.1 187A67 67 0 0 1 238.4 184L241.5 201.9A48.9 48.9 0 0 0 233.3 204.1Z" fill="#000" stroke="white" stroke-linejoin="bevel" class="zr134-cls-34"></path>
<path d="M220.9 169.9A85.2 85.2 0 0 1 235.2 166.1L238.4 184A67 67 0 0 0 227.1 187Z" fill="#000" stroke="white" stroke-linejoin="bevel" class="zr134-cls-35"></path>
<path d="M214.6 152.8A103.4 103.4 0 0 1 232 148.2L235.2 166.1A85.2 85.2 0 0 0 220.9 169.9Z" fill="#4949CD" fill-opacity="0.5" stroke="#fff" stroke-width="4" stroke-opacity="0.5" stroke-linejoin="bevel" class="zr134-cls-36"></path>
<path d="M208.4 135.7A121.6 121.6 0 0 1 228.9 130.3L232 148.2A103.4 103.4 0 0 0 214.6 152.8Z" fill="#0AA40D" stroke="white" stroke-linejoin="bevel" class="zr134-cls-37"></path>
<path d="M202.2 118.7A139.8 139.8 0 0 1 225.7 112.4L228.9 130.3A121.6 121.6 0 0 0 208.4 135.7Z" fill="#C8C8C8" stroke="white" stroke-linejoin="bevel" class="zr134-cls-38"></path>
<path d="M196 101.6A158 158 0 0 1 222.6 94.4L225.7 112.4A139.8 139.8 0 0 0 202.2 118.7Z" fill="#49ff49" fill-opacity="0.5" stroke="#fff" stroke-width="4" stroke-opacity="0.5" stroke-linejoin="bevel" class="zr134-cls-39"></path>
<path d="M189.8 84.5A176.1 176.1 0 0 1 219.4 76.5L222.6 94.4A158 158 0 0 0 196 101.6Z" fill="#C8C8C8" stroke="white" stroke-linejoin="bevel" class="zr134-cls-40"></path>
<path d="M238.4 184A67 67 0 0 1 250 183L250 201.1A48.9 48.9 0 0 0 241.5 201.9Z" fill="#000" stroke="white" stroke-linejoin="bevel" class="zr134-cls-41"></path>
<path d="M235.2 166.1A85.2 85.2 0 0 1 250 164.8L250 183A67 67 0 0 0 238.4 184Z" fill="#000" stroke="white" stroke-linejoin="bevel" class="zr134-cls-42"></path>
<path d="M232 148.2A103.4 103.4 0 0 1 250 146.6L250 164.8A85.2 85.2 0 0 0 235.2 166.1Z" fill="#4949CD" fill-opacity="0.5" stroke="#fff" stroke-width="4" stroke-opacity="0.5" stroke-linejoin="bevel" class="zr134-cls-43"></path>
<path d="M228.9 130.3A121.6 121.6 0 0 1 250 128.4L250 146.6A103.4 103.4 0 0 0 232 148.2Z" fill="#FF0000" stroke="white" stroke-linejoin="bevel" class="zr134-cls-44"></path>
<path d="M225.7 112.4A139.8 139.8 0 0 1 250 110.2L250 128.4A121.6 121.6 0 0 0 228.9 130.3Z" fill="#000" stroke="white" stroke-linejoin="bevel" class="zr134-cls-45"></path>
<path d="M222.6 94.4A158 158 0 0 1 250 92L250 110.2A139.8 139.8 0 0 0 225.7 112.4Z" fill="#ff4949" fill-opacity="0.5" stroke="#fff" stroke-width="4" stroke-opacity="0.5" stroke-linejoin="bevel" class="zr134-cls-46"></path>
<path d="M219.4 76.5A176.1 176.1 0 0 1 250 73.9L250 92A158 158 0 0 0 222.6 94.4Z" fill="#000" stroke="white" stroke-linejoin="bevel" class="zr134-cls-47"></path>
<path d="M216.3 58.6A194.3 194.3 0 0 1 250 55.7L250 73.9A176.1 176.1 0 0 0 219.4 76.5Z" fill="#000" stroke="white" stroke-linejoin="bevel" class="zr134-cls-48"></path>
<text dominant-baseline="central" text-anchor="middle" style="font-size:12px;font-family:sans-serif;" transform="matrix(0.423,-0.906,0.906,0.423,269.568,259.1247)" fill="#333">info</text>
<text dominant-baseline="central" text-anchor="middle" style="font-size:10px;font-family:sans-serif;" transform="matrix(0.423,-0.906,0.906,0.423,286.0463,266.8087)" fill="#333">version</text>
<text dominant-baseline="central" text-anchor="middle" style="font-size:12px;font-family:sans-serif;" transform="matrix(0.423,-0.906,0.906,0.423,230.432,240.8753)" fill="#ccc" stroke="#000" stroke-width="2" paint-order="stroke" stroke-miterlimit="2">paths</text>
<text dominant-baseline="central" text-anchor="middle" style="font-size:9px;font-family:sans-serif;" transform="matrix(0.423,0.906,-0.906,0.423,197.4753,274.4926)" fill="#ccc" stroke="#000" stroke-width="2" paint-order="stroke" stroke-miterlimit="2">/devicestatus/</text>
<text dominant-baseline="central" text-anchor="middle" style="font-size:9px;font-family:sans-serif;" transform="matrix(0.766,-0.643,0.643,0.766,212.7475,205.6042)" fill="#ccc" stroke="#000" stroke-width="2" paint-order="stroke" stroke-miterlimit="2">/treatments</text>
<text dominant-baseline="central" text-anchor="middle" style="font-size:9px;font-family:sans-serif;" transform="matrix(0.766,-0.643,0.643,0.766,201.0605,191.6762)" fill="#ccc" stroke="#000" stroke-width="2" paint-order="stroke" stroke-miterlimit="2">operations</text>
<path d="M-14.8 -16l66.6 0l0 32l-66.6 0Z" transform="translate(448.253 16)" fill="none" stroke="#ccc" stroke-width="0"></path>
<path d="M-7.3 -1.8L-0.1 4.8L7.3 -1.6M-7.3 4.3L-7.3 8.5L7.1 8.5L7.1 4.3M-0.1 4.7L-0.1 -8.5" transform="translate(448.253 16)" fill="none" stroke="#666"></path>
<path d="M-7.9 1M5.1 -3.4L8.1 -3.4L8.1 -6.4M8 -3C6.7 -6.4 3.2 -8.9 -1 -8.4C-5.3 -8 -8.6 -4.2 -8.4 0.2M-5.1 3.4L-8.1 3.4L-8.1 6.4M-8 3C-6.7 6.4 -3.2 8.9 1 8.4C5.3 8 8.6 4.2 8.4 -0.2" transform="translate(484.0476 16)" fill="none" stroke="#666"></path>
<style ><![CDATA[
.zr134-cls-0 {
animation:zr134-ani-0 1s cubic-bezier(0.65,0,0.35,1) both;
}
.zr134-cls-1 {
animation:zr134-ani-1 1s cubic-bezier(0.65,0,0.35,1) both;
}
.zr134-cls-2 {
animation:zr134-ani-2 1s cubic-bezier(0.65,0,0.35,1) both;
}
.zr134-cls-3 {
animation:zr134-ani-3 1s cubic-bezier(0.65,0,0.35,1) both;
}
.zr134-cls-4 {
animation:zr134-ani-4 1s cubic-bezier(0.65,0,0.35,1) both;
}
.zr134-cls-5 {
animation:zr134-ani-5 1s cubic-bezier(0.65,0,0.35,1) both;
}
.zr134-cls-6 {
animation:zr134-ani-6 1s cubic-bezier(0.65,0,0.35,1) both;
}
.zr134-cls-7 {
animation:zr134-ani-7 1s cubic-bezier(0.65,0,0.35,1) both;
}
.zr134-cls-8 {
animation:zr134-ani-8 1s cubic-bezier(0.65,0,0.35,1) both;
}
.zr134-cls-9 {
animation:zr134-ani-9 1s cubic-bezier(0.65,0,0.35,1) both;
}
.zr134-cls-10 {
animation:zr134-ani-10 1s cubic-bezier(0.65,0,0.35,1) both;
}
.zr134-cls-11 {
animation:zr134-ani-11 1s cubic-bezier(0.65,0,0.35,1) both;
}
.zr134-cls-12 {
animation:zr134-ani-12 1s cubic-bezier(0.65,0,0.35,1) both;
}
.zr134-cls-13 {
animation:zr134-ani-13 1s cubic-bezier(0.65,0,0.35,1) both;
}
.zr134-cls-14 {
animation:zr134-ani-14 1s cubic-bezier(0.65,0,0.35,1) both;
}
.zr134-cls-15 {
animation:zr134-ani-15 1s cubic-bezier(0.65,0,0.35,1) both;
}
.zr134-cls-16 {
animation:zr134-ani-16 1s cubic-bezier(0.65,0,0.35,1) both;
}
.zr134-cls-17 {
animation:zr134-ani-17 1s cubic-bezier(0.65,0,0.35,1) both;
}
.zr134-cls-18 {
animation:zr134-ani-18 1s cubic-bezier(0.65,0,0.35,1) both;
}
.zr134-cls-19 {
animation:zr134-ani-19 1s cubic-bezier(0.65,0,0.35,1) both;
}
.zr134-cls-20 {
animation:zr134-ani-20 1s cubic-bezier(0.65,0,0.35,1) both;
}
.zr134-cls-21 {
animation:zr134-ani-21 1s cubic-bezier(0.65,0,0.35,1) both;
}
.zr134-cls-22 {
animation:zr134-ani-22 1s cubic-bezier(0.65,0,0.35,1) both;
}
.zr134-cls-23 {
animation:zr134-ani-23 1s cubic-bezier(0.65,0,0.35,1) both;
}
.zr134-cls-24 {
animation:zr134-ani-24 1s cubic-bezier(0.65,0,0.35,1) both;
}
.zr134-cls-25 {
animation:zr134-ani-25 1s cubic-bezier(0.65,0,0.35,1) both;
}
.zr134-cls-26 {
animation:zr134-ani-26 1s cubic-bezier(0.65,0,0.35,1) both;
}
.zr134-cls-27 {
animation:zr134-ani-27 1s cubic-bezier(0.65,0,0.35,1) both;
}
.zr134-cls-28 {
animation:zr134-ani-28 1s cubic-bezier(0.65,0,0.35,1) both;
}
.zr134-cls-29 {
animation:zr134-ani-29 1s cubic-bezier(0.65,0,0.35,1) both;
}
.zr134-cls-30 {
animation:zr134-ani-30 1s cubic-bezier(0.65,0,0.35,1) both;
}
.zr134-cls-31 {
animation:zr134-ani-31 1s cubic-bezier(0.65,0,0.35,1) both;
}
.zr134-cls-32 {
animation:zr134-ani-32 1s cubic-bezier(0.65,0,0.35,1) both;
}
.zr134-cls-33 {
animation:zr134-ani-33 1s cubic-bezier(0.65,0,0.35,1) both;
}
.zr134-cls-34 {
animation:zr134-ani-34 1s cubic-bezier(0.65,0,0.35,1) both;
}
.zr134-cls-35 {
animation:zr134-ani-35 1s cubic-bezier(0.65,0,0.35,1) both;
}
.zr134-cls-36 {
animation:zr134-ani-36 1s cubic-bezier(0.65,0,0.35,1) both;
}
.zr134-cls-37 {
animation:zr134-ani-37 1s cubic-bezier(0.65,0,0.35,1) both;
}
.zr134-cls-38 {
animation:zr134-ani-38 1s cubic-bezier(0.65,0,0.35,1) both;
}
.zr134-cls-39 {
animation:zr134-ani-39 1s cubic-bezier(0.65,0,0.35,1) both;
}
.zr134-cls-40 {
animation:zr134-ani-40 1s cubic-bezier(0.65,0,0.35,1) both;
}
.zr134-cls-41 {
animation:zr134-ani-41 1s cubic-bezier(0.65,0,0.35,1) both;
}
.zr134-cls-42 {
animation:zr134-ani-42 1s cubic-bezier(0.65,0,0.35,1) both;
}
.zr134-cls-43 {
animation:zr134-ani-43 1s cubic-bezier(0.65,0,0.35,1) both;
}
.zr134-cls-44 {
animation:zr134-ani-44 1s cubic-bezier(0.65,0,0.35,1) both;
}
.zr134-cls-45 {
animation:zr134-ani-45 1s cubic-bezier(0.65,0,0.35,1) both;
}
.zr134-cls-46 {
animation:zr134-ani-46 1s cubic-bezier(0.65,0,0.35,1) both;
}
.zr134-cls-47 {
animation:zr134-ani-47 1s cubic-bezier(0.65,0,0.35,1) both;
}
.zr134-cls-48 {
animation:zr134-ani-48 1s cubic-bezier(0.65,0,0.35,1) both;
}
@keyframes zr134-ani-0 {
0% {
d:path("M250 237.5A12.5 12.5 0 1 1 240.4 258A12.5 12.5 0 1 0 250 237.5Z");
}
100% {
d:path("M250 219.3A30.7 30.7 0 1 1 226.5 269.7L240.4 258A12.5 12.5 0 1 0 250 237.5Z");
}
}
@keyframes zr134-ani-1 {
0% {
d:path("M250 219.3A30.7 30.7 0 1 1 226.5 269.7L226.5 269.7A30.7 30.7 0 1 0 250 219.3Z");
}
100% {
d:path("M250 201.1A48.9 48.9 0 1 1 212.6 281.4L226.5 269.7A30.7 30.7 0 1 0 250 219.3Z");
}
}
@keyframes zr134-ani-2 {
0% {
d:path("M240.4 258A12.5 12.5 0 0 1 250 237.5L250 237.5A12.5 12.5 0 0 0 240.4 258Z");
}
100% {
d:path("M226.5 269.7A30.7 30.7 0 0 1 250 219.3L250 237.5A12.5 12.5 0 0 0 240.4 258Z");
}
}
@keyframes zr134-ani-3 {
0% {
d:path("M226.5 269.7A30.7 30.7 0 0 1 226.5 230.3L226.5 230.3A30.7 30.7 0 0 0 226.5 269.7Z");
}
100% {
d:path("M212.6 281.4A48.9 48.9 0 0 1 212.6 218.6L226.5 230.3A30.7 30.7 0 0 0 226.5 269.7Z");
}
}
@keyframes zr134-ani-4 {
0% {
d:path("M212.6 281.4A48.9 48.9 0 0 1 201.9 258.5L201.9 258.5A48.9 48.9 0 0 0 212.6 281.4Z");
}
100% {
d:path("M198.6 293.1A67 67 0 0 1 184 261.6L201.9 258.5A48.9 48.9 0 0 0 212.6 281.4Z");
}
}
@keyframes zr134-ani-5 {
0% {
d:path("M198.6 293.1A67 67 0 0 1 191.9 283.5L191.9 283.5A67 67 0 0 0 198.6 293.1Z");
}
100% {
d:path("M184.7 304.8A85.2 85.2 0 0 1 176.2 292.6L191.9 283.5A67 67 0 0 0 198.6 293.1Z");
}
}
@keyframes zr134-ani-6 {
0% {
d:path("M191.9 283.5A67 67 0 0 1 187 272.9L187 272.9A67 67 0 0 0 191.9 283.5Z");
}
100% {
d:path("M176.2 292.6A85.2 85.2 0 0 1 169.9 279.1L187 272.9A67 67 0 0 0 191.9 283.5Z");
}
}
@keyframes zr134-ani-7 {
0% {
d:path("M187 272.9A67 67 0 0 1 184 261.6L184 261.6A67 67 0 0 0 187 272.9Z");
}
100% {
d:path("M169.9 279.1A85.2 85.2 0 0 1 166.1 264.8L184 261.6A67 67 0 0 0 187 272.9Z");
}
}
@keyframes zr134-ani-8 {
0% {
d:path("M201.9 258.5A48.9 48.9 0 0 1 201.1 250L201.1 250A48.9 48.9 0 0 0 201.9 258.5Z");
}
100% {
d:path("M184 261.6A67 67 0 0 1 183 250L201.1 250A48.9 48.9 0 0 0 201.9 258.5Z");
}
}
@keyframes zr134-ani-9 {
0% {
d:path("M184 261.6A67 67 0 0 1 183 250L183 250A67 67 0 0 0 184 261.6Z");
}
100% {
d:path("M166.1 264.8A85.2 85.2 0 0 1 164.8 250L183 250A67 67 0 0 0 184 261.6Z");
}
}
@keyframes zr134-ani-10 {
0% {
d:path("M201.1 250A48.9 48.9 0 0 1 201.9 241.5L201.9 241.5A48.9 48.9 0 0 0 201.1 250Z");
}
100% {
d:path("M183 250A67 67 0 0 1 184 238.4L201.9 241.5A48.9 48.9 0 0 0 201.1 250Z");
}
}
@keyframes zr134-ani-11 {
0% {
d:path("M183 250A67 67 0 0 1 184 238.4L184 238.4A67 67 0 0 0 183 250Z");
}
100% {
d:path("M164.8 250A85.2 85.2 0 0 1 166.1 235.2L184 238.4A67 67 0 0 0 183 250Z");
}
}
@keyframes zr134-ani-12 {
0% {
d:path("M201.9 241.5A48.9 48.9 0 0 1 204.1 233.3L204.1 233.3A48.9 48.9 0 0 0 201.9 241.5Z");
}
100% {
d:path("M184 238.4A67 67 0 0 1 187 227.1L204.1 233.3A48.9 48.9 0 0 0 201.9 241.5Z");
}
}
@keyframes zr134-ani-13 {
0% {
d:path("M184 238.4A67 67 0 0 1 187 227.1L187 227.1A67 67 0 0 0 184 238.4Z");
}
100% {
d:path("M166.1 235.2A85.2 85.2 0 0 1 169.9 220.9L187 227.1A67 67 0 0 0 184 238.4Z");
}
}
@keyframes zr134-ani-14 {
0% {
d:path("M204.1 233.3A48.9 48.9 0 0 1 207.7 225.6L207.7 225.6A48.9 48.9 0 0 0 204.1 233.3Z");
}
100% {
d:path("M187 227.1A67 67 0 0 1 191.9 216.5L207.7 225.6A48.9 48.9 0 0 0 204.1 233.3Z");
}
}
@keyframes zr134-ani-15 {
0% {
d:path("M187 227.1A67 67 0 0 1 191.9 216.5L191.9 216.5A67 67 0 0 0 187 227.1Z");
}
100% {
d:path("M169.9 220.9A85.2 85.2 0 0 1 176.2 207.4L191.9 216.5A67 67 0 0 0 187 227.1Z");
}
}
@keyframes zr134-ani-16 {
0% {
d:path("M207.7 225.6A48.9 48.9 0 0 1 212.6 218.6L212.6 218.6A48.9 48.9 0 0 0 207.7 225.6Z");
}
100% {
d:path("M191.9 216.5A67 67 0 0 1 198.6 206.9L212.6 218.6A48.9 48.9 0 0 0 207.7 225.6Z");
}
}
@keyframes zr134-ani-17 {
0% {
d:path("M191.9 216.5A67 67 0 0 1 198.6 206.9L198.6 206.9A67 67 0 0 0 191.9 216.5Z");
}
100% {
d:path("M176.2 207.4A85.2 85.2 0 0 1 184.7 195.2L198.6 206.9A67 67 0 0 0 191.9 216.5Z");
}
}
@keyframes zr134-ani-18 {
0% {
d:path("M226.5 230.3A30.7 30.7 0 0 1 250 219.3L250 219.3A30.7 30.7 0 0 0 226.5 230.3Z");
}
100% {
d:path("M212.6 218.6A48.9 48.9 0 0 1 250 201.1L250 219.3A30.7 30.7 0 0 0 226.5 230.3Z");
}
}
@keyframes zr134-ani-19 {
0% {
d:path("M212.6 218.6A48.9 48.9 0 0 1 225.6 207.7L225.6 207.7A48.9 48.9 0 0 0 212.6 218.6Z");
}
100% {
d:path("M198.6 206.9A67 67 0 0 1 216.5 191.9L225.6 207.7A48.9 48.9 0 0 0 212.6 218.6Z");
}
}
@keyframes zr134-ani-20 {
0% {
d:path("M198.6 206.9A67 67 0 0 1 216.5 191.9L216.5 191.9A67 67 0 0 0 198.6 206.9Z");
}
100% {
d:path("M184.7 195.2A85.2 85.2 0 0 1 207.4 176.2L216.5 191.9A67 67 0 0 0 198.6 206.9Z");
}
}
@keyframes zr134-ani-21 {
0% {
d:path("M184.7 195.2A85.2 85.2 0 0 1 195.2 184.7L195.2 184.7A85.2 85.2 0 0 0 184.7 195.2Z");
}
100% {
d:path("M170.8 183.5A103.4 103.4 0 0 1 183.5 170.8L195.2 184.7A85.2 85.2 0 0 0 184.7 195.2Z");
}
}
@keyframes zr134-ani-22 {
0% {
d:path("M170.8 183.5A103.4 103.4 0 0 1 183.5 170.8L183.5 170.8A103.4 103.4 0 0 0 170.8 183.5Z");
}
100% {
d:path("M156.9 171.8A121.6 121.6 0 0 1 171.8 156.9L183.5 170.8A103.4 103.4 0 0 0 170.8 183.5Z");
}
}
@keyframes zr134-ani-23 {
0% {
d:path("M156.9 171.8A121.6 121.6 0 0 1 171.8 156.9L171.8 156.9A121.6 121.6 0 0 0 156.9 171.8Z");
}
100% {
d:path("M142.9 160.2A139.8 139.8 0 0 1 160.2 142.9L171.8 156.9A121.6 121.6 0 0 0 156.9 171.8Z");
}
}
@keyframes zr134-ani-24 {
0% {
d:path("M142.9 160.2A139.8 139.8 0 0 1 160.2 142.9L160.2 142.9A139.8 139.8 0 0 0 142.9 160.2Z");
}
100% {
d:path("M129 148.5A158 158 0 0 1 148.5 129L160.2 142.9A139.8 139.8 0 0 0 142.9 160.2Z");
}
}
@keyframes zr134-ani-25 {
0% {
d:path("M129 148.5A158 158 0 0 1 148.5 129L148.5 129A158 158 0 0 0 129 148.5Z");
}
100% {
d:path("M115.1 136.8A176.1 176.1 0 0 1 136.8 115.1L148.5 129A158 158 0 0 0 129 148.5Z");
}
}
@keyframes zr134-ani-26 {
0% {
d:path("M115.1 136.8A176.1 176.1 0 0 1 136.8 115.1L136.8 115.1A176.1 176.1 0 0 0 115.1 136.8Z");
}
100% {
d:path("M101.1 125.1A194.3 194.3 0 0 1 125.1 101.1L136.8 115.1A176.1 176.1 0 0 0 115.1 136.8Z");
}
}
@keyframes zr134-ani-27 {
0% {
d:path("M101.1 125.1A194.3 194.3 0 0 1 125.1 101.1L125.1 101.1A194.3 194.3 0 0 0 101.1 125.1Z");
}
100% {
d:path("M87.2 113.4A212.5 212.5 0 0 1 113.4 87.2L125.1 101.1A194.3 194.3 0 0 0 101.1 125.1Z");
}
}
@keyframes zr134-ani-28 {
0% {
d:path("M195.2 184.7A85.2 85.2 0 0 1 207.4 176.2L207.4 176.2A85.2 85.2 0 0 0 195.2 184.7Z");
}
100% {
d:path("M183.5 170.8A103.4 103.4 0 0 1 198.3 160.4L207.4 176.2A85.2 85.2 0 0 0 195.2 184.7Z");
}
}
@keyframes zr134-ani-29 {
0% {
d:path("M183.5 170.8A103.4 103.4 0 0 1 198.3 160.4L198.3 160.4A103.4 103.4 0 0 0 183.5 170.8Z");
}
100% {
d:path("M171.8 156.9A121.6 121.6 0 0 1 189.2 144.7L198.3 160.4A103.4 103.4 0 0 0 183.5 170.8Z");
}
}
@keyframes zr134-ani-30 {
0% {
d:path("M225.6 207.7A48.9 48.9 0 0 1 233.3 204.1L233.3 204.1A48.9 48.9 0 0 0 225.6 207.7Z");
}
100% {
d:path("M216.5 191.9A67 67 0 0 1 227.1 187L233.3 204.1A48.9 48.9 0 0 0 225.6 207.7Z");
}
}
@keyframes zr134-ani-31 {
0% {
d:path("M216.5 191.9A67 67 0 0 1 227.1 187L227.1 187A67 67 0 0 0 216.5 191.9Z");
}
100% {
d:path("M207.4 176.2A85.2 85.2 0 0 1 220.9 169.9L227.1 187A67 67 0 0 0 216.5 191.9Z");
}
}
@keyframes zr134-ani-32 {
0% {
d:path("M207.4 176.2A85.2 85.2 0 0 1 220.9 169.9L220.9 169.9A85.2 85.2 0 0 0 207.4 176.2Z");
}
100% {
d:path("M198.3 160.4A103.4 103.4 0 0 1 214.6 152.8L220.9 169.9A85.2 85.2 0 0 0 207.4 176.2Z");
}
}
@keyframes zr134-ani-33 {
0% {
d:path("M198.3 160.4A103.4 103.4 0 0 1 214.6 152.8L214.6 152.8A103.4 103.4 0 0 0 198.3 160.4Z");
}
100% {
d:path("M189.2 144.7A121.6 121.6 0 0 1 208.4 135.7L214.6 152.8A103.4 103.4 0 0 0 198.3 160.4Z");
}
}
@keyframes zr134-ani-34 {
0% {
d:path("M233.3 204.1A48.9 48.9 0 0 1 241.5 201.9L241.5 201.9A48.9 48.9 0 0 0 233.3 204.1Z");
}
100% {
d:path("M227.1 187A67 67 0 0 1 238.4 184L241.5 201.9A48.9 48.9 0 0 0 233.3 204.1Z");
}
}
@keyframes zr134-ani-35 {
0% {
d:path("M227.1 187A67 67 0 0 1 238.4 184L238.4 184A67 67 0 0 0 227.1 187Z");
}
100% {
d:path("M220.9 169.9A85.2 85.2 0 0 1 235.2 166.1L238.4 184A67 67 0 0 0 227.1 187Z");
}
}
@keyframes zr134-ani-36 {
0% {
d:path("M220.9 169.9A85.2 85.2 0 0 1 235.2 166.1L235.2 166.1A85.2 85.2 0 0 0 220.9 169.9Z");
}
100% {
d:path("M214.6 152.8A103.4 103.4 0 0 1 232 148.2L235.2 166.1A85.2 85.2 0 0 0 220.9 169.9Z");
}
}
@keyframes zr134-ani-37 {
0% {
d:path("M214.6 152.8A103.4 103.4 0 0 1 232 148.2L232 148.2A103.4 103.4 0 0 0 214.6 152.8Z");
}
100% {
d:path("M208.4 135.7A121.6 121.6 0 0 1 228.9 130.3L232 148.2A103.4 103.4 0 0 0 214.6 152.8Z");
}
}
@keyframes zr134-ani-38 {
0% {
d:path("M208.4 135.7A121.6 121.6 0 0 1 228.9 130.3L228.9 130.3A121.6 121.6 0 0 0 208.4 135.7Z");
}
100% {
d:path("M202.2 118.7A139.8 139.8 0 0 1 225.7 112.4L228.9 130.3A121.6 121.6 0 0 0 208.4 135.7Z");
}
}
@keyframes zr134-ani-39 {
0% {
d:path("M202.2 118.7A139.8 139.8 0 0 1 225.7 112.4L225.7 112.4A139.8 139.8 0 0 0 202.2 118.7Z");
}
100% {
d:path("M196 101.6A158 158 0 0 1 222.6 94.4L225.7 112.4A139.8 139.8 0 0 0 202.2 118.7Z");
}
}
@keyframes zr134-ani-40 {
0% {
d:path("M196 101.6A158 158 0 0 1 222.6 94.4L222.6 94.4A158 158 0 0 0 196 101.6Z");
}
100% {
d:path("M189.8 84.5A176.1 176.1 0 0 1 219.4 76.5L222.6 94.4A158 158 0 0 0 196 101.6Z");
}
}
@keyframes zr134-ani-41 {
0% {
d:path("M241.5 201.9A48.9 48.9 0 0 1 250 201.1L250 201.1A48.9 48.9 0 0 0 241.5 201.9Z");
}
100% {
d:path("M238.4 184A67 67 0 0 1 250 183L250 201.1A48.9 48.9 0 0 0 241.5 201.9Z");
}
}
@keyframes zr134-ani-42 {
0% {
d:path("M238.4 184A67 67 0 0 1 250 183L250 183A67 67 0 0 0 238.4 184Z");
}
100% {
d:path("M235.2 166.1A85.2 85.2 0 0 1 250 164.8L250 183A67 67 0 0 0 238.4 184Z");
}
}
@keyframes zr134-ani-43 {
0% {
d:path("M235.2 166.1A85.2 85.2 0 0 1 250 164.8L250 164.8A85.2 85.2 0 0 0 235.2 166.1Z");
}
100% {
d:path("M232 148.2A103.4 103.4 0 0 1 250 146.6L250 164.8A85.2 85.2 0 0 0 235.2 166.1Z");
}
}
@keyframes zr134-ani-44 {
0% {
d:path("M232 148.2A103.4 103.4 0 0 1 250 146.6L250 146.6A103.4 103.4 0 0 0 232 148.2Z");
}
100% {
d:path("M228.9 130.3A121.6 121.6 0 0 1 250 128.4L250 146.6A103.4 103.4 0 0 0 232 148.2Z");
}
}
@keyframes zr134-ani-45 {
0% {
d:path("M228.9 130.3A121.6 121.6 0 0 1 250 128.4L250 128.4A121.6 121.6 0 0 0 228.9 130.3Z");
}
100% {
d:path("M225.7 112.4A139.8 139.8 0 0 1 250 110.2L250 128.4A121.6 121.6 0 0 0 228.9 130.3Z");
}
}
@keyframes zr134-ani-46 {
0% {
d:path("M225.7 112.4A139.8 139.8 0 0 1 250 110.2L250 110.2A139.8 139.8 0 0 0 225.7 112.4Z");
}
100% {
d:path("M222.6 94.4A158 158 0 0 1 250 92L250 110.2A139.8 139.8 0 0 0 225.7 112.4Z");
}
}
@keyframes zr134-ani-47 {
0% {
d:path("M222.6 94.4A158 158 0 0 1 250 92L250 92A158 158 0 0 0 222.6 94.4Z");
}
100% {
d:path("M219.4 76.5A176.1 176.1 0 0 1 250 73.9L250 92A158 158 0 0 0 222.6 94.4Z");
}
}
@keyframes zr134-ani-48 {
0% {
d:path("M219.4 76.5A176.1 176.1 0 0 1 250 73.9L250 73.9A176.1 176.1 0 0 0 219.4 76.5Z");
}
100% {
d:path("M216.3 58.6A194.3 194.3 0 0 1 250 55.7L250 73.9A176.1 176.1 0 0 0 219.4 76.5Z");
}
}
]]>

</style>
</svg>