<svg width="500" height="500" xmlns="http://www.w3.org/2000/svg" xmlns:xlink="http://www.w3.org/1999/xlink" version="1.1" baseProfile="full" viewBox="0 0 500 500">
<rect width="500" height="500" x="0" y="0" id="0" fill="none"></rect>
<path d="M250 225A25 25 0 1 1 245.1 274.5L247.6 262.3A12.5 12.5 0 1 0 250 237.5Z" fill="#000" stroke="white" stroke-linejoin="bevel" class="zr18-cls-0"></path>
<path d="M250 212.5A37.5 37.5 0 0 1 286.8 242.7L274.5 245.1A25 25 0 0 0 250 225Z" fill="#49ff49" fill-opacity="0.5" stroke="#fff" stroke-width="4" stroke-opacity="0.5" stroke-linejoin="bevel" class="zr18-cls-1"></path>
<path d="M250 200A50 50 0 0 1 259.8 201L257.3 213.2A37.5 37.5 0 0 0 250 212.5Z" fill="#000" stroke="white" stroke-linejoin="bevel" class="zr18-cls-2"></path>
<path d="M250 187.5A62.5 62.5 0 0 1 256.1 187.8L254.9 200.2A50 50 0 0 0 250 200Z" fill="#0AA40D" stroke="white" stroke-linejoin="bevel" class="zr18-cls-3"></path>
<path d="M256.1 187.8A62.5 62.5 0 0 1 262.2 188.7L259.8 201A50 50 0 0 0 254.9 200.2Z" fill="#d6c9d4" stroke="white" stroke-linejoin="bevel" class="zr18-cls-4"></path>
<path d="M259.8 201A50 50 0 0 1 264.5 202.2L260.9 214.1A37.5 37.5 0 0 0 257.3 213.2Z" fill="#000" stroke="white" stroke-linejoin="bevel" class="zr18-cls-5"></path>
<path d="M262.2 188.7A62.5 62.5 0 0 1 268.1 190.2L264.5 202.2A50 50 0 0 0 259.8 201Z" fill="#0AA40D" stroke="white" stroke-linejoin="bevel" class="zr18-cls-6"></path>
<path d="M264.5 202.2A50 50 0 0 1 269.1 203.8L264.4 215.4A37.5 37.5 0 0 0 260.9 214.1Z" fill="#000" stroke="white" stroke-linejoin="bevel" class="zr18-cls-7"></path>
<path d="M268.1 190.2A62.5 62.5 0 0 1 273.9 192.3L269.1 203.8A50 50 0 0 0 264.5 202.2Z" fill="#0AA40D" stroke="white" stroke-linejoin="bevel" class="zr18-cls-8"></path>
<path d="M269.1 203.8A50 50 0 0 1 273.6 205.9L267.7 216.9A37.5 37.5 0 0 0 264.4 215.4Z" fill="#000" stroke="white" stroke-linejoin="bevel" class="zr18-cls-9"></path>
<path d="M273.9 192.3A62.5 62.5 0 0 1 279.5 194.9L273.6 205.9A50 50 0 0 0 269.1 203.8Z" fill="#0AA40D" stroke="white" stroke-linejoin="bevel" class="zr18-cls-10"></path>
<path d="M273.6 205.9A50 50 0 0 1 277.8 208.4L270.8 218.8A37.5 37.5 0 0 0 267.7 216.9Z" fill="#000" stroke="white" stroke-linejoin="bevel" class="zr18-cls-11"></path>
<path d="M279.5 194.9A62.5 62.5 0 0 1 284.7 198L277.8 208.4A50 50 0 0 0 273.6 205.9Z" fill="#F3C142" stroke="white" stroke-linejoin="bevel" class="zr18-cls-12"></path>
<path d="M277.8 208.4A50 50 0 0 1 281.7 211.3L273.8 221A37.5 37.5 0 0 0 270.8 218.8Z" fill="#000" stroke="white" stroke-linejoin="bevel" class="zr18-cls-13"></path>
<path d="M284.7 198A62.5 62.5 0 0 1 289.6 201.7L281.7 211.3A50 50 0 0 0 277.8 208.4Z" fill="#F3C142" stroke="white" stroke-linejoin="bevel" class="zr18-cls-14"></path>
<path d="M281.7 211.3A50 50 0 0 1 285.4 214.6L276.5 223.5A37.5 37.5 0 0 0 273.8 221Z" fill="#000" stroke="white" stroke-linejoin="bevel" class="zr18-cls-15"></path>
<path d="M289.6 201.7A62.5 62.5 0 0 1 294.2 205.8L285.4 214.6A50 50 0 0 0 281.7 211.3Z" fill="#0AA40D" stroke="white" stroke-linejoin="bevel" class="zr18-cls-16"></path>
<path d="M285.4 214.6A50 50 0 0 1 288.7 218.3L279 226.2A37.5 37.5 0 0 0 276.5 223.5Z" fill="#000" stroke="white" stroke-linejoin="bevel" class="zr18-cls-17"></path>
<path d="M294.2 205.8A62.5 62.5 0 0 1 298.3 210.4L288.7 218.3A50 50 0 0 0 285.4 214.6Z" fill="#0AA40D" stroke="white" stroke-linejoin="bevel" class="zr18-cls-18"></path>
<path d="M288.7 218.3A50 50 0 0 1 291.6 222.2L281.2 229.2A37.5 37.5 0 0 0 279 226.2Z" fill="#000" stroke="white" stroke-linejoin="bevel" class="zr18-cls-19"></path>
<path d="M298.3 210.4A62.5 62.5 0 0 1 302 215.3L291.6 222.2A50 50 0 0 0 288.7 218.3Z" fill="#0AA40D" stroke="white" stroke-linejoin="bevel" class="zr18-cls-20"></path>
<path d="M291.6 222.2A50 50 0 0 1 294.1 226.4L283.1 232.3A37.5 37.5 0 0 0 281.2 229.2Z" fill="#000" stroke="white" stroke-linejoin="bevel" class="zr18-cls-21"></path>
<path d="M302 215.3A62.5 62.5 0 0 1 305.1 220.5L294.1 226.4A50 50 0 0 0 291.6 222.2Z" fill="#0AA40D" stroke="white" stroke-linejoin="bevel" class="zr18-cls-22"></path>
<path d="M294.1 226.4A50 50 0 0 1 296.2 230.9L284.6 235.6A37.5 37.5 0 0 0 283.1 232.3Z" fill="#000" stroke="white" stroke-linejoin="bevel" class="zr18-cls-23"></path>
<path d="M305.1 220.5A62.5 62.5 0 0 1 307.7 226.1L296.2 230.9A50 50 0 0 0 294.1 226.4Z" fill="#0AA40D" stroke="white" stroke-linejoin="bevel" class="zr18-cls-24"></path>
<path d="M296.2 230.9A50 50 0 0 1 297.8 235.5L285.9 239.1A37.5 37.5 0 0 0 284.6 235.6Z" fill="#000" stroke="white" stroke-linejoin="bevel" class="zr18-cls-25"></path>
<path d="M307.7 226.1A62.5 62.5 0 0 1 309.8 231.9L297.8 235.5A50 50 0 0 0 296.2 230.9Z" fill="#0AA40D" stroke="white" stroke-linejoin="bevel" class="zr18-cls-26"></path>
<path d="M297.8 235.5A50 50 0 0 1 299 240.2L286.8 242.7A37.5 37.5 0 0 0 285.9 239.1Z" fill="#000" stroke="white" stroke-linejoin="bevel" class="zr18-cls-27"></path>
<path d="M309.8 231.9A62.5 62.5 0 0 1 311.3 237.8L299 240.2A50 50 0 0 0 297.8 235.5Z" fill="#0AA40D" stroke="white" stroke-linejoin="bevel" class="zr18-cls-28"></path>
<path d="M286.8 242.7A37.5 37.5 0 0 1 267.7 283.1L261.8 272A25 25 0 0 0 274.5 245.1Z" fill="#4949CD" fill-opacity="0.5" stroke="#fff" stroke-width="4" stroke-opacity="0.5" stroke-linejoin="bevel" class="zr18-cls-29"></path>
<path d="M299 240.2A50 50 0 0 1 299 259.8L286.8 257.3A37.5 37.5 0 0 0 286.8 242.7Z" fill="#000" stroke="white" stroke-linejoin="bevel" class="zr18-cls-30"></path>
<path d="M311.3 237.8A62.5 62.5 0 0 1 311.3 262.2L299 259.8A50 50 0 0 0 299 240.2Z" fill="#000" stroke="white" stroke-linejoin="bevel" class="zr18-cls-31"></path>
<path d="M323.6 235.4A75 75 0 0 1 323.6 264.6L311.3 262.2A62.5 62.5 0 0 0 311.3 237.8Z" fill="#4949CD" fill-opacity="0.5" stroke="#fff" stroke-width="4" stroke-opacity="0.5" stroke-linejoin="bevel" class="zr18-cls-32"></path>
<path d="M335.8 232.9A87.5 87.5 0 0 1 335.8 267.1L323.6 264.6A75 75 0 0 0 323.6 235.4Z" fill="#0AA40D" stroke="white" stroke-linejoin="bevel" class="zr18-cls-33"></path>
<path d="M348.1 230.5A100 100 0 0 1 349.5 240.2L337.1 241.4A87.5 87.5 0 0 0 335.8 232.9Z" fill="#C8C8C8" stroke="white" stroke-linejoin="bevel" class="zr18-cls-34"></path>
<path d="M349.5 240.2A100 100 0 0 1 350 250L337.5 250A87.5 87.5 0 0 0 337.1 241.4Z" fill="#C8C8C8" stroke="white" stroke-linejoin="bevel" class="zr18-cls-35"></path>
<path d="M350 250A100 100 0 0 1 349.5 259.8L337.1 258.6A87.5 87.5 0 0 0 337.5 250Z" fill="#C8C8C8" stroke="white" stroke-linejoin="bevel" class="zr18-cls-36"></path>
<path d="M349.5 259.8A100 100 0 0 1 348.1 269.5L335.8 267.1A87.5 87.5 0 0 0 337.1 258.6Z" fill="#000" stroke="white" stroke-linejoin="bevel" class="zr18-cls-37"></path>
<path d="M362 261A112.5 112.5 0 0 1 360.3 271.9L348.1 269.5A100 100 0 0 0 349.5 259.8Z" fill="#4949CD" fill-opacity="0.5" stroke="#fff" stroke-width="4" stroke-opacity="0.5" stroke-linejoin="bevel" class="zr18-cls-38"></path>
<path d="M374.4 262.3A125 125 0 0 1 372.6 274.4L360.3 271.9A112.5 112.5 0 0 0 362 261Z" fill="#000" stroke="white" stroke-linejoin="bevel" class="zr18-cls-39"></path>
<path d="M386.8 263.5A137.5 137.5 0 0 1 384.9 276.8L372.6 274.4A125 125 0 0 0 374.4 262.3Z" fill="#000" stroke="white" stroke-linejoin="bevel" class="zr18-cls-40"></path>
<path d="M399.3 264.7A150 150 0 0 1 397.1 279.3L384.9 276.8A137.5 137.5 0 0 0 386.8 263.5Z" fill="#000" stroke="white" stroke-linejoin="bevel" class="zr18-cls-41"></path>
<path d="M299 259.8A50 50 0 0 1 291.6 277.8L281.2 270.8A37.5 37.5 0 0 0 286.8 257.3Z" fill="#000" stroke="white" stroke-linejoin="bevel" class="zr18-cls-42"></path>
<path d="M311.3 262.2A62.5 62.5 0 0 1 302 284.7L291.6 277.8A50 50 0 0 0 299 259.8Z" fill="#000" stroke="white" stroke-linejoin="bevel" class="zr18-cls-43"></path>
<path d="M323.6 264.6A75 75 0 0 1 312.4 291.7L302 284.7A62.5 62.5 0 0 0 311.3 262.2Z" fill="#4949CD" fill-opacity="0.5" stroke="#fff" stroke-width="4" stroke-opacity="0.5" stroke-linejoin="bevel" class="zr18-cls-44"></path>
<path d="M335.8 267.1A87.5 87.5 0 0 1 322.8 298.6L312.4 291.7A75 75 0 0 0 323.6 264.6Z" fill="#0AA40D" stroke="white" stroke-linejoin="bevel" class="zr18-cls-45"></path>
<path d="M348.1 269.5A100 100 0 0 1 345.7 279L333.7 275.4A87.5 87.5 0 0 0 335.8 267.1Z" fill="#C8C8C8" stroke="white" stroke-linejoin="bevel" class="zr18-cls-46"></path>
<path d="M345.7 279A100 100 0 0 1 342.4 288.3L330.8 283.5A87.5 87.5 0 0 0 333.7 275.4Z" fill="#C8C8C8" stroke="white" stroke-linejoin="bevel" class="zr18-cls-47"></path>
<path d="M342.4 288.3A100 100 0 0 1 338.2 297.1L327.2 291.2A87.5 87.5 0 0 0 330.8 283.5Z" fill="#C8C8C8" stroke="white" stroke-linejoin="bevel" class="zr18-cls-48"></path>
<path d="M338.2 297.1A100 100 0 0 1 333.1 305.6L322.8 298.6A87.5 87.5 0 0 0 327.2 291.2Z" fill="#000" stroke="white" stroke-linejoin="bevel" class="zr18-cls-49"></path>
<path d="M291.6 277.8A50 50 0 0 1 281.7 288.7L273.8 279A37.5 37.5 0 0 0 281.2 270.8Z" fill="#000" stroke="white" stroke-linejoin="bevel" class="zr18-cls-50"></path>
<path d="M302 284.7A62.5 62.5 0 0 1 289.6 298.3L281.7 288.7A50 50 0 0 0 291.6 277.8Z" fill="#000" stroke="white" stroke-linejoin="bevel" class="zr18-cls-51"></path>
<path d="M312.4 291.7A75 75 0 0 1 297.6 308L289.6 298.3A62.5 62.5 0 0 0 302 284.7Z" fill="#4949CD" fill-opacity="0.5" stroke="#fff" stroke-width="4" stroke-opacity="0.5" stroke-linejoin="bevel" class="zr18-cls-52"></path>
<path d="M322.8 298.6A87.5 87.5 0 0 1 305.5 317.6L297.6 308A75 75 0 0 0 312.4 291.7Z" fill="#0AA40D" stroke="white" stroke-linejoin="bevel" class="zr18-cls-53"></path>
<path d="M333.1 305.6A100 100 0 0 1 313.4 327.3L305.5 317.6A87.5 87.5 0 0 0 322.8 298.6Z" fill="#000" stroke="white" stroke-linejoin="bevel" class="zr18-cls-54"></path>
<path d="M343.5 312.5A112.5 112.5 0 0 1 321.4 337L313.4 327.3A100 100 0 0 0 333.1 305.6Z" fill="#49ff49" fill-opacity="0.5" stroke="#fff" stroke-width="4" stroke-opacity="0.5" stroke-linejoin="bevel" class="zr18-cls-55"></path>
<path d="M353.9 319.4A125 125 0 0 1 329.3 346.6L321.4 337A112.5 112.5 0 0 0 343.5 312.5Z" fill="#000" stroke="white" stroke-linejoin="bevel" class="zr18-cls-56"></path>
<path d="M364.3 326.4A137.5 137.5 0 0 1 356.3 337.2L346.6 329.3A125 125 0 0 0 353.9 319.4Z" fill="#000" stroke="white" stroke-linejoin="bevel" class="zr18-cls-57"></path>
<path d="M356.3 337.2A137.5 137.5 0 0 1 347.2 347.2L338.4 338.4A125 125 0 0 0 346.6 329.3Z" fill="#000" stroke="white" stroke-linejoin="bevel" class="zr18-cls-58"></path>
<path d="M347.2 347.2A137.5 137.5 0 0 1 337.2 356.3L329.3 346.6A125 125 0 0 0 338.4 338.4Z" fill="#000" stroke="white" stroke-linejoin="bevel" class="zr18-cls-59"></path>
<path d="M281.7 288.7A50 50 0 0 1 273.6 294.1L267.7 283.1A37.5 37.5 0 0 0 273.8 279Z" fill="#000" stroke="white" stroke-linejoin="bevel" class="zr18-cls-60"></path>
<path d="M289.6 298.3A62.5 62.5 0 0 1 279.5 305.1L273.6 294.1A50 50 0 0 0 281.7 288.7Z" fill="#000" stroke="white" stroke-linejoin="bevel" class="zr18-cls-61"></path>
<path d="M297.6 308A75 75 0 0 1 291.7 312.4L284.7 302A62.5 62.5 0 0 0 289.6 298.3Z" fill="#49ff49" fill-opacity="0.5" stroke="#fff" stroke-width="4" stroke-opacity="0.5" stroke-linejoin="bevel" class="zr18-cls-62"></path>
<path d="M305.5 317.6A87.5 87.5 0 0 1 298.6 322.8L291.7 312.4A75 75 0 0 0 297.6 308Z" fill="#d6c9d4" stroke="white" stroke-linejoin="bevel" class="zr18-cls-63"></path>
<path d="M291.7 312.4A75 75 0 0 1 285.4 316.1L279.5 305.1A62.5 62.5 0 0 0 284.7 302Z" fill="#4949CD" fill-opacity="0.5" stroke="#fff" stroke-width="4" stroke-opacity="0.5" stroke-linejoin="bevel" class="zr18-cls-64"></path>
<path d="M298.6 322.8A87.5 87.5 0 0 1 291.2 327.2L285.4 316.1A75 75 0 0 0 291.7 312.4Z" fill="#d6c9d4" stroke="white" stroke-linejoin="bevel" class="zr18-cls-65"></path>
<path d="M305.6 333.1A100 100 0 0 1 297.1 338.2L291.2 327.2A87.5 87.5 0 0 0 298.6 322.8Z" fill="#000" stroke="white" stroke-linejoin="bevel" class="zr18-cls-66"></path>
<path d="M312.5 343.5A112.5 112.5 0 0 1 303 349.2L297.1 338.2A100 100 0 0 0 305.6 333.1Z" fill="#4949CD" fill-opacity="0.5" stroke="#fff" stroke-width="4" stroke-opacity="0.5" stroke-linejoin="bevel" class="zr18-cls-67"></path>
<path d="M319.4 353.9A125 125 0 0 1 308.9 360.2L303 349.2A112.5 112.5 0 0 0 312.5 343.5Z" fill="#000" stroke="white" stroke-linejoin="bevel" class="zr18-cls-68"></path>
<path d="M326.4 364.3A137.5 137.5 0 0 1 314.8 371.3L308.9 360.2A125 125 0 0 0 319.4 353.9Z" fill="#000" stroke="white" stroke-linejoin="bevel" class="zr18-cls-69"></path>
<path d="M333.3 374.7A150 150 0 0 1 320.7 382.3L314.8 371.3A137.5 137.5 0 0 0 326.4 364.3Z" fill="#A0522D" stroke="white" stroke-linejoin="bevel" class="zr18-cls-70"></path>
<path d="M340.3 385.1A162.5 162.5 0 0 1 326.6 393.3L320.7 382.3A150 150 0 0 0 333.3 374.7Z" fill="#A0522D" stroke="white" stroke-linejoin="bevel" class="zr18-cls-71"></path>
<path d="M347.2 395.5A175 175 0 0 1 332.5 404.3L326.6 393.3A162.5 162.5 0 0 0 340.3 385.1Z" fill="#A0522D" stroke="white" stroke-linejoin="bevel" class="zr18-cls-72"></path>
<path d="M354.2 405.9A187.5 187.5 0 0 1 338.4 415.4L332.5 404.3A175 175 0 0 0 347.2 395.5Z" fill="#4949CD" fill-opacity="0.5" stroke="#fff" stroke-width="4" stroke-opacity="0.5" stroke-linejoin="bevel" class="zr18-cls-73"></path>
<path d="M361.1 416.3A200 200 0 0 1 344.3 426.4L338.4 415.4A187.5 187.5 0 0 0 354.2 405.9Z" fill="#A0522D" stroke="white" stroke-linejoin="bevel" class="zr18-cls-74"></path>
<path d="M368.1 426.7A212.5 212.5 0 0 1 350.2 437.4L344.3 426.4A200 200 0 0 0 361.1 416.3Z" fill="#C8C8C8" stroke="white" stroke-linejoin="bevel" class="zr18-cls-75"></path>
<path d="M267.7 283.1A37.5 37.5 0 0 1 242.7 286.8L245.1 274.5A25 25 0 0 0 261.8 272Z" fill="#ff4949" fill-opacity="0.5" stroke="#fff" stroke-width="4" stroke-opacity="0.5" stroke-linejoin="bevel" class="zr18-cls-76"></path>
<path d="M273.6 294.1A50 50 0 0 1 269.1 296.2L264.4 284.6A37.5 37.5 0 0 0 267.7 283.1Z" fill="#000" stroke="white" stroke-linejoin="bevel" class="zr18-cls-77"></path>
<path d="M279.5 305.1A62.5 62.5 0 0 1 273.9 307.7L269.1 296.2A50 50 0 0 0 273.6 294.1Z" fill="#0AA40D" stroke="white" stroke-linejoin="bevel" class="zr18-cls-78"></path>
<path d="M269.1 296.2A50 50 0 0 1 264.5 297.8L260.9 285.9A37.5 37.5 0 0 0 264.4 284.6Z" fill="#000" stroke="white" stroke-linejoin="bevel" class="zr18-cls-79"></path>
<path d="M273.9 307.7A62.5 62.5 0 0 1 268.1 309.8L264.5 297.8A50 50 0 0 0 269.1 296.2Z" fill="#0AA40D" stroke="white" stroke-linejoin="bevel" class="zr18-cls-80"></path>
<path d="M264.5 297.8A50 50 0 0 1 259.8 299L257.3 286.8A37.5 37.5 0 0 0 260.9 285.9Z" fill="#000" stroke="white" stroke-linejoin="bevel" class="zr18-cls-81"></path>
<path d="M268.1 309.8A62.5 62.5 0 0 1 262.2 311.3L259.8 299A50 50 0 0 0 264.5 297.8Z" fill="#0AA40D" stroke="white" stroke-linejoin="bevel" class="zr18-cls-82"></path>
<path d="M259.8 299A50 50 0 0 1 254.9 299.8L253.7 287.3A37.5 37.5 0 0 0 257.3 286.8Z" fill="#000" stroke="white" stroke-linejoin="bevel" class="zr18-cls-83"></path>
<path d="M262.2 311.3A62.5 62.5 0 0 1 256.1 312.2L254.9 299.8A50 50 0 0 0 259.8 299Z" fill="#F3C142" stroke="white" stroke-linejoin="bevel" class="zr18-cls-84"></path>
<path d="M254.9 299.8A50 50 0 0 1 250 300L250 287.5A37.5 37.5 0 0 0 253.7 287.3Z" fill="#000" stroke="white" stroke-linejoin="bevel" class="zr18-cls-85"></path>
<path d="M256.1 312.2A62.5 62.5 0 0 1 250 312.5L250 300A50 50 0 0 0 254.9 299.8Z" fill="#0AA40D" stroke="white" stroke-linejoin="bevel" class="zr18-cls-86"></path>
<path d="M250 300A50 50 0 0 1 245.1 299.8L246.3 287.3A37.5 37.5 0 0 0 250 287.5Z" fill="#000" stroke="white" stroke-linejoin="bevel" class="zr18-cls-87"></path>
<path d="M250 312.5A62.5 62.5 0 0 1 243.9 312.2L245.1 299.8A50 50 0 0 0 250 300Z" fill="#0AA40D" stroke="white" stroke-linejoin="bevel" class="zr18-cls-88"></path>
<path d="M245.1 299.8A50 50 0 0 1 240.2 299L242.7 286.8A37.5 37.5 0 0 0 246.3 287.3Z" fill="#000" stroke="white" stroke-linejoin="bevel" class="zr18-cls-89"></path>
<path d="M243.9 312.2A62.5 62.5 0 0 1 237.8 311.3L240.2 299A50 50 0 0 0 245.1 299.8Z" fill="#0AA40D" stroke="white" stroke-linejoin="bevel" class="zr18-cls-90"></path>
<path d="M245.1 274.5A25 25 0 0 1 247.5 225.1L248.8 237.6A12.5 12.5 0 0 0 247.6 262.3Z" fill="#C8C8C8" stroke="white" stroke-linejoin="bevel" class="zr18-cls-91"></path>
<path d="M242.7 286.8A37.5 37.5 0 0 1 242.7 213.2L245.1 225.5A25 25 0 0 0 245.1 274.5Z" fill="#C8C8C8" stroke="white" stroke-linejoin="bevel" class="zr18-cls-92"></path>
<path d="M242.7 213.2A37.5 37.5 0 0 1 246.3 212.7L247.5 225.1A25 25 0 0 0 245.1 225.5Z" fill="#C8C8C8" stroke="white" stroke-linejoin="bevel" class="zr18-cls-93"></path>
<path d="M247.5 225.1A25 25 0 0 1 250 225L250 237.5A12.5 12.5 0 0 0 248.8 237.6Z" fill="#C8C8C8" stroke="white" stroke-linejoin="bevel" class="zr18-cls-94"></path>
<path d="M246.3 212.7A37.5 37.5 0 0 1 250 212.5L250 225A25 25 0 0 0 247.5 225.1Z" fill="#4949CD" fill-opacity="0.5" stroke="#fff" stroke-width="4" stroke-opacity="0.5" stroke-linejoin="bevel" class="zr18-cls-95"></path>
<path d="M245.1 200.2A50 50 0 0 1 250 200L250 212.5A37.5 37.5 0 0 0 246.3 212.7Z" fill="#C8C8C8" stroke="white" stroke-linejoin="bevel" class="zr18-cls-96"></path>
<path d="M243.9 187.8A62.5 62.5 0 0 1 250 187.5L250 200A50 50 0 0 0 245.1 200.2Z" fill="#C8C8C8" stroke="white" stroke-linejoin="bevel" class="zr18-cls-97"></path>
<text dominant-baseline="central" text-anchor="middle" style="font-size:12px;font-family:sans-serif;" transform="matrix(0.098,-0.995,0.995,0.098,268.6597,251.8378)" fill="#ccc" stroke="#000" stroke-width="2" paint-order="stroke" stroke-miterlimit="2">paths</text>
<text dominant-baseline="central" text-anchor="middle" style="font-size:12px;font-family:sans-serif;" transform="matrix(0,-1,1,0,331.25,250)" fill="#eee" stroke="#0AA40D" stroke-width="2" paint-order="stroke" stroke-miterlimit="2">GET</text>
<text dominant-baseline="central" text-anchor="middle" style="font-size:9px;font-family:sans-serif;" transform="matrix(0.383,-0.924,0.924,0.383,301.9682,271.5259)" fill="#ccc" stroke="#000" stroke-width="2" paint-order="stroke" stroke-miterlimit="2">operations</text>
<text dominant-baseline="central" text-anchor="middle" style="font-size:12px;font-family:sans-serif;" transform="matrix(0.383,-0.924,0.924,0.383,325.0652,281.093)" fill="#eee" stroke="#0AA40D" stroke-width="2" paint-order="stroke" stroke-miterlimit="2">GET</text>
<text dominant-baseline="central" text-anchor="middle" style="font-size:9px;font-family:sans-serif;" transform="matrix(0.672,-0.741,0.741,0.672,319.4642,312.9587)" fill="#ccc" stroke="#000" stroke-width="2" paint-order="stroke" stroke-miterlimit="2">params</text>
<text dominant-baseline="central" text-anchor="middle" style="font-size:12px;font-family:sans-serif;" transform="matrix(0.672,-0.741,0.741,0.672,337.9879,329.7476)" fill="#ccc" stroke="#000" stroke-width="2" paint-order="stroke" stroke-miterlimit="2">query</text>
<text dominant-baseline="central" text-anchor="middle" style="font-size:12px;font-family:sans-serif;" transform="matrix(0.049,-0.999,0.999,0.049,231.2726,249.08)" fill="#333">info</text>
<text dominant-baseline="central" text-anchor="middle" style="font-size:10px;font-family:sans-serif;" transform="matrix(0,-1,1,0,218.75,250)" fill="#333">version</text>
<path d="M-14.8 -16l66.6 0l0 32l-66.6 0Z" transform="translate(448.253 16)" fill="none" stroke="#ccc" stroke-width="0"></path>
<path d="M-7.3 -1.8L-0.1 4.8L7.3 -1.6M-7.3 4.3L-7.3 8.5L7.1 8.5L7.1 4.3M-0.1 4.7L-0.1 -8.5" transform="translate(448.253 16)" fill="none" stroke="#666"></path>
<path d="M-7.9 1M5.1 -3.4L8.1 -3.4L8.1 -6.4M8 -3C6.7 -6.4 3.2 -8.9 -1 -8.4C-5.3 -8 -8.6 -4.2 -8.4 0.2M-5.1 3.4L-8.1 3.4L-8.1 6.4M-8 3C-6.7 6.4 -3.2 8.9 1 8.4C5.3 8 8.6 4.2 8.4 -0.2" transform="translate(484.0476 16)" fill="none" stroke="#666"></path>
<style ><![CDATA[
.zr18-cls-0 {
animation:zr18-ani-0 1s cubic-bezier(0.65,0,0.35,1) both;
}
.zr18-cls-1 {
animation:zr18-ani-1 1s cubic-bezier(0.65,0,0.35,1) both;
}
.zr18-cls-2 {
animation:zr18-ani-2 1s cubic-bezier(0.65,0,0.35,1) both;
}
.zr18-cls-3 {
animation:zr18-ani-3 1s cubic-bezier(0.65,0,0.35,1) both;
}
.zr18-cls-4 {
animation:zr18-ani-4 1s cubic-bezier(0.65,0,0.35,1) both;
}
.zr18-cls-5 {
animation:zr18-ani-5 1s cubic-bezier(0.65,0,0.35,1) both;
}
.zr18-cls-6 {
animation:zr18-ani-6 1s cubic-bezier(0.65,0,0.35,1) both;
}
.zr18-cls-7 {
animation:zr18-ani-7 1s cubic-bezier(0.65,0,0.35,1) both;
}
.zr18-cls-8 {
animation:zr18-ani-8 1s cubic-bezier(0.65,0,0.35,1) both;
}
.zr18-cls-9 {
animation:zr18-ani-9 1s cubic-bezier(0.65,0,0.35,1) both;
}
.zr18-cls-10 {
animation:zr18-ani-10 1s cubic-bezier(0.65,0,0.35,1) both;
}
.zr18-cls-11 {
animation:zr18-ani-11 1s cubic-bezier(0.65,0,0.35,1) both;
}
.zr18-cls-12 {
animation:zr18-ani-12 1s cubic-bezier(0.65,0,0.35,1) both;
}
.zr18-cls-13 {
animation:zr18-ani-13 1s cubic-bezier(0.65,0,0.35,1) both;
}
.zr18-cls-14 {
animation:zr18-ani-14 1s cubic-bezier(0.65,0,0.35,1) both;
}
.zr18-cls-15 {
animation:zr18-ani-15 1s cubic-bezier(0.65,0,0.35,1) both;
}
.zr18-cls-16 {
animation:zr18-ani-16 1s cubic-bezier(0.65,0,0.35,1) both;
}
.zr18-cls-17 {
animation:zr18-ani-17 1s cubic-bezier(0.65,0,0.35,1) both;
}
.zr18-cls-18 {
animation:zr18-ani-18 1s cubic-bezier(0.65,0,0.35,1) both;
}
.zr18-cls-19 {
animation:zr18-ani-19 1s cubic-bezier(0.65,0,0.35,1) both;
}
.zr18-cls-20 {
animation:zr18-ani-20 1s cubic-bezier(0.65,0,0.35,1) both;
}
.zr18-cls-21 {
animation:zr18-ani-21 1s cubic-bezier(0.65,0,0.35,1) both;
}
.zr18-cls-22 {
animation:zr18-ani-22 1s cubic-bezier(0.65,0,0.35,1) both;
}
.zr18-cls-23 {
animation:zr18-ani-23 1s cubic-bezier(0.65,0,0.35,1) both;
}
.zr18-cls-24 {
animation:zr18-ani-24 1s cubic-bezier(0.65,0,0.35,1) both;
}
.zr18-cls-25 {
animation:zr18-ani-25 1s cubic-bezier(0.65,0,0.35,1) both;
}
.zr18-cls-26 {
animation:zr18-ani-26 1s cubic-bezier(0.65,0,0.35,1) both;
}
.zr18-cls-27 {
animation:zr18-ani-27 1s cubic-bezier(0.65,0,0.35,1) both;
}
.zr18-cls-28 {
animation:zr18-ani-28 1s cubic-bezier(0.65,0,0.35,1) both;
}
.zr18-cls-29 {
animation:zr18-ani-29 1s cubic-bezier(0.65,0,0.35,1) both;
}
.zr18-cls-30 {
animation:zr18-ani-30 1s cubic-bezier(0.65,0,0.35,1) both;
}
.zr18-cls-31 {
animation:zr18-ani-31 1s cubic-bezier(0.65,0,0.35,1) both;
}
.zr18-cls-32 {
animation:zr18-ani-32 1s cubic-bezier(0.65,0,0.35,1) both;
}
.zr18-cls-33 {
animation:zr18-ani-33 1s cubic-bezier(0.65,0,0.35,1) both;
}
.zr18-cls-34 {
animation:zr18-ani-34 1s cubic-bezier(0.65,0,0.35,1) both;
}
.zr18-cls-35 {
animation:zr18-ani-35 1s cubic-bezier(0.65,0,0.35,1) both;
}
.zr18-cls-36 {
animation:zr18-ani-36 1s cubic-bezier(0.65,0,0.35,1) both;
}
.zr18-cls-37 {
animation:zr18-ani-37 1s cubic-bezier(0.65,0,0.35,1) both;
}
.zr18-cls-38 {
animation:zr18-ani-38 1s cubic-bezier(0.65,0,0.35,1) both;
}
.zr18-cls-39 {
animation:zr18-ani-39 1s cubic-bezier(0.65,0,0.35,1) both;
}
.zr18-cls-40 {
animation:zr18-ani-40 1s cubic-bezier(0.65,0,0.35,1) both;
}
.zr18-cls-41 {
animation:zr18-ani-41 1s cubic-bezier(0.65,0,0.35,1) both;
}
.zr18-cls-42 {
animation:zr18-ani-42 1s cubic-bezier(0.65,0,0.35,1) both;
}
.zr18-cls-43 {
animation:zr18-ani-43 1s cubic-bezier(0.65,0,0.35,1) both;
}
.zr18-cls-44 {
animation:zr18-ani-44 1s cubic-bezier(0.65,0,0.35,1) both;
}
.zr18-cls-45 {
animation:zr18-ani-45 1s cubic-bezier(0.65,0,0.35,1) both;
}
.zr18-cls-46 {
animation:zr18-ani-46 1s cubic-bezier(0.65,0,0.35,1) both;
}
.zr18-cls-47 {
animation:zr18-ani-47 1s cubic-bezier(0.65,0,0.35,1) both;
}
.zr18-cls-48 {
animation:zr18-ani-48 1s cubic-bezier(0.65,0,0.35,1) both;
}
.zr18-cls-49 {
animation:zr18-ani-49 1s cubic-bezier(0.65,0,0.35,1) both;
}
.zr18-cls-50 {
animation:zr18-ani-50 1s cubic-bezier(0.65,0,0.35,1) both;
}
.zr18-cls-51 {
animation:zr18-ani-51 1s cubic-bezier(0.65,0,0.35,1) both;
}
.zr18-cls-52 {
animation:zr18-ani-52 1s cubic-bezier(0.65,0,0.35,1) both;
}
.zr18-cls-53 {
animation:zr18-ani-53 1s cubic-bezier(0.65,0,0.35,1) both;
}
.zr18-cls-54 {
animation:zr18-ani-54 1s cubic-bezier(0.65,0,0.35,1) both;
}
.zr18-cls-55 {
animation:zr18-ani-55 1s cubic-bezier(0.65,0,0.35,1) both;
}
.zr18-cls-56 {
animation:zr18-ani-56 1s cubic-bezier(0.65,0,0.35,1) both;
}
.zr18-cls-57 {
animation:zr18-ani-57 1s cubic-bezier(0.65,0,0.35,1) both;
}
.zr18-cls-58 {
animation:zr18-ani-58 1s cubic-bezier(0.65,0,0.35,1) both;
}
.zr18-cls-59 {
animation:zr18-ani-59 1s cubic-bezier(0.65,0,0.35,1) both;
}
.zr18-cls-60 {
animation:zr18-ani-60 1s cubic-bezier(0.65,0,0.35,1) both;
}
.zr18-cls-61 {
animation:zr18-ani-61 1s cubic-bezier(0.65,0,0.35,1) both;
}
.zr18-cls-62 {
animation:zr18-ani-62 1s cubic-bezier(0.65,0,0.35,1) both;
}
.zr18-cls-63 {
animation:zr18-ani-63 1s cubic-bezier(0.65,0,0.35,1) both;
}
.zr18-cls-64 {
animation:zr18-ani-64 1s cubic-bezier(0.65,0,0.35,1) both;
}
.zr18-cls-65 {
animation:zr18-ani-65 1s cubic-bezier(0.65,0,0.35,1) both;
}
.zr18-cls-66 {
animation:zr18-ani-66 1s cubic-bezier(0.65,0,0.35,1) both;
}
.zr18-cls-67 {
animation:zr18-ani-67 1s cubic-bezier(0.65,0,0.35,1) both;
}
.zr18-cls-68 {
animation:zr18-ani-68 1s cubic-bezier(0.65,0,0.35,1) both;
}
.zr18-cls-69 {
animation:zr18-ani-69 1s cubic-bezier(0.65,0,0.35,1) both;
}
.zr18-cls-70 {
animation:zr18-ani-70 1s cubic-bezier(0.65,0,0.35,1) both;
}
.zr18-cls-71 {
animation:zr18-ani-71 1s cubic-bezier(0.65,0,0.35,1) both;
}
.zr18-cls-72 {
animation:zr18-ani-72 1s cubic-bezier(0.65,0,0.35,1) both;
}
.zr18-cls-73 {
animation:zr18-ani-73 1s cubic-bezier(0.65,0,0.35,1) both;
}
.zr18-cls-74 {
animation:zr18-ani-74 1s cubic-bezier(0.65,0,0.35,1) both;
}
.zr18-cls-75 {
animation:zr18-ani-75 1s cubic-bezier(0.65,0,0.35,1) both;
}
.zr18-cls-76 {
animation:zr18-ani-76 1s cubic-bezier(0.65,0,0.35,1) both;
}
.zr18-cls-77 {
animation:zr18-ani-77 1s cubic-bezier(0.65,0,0.35,1) both;
}
.zr18-cls-78 {
animation:zr18-ani-78 1s cubic-bezier(0.65,0,0.35,1) both;
}
.zr18-cls-79 {
animation:zr18-ani-79 1s cubic-bezier(0.65,0,0.35,1) both;
}
.zr18-cls-80 {
animation:zr18-ani-80 1s cubic-bezier(0.65,0,0.35,1) both;
}
.zr18-cls-81 {
animation:zr18-ani-81 1s cubic-bezier(0.65,0,0.35,1) both;
}
.zr18-cls-82 {
animation:zr18-ani-82 1s cubic-bezier(0.65,0,0.35,1) both;
}
.zr18-cls-83 {
animation:zr18-ani-83 1s cubic-bezier(0.65,0,0.35,1) both;
}
.zr18-cls-84 {
animation:zr18-ani-84 1s cubic-bezier(0.65,0,0.35,1) both;
}
.zr18-cls-85 {
animation:zr18-ani-85 1s cubic-bezier(0.65,0,0.35,1) both;
}
.zr18-cls-86 {
animation:zr18-ani-86 1s cubic-bezier(0.65,0,0.35,1) both;
}
.zr18-cls-87 {
animation:zr18-ani-87 1s cubic-bezier(0.65,0,0.35,1) both;
}
.zr18-cls-88 {
animation:zr18-ani-88 1s cubic-bezier(0.65,0,0.35,1) both;
}
.zr18-cls-89 {
animation:zr18-ani-89 1s cubic-bezier(0.65,0,0.35,1) both;
}
.zr18-cls-90 {
animation:zr18-ani-90 1s cubic-bezier(0.65,0,0.35,1) both;
}
.zr18-cls-91 {
animation:zr18-ani-91 1s cubic-bezier(0.65,0,0.35,1) both;
}
.zr18-cls-92 {
animation:zr18-ani-92 1s cubic-bezier(0.65,0,0.35,1) both;
}
.zr18-cls-93 {
animation:zr18-ani-93 1s cubic-bezier(0.65,0,0.35,1) both;
}
.zr18-cls-94 {
animation:zr18-ani-94 1s cubic-bezier(0.65,0,0.35,1) both;
}
.zr18-cls-95 {
animation:zr18-ani-95 1s cubic-bezier(0.65,0,0.35,1) both;
}
.zr18-cls-96 {
animation:zr18-ani-96 1s cubic-bezier(0.65,0,0.35,1) both;
}
.zr18-cls-97 {
animation:zr18-ani-97 1s cubic-bezier(0.65,0,0.35,1) both;
}
@keyframes zr18-ani-0 {
0% {
d:path("M250 237.5A12.5 12.5 0 1 1 247.6 262.3A12.5 12.5 0 1 0 250 237.5Z");
}
100% {
d:path("M250 225A25 25 0 1 1 245.1 274.5L247.6 262.3A12.5 12.5 0 1 0 250 237.5Z");
}
}
@keyframes zr18-ani-1 {
0% {
d:path("M250 225A25 25 0 0 1 274.5 245.1A25 25 0 0 0 250 225Z");
}
100% {
d:path("M250 212.5A37.5 37.5 0 0 1 286.8 242.7L274.5 245.1A25 25 0 0 0 250 225Z");
}
}
@keyframes zr18-ani-2 {
0% {
d:path("M250 212.5A37.5 37.5 0 0 1 257.3 213.2A37.5 37.5 0 0 0 250 212.5Z");
}
100% {
d:path("M250 200A50 50 0 0 1 259.8 201L257.3 213.2A37.5 37.5 0 0 0 250 212.5Z");
}
}
@keyframes zr18-ani-3 {
0% {
d:path("M250 200A50 50 0 0 1 254.9 200.2L254.9 200.2A50 50 0 0 0 250 200Z");
}
100% {
d:path("M250 187.5A62.5 62.5 0 0 1 256.1 187.8L254.9 200.2A50 50 0 0 0 250 200Z");
}
}
@keyframes zr18-ani-4 {
0% {
d:path("M254.9 200.2A50 50 0 0 1 259.8 201A50 50 0 0 0 254.9 200.2Z");
}
100% {
d:path("M256.1 187.8A62.5 62.5 0 0 1 262.2 188.7L259.8 201A50 50 0 0 0 254.9 200.2Z");
}
}
@keyframes zr18-ani-5 {
0% {
d:path("M257.3 213.2A37.5 37.5 0 0 1 260.9 214.1A37.5 37.5 0 0 0 257.3 213.2Z");
}
100% {
d:path("M259.8 201A50 50 0 0 1 264.5 202.2L260.9 214.1A37.5 37.5 0 0 0 257.3 213.2Z");
}
}
@keyframes zr18-ani-6 {
0% {
d:path("M259.8 201A50 50 0 0 1 264.5 202.2A50 50 0 0 0 259.8 201Z");
}
100% {
d:path("M262.2 188.7A62.5 62.5 0 0 1 268.1 190.2L264.5 202.2A50 50 0 0 0 259.8 201Z");
}
}
@keyframes zr18-ani-7 {
0% {
d:path("M260.9 214.1A37.5 37.5 0 0 1 264.4 215.4A37.5 37.5 0 0 0 260.9 214.1Z");
}
100% {
d:path("M264.5 202.2A50 50 0 0 1 269.1 203.8L264.4 215.4A37.5 37.5 0 0 0 260.9 214.1Z");
}
}
@keyframes zr18-ani-8 {
0% {
d:path("M264.5 202.2A50 50 0 0 1 269.1 203.8L269.1 203.8A50 50 0 0 0 264.5 202.2Z");
}
100% {
d:path("M268.1 190.2A62.5 62.5 0 0 1 273.9 192.3L269.1 203.8A50 50 0 0 0 264.5 202.2Z");
}
}
@keyframes zr18-ani-9 {
0% {
d:path("M264.4 215.4A37.5 37.5 0 0 1 267.7 216.9L267.7 216.9A37.5 37.5 0 0 0 264.4 215.4Z");
}
100% {
d:path("M269.1 203.8A50 50 0 0 1 273.6 205.9L267.7 216.9A37.5 37.5 0 0 0 264.4 215.4Z");
}
}
@keyframes zr18-ani-10 {
0% {
d:path("M269.1 203.8A50 50 0 0 1 273.6 205.9A50 50 0 0 0 269.1 203.8Z");
}
100% {
d:path("M273.9 192.3A62.5 62.5 0 0 1 279.5 194.9L273.6 205.9A50 50 0 0 0 269.1 203.8Z");
}
}
@keyframes zr18-ani-11 {
0% {
d:path("M267.7 216.9A37.5 37.5 0 0 1 270.8 218.8L270.8 218.8A37.5 37.5 0 0 0 267.7 216.9Z");
}
100% {
d:path("M273.6 205.9A50 50 0 0 1 277.8 208.4L270.8 218.8A37.5 37.5 0 0 0 267.7 216.9Z");
}
}
@keyframes zr18-ani-12 {
0% {
d:path("M273.6 205.9A50 50 0 0 1 277.8 208.4L277.8 208.4A50 50 0 0 0 273.6 205.9Z");
}
100% {
d:path("M279.5 194.9A62.5 62.5 0 0 1 284.7 198L277.8 208.4A50 50 0 0 0 273.6 205.9Z");
}
}
@keyframes zr18-ani-13 {
0% {
d:path("M270.8 218.8A37.5 37.5 0 0 1 273.8 221A37.5 37.5 0 0 0 270.8 218.8Z");
}
100% {
d:path("M277.8 208.4A50 50 0 0 1 281.7 211.3L273.8 221A37.5 37.5 0 0 0 270.8 218.8Z");
}
}
@keyframes zr18-ani-14 {
0% {
d:path("M277.8 208.4A50 50 0 0 1 281.7 211.3A50 50 0 0 0 277.8 208.4Z");
}
100% {
d:path("M284.7 198A62.5 62.5 0 0 1 289.6 201.7L281.7 211.3A50 50 0 0 0 277.8 208.4Z");
}
}
@keyframes zr18-ani-15 {
0% {
d:path("M273.8 221A37.5 37.5 0 0 1 276.5 223.5L276.5 223.5A37.5 37.5 0 0 0 273.8 221Z");
}
100% {
d:path("M281.7 211.3A50 50 0 0 1 285.4 214.6L276.5 223.5A37.5 37.5 0 0 0 273.8 221Z");
}
}
@keyframes zr18-ani-16 {
0% {
d:path("M281.7 211.3A50 50 0 0 1 285.4 214.6A50 50 0 0 0 281.7 211.3Z");
}
100% {
d:path("M289.6 201.7A62.5 62.5 0 0 1 294.2 205.8L285.4 214.6A50 50 0 0 0 281.7 211.3Z");
}
}
@keyframes zr18-ani-17 {
0% {
d:path("M276.5 223.5A37.5 37.5 0 0 1 279 226.2L279 226.2A37.5 37.5 0 0 0 276.5 223.5Z");
}
100% {
d:path("M285.4 214.6A50 50 0 0 1 288.7 218.3L279 226.2A37.5 37.5 0 0 0 276.5 223.5Z");
}
}
@keyframes zr18-ani-18 {
0% {
d:path("M285.4 214.6A50 50 0 0 1 288.7 218.3L288.7 218.3A50 50 0 0 0 285.4 214.6Z");
}
100% {
d:path("M294.2 205.8A62.5 62.5 0 0 1 298.3 210.4L288.7 218.3A50 50 0 0 0 285.4 214.6Z");
}
}
@keyframes zr18-ani-19 {
0% {
d:path("M279 226.2A37.5 37.5 0 0 1 281.2 229.2A37.5 37.5 0 0 0 279 226.2Z");
}
100% {
d:path("M288.7 218.3A50 50 0 0 1 291.6 222.2L281.2 229.2A37.5 37.5 0 0 0 279 226.2Z");
}
}
@keyframes zr18-ani-20 {
0% {
d:path("M288.7 218.3A50 50 0 0 1 291.6 222.2A50 50 0 0 0 288.7 218.3Z");
}
100% {
d:path("M298.3 210.4A62.5 62.5 0 0 1 302 215.3L291.6 222.2A50 50 0 0 0 288.7 218.3Z");
}
}
@keyframes zr18-ani-21 {
0% {
d:path("M281.2 229.2A37.5 37.5 0 0 1 283.1 232.3A37.5 37.5 0 0 0 281.2 229.2Z");
}
100% {
d:path("M291.6 222.2A50 50 0 0 1 294.1 226.4L283.1 232.3A37.5 37.5 0 0 0 281.2 229.2Z");
}
}
@keyframes zr18-ani-22 {
0% {
d:path("M291.6 222.2A50 50 0 0 1 294.1 226.4A50 50 0 0 0 291.6 222.2Z");
}
100% {
d:path("M302 215.3A62.5 62.5 0 0 1 305.1 220.5L294.1 226.4A50 50 0 0 0 291.6 222.2Z");
}
}
@keyframes zr18-ani-23 {
0% {
d:path("M283.1 232.3A37.5 37.5 0 0 1 284.6 235.6A37.5 37.5 0 0 0 283.1 232.3Z");
}
100% {
d:path("M294.1 226.4A50 50 0 0 1 296.2 230.9L284.6 235.6A37.5 37.5 0 0 0 283.1 232.3Z");
}
}
@keyframes zr18-ani-24 {
0% {
d:path("M294.1 226.4A50 50 0 0 1 296.2 230.9A50 50 0 0 0 294.1 226.4Z");
}
100% {
d:path("M305.1 220.5A62.5 62.5 0 0 1 307.7 226.1L296.2 230.9A50 50 0 0 0 294.1 226.4Z");
}
}
@keyframes zr18-ani-25 {
0% {
d:path("M284.6 235.6A37.5 37.5 0 0 1 285.9 239.1A37.5 37.5 0 0 0 284.6 235.6Z");
}
100% {
d:path("M296.2 230.9A50 50 0 0 1 297.8 235.5L285.9 239.1A37.5 37.5 0 0 0 284.6 235.6Z");
}
}
@keyframes zr18-ani-26 {
0% {
d:path("M296.2 230.9A50 50 0 0 1 297.8 235.5A50 50 0 0 0 296.2 230.9Z");
}
100% {
d:path("M307.7 226.1A62.5 62.5 0 0 1 309.8 231.9L297.8 235.5A50 50 0 0 0 296.2 230.9Z");
}
}
@keyframes zr18-ani-27 {
0% {
d:path("M285.9 239.1A37.5 37.5 0 0 1 286.8 242.7L286.8 242.7A37.5 37.5 0 0 0 285.9 239.1Z");
}
100% {
d:path("M297.8 235.5A50 50 0 0 1 299 240.2L286.8 242.7A37.5 37.5 0 0 0 285.9 239.1Z");
}
}
@keyframes zr18-ani-28 {
0% {
d:path("M297.8 235.5A50 50 0 0 1 299 240.2L299 240.2A50 50 0 0 0 297.8 235.5Z");
}
100% {
d:path("M309.8 231.9A62.5 62.5 0 0 1 311.3 237.8L299 240.2A50 50 0 0 0 297.8 235.5Z");
}
}
@keyframes zr18-ani-29 {
0% {
d:path("M274.5 245.1A25 25 0 0 1 261.8 272A25 25 0 0 0 274.5 245.1Z");
}
100% {
d:path("M286.8 242.7A37.5 37.5 0 0 1 267.7 283.1L261.8 272A25 25 0 0 0 274.5 245.1Z");
}
}
@keyframes zr18-ani-30 {
0% {
d:path("M286.8 242.7A37.5 37.5 0 0 1 286.8 257.3A37.5 37.5 0 0 0 286.8 242.7Z");
}
100% {
d:path("M299 240.2A50 50 0 0 1 299 259.8L286.8 257.3A37.5 37.5 0 0 0 286.8 242.7Z");
}
}
@keyframes zr18-ani-31 {
0% {
d:path("M299 240.2A50 50 0 0 1 299 259.8A50 50 0 0 0 299 240.2Z");
}
100% {
d:path("M311.3 237.8A62.5 62.5 0 0 1 311.3 262.2L299 259.8A50 50 0 0 0 299 240.2Z");
}
}
@keyframes zr18-ani-32 {
0% {
d:path("M311.3 237.8A62.5 62.5 0 0 1 311.3 262.2A62.5 62.5 0 0 0 311.3 237.8Z");
}
100% {
d:path("M323.6 235.4A75 75 0 0 1 323.6 264.6L311.3 262.2A62.5 62.5 0 0 0 311.3 237.8Z");
}
}
@keyframes zr18-ani-33 {
0% {
d:path("M323.6 235.4A75 75 0 0 1 323.6 264.6A75 75 0 0 0 323.6 235.4Z");
}
100% {
d:path("M335.8 232.9A87.5 87.5 0 0 1 335.8 267.1L323.6 264.6A75 75 0 0 0 323.6 235.4Z");
}
}
@keyframes zr18-ani-34 {
0% {
d:path("M335.8 232.9A87.5 87.5 0 0 1 337.1 241.4L337.1 241.4A87.5 87.5 0 0 0 335.8 232.9Z");
}
100% {
d:path("M348.1 230.5A100 100 0 0 1 349.5 240.2L337.1 241.4A87.5 87.5 0 0 0 335.8 232.9Z");
}
}
@keyframes zr18-ani-35 {
0% {
d:path("M337.1 241.4A87.5 87.5 0 0 1 337.5 250L337.5 250A87.5 87.5 0 0 0 337.1 241.4Z");
}
100% {
d:path("M349.5 240.2A100 100 0 0 1 350 250L337.5 250A87.5 87.5 0 0 0 337.1 241.4Z");
}
}
@keyframes zr18-ani-36 {
0% {
d:path("M337.5 250A87.5 87.5 0 0 1 337.1 258.6A87.5 87.5 0 0 0 337.5 250Z");
}
100% {
d:path("M350 250A100 100 0 0 1 349.5 259.8L337.1 258.6A87.5 87.5 0 0 0 337.5 250Z");
}
}
@keyframes zr18-ani-37 {
0% {
d:path("M337.1 258.6A87.5 87.5 0 0 1 335.8 267.1A87.5 87.5 0 0 0 337.1 258.6Z");
}
100% {
d:path("M349.5 259.8A100 100 0 0 1 348.1 269.5L335.8 267.1A87.5 87.5 0 0 0 337.1 258.6Z");
}
}
@keyframes zr18-ani-38 {
0% {
d:path("M349.5 259.8A100 100 0 0 1 348.1 269.5A100 100 0 0 0 349.5 259.8Z");
}
100% {
d:path("M362 261A112.5 112.5 0 0 1 360.3 271.9L348.1 269.5A100 100 0 0 0 349.5 259.8Z");
}
}
@keyframes zr18-ani-39 {
0% {
d:path("M362 261A112.5 112.5 0 0 1 360.3 271.9A112.5 112.5 0 0 0 362 261Z");
}
100% {
d:path("M374.4 262.3A125 125 0 0 1 372.6 274.4L360.3 271.9A112.5 112.5 0 0 0 362 261Z");
}
}
@keyframes zr18-ani-40 {
0% {
d:path("M374.4 262.3A125 125 0 0 1 372.6 274.4A125 125 0 0 0 374.4 262.3Z");
}
100% {
d:path("M386.8 263.5A137.5 137.5 0 0 1 384.9 276.8L372.6 274.4A125 125 0 0 0 374.4 262.3Z");
}
}
@keyframes zr18-ani-41 {
0% {
d:path("M386.8 263.5A137.5 137.5 0 0 1 384.9 276.8A137.5 137.5 0 0 0 386.8 263.5Z");
}
100% {
d:path("M399.3 264.7A150 150 0 0 1 397.1 279.3L384.9 276.8A137.5 137.5 0 0 0 386.8 263.5Z");
}
}
@keyframes zr18-ani-42 {
0% {
d:path("M286.8 257.3A37.5 37.5 0 0 1 281.2 270.8A37.5 37.5 0 0 0 286.8 257.3Z");
}
100% {
d:path("M299 259.8A50 50 0 0 1 291.6 277.8L281.2 270.8A37.5 37.5 0 0 0 286.8 257.3Z");
}
}
@keyframes zr18-ani-43 {
0% {
d:path("M299 259.8A50 50 0 0 1 291.6 277.8A50 50 0 0 0 299 259.8Z");
}
100% {
d:path("M311.3 262.2A62.5 62.5 0 0 1 302 284.7L291.6 277.8A50 50 0 0 0 299 259.8Z");
}
}
@keyframes zr18-ani-44 {
0% {
d:path("M311.3 262.2A62.5 62.5 0 0 1 302 284.7A62.5 62.5 0 0 0 311.3 262.2Z");
}
100% {
d:path("M323.6 264.6A75 75 0 0 1 312.4 291.7L302 284.7A62.5 62.5 0 0 0 311.3 262.2Z");
}
}
@keyframes zr18-ani-45 {
0% {
d:path("M323.6 264.6A75 75 0 0 1 312.4 291.7A75 75 0 0 0 323.6 264.6Z");
}
100% {
d:path("M335.8 267.1A87.5 87.5 0 0 1 322.8 298.6L312.4 291.7A75 75 0 0 0 323.6 264.6Z");
}
}
@keyframes zr18-ani-46 {
0% {
d:path("M335.8 267.1A87.5 87.5 0 0 1 333.7 275.4A87.5 87.5 0 0 0 335.8 267.1Z");
}
100% {
d:path("M348.1 269.5A100 100 0 0 1 345.7 279L333.7 275.4A87.5 87.5 0 0 0 335.8 267.1Z");
}
}
@keyframes zr18-ani-47 {
0% {
d:path("M333.7 275.4A87.5 87.5 0 0 1 330.8 283.5A87.5 87.5 0 0 0 333.7 275.4Z");
}
100% {
d:path("M345.7 279A100 100 0 0 1 342.4 288.3L330.8 283.5A87.5 87.5 0 0 0 333.7 275.4Z");
}
}
@keyframes zr18-ani-48 {
0% {
d:path("M330.8 283.5A87.5 87.5 0 0 1 327.2 291.2A87.5 87.5 0 0 0 330.8 283.5Z");
}
100% {
d:path("M342.4 288.3A100 100 0 0 1 338.2 297.1L327.2 291.2A87.5 87.5 0 0 0 330.8 283.5Z");
}
}
@keyframes zr18-ani-49 {
0% {
d:path("M327.2 291.2A87.5 87.5 0 0 1 322.8 298.6A87.5 87.5 0 0 0 327.2 291.2Z");
}
100% {
d:path("M338.2 297.1A100 100 0 0 1 333.1 305.6L322.8 298.6A87.5 87.5 0 0 0 327.2 291.2Z");
}
}
@keyframes zr18-ani-50 {
0% {
d:path("M281.2 270.8A37.5 37.5 0 0 1 273.8 279A37.5 37.5 0 0 0 281.2 270.8Z");
}
100% {
d:path("M291.6 277.8A50 50 0 0 1 281.7 288.7L273.8 279A37.5 37.5 0 0 0 281.2 270.8Z");
}
}
@keyframes zr18-ani-51 {
0% {
d:path("M291.6 277.8A50 50 0 0 1 281.7 288.7A50 50 0 0 0 291.6 277.8Z");
}
100% {
d:path("M302 284.7A62.5 62.5 0 0 1 289.6 298.3L281.7 288.7A50 50 0 0 0 291.6 277.8Z");
}
}
@keyframes zr18-ani-52 {
0% {
d:path("M302 284.7A62.5 62.5 0 0 1 289.6 298.3A62.5 62.5 0 0 0 302 284.7Z");
}
100% {
d:path("M312.4 291.7A75 75 0 0 1 297.6 308L289.6 298.3A62.5 62.5 0 0 0 302 284.7Z");
}
}
@keyframes zr18-ani-53 {
0% {
d:path("M312.4 291.7A75 75 0 0 1 297.6 308A75 75 0 0 0 312.4 291.7Z");
}
100% {
d:path("M322.8 298.6A87.5 87.5 0 0 1 305.5 317.6L297.6 308A75 75 0 0 0 312.4 291.7Z");
}
}
@keyframes zr18-ani-54 {
0% {
d:path("M322.8 298.6A87.5 87.5 0 0 1 305.5 317.6A87.5 87.5 0 0 0 322.8 298.6Z");
}
100% {
d:path("M333.1 305.6A100 100 0 0 1 313.4 327.3L305.5 317.6A87.5 87.5 0 0 0 322.8 298.6Z");
}
}
@keyframes zr18-ani-55 {
0% {
d:path("M333.1 305.6A100 100 0 0 1 313.4 327.3A100 100 0 0 0 333.1 305.6Z");
}
100% {
d:path("M343.5 312.5A112.5 112.5 0 0 1 321.4 337L313.4 327.3A100 100 0 0 0 333.1 305.6Z");
}
}
@keyframes zr18-ani-56 {
0% {
d:path("M343.5 312.5A112.5 112.5 0 0 1 321.4 337A112.5 112.5 0 0 0 343.5 312.5Z");
}
100% {
d:path("M353.9 319.4A125 125 0 0 1 329.3 346.6L321.4 337A112.5 112.5 0 0 0 343.5 312.5Z");
}
}
@keyframes zr18-ani-57 {
0% {
d:path("M353.9 319.4A125 125 0 0 1 346.6 329.3A125 125 0 0 0 353.9 319.4Z");
}
100% {
d:path("M364.3 326.4A137.5 137.5 0 0 1 356.3 337.2L346.6 329.3A125 125 0 0 0 353.9 319.4Z");
}
}
@keyframes zr18-ani-58 {
0% {
d:path("M346.6 329.3A125 125 0 0 1 338.4 338.4A125 125 0 0 0 346.6 329.3Z");
}
100% {
d:path("M356.3 337.2A137.5 137.5 0 0 1 347.2 347.2L338.4 338.4A125 125 0 0 0 346.6 329.3Z");
}
}
@keyframes zr18-ani-59 {
0% {
d:path("M338.4 338.4A125 125 0 0 1 329.3 346.6A125 125 0 0 0 338.4 338.4Z");
}
100% {
d:path("M347.2 347.2A137.5 137.5 0 0 1 337.2 356.3L329.3 346.6A125 125 0 0 0 338.4 338.4Z");
}
}
@keyframes zr18-ani-60 {
0% {
d:path("M273.8 279A37.5 37.5 0 0 1 267.7 283.1A37.5 37.5 0 0 0 273.8 279Z");
}
100% {
d:path("M281.7 288.7A50 50 0 0 1 273.6 294.1L267.7 283.1A37.5 37.5 0 0 0 273.8 279Z");
}
}
@keyframes zr18-ani-61 {
0% {
d:path("M281.7 288.7A50 50 0 0 1 273.6 294.1A50 50 0 0 0 281.7 288.7Z");
}
100% {
d:path("M289.6 298.3A62.5 62.5 0 0 1 279.5 305.1L273.6 294.1A50 50 0 0 0 281.7 288.7Z");
}
}
@keyframes zr18-ani-62 {
0% {
d:path("M289.6 298.3A62.5 62.5 0 0 1 284.7 302L284.7 302A62.5 62.5 0 0 0 289.6 298.3Z");
}
100% {
d:path("M297.6 308A75 75 0 0 1 291.7 312.4L284.7 302A62.5 62.5 0 0 0 289.6 298.3Z");
}
}
@keyframes zr18-ani-63 {
0% {
d:path("M297.6 308A75 75 0 0 1 291.7 312.4A75 75 0 0 0 297.6 308Z");
}
100% {
d:path("M305.5 317.6A87.5 87.5 0 0 1 298.6 322.8L291.7 312.4A75 75 0 0 0 297.6 308Z");
}
}
@keyframes zr18-ani-64 {
0% {
d:path("M284.7 302A62.5 62.5 0 0 1 279.5 305.1A62.5 62.5 0 0 0 284.7 302Z");
}
100% {
d:path("M291.7 312.4A75 75 0 0 1 285.4 316.1L279.5 305.1A62.5 62.5 0 0 0 284.7 302Z");
}
}
@keyframes zr18-ani-65 {
0% {
d:path("M291.7 312.4A75 75 0 0 1 285.4 316.1A75 75 0 0 0 291.7 312.4Z");
}
100% {
d:path("M298.6 322.8A87.5 87.5 0 0 1 291.2 327.2L285.4 316.1A75 75 0 0 0 291.7 312.4Z");
}
}
@keyframes zr18-ani-66 {
0% {
d:path("M298.6 322.8A87.5 87.5 0 0 1 291.2 327.2A87.5 87.5 0 0 0 298.6 322.8Z");
}
100% {
d:path("M305.6 333.1A100 100 0 0 1 297.1 338.2L291.2 327.2A87.5 87.5 0 0 0 298.6 322.8Z");
}
}
@keyframes zr18-ani-67 {
0% {
d:path("M305.6 333.1A100 100 0 0 1 297.1 338.2A100 100 0 0 0 305.6 333.1Z");
}
100% {
d:path("M312.5 343.5A112.5 112.5 0 0 1 303 349.2L297.1 338.2A100 100 0 0 0 305.6 333.1Z");
}
}
@keyframes zr18-ani-68 {
0% {
d:path("M312.5 343.5A112.5 112.5 0 0 1 303 349.2A112.5 112.5 0 0 0 312.5 343.5Z");
}
100% {
d:path("M319.4 353.9A125 125 0 0 1 308.9 360.2L303 349.2A112.5 112.5 0 0 0 312.5 343.5Z");
}
}
@keyframes zr18-ani-69 {
0% {
d:path("M319.4 353.9A125 125 0 0 1 308.9 360.2A125 125 0 0 0 319.4 353.9Z");
}
100% {
d:path("M326.4 364.3A137.5 137.5 0 0 1 314.8 371.3L308.9 360.2A125 125 0 0 0 319.4 353.9Z");
}
}
@keyframes zr18-ani-70 {
0% {
d:path("M326.4 364.3A137.5 137.5 0 0 1 314.8 371.3A137.5 137.5 0 0 0 326.4 364.3Z");
}
100% {
d:path("M333.3 374.7A150 150 0 0 1 320.7 382.3L314.8 371.3A137.5 137.5 0 0 0 326.4 364.3Z");
}
}
@keyframes zr18-ani-71 {
0% {
d:path("M333.3 374.7A150 150 0 0 1 320.7 382.3A150 150 0 0 0 333.3 374.7Z");
}
100% {
d:path("M340.3 385.1A162.5 162.5 0 0 1 326.6 393.3L320.7 382.3A150 150 0 0 0 333.3 374.7Z");
}
}
@keyframes zr18-ani-72 {
0% {
d:path("M340.3 385.1A162.5 162.5 0 0 1 326.6 393.3A162.5 162.5 0 0 0 340.3 385.1Z");
}
100% {
d:path("M347.2 395.5A175 175 0 0 1 332.5 404.3L326.6 393.3A162.5 162.5 0 0 0 340.3 385.1Z");
}
}
@keyframes zr18-ani-73 {
0% {
d:path("M347.2 395.5A175 175 0 0 1 332.5 404.3A175 175 0 0 0 347.2 395.5Z");
}
100% {
d:path("M354.2 405.9A187.5 187.5 0 0 1 338.4 415.4L332.5 404.3A175 175 0 0 0 347.2 395.5Z");
}
}
@keyframes zr18-ani-74 {
0% {
d:path("M354.2 405.9A187.5 187.5 0 0 1 338.4 415.4A187.5 187.5 0 0 0 354.2 405.9Z");
}
100% {
d:path("M361.1 416.3A200 200 0 0 1 344.3 426.4L338.4 415.4A187.5 187.5 0 0 0 354.2 405.9Z");
}
}
@keyframes zr18-ani-75 {
0% {
d:path("M361.1 416.3A200 200 0 0 1 344.3 426.4A200 200 0 0 0 361.1 416.3Z");
}
100% {
d:path("M368.1 426.7A212.5 212.5 0 0 1 350.2 437.4L344.3 426.4A200 200 0 0 0 361.1 416.3Z");
}
}
@keyframes zr18-ani-76 {
0% {
d:path("M261.8 272A25 25 0 0 1 245.1 274.5A25 25 0 0 0 261.8 272Z");
}
100% {
d:path("M267.7 283.1A37.5 37.5 0 0 1 242.7 286.8L245.1 274.5A25 25 0 0 0 261.8 272Z");
}
}
@keyframes zr18-ani-77 {
0% {
d:path("M267.7 283.1A37.5 37.5 0 0 1 264.4 284.6A37.5 37.5 0 0 0 267.7 283.1Z");
}
100% {
d:path("M273.6 294.1A50 50 0 0 1 269.1 296.2L264.4 284.6A37.5 37.5 0 0 0 267.7 283.1Z");
}
}
@keyframes zr18-ani-78 {
0% {
d:path("M273.6 294.1A50 50 0 0 1 269.1 296.2A50 50 0 0 0 273.6 294.1Z");
}
100% {
d:path("M279.5 305.1A62.5 62.5 0 0 1 273.9 307.7L269.1 296.2A50 50 0 0 0 273.6 294.1Z");
}
}
@keyframes zr18-ani-79 {
0% {
d:path("M264.4 284.6A37.5 37.5 0 0 1 260.9 285.9A37.5 37.5 0 0 0 264.4 284.6Z");
}
100% {
d:path("M269.1 296.2A50 50 0 0 1 264.5 297.8L260.9 285.9A37.5 37.5 0 0 0 264.4 284.6Z");
}
}
@keyframes zr18-ani-80 {
0% {
d:path("M269.1 296.2A50 50 0 0 1 264.5 297.8A50 50 0 0 0 269.1 296.2Z");
}
100% {
d:path("M273.9 307.7A62.5 62.5 0 0 1 268.1 309.8L264.5 297.8A50 50 0 0 0 269.1 296.2Z");
}
}
@keyframes zr18-ani-81 {
0% {
d:path("M260.9 285.9A37.5 37.5 0 0 1 257.3 286.8A37.5 37.5 0 0 0 260.9 285.9Z");
}
100% {
d:path("M264.5 297.8A50 50 0 0 1 259.8 299L257.3 286.8A37.5 37.5 0 0 0 260.9 285.9Z");
}
}
@keyframes zr18-ani-82 {
0% {
d:path("M264.5 297.8A50 50 0 0 1 259.8 299A50 50 0 0 0 264.5 297.8Z");
}
100% {
d:path("M268.1 309.8A62.5 62.5 0 0 1 262.2 311.3L259.8 299A50 50 0 0 0 264.5 297.8Z");
}
}
@keyframes zr18-ani-83 {
0% {
d:path("M257.3 286.8A37.5 37.5 0 0 1 253.7 287.3A37.5 37.5 0 0 0 257.3 286.8Z");
}
100% {
d:path("M259.8 299A50 50 0 0 1 254.9 299.8L253.7 287.3A37.5 37.5 0 0 0 257.3 286.8Z");
}
}
@keyframes zr18-ani-84 {
0% {
d:path("M259.8 299A50 50 0 0 1 254.9 299.8A50 50 0 0 0 259.8 299Z");
}
100% {
d:path("M262.2 311.3A62.5 62.5 0 0 1 256.1 312.2L254.9 299.8A50 50 0 0 0 259.8 299Z");
}
}
@keyframes zr18-ani-85 {
0% {
d:path("M253.7 287.3A37.5 37.5 0 0 1 250 287.5L250 287.5A37.5 37.5 0 0 0 253.7 287.3Z");
}
100% {
d:path("M254.9 299.8A50 50 0 0 1 250 300L250 287.5A37.5 37.5 0 0 0 253.7 287.3Z");
}
}
@keyframes zr18-ani-86 {
0% {
d:path("M254.9 299.8A50 50 0 0 1 250 300L250 300A50 50 0 0 0 254.9 299.8Z");
}
100% {
d:path("M256.1 312.2A62.5 62.5 0 0 1 250 312.5L250 300A50 50 0 0 0 254.9 299.8Z");
}
}
@keyframes zr18-ani-87 {
0% {
d:path("M250 287.5A37.5 37.5 0 0 1 246.3 287.3A37.5 37.5 0 0 0 250 287.5Z");
}
100% {
d:path("M250 300A50 50 0 0 1 245.1 299.8L246.3 287.3A37.5 37.5 0 0 0 250 287.5Z");
}
}
@keyframes zr18-ani-88 {
0% {
d:path("M250 300A50 50 0 0 1 245.1 299.8L245.1 299.8A50 50 0 0 0 250 300Z");
}
100% {
d:path("M250 312.5A62.5 62.5 0 0 1 243.9 312.2L245.1 299.8A50 50 0 0 0 250 300Z");
}
}
@keyframes zr18-ani-89 {
0% {
d:path("M246.3 287.3A37.5 37.5 0 0 1 242.7 286.8A37.5 37.5 0 0 0 246.3 287.3Z");
}
100% {
d:path("M245.1 299.8A50 50 0 0 1 240.2 299L242.7 286.8A37.5 37.5 0 0 0 246.3 287.3Z");
}
}
@keyframes zr18-ani-90 {
0% {
d:path("M245.1 299.8A50 50 0 0 1 240.2 299L240.2 299A50 50 0 0 0 245.1 299.8Z");
}
100% {
d:path("M243.9 312.2A62.5 62.5 0 0 1 237.8 311.3L240.2 299A50 50 0 0 0 245.1 299.8Z");
}
}
@keyframes zr18-ani-91 {
0% {
d:path("M247.6 262.3A12.5 12.5 0 0 1 248.8 237.6A12.5 12.5 0 0 0 247.6 262.3Z");
}
100% {
d:path("M245.1 274.5A25 25 0 0 1 247.5 225.1L248.8 237.6A12.5 12.5 0 0 0 247.6 262.3Z");
}
}
@keyframes zr18-ani-92 {
0% {
d:path("M245.1 274.5A25 25 0 0 1 245.1 225.5A25 25 0 0 0 245.1 274.5Z");
}
100% {
d:path("M242.7 286.8A37.5 37.5 0 0 1 242.7 213.2L245.1 225.5A25 25 0 0 0 245.1 274.5Z");
}
}
@keyframes zr18-ani-93 {
0% {
d:path("M245.1 225.5A25 25 0 0 1 247.5 225.1L247.5 225.1A25 25 0 0 0 245.1 225.5Z");
}
100% {
d:path("M242.7 213.2A37.5 37.5 0 0 1 246.3 212.7L247.5 225.1A25 25 0 0 0 245.1 225.5Z");
}
}
@keyframes zr18-ani-94 {
0% {
d:path("M248.8 237.6A12.5 12.5 0 0 1 250 237.5A12.5 12.5 0 0 0 248.8 237.6Z");
}
100% {
d:path("M247.5 225.1A25 25 0 0 1 250 225L250 237.5A12.5 12.5 0 0 0 248.8 237.6Z");
}
}
@keyframes zr18-ani-95 {
0% {
d:path("M247.5 225.1A25 25 0 0 1 250 225A25 25 0 0 0 247.5 225.1Z");
}
100% {
d:path("M246.3 212.7A37.5 37.5 0 0 1 250 212.5L250 225A25 25 0 0 0 247.5 225.1Z");
}
}
@keyframes zr18-ani-96 {
0% {
d:path("M246.3 212.7A37.5 37.5 0 0 1 250 212.5A37.5 37.5 0 0 0 246.3 212.7Z");
}
100% {
d:path("M245.1 200.2A50 50 0 0 1 250 200L250 212.5A37.5 37.5 0 0 0 246.3 212.7Z");
}
}
@keyframes zr18-ani-97 {
0% {
d:path("M245.1 200.2A50 50 0 0 1 250 200A50 50 0 0 0 245.1 200.2Z");
}
100% {
d:path("M243.9 187.8A62.5 62.5 0 0 1 250 187.5L250 200A50 50 0 0 0 245.1 200.2Z");
}
}
]]>

</style>
</svg>