<svg width="500" height="500" xmlns="http://www.w3.org/2000/svg" xmlns:xlink="http://www.w3.org/1999/xlink" version="1.1" baseProfile="full" viewBox="0 0 500 500">
<rect width="500" height="500" x="0" y="0" id="0" fill="none"></rect>
<path d="M250 219.3A30.7 30.7 0 1 1 225.5 268.5L240 257.5A12.5 12.5 0 1 0 250 237.5Z" fill="#000" stroke="white" stroke-linejoin="bevel" class="zr110-cls-0"></path>
<path d="M250 201.1A48.9 48.9 0 0 1 259 298L255.6 280.2A30.7 30.7 0 0 0 250 219.3Z" fill="#4949CD" fill-opacity="0.5" stroke="#fff" stroke-width="4" stroke-opacity="0.5" stroke-linejoin="bevel" class="zr110-cls-1"></path>
<path d="M250 183A67 67 0 0 1 262.3 315.9L259 298A48.9 48.9 0 0 0 250 201.1Z" fill="#000" stroke="white" stroke-linejoin="bevel" class="zr110-cls-2"></path>
<path d="M250 164.8A85.2 85.2 0 0 1 265.7 333.8L262.3 315.9A67 67 0 0 0 250 183Z" fill="#000" stroke="white" stroke-linejoin="bevel" class="zr110-cls-3"></path>
<path d="M250 146.6A103.4 103.4 0 0 1 287.4 346.4L280.8 329.5A85.2 85.2 0 0 0 250 164.8Z" fill="#4949CD" fill-opacity="0.5" stroke="#fff" stroke-width="4" stroke-opacity="0.5" stroke-linejoin="bevel" class="zr110-cls-4"></path>
<path d="M250 128.4A121.6 121.6 0 0 1 293.9 363.4L287.4 346.4A103.4 103.4 0 0 0 250 146.6Z" fill="#0AA40D" stroke="white" stroke-linejoin="bevel" class="zr110-cls-5"></path>
<path d="M250 110.2A139.8 139.8 0 0 1 300.5 380.3L293.9 363.4A121.6 121.6 0 0 0 250 128.4Z" fill="#000" stroke="white" stroke-linejoin="bevel" class="zr110-cls-6"></path>
<path d="M250 92A158 158 0 0 1 407.3 235.4L389.2 237.1A139.8 139.8 0 0 0 250 110.2Z" fill="#49ff49" fill-opacity="0.5" stroke="#fff" stroke-width="4" stroke-opacity="0.5" stroke-linejoin="bevel" class="zr110-cls-7"></path>
<path d="M250 73.9A176.1 176.1 0 0 1 425.4 233.7L407.3 235.4A158 158 0 0 0 250 92Z" fill="#000" stroke="white" stroke-linejoin="bevel" class="zr110-cls-8"></path>
<path d="M250 55.7A194.3 194.3 0 0 1 320.2 68.8L313.6 85.8A176.1 176.1 0 0 0 250 73.9Z" fill="#000" stroke="white" stroke-linejoin="bevel" class="zr110-cls-9"></path>
<path d="M320.2 68.8A194.3 194.3 0 0 1 352.3 84.8L342.7 100.2A176.1 176.1 0 0 0 313.6 85.8Z" fill="#000" stroke="white" stroke-linejoin="bevel" class="zr110-cls-10"></path>
<path d="M352.3 84.8A194.3 194.3 0 0 1 380.9 106.4L368.7 119.8A176.1 176.1 0 0 0 342.7 100.2Z" fill="#000" stroke="white" stroke-linejoin="bevel" class="zr110-cls-11"></path>
<path d="M380.9 106.4A194.3 194.3 0 0 1 405.1 132.9L390.6 143.9A176.1 176.1 0 0 0 368.7 119.8Z" fill="#000" stroke="white" stroke-linejoin="bevel" class="zr110-cls-12"></path>
<path d="M405.1 132.9A194.3 194.3 0 0 1 423.9 163.4L407.7 171.5A176.1 176.1 0 0 0 390.6 143.9Z" fill="#000" stroke="white" stroke-linejoin="bevel" class="zr110-cls-13"></path>
<path d="M423.9 163.4A194.3 194.3 0 0 1 436.9 196.8L419.4 201.8A176.1 176.1 0 0 0 407.7 171.5Z" fill="#000" stroke="white" stroke-linejoin="bevel" class="zr110-cls-14"></path>
<path d="M436.9 196.8A194.3 194.3 0 0 1 443.5 232.1L425.4 233.7A176.1 176.1 0 0 0 419.4 201.8Z" fill="#000" stroke="white" stroke-linejoin="bevel" class="zr110-cls-15"></path>
<path d="M407.3 235.4A158 158 0 0 1 376.1 345.2L361.5 334.2A139.8 139.8 0 0 0 389.2 237.1Z" fill="#ff4949" fill-opacity="0.5" stroke="#fff" stroke-width="4" stroke-opacity="0.5" stroke-linejoin="bevel" class="zr110-cls-16"></path>
<path d="M425.4 233.7A176.1 176.1 0 0 1 390.6 356.1L376.1 345.2A158 158 0 0 0 407.3 235.4Z" fill="#000" stroke="white" stroke-linejoin="bevel" class="zr110-cls-17"></path>
<path d="M443.5 232.1A194.3 194.3 0 0 1 443.5 267.9L425.4 266.3A176.1 176.1 0 0 0 425.4 233.7Z" fill="#000" stroke="white" stroke-linejoin="bevel" class="zr110-cls-18"></path>
<path d="M443.5 267.9A194.3 194.3 0 0 1 436.9 303.2L419.4 298.2A176.1 176.1 0 0 0 425.4 266.3Z" fill="#000" stroke="white" stroke-linejoin="bevel" class="zr110-cls-19"></path>
<path d="M436.9 303.2A194.3 194.3 0 0 1 423.9 336.6L407.7 328.5A176.1 176.1 0 0 0 419.4 298.2Z" fill="#000" stroke="white" stroke-linejoin="bevel" class="zr110-cls-20"></path>
<path d="M423.9 336.6A194.3 194.3 0 0 1 405.1 367.1L390.6 356.1A176.1 176.1 0 0 0 407.7 328.5Z" fill="#000" stroke="white" stroke-linejoin="bevel" class="zr110-cls-21"></path>
<path d="M376.1 345.2A158 158 0 0 1 307.1 397.3L300.5 380.3A139.8 139.8 0 0 0 361.5 334.2Z" fill="#4949CD" fill-opacity="0.5" stroke="#fff" stroke-width="4" stroke-opacity="0.5" stroke-linejoin="bevel" class="zr110-cls-22"></path>
<path d="M390.6 356.1A176.1 176.1 0 0 1 313.6 414.2L307.1 397.3A158 158 0 0 0 376.1 345.2Z" fill="#000" stroke="white" stroke-linejoin="bevel" class="zr110-cls-23"></path>
<path d="M405.1 367.1A194.3 194.3 0 0 1 352.3 415.2L342.7 399.8A176.1 176.1 0 0 0 390.6 356.1Z" fill="#000" stroke="white" stroke-linejoin="bevel" class="zr110-cls-24"></path>
<path d="M419.6 378.1A212.5 212.5 0 0 1 361.9 430.7L352.3 415.2A194.3 194.3 0 0 0 405.1 367.1Z" fill="#C8C8C8" stroke="white" stroke-linejoin="bevel" class="zr110-cls-25"></path>
<path d="M352.3 415.2A194.3 194.3 0 0 1 320.2 431.2L313.6 414.2A176.1 176.1 0 0 0 342.7 399.8Z" fill="#000" stroke="white" stroke-linejoin="bevel" class="zr110-cls-26"></path>
<path d="M361.9 430.7A212.5 212.5 0 0 1 326.8 448.2L320.2 431.2A194.3 194.3 0 0 0 352.3 415.2Z" fill="#C8C8C8" stroke="white" stroke-linejoin="bevel" class="zr110-cls-27"></path>
<path d="M287.4 346.4A103.4 103.4 0 0 1 269 351.6L265.7 333.8A85.2 85.2 0 0 0 280.8 329.5Z" fill="#49ff49" fill-opacity="0.5" stroke="#fff" stroke-width="4" stroke-opacity="0.5" stroke-linejoin="bevel" class="zr110-cls-28"></path>
<path d="M293.9 363.4A121.6 121.6 0 0 1 272.3 369.5L269 351.6A103.4 103.4 0 0 0 287.4 346.4Z" fill="#F3C142" stroke="white" stroke-linejoin="bevel" class="zr110-cls-29"></path>
<path d="M259 298A48.9 48.9 0 0 1 224.3 291.5L233.8 276.1A30.7 30.7 0 0 0 255.6 280.2Z" fill="#49ff49" fill-opacity="0.5" stroke="#fff" stroke-width="4" stroke-opacity="0.5" stroke-linejoin="bevel" class="zr110-cls-30"></path>
<path d="M262.3 315.9A67 67 0 0 1 250 317L250 298.9A48.9 48.9 0 0 0 259 298Z" fill="#000" stroke="white" stroke-linejoin="bevel" class="zr110-cls-31"></path>
<path d="M265.7 333.8A85.2 85.2 0 0 1 250 335.2L250 317A67 67 0 0 0 262.3 315.9Z" fill="#0AA40D" stroke="white" stroke-linejoin="bevel" class="zr110-cls-32"></path>
<path d="M250 317A67 67 0 0 1 237.7 315.9L241 298A48.9 48.9 0 0 0 250 298.9Z" fill="#000" stroke="white" stroke-linejoin="bevel" class="zr110-cls-33"></path>
<path d="M250 335.2A85.2 85.2 0 0 1 234.3 333.8L237.7 315.9A67 67 0 0 0 250 317Z" fill="#0AA40D" stroke="white" stroke-linejoin="bevel" class="zr110-cls-34"></path>
<path d="M237.7 315.9A67 67 0 0 1 225.8 312.5L232.3 295.6A48.9 48.9 0 0 0 241 298Z" fill="#000" stroke="white" stroke-linejoin="bevel" class="zr110-cls-35"></path>
<path d="M234.3 333.8A85.2 85.2 0 0 1 219.2 329.5L225.8 312.5A67 67 0 0 0 237.7 315.9Z" fill="#F3C142" stroke="white" stroke-linejoin="bevel" class="zr110-cls-36"></path>
<path d="M225.8 312.5A67 67 0 0 1 214.7 307L224.3 291.5A48.9 48.9 0 0 0 232.3 295.6Z" fill="#000" stroke="white" stroke-linejoin="bevel" class="zr110-cls-37"></path>
<path d="M219.2 329.5A85.2 85.2 0 0 1 205.1 322.5L214.7 307A67 67 0 0 0 225.8 312.5Z" fill="#0AA40D" stroke="white" stroke-linejoin="bevel" class="zr110-cls-38"></path>
<path d="M224.3 291.5A48.9 48.9 0 0 1 211 279.4L225.5 268.5A30.7 30.7 0 0 0 233.8 276.1Z" fill="#ff4949" fill-opacity="0.5" stroke="#fff" stroke-width="4" stroke-opacity="0.5" stroke-linejoin="bevel" class="zr110-cls-39"></path>
<path d="M214.7 307A67 67 0 0 1 204.8 299.5L217.1 286.1A48.9 48.9 0 0 0 224.3 291.5Z" fill="#000" stroke="white" stroke-linejoin="bevel" class="zr110-cls-40"></path>
<path d="M205.1 322.5A85.2 85.2 0 0 1 192.6 313L204.8 299.5A67 67 0 0 0 214.7 307Z" fill="#0AA40D" stroke="white" stroke-linejoin="bevel" class="zr110-cls-41"></path>
<path d="M204.8 299.5A67 67 0 0 1 196.5 290.4L211 279.4A48.9 48.9 0 0 0 217.1 286.1Z" fill="#000" stroke="white" stroke-linejoin="bevel" class="zr110-cls-42"></path>
<path d="M192.6 313A85.2 85.2 0 0 1 182 301.4L196.5 290.4A67 67 0 0 0 204.8 299.5Z" fill="#0AA40D" stroke="white" stroke-linejoin="bevel" class="zr110-cls-43"></path>
<path d="M225.5 268.5A30.7 30.7 0 0 1 238.9 221.4L245.5 238.3A12.5 12.5 0 0 0 240 257.5Z" fill="#C8C8C8" stroke="white" stroke-linejoin="bevel" class="zr110-cls-44"></path>
<path d="M211 279.4A48.9 48.9 0 0 1 206.3 228.2L222.5 236.3A30.7 30.7 0 0 0 225.5 268.5Z" fill="#49ff49" fill-opacity="0.5" stroke="#fff" stroke-width="4" stroke-opacity="0.5" stroke-linejoin="bevel" class="zr110-cls-45"></path>
<path d="M196.5 290.4A67 67 0 0 1 183.2 256.2L201.3 254.5A48.9 48.9 0 0 0 211 279.4Z" fill="#C8C8C8" stroke="white" stroke-linejoin="bevel" class="zr110-cls-46"></path>
<path d="M183.2 256.2A67 67 0 0 1 190 220.1L206.3 228.2A48.9 48.9 0 0 0 201.3 254.5Z" fill="#C8C8C8" stroke="white" stroke-linejoin="bevel" class="zr110-cls-47"></path>
<path d="M206.3 228.2A48.9 48.9 0 0 1 232.3 204.4L238.9 221.4A30.7 30.7 0 0 0 222.5 236.3Z" fill="#ff4949" fill-opacity="0.5" stroke="#fff" stroke-width="4" stroke-opacity="0.5" stroke-linejoin="bevel" class="zr110-cls-48"></path>
<path d="M190 220.1A67 67 0 0 1 204.8 200.5L217.1 213.9A48.9 48.9 0 0 0 206.3 228.2Z" fill="#C8C8C8" stroke="white" stroke-linejoin="bevel" class="zr110-cls-49"></path>
<path d="M204.8 200.5A67 67 0 0 1 225.8 187.5L232.3 204.4A48.9 48.9 0 0 0 217.1 213.9Z" fill="#C8C8C8" stroke="white" stroke-linejoin="bevel" class="zr110-cls-50"></path>
<path d="M238.9 221.4A30.7 30.7 0 0 1 250 219.3L250 237.5A12.5 12.5 0 0 0 245.5 238.3Z" fill="#C8C8C8" stroke="white" stroke-linejoin="bevel" class="zr110-cls-51"></path>
<path d="M232.3 204.4A48.9 48.9 0 0 1 241 202L244.4 219.8A30.7 30.7 0 0 0 238.9 221.4Z" fill="#C8C8C8" stroke="white" stroke-linejoin="bevel" class="zr110-cls-52"></path>
<path d="M241 202A48.9 48.9 0 0 1 250 201.1L250 219.3A30.7 30.7 0 0 0 244.4 219.8Z" fill="#C8C8C8" stroke="white" stroke-linejoin="bevel" class="zr110-cls-53"></path>
<text dominant-baseline="central" text-anchor="middle" style="font-size:12px;font-family:sans-serif;" transform="matrix(0.446,-0.895,0.895,0.446,269.3274,259.6239)" fill="#ccc" stroke="#000" stroke-width="2" paint-order="stroke" stroke-miterlimit="2">paths</text>
<text dominant-baseline="central" text-anchor="middle" style="font-size:10px;font-family:sans-serif;" transform="matrix(0.092,0.996,-0.996,0.092,307.7073,244.6526)" fill="#ccc" stroke="#000" stroke-width="2" paint-order="stroke" stroke-miterlimit="2">/search</text>
<text dominant-baseline="central" text-anchor="middle" style="font-size:9px;font-family:sans-serif;" transform="matrix(0.092,0.996,-0.996,0.092,325.8116,242.975)" fill="#ccc" stroke="#000" stroke-width="2" paint-order="stroke" stroke-miterlimit="2">operations</text>
<text dominant-baseline="central" text-anchor="middle" style="font-size:12px;font-family:sans-serif;" transform="matrix(0.184,0.983,-0.983,0.184,360.5845,229.3282)" fill="#eee" stroke="#0AA40D" stroke-width="2" paint-order="stroke" stroke-miterlimit="2">GET</text>
<text dominant-baseline="central" text-anchor="middle" style="font-size:9px;font-family:sans-serif;" transform="matrix(0.184,0.983,-0.983,0.184,378.4567,225.9873)" fill="#ccc" stroke="#000" stroke-width="2" paint-order="stroke" stroke-miterlimit="2">params</text>
<text dominant-baseline="central" text-anchor="middle" style="font-size:12px;font-family:sans-serif;" transform="matrix(0.739,0.674,-0.674,0.739,362.5378,126.5519)" fill="#ccc" stroke="#000" stroke-width="2" paint-order="stroke" stroke-miterlimit="2">query</text>
<text dominant-baseline="central" text-anchor="middle" style="font-size:12px;font-family:sans-serif;" transform="matrix(0.274,-0.962,0.962,0.274,410.6686,295.7142)" fill="#ccc" stroke="#000" stroke-width="2" paint-order="stroke" stroke-miterlimit="2">query</text>
<text dominant-baseline="central" text-anchor="middle" style="font-size:12px;font-family:sans-serif;" transform="matrix(0.798,-0.603,0.603,0.798,350.6674,383.3052)" fill="#ccc" stroke="#000" stroke-width="2" paint-order="stroke" stroke-miterlimit="2">query</text>
<text dominant-baseline="central" text-anchor="middle" style="font-size:9px;font-family:sans-serif;" transform="matrix(0.739,-0.674,0.674,0.739,374.7868,386.8846)" fill="#ccc" stroke="#000" stroke-width="2" paint-order="stroke" stroke-miterlimit="2">dimensions</text>
<text dominant-baseline="central" text-anchor="middle" style="font-size:9px;font-family:sans-serif;" transform="matrix(0.739,-0.674,0.674,0.739,387.0358,400.3211)" fill="#333">description</text>
<text dominant-baseline="central" text-anchor="middle" style="font-size:12px;font-family:sans-serif;" transform="matrix(0.274,-0.962,0.962,0.274,229.2333,244.0914)" fill="#333">tags</text>
<text dominant-baseline="central" text-anchor="middle" style="font-size:12px;font-family:sans-serif;" transform="matrix(0.361,0.932,-0.932,0.361,195.959,270.9356)" fill="#333">data</text>
<text dominant-baseline="central" text-anchor="middle" style="font-size:12px;font-family:sans-serif;" transform="matrix(0.603,-0.798,0.798,0.603,203.7513,215.0746)" fill="#333">data</text>
<path d="M-14.8 -16l66.6 0l0 32l-66.6 0Z" transform="translate(448.253 16)" fill="none" stroke="#ccc" stroke-width="0"></path>
<path d="M-7.3 -1.8L-0.1 4.8L7.3 -1.6M-7.3 4.3L-7.3 8.5L7.1 8.5L7.1 4.3M-0.1 4.7L-0.1 -8.5" transform="translate(448.253 16)" fill="none" stroke="#666"></path>
<path d="M-7.9 1M5.1 -3.4L8.1 -3.4L8.1 -6.4M8 -3C6.7 -6.4 3.2 -8.9 -1 -8.4C-5.3 -8 -8.6 -4.2 -8.4 0.2M-5.1 3.4L-8.1 3.4L-8.1 6.4M-8 3C-6.7 6.4 -3.2 8.9 1 8.4C5.3 8 8.6 4.2 8.4 -0.2" transform="translate(484.0476 16)" fill="none" stroke="#666"></path>
<style ><![CDATA[
.zr110-cls-0 {
animation:zr110-ani-0 1s cubic-bezier(0.65,0,0.35,1) both;
}
.zr110-cls-1 {
animation:zr110-ani-1 1s cubic-bezier(0.65,0,0.35,1) both;
}
.zr110-cls-2 {
animation:zr110-ani-2 1s cubic-bezier(0.65,0,0.35,1) both;
}
.zr110-cls-3 {
animation:zr110-ani-3 1s cubic-bezier(0.65,0,0.35,1) both;
}
.zr110-cls-4 {
animation:zr110-ani-4 1s cubic-bezier(0.65,0,0.35,1) both;
}
.zr110-cls-5 {
animation:zr110-ani-5 1s cubic-bezier(0.65,0,0.35,1) both;
}
.zr110-cls-6 {
animation:zr110-ani-6 1s cubic-bezier(0.65,0,0.35,1) both;
}
.zr110-cls-7 {
animation:zr110-ani-7 1s cubic-bezier(0.65,0,0.35,1) both;
}
.zr110-cls-8 {
animation:zr110-ani-8 1s cubic-bezier(0.65,0,0.35,1) both;
}
.zr110-cls-9 {
animation:zr110-ani-9 1s cubic-bezier(0.65,0,0.35,1) both;
}
.zr110-cls-10 {
animation:zr110-ani-10 1s cubic-bezier(0.65,0,0.35,1) both;
}
.zr110-cls-11 {
animation:zr110-ani-11 1s cubic-bezier(0.65,0,0.35,1) both;
}
.zr110-cls-12 {
animation:zr110-ani-12 1s cubic-bezier(0.65,0,0.35,1) both;
}
.zr110-cls-13 {
animation:zr110-ani-13 1s cubic-bezier(0.65,0,0.35,1) both;
}
.zr110-cls-14 {
animation:zr110-ani-14 1s cubic-bezier(0.65,0,0.35,1) both;
}
.zr110-cls-15 {
animation:zr110-ani-15 1s cubic-bezier(0.65,0,0.35,1) both;
}
.zr110-cls-16 {
animation:zr110-ani-16 1s cubic-bezier(0.65,0,0.35,1) both;
}
.zr110-cls-17 {
animation:zr110-ani-17 1s cubic-bezier(0.65,0,0.35,1) both;
}
.zr110-cls-18 {
animation:zr110-ani-18 1s cubic-bezier(0.65,0,0.35,1) both;
}
.zr110-cls-19 {
animation:zr110-ani-19 1s cubic-bezier(0.65,0,0.35,1) both;
}
.zr110-cls-20 {
animation:zr110-ani-20 1s cubic-bezier(0.65,0,0.35,1) both;
}
.zr110-cls-21 {
animation:zr110-ani-21 1s cubic-bezier(0.65,0,0.35,1) both;
}
.zr110-cls-22 {
animation:zr110-ani-22 1s cubic-bezier(0.65,0,0.35,1) both;
}
.zr110-cls-23 {
animation:zr110-ani-23 1s cubic-bezier(0.65,0,0.35,1) both;
}
.zr110-cls-24 {
animation:zr110-ani-24 1s cubic-bezier(0.65,0,0.35,1) both;
}
.zr110-cls-25 {
animation:zr110-ani-25 1s cubic-bezier(0.65,0,0.35,1) both;
}
.zr110-cls-26 {
animation:zr110-ani-26 1s cubic-bezier(0.65,0,0.35,1) both;
}
.zr110-cls-27 {
animation:zr110-ani-27 1s cubic-bezier(0.65,0,0.35,1) both;
}
.zr110-cls-28 {
animation:zr110-ani-28 1s cubic-bezier(0.65,0,0.35,1) both;
}
.zr110-cls-29 {
animation:zr110-ani-29 1s cubic-bezier(0.65,0,0.35,1) both;
}
.zr110-cls-30 {
animation:zr110-ani-30 1s cubic-bezier(0.65,0,0.35,1) both;
}
.zr110-cls-31 {
animation:zr110-ani-31 1s cubic-bezier(0.65,0,0.35,1) both;
}
.zr110-cls-32 {
animation:zr110-ani-32 1s cubic-bezier(0.65,0,0.35,1) both;
}
.zr110-cls-33 {
animation:zr110-ani-33 1s cubic-bezier(0.65,0,0.35,1) both;
}
.zr110-cls-34 {
animation:zr110-ani-34 1s cubic-bezier(0.65,0,0.35,1) both;
}
.zr110-cls-35 {
animation:zr110-ani-35 1s cubic-bezier(0.65,0,0.35,1) both;
}
.zr110-cls-36 {
animation:zr110-ani-36 1s cubic-bezier(0.65,0,0.35,1) both;
}
.zr110-cls-37 {
animation:zr110-ani-37 1s cubic-bezier(0.65,0,0.35,1) both;
}
.zr110-cls-38 {
animation:zr110-ani-38 1s cubic-bezier(0.65,0,0.35,1) both;
}
.zr110-cls-39 {
animation:zr110-ani-39 1s cubic-bezier(0.65,0,0.35,1) both;
}
.zr110-cls-40 {
animation:zr110-ani-40 1s cubic-bezier(0.65,0,0.35,1) both;
}
.zr110-cls-41 {
animation:zr110-ani-41 1s cubic-bezier(0.65,0,0.35,1) both;
}
.zr110-cls-42 {
animation:zr110-ani-42 1s cubic-bezier(0.65,0,0.35,1) both;
}
.zr110-cls-43 {
animation:zr110-ani-43 1s cubic-bezier(0.65,0,0.35,1) both;
}
.zr110-cls-44 {
animation:zr110-ani-44 1s cubic-bezier(0.65,0,0.35,1) both;
}
.zr110-cls-45 {
animation:zr110-ani-45 1s cubic-bezier(0.65,0,0.35,1) both;
}
.zr110-cls-46 {
animation:zr110-ani-46 1s cubic-bezier(0.65,0,0.35,1) both;
}
.zr110-cls-47 {
animation:zr110-ani-47 1s cubic-bezier(0.65,0,0.35,1) both;
}
.zr110-cls-48 {
animation:zr110-ani-48 1s cubic-bezier(0.65,0,0.35,1) both;
}
.zr110-cls-49 {
animation:zr110-ani-49 1s cubic-bezier(0.65,0,0.35,1) both;
}
.zr110-cls-50 {
animation:zr110-ani-50 1s cubic-bezier(0.65,0,0.35,1) both;
}
.zr110-cls-51 {
animation:zr110-ani-51 1s cubic-bezier(0.65,0,0.35,1) both;
}
.zr110-cls-52 {
animation:zr110-ani-52 1s cubic-bezier(0.65,0,0.35,1) both;
}
.zr110-cls-53 {
animation:zr110-ani-53 1s cubic-bezier(0.65,0,0.35,1) both;
}
@keyframes zr110-ani-0 {
0% {
d:path("M250 237.5A12.5 12.5 0 1 1 240 257.5L240 257.5A12.5 12.5 0 1 0 250 237.5Z");
}
100% {
d:path("M250 219.3A30.7 30.7 0 1 1 225.5 268.5L240 257.5A12.5 12.5 0 1 0 250 237.5Z");
}
}
@keyframes zr110-ani-1 {
0% {
d:path("M250 219.3A30.7 30.7 0 0 1 255.6 280.2A30.7 30.7 0 0 0 250 219.3Z");
}
100% {
d:path("M250 201.1A48.9 48.9 0 0 1 259 298L255.6 280.2A30.7 30.7 0 0 0 250 219.3Z");
}
}
@keyframes zr110-ani-2 {
0% {
d:path("M250 201.1A48.9 48.9 0 0 1 259 298A48.9 48.9 0 0 0 250 201.1Z");
}
100% {
d:path("M250 183A67 67 0 0 1 262.3 315.9L259 298A48.9 48.9 0 0 0 250 201.1Z");
}
}
@keyframes zr110-ani-3 {
0% {
d:path("M250 183A67 67 0 0 1 262.3 315.9A67 67 0 0 0 250 183Z");
}
100% {
d:path("M250 164.8A85.2 85.2 0 0 1 265.7 333.8L262.3 315.9A67 67 0 0 0 250 183Z");
}
}
@keyframes zr110-ani-4 {
0% {
d:path("M250 164.8A85.2 85.2 0 0 1 280.8 329.5L280.8 329.5A85.2 85.2 0 0 0 250 164.8Z");
}
100% {
d:path("M250 146.6A103.4 103.4 0 0 1 287.4 346.4L280.8 329.5A85.2 85.2 0 0 0 250 164.8Z");
}
}
@keyframes zr110-ani-5 {
0% {
d:path("M250 146.6A103.4 103.4 0 0 1 287.4 346.4L287.4 346.4A103.4 103.4 0 0 0 250 146.6Z");
}
100% {
d:path("M250 128.4A121.6 121.6 0 0 1 293.9 363.4L287.4 346.4A103.4 103.4 0 0 0 250 146.6Z");
}
}
@keyframes zr110-ani-6 {
0% {
d:path("M250 128.4A121.6 121.6 0 0 1 293.9 363.4L293.9 363.4A121.6 121.6 0 0 0 250 128.4Z");
}
100% {
d:path("M250 110.2A139.8 139.8 0 0 1 300.5 380.3L293.9 363.4A121.6 121.6 0 0 0 250 128.4Z");
}
}
@keyframes zr110-ani-7 {
0% {
d:path("M250 110.2A139.8 139.8 0 0 1 389.2 237.1A139.8 139.8 0 0 0 250 110.2Z");
}
100% {
d:path("M250 92A158 158 0 0 1 407.3 235.4L389.2 237.1A139.8 139.8 0 0 0 250 110.2Z");
}
}
@keyframes zr110-ani-8 {
0% {
d:path("M250 92A158 158 0 0 1 407.3 235.4L407.3 235.4A158 158 0 0 0 250 92Z");
}
100% {
d:path("M250 73.9A176.1 176.1 0 0 1 425.4 233.7L407.3 235.4A158 158 0 0 0 250 92Z");
}
}
@keyframes zr110-ani-9 {
0% {
d:path("M250 73.9A176.1 176.1 0 0 1 313.6 85.8L313.6 85.8A176.1 176.1 0 0 0 250 73.9Z");
}
100% {
d:path("M250 55.7A194.3 194.3 0 0 1 320.2 68.8L313.6 85.8A176.1 176.1 0 0 0 250 73.9Z");
}
}
@keyframes zr110-ani-10 {
0% {
d:path("M313.6 85.8A176.1 176.1 0 0 1 342.7 100.2L342.7 100.2A176.1 176.1 0 0 0 313.6 85.8Z");
}
100% {
d:path("M320.2 68.8A194.3 194.3 0 0 1 352.3 84.8L342.7 100.2A176.1 176.1 0 0 0 313.6 85.8Z");
}
}
@keyframes zr110-ani-11 {
0% {
d:path("M342.7 100.2A176.1 176.1 0 0 1 368.7 119.8L368.7 119.8A176.1 176.1 0 0 0 342.7 100.2Z");
}
100% {
d:path("M352.3 84.8A194.3 194.3 0 0 1 380.9 106.4L368.7 119.8A176.1 176.1 0 0 0 342.7 100.2Z");
}
}
@keyframes zr110-ani-12 {
0% {
d:path("M368.7 119.8A176.1 176.1 0 0 1 390.6 143.9L390.6 143.9A176.1 176.1 0 0 0 368.7 119.8Z");
}
100% {
d:path("M380.9 106.4A194.3 194.3 0 0 1 405.1 132.9L390.6 143.9A176.1 176.1 0 0 0 368.7 119.8Z");
}
}
@keyframes zr110-ani-13 {
0% {
d:path("M390.6 143.9A176.1 176.1 0 0 1 407.7 171.5L407.7 171.5A176.1 176.1 0 0 0 390.6 143.9Z");
}
100% {
d:path("M405.1 132.9A194.3 194.3 0 0 1 423.9 163.4L407.7 171.5A176.1 176.1 0 0 0 390.6 143.9Z");
}
}
@keyframes zr110-ani-14 {
0% {
d:path("M407.7 171.5A176.1 176.1 0 0 1 419.4 201.8L419.4 201.8A176.1 176.1 0 0 0 407.7 171.5Z");
}
100% {
d:path("M423.9 163.4A194.3 194.3 0 0 1 436.9 196.8L419.4 201.8A176.1 176.1 0 0 0 407.7 171.5Z");
}
}
@keyframes zr110-ani-15 {
0% {
d:path("M419.4 201.8A176.1 176.1 0 0 1 425.4 233.7L425.4 233.7A176.1 176.1 0 0 0 419.4 201.8Z");
}
100% {
d:path("M436.9 196.8A194.3 194.3 0 0 1 443.5 232.1L425.4 233.7A176.1 176.1 0 0 0 419.4 201.8Z");
}
}
@keyframes zr110-ani-16 {
0% {
d:path("M389.2 237.1A139.8 139.8 0 0 1 361.5 334.2L361.5 334.2A139.8 139.8 0 0 0 389.2 237.1Z");
}
100% {
d:path("M407.3 235.4A158 158 0 0 1 376.1 345.2L361.5 334.2A139.8 139.8 0 0 0 389.2 237.1Z");
}
}
@keyframes zr110-ani-17 {
0% {
d:path("M407.3 235.4A158 158 0 0 1 376.1 345.2L376.1 345.2A158 158 0 0 0 407.3 235.4Z");
}
100% {
d:path("M425.4 233.7A176.1 176.1 0 0 1 390.6 356.1L376.1 345.2A158 158 0 0 0 407.3 235.4Z");
}
}
@keyframes zr110-ani-18 {
0% {
d:path("M425.4 233.7A176.1 176.1 0 0 1 425.4 266.3L425.4 266.3A176.1 176.1 0 0 0 425.4 233.7Z");
}
100% {
d:path("M443.5 232.1A194.3 194.3 0 0 1 443.5 267.9L425.4 266.3A176.1 176.1 0 0 0 425.4 233.7Z");
}
}
@keyframes zr110-ani-19 {
0% {
d:path("M425.4 266.3A176.1 176.1 0 0 1 419.4 298.2L419.4 298.2A176.1 176.1 0 0 0 425.4 266.3Z");
}
100% {
d:path("M443.5 267.9A194.3 194.3 0 0 1 436.9 303.2L419.4 298.2A176.1 176.1 0 0 0 425.4 266.3Z");
}
}
@keyframes zr110-ani-20 {
0% {
d:path("M419.4 298.2A176.1 176.1 0 0 1 407.7 328.5L407.7 328.5A176.1 176.1 0 0 0 419.4 298.2Z");
}
100% {
d:path("M436.9 303.2A194.3 194.3 0 0 1 423.9 336.6L407.7 328.5A176.1 176.1 0 0 0 419.4 298.2Z");
}
}
@keyframes zr110-ani-21 {
0% {
d:path("M407.7 328.5A176.1 176.1 0 0 1 390.6 356.1L390.6 356.1A176.1 176.1 0 0 0 407.7 328.5Z");
}
100% {
d:path("M423.9 336.6A194.3 194.3 0 0 1 405.1 367.1L390.6 356.1A176.1 176.1 0 0 0 407.7 328.5Z");
}
}
@keyframes zr110-ani-22 {
0% {
d:path("M361.5 334.2A139.8 139.8 0 0 1 300.5 380.3L300.5 380.3A139.8 139.8 0 0 0 361.5 334.2Z");
}
100% {
d:path("M376.1 345.2A158 158 0 0 1 307.1 397.3L300.5 380.3A139.8 139.8 0 0 0 361.5 334.2Z");
}
}
@keyframes zr110-ani-23 {
0% {
d:path("M376.1 345.2A158 158 0 0 1 307.1 397.3L307.1 397.3A158 158 0 0 0 376.1 345.2Z");
}
100% {
d:path("M390.6 356.1A176.1 176.1 0 0 1 313.6 414.2L307.1 397.3A158 158 0 0 0 376.1 345.2Z");
}
}
@keyframes zr110-ani-24 {
0% {
d:path("M390.6 356.1A176.1 176.1 0 0 1 342.7 399.8L342.7 399.8A176.1 176.1 0 0 0 390.6 356.1Z");
}
100% {
d:path("M405.1 367.1A194.3 194.3 0 0 1 352.3 415.2L342.7 399.8A176.1 176.1 0 0 0 390.6 356.1Z");
}
}
@keyframes zr110-ani-25 {
0% {
d:path("M405.1 367.1A194.3 194.3 0 0 1 352.3 415.2L352.3 415.2A194.3 194.3 0 0 0 405.1 367.1Z");
}
100% {
d:path("M419.6 378.1A212.5 212.5 0 0 1 361.9 430.7L352.3 415.2A194.3 194.3 0 0 0 405.1 367.1Z");
}
}
@keyframes zr110-ani-26 {
0% {
d:path("M342.7 399.8A176.1 176.1 0 0 1 313.6 414.2L313.6 414.2A176.1 176.1 0 0 0 342.7 399.8Z");
}
100% {
d:path("M352.3 415.2A194.3 194.3 0 0 1 320.2 431.2L313.6 414.2A176.1 176.1 0 0 0 342.7 399.8Z");
}
}
@keyframes zr110-ani-27 {
0% {
d:path("M352.3 415.2A194.3 194.3 0 0 1 320.2 431.2L320.2 431.2A194.3 194.3 0 0 0 352.3 415.2Z");
}
100% {
d:path("M361.9 430.7A212.5 212.5 0 0 1 326.8 448.2L320.2 431.2A194.3 194.3 0 0 0 352.3 415.2Z");
}
}
@keyframes zr110-ani-28 {
0% {
d:path("M280.8 329.5A85.2 85.2 0 0 1 265.7 333.8L265.7 333.8A85.2 85.2 0 0 0 280.8 329.5Z");
}
100% {
d:path("M287.4 346.4A103.4 103.4 0 0 1 269 351.6L265.7 333.8A85.2 85.2 0 0 0 280.8 329.5Z");
}
}
@keyframes zr110-ani-29 {
0% {
d:path("M287.4 346.4A103.4 103.4 0 0 1 269 351.6L269 351.6A103.4 103.4 0 0 0 287.4 346.4Z");
}
100% {
d:path("M293.9 363.4A121.6 121.6 0 0 1 272.3 369.5L269 351.6A103.4 103.4 0 0 0 287.4 346.4Z");
}
}
@keyframes zr110-ani-30 {
0% {
d:path("M255.6 280.2A30.7 30.7 0 0 1 233.8 276.1L233.8 276.1A30.7 30.7 0 0 0 255.6 280.2Z");
}
100% {
d:path("M259 298A48.9 48.9 0 0 1 224.3 291.5L233.8 276.1A30.7 30.7 0 0 0 255.6 280.2Z");
}
}
@keyframes zr110-ani-31 {
0% {
d:path("M259 298A48.9 48.9 0 0 1 250 298.9L250 298.9A48.9 48.9 0 0 0 259 298Z");
}
100% {
d:path("M262.3 315.9A67 67 0 0 1 250 317L250 298.9A48.9 48.9 0 0 0 259 298Z");
}
}
@keyframes zr110-ani-32 {
0% {
d:path("M262.3 315.9A67 67 0 0 1 250 317L250 317A67 67 0 0 0 262.3 315.9Z");
}
100% {
d:path("M265.7 333.8A85.2 85.2 0 0 1 250 335.2L250 317A67 67 0 0 0 262.3 315.9Z");
}
}
@keyframes zr110-ani-33 {
0% {
d:path("M250 298.9A48.9 48.9 0 0 1 241 298A48.9 48.9 0 0 0 250 298.9Z");
}
100% {
d:path("M250 317A67 67 0 0 1 237.7 315.9L241 298A48.9 48.9 0 0 0 250 298.9Z");
}
}
@keyframes zr110-ani-34 {
0% {
d:path("M250 317A67 67 0 0 1 237.7 315.9A67 67 0 0 0 250 317Z");
}
100% {
d:path("M250 335.2A85.2 85.2 0 0 1 234.3 333.8L237.7 315.9A67 67 0 0 0 250 317Z");
}
}
@keyframes zr110-ani-35 {
0% {
d:path("M241 298A48.9 48.9 0 0 1 232.3 295.6L232.3 295.6A48.9 48.9 0 0 0 241 298Z");
}
100% {
d:path("M237.7 315.9A67 67 0 0 1 225.8 312.5L232.3 295.6A48.9 48.9 0 0 0 241 298Z");
}
}
@keyframes zr110-ani-36 {
0% {
d:path("M237.7 315.9A67 67 0 0 1 225.8 312.5L225.8 312.5A67 67 0 0 0 237.7 315.9Z");
}
100% {
d:path("M234.3 333.8A85.2 85.2 0 0 1 219.2 329.5L225.8 312.5A67 67 0 0 0 237.7 315.9Z");
}
}
@keyframes zr110-ani-37 {
0% {
d:path("M232.3 295.6A48.9 48.9 0 0 1 224.3 291.5L224.3 291.5A48.9 48.9 0 0 0 232.3 295.6Z");
}
100% {
d:path("M225.8 312.5A67 67 0 0 1 214.7 307L224.3 291.5A48.9 48.9 0 0 0 232.3 295.6Z");
}
}
@keyframes zr110-ani-38 {
0% {
d:path("M225.8 312.5A67 67 0 0 1 214.7 307L214.7 307A67 67 0 0 0 225.8 312.5Z");
}
100% {
d:path("M219.2 329.5A85.2 85.2 0 0 1 205.1 322.5L214.7 307A67 67 0 0 0 225.8 312.5Z");
}
}
@keyframes zr110-ani-39 {
0% {
d:path("M233.8 276.1A30.7 30.7 0 0 1 225.5 268.5L225.5 268.5A30.7 30.7 0 0 0 233.8 276.1Z");
}
100% {
d:path("M224.3 291.5A48.9 48.9 0 0 1 211 279.4L225.5 268.5A30.7 30.7 0 0 0 233.8 276.1Z");
}
}
@keyframes zr110-ani-40 {
0% {
d:path("M224.3 291.5A48.9 48.9 0 0 1 217.1 286.1L217.1 286.1A48.9 48.9 0 0 0 224.3 291.5Z");
}
100% {
d:path("M214.7 307A67 67 0 0 1 204.8 299.5L217.1 286.1A48.9 48.9 0 0 0 224.3 291.5Z");
}
}
@keyframes zr110-ani-41 {
0% {
d:path("M214.7 307A67 67 0 0 1 204.8 299.5L204.8 299.5A67 67 0 0 0 214.7 307Z");
}
100% {
d:path("M205.1 322.5A85.2 85.2 0 0 1 192.6 313L204.8 299.5A67 67 0 0 0 214.7 307Z");
}
}
@keyframes zr110-ani-42 {
0% {
d:path("M217.1 286.1A48.9 48.9 0 0 1 211 279.4L211 279.4A48.9 48.9 0 0 0 217.1 286.1Z");
}
100% {
d:path("M204.8 299.5A67 67 0 0 1 196.5 290.4L211 279.4A48.9 48.9 0 0 0 217.1 286.1Z");
}
}
@keyframes zr110-ani-43 {
0% {
d:path("M204.8 299.5A67 67 0 0 1 196.5 290.4L196.5 290.4A67 67 0 0 0 204.8 299.5Z");
}
100% {
d:path("M192.6 313A85.2 85.2 0 0 1 182 301.4L196.5 290.4A67 67 0 0 0 204.8 299.5Z");
}
}
@keyframes zr110-ani-44 {
0% {
d:path("M240 257.5A12.5 12.5 0 0 1 245.5 238.3L245.5 238.3A12.5 12.5 0 0 0 240 257.5Z");
}
100% {
d:path("M225.5 268.5A30.7 30.7 0 0 1 238.9 221.4L245.5 238.3A12.5 12.5 0 0 0 240 257.5Z");
}
}
@keyframes zr110-ani-45 {
0% {
d:path("M225.5 268.5A30.7 30.7 0 0 1 222.5 236.3L222.5 236.3A30.7 30.7 0 0 0 225.5 268.5Z");
}
100% {
d:path("M211 279.4A48.9 48.9 0 0 1 206.3 228.2L222.5 236.3A30.7 30.7 0 0 0 225.5 268.5Z");
}
}
@keyframes zr110-ani-46 {
0% {
d:path("M211 279.4A48.9 48.9 0 0 1 201.3 254.5L201.3 254.5A48.9 48.9 0 0 0 211 279.4Z");
}
100% {
d:path("M196.5 290.4A67 67 0 0 1 183.2 256.2L201.3 254.5A48.9 48.9 0 0 0 211 279.4Z");
}
}
@keyframes zr110-ani-47 {
0% {
d:path("M201.3 254.5A48.9 48.9 0 0 1 206.3 228.2L206.3 228.2A48.9 48.9 0 0 0 201.3 254.5Z");
}
100% {
d:path("M183.2 256.2A67 67 0 0 1 190 220.1L206.3 228.2A48.9 48.9 0 0 0 201.3 254.5Z");
}
}
@keyframes zr110-ani-48 {
0% {
d:path("M222.5 236.3A30.7 30.7 0 0 1 238.9 221.4L238.9 221.4A30.7 30.7 0 0 0 222.5 236.3Z");
}
100% {
d:path("M206.3 228.2A48.9 48.9 0 0 1 232.3 204.4L238.9 221.4A30.7 30.7 0 0 0 222.5 236.3Z");
}
}
@keyframes zr110-ani-49 {
0% {
d:path("M206.3 228.2A48.9 48.9 0 0 1 217.1 213.9L217.1 213.9A48.9 48.9 0 0 0 206.3 228.2Z");
}
100% {
d:path("M190 220.1A67 67 0 0 1 204.8 200.5L217.1 213.9A48.9 48.9 0 0 0 206.3 228.2Z");
}
}
@keyframes zr110-ani-50 {
0% {
d:path("M217.1 213.9A48.9 48.9 0 0 1 232.3 204.4L232.3 204.4A48.9 48.9 0 0 0 217.1 213.9Z");
}
100% {
d:path("M204.8 200.5A67 67 0 0 1 225.8 187.5L232.3 204.4A48.9 48.9 0 0 0 217.1 213.9Z");
}
}
@keyframes zr110-ani-51 {
0% {
d:path("M245.5 238.3A12.5 12.5 0 0 1 250 237.5L250 237.5A12.5 12.5 0 0 0 245.5 238.3Z");
}
100% {
d:path("M238.9 221.4A30.7 30.7 0 0 1 250 219.3L250 237.5A12.5 12.5 0 0 0 245.5 238.3Z");
}
}
@keyframes zr110-ani-52 {
0% {
d:path("M238.9 221.4A30.7 30.7 0 0 1 244.4 219.8L244.4 219.8A30.7 30.7 0 0 0 238.9 221.4Z");
}
100% {
d:path("M232.3 204.4A48.9 48.9 0 0 1 241 202L244.4 219.8A30.7 30.7 0 0 0 238.9 221.4Z");
}
}
@keyframes zr110-ani-53 {
0% {
d:path("M244.4 219.8A30.7 30.7 0 0 1 250 219.3L250 219.3A30.7 30.7 0 0 0 244.4 219.8Z");
}
100% {
d:path("M241 202A48.9 48.9 0 0 1 250 201.1L250 219.3A30.7 30.7 0 0 0 244.4 219.8Z");
}
}
]]>

</style>
</svg>