<svg width="500" height="500" xmlns="http://www.w3.org/2000/svg" xmlns:xlink="http://www.w3.org/1999/xlink" version="1.1" baseProfile="full" viewBox="0 0 500 500">
<rect width="500" height="500" x="0" y="0" id="0" fill="none"></rect>
<path d="M250 187.5A62.5 62.5 0 1 1 224.6 192.9L244.9 238.6A12.5 12.5 0 1 0 250 237.5Z" fill="#C8C8C8" stroke="white" stroke-linejoin="bevel" class="zr56-cls-0"></path>
<path d="M250 137.5A112.5 112.5 0 1 1 155.6 188.7L197.6 216A62.5 62.5 0 1 0 250 187.5Z" fill="#C8C8C8" stroke="white" stroke-linejoin="bevel" class="zr56-cls-1"></path>
<path d="M155.6 188.7A112.5 112.5 0 0 1 179.2 162.6L210.7 201.4A62.5 62.5 0 0 0 197.6 216Z" fill="#C8C8C8" stroke="white" stroke-linejoin="bevel" class="zr56-cls-2"></path>
<path d="M179.2 162.6A112.5 112.5 0 0 1 204.2 147.2L224.6 192.9A62.5 62.5 0 0 0 210.7 201.4Z" fill="#C8C8C8" stroke="white" stroke-linejoin="bevel" class="zr56-cls-3"></path>
<path d="M224.6 192.9A62.5 62.5 0 0 1 250 187.5L250 237.5A12.5 12.5 0 0 0 244.9 238.6Z" fill="#000" stroke="white" stroke-linejoin="bevel" class="zr56-cls-4"></path>
<path d="M204.2 147.2A112.5 112.5 0 0 1 226.6 140L237 188.9A62.5 62.5 0 0 0 224.6 192.9Z" fill="#49ff49" fill-opacity="0.5" stroke="#fff" stroke-width="4" stroke-opacity="0.5" stroke-linejoin="bevel" class="zr56-cls-5"></path>
<path d="M183.9 101.5A162.5 162.5 0 0 1 191.8 98.3L209.7 145A112.5 112.5 0 0 0 204.2 147.2Z" fill="#000" stroke="white" stroke-linejoin="bevel" class="zr56-cls-6"></path>
<path d="M163.6 55.9A212.5 212.5 0 0 1 173.8 51.6L191.8 98.3A162.5 162.5 0 0 0 183.9 101.5Z" fill="#0AA40D" stroke="white" stroke-linejoin="bevel" class="zr56-cls-7"></path>
<path d="M191.8 98.3A162.5 162.5 0 0 1 199.8 95.5L215.2 143A112.5 112.5 0 0 0 209.7 145Z" fill="#000" stroke="white" stroke-linejoin="bevel" class="zr56-cls-8"></path>
<path d="M173.8 51.6A212.5 212.5 0 0 1 184.3 47.9L199.8 95.5A162.5 162.5 0 0 0 191.8 98.3Z" fill="#FF0000" stroke="white" stroke-linejoin="bevel" class="zr56-cls-9"></path>
<path d="M199.8 95.5A162.5 162.5 0 0 1 207.9 93L220.9 141.3A112.5 112.5 0 0 0 215.2 143Z" fill="#000" stroke="white" stroke-linejoin="bevel" class="zr56-cls-10"></path>
<path d="M184.3 47.9A212.5 212.5 0 0 1 195 44.7L207.9 93A162.5 162.5 0 0 0 199.8 95.5Z" fill="#FF0000" stroke="white" stroke-linejoin="bevel" class="zr56-cls-11"></path>
<path d="M207.9 93A162.5 162.5 0 0 1 216.2 91.1L226.6 140A112.5 112.5 0 0 0 220.9 141.3Z" fill="#000" stroke="white" stroke-linejoin="bevel" class="zr56-cls-12"></path>
<path d="M195 44.7A212.5 212.5 0 0 1 205.8 42.1L216.2 91.1A162.5 162.5 0 0 0 207.9 93Z" fill="#0AA40D" stroke="white" stroke-linejoin="bevel" class="zr56-cls-13"></path>
<path d="M226.6 140A112.5 112.5 0 0 1 250 137.5L250 187.5A62.5 62.5 0 0 0 237 188.9Z" fill="#ff4949" fill-opacity="0.5" stroke="#fff" stroke-width="4" stroke-opacity="0.5" stroke-linejoin="bevel" class="zr56-cls-14"></path>
<path d="M216.2 91.1A162.5 162.5 0 0 1 224.6 89.5L232.4 138.9A112.5 112.5 0 0 0 226.6 140Z" fill="#000" stroke="white" stroke-linejoin="bevel" class="zr56-cls-15"></path>
<path d="M205.8 42.1A212.5 212.5 0 0 1 216.8 40.1L224.6 89.5A162.5 162.5 0 0 0 216.2 91.1Z" fill="#FF0000" stroke="white" stroke-linejoin="bevel" class="zr56-cls-16"></path>
<path d="M224.6 89.5A162.5 162.5 0 0 1 233 88.4L238.2 138.1A112.5 112.5 0 0 0 232.4 138.9Z" fill="#000" stroke="white" stroke-linejoin="bevel" class="zr56-cls-17"></path>
<path d="M216.8 40.1A212.5 212.5 0 0 1 227.8 38.7L233 88.4A162.5 162.5 0 0 0 224.6 89.5Z" fill="#0AA40D" stroke="white" stroke-linejoin="bevel" class="zr56-cls-18"></path>
<path d="M233 88.4A162.5 162.5 0 0 1 241.5 87.7L244.1 137.7A112.5 112.5 0 0 0 238.2 138.1Z" fill="#000" stroke="white" stroke-linejoin="bevel" class="zr56-cls-19"></path>
<path d="M227.8 38.7A212.5 212.5 0 0 1 238.9 37.8L241.5 87.7A162.5 162.5 0 0 0 233 88.4Z" fill="#FF0000" stroke="white" stroke-linejoin="bevel" class="zr56-cls-20"></path>
<path d="M241.5 87.7A162.5 162.5 0 0 1 250 87.5L250 137.5A112.5 112.5 0 0 0 244.1 137.7Z" fill="#000" stroke="white" stroke-linejoin="bevel" class="zr56-cls-21"></path>
<path d="M238.9 37.8A212.5 212.5 0 0 1 250 37.5L250 87.5A162.5 162.5 0 0 0 241.5 87.7Z" fill="#0AA40D" stroke="white" stroke-linejoin="bevel" class="zr56-cls-22"></path>
<text dominant-baseline="central" text-anchor="middle" style="font-size:12px;font-family:sans-serif;" transform="matrix(0.978,-0.208,0.208,0.978,257.7967,286.6805)" fill="#333">info</text>
<text dominant-baseline="central" text-anchor="middle" style="font-size:10px;font-family:sans-serif;" transform="matrix(0.879,-0.477,0.477,0.879,291.7514,326.8965)" fill="#333">version</text>
<text dominant-baseline="central" text-anchor="middle" style="font-size:12px;font-family:sans-serif;" transform="matrix(0.669,-0.743,0.743,0.669,184.9748,191.4511)" fill="#333">title</text>
<text dominant-baseline="central" text-anchor="middle" style="font-size:12px;font-family:sans-serif;" transform="matrix(0.978,-0.208,0.208,0.978,242.2033,213.3195)" fill="#ccc" stroke="#000" stroke-width="2" paint-order="stroke" stroke-miterlimit="2">paths</text>
<path d="M-14.8 -16l66.6 0l0 32l-66.6 0Z" transform="translate(448.253 16)" fill="none" stroke="#ccc" stroke-width="0"></path>
<path d="M-7.3 -1.8L-0.1 4.8L7.3 -1.6M-7.3 4.3L-7.3 8.5L7.1 8.5L7.1 4.3M-0.1 4.7L-0.1 -8.5" transform="translate(448.253 16)" fill="none" stroke="#666"></path>
<path d="M-7.9 1M5.1 -3.4L8.1 -3.4L8.1 -6.4M8 -3C6.7 -6.4 3.2 -8.9 -1 -8.4C-5.3 -8 -8.6 -4.2 -8.4 0.2M-5.1 3.4L-8.1 3.4L-8.1 6.4M-8 3C-6.7 6.4 -3.2 8.9 1 8.4C5.3 8 8.6 4.2 8.4 -0.2" transform="translate(484.0476 16)" fill="none" stroke="#666"></path>
<style ><![CDATA[
.zr56-cls-0 {
animation:zr56-ani-0 1s cubic-bezier(0.65,0,0.35,1) both;
}
.zr56-cls-1 {
animation:zr56-ani-1 1s cubic-bezier(0.65,0,0.35,1) both;
}
.zr56-cls-2 {
animation:zr56-ani-2 1s cubic-bezier(0.65,0,0.35,1) both;
}
.zr56-cls-3 {
animation:zr56-ani-3 1s cubic-bezier(0.65,0,0.35,1) both;
}
.zr56-cls-4 {
animation:zr56-ani-4 1s cubic-bezier(0.65,0,0.35,1) both;
}
.zr56-cls-5 {
animation:zr56-ani-5 1s cubic-bezier(0.65,0,0.35,1) both;
}
.zr56-cls-6 {
animation:zr56-ani-6 1s cubic-bezier(0.65,0,0.35,1) both;
}
.zr56-cls-7 {
animation:zr56-ani-7 1s cubic-bezier(0.65,0,0.35,1) both;
}
.zr56-cls-8 {
animation:zr56-ani-8 1s cubic-bezier(0.65,0,0.35,1) both;
}
.zr56-cls-9 {
animation:zr56-ani-9 1s cubic-bezier(0.65,0,0.35,1) both;
}
.zr56-cls-10 {
animation:zr56-ani-10 1s cubic-bezier(0.65,0,0.35,1) both;
}
.zr56-cls-11 {
animation:zr56-ani-11 1s cubic-bezier(0.65,0,0.35,1) both;
}
.zr56-cls-12 {
animation:zr56-ani-12 1s cubic-bezier(0.65,0,0.35,1) both;
}
.zr56-cls-13 {
animation:zr56-ani-13 1s cubic-bezier(0.65,0,0.35,1) both;
}
.zr56-cls-14 {
animation:zr56-ani-14 1s cubic-bezier(0.65,0,0.35,1) both;
}
.zr56-cls-15 {
animation:zr56-ani-15 1s cubic-bezier(0.65,0,0.35,1) both;
}
.zr56-cls-16 {
animation:zr56-ani-16 1s cubic-bezier(0.65,0,0.35,1) both;
}
.zr56-cls-17 {
animation:zr56-ani-17 1s cubic-bezier(0.65,0,0.35,1) both;
}
.zr56-cls-18 {
animation:zr56-ani-18 1s cubic-bezier(0.65,0,0.35,1) both;
}
.zr56-cls-19 {
animation:zr56-ani-19 1s cubic-bezier(0.65,0,0.35,1) both;
}
.zr56-cls-20 {
animation:zr56-ani-20 1s cubic-bezier(0.65,0,0.35,1) both;
}
.zr56-cls-21 {
animation:zr56-ani-21 1s cubic-bezier(0.65,0,0.35,1) both;
}
.zr56-cls-22 {
animation:zr56-ani-22 1s cubic-bezier(0.65,0,0.35,1) both;
}
@keyframes zr56-ani-0 {
0% {
d:path("M250 237.5A12.5 12.5 0 1 1 244.9 238.6A12.5 12.5 0 1 0 250 237.5Z");
}
100% {
d:path("M250 187.5A62.5 62.5 0 1 1 224.6 192.9L244.9 238.6A12.5 12.5 0 1 0 250 237.5Z");
}
}
@keyframes zr56-ani-1 {
0% {
d:path("M250 187.5A62.5 62.5 0 1 1 197.6 216L197.6 216A62.5 62.5 0 1 0 250 187.5Z");
}
100% {
d:path("M250 137.5A112.5 112.5 0 1 1 155.6 188.7L197.6 216A62.5 62.5 0 1 0 250 187.5Z");
}
}
@keyframes zr56-ani-2 {
0% {
d:path("M197.6 216A62.5 62.5 0 0 1 210.7 201.4L210.7 201.4A62.5 62.5 0 0 0 197.6 216Z");
}
100% {
d:path("M155.6 188.7A112.5 112.5 0 0 1 179.2 162.6L210.7 201.4A62.5 62.5 0 0 0 197.6 216Z");
}
}
@keyframes zr56-ani-3 {
0% {
d:path("M210.7 201.4A62.5 62.5 0 0 1 224.6 192.9L224.6 192.9A62.5 62.5 0 0 0 210.7 201.4Z");
}
100% {
d:path("M179.2 162.6A112.5 112.5 0 0 1 204.2 147.2L224.6 192.9A62.5 62.5 0 0 0 210.7 201.4Z");
}
}
@keyframes zr56-ani-4 {
0% {
d:path("M244.9 238.6A12.5 12.5 0 0 1 250 237.5L250 237.5A12.5 12.5 0 0 0 244.9 238.6Z");
}
100% {
d:path("M224.6 192.9A62.5 62.5 0 0 1 250 187.5L250 237.5A12.5 12.5 0 0 0 244.9 238.6Z");
}
}
@keyframes zr56-ani-5 {
0% {
d:path("M224.6 192.9A62.5 62.5 0 0 1 237 188.9L237 188.9A62.5 62.5 0 0 0 224.6 192.9Z");
}
100% {
d:path("M204.2 147.2A112.5 112.5 0 0 1 226.6 140L237 188.9A62.5 62.5 0 0 0 224.6 192.9Z");
}
}
@keyframes zr56-ani-6 {
0% {
d:path("M204.2 147.2A112.5 112.5 0 0 1 209.7 145L209.7 145A112.5 112.5 0 0 0 204.2 147.2Z");
}
100% {
d:path("M183.9 101.5A162.5 162.5 0 0 1 191.8 98.3L209.7 145A112.5 112.5 0 0 0 204.2 147.2Z");
}
}
@keyframes zr56-ani-7 {
0% {
d:path("M183.9 101.5A162.5 162.5 0 0 1 191.8 98.3L191.8 98.3A162.5 162.5 0 0 0 183.9 101.5Z");
}
100% {
d:path("M163.6 55.9A212.5 212.5 0 0 1 173.8 51.6L191.8 98.3A162.5 162.5 0 0 0 183.9 101.5Z");
}
}
@keyframes zr56-ani-8 {
0% {
d:path("M209.7 145A112.5 112.5 0 0 1 215.2 143L215.2 143A112.5 112.5 0 0 0 209.7 145Z");
}
100% {
d:path("M191.8 98.3A162.5 162.5 0 0 1 199.8 95.5L215.2 143A112.5 112.5 0 0 0 209.7 145Z");
}
}
@keyframes zr56-ani-9 {
0% {
d:path("M191.8 98.3A162.5 162.5 0 0 1 199.8 95.5L199.8 95.5A162.5 162.5 0 0 0 191.8 98.3Z");
}
100% {
d:path("M173.8 51.6A212.5 212.5 0 0 1 184.3 47.9L199.8 95.5A162.5 162.5 0 0 0 191.8 98.3Z");
}
}
@keyframes zr56-ani-10 {
0% {
d:path("M215.2 143A112.5 112.5 0 0 1 220.9 141.3A112.5 112.5 0 0 0 215.2 143Z");
}
100% {
d:path("M199.8 95.5A162.5 162.5 0 0 1 207.9 93L220.9 141.3A112.5 112.5 0 0 0 215.2 143Z");
}
}
@keyframes zr56-ani-11 {
0% {
d:path("M199.8 95.5A162.5 162.5 0 0 1 207.9 93A162.5 162.5 0 0 0 199.8 95.5Z");
}
100% {
d:path("M184.3 47.9A212.5 212.5 0 0 1 195 44.7L207.9 93A162.5 162.5 0 0 0 199.8 95.5Z");
}
}
@keyframes zr56-ani-12 {
0% {
d:path("M220.9 141.3A112.5 112.5 0 0 1 226.6 140L226.6 140A112.5 112.5 0 0 0 220.9 141.3Z");
}
100% {
d:path("M207.9 93A162.5 162.5 0 0 1 216.2 91.1L226.6 140A112.5 112.5 0 0 0 220.9 141.3Z");
}
}
@keyframes zr56-ani-13 {
0% {
d:path("M207.9 93A162.5 162.5 0 0 1 216.2 91.1L216.2 91.1A162.5 162.5 0 0 0 207.9 93Z");
}
100% {
d:path("M195 44.7A212.5 212.5 0 0 1 205.8 42.1L216.2 91.1A162.5 162.5 0 0 0 207.9 93Z");
}
}
@keyframes zr56-ani-14 {
0% {
d:path("M237 188.9A62.5 62.5 0 0 1 250 187.5L250 187.5A62.5 62.5 0 0 0 237 188.9Z");
}
100% {
d:path("M226.6 140A112.5 112.5 0 0 1 250 137.5L250 187.5A62.5 62.5 0 0 0 237 188.9Z");
}
}
@keyframes zr56-ani-15 {
0% {
d:path("M226.6 140A112.5 112.5 0 0 1 232.4 138.9L232.4 138.9A112.5 112.5 0 0 0 226.6 140Z");
}
100% {
d:path("M216.2 91.1A162.5 162.5 0 0 1 224.6 89.5L232.4 138.9A112.5 112.5 0 0 0 226.6 140Z");
}
}
@keyframes zr56-ani-16 {
0% {
d:path("M216.2 91.1A162.5 162.5 0 0 1 224.6 89.5L224.6 89.5A162.5 162.5 0 0 0 216.2 91.1Z");
}
100% {
d:path("M205.8 42.1A212.5 212.5 0 0 1 216.8 40.1L224.6 89.5A162.5 162.5 0 0 0 216.2 91.1Z");
}
}
@keyframes zr56-ani-17 {
0% {
d:path("M232.4 138.9A112.5 112.5 0 0 1 238.2 138.1A112.5 112.5 0 0 0 232.4 138.9Z");
}
100% {
d:path("M224.6 89.5A162.5 162.5 0 0 1 233 88.4L238.2 138.1A112.5 112.5 0 0 0 232.4 138.9Z");
}
}
@keyframes zr56-ani-18 {
0% {
d:path("M224.6 89.5A162.5 162.5 0 0 1 233 88.4A162.5 162.5 0 0 0 224.6 89.5Z");
}
100% {
d:path("M216.8 40.1A212.5 212.5 0 0 1 227.8 38.7L233 88.4A162.5 162.5 0 0 0 224.6 89.5Z");
}
}
@keyframes zr56-ani-19 {
0% {
d:path("M238.2 138.1A112.5 112.5 0 0 1 244.1 137.7L244.1 137.7A112.5 112.5 0 0 0 238.2 138.1Z");
}
100% {
d:path("M233 88.4A162.5 162.5 0 0 1 241.5 87.7L244.1 137.7A112.5 112.5 0 0 0 238.2 138.1Z");
}
}
@keyframes zr56-ani-20 {
0% {
d:path("M233 88.4A162.5 162.5 0 0 1 241.5 87.7L241.5 87.7A162.5 162.5 0 0 0 233 88.4Z");
}
100% {
d:path("M227.8 38.7A212.5 212.5 0 0 1 238.9 37.8L241.5 87.7A162.5 162.5 0 0 0 233 88.4Z");
}
}
@keyframes zr56-ani-21 {
0% {
d:path("M244.1 137.7A112.5 112.5 0 0 1 250 137.5L250 137.5A112.5 112.5 0 0 0 244.1 137.7Z");
}
100% {
d:path("M241.5 87.7A162.5 162.5 0 0 1 250 87.5L250 137.5A112.5 112.5 0 0 0 244.1 137.7Z");
}
}
@keyframes zr56-ani-22 {
0% {
d:path("M241.5 87.7A162.5 162.5 0 0 1 250 87.5L250 87.5A162.5 162.5 0 0 0 241.5 87.7Z");
}
100% {
d:path("M238.9 37.8A212.5 212.5 0 0 1 250 37.5L250 87.5A162.5 162.5 0 0 0 241.5 87.7Z");
}
}
]]>

</style>
</svg>