<svg width="500" height="500" xmlns="http://www.w3.org/2000/svg" xmlns:xlink="http://www.w3.org/1999/xlink" version="1.1" baseProfile="full" viewBox="0 0 500 500">
<rect width="500" height="500" x="0" y="0" id="0" fill="none"></rect>
<path d="M250 204.2A45.8 45.8 0 1 1 245.4 204.4A45.8 45.8 0 0 1 250 204.2M250 237.5A12.5 12.5 0 1 0 251.2 237.6A12.5 12.5 0 0 0 250 237.5Z" fill="#000" stroke="white" stroke-linejoin="bevel" class="zr84-cls-0"></path>
<path d="M250 170.8A79.2 79.2 0 1 1 250 329.2L250 295.8A45.8 45.8 0 0 0 250 204.2Z" fill="#4949CD" fill-opacity="0.5" stroke="#fff" stroke-width="4" stroke-opacity="0.5" stroke-linejoin="bevel" class="zr84-cls-1"></path>
<path d="M250 137.5A112.5 112.5 0 0 1 316.1 159L296.5 186A79.2 79.2 0 0 0 250 170.8Z" fill="#000" stroke="white" stroke-linejoin="bevel" class="zr84-cls-2"></path>
<path d="M250 104.2A145.8 145.8 0 0 1 335.7 132L316.1 159A112.5 112.5 0 0 0 250 137.5Z" fill="#000" stroke="white" stroke-linejoin="bevel" class="zr84-cls-3"></path>
<path d="M250 70.8A179.2 179.2 0 0 1 355.3 105.1L335.7 132A145.8 145.8 0 0 0 250 104.2Z" fill="#ff4949" fill-opacity="0.5" stroke="#fff" stroke-width="4" stroke-opacity="0.5" stroke-linejoin="bevel" class="zr84-cls-4"></path>
<path d="M250 37.5A212.5 212.5 0 0 1 374.9 78.1L355.3 105.1A179.2 179.2 0 0 0 250 70.8Z" fill="#F3C142" stroke="white" stroke-linejoin="bevel" class="zr84-cls-5"></path>
<path d="M316.1 159A112.5 112.5 0 0 1 357 215.2L325.3 225.5A79.2 79.2 0 0 0 296.5 186Z" fill="#000" stroke="white" stroke-linejoin="bevel" class="zr84-cls-6"></path>
<path d="M335.7 132A145.8 145.8 0 0 1 388.7 204.9L357 215.2A112.5 112.5 0 0 0 316.1 159Z" fill="#000" stroke="white" stroke-linejoin="bevel" class="zr84-cls-7"></path>
<path d="M355.3 105.1A179.2 179.2 0 0 1 420.4 194.6L388.7 204.9A145.8 145.8 0 0 0 335.7 132Z" fill="#ff4949" fill-opacity="0.5" stroke="#fff" stroke-width="4" stroke-opacity="0.5" stroke-linejoin="bevel" class="zr84-cls-8"></path>
<path d="M374.9 78.1A212.5 212.5 0 0 1 452.1 184.3L420.4 194.6A179.2 179.2 0 0 0 355.3 105.1Z" fill="#6dc0e3" stroke="white" stroke-linejoin="bevel" class="zr84-cls-9"></path>
<path d="M357 215.2A112.5 112.5 0 0 1 357 284.8L325.3 274.5A79.2 79.2 0 0 0 325.3 225.5Z" fill="#000" stroke="white" stroke-linejoin="bevel" class="zr84-cls-10"></path>
<path d="M388.7 204.9A145.8 145.8 0 0 1 388.7 295.1L357 284.8A112.5 112.5 0 0 0 357 215.2Z" fill="#000" stroke="white" stroke-linejoin="bevel" class="zr84-cls-11"></path>
<path d="M420.4 194.6A179.2 179.2 0 0 1 420.4 305.4L388.7 295.1A145.8 145.8 0 0 0 388.7 204.9Z" fill="#49ff49" fill-opacity="0.5" stroke="#fff" stroke-width="4" stroke-opacity="0.5" stroke-linejoin="bevel" class="zr84-cls-12"></path>
<path d="M452.1 184.3A212.5 212.5 0 0 1 452.1 315.7L420.4 305.4A179.2 179.2 0 0 0 420.4 194.6Z" fill="#FF0000" stroke="white" stroke-linejoin="bevel" class="zr84-cls-13"></path>
<path d="M357 284.8A112.5 112.5 0 0 1 316.1 341L296.5 314A79.2 79.2 0 0 0 325.3 274.5Z" fill="#000" stroke="white" stroke-linejoin="bevel" class="zr84-cls-14"></path>
<path d="M388.7 295.1A145.8 145.8 0 0 1 335.7 368L316.1 341A112.5 112.5 0 0 0 357 284.8Z" fill="#000" stroke="white" stroke-linejoin="bevel" class="zr84-cls-15"></path>
<path d="M420.4 305.4A179.2 179.2 0 0 1 355.3 394.9L335.7 368A145.8 145.8 0 0 0 388.7 295.1Z" fill="#49ff49" fill-opacity="0.5" stroke="#fff" stroke-width="4" stroke-opacity="0.5" stroke-linejoin="bevel" class="zr84-cls-16"></path>
<path d="M452.1 315.7A212.5 212.5 0 0 1 374.9 421.9L355.3 394.9A179.2 179.2 0 0 0 420.4 305.4Z" fill="#FF0000" stroke="white" stroke-linejoin="bevel" class="zr84-cls-17"></path>
<path d="M316.1 341A112.5 112.5 0 0 1 250 362.5L250 329.2A79.2 79.2 0 0 0 296.5 314Z" fill="#000" stroke="white" stroke-linejoin="bevel" class="zr84-cls-18"></path>
<path d="M335.7 368A145.8 145.8 0 0 1 250 395.8L250 362.5A112.5 112.5 0 0 0 316.1 341Z" fill="#000" stroke="white" stroke-linejoin="bevel" class="zr84-cls-19"></path>
<path d="M355.3 394.9A179.2 179.2 0 0 1 250 429.2L250 395.8A145.8 145.8 0 0 0 335.7 368Z" fill="#49ff49" fill-opacity="0.5" stroke="#fff" stroke-width="4" stroke-opacity="0.5" stroke-linejoin="bevel" class="zr84-cls-20"></path>
<path d="M374.9 421.9A212.5 212.5 0 0 1 250 462.5L250 429.2A179.2 179.2 0 0 0 355.3 394.9Z" fill="#FF0000" stroke="white" stroke-linejoin="bevel" class="zr84-cls-21"></path>
<path d="M250 329.2A79.2 79.2 0 0 1 174.7 225.5L206.4 235.8A45.8 45.8 0 0 0 250 295.8Z" fill="rgb(255,255,255)" fill-opacity="0.5" stroke="#fff" stroke-width="4" stroke-opacity="0.5" stroke-linejoin="bevel" class="zr84-cls-22"></path>
<path d="M250 362.5A112.5 112.5 0 0 1 183.9 341L203.5 314A79.2 79.2 0 0 0 250 329.2Z" fill="#000" stroke="white" stroke-linejoin="bevel" class="zr84-cls-23"></path>
<path d="M250 395.8A145.8 145.8 0 0 1 164.3 368L183.9 341A112.5 112.5 0 0 0 250 362.5Z" fill="#FF0000" stroke="white" stroke-linejoin="bevel" class="zr84-cls-24"></path>
<path d="M183.9 341A112.5 112.5 0 0 1 143 284.8L174.7 274.5A79.2 79.2 0 0 0 203.5 314Z" fill="#000" stroke="white" stroke-linejoin="bevel" class="zr84-cls-25"></path>
<path d="M164.3 368A145.8 145.8 0 0 1 111.3 295.1L143 284.8A112.5 112.5 0 0 0 183.9 341Z" fill="#FF0000" stroke="white" stroke-linejoin="bevel" class="zr84-cls-26"></path>
<path d="M143 284.8A112.5 112.5 0 0 1 143 215.2L174.7 225.5A79.2 79.2 0 0 0 174.7 274.5Z" fill="#000" stroke="white" stroke-linejoin="bevel" class="zr84-cls-27"></path>
<path d="M111.3 295.1A145.8 145.8 0 0 1 111.3 204.9L143 215.2A112.5 112.5 0 0 0 143 284.8Z" fill="#FF0000" stroke="white" stroke-linejoin="bevel" class="zr84-cls-28"></path>
<path d="M174.7 225.5A79.2 79.2 0 0 1 250 170.8L250 204.2A45.8 45.8 0 0 0 206.4 235.8Z" fill="rgb(255,255,255)" fill-opacity="0.5" stroke="#fff" stroke-width="4" stroke-opacity="0.5" stroke-linejoin="bevel" class="zr84-cls-29"></path>
<path d="M143 215.2A112.5 112.5 0 0 1 183.9 159L203.5 186A79.2 79.2 0 0 0 174.7 225.5Z" fill="#000" stroke="white" stroke-linejoin="bevel" class="zr84-cls-30"></path>
<path d="M111.3 204.9A145.8 145.8 0 0 1 164.3 132L183.9 159A112.5 112.5 0 0 0 143 215.2Z" fill="#F3C142" stroke="white" stroke-linejoin="bevel" class="zr84-cls-31"></path>
<path d="M183.9 159A112.5 112.5 0 0 1 250 137.5L250 170.8A79.2 79.2 0 0 0 203.5 186Z" fill="#000" stroke="white" stroke-linejoin="bevel" class="zr84-cls-32"></path>
<path d="M164.3 132A145.8 145.8 0 0 1 250 104.2L250 137.5A112.5 112.5 0 0 0 183.9 159Z" fill="#6dc0e3" stroke="white" stroke-linejoin="bevel" class="zr84-cls-33"></path>
<text dominant-baseline="central" text-anchor="middle" style="font-size:12px;font-family:sans-serif;" transform="translate(250 279.1667)" fill="#ccc" stroke="#000" stroke-width="2" paint-order="stroke" stroke-miterlimit="2">paths</text>
<text dominant-baseline="central" text-anchor="middle" style="font-size:9px;font-family:sans-serif;" transform="matrix(0.951,0.309,-0.309,0.951,279.6141,158.8571)" fill="#ccc" stroke="#000" stroke-width="2" paint-order="stroke" stroke-miterlimit="2">/statements</text>
<text dominant-baseline="central" text-anchor="middle" style="font-size:9px;font-family:sans-serif;" transform="matrix(0.951,0.309,-0.309,0.951,289.9147,127.1552)" fill="#ccc" stroke="#000" stroke-width="2" paint-order="stroke" stroke-miterlimit="2">operations</text>
<text dominant-baseline="central" text-anchor="middle" style="font-size:12px;font-family:sans-serif;" transform="matrix(0.951,0.309,-0.309,0.951,310.5158,63.7514)" fill="#333">POST</text>
<text dominant-baseline="central" text-anchor="middle" style="font-size:9px;font-family:sans-serif;" transform="matrix(0.588,0.809,-0.809,0.588,354.498,174.0777)" fill="#ccc" stroke="#000" stroke-width="2" paint-order="stroke" stroke-miterlimit="2">operations</text>
<text dominant-baseline="central" text-anchor="middle" style="font-size:12px;font-family:sans-serif;" transform="matrix(0.588,0.809,-0.809,0.588,408.4325,134.8921)" fill="#333">PUT</text>
<text dominant-baseline="central" text-anchor="middle" style="font-size:9px;font-family:sans-serif;" transform="matrix(0,-1,1,0,345.8333,250)" fill="#ccc" stroke="#000" stroke-width="2" paint-order="stroke" stroke-miterlimit="2">/factoids/{id}</text>
<text dominant-baseline="central" text-anchor="middle" style="font-size:9px;font-family:sans-serif;" transform="matrix(0,-1,1,0,379.1667,250)" fill="#ccc" stroke="#000" stroke-width="2" paint-order="stroke" stroke-miterlimit="2">operations</text>
<text dominant-baseline="central" text-anchor="middle" style="font-size:12px;font-family:sans-serif;" transform="matrix(0,-1,1,0,445.8333,250)" fill="#eee" stroke="#FF0000" stroke-width="2" paint-order="stroke" stroke-miterlimit="2">DELETE</text>
<text dominant-baseline="central" text-anchor="middle" style="font-size:9px;font-family:sans-serif;" transform="matrix(0.588,-0.809,0.809,0.588,327.5308,306.3294)" fill="#ccc" stroke="#000" stroke-width="2" paint-order="stroke" stroke-miterlimit="2">/persons/{id}</text>
<text dominant-baseline="central" text-anchor="middle" style="font-size:9px;font-family:sans-serif;" transform="matrix(0.588,-0.809,0.809,0.588,354.498,325.9223)" fill="#ccc" stroke="#000" stroke-width="2" paint-order="stroke" stroke-miterlimit="2">operations</text>
<text dominant-baseline="central" text-anchor="middle" style="font-size:12px;font-family:sans-serif;" transform="matrix(0.588,-0.809,0.809,0.588,408.4325,365.1079)" fill="#eee" stroke="#FF0000" stroke-width="2" paint-order="stroke" stroke-miterlimit="2">DELETE</text>
<text dominant-baseline="central" text-anchor="middle" style="font-size:9px;font-family:sans-serif;" transform="matrix(0.951,-0.309,0.309,0.951,279.6141,341.1429)" fill="#ccc" stroke="#000" stroke-width="2" paint-order="stroke" stroke-miterlimit="2">/sources/{id}</text>
<text dominant-baseline="central" text-anchor="middle" style="font-size:9px;font-family:sans-serif;" transform="matrix(0.951,-0.309,0.309,0.951,289.9147,372.8448)" fill="#ccc" stroke="#000" stroke-width="2" paint-order="stroke" stroke-miterlimit="2">operations</text>
<text dominant-baseline="central" text-anchor="middle" style="font-size:12px;font-family:sans-serif;" transform="matrix(0.951,-0.309,0.309,0.951,310.5158,436.2486)" fill="#eee" stroke="#FF0000" stroke-width="2" paint-order="stroke" stroke-miterlimit="2">DELETE</text>
<text dominant-baseline="central" text-anchor="middle" style="font-size:9px;font-family:sans-serif;" transform="matrix(0.951,0.309,-0.309,0.951,220.3859,341.1429)" fill="#ccc" stroke="#000" stroke-width="2" paint-order="stroke" stroke-miterlimit="2">/sources/{id}</text>
<text dominant-baseline="central" text-anchor="middle" style="font-size:12px;font-family:sans-serif;" transform="matrix(0.951,0.309,-0.309,0.951,210.0853,372.8448)" fill="#eee" stroke="#FF0000" stroke-width="2" paint-order="stroke" stroke-miterlimit="2">DELETE</text>
<text dominant-baseline="central" text-anchor="middle" style="font-size:9px;font-family:sans-serif;" transform="matrix(0.588,0.809,-0.809,0.588,172.4692,306.3294)" fill="#ccc" stroke="#000" stroke-width="2" paint-order="stroke" stroke-miterlimit="2">/persons/{id}</text>
<text dominant-baseline="central" text-anchor="middle" style="font-size:12px;font-family:sans-serif;" transform="matrix(0.588,0.809,-0.809,0.588,145.502,325.9223)" fill="#eee" stroke="#FF0000" stroke-width="2" paint-order="stroke" stroke-miterlimit="2">DELETE</text>
<text dominant-baseline="central" text-anchor="middle" style="font-size:9px;font-family:sans-serif;" transform="matrix(0,1,-1,0,154.1667,250)" fill="#ccc" stroke="#000" stroke-width="2" paint-order="stroke" stroke-miterlimit="2">/factoids/{id}</text>
<text dominant-baseline="central" text-anchor="middle" style="font-size:12px;font-family:sans-serif;" transform="matrix(0,1,-1,0,120.8333,250)" fill="#eee" stroke="#FF0000" stroke-width="2" paint-order="stroke" stroke-miterlimit="2">DELETE</text>
<text dominant-baseline="central" text-anchor="middle" style="font-size:9px;font-family:sans-serif;" transform="matrix(0.588,-0.809,0.809,0.588,172.4692,193.6706)" fill="#ccc" stroke="#000" stroke-width="2" paint-order="stroke" stroke-miterlimit="2">/statements</text>
<text dominant-baseline="central" text-anchor="middle" style="font-size:12px;font-family:sans-serif;" transform="matrix(0.588,-0.809,0.809,0.588,145.502,174.0777)" fill="#333">POST</text>
<text dominant-baseline="central" text-anchor="middle" style="font-size:12px;font-family:sans-serif;" transform="matrix(0.951,-0.309,0.309,0.951,210.0853,127.1552)" fill="#333">PUT</text>
<path d="M-14.8 -16l66.6 0l0 32l-66.6 0Z" transform="translate(448.253 16)" fill="none" stroke="#ccc" stroke-width="0"></path>
<path d="M-7.3 -1.8L-0.1 4.8L7.3 -1.6M-7.3 4.3L-7.3 8.5L7.1 8.5L7.1 4.3M-0.1 4.7L-0.1 -8.5" transform="translate(448.253 16)" fill="none" stroke="#666"></path>
<path d="M-7.9 1M5.1 -3.4L8.1 -3.4L8.1 -6.4M8 -3C6.7 -6.4 3.2 -8.9 -1 -8.4C-5.3 -8 -8.6 -4.2 -8.4 0.2M-5.1 3.4L-8.1 3.4L-8.1 6.4M-8 3C-6.7 6.4 -3.2 8.9 1 8.4C5.3 8 8.6 4.2 8.4 -0.2" transform="translate(484.0476 16)" fill="none" stroke="#666"></path>
<style ><![CDATA[
.zr84-cls-0 {
animation:zr84-ani-0 1s cubic-bezier(0.65,0,0.35,1) both;
}
.zr84-cls-1 {
animation:zr84-ani-1 1s cubic-bezier(0.65,0,0.35,1) both;
}
.zr84-cls-2 {
animation:zr84-ani-2 1s cubic-bezier(0.65,0,0.35,1) both;
}
.zr84-cls-3 {
animation:zr84-ani-3 1s cubic-bezier(0.65,0,0.35,1) both;
}
.zr84-cls-4 {
animation:zr84-ani-4 1s cubic-bezier(0.65,0,0.35,1) both;
}
.zr84-cls-5 {
animation:zr84-ani-5 1s cubic-bezier(0.65,0,0.35,1) both;
}
.zr84-cls-6 {
animation:zr84-ani-6 1s cubic-bezier(0.65,0,0.35,1) both;
}
.zr84-cls-7 {
animation:zr84-ani-7 1s cubic-bezier(0.65,0,0.35,1) both;
}
.zr84-cls-8 {
animation:zr84-ani-8 1s cubic-bezier(0.65,0,0.35,1) both;
}
.zr84-cls-9 {
animation:zr84-ani-9 1s cubic-bezier(0.65,0,0.35,1) both;
}
.zr84-cls-10 {
animation:zr84-ani-10 1s cubic-bezier(0.65,0,0.35,1) both;
}
.zr84-cls-11 {
animation:zr84-ani-11 1s cubic-bezier(0.65,0,0.35,1) both;
}
.zr84-cls-12 {
animation:zr84-ani-12 1s cubic-bezier(0.65,0,0.35,1) both;
}
.zr84-cls-13 {
animation:zr84-ani-13 1s cubic-bezier(0.65,0,0.35,1) both;
}
.zr84-cls-14 {
animation:zr84-ani-14 1s cubic-bezier(0.65,0,0.35,1) both;
}
.zr84-cls-15 {
animation:zr84-ani-15 1s cubic-bezier(0.65,0,0.35,1) both;
}
.zr84-cls-16 {
animation:zr84-ani-16 1s cubic-bezier(0.65,0,0.35,1) both;
}
.zr84-cls-17 {
animation:zr84-ani-17 1s cubic-bezier(0.65,0,0.35,1) both;
}
.zr84-cls-18 {
animation:zr84-ani-18 1s cubic-bezier(0.65,0,0.35,1) both;
}
.zr84-cls-19 {
animation:zr84-ani-19 1s cubic-bezier(0.65,0,0.35,1) both;
}
.zr84-cls-20 {
animation:zr84-ani-20 1s cubic-bezier(0.65,0,0.35,1) both;
}
.zr84-cls-21 {
animation:zr84-ani-21 1s cubic-bezier(0.65,0,0.35,1) both;
}
.zr84-cls-22 {
animation:zr84-ani-22 1s cubic-bezier(0.65,0,0.35,1) both;
}
.zr84-cls-23 {
animation:zr84-ani-23 1s cubic-bezier(0.65,0,0.35,1) both;
}
.zr84-cls-24 {
animation:zr84-ani-24 1s cubic-bezier(0.65,0,0.35,1) both;
}
.zr84-cls-25 {
animation:zr84-ani-25 1s cubic-bezier(0.65,0,0.35,1) both;
}
.zr84-cls-26 {
animation:zr84-ani-26 1s cubic-bezier(0.65,0,0.35,1) both;
}
.zr84-cls-27 {
animation:zr84-ani-27 1s cubic-bezier(0.65,0,0.35,1) both;
}
.zr84-cls-28 {
animation:zr84-ani-28 1s cubic-bezier(0.65,0,0.35,1) both;
}
.zr84-cls-29 {
animation:zr84-ani-29 1s cubic-bezier(0.65,0,0.35,1) both;
}
.zr84-cls-30 {
animation:zr84-ani-30 1s cubic-bezier(0.65,0,0.35,1) both;
}
.zr84-cls-31 {
animation:zr84-ani-31 1s cubic-bezier(0.65,0,0.35,1) both;
}
.zr84-cls-32 {
animation:zr84-ani-32 1s cubic-bezier(0.65,0,0.35,1) both;
}
.zr84-cls-33 {
animation:zr84-ani-33 1s cubic-bezier(0.65,0,0.35,1) both;
}
@keyframes zr84-ani-0 {
0% {
d:path("M250 237.5A12.5 12.5 0 1 1 248.8 237.6A12.5 12.5 0 0 1 250 237.5M250 237.5A12.5 12.5 0 1 0 251.2 237.6A12.5 12.5 0 0 0 250 237.5Z");
}
100% {
d:path("M250 204.2A45.8 45.8 0 1 1 245.4 204.4A45.8 45.8 0 0 1 250 204.2M250 237.5A12.5 12.5 0 1 0 251.2 237.6A12.5 12.5 0 0 0 250 237.5Z");
}
}
@keyframes zr84-ani-1 {
0% {
d:path("M250 204.2A45.8 45.8 0 1 1 250 295.8A45.8 45.8 0 0 0 250 204.2Z");
}
100% {
d:path("M250 170.8A79.2 79.2 0 1 1 250 329.2L250 295.8A45.8 45.8 0 0 0 250 204.2Z");
}
}
@keyframes zr84-ani-2 {
0% {
d:path("M250 170.8A79.2 79.2 0 0 1 296.5 186A79.2 79.2 0 0 0 250 170.8Z");
}
100% {
d:path("M250 137.5A112.5 112.5 0 0 1 316.1 159L296.5 186A79.2 79.2 0 0 0 250 170.8Z");
}
}
@keyframes zr84-ani-3 {
0% {
d:path("M250 137.5A112.5 112.5 0 0 1 316.1 159A112.5 112.5 0 0 0 250 137.5Z");
}
100% {
d:path("M250 104.2A145.8 145.8 0 0 1 335.7 132L316.1 159A112.5 112.5 0 0 0 250 137.5Z");
}
}
@keyframes zr84-ani-4 {
0% {
d:path("M250 104.2A145.8 145.8 0 0 1 335.7 132A145.8 145.8 0 0 0 250 104.2Z");
}
100% {
d:path("M250 70.8A179.2 179.2 0 0 1 355.3 105.1L335.7 132A145.8 145.8 0 0 0 250 104.2Z");
}
}
@keyframes zr84-ani-5 {
0% {
d:path("M250 70.8A179.2 179.2 0 0 1 355.3 105.1L355.3 105.1A179.2 179.2 0 0 0 250 70.8Z");
}
100% {
d:path("M250 37.5A212.5 212.5 0 0 1 374.9 78.1L355.3 105.1A179.2 179.2 0 0 0 250 70.8Z");
}
}
@keyframes zr84-ani-6 {
0% {
d:path("M296.5 186A79.2 79.2 0 0 1 325.3 225.5L325.3 225.5A79.2 79.2 0 0 0 296.5 186Z");
}
100% {
d:path("M316.1 159A112.5 112.5 0 0 1 357 215.2L325.3 225.5A79.2 79.2 0 0 0 296.5 186Z");
}
}
@keyframes zr84-ani-7 {
0% {
d:path("M316.1 159A112.5 112.5 0 0 1 357 215.2A112.5 112.5 0 0 0 316.1 159Z");
}
100% {
d:path("M335.7 132A145.8 145.8 0 0 1 388.7 204.9L357 215.2A112.5 112.5 0 0 0 316.1 159Z");
}
}
@keyframes zr84-ani-8 {
0% {
d:path("M335.7 132A145.8 145.8 0 0 1 388.7 204.9L388.7 204.9A145.8 145.8 0 0 0 335.7 132Z");
}
100% {
d:path("M355.3 105.1A179.2 179.2 0 0 1 420.4 194.6L388.7 204.9A145.8 145.8 0 0 0 335.7 132Z");
}
}
@keyframes zr84-ani-9 {
0% {
d:path("M355.3 105.1A179.2 179.2 0 0 1 420.4 194.6L420.4 194.6A179.2 179.2 0 0 0 355.3 105.1Z");
}
100% {
d:path("M374.9 78.1A212.5 212.5 0 0 1 452.1 184.3L420.4 194.6A179.2 179.2 0 0 0 355.3 105.1Z");
}
}
@keyframes zr84-ani-10 {
0% {
d:path("M325.3 225.5A79.2 79.2 0 0 1 325.3 274.5L325.3 274.5A79.2 79.2 0 0 0 325.3 225.5Z");
}
100% {
d:path("M357 215.2A112.5 112.5 0 0 1 357 284.8L325.3 274.5A79.2 79.2 0 0 0 325.3 225.5Z");
}
}
@keyframes zr84-ani-11 {
0% {
d:path("M357 215.2A112.5 112.5 0 0 1 357 284.8L357 284.8A112.5 112.5 0 0 0 357 215.2Z");
}
100% {
d:path("M388.7 204.9A145.8 145.8 0 0 1 388.7 295.1L357 284.8A112.5 112.5 0 0 0 357 215.2Z");
}
}
@keyframes zr84-ani-12 {
0% {
d:path("M388.7 204.9A145.8 145.8 0 0 1 388.7 295.1L388.7 295.1A145.8 145.8 0 0 0 388.7 204.9Z");
}
100% {
d:path("M420.4 194.6A179.2 179.2 0 0 1 420.4 305.4L388.7 295.1A145.8 145.8 0 0 0 388.7 204.9Z");
}
}
@keyframes zr84-ani-13 {
0% {
d:path("M420.4 194.6A179.2 179.2 0 0 1 420.4 305.4L420.4 305.4A179.2 179.2 0 0 0 420.4 194.6Z");
}
100% {
d:path("M452.1 184.3A212.5 212.5 0 0 1 452.1 315.7L420.4 305.4A179.2 179.2 0 0 0 420.4 194.6Z");
}
}
@keyframes zr84-ani-14 {
0% {
d:path("M325.3 274.5A79.2 79.2 0 0 1 296.5 314A79.2 79.2 0 0 0 325.3 274.5Z");
}
100% {
d:path("M357 284.8A112.5 112.5 0 0 1 316.1 341L296.5 314A79.2 79.2 0 0 0 325.3 274.5Z");
}
}
@keyframes zr84-ani-15 {
0% {
d:path("M357 284.8A112.5 112.5 0 0 1 316.1 341A112.5 112.5 0 0 0 357 284.8Z");
}
100% {
d:path("M388.7 295.1A145.8 145.8 0 0 1 335.7 368L316.1 341A112.5 112.5 0 0 0 357 284.8Z");
}
}
@keyframes zr84-ani-16 {
0% {
d:path("M388.7 295.1A145.8 145.8 0 0 1 335.7 368A145.8 145.8 0 0 0 388.7 295.1Z");
}
100% {
d:path("M420.4 305.4A179.2 179.2 0 0 1 355.3 394.9L335.7 368A145.8 145.8 0 0 0 388.7 295.1Z");
}
}
@keyframes zr84-ani-17 {
0% {
d:path("M420.4 305.4A179.2 179.2 0 0 1 355.3 394.9A179.2 179.2 0 0 0 420.4 305.4Z");
}
100% {
d:path("M452.1 315.7A212.5 212.5 0 0 1 374.9 421.9L355.3 394.9A179.2 179.2 0 0 0 420.4 305.4Z");
}
}
@keyframes zr84-ani-18 {
0% {
d:path("M296.5 314A79.2 79.2 0 0 1 250 329.2A79.2 79.2 0 0 0 296.5 314Z");
}
100% {
d:path("M316.1 341A112.5 112.5 0 0 1 250 362.5L250 329.2A79.2 79.2 0 0 0 296.5 314Z");
}
}
@keyframes zr84-ani-19 {
0% {
d:path("M316.1 341A112.5 112.5 0 0 1 250 362.5A112.5 112.5 0 0 0 316.1 341Z");
}
100% {
d:path("M335.7 368A145.8 145.8 0 0 1 250 395.8L250 362.5A112.5 112.5 0 0 0 316.1 341Z");
}
}
@keyframes zr84-ani-20 {
0% {
d:path("M335.7 368A145.8 145.8 0 0 1 250 395.8A145.8 145.8 0 0 0 335.7 368Z");
}
100% {
d:path("M355.3 394.9A179.2 179.2 0 0 1 250 429.2L250 395.8A145.8 145.8 0 0 0 335.7 368Z");
}
}
@keyframes zr84-ani-21 {
0% {
d:path("M355.3 394.9A179.2 179.2 0 0 1 250 429.2A179.2 179.2 0 0 0 355.3 394.9Z");
}
100% {
d:path("M374.9 421.9A212.5 212.5 0 0 1 250 462.5L250 429.2A179.2 179.2 0 0 0 355.3 394.9Z");
}
}
@keyframes zr84-ani-22 {
0% {
d:path("M250 295.8A45.8 45.8 0 0 1 206.4 235.8A45.8 45.8 0 0 0 250 295.8Z");
}
100% {
d:path("M250 329.2A79.2 79.2 0 0 1 174.7 225.5L206.4 235.8A45.8 45.8 0 0 0 250 295.8Z");
}
}
@keyframes zr84-ani-23 {
0% {
d:path("M250 329.2A79.2 79.2 0 0 1 203.5 314A79.2 79.2 0 0 0 250 329.2Z");
}
100% {
d:path("M250 362.5A112.5 112.5 0 0 1 183.9 341L203.5 314A79.2 79.2 0 0 0 250 329.2Z");
}
}
@keyframes zr84-ani-24 {
0% {
d:path("M250 362.5A112.5 112.5 0 0 1 183.9 341A112.5 112.5 0 0 0 250 362.5Z");
}
100% {
d:path("M250 395.8A145.8 145.8 0 0 1 164.3 368L183.9 341A112.5 112.5 0 0 0 250 362.5Z");
}
}
@keyframes zr84-ani-25 {
0% {
d:path("M203.5 314A79.2 79.2 0 0 1 174.7 274.5A79.2 79.2 0 0 0 203.5 314Z");
}
100% {
d:path("M183.9 341A112.5 112.5 0 0 1 143 284.8L174.7 274.5A79.2 79.2 0 0 0 203.5 314Z");
}
}
@keyframes zr84-ani-26 {
0% {
d:path("M183.9 341A112.5 112.5 0 0 1 143 284.8A112.5 112.5 0 0 0 183.9 341Z");
}
100% {
d:path("M164.3 368A145.8 145.8 0 0 1 111.3 295.1L143 284.8A112.5 112.5 0 0 0 183.9 341Z");
}
}
@keyframes zr84-ani-27 {
0% {
d:path("M174.7 274.5A79.2 79.2 0 0 1 174.7 225.5A79.2 79.2 0 0 0 174.7 274.5Z");
}
100% {
d:path("M143 284.8A112.5 112.5 0 0 1 143 215.2L174.7 225.5A79.2 79.2 0 0 0 174.7 274.5Z");
}
}
@keyframes zr84-ani-28 {
0% {
d:path("M143 284.8A112.5 112.5 0 0 1 143 215.2A112.5 112.5 0 0 0 143 284.8Z");
}
100% {
d:path("M111.3 295.1A145.8 145.8 0 0 1 111.3 204.9L143 215.2A112.5 112.5 0 0 0 143 284.8Z");
}
}
@keyframes zr84-ani-29 {
0% {
d:path("M206.4 235.8A45.8 45.8 0 0 1 250 204.2A45.8 45.8 0 0 0 206.4 235.8Z");
}
100% {
d:path("M174.7 225.5A79.2 79.2 0 0 1 250 170.8L250 204.2A45.8 45.8 0 0 0 206.4 235.8Z");
}
}
@keyframes zr84-ani-30 {
0% {
d:path("M174.7 225.5A79.2 79.2 0 0 1 203.5 186A79.2 79.2 0 0 0 174.7 225.5Z");
}
100% {
d:path("M143 215.2A112.5 112.5 0 0 1 183.9 159L203.5 186A79.2 79.2 0 0 0 174.7 225.5Z");
}
}
@keyframes zr84-ani-31 {
0% {
d:path("M143 215.2A112.5 112.5 0 0 1 183.9 159A112.5 112.5 0 0 0 143 215.2Z");
}
100% {
d:path("M111.3 204.9A145.8 145.8 0 0 1 164.3 132L183.9 159A112.5 112.5 0 0 0 143 215.2Z");
}
}
@keyframes zr84-ani-32 {
0% {
d:path("M203.5 186A79.2 79.2 0 0 1 250 170.8A79.2 79.2 0 0 0 203.5 186Z");
}
100% {
d:path("M183.9 159A112.5 112.5 0 0 1 250 137.5L250 170.8A79.2 79.2 0 0 0 203.5 186Z");
}
}
@keyframes zr84-ani-33 {
0% {
d:path("M183.9 159A112.5 112.5 0 0 1 250 137.5A112.5 112.5 0 0 0 183.9 159Z");
}
100% {
d:path("M164.3 132A145.8 145.8 0 0 1 250 104.2L250 137.5A112.5 112.5 0 0 0 183.9 159Z");
}
}
]]>

</style>
</svg>