<svg width="500" height="500" xmlns="http://www.w3.org/2000/svg" xmlns:xlink="http://www.w3.org/1999/xlink" version="1.1" baseProfile="full" viewBox="0 0 500 500">
<rect width="500" height="500" x="0" y="0" id="0" fill="none"></rect>
<path d="M250 223.2A26.8 26.8 0 1 1 233.5 271.1L242.3 259.9A12.5 12.5 0 1 0 250 237.5Z" fill="#000" stroke="white" stroke-linejoin="bevel" class="zr140-cls-0"></path>
<path d="M250 208.9A41.1 41.1 0 0 1 287.6 266.5L274.5 260.8A26.8 26.8 0 0 0 250 223.2Z" fill="#49ff49" fill-opacity="0.5" stroke="#fff" stroke-width="4" stroke-opacity="0.5" stroke-linejoin="bevel" class="zr140-cls-1"></path>
<path d="M250 194.6A55.4 55.4 0 0 1 268 197.6L263.3 211.2A41.1 41.1 0 0 0 250 208.9Z" fill="#000" stroke="white" stroke-linejoin="bevel" class="zr140-cls-2"></path>
<path d="M250 180.4A69.6 69.6 0 0 1 261.5 181.3L259.1 195.4A55.4 55.4 0 0 0 250 194.6Z" fill="#0AA40D" stroke="white" stroke-linejoin="bevel" class="zr140-cls-3"></path>
<path d="M261.5 181.3A69.6 69.6 0 0 1 272.6 184.1L268 197.6A55.4 55.4 0 0 0 259.1 195.4Z" fill="#F3C142" stroke="white" stroke-linejoin="bevel" class="zr140-cls-4"></path>
<path d="M268 197.6A55.4 55.4 0 0 1 276.3 201.3L269.5 213.9A41.1 41.1 0 0 0 263.3 211.2Z" fill="#000" stroke="white" stroke-linejoin="bevel" class="zr140-cls-5"></path>
<path d="M272.6 184.1A69.6 69.6 0 0 1 283.1 188.8L276.3 201.3A55.4 55.4 0 0 0 268 197.6Z" fill="#F3C142" stroke="white" stroke-linejoin="bevel" class="zr140-cls-6"></path>
<path d="M276.3 201.3A55.4 55.4 0 0 1 284 206.3L275.2 217.6A41.1 41.1 0 0 0 269.5 213.9Z" fill="#000" stroke="white" stroke-linejoin="bevel" class="zr140-cls-7"></path>
<path d="M283.1 188.8A69.6 69.6 0 0 1 292.8 195L284 206.3A55.4 55.4 0 0 0 276.3 201.3Z" fill="#F3C142" stroke="white" stroke-linejoin="bevel" class="zr140-cls-8"></path>
<path d="M284 206.3A55.4 55.4 0 0 1 290.7 212.5L280.2 222.2A41.1 41.1 0 0 0 275.2 217.6Z" fill="#000" stroke="white" stroke-linejoin="bevel" class="zr140-cls-9"></path>
<path d="M292.8 195A69.6 69.6 0 0 1 301.2 202.8L290.7 212.5A55.4 55.4 0 0 0 284 206.3Z" fill="#F3C142" stroke="white" stroke-linejoin="bevel" class="zr140-cls-10"></path>
<path d="M290.7 212.5A55.4 55.4 0 0 1 296.3 219.7L284.4 227.5A41.1 41.1 0 0 0 280.2 222.2Z" fill="#000" stroke="white" stroke-linejoin="bevel" class="zr140-cls-11"></path>
<path d="M301.2 202.8A69.6 69.6 0 0 1 308.3 211.9L296.3 219.7A55.4 55.4 0 0 0 290.7 212.5Z" fill="#F3C142" stroke="white" stroke-linejoin="bevel" class="zr140-cls-12"></path>
<path d="M296.3 219.7A55.4 55.4 0 0 1 300.7 227.8L287.6 233.5A41.1 41.1 0 0 0 284.4 227.5Z" fill="#000" stroke="white" stroke-linejoin="bevel" class="zr140-cls-13"></path>
<path d="M308.3 211.9A69.6 69.6 0 0 1 313.8 222L300.7 227.8A55.4 55.4 0 0 0 296.3 219.7Z" fill="#000" stroke="white" stroke-linejoin="bevel" class="zr140-cls-14"></path>
<path d="M320.3 204.1A83.9 83.9 0 0 1 326.9 216.3L313.8 222A69.6 69.6 0 0 0 308.3 211.9Z" fill="#0AA40D" stroke="white" stroke-linejoin="bevel" class="zr140-cls-15"></path>
<path d="M300.7 227.8A55.4 55.4 0 0 1 303.7 236.4L289.8 239.9A41.1 41.1 0 0 0 287.6 233.5Z" fill="#000" stroke="white" stroke-linejoin="bevel" class="zr140-cls-16"></path>
<path d="M313.8 222A69.6 69.6 0 0 1 317.5 232.9L303.7 236.4A55.4 55.4 0 0 0 300.7 227.8Z" fill="#0AA40D" stroke="white" stroke-linejoin="bevel" class="zr140-cls-17"></path>
<path d="M303.7 236.4A55.4 55.4 0 0 1 305.2 245.4L290.9 246.6A41.1 41.1 0 0 0 289.8 239.9Z" fill="#000" stroke="white" stroke-linejoin="bevel" class="zr140-cls-18"></path>
<path d="M317.5 232.9A69.6 69.6 0 0 1 319.4 244.2L305.2 245.4A55.4 55.4 0 0 0 303.7 236.4Z" fill="#0AA40D" stroke="white" stroke-linejoin="bevel" class="zr140-cls-19"></path>
<path d="M305.2 245.4A55.4 55.4 0 0 1 305.2 254.6L290.9 253.4A41.1 41.1 0 0 0 290.9 246.6Z" fill="#000" stroke="white" stroke-linejoin="bevel" class="zr140-cls-20"></path>
<path d="M319.4 244.2A69.6 69.6 0 0 1 319.4 255.8L305.2 254.6A55.4 55.4 0 0 0 305.2 245.4Z" fill="#0AA40D" stroke="white" stroke-linejoin="bevel" class="zr140-cls-21"></path>
<path d="M305.2 254.6A55.4 55.4 0 0 1 303.7 263.6L289.8 260.1A41.1 41.1 0 0 0 290.9 253.4Z" fill="#000" stroke="white" stroke-linejoin="bevel" class="zr140-cls-22"></path>
<path d="M319.4 255.8A69.6 69.6 0 0 1 317.5 267.1L303.7 263.6A55.4 55.4 0 0 0 305.2 254.6Z" fill="#0AA40D" stroke="white" stroke-linejoin="bevel" class="zr140-cls-23"></path>
<path d="M303.7 263.6A55.4 55.4 0 0 1 300.7 272.2L287.6 266.5A41.1 41.1 0 0 0 289.8 260.1Z" fill="#000" stroke="white" stroke-linejoin="bevel" class="zr140-cls-24"></path>
<path d="M317.5 267.1A69.6 69.6 0 0 1 313.8 278L300.7 272.2A55.4 55.4 0 0 0 303.7 263.6Z" fill="#0AA40D" stroke="white" stroke-linejoin="bevel" class="zr140-cls-25"></path>
<path d="M287.6 266.5A41.1 41.1 0 0 1 243.2 290.5L245.6 276.4A26.8 26.8 0 0 0 274.5 260.8Z" fill="#4949CD" fill-opacity="0.5" stroke="#fff" stroke-width="4" stroke-opacity="0.5" stroke-linejoin="bevel" class="zr140-cls-26"></path>
<path d="M300.7 272.2A55.4 55.4 0 0 1 268 302.4L263.3 288.8A41.1 41.1 0 0 0 287.6 266.5Z" fill="#000" stroke="white" stroke-linejoin="bevel" class="zr140-cls-27"></path>
<path d="M313.8 278A69.6 69.6 0 0 1 272.6 315.9L268 302.4A55.4 55.4 0 0 0 300.7 272.2Z" fill="#000" stroke="white" stroke-linejoin="bevel" class="zr140-cls-28"></path>
<path d="M326.9 283.7A83.9 83.9 0 0 1 277.3 329.4L272.6 315.9A69.6 69.6 0 0 0 313.8 278Z" fill="#4949CD" fill-opacity="0.5" stroke="#fff" stroke-width="4" stroke-opacity="0.5" stroke-linejoin="bevel" class="zr140-cls-29"></path>
<path d="M339.9 289.5A98.2 98.2 0 0 1 281.9 342.9L277.3 329.4A83.9 83.9 0 0 0 326.9 283.7Z" fill="#F3C142" stroke="white" stroke-linejoin="bevel" class="zr140-cls-30"></path>
<path d="M353 295.2A112.5 112.5 0 0 1 319.1 338.8L310.3 327.5A98.2 98.2 0 0 0 339.9 289.5Z" fill="#000" stroke="white" stroke-linejoin="bevel" class="zr140-cls-31"></path>
<path d="M366.1 300.9A126.8 126.8 0 0 1 343.3 335.9L332.8 326.2A112.5 112.5 0 0 0 353 295.2Z" fill="#49ff49" fill-opacity="0.5" stroke="#fff" stroke-width="4" stroke-opacity="0.5" stroke-linejoin="bevel" class="zr140-cls-32"></path>
<path d="M379.2 306.7A141.1 141.1 0 0 1 368.1 327.2L356.1 319.3A126.8 126.8 0 0 0 366.1 300.9Z" fill="#000" stroke="white" stroke-linejoin="bevel" class="zr140-cls-33"></path>
<path d="M368.1 327.2A141.1 141.1 0 0 1 353.8 345.5L343.3 335.9A126.8 126.8 0 0 0 356.1 319.3Z" fill="#000" stroke="white" stroke-linejoin="bevel" class="zr140-cls-34"></path>
<path d="M343.3 335.9A126.8 126.8 0 0 1 327.9 350.1L319.1 338.8A112.5 112.5 0 0 0 332.8 326.2Z" fill="#ff4949" fill-opacity="0.5" stroke="#fff" stroke-width="4" stroke-opacity="0.5" stroke-linejoin="bevel" class="zr140-cls-35"></path>
<path d="M353.8 345.5A141.1 141.1 0 0 1 336.6 361.3L327.9 350.1A126.8 126.8 0 0 0 343.3 335.9Z" fill="#000" stroke="white" stroke-linejoin="bevel" class="zr140-cls-36"></path>
<path d="M319.1 338.8A112.5 112.5 0 0 1 286.5 356.4L281.9 342.9A98.2 98.2 0 0 0 310.3 327.5Z" fill="#000" stroke="white" stroke-linejoin="bevel" class="zr140-cls-37"></path>
<path d="M327.9 350.1A126.8 126.8 0 0 1 310.3 361.5L303.5 348.9A112.5 112.5 0 0 0 319.1 338.8Z" fill="#49ff49" fill-opacity="0.5" stroke="#fff" stroke-width="4" stroke-opacity="0.5" stroke-linejoin="bevel" class="zr140-cls-38"></path>
<path d="M336.6 361.3A141.1 141.1 0 0 1 317.1 374.1L310.3 361.5A126.8 126.8 0 0 0 327.9 350.1Z" fill="#000" stroke="white" stroke-linejoin="bevel" class="zr140-cls-39"></path>
<path d="M345.4 372.6A155.4 155.4 0 0 1 323.9 386.6L317.1 374.1A141.1 141.1 0 0 0 336.6 361.3Z" fill="#000" stroke="white" stroke-linejoin="bevel" class="zr140-cls-40"></path>
<path d="M310.3 361.5A126.8 126.8 0 0 1 291.2 369.9L286.5 356.4A112.5 112.5 0 0 0 303.5 348.9Z" fill="#ff4949" fill-opacity="0.5" stroke="#fff" stroke-width="4" stroke-opacity="0.5" stroke-linejoin="bevel" class="zr140-cls-41"></path>
<path d="M317.1 374.1A141.1 141.1 0 0 1 295.8 383.4L291.2 369.9A126.8 126.8 0 0 0 310.3 361.5Z" fill="#000" stroke="white" stroke-linejoin="bevel" class="zr140-cls-42"></path>
<path d="M323.9 386.6A155.4 155.4 0 0 1 300.4 396.9L295.8 383.4A141.1 141.1 0 0 0 317.1 374.1Z" fill="#000" stroke="white" stroke-linejoin="bevel" class="zr140-cls-43"></path>
<path d="M268 302.4A55.4 55.4 0 0 1 250 305.4L250 291.1A41.1 41.1 0 0 0 263.3 288.8Z" fill="#000" stroke="white" stroke-linejoin="bevel" class="zr140-cls-44"></path>
<path d="M272.6 315.9A69.6 69.6 0 0 1 250 319.6L250 305.4A55.4 55.4 0 0 0 268 302.4Z" fill="#000" stroke="white" stroke-linejoin="bevel" class="zr140-cls-45"></path>
<path d="M277.3 329.4A83.9 83.9 0 0 1 250 333.9L250 319.6A69.6 69.6 0 0 0 272.6 315.9Z" fill="#4949CD" fill-opacity="0.5" stroke="#fff" stroke-width="4" stroke-opacity="0.5" stroke-linejoin="bevel" class="zr140-cls-46"></path>
<path d="M281.9 342.9A98.2 98.2 0 0 1 250 348.2L250 333.9A83.9 83.9 0 0 0 277.3 329.4Z" fill="#F3C142" stroke="white" stroke-linejoin="bevel" class="zr140-cls-47"></path>
<path d="M286.5 356.4A112.5 112.5 0 0 1 250 362.5L250 348.2A98.2 98.2 0 0 0 281.9 342.9Z" fill="#000" stroke="white" stroke-linejoin="bevel" class="zr140-cls-48"></path>
<path d="M291.2 369.9A126.8 126.8 0 0 1 250 376.8L250 362.5A112.5 112.5 0 0 0 286.5 356.4Z" fill="#4949CD" fill-opacity="0.5" stroke="#fff" stroke-width="4" stroke-opacity="0.5" stroke-linejoin="bevel" class="zr140-cls-49"></path>
<path d="M295.8 383.4A141.1 141.1 0 0 1 250 391.1L250 376.8A126.8 126.8 0 0 0 291.2 369.9Z" fill="#000" stroke="white" stroke-linejoin="bevel" class="zr140-cls-50"></path>
<path d="M300.4 396.9A155.4 155.4 0 0 1 250 405.4L250 391.1A141.1 141.1 0 0 0 295.8 383.4Z" fill="#000" stroke="white" stroke-linejoin="bevel" class="zr140-cls-51"></path>
<path d="M305.1 410.5A169.6 169.6 0 0 1 250 419.6L250 405.4A155.4 155.4 0 0 0 300.4 396.9Z" fill="#A0522D" stroke="white" stroke-linejoin="bevel" class="zr140-cls-52"></path>
<path d="M309.7 424A183.9 183.9 0 0 1 280.3 431.4L277.9 417.3A169.6 169.6 0 0 0 305.1 410.5Z" fill="#A0522D" stroke="white" stroke-linejoin="bevel" class="zr140-cls-53"></path>
<path d="M280.3 431.4A183.9 183.9 0 0 1 250 433.9L250 419.6A169.6 169.6 0 0 0 277.9 417.3Z" fill="#A0522D" stroke="white" stroke-linejoin="bevel" class="zr140-cls-54"></path>
<path d="M282.6 445.5A198.2 198.2 0 0 1 250 448.2L250 433.9A183.9 183.9 0 0 0 280.3 431.4Z" fill="#49ff49" fill-opacity="0.5" stroke="#fff" stroke-width="4" stroke-opacity="0.5" stroke-linejoin="bevel" class="zr140-cls-55"></path>
<path d="M285 459.6A212.5 212.5 0 0 1 250 462.5L250 448.2A198.2 198.2 0 0 0 282.6 445.5Z" fill="#A0522D" stroke="white" stroke-linejoin="bevel" class="zr140-cls-56"></path>
<path d="M250 305.4A55.4 55.4 0 0 1 240.9 304.6L243.2 290.5A41.1 41.1 0 0 0 250 291.1Z" fill="#000" stroke="white" stroke-linejoin="bevel" class="zr140-cls-57"></path>
<path d="M250 319.6A69.6 69.6 0 0 1 238.5 318.7L240.9 304.6A55.4 55.4 0 0 0 250 305.4Z" fill="#000" stroke="white" stroke-linejoin="bevel" class="zr140-cls-58"></path>
<path d="M250 333.9A83.9 83.9 0 0 1 236.2 332.8L238.5 318.7A69.6 69.6 0 0 0 250 319.6Z" fill="#ff4949" fill-opacity="0.5" stroke="#fff" stroke-width="4" stroke-opacity="0.5" stroke-linejoin="bevel" class="zr140-cls-59"></path>
<path d="M250 348.2A98.2 98.2 0 0 1 233.8 346.9L236.2 332.8A83.9 83.9 0 0 0 250 333.9Z" fill="#F3C142" stroke="white" stroke-linejoin="bevel" class="zr140-cls-60"></path>
<path d="M243.2 290.5A41.1 41.1 0 0 1 224.8 282.4L233.5 271.1A26.8 26.8 0 0 0 245.6 276.4Z" fill="#ff4949" fill-opacity="0.5" stroke="#fff" stroke-width="4" stroke-opacity="0.5" stroke-linejoin="bevel" class="zr140-cls-61"></path>
<path d="M240.9 304.6A55.4 55.4 0 0 1 232 302.4L236.7 288.8A41.1 41.1 0 0 0 243.2 290.5Z" fill="#000" stroke="white" stroke-linejoin="bevel" class="zr140-cls-62"></path>
<path d="M238.5 318.7A69.6 69.6 0 0 1 227.4 315.9L232 302.4A55.4 55.4 0 0 0 240.9 304.6Z" fill="#F3C142" stroke="white" stroke-linejoin="bevel" class="zr140-cls-63"></path>
<path d="M232 302.4A55.4 55.4 0 0 1 223.7 298.7L230.5 286.1A41.1 41.1 0 0 0 236.7 288.8Z" fill="#000" stroke="white" stroke-linejoin="bevel" class="zr140-cls-64"></path>
<path d="M227.4 315.9A69.6 69.6 0 0 1 216.9 311.2L223.7 298.7A55.4 55.4 0 0 0 232 302.4Z" fill="#F3C142" stroke="white" stroke-linejoin="bevel" class="zr140-cls-65"></path>
<path d="M223.7 298.7A55.4 55.4 0 0 1 216 293.7L224.8 282.4A41.1 41.1 0 0 0 230.5 286.1Z" fill="#000" stroke="white" stroke-linejoin="bevel" class="zr140-cls-66"></path>
<path d="M216.9 311.2A69.6 69.6 0 0 1 207.2 305L216 293.7A55.4 55.4 0 0 0 223.7 298.7Z" fill="#0AA40D" stroke="white" stroke-linejoin="bevel" class="zr140-cls-67"></path>
<path d="M233.5 271.1A26.8 26.8 0 0 1 250 223.2L250 237.5A12.5 12.5 0 0 0 242.3 259.9Z" fill="#C8C8C8" stroke="white" stroke-linejoin="bevel" class="zr140-cls-68"></path>
<path d="M224.8 282.4A41.1 41.1 0 0 1 250 208.9L250 223.2A26.8 26.8 0 0 0 233.5 271.1Z" fill="#C8C8C8" stroke="white" stroke-linejoin="bevel" class="zr140-cls-69"></path>
<text dominant-baseline="central" text-anchor="middle" style="font-size:12px;font-family:sans-serif;" transform="matrix(0.325,-0.946,0.946,0.325,268.5786,256.378)" fill="#ccc" stroke="#000" stroke-width="2" paint-order="stroke" stroke-miterlimit="2">paths</text>
<text dominant-baseline="central" text-anchor="middle" style="font-size:12px;font-family:sans-serif;" transform="matrix(0.736,-0.677,0.677,0.736,282.6546,285.4724)" fill="#ccc" stroke="#000" stroke-width="2" paint-order="stroke" stroke-miterlimit="2">/login</text>
<text dominant-baseline="central" text-anchor="middle" style="font-size:9px;font-family:sans-serif;" transform="matrix(0.736,-0.677,0.677,0.736,292.3301,295.9827)" fill="#ccc" stroke="#000" stroke-width="2" paint-order="stroke" stroke-miterlimit="2">operations</text>
<text dominant-baseline="central" text-anchor="middle" style="font-size:12px;font-family:sans-serif;" transform="matrix(0.736,-0.677,0.677,0.736,311.681,317.0034)" fill="#333">POST</text>
<text dominant-baseline="central" text-anchor="middle" style="font-size:10px;font-family:sans-serif;" transform="matrix(0.614,-0.789,0.789,0.614,333.1416,314.7117)" fill="#ccc" stroke="#000" stroke-width="2" paint-order="stroke" stroke-miterlimit="2">responses</text>
<text dominant-baseline="central" text-anchor="middle" style="font-size:9px;font-family:sans-serif;" transform="matrix(0.879,-0.476,0.476,0.879,300.1445,342.6588)" fill="#ccc" stroke="#000" stroke-width="2" paint-order="stroke" stroke-miterlimit="2">params</text>
<text dominant-baseline="central" text-anchor="middle" style="font-size:12px;font-family:sans-serif;" transform="matrix(0.986,-0.165,0.165,0.986,264.9899,339.8293)" fill="#333">POST</text>
<text dominant-baseline="central" text-anchor="middle" style="font-size:9px;font-family:sans-serif;" transform="matrix(0.986,-0.165,0.165,0.986,267.3412,353.9202)" fill="#ccc" stroke="#000" stroke-width="2" paint-order="stroke" stroke-miterlimit="2">params</text>
<text dominant-baseline="central" text-anchor="middle" style="font-size:12px;font-family:sans-serif;" transform="matrix(0.986,-0.165,0.165,0.986,272.0439,382.102)" fill="#ccc" stroke="#000" stroke-width="2" paint-order="stroke" stroke-miterlimit="2">body</text>
<text dominant-baseline="central" text-anchor="middle" style="font-size:12px;font-family:sans-serif;" transform="matrix(0.986,-0.165,0.165,0.986,274.3953,396.1928)" fill="#ccc" stroke="#000" stroke-width="2" paint-order="stroke" stroke-miterlimit="2">query</text>
<text dominant-baseline="central" text-anchor="middle" style="font-size:12px;font-family:sans-serif;" transform="matrix(0.986,-0.165,0.165,0.986,276.7466,410.2837)" fill="#eee" stroke="#A0522D" stroke-width="2" paint-order="stroke" stroke-miterlimit="2">schema</text>
<text dominant-baseline="central" text-anchor="middle" style="font-size:12px;font-family:sans-serif;" transform="matrix(0.325,-0.946,0.946,0.325,231.4214,243.622)" fill="#333">info</text>
<text dominant-baseline="central" text-anchor="middle" style="font-size:10px;font-family:sans-serif;" transform="matrix(0.325,-0.946,0.946,0.325,217.9098,238.9834)" fill="#333">version</text>
<path d="M-14.8 -16l66.6 0l0 32l-66.6 0Z" transform="translate(448.253 16)" fill="none" stroke="#ccc" stroke-width="0"></path>
<path d="M-7.3 -1.8L-0.1 4.8L7.3 -1.6M-7.3 4.3L-7.3 8.5L7.1 8.5L7.1 4.3M-0.1 4.7L-0.1 -8.5" transform="translate(448.253 16)" fill="none" stroke="#666"></path>
<path d="M-7.9 1M5.1 -3.4L8.1 -3.4L8.1 -6.4M8 -3C6.7 -6.4 3.2 -8.9 -1 -8.4C-5.3 -8 -8.6 -4.2 -8.4 0.2M-5.1 3.4L-8.1 3.4L-8.1 6.4M-8 3C-6.7 6.4 -3.2 8.9 1 8.4C5.3 8 8.6 4.2 8.4 -0.2" transform="translate(484.0476 16)" fill="none" stroke="#666"></path>
<style ><![CDATA[
.zr140-cls-0 {
animation:zr140-ani-0 1s cubic-bezier(0.65,0,0.35,1) both;
}
.zr140-cls-1 {
animation:zr140-ani-1 1s cubic-bezier(0.65,0,0.35,1) both;
}
.zr140-cls-2 {
animation:zr140-ani-2 1s cubic-bezier(0.65,0,0.35,1) both;
}
.zr140-cls-3 {
animation:zr140-ani-3 1s cubic-bezier(0.65,0,0.35,1) both;
}
.zr140-cls-4 {
animation:zr140-ani-4 1s cubic-bezier(0.65,0,0.35,1) both;
}
.zr140-cls-5 {
animation:zr140-ani-5 1s cubic-bezier(0.65,0,0.35,1) both;
}
.zr140-cls-6 {
animation:zr140-ani-6 1s cubic-bezier(0.65,0,0.35,1) both;
}
.zr140-cls-7 {
animation:zr140-ani-7 1s cubic-bezier(0.65,0,0.35,1) both;
}
.zr140-cls-8 {
animation:zr140-ani-8 1s cubic-bezier(0.65,0,0.35,1) both;
}
.zr140-cls-9 {
animation:zr140-ani-9 1s cubic-bezier(0.65,0,0.35,1) both;
}
.zr140-cls-10 {
animation:zr140-ani-10 1s cubic-bezier(0.65,0,0.35,1) both;
}
.zr140-cls-11 {
animation:zr140-ani-11 1s cubic-bezier(0.65,0,0.35,1) both;
}
.zr140-cls-12 {
animation:zr140-ani-12 1s cubic-bezier(0.65,0,0.35,1) both;
}
.zr140-cls-13 {
animation:zr140-ani-13 1s cubic-bezier(0.65,0,0.35,1) both;
}
.zr140-cls-14 {
animation:zr140-ani-14 1s cubic-bezier(0.65,0,0.35,1) both;
}
.zr140-cls-15 {
animation:zr140-ani-15 1s cubic-bezier(0.65,0,0.35,1) both;
}
.zr140-cls-16 {
animation:zr140-ani-16 1s cubic-bezier(0.65,0,0.35,1) both;
}
.zr140-cls-17 {
animation:zr140-ani-17 1s cubic-bezier(0.65,0,0.35,1) both;
}
.zr140-cls-18 {
animation:zr140-ani-18 1s cubic-bezier(0.65,0,0.35,1) both;
}
.zr140-cls-19 {
animation:zr140-ani-19 1s cubic-bezier(0.65,0,0.35,1) both;
}
.zr140-cls-20 {
animation:zr140-ani-20 1s cubic-bezier(0.65,0,0.35,1) both;
}
.zr140-cls-21 {
animation:zr140-ani-21 1s cubic-bezier(0.65,0,0.35,1) both;
}
.zr140-cls-22 {
animation:zr140-ani-22 1s cubic-bezier(0.65,0,0.35,1) both;
}
.zr140-cls-23 {
animation:zr140-ani-23 1s cubic-bezier(0.65,0,0.35,1) both;
}
.zr140-cls-24 {
animation:zr140-ani-24 1s cubic-bezier(0.65,0,0.35,1) both;
}
.zr140-cls-25 {
animation:zr140-ani-25 1s cubic-bezier(0.65,0,0.35,1) both;
}
.zr140-cls-26 {
animation:zr140-ani-26 1s cubic-bezier(0.65,0,0.35,1) both;
}
.zr140-cls-27 {
animation:zr140-ani-27 1s cubic-bezier(0.65,0,0.35,1) both;
}
.zr140-cls-28 {
animation:zr140-ani-28 1s cubic-bezier(0.65,0,0.35,1) both;
}
.zr140-cls-29 {
animation:zr140-ani-29 1s cubic-bezier(0.65,0,0.35,1) both;
}
.zr140-cls-30 {
animation:zr140-ani-30 1s cubic-bezier(0.65,0,0.35,1) both;
}
.zr140-cls-31 {
animation:zr140-ani-31 1s cubic-bezier(0.65,0,0.35,1) both;
}
.zr140-cls-32 {
animation:zr140-ani-32 1s cubic-bezier(0.65,0,0.35,1) both;
}
.zr140-cls-33 {
animation:zr140-ani-33 1s cubic-bezier(0.65,0,0.35,1) both;
}
.zr140-cls-34 {
animation:zr140-ani-34 1s cubic-bezier(0.65,0,0.35,1) both;
}
.zr140-cls-35 {
animation:zr140-ani-35 1s cubic-bezier(0.65,0,0.35,1) both;
}
.zr140-cls-36 {
animation:zr140-ani-36 1s cubic-bezier(0.65,0,0.35,1) both;
}
.zr140-cls-37 {
animation:zr140-ani-37 1s cubic-bezier(0.65,0,0.35,1) both;
}
.zr140-cls-38 {
animation:zr140-ani-38 1s cubic-bezier(0.65,0,0.35,1) both;
}
.zr140-cls-39 {
animation:zr140-ani-39 1s cubic-bezier(0.65,0,0.35,1) both;
}
.zr140-cls-40 {
animation:zr140-ani-40 1s cubic-bezier(0.65,0,0.35,1) both;
}
.zr140-cls-41 {
animation:zr140-ani-41 1s cubic-bezier(0.65,0,0.35,1) both;
}
.zr140-cls-42 {
animation:zr140-ani-42 1s cubic-bezier(0.65,0,0.35,1) both;
}
.zr140-cls-43 {
animation:zr140-ani-43 1s cubic-bezier(0.65,0,0.35,1) both;
}
.zr140-cls-44 {
animation:zr140-ani-44 1s cubic-bezier(0.65,0,0.35,1) both;
}
.zr140-cls-45 {
animation:zr140-ani-45 1s cubic-bezier(0.65,0,0.35,1) both;
}
.zr140-cls-46 {
animation:zr140-ani-46 1s cubic-bezier(0.65,0,0.35,1) both;
}
.zr140-cls-47 {
animation:zr140-ani-47 1s cubic-bezier(0.65,0,0.35,1) both;
}
.zr140-cls-48 {
animation:zr140-ani-48 1s cubic-bezier(0.65,0,0.35,1) both;
}
.zr140-cls-49 {
animation:zr140-ani-49 1s cubic-bezier(0.65,0,0.35,1) both;
}
.zr140-cls-50 {
animation:zr140-ani-50 1s cubic-bezier(0.65,0,0.35,1) both;
}
.zr140-cls-51 {
animation:zr140-ani-51 1s cubic-bezier(0.65,0,0.35,1) both;
}
.zr140-cls-52 {
animation:zr140-ani-52 1s cubic-bezier(0.65,0,0.35,1) both;
}
.zr140-cls-53 {
animation:zr140-ani-53 1s cubic-bezier(0.65,0,0.35,1) both;
}
.zr140-cls-54 {
animation:zr140-ani-54 1s cubic-bezier(0.65,0,0.35,1) both;
}
.zr140-cls-55 {
animation:zr140-ani-55 1s cubic-bezier(0.65,0,0.35,1) both;
}
.zr140-cls-56 {
animation:zr140-ani-56 1s cubic-bezier(0.65,0,0.35,1) both;
}
.zr140-cls-57 {
animation:zr140-ani-57 1s cubic-bezier(0.65,0,0.35,1) both;
}
.zr140-cls-58 {
animation:zr140-ani-58 1s cubic-bezier(0.65,0,0.35,1) both;
}
.zr140-cls-59 {
animation:zr140-ani-59 1s cubic-bezier(0.65,0,0.35,1) both;
}
.zr140-cls-60 {
animation:zr140-ani-60 1s cubic-bezier(0.65,0,0.35,1) both;
}
.zr140-cls-61 {
animation:zr140-ani-61 1s cubic-bezier(0.65,0,0.35,1) both;
}
.zr140-cls-62 {
animation:zr140-ani-62 1s cubic-bezier(0.65,0,0.35,1) both;
}
.zr140-cls-63 {
animation:zr140-ani-63 1s cubic-bezier(0.65,0,0.35,1) both;
}
.zr140-cls-64 {
animation:zr140-ani-64 1s cubic-bezier(0.65,0,0.35,1) both;
}
.zr140-cls-65 {
animation:zr140-ani-65 1s cubic-bezier(0.65,0,0.35,1) both;
}
.zr140-cls-66 {
animation:zr140-ani-66 1s cubic-bezier(0.65,0,0.35,1) both;
}
.zr140-cls-67 {
animation:zr140-ani-67 1s cubic-bezier(0.65,0,0.35,1) both;
}
.zr140-cls-68 {
animation:zr140-ani-68 1s cubic-bezier(0.65,0,0.35,1) both;
}
.zr140-cls-69 {
animation:zr140-ani-69 1s cubic-bezier(0.65,0,0.35,1) both;
}
@keyframes zr140-ani-0 {
0% {
d:path("M250 237.5A12.5 12.5 0 1 1 242.3 259.9A12.5 12.5 0 1 0 250 237.5Z");
}
100% {
d:path("M250 223.2A26.8 26.8 0 1 1 233.5 271.1L242.3 259.9A12.5 12.5 0 1 0 250 237.5Z");
}
}
@keyframes zr140-ani-1 {
0% {
d:path("M250 223.2A26.8 26.8 0 0 1 274.5 260.8A26.8 26.8 0 0 0 250 223.2Z");
}
100% {
d:path("M250 208.9A41.1 41.1 0 0 1 287.6 266.5L274.5 260.8A26.8 26.8 0 0 0 250 223.2Z");
}
}
@keyframes zr140-ani-2 {
0% {
d:path("M250 208.9A41.1 41.1 0 0 1 263.3 211.2A41.1 41.1 0 0 0 250 208.9Z");
}
100% {
d:path("M250 194.6A55.4 55.4 0 0 1 268 197.6L263.3 211.2A41.1 41.1 0 0 0 250 208.9Z");
}
}
@keyframes zr140-ani-3 {
0% {
d:path("M250 194.6A55.4 55.4 0 0 1 259.1 195.4A55.4 55.4 0 0 0 250 194.6Z");
}
100% {
d:path("M250 180.4A69.6 69.6 0 0 1 261.5 181.3L259.1 195.4A55.4 55.4 0 0 0 250 194.6Z");
}
}
@keyframes zr140-ani-4 {
0% {
d:path("M259.1 195.4A55.4 55.4 0 0 1 268 197.6L268 197.6A55.4 55.4 0 0 0 259.1 195.4Z");
}
100% {
d:path("M261.5 181.3A69.6 69.6 0 0 1 272.6 184.1L268 197.6A55.4 55.4 0 0 0 259.1 195.4Z");
}
}
@keyframes zr140-ani-5 {
0% {
d:path("M263.3 211.2A41.1 41.1 0 0 1 269.5 213.9L269.5 213.9A41.1 41.1 0 0 0 263.3 211.2Z");
}
100% {
d:path("M268 197.6A55.4 55.4 0 0 1 276.3 201.3L269.5 213.9A41.1 41.1 0 0 0 263.3 211.2Z");
}
}
@keyframes zr140-ani-6 {
0% {
d:path("M268 197.6A55.4 55.4 0 0 1 276.3 201.3L276.3 201.3A55.4 55.4 0 0 0 268 197.6Z");
}
100% {
d:path("M272.6 184.1A69.6 69.6 0 0 1 283.1 188.8L276.3 201.3A55.4 55.4 0 0 0 268 197.6Z");
}
}
@keyframes zr140-ani-7 {
0% {
d:path("M269.5 213.9A41.1 41.1 0 0 1 275.2 217.6L275.2 217.6A41.1 41.1 0 0 0 269.5 213.9Z");
}
100% {
d:path("M276.3 201.3A55.4 55.4 0 0 1 284 206.3L275.2 217.6A41.1 41.1 0 0 0 269.5 213.9Z");
}
}
@keyframes zr140-ani-8 {
0% {
d:path("M276.3 201.3A55.4 55.4 0 0 1 284 206.3L284 206.3A55.4 55.4 0 0 0 276.3 201.3Z");
}
100% {
d:path("M283.1 188.8A69.6 69.6 0 0 1 292.8 195L284 206.3A55.4 55.4 0 0 0 276.3 201.3Z");
}
}
@keyframes zr140-ani-9 {
0% {
d:path("M275.2 217.6A41.1 41.1 0 0 1 280.2 222.2L280.2 222.2A41.1 41.1 0 0 0 275.2 217.6Z");
}
100% {
d:path("M284 206.3A55.4 55.4 0 0 1 290.7 212.5L280.2 222.2A41.1 41.1 0 0 0 275.2 217.6Z");
}
}
@keyframes zr140-ani-10 {
0% {
d:path("M284 206.3A55.4 55.4 0 0 1 290.7 212.5L290.7 212.5A55.4 55.4 0 0 0 284 206.3Z");
}
100% {
d:path("M292.8 195A69.6 69.6 0 0 1 301.2 202.8L290.7 212.5A55.4 55.4 0 0 0 284 206.3Z");
}
}
@keyframes zr140-ani-11 {
0% {
d:path("M280.2 222.2A41.1 41.1 0 0 1 284.4 227.5L284.4 227.5A41.1 41.1 0 0 0 280.2 222.2Z");
}
100% {
d:path("M290.7 212.5A55.4 55.4 0 0 1 296.3 219.7L284.4 227.5A41.1 41.1 0 0 0 280.2 222.2Z");
}
}
@keyframes zr140-ani-12 {
0% {
d:path("M290.7 212.5A55.4 55.4 0 0 1 296.3 219.7L296.3 219.7A55.4 55.4 0 0 0 290.7 212.5Z");
}
100% {
d:path("M301.2 202.8A69.6 69.6 0 0 1 308.3 211.9L296.3 219.7A55.4 55.4 0 0 0 290.7 212.5Z");
}
}
@keyframes zr140-ani-13 {
0% {
d:path("M284.4 227.5A41.1 41.1 0 0 1 287.6 233.5L287.6 233.5A41.1 41.1 0 0 0 284.4 227.5Z");
}
100% {
d:path("M296.3 219.7A55.4 55.4 0 0 1 300.7 227.8L287.6 233.5A41.1 41.1 0 0 0 284.4 227.5Z");
}
}
@keyframes zr140-ani-14 {
0% {
d:path("M296.3 219.7A55.4 55.4 0 0 1 300.7 227.8L300.7 227.8A55.4 55.4 0 0 0 296.3 219.7Z");
}
100% {
d:path("M308.3 211.9A69.6 69.6 0 0 1 313.8 222L300.7 227.8A55.4 55.4 0 0 0 296.3 219.7Z");
}
}
@keyframes zr140-ani-15 {
0% {
d:path("M308.3 211.9A69.6 69.6 0 0 1 313.8 222L313.8 222A69.6 69.6 0 0 0 308.3 211.9Z");
}
100% {
d:path("M320.3 204.1A83.9 83.9 0 0 1 326.9 216.3L313.8 222A69.6 69.6 0 0 0 308.3 211.9Z");
}
}
@keyframes zr140-ani-16 {
0% {
d:path("M287.6 233.5A41.1 41.1 0 0 1 289.8 239.9L289.8 239.9A41.1 41.1 0 0 0 287.6 233.5Z");
}
100% {
d:path("M300.7 227.8A55.4 55.4 0 0 1 303.7 236.4L289.8 239.9A41.1 41.1 0 0 0 287.6 233.5Z");
}
}
@keyframes zr140-ani-17 {
0% {
d:path("M300.7 227.8A55.4 55.4 0 0 1 303.7 236.4L303.7 236.4A55.4 55.4 0 0 0 300.7 227.8Z");
}
100% {
d:path("M313.8 222A69.6 69.6 0 0 1 317.5 232.9L303.7 236.4A55.4 55.4 0 0 0 300.7 227.8Z");
}
}
@keyframes zr140-ani-18 {
0% {
d:path("M289.8 239.9A41.1 41.1 0 0 1 290.9 246.6L290.9 246.6A41.1 41.1 0 0 0 289.8 239.9Z");
}
100% {
d:path("M303.7 236.4A55.4 55.4 0 0 1 305.2 245.4L290.9 246.6A41.1 41.1 0 0 0 289.8 239.9Z");
}
}
@keyframes zr140-ani-19 {
0% {
d:path("M303.7 236.4A55.4 55.4 0 0 1 305.2 245.4L305.2 245.4A55.4 55.4 0 0 0 303.7 236.4Z");
}
100% {
d:path("M317.5 232.9A69.6 69.6 0 0 1 319.4 244.2L305.2 245.4A55.4 55.4 0 0 0 303.7 236.4Z");
}
}
@keyframes zr140-ani-20 {
0% {
d:path("M290.9 246.6A41.1 41.1 0 0 1 290.9 253.4L290.9 253.4A41.1 41.1 0 0 0 290.9 246.6Z");
}
100% {
d:path("M305.2 245.4A55.4 55.4 0 0 1 305.2 254.6L290.9 253.4A41.1 41.1 0 0 0 290.9 246.6Z");
}
}
@keyframes zr140-ani-21 {
0% {
d:path("M305.2 245.4A55.4 55.4 0 0 1 305.2 254.6L305.2 254.6A55.4 55.4 0 0 0 305.2 245.4Z");
}
100% {
d:path("M319.4 244.2A69.6 69.6 0 0 1 319.4 255.8L305.2 254.6A55.4 55.4 0 0 0 305.2 245.4Z");
}
}
@keyframes zr140-ani-22 {
0% {
d:path("M290.9 253.4A41.1 41.1 0 0 1 289.8 260.1L289.8 260.1A41.1 41.1 0 0 0 290.9 253.4Z");
}
100% {
d:path("M305.2 254.6A55.4 55.4 0 0 1 303.7 263.6L289.8 260.1A41.1 41.1 0 0 0 290.9 253.4Z");
}
}
@keyframes zr140-ani-23 {
0% {
d:path("M305.2 254.6A55.4 55.4 0 0 1 303.7 263.6L303.7 263.6A55.4 55.4 0 0 0 305.2 254.6Z");
}
100% {
d:path("M319.4 255.8A69.6 69.6 0 0 1 317.5 267.1L303.7 263.6A55.4 55.4 0 0 0 305.2 254.6Z");
}
}
@keyframes zr140-ani-24 {
0% {
d:path("M289.8 260.1A41.1 41.1 0 0 1 287.6 266.5L287.6 266.5A41.1 41.1 0 0 0 289.8 260.1Z");
}
100% {
d:path("M303.7 263.6A55.4 55.4 0 0 1 300.7 272.2L287.6 266.5A41.1 41.1 0 0 0 289.8 260.1Z");
}
}
@keyframes zr140-ani-25 {
0% {
d:path("M303.7 263.6A55.4 55.4 0 0 1 300.7 272.2L300.7 272.2A55.4 55.4 0 0 0 303.7 263.6Z");
}
100% {
d:path("M317.5 267.1A69.6 69.6 0 0 1 313.8 278L300.7 272.2A55.4 55.4 0 0 0 303.7 263.6Z");
}
}
@keyframes zr140-ani-26 {
0% {
d:path("M274.5 260.8A26.8 26.8 0 0 1 245.6 276.4L245.6 276.4A26.8 26.8 0 0 0 274.5 260.8Z");
}
100% {
d:path("M287.6 266.5A41.1 41.1 0 0 1 243.2 290.5L245.6 276.4A26.8 26.8 0 0 0 274.5 260.8Z");
}
}
@keyframes zr140-ani-27 {
0% {
d:path("M287.6 266.5A41.1 41.1 0 0 1 263.3 288.8L263.3 288.8A41.1 41.1 0 0 0 287.6 266.5Z");
}
100% {
d:path("M300.7 272.2A55.4 55.4 0 0 1 268 302.4L263.3 288.8A41.1 41.1 0 0 0 287.6 266.5Z");
}
}
@keyframes zr140-ani-28 {
0% {
d:path("M300.7 272.2A55.4 55.4 0 0 1 268 302.4L268 302.4A55.4 55.4 0 0 0 300.7 272.2Z");
}
100% {
d:path("M313.8 278A69.6 69.6 0 0 1 272.6 315.9L268 302.4A55.4 55.4 0 0 0 300.7 272.2Z");
}
}
@keyframes zr140-ani-29 {
0% {
d:path("M313.8 278A69.6 69.6 0 0 1 272.6 315.9L272.6 315.9A69.6 69.6 0 0 0 313.8 278Z");
}
100% {
d:path("M326.9 283.7A83.9 83.9 0 0 1 277.3 329.4L272.6 315.9A69.6 69.6 0 0 0 313.8 278Z");
}
}
@keyframes zr140-ani-30 {
0% {
d:path("M326.9 283.7A83.9 83.9 0 0 1 277.3 329.4L277.3 329.4A83.9 83.9 0 0 0 326.9 283.7Z");
}
100% {
d:path("M339.9 289.5A98.2 98.2 0 0 1 281.9 342.9L277.3 329.4A83.9 83.9 0 0 0 326.9 283.7Z");
}
}
@keyframes zr140-ani-31 {
0% {
d:path("M339.9 289.5A98.2 98.2 0 0 1 310.3 327.5L310.3 327.5A98.2 98.2 0 0 0 339.9 289.5Z");
}
100% {
d:path("M353 295.2A112.5 112.5 0 0 1 319.1 338.8L310.3 327.5A98.2 98.2 0 0 0 339.9 289.5Z");
}
}
@keyframes zr140-ani-32 {
0% {
d:path("M353 295.2A112.5 112.5 0 0 1 332.8 326.2L332.8 326.2A112.5 112.5 0 0 0 353 295.2Z");
}
100% {
d:path("M366.1 300.9A126.8 126.8 0 0 1 343.3 335.9L332.8 326.2A112.5 112.5 0 0 0 353 295.2Z");
}
}
@keyframes zr140-ani-33 {
0% {
d:path("M366.1 300.9A126.8 126.8 0 0 1 356.1 319.3L356.1 319.3A126.8 126.8 0 0 0 366.1 300.9Z");
}
100% {
d:path("M379.2 306.7A141.1 141.1 0 0 1 368.1 327.2L356.1 319.3A126.8 126.8 0 0 0 366.1 300.9Z");
}
}
@keyframes zr140-ani-34 {
0% {
d:path("M356.1 319.3A126.8 126.8 0 0 1 343.3 335.9L343.3 335.9A126.8 126.8 0 0 0 356.1 319.3Z");
}
100% {
d:path("M368.1 327.2A141.1 141.1 0 0 1 353.8 345.5L343.3 335.9A126.8 126.8 0 0 0 356.1 319.3Z");
}
}
@keyframes zr140-ani-35 {
0% {
d:path("M332.8 326.2A112.5 112.5 0 0 1 319.1 338.8L319.1 338.8A112.5 112.5 0 0 0 332.8 326.2Z");
}
100% {
d:path("M343.3 335.9A126.8 126.8 0 0 1 327.9 350.1L319.1 338.8A112.5 112.5 0 0 0 332.8 326.2Z");
}
}
@keyframes zr140-ani-36 {
0% {
d:path("M343.3 335.9A126.8 126.8 0 0 1 327.9 350.1L327.9 350.1A126.8 126.8 0 0 0 343.3 335.9Z");
}
100% {
d:path("M353.8 345.5A141.1 141.1 0 0 1 336.6 361.3L327.9 350.1A126.8 126.8 0 0 0 343.3 335.9Z");
}
}
@keyframes zr140-ani-37 {
0% {
d:path("M310.3 327.5A98.2 98.2 0 0 1 281.9 342.9L281.9 342.9A98.2 98.2 0 0 0 310.3 327.5Z");
}
100% {
d:path("M319.1 338.8A112.5 112.5 0 0 1 286.5 356.4L281.9 342.9A98.2 98.2 0 0 0 310.3 327.5Z");
}
}
@keyframes zr140-ani-38 {
0% {
d:path("M319.1 338.8A112.5 112.5 0 0 1 303.5 348.9L303.5 348.9A112.5 112.5 0 0 0 319.1 338.8Z");
}
100% {
d:path("M327.9 350.1A126.8 126.8 0 0 1 310.3 361.5L303.5 348.9A112.5 112.5 0 0 0 319.1 338.8Z");
}
}
@keyframes zr140-ani-39 {
0% {
d:path("M327.9 350.1A126.8 126.8 0 0 1 310.3 361.5L310.3 361.5A126.8 126.8 0 0 0 327.9 350.1Z");
}
100% {
d:path("M336.6 361.3A141.1 141.1 0 0 1 317.1 374.1L310.3 361.5A126.8 126.8 0 0 0 327.9 350.1Z");
}
}
@keyframes zr140-ani-40 {
0% {
d:path("M336.6 361.3A141.1 141.1 0 0 1 317.1 374.1L317.1 374.1A141.1 141.1 0 0 0 336.6 361.3Z");
}
100% {
d:path("M345.4 372.6A155.4 155.4 0 0 1 323.9 386.6L317.1 374.1A141.1 141.1 0 0 0 336.6 361.3Z");
}
}
@keyframes zr140-ani-41 {
0% {
d:path("M303.5 348.9A112.5 112.5 0 0 1 286.5 356.4L286.5 356.4A112.5 112.5 0 0 0 303.5 348.9Z");
}
100% {
d:path("M310.3 361.5A126.8 126.8 0 0 1 291.2 369.9L286.5 356.4A112.5 112.5 0 0 0 303.5 348.9Z");
}
}
@keyframes zr140-ani-42 {
0% {
d:path("M310.3 361.5A126.8 126.8 0 0 1 291.2 369.9L291.2 369.9A126.8 126.8 0 0 0 310.3 361.5Z");
}
100% {
d:path("M317.1 374.1A141.1 141.1 0 0 1 295.8 383.4L291.2 369.9A126.8 126.8 0 0 0 310.3 361.5Z");
}
}
@keyframes zr140-ani-43 {
0% {
d:path("M317.1 374.1A141.1 141.1 0 0 1 295.8 383.4L295.8 383.4A141.1 141.1 0 0 0 317.1 374.1Z");
}
100% {
d:path("M323.9 386.6A155.4 155.4 0 0 1 300.4 396.9L295.8 383.4A141.1 141.1 0 0 0 317.1 374.1Z");
}
}
@keyframes zr140-ani-44 {
0% {
d:path("M263.3 288.8A41.1 41.1 0 0 1 250 291.1L250 291.1A41.1 41.1 0 0 0 263.3 288.8Z");
}
100% {
d:path("M268 302.4A55.4 55.4 0 0 1 250 305.4L250 291.1A41.1 41.1 0 0 0 263.3 288.8Z");
}
}
@keyframes zr140-ani-45 {
0% {
d:path("M268 302.4A55.4 55.4 0 0 1 250 305.4L250 305.4A55.4 55.4 0 0 0 268 302.4Z");
}
100% {
d:path("M272.6 315.9A69.6 69.6 0 0 1 250 319.6L250 305.4A55.4 55.4 0 0 0 268 302.4Z");
}
}
@keyframes zr140-ani-46 {
0% {
d:path("M272.6 315.9A69.6 69.6 0 0 1 250 319.6L250 319.6A69.6 69.6 0 0 0 272.6 315.9Z");
}
100% {
d:path("M277.3 329.4A83.9 83.9 0 0 1 250 333.9L250 319.6A69.6 69.6 0 0 0 272.6 315.9Z");
}
}
@keyframes zr140-ani-47 {
0% {
d:path("M277.3 329.4A83.9 83.9 0 0 1 250 333.9L250 333.9A83.9 83.9 0 0 0 277.3 329.4Z");
}
100% {
d:path("M281.9 342.9A98.2 98.2 0 0 1 250 348.2L250 333.9A83.9 83.9 0 0 0 277.3 329.4Z");
}
}
@keyframes zr140-ani-48 {
0% {
d:path("M281.9 342.9A98.2 98.2 0 0 1 250 348.2L250 348.2A98.2 98.2 0 0 0 281.9 342.9Z");
}
100% {
d:path("M286.5 356.4A112.5 112.5 0 0 1 250 362.5L250 348.2A98.2 98.2 0 0 0 281.9 342.9Z");
}
}
@keyframes zr140-ani-49 {
0% {
d:path("M286.5 356.4A112.5 112.5 0 0 1 250 362.5L250 362.5A112.5 112.5 0 0 0 286.5 356.4Z");
}
100% {
d:path("M291.2 369.9A126.8 126.8 0 0 1 250 376.8L250 362.5A112.5 112.5 0 0 0 286.5 356.4Z");
}
}
@keyframes zr140-ani-50 {
0% {
d:path("M291.2 369.9A126.8 126.8 0 0 1 250 376.8L250 376.8A126.8 126.8 0 0 0 291.2 369.9Z");
}
100% {
d:path("M295.8 383.4A141.1 141.1 0 0 1 250 391.1L250 376.8A126.8 126.8 0 0 0 291.2 369.9Z");
}
}
@keyframes zr140-ani-51 {
0% {
d:path("M295.8 383.4A141.1 141.1 0 0 1 250 391.1L250 391.1A141.1 141.1 0 0 0 295.8 383.4Z");
}
100% {
d:path("M300.4 396.9A155.4 155.4 0 0 1 250 405.4L250 391.1A141.1 141.1 0 0 0 295.8 383.4Z");
}
}
@keyframes zr140-ani-52 {
0% {
d:path("M300.4 396.9A155.4 155.4 0 0 1 250 405.4L250 405.4A155.4 155.4 0 0 0 300.4 396.9Z");
}
100% {
d:path("M305.1 410.5A169.6 169.6 0 0 1 250 419.6L250 405.4A155.4 155.4 0 0 0 300.4 396.9Z");
}
}
@keyframes zr140-ani-53 {
0% {
d:path("M305.1 410.5A169.6 169.6 0 0 1 277.9 417.3L277.9 417.3A169.6 169.6 0 0 0 305.1 410.5Z");
}
100% {
d:path("M309.7 424A183.9 183.9 0 0 1 280.3 431.4L277.9 417.3A169.6 169.6 0 0 0 305.1 410.5Z");
}
}
@keyframes zr140-ani-54 {
0% {
d:path("M277.9 417.3A169.6 169.6 0 0 1 250 419.6L250 419.6A169.6 169.6 0 0 0 277.9 417.3Z");
}
100% {
d:path("M280.3 431.4A183.9 183.9 0 0 1 250 433.9L250 419.6A169.6 169.6 0 0 0 277.9 417.3Z");
}
}
@keyframes zr140-ani-55 {
0% {
d:path("M280.3 431.4A183.9 183.9 0 0 1 250 433.9L250 433.9A183.9 183.9 0 0 0 280.3 431.4Z");
}
100% {
d:path("M282.6 445.5A198.2 198.2 0 0 1 250 448.2L250 433.9A183.9 183.9 0 0 0 280.3 431.4Z");
}
}
@keyframes zr140-ani-56 {
0% {
d:path("M282.6 445.5A198.2 198.2 0 0 1 250 448.2L250 448.2A198.2 198.2 0 0 0 282.6 445.5Z");
}
100% {
d:path("M285 459.6A212.5 212.5 0 0 1 250 462.5L250 448.2A198.2 198.2 0 0 0 282.6 445.5Z");
}
}
@keyframes zr140-ani-57 {
0% {
d:path("M250 291.1A41.1 41.1 0 0 1 243.2 290.5A41.1 41.1 0 0 0 250 291.1Z");
}
100% {
d:path("M250 305.4A55.4 55.4 0 0 1 240.9 304.6L243.2 290.5A41.1 41.1 0 0 0 250 291.1Z");
}
}
@keyframes zr140-ani-58 {
0% {
d:path("M250 305.4A55.4 55.4 0 0 1 240.9 304.6A55.4 55.4 0 0 0 250 305.4Z");
}
100% {
d:path("M250 319.6A69.6 69.6 0 0 1 238.5 318.7L240.9 304.6A55.4 55.4 0 0 0 250 305.4Z");
}
}
@keyframes zr140-ani-59 {
0% {
d:path("M250 319.6A69.6 69.6 0 0 1 238.5 318.7A69.6 69.6 0 0 0 250 319.6Z");
}
100% {
d:path("M250 333.9A83.9 83.9 0 0 1 236.2 332.8L238.5 318.7A69.6 69.6 0 0 0 250 319.6Z");
}
}
@keyframes zr140-ani-60 {
0% {
d:path("M250 333.9A83.9 83.9 0 0 1 236.2 332.8A83.9 83.9 0 0 0 250 333.9Z");
}
100% {
d:path("M250 348.2A98.2 98.2 0 0 1 233.8 346.9L236.2 332.8A83.9 83.9 0 0 0 250 333.9Z");
}
}
@keyframes zr140-ani-61 {
0% {
d:path("M245.6 276.4A26.8 26.8 0 0 1 233.5 271.1L233.5 271.1A26.8 26.8 0 0 0 245.6 276.4Z");
}
100% {
d:path("M243.2 290.5A41.1 41.1 0 0 1 224.8 282.4L233.5 271.1A26.8 26.8 0 0 0 245.6 276.4Z");
}
}
@keyframes zr140-ani-62 {
0% {
d:path("M243.2 290.5A41.1 41.1 0 0 1 236.7 288.8L236.7 288.8A41.1 41.1 0 0 0 243.2 290.5Z");
}
100% {
d:path("M240.9 304.6A55.4 55.4 0 0 1 232 302.4L236.7 288.8A41.1 41.1 0 0 0 243.2 290.5Z");
}
}
@keyframes zr140-ani-63 {
0% {
d:path("M240.9 304.6A55.4 55.4 0 0 1 232 302.4L232 302.4A55.4 55.4 0 0 0 240.9 304.6Z");
}
100% {
d:path("M238.5 318.7A69.6 69.6 0 0 1 227.4 315.9L232 302.4A55.4 55.4 0 0 0 240.9 304.6Z");
}
}
@keyframes zr140-ani-64 {
0% {
d:path("M236.7 288.8A41.1 41.1 0 0 1 230.5 286.1L230.5 286.1A41.1 41.1 0 0 0 236.7 288.8Z");
}
100% {
d:path("M232 302.4A55.4 55.4 0 0 1 223.7 298.7L230.5 286.1A41.1 41.1 0 0 0 236.7 288.8Z");
}
}
@keyframes zr140-ani-65 {
0% {
d:path("M232 302.4A55.4 55.4 0 0 1 223.7 298.7L223.7 298.7A55.4 55.4 0 0 0 232 302.4Z");
}
100% {
d:path("M227.4 315.9A69.6 69.6 0 0 1 216.9 311.2L223.7 298.7A55.4 55.4 0 0 0 232 302.4Z");
}
}
@keyframes zr140-ani-66 {
0% {
d:path("M230.5 286.1A41.1 41.1 0 0 1 224.8 282.4L224.8 282.4A41.1 41.1 0 0 0 230.5 286.1Z");
}
100% {
d:path("M223.7 298.7A55.4 55.4 0 0 1 216 293.7L224.8 282.4A41.1 41.1 0 0 0 230.5 286.1Z");
}
}
@keyframes zr140-ani-67 {
0% {
d:path("M223.7 298.7A55.4 55.4 0 0 1 216 293.7L216 293.7A55.4 55.4 0 0 0 223.7 298.7Z");
}
100% {
d:path("M216.9 311.2A69.6 69.6 0 0 1 207.2 305L216 293.7A55.4 55.4 0 0 0 223.7 298.7Z");
}
}
@keyframes zr140-ani-68 {
0% {
d:path("M242.3 259.9A12.5 12.5 0 0 1 250 237.5L250 237.5A12.5 12.5 0 0 0 242.3 259.9Z");
}
100% {
d:path("M233.5 271.1A26.8 26.8 0 0 1 250 223.2L250 237.5A12.5 12.5 0 0 0 242.3 259.9Z");
}
}
@keyframes zr140-ani-69 {
0% {
d:path("M233.5 271.1A26.8 26.8 0 0 1 250 223.2L250 223.2A26.8 26.8 0 0 0 233.5 271.1Z");
}
100% {
d:path("M224.8 282.4A41.1 41.1 0 0 1 250 208.9L250 223.2A26.8 26.8 0 0 0 233.5 271.1Z");
}
}
]]>

</style>
</svg>