<svg width="500" height="500" xmlns="http://www.w3.org/2000/svg" xmlns:xlink="http://www.w3.org/1999/xlink" version="1.1" baseProfile="full" viewBox="0 0 500 500">
<rect width="500" height="500" x="0" y="0" id="0" fill="none"></rect>
<path d="M250 217.5A32.5 32.5 0 1 1 217.9 255L237.6 251.9A12.5 12.5 0 1 0 250 237.5Z" fill="#000" stroke="white" stroke-linejoin="bevel" class="zr0-cls-0"></path>
<path d="M250 197.5A52.5 52.5 0 0 1 291.9 281.6L275.9 269.6A32.5 32.5 0 0 0 250 217.5Z" fill="#49ff49" fill-opacity="0.5" stroke="#fff" stroke-width="4" stroke-opacity="0.5" stroke-linejoin="bevel" class="zr0-cls-1"></path>
<path d="M250 177.5A72.5 72.5 0 0 1 276.2 182.4L269 201A52.5 52.5 0 0 0 250 197.5Z" fill="#000" stroke="white" stroke-linejoin="bevel" class="zr0-cls-2"></path>
<path d="M250 157.5A92.5 92.5 0 0 1 261.4 158.2L258.9 178A72.5 72.5 0 0 0 250 177.5Z" fill="#0AA40D" stroke="white" stroke-linejoin="bevel" class="zr0-cls-3"></path>
<path d="M261.4 158.2A92.5 92.5 0 0 1 272.6 160.3L267.7 179.7A72.5 72.5 0 0 0 258.9 178Z" fill="#F3C142" stroke="white" stroke-linejoin="bevel" class="zr0-cls-4"></path>
<path d="M272.6 160.3A92.5 92.5 0 0 1 283.4 163.7L276.2 182.4A72.5 72.5 0 0 0 267.7 179.7Z" fill="#6dc0e3" stroke="white" stroke-linejoin="bevel" class="zr0-cls-5"></path>
<path d="M276.2 182.4A72.5 72.5 0 0 1 298.8 196.4L285.4 211.2A52.5 52.5 0 0 0 269 201Z" fill="#000" stroke="white" stroke-linejoin="bevel" class="zr0-cls-6"></path>
<path d="M283.4 163.7A92.5 92.5 0 0 1 293.8 168.5L284.3 186.1A72.5 72.5 0 0 0 276.2 182.4Z" fill="#0AA40D" stroke="white" stroke-linejoin="bevel" class="zr0-cls-7"></path>
<path d="M293.8 168.5A92.5 92.5 0 0 1 303.4 174.5L291.9 190.8A72.5 72.5 0 0 0 284.3 186.1Z" fill="#F3C142" stroke="white" stroke-linejoin="bevel" class="zr0-cls-8"></path>
<path d="M303.4 174.5A92.5 92.5 0 0 1 312.3 181.6L298.8 196.4A72.5 72.5 0 0 0 291.9 190.8Z" fill="#FF0000" stroke="white" stroke-linejoin="bevel" class="zr0-cls-9"></path>
<path d="M298.8 196.4A72.5 72.5 0 0 1 314.9 217.7L297 226.6A52.5 52.5 0 0 0 285.4 211.2Z" fill="#000" stroke="white" stroke-linejoin="bevel" class="zr0-cls-10"></path>
<path d="M312.3 181.6A92.5 92.5 0 0 1 320.2 189.8L305.1 202.8A72.5 72.5 0 0 0 298.8 196.4Z" fill="#0AA40D" stroke="white" stroke-linejoin="bevel" class="zr0-cls-11"></path>
<path d="M320.2 189.8A92.5 92.5 0 0 1 327.1 198.9L310.4 210A72.5 72.5 0 0 0 305.1 202.8Z" fill="#F3C142" stroke="white" stroke-linejoin="bevel" class="zr0-cls-12"></path>
<path d="M327.1 198.9A92.5 92.5 0 0 1 332.8 208.8L314.9 217.7A72.5 72.5 0 0 0 310.4 210Z" fill="#6dc0e3" stroke="white" stroke-linejoin="bevel" class="zr0-cls-13"></path>
<path d="M314.9 217.7A72.5 72.5 0 0 1 322.2 243.3L302.3 245.2A52.5 52.5 0 0 0 297 226.6Z" fill="#000" stroke="white" stroke-linejoin="bevel" class="zr0-cls-14"></path>
<path d="M332.8 208.8A92.5 92.5 0 0 1 337.2 219.3L318.4 225.9A72.5 72.5 0 0 0 314.9 217.7Z" fill="#0AA40D" stroke="white" stroke-linejoin="bevel" class="zr0-cls-15"></path>
<path d="M337.2 219.3A92.5 92.5 0 0 1 340.4 230.2L320.8 234.5A72.5 72.5 0 0 0 318.4 225.9Z" fill="#F3C142" stroke="white" stroke-linejoin="bevel" class="zr0-cls-16"></path>
<path d="M340.4 230.2A92.5 92.5 0 0 1 342.1 241.5L322.2 243.3A72.5 72.5 0 0 0 320.8 234.5Z" fill="#6dc0e3" stroke="white" stroke-linejoin="bevel" class="zr0-cls-17"></path>
<path d="M322.2 243.3A72.5 72.5 0 0 1 319.7 269.8L300.5 264.4A52.5 52.5 0 0 0 302.3 245.2Z" fill="#000" stroke="white" stroke-linejoin="bevel" class="zr0-cls-18"></path>
<path d="M342.1 241.5A92.5 92.5 0 0 1 342.5 252.8L322.5 252.2A72.5 72.5 0 0 0 322.2 243.3Z" fill="#FF0000" stroke="white" stroke-linejoin="bevel" class="zr0-cls-19"></path>
<path d="M342.5 252.8A92.5 92.5 0 0 1 341.4 264.2L321.6 261.1A72.5 72.5 0 0 0 322.5 252.2Z" fill="#6dc0e3" stroke="white" stroke-linejoin="bevel" class="zr0-cls-20"></path>
<path d="M341.4 264.2A92.5 92.5 0 0 1 339 275.3L319.7 269.8A72.5 72.5 0 0 0 321.6 261.1Z" fill="#0AA40D" stroke="white" stroke-linejoin="bevel" class="zr0-cls-21"></path>
<path d="M319.7 269.8A72.5 72.5 0 0 1 307.9 293.7L291.9 281.6A52.5 52.5 0 0 0 300.5 264.4Z" fill="#000" stroke="white" stroke-linejoin="bevel" class="zr0-cls-22"></path>
<path d="M339 275.3A92.5 92.5 0 0 1 335.2 286.1L316.8 278.3A72.5 72.5 0 0 0 319.7 269.8Z" fill="#0AA40D" stroke="white" stroke-linejoin="bevel" class="zr0-cls-23"></path>
<path d="M335.2 286.1A92.5 92.5 0 0 1 330.1 296.2L312.8 286.3A72.5 72.5 0 0 0 316.8 278.3Z" fill="#F3C142" stroke="white" stroke-linejoin="bevel" class="zr0-cls-24"></path>
<path d="M330.1 296.3A92.5 92.5 0 0 1 323.8 305.7L307.9 293.7A72.5 72.5 0 0 0 312.8 286.2Z" fill="#6dc0e3" stroke="white" stroke-linejoin="bevel" class="zr0-cls-25"></path>
<path d="M291.9 281.6A52.5 52.5 0 0 1 217.1 290.9L229.6 275.3A32.5 32.5 0 0 0 275.9 269.6Z" fill="#ff4949" fill-opacity="0.5" stroke="#fff" stroke-width="4" stroke-opacity="0.5" stroke-linejoin="bevel" class="zr0-cls-26"></path>
<path d="M307.9 293.7A72.5 72.5 0 0 1 288.2 311.6L277.6 294.6A52.5 52.5 0 0 0 291.9 281.6Z" fill="#000" stroke="white" stroke-linejoin="bevel" class="zr0-cls-27"></path>
<path d="M323.8 305.7A92.5 92.5 0 0 1 316.4 314.4L302 300.5A72.5 72.5 0 0 0 307.9 293.7Z" fill="#F3C142" stroke="white" stroke-linejoin="bevel" class="zr0-cls-28"></path>
<path d="M316.4 314.4A92.5 92.5 0 0 1 308 322.1L295.5 306.5A72.5 72.5 0 0 0 302 300.5Z" fill="#6dc0e3" stroke="white" stroke-linejoin="bevel" class="zr0-cls-29"></path>
<path d="M308 322.1A92.5 92.5 0 0 1 298.7 328.6L288.2 311.6A72.5 72.5 0 0 0 295.5 306.5Z" fill="#0AA40D" stroke="white" stroke-linejoin="bevel" class="zr0-cls-30"></path>
<path d="M288.2 311.6A72.5 72.5 0 0 1 263.3 321.3L259.6 301.6A52.5 52.5 0 0 0 277.6 294.6Z" fill="#000" stroke="white" stroke-linejoin="bevel" class="zr0-cls-31"></path>
<path d="M298.7 328.6A92.5 92.5 0 0 1 288.7 334L280.3 315.9A72.5 72.5 0 0 0 288.2 311.6Z" fill="#0AA40D" stroke="white" stroke-linejoin="bevel" class="zr0-cls-32"></path>
<path d="M288.7 334A92.5 92.5 0 0 1 278 338.1L272 319.1A72.5 72.5 0 0 0 280.3 315.9Z" fill="#F3C142" stroke="white" stroke-linejoin="bevel" class="zr0-cls-33"></path>
<path d="M278 338.1A92.5 92.5 0 0 1 267 340.9L263.3 321.3A72.5 72.5 0 0 0 272 319.1Z" fill="#6dc0e3" stroke="white" stroke-linejoin="bevel" class="zr0-cls-34"></path>
<path d="M263.3 321.3A72.5 72.5 0 0 1 236.7 321.3L240.4 301.6A52.5 52.5 0 0 0 259.6 301.6Z" fill="#000" stroke="white" stroke-linejoin="bevel" class="zr0-cls-35"></path>
<path d="M267 340.9A92.5 92.5 0 0 1 255.7 342.3L254.5 322.4A72.5 72.5 0 0 0 263.3 321.3Z" fill="#0AA40D" stroke="white" stroke-linejoin="bevel" class="zr0-cls-36"></path>
<path d="M255.7 342.3A92.5 92.5 0 0 1 244.3 342.3L245.5 322.4A72.5 72.5 0 0 0 254.5 322.4Z" fill="#F3C142" stroke="white" stroke-linejoin="bevel" class="zr0-cls-37"></path>
<path d="M244.3 342.3A92.5 92.5 0 0 1 233 340.9L236.7 321.3A72.5 72.5 0 0 0 245.5 322.4Z" fill="#6dc0e3" stroke="white" stroke-linejoin="bevel" class="zr0-cls-38"></path>
<path d="M236.7 321.3A72.5 72.5 0 0 1 219.7 315.9L228.1 297.7A52.5 52.5 0 0 0 240.4 301.6Z" fill="#000" stroke="white" stroke-linejoin="bevel" class="zr0-cls-39"></path>
<path d="M233 340.9A92.5 92.5 0 0 1 222 338.1L228 319.1A72.5 72.5 0 0 0 236.7 321.3Z" fill="#0AA40D" stroke="white" stroke-linejoin="bevel" class="zr0-cls-40"></path>
<path d="M222 338.1A92.5 92.5 0 0 1 211.3 334L219.7 315.9A72.5 72.5 0 0 0 228 319.1Z" fill="#F3C142" stroke="white" stroke-linejoin="bevel" class="zr0-cls-41"></path>
<path d="M219.7 315.9A72.5 72.5 0 0 1 211.8 311.6L222.4 294.6A52.5 52.5 0 0 0 228.1 297.7Z" fill="#000" stroke="white" stroke-linejoin="bevel" class="zr0-cls-42"></path>
<path d="M211.3 334A92.5 92.5 0 0 1 201.3 328.6L211.8 311.6A72.5 72.5 0 0 0 219.7 315.9Z" fill="#0AA40D" stroke="white" stroke-linejoin="bevel" class="zr0-cls-43"></path>
<path d="M211.8 311.6A72.5 72.5 0 0 1 204.5 306.5L217.1 290.9A52.5 52.5 0 0 0 222.4 294.6Z" fill="#000" stroke="white" stroke-linejoin="bevel" class="zr0-cls-44"></path>
<path d="M201.3 328.6A92.5 92.5 0 0 1 192 322.1L204.5 306.5A72.5 72.5 0 0 0 211.8 311.6Z" fill="#FF0000" stroke="white" stroke-linejoin="bevel" class="zr0-cls-45"></path>
<path d="M217.1 290.9A52.5 52.5 0 0 1 198.1 258.1L217.9 255A32.5 32.5 0 0 0 229.6 275.3Z" fill="#4949CD" fill-opacity="0.5" stroke="#fff" stroke-width="4" stroke-opacity="0.5" stroke-linejoin="bevel" class="zr0-cls-46"></path>
<path d="M204.5 306.5A72.5 72.5 0 0 1 187.2 286.3L204.5 276.3A52.5 52.5 0 0 0 217.1 290.9Z" fill="#000" stroke="white" stroke-linejoin="bevel" class="zr0-cls-47"></path>
<path d="M192 322.1A92.5 92.5 0 0 1 169.9 296.3L187.2 286.3A72.5 72.5 0 0 0 204.5 306.5Z" fill="#000" stroke="white" stroke-linejoin="bevel" class="zr0-cls-48"></path>
<path d="M179.5 337.6A112.5 112.5 0 0 1 169.2 328.3L183.6 314.4A92.5 92.5 0 0 0 192 322.1Z" fill="#4949CD" fill-opacity="0.5" stroke="#fff" stroke-width="4" stroke-opacity="0.5" stroke-linejoin="bevel" class="zr0-cls-49"></path>
<path d="M166.9 353.2A132.5 132.5 0 0 1 154.9 342.2L169.2 328.3A112.5 112.5 0 0 0 179.5 337.6Z" fill="#F3C142" stroke="white" stroke-linejoin="bevel" class="zr0-cls-50"></path>
<path d="M154.4 368.8A152.5 152.5 0 0 1 140.5 356.2L154.9 342.2A132.5 132.5 0 0 0 166.9 353.2Z" fill="#000" stroke="white" stroke-linejoin="bevel" class="zr0-cls-51"></path>
<path d="M141.9 384.4A172.5 172.5 0 0 1 126.2 370.1L140.5 356.2A152.5 152.5 0 0 0 154.4 368.8Z" fill="#4949CD" fill-opacity="0.5" stroke="#fff" stroke-width="4" stroke-opacity="0.5" stroke-linejoin="bevel" class="zr0-cls-52"></path>
<path d="M129.3 400A192.5 192.5 0 0 1 111.8 384L126.2 370.1A172.5 172.5 0 0 0 141.9 384.4Z" fill="#000" stroke="white" stroke-linejoin="bevel" class="zr0-cls-53"></path>
<path d="M116.8 415.6A212.5 212.5 0 0 1 97.4 397.9L111.8 384A192.5 192.5 0 0 0 129.3 400Z" fill="#C8C8C8" stroke="white" stroke-linejoin="bevel" class="zr0-cls-54"></path>
<path d="M169.2 328.3A112.5 112.5 0 0 1 160.2 317.8L176.2 305.7A92.5 92.5 0 0 0 183.6 314.4Z" fill="#ff4949" fill-opacity="0.5" stroke="#fff" stroke-width="4" stroke-opacity="0.5" stroke-linejoin="bevel" class="zr0-cls-55"></path>
<path d="M154.9 342.2A132.5 132.5 0 0 1 144.3 329.8L160.2 317.8A112.5 112.5 0 0 0 169.2 328.3Z" fill="#0AA40D" stroke="white" stroke-linejoin="bevel" class="zr0-cls-56"></path>
<path d="M160.2 317.8A112.5 112.5 0 0 1 152.6 306.2L169.9 296.3A92.5 92.5 0 0 0 176.2 305.7Z" fill="#49ff49" fill-opacity="0.5" stroke="#fff" stroke-width="4" stroke-opacity="0.5" stroke-linejoin="bevel" class="zr0-cls-57"></path>
<path d="M144.3 329.8A132.5 132.5 0 0 1 135.3 316.2L152.6 306.3A112.5 112.5 0 0 0 160.2 317.8Z" fill="#FF0000" stroke="white" stroke-linejoin="bevel" class="zr0-cls-58"></path>
<path d="M187.2 286.3A72.5 72.5 0 0 1 178.4 261.1L198.1 258.1A52.5 52.5 0 0 0 204.5 276.3Z" fill="#000" stroke="white" stroke-linejoin="bevel" class="zr0-cls-59"></path>
<path d="M169.9 296.3A92.5 92.5 0 0 1 158.6 264.2L178.4 261.1A72.5 72.5 0 0 0 187.2 286.3Z" fill="#000" stroke="white" stroke-linejoin="bevel" class="zr0-cls-60"></path>
<path d="M152.6 306.3A112.5 112.5 0 0 1 141.8 280.8L161 275.3A92.5 92.5 0 0 0 169.9 296.2Z" fill="#49ff49" fill-opacity="0.5" stroke="#fff" stroke-width="4" stroke-opacity="0.5" stroke-linejoin="bevel" class="zr0-cls-61"></path>
<path d="M135.3 316.3A132.5 132.5 0 0 1 128 301.6L146.4 293.9A112.5 112.5 0 0 0 152.6 306.2Z" fill="#6dc0e3" stroke="white" stroke-linejoin="bevel" class="zr0-cls-62"></path>
<path d="M128 301.6A132.5 132.5 0 0 1 122.6 286.3L141.8 280.8A112.5 112.5 0 0 0 146.4 293.9Z" fill="#0AA40D" stroke="white" stroke-linejoin="bevel" class="zr0-cls-63"></path>
<path d="M141.8 280.8A112.5 112.5 0 0 1 138.8 267.3L158.6 264.2A92.5 92.5 0 0 0 161 275.3Z" fill="#ff4949" fill-opacity="0.5" stroke="#fff" stroke-width="4" stroke-opacity="0.5" stroke-linejoin="bevel" class="zr0-cls-64"></path>
<path d="M122.6 286.3A132.5 132.5 0 0 1 119.1 270.3L138.8 267.3A112.5 112.5 0 0 0 141.8 280.8Z" fill="#FF0000" stroke="white" stroke-linejoin="bevel" class="zr0-cls-65"></path>
<path d="M217.9 255A32.5 32.5 0 0 1 250 217.5L250 237.5A12.5 12.5 0 0 0 237.6 251.9Z" fill="#C8C8C8" stroke="white" stroke-linejoin="bevel" class="zr0-cls-66"></path>
<path d="M198.1 258.1A52.5 52.5 0 0 1 237.2 199.1L242.1 218.5A32.5 32.5 0 0 0 217.9 255Z" fill="#C8C8C8" stroke="white" stroke-linejoin="bevel" class="zr0-cls-67"></path>
<path d="M237.2 199.1A52.5 52.5 0 0 1 243.5 197.9L246 217.7A32.5 32.5 0 0 0 242.1 218.5Z" fill="#C8C8C8" stroke="white" stroke-linejoin="bevel" class="zr0-cls-68"></path>
<path d="M243.5 197.9A52.5 52.5 0 0 1 250 197.5L250 217.5A32.5 32.5 0 0 0 246 217.7Z" fill="#C8C8C8" stroke="white" stroke-linejoin="bevel" class="zr0-cls-69"></path>
<text dominant-baseline="central" text-anchor="middle" style="font-size:12px;font-family:sans-serif;" transform="matrix(0.651,-0.759,0.759,0.651,267.0866,264.6389)" fill="#ccc" stroke="#000" stroke-width="2" paint-order="stroke" stroke-miterlimit="2">paths</text>
<text dominant-baseline="central" text-anchor="middle" style="font-size:12px;font-family:sans-serif;" transform="matrix(0.983,0.184,-0.184,0.983,261.4843,188.5642)" fill="#ccc" stroke="#000" stroke-width="2" paint-order="stroke" stroke-miterlimit="2">/best</text>
<text dominant-baseline="central" text-anchor="middle" style="font-size:9px;font-family:sans-serif;" transform="matrix(0.603,0.798,-0.798,0.603,299.8761,212.3353)" fill="#ccc" stroke="#000" stroke-width="2" paint-order="stroke" stroke-miterlimit="2">/layer/mosiac</text>
<text dominant-baseline="central" text-anchor="middle" style="font-size:12px;font-family:sans-serif;" transform="matrix(0.739,-0.674,0.674,0.739,292.106,296.1881)" fill="#ccc" stroke="#000" stroke-width="2" paint-order="stroke" stroke-miterlimit="2">/best</text>
<text dominant-baseline="central" text-anchor="middle" style="font-size:12px;font-family:sans-serif;" transform="matrix(0.651,0.759,-0.759,0.651,202.5372,290.6636)" fill="#ccc" stroke="#000" stroke-width="2" paint-order="stroke" stroke-miterlimit="2">/layer</text>
<text dominant-baseline="central" text-anchor="middle" style="font-size:9px;font-family:sans-serif;" transform="matrix(0.651,0.759,-0.759,0.651,187.3491,303.676)" fill="#ccc" stroke="#000" stroke-width="2" paint-order="stroke" stroke-miterlimit="2">operations</text>
<text dominant-baseline="central" text-anchor="middle" style="font-size:12px;font-family:sans-serif;" transform="matrix(0.651,-0.759,0.759,0.651,232.9134,235.3611)" fill="#333">info</text>
<text dominant-baseline="central" text-anchor="middle" style="font-size:10px;font-family:sans-serif;" transform="matrix(0.552,-0.834,0.834,0.552,214.5719,226.5245)" fill="#333">version</text>
<path d="M-14.8 -16l66.6 0l0 32l-66.6 0Z" transform="translate(448.253 16)" fill="none" stroke="#ccc" stroke-width="0"></path>
<path d="M-7.3 -1.8L-0.1 4.8L7.3 -1.6M-7.3 4.3L-7.3 8.5L7.1 8.5L7.1 4.3M-0.1 4.7L-0.1 -8.5" transform="translate(448.253 16)" fill="none" stroke="#666"></path>
<path d="M-7.9 1M5.1 -3.4L8.1 -3.4L8.1 -6.4M8 -3C6.7 -6.4 3.2 -8.9 -1 -8.4C-5.3 -8 -8.6 -4.2 -8.4 0.2M-5.1 3.4L-8.1 3.4L-8.1 6.4M-8 3C-6.7 6.4 -3.2 8.9 1 8.4C5.3 8 8.6 4.2 8.4 -0.2" transform="translate(484.0476 16)" fill="none" stroke="#666"></path>
<style ><![CDATA[
.zr0-cls-0 {
animation:zr0-ani-0 1s cubic-bezier(0.65,0,0.35,1) both;
}
.zr0-cls-1 {
animation:zr0-ani-1 1s cubic-bezier(0.65,0,0.35,1) both;
}
.zr0-cls-2 {
animation:zr0-ani-2 1s cubic-bezier(0.65,0,0.35,1) both;
}
.zr0-cls-3 {
animation:zr0-ani-3 1s cubic-bezier(0.65,0,0.35,1) both;
}
.zr0-cls-4 {
animation:zr0-ani-4 1s cubic-bezier(0.65,0,0.35,1) both;
}
.zr0-cls-5 {
animation:zr0-ani-5 1s cubic-bezier(0.65,0,0.35,1) both;
}
.zr0-cls-6 {
animation:zr0-ani-6 1s cubic-bezier(0.65,0,0.35,1) both;
}
.zr0-cls-7 {
animation:zr0-ani-7 1s cubic-bezier(0.65,0,0.35,1) both;
}
.zr0-cls-8 {
animation:zr0-ani-8 1s cubic-bezier(0.65,0,0.35,1) both;
}
.zr0-cls-9 {
animation:zr0-ani-9 1s cubic-bezier(0.65,0,0.35,1) both;
}
.zr0-cls-10 {
animation:zr0-ani-10 1s cubic-bezier(0.65,0,0.35,1) both;
}
.zr0-cls-11 {
animation:zr0-ani-11 1s cubic-bezier(0.65,0,0.35,1) both;
}
.zr0-cls-12 {
animation:zr0-ani-12 1s cubic-bezier(0.65,0,0.35,1) both;
}
.zr0-cls-13 {
animation:zr0-ani-13 1s cubic-bezier(0.65,0,0.35,1) both;
}
.zr0-cls-14 {
animation:zr0-ani-14 1s cubic-bezier(0.65,0,0.35,1) both;
}
.zr0-cls-15 {
animation:zr0-ani-15 1s cubic-bezier(0.65,0,0.35,1) both;
}
.zr0-cls-16 {
animation:zr0-ani-16 1s cubic-bezier(0.65,0,0.35,1) both;
}
.zr0-cls-17 {
animation:zr0-ani-17 1s cubic-bezier(0.65,0,0.35,1) both;
}
.zr0-cls-18 {
animation:zr0-ani-18 1s cubic-bezier(0.65,0,0.35,1) both;
}
.zr0-cls-19 {
animation:zr0-ani-19 1s cubic-bezier(0.65,0,0.35,1) both;
}
.zr0-cls-20 {
animation:zr0-ani-20 1s cubic-bezier(0.65,0,0.35,1) both;
}
.zr0-cls-21 {
animation:zr0-ani-21 1s cubic-bezier(0.65,0,0.35,1) both;
}
.zr0-cls-22 {
animation:zr0-ani-22 1s cubic-bezier(0.65,0,0.35,1) both;
}
.zr0-cls-23 {
animation:zr0-ani-23 1s cubic-bezier(0.65,0,0.35,1) both;
}
.zr0-cls-24 {
animation:zr0-ani-24 1s cubic-bezier(0.65,0,0.35,1) both;
}
.zr0-cls-25 {
animation:zr0-ani-25 1s cubic-bezier(0.65,0,0.35,1) both;
}
.zr0-cls-26 {
animation:zr0-ani-26 1s cubic-bezier(0.65,0,0.35,1) both;
}
.zr0-cls-27 {
animation:zr0-ani-27 1s cubic-bezier(0.65,0,0.35,1) both;
}
.zr0-cls-28 {
animation:zr0-ani-28 1s cubic-bezier(0.65,0,0.35,1) both;
}
.zr0-cls-29 {
animation:zr0-ani-29 1s cubic-bezier(0.65,0,0.35,1) both;
}
.zr0-cls-30 {
animation:zr0-ani-30 1s cubic-bezier(0.65,0,0.35,1) both;
}
.zr0-cls-31 {
animation:zr0-ani-31 1s cubic-bezier(0.65,0,0.35,1) both;
}
.zr0-cls-32 {
animation:zr0-ani-32 1s cubic-bezier(0.65,0,0.35,1) both;
}
.zr0-cls-33 {
animation:zr0-ani-33 1s cubic-bezier(0.65,0,0.35,1) both;
}
.zr0-cls-34 {
animation:zr0-ani-34 1s cubic-bezier(0.65,0,0.35,1) both;
}
.zr0-cls-35 {
animation:zr0-ani-35 1s cubic-bezier(0.65,0,0.35,1) both;
}
.zr0-cls-36 {
animation:zr0-ani-36 1s cubic-bezier(0.65,0,0.35,1) both;
}
.zr0-cls-37 {
animation:zr0-ani-37 1s cubic-bezier(0.65,0,0.35,1) both;
}
.zr0-cls-38 {
animation:zr0-ani-38 1s cubic-bezier(0.65,0,0.35,1) both;
}
.zr0-cls-39 {
animation:zr0-ani-39 1s cubic-bezier(0.65,0,0.35,1) both;
}
.zr0-cls-40 {
animation:zr0-ani-40 1s cubic-bezier(0.65,0,0.35,1) both;
}
.zr0-cls-41 {
animation:zr0-ani-41 1s cubic-bezier(0.65,0,0.35,1) both;
}
.zr0-cls-42 {
animation:zr0-ani-42 1s cubic-bezier(0.65,0,0.35,1) both;
}
.zr0-cls-43 {
animation:zr0-ani-43 1s cubic-bezier(0.65,0,0.35,1) both;
}
.zr0-cls-44 {
animation:zr0-ani-44 1s cubic-bezier(0.65,0,0.35,1) both;
}
.zr0-cls-45 {
animation:zr0-ani-45 1s cubic-bezier(0.65,0,0.35,1) both;
}
.zr0-cls-46 {
animation:zr0-ani-46 1s cubic-bezier(0.65,0,0.35,1) both;
}
.zr0-cls-47 {
animation:zr0-ani-47 1s cubic-bezier(0.65,0,0.35,1) both;
}
.zr0-cls-48 {
animation:zr0-ani-48 1s cubic-bezier(0.65,0,0.35,1) both;
}
.zr0-cls-49 {
animation:zr0-ani-49 1s cubic-bezier(0.65,0,0.35,1) both;
}
.zr0-cls-50 {
animation:zr0-ani-50 1s cubic-bezier(0.65,0,0.35,1) both;
}
.zr0-cls-51 {
animation:zr0-ani-51 1s cubic-bezier(0.65,0,0.35,1) both;
}
.zr0-cls-52 {
animation:zr0-ani-52 1s cubic-bezier(0.65,0,0.35,1) both;
}
.zr0-cls-53 {
animation:zr0-ani-53 1s cubic-bezier(0.65,0,0.35,1) both;
}
.zr0-cls-54 {
animation:zr0-ani-54 1s cubic-bezier(0.65,0,0.35,1) both;
}
.zr0-cls-55 {
animation:zr0-ani-55 1s cubic-bezier(0.65,0,0.35,1) both;
}
.zr0-cls-56 {
animation:zr0-ani-56 1s cubic-bezier(0.65,0,0.35,1) both;
}
.zr0-cls-57 {
animation:zr0-ani-57 1s cubic-bezier(0.65,0,0.35,1) both;
}
.zr0-cls-58 {
animation:zr0-ani-58 1s cubic-bezier(0.65,0,0.35,1) both;
}
.zr0-cls-59 {
animation:zr0-ani-59 1s cubic-bezier(0.65,0,0.35,1) both;
}
.zr0-cls-60 {
animation:zr0-ani-60 1s cubic-bezier(0.65,0,0.35,1) both;
}
.zr0-cls-61 {
animation:zr0-ani-61 1s cubic-bezier(0.65,0,0.35,1) both;
}
.zr0-cls-62 {
animation:zr0-ani-62 1s cubic-bezier(0.65,0,0.35,1) both;
}
.zr0-cls-63 {
animation:zr0-ani-63 1s cubic-bezier(0.65,0,0.35,1) both;
}
.zr0-cls-64 {
animation:zr0-ani-64 1s cubic-bezier(0.65,0,0.35,1) both;
}
.zr0-cls-65 {
animation:zr0-ani-65 1s cubic-bezier(0.65,0,0.35,1) both;
}
.zr0-cls-66 {
animation:zr0-ani-66 1s cubic-bezier(0.65,0,0.35,1) both;
}
.zr0-cls-67 {
animation:zr0-ani-67 1s cubic-bezier(0.65,0,0.35,1) both;
}
.zr0-cls-68 {
animation:zr0-ani-68 1s cubic-bezier(0.65,0,0.35,1) both;
}
.zr0-cls-69 {
animation:zr0-ani-69 1s cubic-bezier(0.65,0,0.35,1) both;
}
@keyframes zr0-ani-0 {
0% {
d:path("M250 237.5A12.5 12.5 0 1 1 237.6 251.9A12.5 12.5 0 1 0 250 237.5Z");
}
100% {
d:path("M250 217.5A32.5 32.5 0 1 1 217.9 255L237.6 251.9A12.5 12.5 0 1 0 250 237.5Z");
}
}
@keyframes zr0-ani-1 {
0% {
d:path("M250 217.5A32.5 32.5 0 0 1 275.9 269.6A32.5 32.5 0 0 0 250 217.5Z");
}
100% {
d:path("M250 197.5A52.5 52.5 0 0 1 291.9 281.6L275.9 269.6A32.5 32.5 0 0 0 250 217.5Z");
}
}
@keyframes zr0-ani-2 {
0% {
d:path("M250 197.5A52.5 52.5 0 0 1 269 201L269 201A52.5 52.5 0 0 0 250 197.5Z");
}
100% {
d:path("M250 177.5A72.5 72.5 0 0 1 276.2 182.4L269 201A52.5 52.5 0 0 0 250 197.5Z");
}
}
@keyframes zr0-ani-3 {
0% {
d:path("M250 177.5A72.5 72.5 0 0 1 258.9 178A72.5 72.5 0 0 0 250 177.5Z");
}
100% {
d:path("M250 157.5A92.5 92.5 0 0 1 261.4 158.2L258.9 178A72.5 72.5 0 0 0 250 177.5Z");
}
}
@keyframes zr0-ani-4 {
0% {
d:path("M258.9 178A72.5 72.5 0 0 1 267.7 179.7L267.7 179.7A72.5 72.5 0 0 0 258.9 178Z");
}
100% {
d:path("M261.4 158.2A92.5 92.5 0 0 1 272.6 160.3L267.7 179.7A72.5 72.5 0 0 0 258.9 178Z");
}
}
@keyframes zr0-ani-5 {
0% {
d:path("M267.7 179.7A72.5 72.5 0 0 1 276.2 182.4L276.2 182.4A72.5 72.5 0 0 0 267.7 179.7Z");
}
100% {
d:path("M272.6 160.3A92.5 92.5 0 0 1 283.4 163.7L276.2 182.4A72.5 72.5 0 0 0 267.7 179.7Z");
}
}
@keyframes zr0-ani-6 {
0% {
d:path("M269 201A52.5 52.5 0 0 1 285.4 211.2L285.4 211.2A52.5 52.5 0 0 0 269 201Z");
}
100% {
d:path("M276.2 182.4A72.5 72.5 0 0 1 298.8 196.4L285.4 211.2A52.5 52.5 0 0 0 269 201Z");
}
}
@keyframes zr0-ani-7 {
0% {
d:path("M276.2 182.4A72.5 72.5 0 0 1 284.3 186.1L284.3 186.1A72.5 72.5 0 0 0 276.2 182.4Z");
}
100% {
d:path("M283.4 163.7A92.5 92.5 0 0 1 293.8 168.5L284.3 186.1A72.5 72.5 0 0 0 276.2 182.4Z");
}
}
@keyframes zr0-ani-8 {
0% {
d:path("M284.3 186.1A72.5 72.5 0 0 1 291.9 190.8L291.9 190.8A72.5 72.5 0 0 0 284.3 186.1Z");
}
100% {
d:path("M293.8 168.5A92.5 92.5 0 0 1 303.4 174.5L291.9 190.8A72.5 72.5 0 0 0 284.3 186.1Z");
}
}
@keyframes zr0-ani-9 {
0% {
d:path("M291.9 190.8A72.5 72.5 0 0 1 298.8 196.4L298.8 196.4A72.5 72.5 0 0 0 291.9 190.8Z");
}
100% {
d:path("M303.4 174.5A92.5 92.5 0 0 1 312.3 181.6L298.8 196.4A72.5 72.5 0 0 0 291.9 190.8Z");
}
}
@keyframes zr0-ani-10 {
0% {
d:path("M285.4 211.2A52.5 52.5 0 0 1 297 226.6L297 226.6A52.5 52.5 0 0 0 285.4 211.2Z");
}
100% {
d:path("M298.8 196.4A72.5 72.5 0 0 1 314.9 217.7L297 226.6A52.5 52.5 0 0 0 285.4 211.2Z");
}
}
@keyframes zr0-ani-11 {
0% {
d:path("M298.8 196.4A72.5 72.5 0 0 1 305.1 202.8L305.1 202.8A72.5 72.5 0 0 0 298.8 196.4Z");
}
100% {
d:path("M312.3 181.6A92.5 92.5 0 0 1 320.2 189.8L305.1 202.8A72.5 72.5 0 0 0 298.8 196.4Z");
}
}
@keyframes zr0-ani-12 {
0% {
d:path("M305.1 202.8A72.5 72.5 0 0 1 310.4 210L310.4 210A72.5 72.5 0 0 0 305.1 202.8Z");
}
100% {
d:path("M320.2 189.8A92.5 92.5 0 0 1 327.1 198.9L310.4 210A72.5 72.5 0 0 0 305.1 202.8Z");
}
}
@keyframes zr0-ani-13 {
0% {
d:path("M310.4 210A72.5 72.5 0 0 1 314.9 217.7L314.9 217.7A72.5 72.5 0 0 0 310.4 210Z");
}
100% {
d:path("M327.1 198.9A92.5 92.5 0 0 1 332.8 208.8L314.9 217.7A72.5 72.5 0 0 0 310.4 210Z");
}
}
@keyframes zr0-ani-14 {
0% {
d:path("M297 226.6A52.5 52.5 0 0 1 302.3 245.2L302.3 245.2A52.5 52.5 0 0 0 297 226.6Z");
}
100% {
d:path("M314.9 217.7A72.5 72.5 0 0 1 322.2 243.3L302.3 245.2A52.5 52.5 0 0 0 297 226.6Z");
}
}
@keyframes zr0-ani-15 {
0% {
d:path("M314.9 217.7A72.5 72.5 0 0 1 318.4 225.9L318.4 225.9A72.5 72.5 0 0 0 314.9 217.7Z");
}
100% {
d:path("M332.8 208.8A92.5 92.5 0 0 1 337.2 219.3L318.4 225.9A72.5 72.5 0 0 0 314.9 217.7Z");
}
}
@keyframes zr0-ani-16 {
0% {
d:path("M318.4 225.9A72.5 72.5 0 0 1 320.8 234.5L320.8 234.5A72.5 72.5 0 0 0 318.4 225.9Z");
}
100% {
d:path("M337.2 219.3A92.5 92.5 0 0 1 340.4 230.2L320.8 234.5A72.5 72.5 0 0 0 318.4 225.9Z");
}
}
@keyframes zr0-ani-17 {
0% {
d:path("M320.8 234.5A72.5 72.5 0 0 1 322.2 243.3L322.2 243.3A72.5 72.5 0 0 0 320.8 234.5Z");
}
100% {
d:path("M340.4 230.2A92.5 92.5 0 0 1 342.1 241.5L322.2 243.3A72.5 72.5 0 0 0 320.8 234.5Z");
}
}
@keyframes zr0-ani-18 {
0% {
d:path("M302.3 245.2A52.5 52.5 0 0 1 300.5 264.4L300.5 264.4A52.5 52.5 0 0 0 302.3 245.2Z");
}
100% {
d:path("M322.2 243.3A72.5 72.5 0 0 1 319.7 269.8L300.5 264.4A52.5 52.5 0 0 0 302.3 245.2Z");
}
}
@keyframes zr0-ani-19 {
0% {
d:path("M322.2 243.3A72.5 72.5 0 0 1 322.5 252.2L322.5 252.2A72.5 72.5 0 0 0 322.2 243.3Z");
}
100% {
d:path("M342.1 241.5A92.5 92.5 0 0 1 342.5 252.8L322.5 252.2A72.5 72.5 0 0 0 322.2 243.3Z");
}
}
@keyframes zr0-ani-20 {
0% {
d:path("M322.5 252.2A72.5 72.5 0 0 1 321.6 261.1L321.6 261.1A72.5 72.5 0 0 0 322.5 252.2Z");
}
100% {
d:path("M342.5 252.8A92.5 92.5 0 0 1 341.4 264.2L321.6 261.1A72.5 72.5 0 0 0 322.5 252.2Z");
}
}
@keyframes zr0-ani-21 {
0% {
d:path("M321.6 261.1A72.5 72.5 0 0 1 319.7 269.8L319.7 269.8A72.5 72.5 0 0 0 321.6 261.1Z");
}
100% {
d:path("M341.4 264.2A92.5 92.5 0 0 1 339 275.3L319.7 269.8A72.5 72.5 0 0 0 321.6 261.1Z");
}
}
@keyframes zr0-ani-22 {
0% {
d:path("M300.5 264.4A52.5 52.5 0 0 1 291.9 281.6L291.9 281.6A52.5 52.5 0 0 0 300.5 264.4Z");
}
100% {
d:path("M319.7 269.8A72.5 72.5 0 0 1 307.9 293.7L291.9 281.6A52.5 52.5 0 0 0 300.5 264.4Z");
}
}
@keyframes zr0-ani-23 {
0% {
d:path("M319.7 269.8A72.5 72.5 0 0 1 316.8 278.3L316.8 278.3A72.5 72.5 0 0 0 319.7 269.8Z");
}
100% {
d:path("M339 275.3A92.5 92.5 0 0 1 335.2 286.1L316.8 278.3A72.5 72.5 0 0 0 319.7 269.8Z");
}
}
@keyframes zr0-ani-24 {
0% {
d:path("M316.8 278.3A72.5 72.5 0 0 1 312.8 286.2L312.8 286.3A72.5 72.5 0 0 0 316.8 278.3Z");
}
100% {
d:path("M335.2 286.1A92.5 92.5 0 0 1 330.1 296.2L312.8 286.3A72.5 72.5 0 0 0 316.8 278.3Z");
}
}
@keyframes zr0-ani-25 {
0% {
d:path("M312.8 286.3A72.5 72.5 0 0 1 307.9 293.7L307.9 293.7A72.5 72.5 0 0 0 312.8 286.2Z");
}
100% {
d:path("M330.1 296.3A92.5 92.5 0 0 1 323.8 305.7L307.9 293.7A72.5 72.5 0 0 0 312.8 286.2Z");
}
}
@keyframes zr0-ani-26 {
0% {
d:path("M275.9 269.6A32.5 32.5 0 0 1 229.6 275.3L229.6 275.3A32.5 32.5 0 0 0 275.9 269.6Z");
}
100% {
d:path("M291.9 281.6A52.5 52.5 0 0 1 217.1 290.9L229.6 275.3A32.5 32.5 0 0 0 275.9 269.6Z");
}
}
@keyframes zr0-ani-27 {
0% {
d:path("M291.9 281.6A52.5 52.5 0 0 1 277.6 294.6L277.6 294.6A52.5 52.5 0 0 0 291.9 281.6Z");
}
100% {
d:path("M307.9 293.7A72.5 72.5 0 0 1 288.2 311.6L277.6 294.6A52.5 52.5 0 0 0 291.9 281.6Z");
}
}
@keyframes zr0-ani-28 {
0% {
d:path("M307.9 293.7A72.5 72.5 0 0 1 302 300.5L302 300.5A72.5 72.5 0 0 0 307.9 293.7Z");
}
100% {
d:path("M323.8 305.7A92.5 92.5 0 0 1 316.4 314.4L302 300.5A72.5 72.5 0 0 0 307.9 293.7Z");
}
}
@keyframes zr0-ani-29 {
0% {
d:path("M302 300.5A72.5 72.5 0 0 1 295.5 306.5L295.5 306.5A72.5 72.5 0 0 0 302 300.5Z");
}
100% {
d:path("M316.4 314.4A92.5 92.5 0 0 1 308 322.1L295.5 306.5A72.5 72.5 0 0 0 302 300.5Z");
}
}
@keyframes zr0-ani-30 {
0% {
d:path("M295.5 306.5A72.5 72.5 0 0 1 288.2 311.6L288.2 311.6A72.5 72.5 0 0 0 295.5 306.5Z");
}
100% {
d:path("M308 322.1A92.5 92.5 0 0 1 298.7 328.6L288.2 311.6A72.5 72.5 0 0 0 295.5 306.5Z");
}
}
@keyframes zr0-ani-31 {
0% {
d:path("M277.6 294.6A52.5 52.5 0 0 1 259.6 301.6L259.6 301.6A52.5 52.5 0 0 0 277.6 294.6Z");
}
100% {
d:path("M288.2 311.6A72.5 72.5 0 0 1 263.3 321.3L259.6 301.6A52.5 52.5 0 0 0 277.6 294.6Z");
}
}
@keyframes zr0-ani-32 {
0% {
d:path("M288.2 311.6A72.5 72.5 0 0 1 280.3 315.9L280.3 315.9A72.5 72.5 0 0 0 288.2 311.6Z");
}
100% {
d:path("M298.7 328.6A92.5 92.5 0 0 1 288.7 334L280.3 315.9A72.5 72.5 0 0 0 288.2 311.6Z");
}
}
@keyframes zr0-ani-33 {
0% {
d:path("M280.3 315.9A72.5 72.5 0 0 1 272 319.1L272 319.1A72.5 72.5 0 0 0 280.3 315.9Z");
}
100% {
d:path("M288.7 334A92.5 92.5 0 0 1 278 338.1L272 319.1A72.5 72.5 0 0 0 280.3 315.9Z");
}
}
@keyframes zr0-ani-34 {
0% {
d:path("M272 319.1A72.5 72.5 0 0 1 263.3 321.3L263.3 321.3A72.5 72.5 0 0 0 272 319.1Z");
}
100% {
d:path("M278 338.1A92.5 92.5 0 0 1 267 340.9L263.3 321.3A72.5 72.5 0 0 0 272 319.1Z");
}
}
@keyframes zr0-ani-35 {
0% {
d:path("M259.6 301.6A52.5 52.5 0 0 1 240.4 301.6L240.4 301.6A52.5 52.5 0 0 0 259.6 301.6Z");
}
100% {
d:path("M263.3 321.3A72.5 72.5 0 0 1 236.7 321.3L240.4 301.6A52.5 52.5 0 0 0 259.6 301.6Z");
}
}
@keyframes zr0-ani-36 {
0% {
d:path("M263.3 321.3A72.5 72.5 0 0 1 254.5 322.4L254.5 322.4A72.5 72.5 0 0 0 263.3 321.3Z");
}
100% {
d:path("M267 340.9A92.5 92.5 0 0 1 255.7 342.3L254.5 322.4A72.5 72.5 0 0 0 263.3 321.3Z");
}
}
@keyframes zr0-ani-37 {
0% {
d:path("M254.5 322.4A72.5 72.5 0 0 1 245.5 322.4L245.5 322.4A72.5 72.5 0 0 0 254.5 322.4Z");
}
100% {
d:path("M255.7 342.3A92.5 92.5 0 0 1 244.3 342.3L245.5 322.4A72.5 72.5 0 0 0 254.5 322.4Z");
}
}
@keyframes zr0-ani-38 {
0% {
d:path("M245.5 322.4A72.5 72.5 0 0 1 236.7 321.3L236.7 321.3A72.5 72.5 0 0 0 245.5 322.4Z");
}
100% {
d:path("M244.3 342.3A92.5 92.5 0 0 1 233 340.9L236.7 321.3A72.5 72.5 0 0 0 245.5 322.4Z");
}
}
@keyframes zr0-ani-39 {
0% {
d:path("M240.4 301.6A52.5 52.5 0 0 1 228.1 297.7L228.1 297.7A52.5 52.5 0 0 0 240.4 301.6Z");
}
100% {
d:path("M236.7 321.3A72.5 72.5 0 0 1 219.7 315.9L228.1 297.7A52.5 52.5 0 0 0 240.4 301.6Z");
}
}
@keyframes zr0-ani-40 {
0% {
d:path("M236.7 321.3A72.5 72.5 0 0 1 228 319.1L228 319.1A72.5 72.5 0 0 0 236.7 321.3Z");
}
100% {
d:path("M233 340.9A92.5 92.5 0 0 1 222 338.1L228 319.1A72.5 72.5 0 0 0 236.7 321.3Z");
}
}
@keyframes zr0-ani-41 {
0% {
d:path("M228 319.1A72.5 72.5 0 0 1 219.7 315.9L219.7 315.9A72.5 72.5 0 0 0 228 319.1Z");
}
100% {
d:path("M222 338.1A92.5 92.5 0 0 1 211.3 334L219.7 315.9A72.5 72.5 0 0 0 228 319.1Z");
}
}
@keyframes zr0-ani-42 {
0% {
d:path("M228.1 297.7A52.5 52.5 0 0 1 222.4 294.6L222.4 294.6A52.5 52.5 0 0 0 228.1 297.7Z");
}
100% {
d:path("M219.7 315.9A72.5 72.5 0 0 1 211.8 311.6L222.4 294.6A52.5 52.5 0 0 0 228.1 297.7Z");
}
}
@keyframes zr0-ani-43 {
0% {
d:path("M219.7 315.9A72.5 72.5 0 0 1 211.8 311.6L211.8 311.6A72.5 72.5 0 0 0 219.7 315.9Z");
}
100% {
d:path("M211.3 334A92.5 92.5 0 0 1 201.3 328.6L211.8 311.6A72.5 72.5 0 0 0 219.7 315.9Z");
}
}
@keyframes zr0-ani-44 {
0% {
d:path("M222.4 294.6A52.5 52.5 0 0 1 217.1 290.9L217.1 290.9A52.5 52.5 0 0 0 222.4 294.6Z");
}
100% {
d:path("M211.8 311.6A72.5 72.5 0 0 1 204.5 306.5L217.1 290.9A52.5 52.5 0 0 0 222.4 294.6Z");
}
}
@keyframes zr0-ani-45 {
0% {
d:path("M211.8 311.6A72.5 72.5 0 0 1 204.5 306.5L204.5 306.5A72.5 72.5 0 0 0 211.8 311.6Z");
}
100% {
d:path("M201.3 328.6A92.5 92.5 0 0 1 192 322.1L204.5 306.5A72.5 72.5 0 0 0 211.8 311.6Z");
}
}
@keyframes zr0-ani-46 {
0% {
d:path("M229.6 275.3A32.5 32.5 0 0 1 217.9 255L217.9 255A32.5 32.5 0 0 0 229.6 275.3Z");
}
100% {
d:path("M217.1 290.9A52.5 52.5 0 0 1 198.1 258.1L217.9 255A32.5 32.5 0 0 0 229.6 275.3Z");
}
}
@keyframes zr0-ani-47 {
0% {
d:path("M217.1 290.9A52.5 52.5 0 0 1 204.5 276.3L204.5 276.3A52.5 52.5 0 0 0 217.1 290.9Z");
}
100% {
d:path("M204.5 306.5A72.5 72.5 0 0 1 187.2 286.3L204.5 276.3A52.5 52.5 0 0 0 217.1 290.9Z");
}
}
@keyframes zr0-ani-48 {
0% {
d:path("M204.5 306.5A72.5 72.5 0 0 1 187.2 286.3L187.2 286.3A72.5 72.5 0 0 0 204.5 306.5Z");
}
100% {
d:path("M192 322.1A92.5 92.5 0 0 1 169.9 296.3L187.2 286.3A72.5 72.5 0 0 0 204.5 306.5Z");
}
}
@keyframes zr0-ani-49 {
0% {
d:path("M192 322.1A92.5 92.5 0 0 1 183.6 314.4L183.6 314.4A92.5 92.5 0 0 0 192 322.1Z");
}
100% {
d:path("M179.5 337.6A112.5 112.5 0 0 1 169.2 328.3L183.6 314.4A92.5 92.5 0 0 0 192 322.1Z");
}
}
@keyframes zr0-ani-50 {
0% {
d:path("M179.5 337.6A112.5 112.5 0 0 1 169.2 328.3L169.2 328.3A112.5 112.5 0 0 0 179.5 337.6Z");
}
100% {
d:path("M166.9 353.2A132.5 132.5 0 0 1 154.9 342.2L169.2 328.3A112.5 112.5 0 0 0 179.5 337.6Z");
}
}
@keyframes zr0-ani-51 {
0% {
d:path("M166.9 353.2A132.5 132.5 0 0 1 154.9 342.2L154.9 342.2A132.5 132.5 0 0 0 166.9 353.2Z");
}
100% {
d:path("M154.4 368.8A152.5 152.5 0 0 1 140.5 356.2L154.9 342.2A132.5 132.5 0 0 0 166.9 353.2Z");
}
}
@keyframes zr0-ani-52 {
0% {
d:path("M154.4 368.8A152.5 152.5 0 0 1 140.5 356.2L140.5 356.2A152.5 152.5 0 0 0 154.4 368.8Z");
}
100% {
d:path("M141.9 384.4A172.5 172.5 0 0 1 126.2 370.1L140.5 356.2A152.5 152.5 0 0 0 154.4 368.8Z");
}
}
@keyframes zr0-ani-53 {
0% {
d:path("M141.9 384.4A172.5 172.5 0 0 1 126.2 370.1L126.2 370.1A172.5 172.5 0 0 0 141.9 384.4Z");
}
100% {
d:path("M129.3 400A192.5 192.5 0 0 1 111.8 384L126.2 370.1A172.5 172.5 0 0 0 141.9 384.4Z");
}
}
@keyframes zr0-ani-54 {
0% {
d:path("M129.3 400A192.5 192.5 0 0 1 111.8 384L111.8 384A192.5 192.5 0 0 0 129.3 400Z");
}
100% {
d:path("M116.8 415.6A212.5 212.5 0 0 1 97.4 397.9L111.8 384A192.5 192.5 0 0 0 129.3 400Z");
}
}
@keyframes zr0-ani-55 {
0% {
d:path("M183.6 314.4A92.5 92.5 0 0 1 176.2 305.7L176.2 305.7A92.5 92.5 0 0 0 183.6 314.4Z");
}
100% {
d:path("M169.2 328.3A112.5 112.5 0 0 1 160.2 317.8L176.2 305.7A92.5 92.5 0 0 0 183.6 314.4Z");
}
}
@keyframes zr0-ani-56 {
0% {
d:path("M169.2 328.3A112.5 112.5 0 0 1 160.2 317.8L160.2 317.8A112.5 112.5 0 0 0 169.2 328.3Z");
}
100% {
d:path("M154.9 342.2A132.5 132.5 0 0 1 144.3 329.8L160.2 317.8A112.5 112.5 0 0 0 169.2 328.3Z");
}
}
@keyframes zr0-ani-57 {
0% {
d:path("M176.2 305.7A92.5 92.5 0 0 1 169.9 296.2L169.9 296.3A92.5 92.5 0 0 0 176.2 305.7Z");
}
100% {
d:path("M160.2 317.8A112.5 112.5 0 0 1 152.6 306.2L169.9 296.3A92.5 92.5 0 0 0 176.2 305.7Z");
}
}
@keyframes zr0-ani-58 {
0% {
d:path("M160.2 317.8A112.5 112.5 0 0 1 152.6 306.2L152.6 306.3A112.5 112.5 0 0 0 160.2 317.8Z");
}
100% {
d:path("M144.3 329.8A132.5 132.5 0 0 1 135.3 316.2L152.6 306.3A112.5 112.5 0 0 0 160.2 317.8Z");
}
}
@keyframes zr0-ani-59 {
0% {
d:path("M204.5 276.3A52.5 52.5 0 0 1 198.1 258.1L198.1 258.1A52.5 52.5 0 0 0 204.5 276.3Z");
}
100% {
d:path("M187.2 286.3A72.5 72.5 0 0 1 178.4 261.1L198.1 258.1A52.5 52.5 0 0 0 204.5 276.3Z");
}
}
@keyframes zr0-ani-60 {
0% {
d:path("M187.2 286.3A72.5 72.5 0 0 1 178.4 261.1L178.4 261.1A72.5 72.5 0 0 0 187.2 286.3Z");
}
100% {
d:path("M169.9 296.3A92.5 92.5 0 0 1 158.6 264.2L178.4 261.1A72.5 72.5 0 0 0 187.2 286.3Z");
}
}
@keyframes zr0-ani-61 {
0% {
d:path("M169.9 296.3A92.5 92.5 0 0 1 161 275.3L161 275.3A92.5 92.5 0 0 0 169.9 296.2Z");
}
100% {
d:path("M152.6 306.3A112.5 112.5 0 0 1 141.8 280.8L161 275.3A92.5 92.5 0 0 0 169.9 296.2Z");
}
}
@keyframes zr0-ani-62 {
0% {
d:path("M152.6 306.3A112.5 112.5 0 0 1 146.4 293.9L146.4 293.9A112.5 112.5 0 0 0 152.6 306.2Z");
}
100% {
d:path("M135.3 316.3A132.5 132.5 0 0 1 128 301.6L146.4 293.9A112.5 112.5 0 0 0 152.6 306.2Z");
}
}
@keyframes zr0-ani-63 {
0% {
d:path("M146.4 293.9A112.5 112.5 0 0 1 141.8 280.8L141.8 280.8A112.5 112.5 0 0 0 146.4 293.9Z");
}
100% {
d:path("M128 301.6A132.5 132.5 0 0 1 122.6 286.3L141.8 280.8A112.5 112.5 0 0 0 146.4 293.9Z");
}
}
@keyframes zr0-ani-64 {
0% {
d:path("M161 275.3A92.5 92.5 0 0 1 158.6 264.2L158.6 264.2A92.5 92.5 0 0 0 161 275.3Z");
}
100% {
d:path("M141.8 280.8A112.5 112.5 0 0 1 138.8 267.3L158.6 264.2A92.5 92.5 0 0 0 161 275.3Z");
}
}
@keyframes zr0-ani-65 {
0% {
d:path("M141.8 280.8A112.5 112.5 0 0 1 138.8 267.3L138.8 267.3A112.5 112.5 0 0 0 141.8 280.8Z");
}
100% {
d:path("M122.6 286.3A132.5 132.5 0 0 1 119.1 270.3L138.8 267.3A112.5 112.5 0 0 0 141.8 280.8Z");
}
}
@keyframes zr0-ani-66 {
0% {
d:path("M237.6 251.9A12.5 12.5 0 0 1 250 237.5L250 237.5A12.5 12.5 0 0 0 237.6 251.9Z");
}
100% {
d:path("M217.9 255A32.5 32.5 0 0 1 250 217.5L250 237.5A12.5 12.5 0 0 0 237.6 251.9Z");
}
}
@keyframes zr0-ani-67 {
0% {
d:path("M217.9 255A32.5 32.5 0 0 1 242.1 218.5L242.1 218.5A32.5 32.5 0 0 0 217.9 255Z");
}
100% {
d:path("M198.1 258.1A52.5 52.5 0 0 1 237.2 199.1L242.1 218.5A32.5 32.5 0 0 0 217.9 255Z");
}
}
@keyframes zr0-ani-68 {
0% {
d:path("M242.1 218.5A32.5 32.5 0 0 1 246 217.7L246 217.7A32.5 32.5 0 0 0 242.1 218.5Z");
}
100% {
d:path("M237.2 199.1A52.5 52.5 0 0 1 243.5 197.9L246 217.7A32.5 32.5 0 0 0 242.1 218.5Z");
}
}
@keyframes zr0-ani-69 {
0% {
d:path("M246 217.7A32.5 32.5 0 0 1 250 217.5L250 217.5A32.5 32.5 0 0 0 246 217.7Z");
}
100% {
d:path("M243.5 197.9A52.5 52.5 0 0 1 250 197.5L250 217.5A32.5 32.5 0 0 0 246 217.7Z");
}
}
]]>

</style>
</svg>