<svg width="500" height="500" xmlns="http://www.w3.org/2000/svg" xmlns:xlink="http://www.w3.org/1999/xlink" version="1.1" baseProfile="full" viewBox="0 0 500 500">
<rect width="500" height="500" x="0" y="0" id="0" fill="none"></rect>
<path d="M250 223.2A26.8 26.8 0 1 1 241.7 275.5L246.1 261.9A12.5 12.5 0 1 0 250 237.5Z" fill="#000" stroke="white" stroke-linejoin="bevel" class="zr144-cls-0"></path>
<path d="M250 208.9A41.1 41.1 0 1 1 237.3 289.1L241.7 275.5A26.8 26.8 0 1 0 250 223.2Z" fill="#4949CD" fill-opacity="0.5" stroke="#fff" stroke-width="4" stroke-opacity="0.5" stroke-linejoin="bevel" class="zr144-cls-1"></path>
<path d="M250 194.6A55.4 55.4 0 1 1 250 305.4L250 291.1A41.1 41.1 0 0 0 250 208.9Z" fill="#000" stroke="white" stroke-linejoin="bevel" class="zr144-cls-2"></path>
<path d="M250 180.4A69.6 69.6 0 1 1 250 319.6L250 305.4A55.4 55.4 0 0 0 250 194.6Z" fill="#000" stroke="white" stroke-linejoin="bevel" class="zr144-cls-3"></path>
<path d="M250 166.1A83.9 83.9 0 1 1 250 333.9L250 319.6A69.6 69.6 0 0 0 250 180.4Z" fill="#4949CD" fill-opacity="0.5" stroke="#fff" stroke-width="4" stroke-opacity="0.5" stroke-linejoin="bevel" class="zr144-cls-4"></path>
<path d="M250 151.8A98.2 98.2 0 0 1 329.5 307.7L317.9 299.3A83.9 83.9 0 0 0 250 166.1Z" fill="#0AA40D" stroke="white" stroke-linejoin="bevel" class="zr144-cls-5"></path>
<path d="M250 137.5A112.5 112.5 0 0 1 341 316.1L329.5 307.7A98.2 98.2 0 0 0 250 151.8Z" fill="#000" stroke="white" stroke-linejoin="bevel" class="zr144-cls-6"></path>
<path d="M250 123.2A126.8 126.8 0 0 1 375.2 269.8L361.1 267.6A112.5 112.5 0 0 0 250 137.5Z" fill="#4949CD" fill-opacity="0.5" stroke="#fff" stroke-width="4" stroke-opacity="0.5" stroke-linejoin="bevel" class="zr144-cls-7"></path>
<path d="M250 108.9A141.1 141.1 0 0 1 389.3 272.1L375.2 269.8A126.8 126.8 0 0 0 250 123.2Z" fill="#000" stroke="white" stroke-linejoin="bevel" class="zr144-cls-8"></path>
<path d="M250 94.6A155.4 155.4 0 0 1 320.5 111.6L314 124.3A141.1 141.1 0 0 0 250 108.9Z" fill="#000" stroke="white" stroke-linejoin="bevel" class="zr144-cls-9"></path>
<path d="M250 80.4A169.6 169.6 0 0 1 327 98.8L320.5 111.6A155.4 155.4 0 0 0 250 94.6Z" fill="#A0522D" stroke="white" stroke-linejoin="bevel" class="zr144-cls-10"></path>
<path d="M250 66.1A183.9 183.9 0 0 1 278.8 68.3L276.5 82.4A169.6 169.6 0 0 0 250 80.4Z" fill="#A0522D" stroke="white" stroke-linejoin="bevel" class="zr144-cls-11"></path>
<path d="M278.8 68.3A183.9 183.9 0 0 1 306.8 75.1L302.4 88.7A169.6 169.6 0 0 0 276.5 82.4Z" fill="#A0522D" stroke="white" stroke-linejoin="bevel" class="zr144-cls-12"></path>
<path d="M306.8 75.1A183.9 183.9 0 0 1 333.5 86.1L327 98.8A169.6 169.6 0 0 0 302.4 88.7Z" fill="#A0522D" stroke="white" stroke-linejoin="bevel" class="zr144-cls-13"></path>
<path d="M320.5 111.6A155.4 155.4 0 0 1 359.9 140.1L349.8 150.2A141.1 141.1 0 0 0 314 124.3Z" fill="#000" stroke="white" stroke-linejoin="bevel" class="zr144-cls-14"></path>
<path d="M327 98.8A169.6 169.6 0 0 1 370 130L359.9 140.1A155.4 155.4 0 0 0 320.5 111.6Z" fill="#C8C8C8" stroke="white" stroke-linejoin="bevel" class="zr144-cls-15"></path>
<path d="M359.9 140.1A155.4 155.4 0 0 1 388.4 179.5L375.7 186A141.1 141.1 0 0 0 349.8 150.2Z" fill="#000" stroke="white" stroke-linejoin="bevel" class="zr144-cls-16"></path>
<path d="M370 130A169.6 169.6 0 0 1 387.2 150.3L375.7 158.7A155.4 155.4 0 0 0 359.9 140.1Z" fill="#C8C8C8" stroke="white" stroke-linejoin="bevel" class="zr144-cls-17"></path>
<path d="M387.2 150.3A169.6 169.6 0 0 1 401.2 173L388.4 179.5A155.4 155.4 0 0 0 375.7 158.7Z" fill="#A0522D" stroke="white" stroke-linejoin="bevel" class="zr144-cls-18"></path>
<path d="M398.8 141.9A183.9 183.9 0 0 1 413.9 166.5L401.2 173A169.6 169.6 0 0 0 387.2 150.3Z" fill="#A0522D" stroke="white" stroke-linejoin="bevel" class="zr144-cls-19"></path>
<path d="M388.4 179.5A155.4 155.4 0 0 1 397.8 202L384.2 206.4A141.1 141.1 0 0 0 375.7 186Z" fill="#000" stroke="white" stroke-linejoin="bevel" class="zr144-cls-20"></path>
<path d="M401.2 173A169.6 169.6 0 0 1 411.3 197.6L397.8 202A155.4 155.4 0 0 0 388.4 179.5Z" fill="#A0522D" stroke="white" stroke-linejoin="bevel" class="zr144-cls-21"></path>
<path d="M413.9 166.5A183.9 183.9 0 0 1 424.9 193.2L411.3 197.6A169.6 169.6 0 0 0 401.2 173Z" fill="#A0522D" stroke="white" stroke-linejoin="bevel" class="zr144-cls-22"></path>
<path d="M397.8 202A155.4 155.4 0 0 1 403.4 225.7L389.3 227.9A141.1 141.1 0 0 0 384.2 206.4Z" fill="#000" stroke="white" stroke-linejoin="bevel" class="zr144-cls-23"></path>
<path d="M411.3 197.6A169.6 169.6 0 0 1 417.6 223.5L403.4 225.7A155.4 155.4 0 0 0 397.8 202Z" fill="#C8C8C8" stroke="white" stroke-linejoin="bevel" class="zr144-cls-24"></path>
<path d="M403.4 225.7A155.4 155.4 0 0 1 405.4 250L391.1 250A141.1 141.1 0 0 0 389.3 227.9Z" fill="#000" stroke="white" stroke-linejoin="bevel" class="zr144-cls-25"></path>
<path d="M417.6 223.5A169.6 169.6 0 0 1 419.6 250L405.4 250A155.4 155.4 0 0 0 403.4 225.7Z" fill="#C8C8C8" stroke="white" stroke-linejoin="bevel" class="zr144-cls-26"></path>
<path d="M405.4 250A155.4 155.4 0 0 1 403.4 274.3L389.3 272.1A141.1 141.1 0 0 0 391.1 250Z" fill="#000" stroke="white" stroke-linejoin="bevel" class="zr144-cls-27"></path>
<path d="M419.6 250A169.6 169.6 0 0 1 417.6 276.5L403.4 274.3A155.4 155.4 0 0 0 405.4 250Z" fill="#C8C8C8" stroke="white" stroke-linejoin="bevel" class="zr144-cls-28"></path>
<path d="M375.2 269.8A126.8 126.8 0 0 1 363 307.6L350.2 301.1A112.5 112.5 0 0 0 361.1 267.6Z" fill="#49ff49" fill-opacity="0.5" stroke="#fff" stroke-width="4" stroke-opacity="0.5" stroke-linejoin="bevel" class="zr144-cls-29"></path>
<path d="M389.3 272.1A141.1 141.1 0 0 1 375.7 314L363 307.6A126.8 126.8 0 0 0 375.2 269.8Z" fill="#000" stroke="white" stroke-linejoin="bevel" class="zr144-cls-30"></path>
<path d="M403.4 274.3A155.4 155.4 0 0 1 397.8 298L384.2 293.6A141.1 141.1 0 0 0 389.3 272.1Z" fill="#000" stroke="white" stroke-linejoin="bevel" class="zr144-cls-31"></path>
<path d="M397.8 298A155.4 155.4 0 0 1 388.4 320.5L375.7 314A141.1 141.1 0 0 0 384.2 293.6Z" fill="#000" stroke="white" stroke-linejoin="bevel" class="zr144-cls-32"></path>
<path d="M363 307.6A126.8 126.8 0 0 1 352.6 324.5L341 316.1A112.5 112.5 0 0 0 350.2 301.1Z" fill="#ff4949" fill-opacity="0.5" stroke="#fff" stroke-width="4" stroke-opacity="0.5" stroke-linejoin="bevel" class="zr144-cls-33"></path>
<path d="M375.7 314A141.1 141.1 0 0 1 364.1 332.9L352.6 324.5A126.8 126.8 0 0 0 363 307.6Z" fill="#000" stroke="white" stroke-linejoin="bevel" class="zr144-cls-34"></path>
<path d="M388.4 320.5A155.4 155.4 0 0 1 375.7 341.3L364.1 332.9A141.1 141.1 0 0 0 375.7 314Z" fill="#000" stroke="white" stroke-linejoin="bevel" class="zr144-cls-35"></path>
<path d="M329.5 307.7A98.2 98.2 0 0 1 250 348.2L250 333.9A83.9 83.9 0 0 0 317.9 299.3Z" fill="#F3C142" stroke="white" stroke-linejoin="bevel" class="zr144-cls-36"></path>
<path d="M341 316.1A112.5 112.5 0 0 1 301.1 350.2L294.6 337.5A98.2 98.2 0 0 0 329.5 307.7Z" fill="#000" stroke="white" stroke-linejoin="bevel" class="zr144-cls-37"></path>
<path d="M352.6 324.5A126.8 126.8 0 0 1 307.6 363L301.1 350.2A112.5 112.5 0 0 0 341 316.1Z" fill="#000" stroke="white" stroke-linejoin="bevel" class="zr144-cls-38"></path>
<path d="M364.1 332.9A141.1 141.1 0 0 1 314 375.7L307.6 363A126.8 126.8 0 0 0 352.6 324.5Z" fill="#4949CD" fill-opacity="0.5" stroke="#fff" stroke-width="4" stroke-opacity="0.5" stroke-linejoin="bevel" class="zr144-cls-39"></path>
<path d="M375.7 341.3A155.4 155.4 0 0 1 320.5 388.4L314 375.7A141.1 141.1 0 0 0 364.1 332.9Z" fill="#000" stroke="white" stroke-linejoin="bevel" class="zr144-cls-40"></path>
<path d="M387.2 349.7A169.6 169.6 0 0 1 327 401.2L320.5 388.4A155.4 155.4 0 0 0 375.7 341.3Z" fill="#A0522D" stroke="white" stroke-linejoin="bevel" class="zr144-cls-41"></path>
<path d="M398.8 358.1A183.9 183.9 0 0 1 380.1 380.1L370 370A169.6 169.6 0 0 0 387.2 349.7Z" fill="#A0522D" stroke="white" stroke-linejoin="bevel" class="zr144-cls-42"></path>
<path d="M380.1 380.1A183.9 183.9 0 0 1 358.1 398.8L349.7 387.2A169.6 169.6 0 0 0 370 370Z" fill="#A0522D" stroke="white" stroke-linejoin="bevel" class="zr144-cls-43"></path>
<path d="M358.1 398.8A183.9 183.9 0 0 1 333.5 413.9L327 401.2A169.6 169.6 0 0 0 349.7 387.2Z" fill="#A0522D" stroke="white" stroke-linejoin="bevel" class="zr144-cls-44"></path>
<path d="M301.1 350.2A112.5 112.5 0 0 1 250 362.5L250 348.2A98.2 98.2 0 0 0 294.6 337.5Z" fill="#000" stroke="white" stroke-linejoin="bevel" class="zr144-cls-45"></path>
<path d="M307.6 363A126.8 126.8 0 0 1 250 376.8L250 362.5A112.5 112.5 0 0 0 301.1 350.2Z" fill="#4949CD" fill-opacity="0.5" stroke="#fff" stroke-width="4" stroke-opacity="0.5" stroke-linejoin="bevel" class="zr144-cls-46"></path>
<path d="M314 375.7A141.1 141.1 0 0 1 250 391.1L250 376.8A126.8 126.8 0 0 0 307.6 363Z" fill="#000" stroke="white" stroke-linejoin="bevel" class="zr144-cls-47"></path>
<path d="M320.5 388.4A155.4 155.4 0 0 1 250 405.4L250 391.1A141.1 141.1 0 0 0 314 375.7Z" fill="#000" stroke="white" stroke-linejoin="bevel" class="zr144-cls-48"></path>
<path d="M327 401.2A169.6 169.6 0 0 1 250 419.6L250 405.4A155.4 155.4 0 0 0 320.5 388.4Z" fill="#4949CD" fill-opacity="0.5" stroke="#fff" stroke-width="4" stroke-opacity="0.5" stroke-linejoin="bevel" class="zr144-cls-49"></path>
<path d="M333.5 413.9A183.9 183.9 0 0 1 250 433.9L250 419.6A169.6 169.6 0 0 0 327 401.2Z" fill="#000" stroke="white" stroke-linejoin="bevel" class="zr144-cls-50"></path>
<path d="M340 426.6A198.2 198.2 0 0 1 250 448.2L250 433.9A183.9 183.9 0 0 0 333.5 413.9Z" fill="#A0522D" stroke="white" stroke-linejoin="bevel" class="zr144-cls-51"></path>
<path d="M346.5 439.3A212.5 212.5 0 0 1 315.7 452.1L311.3 438.5A198.2 198.2 0 0 0 340 426.6Z" fill="#A0522D" stroke="white" stroke-linejoin="bevel" class="zr144-cls-52"></path>
<path d="M315.7 452.1A212.5 212.5 0 0 1 283.2 459.9L281 445.8A198.2 198.2 0 0 0 311.3 438.5Z" fill="#A0522D" stroke="white" stroke-linejoin="bevel" class="zr144-cls-53"></path>
<path d="M283.2 459.9A212.5 212.5 0 0 1 250 462.5L250 448.2A198.2 198.2 0 0 0 281 445.8Z" fill="#A0522D" stroke="white" stroke-linejoin="bevel" class="zr144-cls-54"></path>
<path d="M250 305.4A55.4 55.4 0 0 1 232.9 302.6L237.3 289.1A41.1 41.1 0 0 0 250 291.1Z" fill="#000" stroke="white" stroke-linejoin="bevel" class="zr144-cls-55"></path>
<path d="M250 319.6A69.6 69.6 0 0 1 228.5 316.2L232.9 302.6A55.4 55.4 0 0 0 250 305.4Z" fill="#000" stroke="white" stroke-linejoin="bevel" class="zr144-cls-56"></path>
<path d="M250 333.9A83.9 83.9 0 0 1 224.1 329.8L228.5 316.2A69.6 69.6 0 0 0 250 319.6Z" fill="#4949CD" fill-opacity="0.5" stroke="#fff" stroke-width="4" stroke-opacity="0.5" stroke-linejoin="bevel" class="zr144-cls-57"></path>
<path d="M250 348.2A98.2 98.2 0 0 1 219.7 343.4L224.1 329.8A83.9 83.9 0 0 0 250 333.9Z" fill="#F3C142" stroke="white" stroke-linejoin="bevel" class="zr144-cls-58"></path>
<path d="M250 362.5A112.5 112.5 0 0 1 232.4 361.1L234.6 347A98.2 98.2 0 0 0 250 348.2Z" fill="#C8C8C8" stroke="white" stroke-linejoin="bevel" class="zr144-cls-59"></path>
<path d="M232.4 361.1A112.5 112.5 0 0 1 215.2 357L219.7 343.4A98.2 98.2 0 0 0 234.6 347Z" fill="#C8C8C8" stroke="white" stroke-linejoin="bevel" class="zr144-cls-60"></path>
<path d="M241.7 275.5A26.8 26.8 0 0 1 250 223.2L250 237.5A12.5 12.5 0 0 0 246.1 261.9Z" fill="#C8C8C8" stroke="white" stroke-linejoin="bevel" class="zr144-cls-61"></path>
<path d="M237.3 289.1A41.1 41.1 0 0 1 221 221L231.1 231.1A26.8 26.8 0 0 0 241.7 275.5Z" fill="#C8C8C8" stroke="white" stroke-linejoin="bevel" class="zr144-cls-62"></path>
<path d="M221 221A41.1 41.1 0 0 1 243.6 209.4L245.8 223.5A26.8 26.8 0 0 0 231.1 231.1Z" fill="#C8C8C8" stroke="white" stroke-linejoin="bevel" class="zr144-cls-63"></path>
<path d="M243.6 209.4A41.1 41.1 0 0 1 250 208.9L250 223.2A26.8 26.8 0 0 0 245.8 223.5Z" fill="#C8C8C8" stroke="white" stroke-linejoin="bevel" class="zr144-cls-64"></path>
<text dominant-baseline="central" text-anchor="middle" style="font-size:12px;font-family:sans-serif;" transform="matrix(0.156,-0.988,0.988,0.156,269.401,253.0728)" fill="#ccc" stroke="#000" stroke-width="2" paint-order="stroke" stroke-miterlimit="2">paths</text>
<text dominant-baseline="central" text-anchor="middle" style="font-size:12px;font-family:sans-serif;" transform="matrix(0,-1,1,0,298.2143,250)" fill="#ccc" stroke="#000" stroke-width="2" paint-order="stroke" stroke-miterlimit="2">/pins</text>
<text dominant-baseline="central" text-anchor="middle" style="font-size:9px;font-family:sans-serif;" transform="matrix(0,-1,1,0,312.5,250)" fill="#ccc" stroke="#000" stroke-width="2" paint-order="stroke" stroke-miterlimit="2">operations</text>
<text dominant-baseline="central" text-anchor="middle" style="font-size:12px;font-family:sans-serif;" transform="matrix(0.454,0.891,-0.891,0.454,331.1452,208.6544)" fill="#eee" stroke="#0AA40D" stroke-width="2" paint-order="stroke" stroke-miterlimit="2">GET</text>
<text dominant-baseline="central" text-anchor="middle" style="font-size:9px;font-family:sans-serif;" transform="matrix(0.454,0.891,-0.891,0.454,343.8739,202.1689)" fill="#ccc" stroke="#000" stroke-width="2" paint-order="stroke" stroke-miterlimit="2">params</text>
<text dominant-baseline="central" text-anchor="middle" style="font-size:12px;font-family:sans-serif;" transform="matrix(0.649,0.76,-0.76,0.649,351.8401,163.0204)" fill="#ccc" stroke="#000" stroke-width="2" paint-order="stroke" stroke-miterlimit="2">query</text>
<text dominant-baseline="central" text-anchor="middle" style="font-size:12px;font-family:sans-serif;" transform="matrix(0.972,0.233,-0.233,0.972,284.5999,105.8809)" fill="#ccc" stroke="#000" stroke-width="2" paint-order="stroke" stroke-miterlimit="2">limit</text>
<text dominant-baseline="central" text-anchor="middle" style="font-size:12px;font-family:sans-serif;" transform="matrix(0.972,0.233,-0.233,0.972,287.9349,91.9899)" fill="#eee" stroke="#A0522D" stroke-width="2" paint-order="stroke" stroke-miterlimit="2">schema</text>
<text dominant-baseline="central" text-anchor="middle" style="font-size:12px;font-family:sans-serif;" transform="matrix(0.809,0.588,-0.588,0.809,337.1182,130.0921)" fill="#ccc" stroke="#000" stroke-width="2" paint-order="stroke" stroke-miterlimit="2">name</text>
<text dominant-baseline="central" text-anchor="middle" style="font-size:9px;font-family:sans-serif;" transform="matrix(0.809,0.588,-0.588,0.809,345.5151,118.5347)" fill="#333">description</text>
<text dominant-baseline="central" text-anchor="middle" style="font-size:12px;font-family:sans-serif;" transform="matrix(0.309,-0.951,0.951,0.309,377.3736,291.3862)" fill="#ccc" stroke="#000" stroke-width="2" paint-order="stroke" stroke-miterlimit="2">query</text>
<text dominant-baseline="central" text-anchor="middle" style="font-size:12px;font-family:sans-serif;" transform="matrix(0.891,-0.454,0.454,0.891,291.3456,331.1452)" fill="#333">POST</text>
<text dominant-baseline="central" text-anchor="middle" style="font-size:9px;font-family:sans-serif;" transform="matrix(0.76,-0.649,0.649,0.76,318.424,330.1142)" fill="#ccc" stroke="#000" stroke-width="2" paint-order="stroke" stroke-miterlimit="2">requestBody</text>
<text dominant-baseline="central" text-anchor="middle" style="font-size:10px;font-family:sans-serif;" transform="matrix(0.76,-0.649,0.649,0.76,327.7018,340.9771)" fill="#ccc" stroke="#000" stroke-width="2" paint-order="stroke" stroke-miterlimit="2">content</text>
<text dominant-baseline="central" text-anchor="middle" style="font-size:12px;font-family:sans-serif;" transform="matrix(0.76,-0.649,0.649,0.76,355.5353,373.566)" fill="#eee" stroke="#A0522D" stroke-width="2" paint-order="stroke" stroke-miterlimit="2">schema</text>
<text dominant-baseline="central" text-anchor="middle" style="font-size:12px;font-family:sans-serif;" transform="matrix(0.972,-0.233,0.233,0.972,281.265,380.2281)" fill="#ccc" stroke="#000" stroke-width="2" paint-order="stroke" stroke-miterlimit="2">202</text>
<text dominant-baseline="central" text-anchor="middle" style="font-size:10px;font-family:sans-serif;" transform="matrix(0.972,-0.233,0.233,0.972,284.5999,394.1191)" fill="#ccc" stroke="#000" stroke-width="2" paint-order="stroke" stroke-miterlimit="2">content</text>
<text dominant-baseline="central" text-anchor="middle" style="font-size:12px;font-family:sans-serif;" transform="matrix(0.972,-0.233,0.233,0.972,294.6047,435.7921)" fill="#eee" stroke="#A0522D" stroke-width="2" paint-order="stroke" stroke-miterlimit="2">schema</text>
<text dominant-baseline="central" text-anchor="middle" style="font-size:9px;font-family:sans-serif;" transform="matrix(0.988,0.156,-0.156,0.988,242.4576,297.6207)" fill="#ccc" stroke="#000" stroke-width="2" paint-order="stroke" stroke-miterlimit="2">/pins/{id}</text>
<text dominant-baseline="central" text-anchor="middle" style="font-size:9px;font-family:sans-serif;" transform="matrix(0.988,0.156,-0.156,0.988,240.2228,311.7305)" fill="#ccc" stroke="#000" stroke-width="2" paint-order="stroke" stroke-miterlimit="2">operations</text>
<text dominant-baseline="central" text-anchor="middle" style="font-size:12px;font-family:sans-serif;" transform="matrix(0.988,0.156,-0.156,0.988,235.7533,339.9502)" fill="#333">POST</text>
<text dominant-baseline="central" text-anchor="middle" style="font-size:9px;font-family:sans-serif;" transform="matrix(0.233,0.972,-0.972,0.233,217.0089,257.9205)" fill="#333">description</text>
<text dominant-baseline="central" text-anchor="middle" style="font-size:10px;font-family:sans-serif;" transform="matrix(0.891,-0.454,0.454,0.891,234.5968,219.7694)" fill="#333">version</text>
<path d="M-14.8 -16l66.6 0l0 32l-66.6 0Z" transform="translate(448.253 16)" fill="none" stroke="#ccc" stroke-width="0"></path>
<path d="M-7.3 -1.8L-0.1 4.8L7.3 -1.6M-7.3 4.3L-7.3 8.5L7.1 8.5L7.1 4.3M-0.1 4.7L-0.1 -8.5" transform="translate(448.253 16)" fill="none" stroke="#666"></path>
<path d="M-7.9 1M5.1 -3.4L8.1 -3.4L8.1 -6.4M8 -3C6.7 -6.4 3.2 -8.9 -1 -8.4C-5.3 -8 -8.6 -4.2 -8.4 0.2M-5.1 3.4L-8.1 3.4L-8.1 6.4M-8 3C-6.7 6.4 -3.2 8.9 1 8.4C5.3 8 8.6 4.2 8.4 -0.2" transform="translate(484.0476 16)" fill="none" stroke="#666"></path>
<style ><![CDATA[
.zr144-cls-0 {
animation:zr144-ani-0 1s cubic-bezier(0.65,0,0.35,1) both;
}
.zr144-cls-1 {
animation:zr144-ani-1 1s cubic-bezier(0.65,0,0.35,1) both;
}
.zr144-cls-2 {
animation:zr144-ani-2 1s cubic-bezier(0.65,0,0.35,1) both;
}
.zr144-cls-3 {
animation:zr144-ani-3 1s cubic-bezier(0.65,0,0.35,1) both;
}
.zr144-cls-4 {
animation:zr144-ani-4 1s cubic-bezier(0.65,0,0.35,1) both;
}
.zr144-cls-5 {
animation:zr144-ani-5 1s cubic-bezier(0.65,0,0.35,1) both;
}
.zr144-cls-6 {
animation:zr144-ani-6 1s cubic-bezier(0.65,0,0.35,1) both;
}
.zr144-cls-7 {
animation:zr144-ani-7 1s cubic-bezier(0.65,0,0.35,1) both;
}
.zr144-cls-8 {
animation:zr144-ani-8 1s cubic-bezier(0.65,0,0.35,1) both;
}
.zr144-cls-9 {
animation:zr144-ani-9 1s cubic-bezier(0.65,0,0.35,1) both;
}
.zr144-cls-10 {
animation:zr144-ani-10 1s cubic-bezier(0.65,0,0.35,1) both;
}
.zr144-cls-11 {
animation:zr144-ani-11 1s cubic-bezier(0.65,0,0.35,1) both;
}
.zr144-cls-12 {
animation:zr144-ani-12 1s cubic-bezier(0.65,0,0.35,1) both;
}
.zr144-cls-13 {
animation:zr144-ani-13 1s cubic-bezier(0.65,0,0.35,1) both;
}
.zr144-cls-14 {
animation:zr144-ani-14 1s cubic-bezier(0.65,0,0.35,1) both;
}
.zr144-cls-15 {
animation:zr144-ani-15 1s cubic-bezier(0.65,0,0.35,1) both;
}
.zr144-cls-16 {
animation:zr144-ani-16 1s cubic-bezier(0.65,0,0.35,1) both;
}
.zr144-cls-17 {
animation:zr144-ani-17 1s cubic-bezier(0.65,0,0.35,1) both;
}
.zr144-cls-18 {
animation:zr144-ani-18 1s cubic-bezier(0.65,0,0.35,1) both;
}
.zr144-cls-19 {
animation:zr144-ani-19 1s cubic-bezier(0.65,0,0.35,1) both;
}
.zr144-cls-20 {
animation:zr144-ani-20 1s cubic-bezier(0.65,0,0.35,1) both;
}
.zr144-cls-21 {
animation:zr144-ani-21 1s cubic-bezier(0.65,0,0.35,1) both;
}
.zr144-cls-22 {
animation:zr144-ani-22 1s cubic-bezier(0.65,0,0.35,1) both;
}
.zr144-cls-23 {
animation:zr144-ani-23 1s cubic-bezier(0.65,0,0.35,1) both;
}
.zr144-cls-24 {
animation:zr144-ani-24 1s cubic-bezier(0.65,0,0.35,1) both;
}
.zr144-cls-25 {
animation:zr144-ani-25 1s cubic-bezier(0.65,0,0.35,1) both;
}
.zr144-cls-26 {
animation:zr144-ani-26 1s cubic-bezier(0.65,0,0.35,1) both;
}
.zr144-cls-27 {
animation:zr144-ani-27 1s cubic-bezier(0.65,0,0.35,1) both;
}
.zr144-cls-28 {
animation:zr144-ani-28 1s cubic-bezier(0.65,0,0.35,1) both;
}
.zr144-cls-29 {
animation:zr144-ani-29 1s cubic-bezier(0.65,0,0.35,1) both;
}
.zr144-cls-30 {
animation:zr144-ani-30 1s cubic-bezier(0.65,0,0.35,1) both;
}
.zr144-cls-31 {
animation:zr144-ani-31 1s cubic-bezier(0.65,0,0.35,1) both;
}
.zr144-cls-32 {
animation:zr144-ani-32 1s cubic-bezier(0.65,0,0.35,1) both;
}
.zr144-cls-33 {
animation:zr144-ani-33 1s cubic-bezier(0.65,0,0.35,1) both;
}
.zr144-cls-34 {
animation:zr144-ani-34 1s cubic-bezier(0.65,0,0.35,1) both;
}
.zr144-cls-35 {
animation:zr144-ani-35 1s cubic-bezier(0.65,0,0.35,1) both;
}
.zr144-cls-36 {
animation:zr144-ani-36 1s cubic-bezier(0.65,0,0.35,1) both;
}
.zr144-cls-37 {
animation:zr144-ani-37 1s cubic-bezier(0.65,0,0.35,1) both;
}
.zr144-cls-38 {
animation:zr144-ani-38 1s cubic-bezier(0.65,0,0.35,1) both;
}
.zr144-cls-39 {
animation:zr144-ani-39 1s cubic-bezier(0.65,0,0.35,1) both;
}
.zr144-cls-40 {
animation:zr144-ani-40 1s cubic-bezier(0.65,0,0.35,1) both;
}
.zr144-cls-41 {
animation:zr144-ani-41 1s cubic-bezier(0.65,0,0.35,1) both;
}
.zr144-cls-42 {
animation:zr144-ani-42 1s cubic-bezier(0.65,0,0.35,1) both;
}
.zr144-cls-43 {
animation:zr144-ani-43 1s cubic-bezier(0.65,0,0.35,1) both;
}
.zr144-cls-44 {
animation:zr144-ani-44 1s cubic-bezier(0.65,0,0.35,1) both;
}
.zr144-cls-45 {
animation:zr144-ani-45 1s cubic-bezier(0.65,0,0.35,1) both;
}
.zr144-cls-46 {
animation:zr144-ani-46 1s cubic-bezier(0.65,0,0.35,1) both;
}
.zr144-cls-47 {
animation:zr144-ani-47 1s cubic-bezier(0.65,0,0.35,1) both;
}
.zr144-cls-48 {
animation:zr144-ani-48 1s cubic-bezier(0.65,0,0.35,1) both;
}
.zr144-cls-49 {
animation:zr144-ani-49 1s cubic-bezier(0.65,0,0.35,1) both;
}
.zr144-cls-50 {
animation:zr144-ani-50 1s cubic-bezier(0.65,0,0.35,1) both;
}
.zr144-cls-51 {
animation:zr144-ani-51 1s cubic-bezier(0.65,0,0.35,1) both;
}
.zr144-cls-52 {
animation:zr144-ani-52 1s cubic-bezier(0.65,0,0.35,1) both;
}
.zr144-cls-53 {
animation:zr144-ani-53 1s cubic-bezier(0.65,0,0.35,1) both;
}
.zr144-cls-54 {
animation:zr144-ani-54 1s cubic-bezier(0.65,0,0.35,1) both;
}
.zr144-cls-55 {
animation:zr144-ani-55 1s cubic-bezier(0.65,0,0.35,1) both;
}
.zr144-cls-56 {
animation:zr144-ani-56 1s cubic-bezier(0.65,0,0.35,1) both;
}
.zr144-cls-57 {
animation:zr144-ani-57 1s cubic-bezier(0.65,0,0.35,1) both;
}
.zr144-cls-58 {
animation:zr144-ani-58 1s cubic-bezier(0.65,0,0.35,1) both;
}
.zr144-cls-59 {
animation:zr144-ani-59 1s cubic-bezier(0.65,0,0.35,1) both;
}
.zr144-cls-60 {
animation:zr144-ani-60 1s cubic-bezier(0.65,0,0.35,1) both;
}
.zr144-cls-61 {
animation:zr144-ani-61 1s cubic-bezier(0.65,0,0.35,1) both;
}
.zr144-cls-62 {
animation:zr144-ani-62 1s cubic-bezier(0.65,0,0.35,1) both;
}
.zr144-cls-63 {
animation:zr144-ani-63 1s cubic-bezier(0.65,0,0.35,1) both;
}
.zr144-cls-64 {
animation:zr144-ani-64 1s cubic-bezier(0.65,0,0.35,1) both;
}
@keyframes zr144-ani-0 {
0% {
d:path("M250 237.5A12.5 12.5 0 1 1 246.1 261.9A12.5 12.5 0 1 0 250 237.5Z");
}
100% {
d:path("M250 223.2A26.8 26.8 0 1 1 241.7 275.5L246.1 261.9A12.5 12.5 0 1 0 250 237.5Z");
}
}
@keyframes zr144-ani-1 {
0% {
d:path("M250 223.2A26.8 26.8 0 1 1 241.7 275.5A26.8 26.8 0 1 0 250 223.2Z");
}
100% {
d:path("M250 208.9A41.1 41.1 0 1 1 237.3 289.1L241.7 275.5A26.8 26.8 0 1 0 250 223.2Z");
}
}
@keyframes zr144-ani-2 {
0% {
d:path("M250 208.9A41.1 41.1 0 1 1 250 291.1A41.1 41.1 0 0 0 250 208.9Z");
}
100% {
d:path("M250 194.6A55.4 55.4 0 1 1 250 305.4L250 291.1A41.1 41.1 0 0 0 250 208.9Z");
}
}
@keyframes zr144-ani-3 {
0% {
d:path("M250 194.6A55.4 55.4 0 1 1 250 305.4L250 305.4A55.4 55.4 0 0 0 250 194.6Z");
}
100% {
d:path("M250 180.4A69.6 69.6 0 1 1 250 319.6L250 305.4A55.4 55.4 0 0 0 250 194.6Z");
}
}
@keyframes zr144-ani-4 {
0% {
d:path("M250 180.4A69.6 69.6 0 1 1 250 319.6L250 319.6A69.6 69.6 0 0 0 250 180.4Z");
}
100% {
d:path("M250 166.1A83.9 83.9 0 1 1 250 333.9L250 319.6A69.6 69.6 0 0 0 250 180.4Z");
}
}
@keyframes zr144-ani-5 {
0% {
d:path("M250 166.1A83.9 83.9 0 0 1 317.9 299.3A83.9 83.9 0 0 0 250 166.1Z");
}
100% {
d:path("M250 151.8A98.2 98.2 0 0 1 329.5 307.7L317.9 299.3A83.9 83.9 0 0 0 250 166.1Z");
}
}
@keyframes zr144-ani-6 {
0% {
d:path("M250 151.8A98.2 98.2 0 0 1 329.5 307.7A98.2 98.2 0 0 0 250 151.8Z");
}
100% {
d:path("M250 137.5A112.5 112.5 0 0 1 341 316.1L329.5 307.7A98.2 98.2 0 0 0 250 151.8Z");
}
}
@keyframes zr144-ani-7 {
0% {
d:path("M250 137.5A112.5 112.5 0 0 1 361.1 267.6L361.1 267.6A112.5 112.5 0 0 0 250 137.5Z");
}
100% {
d:path("M250 123.2A126.8 126.8 0 0 1 375.2 269.8L361.1 267.6A112.5 112.5 0 0 0 250 137.5Z");
}
}
@keyframes zr144-ani-8 {
0% {
d:path("M250 123.2A126.8 126.8 0 0 1 375.2 269.8L375.2 269.8A126.8 126.8 0 0 0 250 123.2Z");
}
100% {
d:path("M250 108.9A141.1 141.1 0 0 1 389.3 272.1L375.2 269.8A126.8 126.8 0 0 0 250 123.2Z");
}
}
@keyframes zr144-ani-9 {
0% {
d:path("M250 108.9A141.1 141.1 0 0 1 314 124.3L314 124.3A141.1 141.1 0 0 0 250 108.9Z");
}
100% {
d:path("M250 94.6A155.4 155.4 0 0 1 320.5 111.6L314 124.3A141.1 141.1 0 0 0 250 108.9Z");
}
}
@keyframes zr144-ani-10 {
0% {
d:path("M250 94.6A155.4 155.4 0 0 1 320.5 111.6L320.5 111.6A155.4 155.4 0 0 0 250 94.6Z");
}
100% {
d:path("M250 80.4A169.6 169.6 0 0 1 327 98.8L320.5 111.6A155.4 155.4 0 0 0 250 94.6Z");
}
}
@keyframes zr144-ani-11 {
0% {
d:path("M250 80.4A169.6 169.6 0 0 1 276.5 82.4L276.5 82.4A169.6 169.6 0 0 0 250 80.4Z");
}
100% {
d:path("M250 66.1A183.9 183.9 0 0 1 278.8 68.3L276.5 82.4A169.6 169.6 0 0 0 250 80.4Z");
}
}
@keyframes zr144-ani-12 {
0% {
d:path("M276.5 82.4A169.6 169.6 0 0 1 302.4 88.7L302.4 88.7A169.6 169.6 0 0 0 276.5 82.4Z");
}
100% {
d:path("M278.8 68.3A183.9 183.9 0 0 1 306.8 75.1L302.4 88.7A169.6 169.6 0 0 0 276.5 82.4Z");
}
}
@keyframes zr144-ani-13 {
0% {
d:path("M302.4 88.7A169.6 169.6 0 0 1 327 98.8L327 98.8A169.6 169.6 0 0 0 302.4 88.7Z");
}
100% {
d:path("M306.8 75.1A183.9 183.9 0 0 1 333.5 86.1L327 98.8A169.6 169.6 0 0 0 302.4 88.7Z");
}
}
@keyframes zr144-ani-14 {
0% {
d:path("M314 124.3A141.1 141.1 0 0 1 349.8 150.2L349.8 150.2A141.1 141.1 0 0 0 314 124.3Z");
}
100% {
d:path("M320.5 111.6A155.4 155.4 0 0 1 359.9 140.1L349.8 150.2A141.1 141.1 0 0 0 314 124.3Z");
}
}
@keyframes zr144-ani-15 {
0% {
d:path("M320.5 111.6A155.4 155.4 0 0 1 359.9 140.1L359.9 140.1A155.4 155.4 0 0 0 320.5 111.6Z");
}
100% {
d:path("M327 98.8A169.6 169.6 0 0 1 370 130L359.9 140.1A155.4 155.4 0 0 0 320.5 111.6Z");
}
}
@keyframes zr144-ani-16 {
0% {
d:path("M349.8 150.2A141.1 141.1 0 0 1 375.7 186L375.7 186A141.1 141.1 0 0 0 349.8 150.2Z");
}
100% {
d:path("M359.9 140.1A155.4 155.4 0 0 1 388.4 179.5L375.7 186A141.1 141.1 0 0 0 349.8 150.2Z");
}
}
@keyframes zr144-ani-17 {
0% {
d:path("M359.9 140.1A155.4 155.4 0 0 1 375.7 158.7L375.7 158.7A155.4 155.4 0 0 0 359.9 140.1Z");
}
100% {
d:path("M370 130A169.6 169.6 0 0 1 387.2 150.3L375.7 158.7A155.4 155.4 0 0 0 359.9 140.1Z");
}
}
@keyframes zr144-ani-18 {
0% {
d:path("M375.7 158.7A155.4 155.4 0 0 1 388.4 179.5L388.4 179.5A155.4 155.4 0 0 0 375.7 158.7Z");
}
100% {
d:path("M387.2 150.3A169.6 169.6 0 0 1 401.2 173L388.4 179.5A155.4 155.4 0 0 0 375.7 158.7Z");
}
}
@keyframes zr144-ani-19 {
0% {
d:path("M387.2 150.3A169.6 169.6 0 0 1 401.2 173L401.2 173A169.6 169.6 0 0 0 387.2 150.3Z");
}
100% {
d:path("M398.8 141.9A183.9 183.9 0 0 1 413.9 166.5L401.2 173A169.6 169.6 0 0 0 387.2 150.3Z");
}
}
@keyframes zr144-ani-20 {
0% {
d:path("M375.7 186A141.1 141.1 0 0 1 384.2 206.4L384.2 206.4A141.1 141.1 0 0 0 375.7 186Z");
}
100% {
d:path("M388.4 179.5A155.4 155.4 0 0 1 397.8 202L384.2 206.4A141.1 141.1 0 0 0 375.7 186Z");
}
}
@keyframes zr144-ani-21 {
0% {
d:path("M388.4 179.5A155.4 155.4 0 0 1 397.8 202L397.8 202A155.4 155.4 0 0 0 388.4 179.5Z");
}
100% {
d:path("M401.2 173A169.6 169.6 0 0 1 411.3 197.6L397.8 202A155.4 155.4 0 0 0 388.4 179.5Z");
}
}
@keyframes zr144-ani-22 {
0% {
d:path("M401.2 173A169.6 169.6 0 0 1 411.3 197.6L411.3 197.6A169.6 169.6 0 0 0 401.2 173Z");
}
100% {
d:path("M413.9 166.5A183.9 183.9 0 0 1 424.9 193.2L411.3 197.6A169.6 169.6 0 0 0 401.2 173Z");
}
}
@keyframes zr144-ani-23 {
0% {
d:path("M384.2 206.4A141.1 141.1 0 0 1 389.3 227.9L389.3 227.9A141.1 141.1 0 0 0 384.2 206.4Z");
}
100% {
d:path("M397.8 202A155.4 155.4 0 0 1 403.4 225.7L389.3 227.9A141.1 141.1 0 0 0 384.2 206.4Z");
}
}
@keyframes zr144-ani-24 {
0% {
d:path("M397.8 202A155.4 155.4 0 0 1 403.4 225.7L403.4 225.7A155.4 155.4 0 0 0 397.8 202Z");
}
100% {
d:path("M411.3 197.6A169.6 169.6 0 0 1 417.6 223.5L403.4 225.7A155.4 155.4 0 0 0 397.8 202Z");
}
}
@keyframes zr144-ani-25 {
0% {
d:path("M389.3 227.9A141.1 141.1 0 0 1 391.1 250L391.1 250A141.1 141.1 0 0 0 389.3 227.9Z");
}
100% {
d:path("M403.4 225.7A155.4 155.4 0 0 1 405.4 250L391.1 250A141.1 141.1 0 0 0 389.3 227.9Z");
}
}
@keyframes zr144-ani-26 {
0% {
d:path("M403.4 225.7A155.4 155.4 0 0 1 405.4 250L405.4 250A155.4 155.4 0 0 0 403.4 225.7Z");
}
100% {
d:path("M417.6 223.5A169.6 169.6 0 0 1 419.6 250L405.4 250A155.4 155.4 0 0 0 403.4 225.7Z");
}
}
@keyframes zr144-ani-27 {
0% {
d:path("M391.1 250A141.1 141.1 0 0 1 389.3 272.1A141.1 141.1 0 0 0 391.1 250Z");
}
100% {
d:path("M405.4 250A155.4 155.4 0 0 1 403.4 274.3L389.3 272.1A141.1 141.1 0 0 0 391.1 250Z");
}
}
@keyframes zr144-ani-28 {
0% {
d:path("M405.4 250A155.4 155.4 0 0 1 403.4 274.3A155.4 155.4 0 0 0 405.4 250Z");
}
100% {
d:path("M419.6 250A169.6 169.6 0 0 1 417.6 276.5L403.4 274.3A155.4 155.4 0 0 0 405.4 250Z");
}
}
@keyframes zr144-ani-29 {
0% {
d:path("M361.1 267.6A112.5 112.5 0 0 1 350.2 301.1A112.5 112.5 0 0 0 361.1 267.6Z");
}
100% {
d:path("M375.2 269.8A126.8 126.8 0 0 1 363 307.6L350.2 301.1A112.5 112.5 0 0 0 361.1 267.6Z");
}
}
@keyframes zr144-ani-30 {
0% {
d:path("M375.2 269.8A126.8 126.8 0 0 1 363 307.6A126.8 126.8 0 0 0 375.2 269.8Z");
}
100% {
d:path("M389.3 272.1A141.1 141.1 0 0 1 375.7 314L363 307.6A126.8 126.8 0 0 0 375.2 269.8Z");
}
}
@keyframes zr144-ani-31 {
0% {
d:path("M389.3 272.1A141.1 141.1 0 0 1 384.2 293.6A141.1 141.1 0 0 0 389.3 272.1Z");
}
100% {
d:path("M403.4 274.3A155.4 155.4 0 0 1 397.8 298L384.2 293.6A141.1 141.1 0 0 0 389.3 272.1Z");
}
}
@keyframes zr144-ani-32 {
0% {
d:path("M384.2 293.6A141.1 141.1 0 0 1 375.7 314A141.1 141.1 0 0 0 384.2 293.6Z");
}
100% {
d:path("M397.8 298A155.4 155.4 0 0 1 388.4 320.5L375.7 314A141.1 141.1 0 0 0 384.2 293.6Z");
}
}
@keyframes zr144-ani-33 {
0% {
d:path("M350.2 301.1A112.5 112.5 0 0 1 341 316.1A112.5 112.5 0 0 0 350.2 301.1Z");
}
100% {
d:path("M363 307.6A126.8 126.8 0 0 1 352.6 324.5L341 316.1A112.5 112.5 0 0 0 350.2 301.1Z");
}
}
@keyframes zr144-ani-34 {
0% {
d:path("M363 307.6A126.8 126.8 0 0 1 352.6 324.5A126.8 126.8 0 0 0 363 307.6Z");
}
100% {
d:path("M375.7 314A141.1 141.1 0 0 1 364.1 332.9L352.6 324.5A126.8 126.8 0 0 0 363 307.6Z");
}
}
@keyframes zr144-ani-35 {
0% {
d:path("M375.7 314A141.1 141.1 0 0 1 364.1 332.9A141.1 141.1 0 0 0 375.7 314Z");
}
100% {
d:path("M388.4 320.5A155.4 155.4 0 0 1 375.7 341.3L364.1 332.9A141.1 141.1 0 0 0 375.7 314Z");
}
}
@keyframes zr144-ani-36 {
0% {
d:path("M317.9 299.3A83.9 83.9 0 0 1 250 333.9A83.9 83.9 0 0 0 317.9 299.3Z");
}
100% {
d:path("M329.5 307.7A98.2 98.2 0 0 1 250 348.2L250 333.9A83.9 83.9 0 0 0 317.9 299.3Z");
}
}
@keyframes zr144-ani-37 {
0% {
d:path("M329.5 307.7A98.2 98.2 0 0 1 294.6 337.5A98.2 98.2 0 0 0 329.5 307.7Z");
}
100% {
d:path("M341 316.1A112.5 112.5 0 0 1 301.1 350.2L294.6 337.5A98.2 98.2 0 0 0 329.5 307.7Z");
}
}
@keyframes zr144-ani-38 {
0% {
d:path("M341 316.1A112.5 112.5 0 0 1 301.1 350.2A112.5 112.5 0 0 0 341 316.1Z");
}
100% {
d:path("M352.6 324.5A126.8 126.8 0 0 1 307.6 363L301.1 350.2A112.5 112.5 0 0 0 341 316.1Z");
}
}
@keyframes zr144-ani-39 {
0% {
d:path("M352.6 324.5A126.8 126.8 0 0 1 307.6 363A126.8 126.8 0 0 0 352.6 324.5Z");
}
100% {
d:path("M364.1 332.9A141.1 141.1 0 0 1 314 375.7L307.6 363A126.8 126.8 0 0 0 352.6 324.5Z");
}
}
@keyframes zr144-ani-40 {
0% {
d:path("M364.1 332.9A141.1 141.1 0 0 1 314 375.7A141.1 141.1 0 0 0 364.1 332.9Z");
}
100% {
d:path("M375.7 341.3A155.4 155.4 0 0 1 320.5 388.4L314 375.7A141.1 141.1 0 0 0 364.1 332.9Z");
}
}
@keyframes zr144-ani-41 {
0% {
d:path("M375.7 341.3A155.4 155.4 0 0 1 320.5 388.4A155.4 155.4 0 0 0 375.7 341.3Z");
}
100% {
d:path("M387.2 349.7A169.6 169.6 0 0 1 327 401.2L320.5 388.4A155.4 155.4 0 0 0 375.7 341.3Z");
}
}
@keyframes zr144-ani-42 {
0% {
d:path("M387.2 349.7A169.6 169.6 0 0 1 370 370A169.6 169.6 0 0 0 387.2 349.7Z");
}
100% {
d:path("M398.8 358.1A183.9 183.9 0 0 1 380.1 380.1L370 370A169.6 169.6 0 0 0 387.2 349.7Z");
}
}
@keyframes zr144-ani-43 {
0% {
d:path("M370 370A169.6 169.6 0 0 1 349.7 387.2A169.6 169.6 0 0 0 370 370Z");
}
100% {
d:path("M380.1 380.1A183.9 183.9 0 0 1 358.1 398.8L349.7 387.2A169.6 169.6 0 0 0 370 370Z");
}
}
@keyframes zr144-ani-44 {
0% {
d:path("M349.7 387.2A169.6 169.6 0 0 1 327 401.2A169.6 169.6 0 0 0 349.7 387.2Z");
}
100% {
d:path("M358.1 398.8A183.9 183.9 0 0 1 333.5 413.9L327 401.2A169.6 169.6 0 0 0 349.7 387.2Z");
}
}
@keyframes zr144-ani-45 {
0% {
d:path("M294.6 337.5A98.2 98.2 0 0 1 250 348.2A98.2 98.2 0 0 0 294.6 337.5Z");
}
100% {
d:path("M301.1 350.2A112.5 112.5 0 0 1 250 362.5L250 348.2A98.2 98.2 0 0 0 294.6 337.5Z");
}
}
@keyframes zr144-ani-46 {
0% {
d:path("M301.1 350.2A112.5 112.5 0 0 1 250 362.5A112.5 112.5 0 0 0 301.1 350.2Z");
}
100% {
d:path("M307.6 363A126.8 126.8 0 0 1 250 376.8L250 362.5A112.5 112.5 0 0 0 301.1 350.2Z");
}
}
@keyframes zr144-ani-47 {
0% {
d:path("M307.6 363A126.8 126.8 0 0 1 250 376.8A126.8 126.8 0 0 0 307.6 363Z");
}
100% {
d:path("M314 375.7A141.1 141.1 0 0 1 250 391.1L250 376.8A126.8 126.8 0 0 0 307.6 363Z");
}
}
@keyframes zr144-ani-48 {
0% {
d:path("M314 375.7A141.1 141.1 0 0 1 250 391.1A141.1 141.1 0 0 0 314 375.7Z");
}
100% {
d:path("M320.5 388.4A155.4 155.4 0 0 1 250 405.4L250 391.1A141.1 141.1 0 0 0 314 375.7Z");
}
}
@keyframes zr144-ani-49 {
0% {
d:path("M320.5 388.4A155.4 155.4 0 0 1 250 405.4A155.4 155.4 0 0 0 320.5 388.4Z");
}
100% {
d:path("M327 401.2A169.6 169.6 0 0 1 250 419.6L250 405.4A155.4 155.4 0 0 0 320.5 388.4Z");
}
}
@keyframes zr144-ani-50 {
0% {
d:path("M327 401.2A169.6 169.6 0 0 1 250 419.6A169.6 169.6 0 0 0 327 401.2Z");
}
100% {
d:path("M333.5 413.9A183.9 183.9 0 0 1 250 433.9L250 419.6A169.6 169.6 0 0 0 327 401.2Z");
}
}
@keyframes zr144-ani-51 {
0% {
d:path("M333.5 413.9A183.9 183.9 0 0 1 250 433.9A183.9 183.9 0 0 0 333.5 413.9Z");
}
100% {
d:path("M340 426.6A198.2 198.2 0 0 1 250 448.2L250 433.9A183.9 183.9 0 0 0 333.5 413.9Z");
}
}
@keyframes zr144-ani-52 {
0% {
d:path("M340 426.6A198.2 198.2 0 0 1 311.3 438.5A198.2 198.2 0 0 0 340 426.6Z");
}
100% {
d:path("M346.5 439.3A212.5 212.5 0 0 1 315.7 452.1L311.3 438.5A198.2 198.2 0 0 0 340 426.6Z");
}
}
@keyframes zr144-ani-53 {
0% {
d:path("M311.3 438.5A198.2 198.2 0 0 1 281 445.8A198.2 198.2 0 0 0 311.3 438.5Z");
}
100% {
d:path("M315.7 452.1A212.5 212.5 0 0 1 283.2 459.9L281 445.8A198.2 198.2 0 0 0 311.3 438.5Z");
}
}
@keyframes zr144-ani-54 {
0% {
d:path("M281 445.8A198.2 198.2 0 0 1 250 448.2A198.2 198.2 0 0 0 281 445.8Z");
}
100% {
d:path("M283.2 459.9A212.5 212.5 0 0 1 250 462.5L250 448.2A198.2 198.2 0 0 0 281 445.8Z");
}
}
@keyframes zr144-ani-55 {
0% {
d:path("M250 291.1A41.1 41.1 0 0 1 237.3 289.1A41.1 41.1 0 0 0 250 291.1Z");
}
100% {
d:path("M250 305.4A55.4 55.4 0 0 1 232.9 302.6L237.3 289.1A41.1 41.1 0 0 0 250 291.1Z");
}
}
@keyframes zr144-ani-56 {
0% {
d:path("M250 305.4A55.4 55.4 0 0 1 232.9 302.6A55.4 55.4 0 0 0 250 305.4Z");
}
100% {
d:path("M250 319.6A69.6 69.6 0 0 1 228.5 316.2L232.9 302.6A55.4 55.4 0 0 0 250 305.4Z");
}
}
@keyframes zr144-ani-57 {
0% {
d:path("M250 319.6A69.6 69.6 0 0 1 228.5 316.2A69.6 69.6 0 0 0 250 319.6Z");
}
100% {
d:path("M250 333.9A83.9 83.9 0 0 1 224.1 329.8L228.5 316.2A69.6 69.6 0 0 0 250 319.6Z");
}
}
@keyframes zr144-ani-58 {
0% {
d:path("M250 333.9A83.9 83.9 0 0 1 224.1 329.8A83.9 83.9 0 0 0 250 333.9Z");
}
100% {
d:path("M250 348.2A98.2 98.2 0 0 1 219.7 343.4L224.1 329.8A83.9 83.9 0 0 0 250 333.9Z");
}
}
@keyframes zr144-ani-59 {
0% {
d:path("M250 348.2A98.2 98.2 0 0 1 234.6 347A98.2 98.2 0 0 0 250 348.2Z");
}
100% {
d:path("M250 362.5A112.5 112.5 0 0 1 232.4 361.1L234.6 347A98.2 98.2 0 0 0 250 348.2Z");
}
}
@keyframes zr144-ani-60 {
0% {
d:path("M234.6 347A98.2 98.2 0 0 1 219.7 343.4L219.7 343.4A98.2 98.2 0 0 0 234.6 347Z");
}
100% {
d:path("M232.4 361.1A112.5 112.5 0 0 1 215.2 357L219.7 343.4A98.2 98.2 0 0 0 234.6 347Z");
}
}
@keyframes zr144-ani-61 {
0% {
d:path("M246.1 261.9A12.5 12.5 0 0 1 250 237.5A12.5 12.5 0 0 0 246.1 261.9Z");
}
100% {
d:path("M241.7 275.5A26.8 26.8 0 0 1 250 223.2L250 237.5A12.5 12.5 0 0 0 246.1 261.9Z");
}
}
@keyframes zr144-ani-62 {
0% {
d:path("M241.7 275.5A26.8 26.8 0 0 1 231.1 231.1A26.8 26.8 0 0 0 241.7 275.5Z");
}
100% {
d:path("M237.3 289.1A41.1 41.1 0 0 1 221 221L231.1 231.1A26.8 26.8 0 0 0 241.7 275.5Z");
}
}
@keyframes zr144-ani-63 {
0% {
d:path("M231.1 231.1A26.8 26.8 0 0 1 245.8 223.5A26.8 26.8 0 0 0 231.1 231.1Z");
}
100% {
d:path("M221 221A41.1 41.1 0 0 1 243.6 209.4L245.8 223.5A26.8 26.8 0 0 0 231.1 231.1Z");
}
}
@keyframes zr144-ani-64 {
0% {
d:path("M245.8 223.5A26.8 26.8 0 0 1 250 223.2A26.8 26.8 0 0 0 245.8 223.5Z");
}
100% {
d:path("M243.6 209.4A41.1 41.1 0 0 1 250 208.9L250 223.2A26.8 26.8 0 0 0 245.8 223.5Z");
}
}
]]>

</style>
</svg>