<svg width="500" height="500" xmlns="http://www.w3.org/2000/svg" xmlns:xlink="http://www.w3.org/1999/xlink" version="1.1" baseProfile="full" viewBox="0 0 500 500">
<rect width="500" height="500" x="0" y="0" id="0" fill="none"></rect>
<path d="M250 225A25 25 0 1 1 225.4 245.7L237.7 247.8A12.5 12.5 0 1 0 250 237.5Z" fill="#000" stroke="white" stroke-linejoin="bevel" class="zr2-cls-0"></path>
<path d="M250 212.5A37.5 37.5 0 0 1 274.1 278.7L266.1 269.2A25 25 0 0 0 250 225Z" fill="#49ff49" fill-opacity="0.5" stroke="#fff" stroke-width="4" stroke-opacity="0.5" stroke-linejoin="bevel" class="zr2-cls-1"></path>
<path d="M250 200A50 50 0 0 1 293.3 225L282.5 231.3A37.5 37.5 0 0 0 250 212.5Z" fill="#000" stroke="white" stroke-linejoin="bevel" class="zr2-cls-2"></path>
<path d="M250 187.5A62.5 62.5 0 0 1 271.4 191.3L267.1 203A50 50 0 0 0 250 200Z" fill="#0AA40D" stroke="white" stroke-linejoin="bevel" class="zr2-cls-3"></path>
<path d="M271.4 191.3A62.5 62.5 0 0 1 290.2 202.1L282.1 211.7A50 50 0 0 0 267.1 203Z" fill="#F3C142" stroke="white" stroke-linejoin="bevel" class="zr2-cls-4"></path>
<path d="M290.2 202.1A62.5 62.5 0 0 1 304.1 218.7L293.3 225A50 50 0 0 0 282.1 211.7Z" fill="#6dc0e3" stroke="white" stroke-linejoin="bevel" class="zr2-cls-5"></path>
<path d="M293.3 225A50 50 0 0 1 299.2 258.7L286.9 256.5A37.5 37.5 0 0 0 282.5 231.3Z" fill="#000" stroke="white" stroke-linejoin="bevel" class="zr2-cls-6"></path>
<path d="M304.1 218.8A62.5 62.5 0 0 1 311.6 239.1L299.2 241.3A50 50 0 0 0 293.3 225Z" fill="#F3C142" stroke="white" stroke-linejoin="bevel" class="zr2-cls-7"></path>
<path d="M311.6 239.1A62.5 62.5 0 0 1 311.6 260.9L299.2 258.7A50 50 0 0 0 299.2 241.3Z" fill="#0AA40D" stroke="white" stroke-linejoin="bevel" class="zr2-cls-8"></path>
<path d="M299.2 258.7A50 50 0 0 1 293.3 275L282.5 268.8A37.5 37.5 0 0 0 286.9 256.5Z" fill="#000" stroke="white" stroke-linejoin="bevel" class="zr2-cls-9"></path>
<path d="M311.6 260.9A62.5 62.5 0 0 1 304.1 281.3L293.3 275A50 50 0 0 0 299.2 258.7Z" fill="#F3C142" stroke="white" stroke-linejoin="bevel" class="zr2-cls-10"></path>
<path d="M293.3 275A50 50 0 0 1 282.1 288.3L274.1 278.7A37.5 37.5 0 0 0 282.5 268.8Z" fill="#000" stroke="white" stroke-linejoin="bevel" class="zr2-cls-11"></path>
<path d="M304.1 281.3A62.5 62.5 0 0 1 290.2 297.9L282.1 288.3A50 50 0 0 0 293.3 275Z" fill="#F3C142" stroke="white" stroke-linejoin="bevel" class="zr2-cls-12"></path>
<path d="M274.1 278.7A37.5 37.5 0 0 1 225.9 278.7L233.9 269.2A25 25 0 0 0 266.1 269.2Z" fill="#ff4949" fill-opacity="0.5" stroke="#fff" stroke-width="4" stroke-opacity="0.5" stroke-linejoin="bevel" class="zr2-cls-13"></path>
<path d="M282.1 288.3A50 50 0 0 1 250 300L250 287.5A37.5 37.5 0 0 0 274.1 278.7Z" fill="#000" stroke="white" stroke-linejoin="bevel" class="zr2-cls-14"></path>
<path d="M290.2 297.9A62.5 62.5 0 0 1 271.4 308.7L267.1 297A50 50 0 0 0 282.1 288.3Z" fill="#0AA40D" stroke="white" stroke-linejoin="bevel" class="zr2-cls-15"></path>
<path d="M271.4 308.7A62.5 62.5 0 0 1 250 312.5L250 300A50 50 0 0 0 267.1 297Z" fill="#F3C142" stroke="white" stroke-linejoin="bevel" class="zr2-cls-16"></path>
<path d="M250 300A50 50 0 0 1 232.9 297L237.2 285.2A37.5 37.5 0 0 0 250 287.5Z" fill="#000" stroke="white" stroke-linejoin="bevel" class="zr2-cls-17"></path>
<path d="M250 312.5A62.5 62.5 0 0 1 228.6 308.7L232.9 297A50 50 0 0 0 250 300Z" fill="#F3C142" stroke="white" stroke-linejoin="bevel" class="zr2-cls-18"></path>
<path d="M232.9 297A50 50 0 0 1 217.9 288.3L225.9 278.7A37.5 37.5 0 0 0 237.2 285.2Z" fill="#000" stroke="white" stroke-linejoin="bevel" class="zr2-cls-19"></path>
<path d="M228.6 308.7A62.5 62.5 0 0 1 209.8 297.9L217.9 288.3A50 50 0 0 0 232.9 297Z" fill="#F3C142" stroke="white" stroke-linejoin="bevel" class="zr2-cls-20"></path>
<path d="M225.9 278.7A37.5 37.5 0 0 1 213.1 243.5L225.4 245.7A25 25 0 0 0 233.9 269.2Z" fill="#4949CD" fill-opacity="0.5" stroke="#fff" stroke-width="4" stroke-opacity="0.5" stroke-linejoin="bevel" class="zr2-cls-21"></path>
<path d="M217.9 288.3A50 50 0 0 1 200.8 241.3L213.1 243.5A37.5 37.5 0 0 0 225.9 278.7Z" fill="#000" stroke="white" stroke-linejoin="bevel" class="zr2-cls-22"></path>
<path d="M209.8 297.9A62.5 62.5 0 0 1 188.4 239.1L200.8 241.3A50 50 0 0 0 217.9 288.3Z" fill="#000" stroke="white" stroke-linejoin="bevel" class="zr2-cls-23"></path>
<path d="M201.8 307.5A75 75 0 0 1 176.1 237L188.4 239.1A62.5 62.5 0 0 0 209.8 297.9Z" fill="#4949CD" fill-opacity="0.5" stroke="#fff" stroke-width="4" stroke-opacity="0.5" stroke-linejoin="bevel" class="zr2-cls-24"></path>
<path d="M193.8 317A87.5 87.5 0 0 1 163.8 234.8L176.1 237A75 75 0 0 0 201.8 307.5Z" fill="#0AA40D" stroke="white" stroke-linejoin="bevel" class="zr2-cls-25"></path>
<path d="M185.7 326.6A100 100 0 0 1 151.5 232.6L163.8 234.8A87.5 87.5 0 0 0 193.8 317Z" fill="#000" stroke="white" stroke-linejoin="bevel" class="zr2-cls-26"></path>
<path d="M177.7 336.2A112.5 112.5 0 0 1 139.2 230.5L151.5 232.6A100 100 0 0 0 185.7 326.6Z" fill="#4949CD" fill-opacity="0.5" stroke="#fff" stroke-width="4" stroke-opacity="0.5" stroke-linejoin="bevel" class="zr2-cls-27"></path>
<path d="M169.7 345.8A125 125 0 0 1 126.9 228.3L139.2 230.5A112.5 112.5 0 0 0 177.7 336.2Z" fill="#000" stroke="white" stroke-linejoin="bevel" class="zr2-cls-28"></path>
<path d="M161.6 355.3A137.5 137.5 0 0 1 114.6 226.1L126.9 228.3A125 125 0 0 0 169.7 345.8Z" fill="#000" stroke="white" stroke-linejoin="bevel" class="zr2-cls-29"></path>
<path d="M153.6 364.9A150 150 0 0 1 102.3 224L114.6 226.1A137.5 137.5 0 0 0 161.6 355.3Z" fill="#4949CD" fill-opacity="0.5" stroke="#fff" stroke-width="4" stroke-opacity="0.5" stroke-linejoin="bevel" class="zr2-cls-30"></path>
<path d="M145.5 374.5A162.5 162.5 0 0 1 90 221.8L102.3 224A150 150 0 0 0 153.6 364.9Z" fill="#000" stroke="white" stroke-linejoin="bevel" class="zr2-cls-31"></path>
<path d="M137.5 384.1A175 175 0 0 1 77.7 219.6L90 221.8A162.5 162.5 0 0 0 145.5 374.5Z" fill="#A0522D" stroke="white" stroke-linejoin="bevel" class="zr2-cls-32"></path>
<path d="M129.5 393.6A187.5 187.5 0 0 1 87.6 343.8L98.4 337.5A175 175 0 0 0 137.5 384.1Z" fill="#A0522D" stroke="white" stroke-linejoin="bevel" class="zr2-cls-33"></path>
<path d="M87.6 343.8A187.5 187.5 0 0 1 65.3 282.6L77.7 280.4A175 175 0 0 0 98.4 337.5Z" fill="#A0522D" stroke="white" stroke-linejoin="bevel" class="zr2-cls-34"></path>
<path d="M76.8 350A200 200 0 0 1 53 284.7L65.3 282.6A187.5 187.5 0 0 0 87.6 343.8Z" fill="#A0522D" stroke="white" stroke-linejoin="bevel" class="zr2-cls-35"></path>
<path d="M65.3 282.6A187.5 187.5 0 0 1 65.3 217.4L77.7 219.6A175 175 0 0 0 77.7 280.4Z" fill="#A0522D" stroke="white" stroke-linejoin="bevel" class="zr2-cls-36"></path>
<path d="M53 284.7A200 200 0 0 1 53 215.3L65.3 217.4A187.5 187.5 0 0 0 65.3 282.6Z" fill="#ff4949" fill-opacity="0.5" stroke="#fff" stroke-width="4" stroke-opacity="0.5" stroke-linejoin="bevel" class="zr2-cls-37"></path>
<path d="M40.7 286.9A212.5 212.5 0 0 1 40.7 213.1L53 215.3A200 200 0 0 0 53 284.7Z" fill="#A0522D" stroke="white" stroke-linejoin="bevel" class="zr2-cls-38"></path>
<path d="M225.4 245.7A25 25 0 0 1 233.9 230.8L242 240.4A12.5 12.5 0 0 0 237.7 247.8Z" fill="#C8C8C8" stroke="white" stroke-linejoin="bevel" class="zr2-cls-39"></path>
<path d="M213.1 243.5A37.5 37.5 0 0 1 225.9 221.3L233.9 230.8A25 25 0 0 0 225.4 245.7Z" fill="#C8C8C8" stroke="white" stroke-linejoin="bevel" class="zr2-cls-40"></path>
<path d="M233.9 230.8A25 25 0 0 1 250 225L250 237.5A12.5 12.5 0 0 0 242 240.4Z" fill="#C8C8C8" stroke="white" stroke-linejoin="bevel" class="zr2-cls-41"></path>
<path d="M225.9 221.3A37.5 37.5 0 0 1 250 212.5L250 225A25 25 0 0 0 233.9 230.8Z" fill="#49ff49" fill-opacity="0.5" stroke="#fff" stroke-width="4" stroke-opacity="0.5" stroke-linejoin="bevel" class="zr2-cls-42"></path>
<path d="M217.9 211.7A50 50 0 0 1 232.9 203L237.2 214.8A37.5 37.5 0 0 0 225.9 221.3Z" fill="#C8C8C8" stroke="white" stroke-linejoin="bevel" class="zr2-cls-43"></path>
<path d="M232.9 203A50 50 0 0 1 250 200L250 212.5A37.5 37.5 0 0 0 237.2 214.8Z" fill="#C8C8C8" stroke="white" stroke-linejoin="bevel" class="zr2-cls-44"></path>
<text dominant-baseline="central" text-anchor="middle" style="font-size:12px;font-family:sans-serif;" transform="matrix(0.766,-0.643,0.643,0.766,262.0523,264.3633)" fill="#ccc" stroke="#000" stroke-width="2" paint-order="stroke" stroke-miterlimit="2">paths</text>
<text dominant-baseline="central" text-anchor="middle" style="font-size:12px;font-family:sans-serif;" transform="matrix(0.985,0.174,-0.174,0.985,259.7677,194.6046)" fill="#eee" stroke="#0AA40D" stroke-width="2" paint-order="stroke" stroke-miterlimit="2">GET</text>
<text dominant-baseline="central" text-anchor="middle" style="font-size:12px;font-family:sans-serif;" transform="matrix(0.643,0.766,-0.766,0.643,293.09,213.8432)" fill="#333">PUT</text>
<text dominant-baseline="central" text-anchor="middle" style="font-size:10px;font-family:sans-serif;" transform="matrix(0.174,0.985,-0.985,0.174,293.0853,242.4029)" fill="#ccc" stroke="#000" stroke-width="2" paint-order="stroke" stroke-miterlimit="2">/trips/</text>
<text dominant-baseline="central" text-anchor="middle" style="font-size:12px;font-family:sans-serif;" transform="matrix(0.342,-0.94,0.94,0.342,302.8577,269.2386)" fill="#333">POST</text>
<text dominant-baseline="central" text-anchor="middle" style="font-size:12px;font-family:sans-serif;" transform="matrix(0.94,-0.342,0.342,0.94,264.9634,291.1116)" fill="#ccc" stroke="#000" stroke-width="2" paint-order="stroke" stroke-miterlimit="2">/trips</text>
<text dominant-baseline="central" text-anchor="middle" style="font-size:10px;font-family:sans-serif;" transform="matrix(0.342,0.94,-0.94,0.342,208.8884,264.9634)" fill="#ccc" stroke="#000" stroke-width="2" paint-order="stroke" stroke-miterlimit="2">/trips/</text>
<text dominant-baseline="central" text-anchor="middle" style="font-size:9px;font-family:sans-serif;" transform="matrix(0.342,0.94,-0.94,0.342,197.1423,269.2386)" fill="#ccc" stroke="#000" stroke-width="2" paint-order="stroke" stroke-miterlimit="2">operations</text>
<text dominant-baseline="central" text-anchor="middle" style="font-size:10px;font-family:sans-serif;" transform="matrix(0.342,0.94,-0.94,0.342,161.9038,282.0644)" fill="#ccc" stroke="#000" stroke-width="2" paint-order="stroke" stroke-miterlimit="2">responses</text>
<text dominant-baseline="central" text-anchor="middle" style="font-size:10px;font-family:sans-serif;" transform="matrix(0.342,0.94,-0.94,0.342,126.6653,294.8901)" fill="#ccc" stroke="#000" stroke-width="2" paint-order="stroke" stroke-miterlimit="2">content</text>
<text dominant-baseline="central" text-anchor="middle" style="font-size:12px;font-family:sans-serif;" transform="matrix(0.342,0.94,-0.94,0.342,91.4269,307.7159)" fill="#eee" stroke="#A0522D" stroke-width="2" paint-order="stroke" stroke-miterlimit="2">schema</text>
<text dominant-baseline="central" text-anchor="middle" style="font-size:12px;font-family:sans-serif;" transform="matrix(0.643,0.766,-0.766,0.643,111.1544,366.5053)" fill="#eee" stroke="#A0522D" stroke-width="2" paint-order="stroke" stroke-miterlimit="2">type</text>
<text dominant-baseline="central" text-anchor="middle" style="font-size:9px;font-family:sans-serif;" transform="matrix(0.342,0.94,-0.94,0.342,67.9346,316.2664)" fill="#eee" stroke="#A0522D" stroke-width="2" paint-order="stroke" stroke-miterlimit="2">schemaAdded</text>
<text dominant-baseline="central" text-anchor="middle" style="font-size:9px;font-family:sans-serif;" transform="matrix(0,1,-1,0,68.75,250)" fill="#eee" stroke="#A0522D" stroke-width="2" paint-order="stroke" stroke-miterlimit="2">properties</text>
<text dominant-baseline="central" text-anchor="middle" style="font-size:12px;font-family:sans-serif;" transform="matrix(0,1,-1,0,43.75,250)" fill="#eee" stroke="#A0522D" stroke-width="2" paint-order="stroke" stroke-miterlimit="2">trip</text>
<text dominant-baseline="central" text-anchor="middle" style="font-size:12px;font-family:sans-serif;" transform="matrix(0.5,-0.866,0.866,0.5,233.762,240.625)" fill="#333">info</text>
<text dominant-baseline="central" text-anchor="middle" style="font-size:12px;font-family:sans-serif;" transform="matrix(0.866,-0.5,0.5,0.866,228.125,212.1114)" fill="#333">Login</text>
<path d="M-14.8 -16l66.6 0l0 32l-66.6 0Z" transform="translate(448.253 16)" fill="none" stroke="#ccc" stroke-width="0"></path>
<path d="M-7.3 -1.8L-0.1 4.8L7.3 -1.6M-7.3 4.3L-7.3 8.5L7.1 8.5L7.1 4.3M-0.1 4.7L-0.1 -8.5" transform="translate(448.253 16)" fill="none" stroke="#666"></path>
<path d="M-7.9 1M5.1 -3.4L8.1 -3.4L8.1 -6.4M8 -3C6.7 -6.4 3.2 -8.9 -1 -8.4C-5.3 -8 -8.6 -4.2 -8.4 0.2M-5.1 3.4L-8.1 3.4L-8.1 6.4M-8 3C-6.7 6.4 -3.2 8.9 1 8.4C5.3 8 8.6 4.2 8.4 -0.2" transform="translate(484.0476 16)" fill="none" stroke="#666"></path>
<style ><![CDATA[
.zr2-cls-0 {
animation:zr2-ani-0 1s cubic-bezier(0.65,0,0.35,1) both;
}
.zr2-cls-1 {
animation:zr2-ani-1 1s cubic-bezier(0.65,0,0.35,1) both;
}
.zr2-cls-2 {
animation:zr2-ani-2 1s cubic-bezier(0.65,0,0.35,1) both;
}
.zr2-cls-3 {
animation:zr2-ani-3 1s cubic-bezier(0.65,0,0.35,1) both;
}
.zr2-cls-4 {
animation:zr2-ani-4 1s cubic-bezier(0.65,0,0.35,1) both;
}
.zr2-cls-5 {
animation:zr2-ani-5 1s cubic-bezier(0.65,0,0.35,1) both;
}
.zr2-cls-6 {
animation:zr2-ani-6 1s cubic-bezier(0.65,0,0.35,1) both;
}
.zr2-cls-7 {
animation:zr2-ani-7 1s cubic-bezier(0.65,0,0.35,1) both;
}
.zr2-cls-8 {
animation:zr2-ani-8 1s cubic-bezier(0.65,0,0.35,1) both;
}
.zr2-cls-9 {
animation:zr2-ani-9 1s cubic-bezier(0.65,0,0.35,1) both;
}
.zr2-cls-10 {
animation:zr2-ani-10 1s cubic-bezier(0.65,0,0.35,1) both;
}
.zr2-cls-11 {
animation:zr2-ani-11 1s cubic-bezier(0.65,0,0.35,1) both;
}
.zr2-cls-12 {
animation:zr2-ani-12 1s cubic-bezier(0.65,0,0.35,1) both;
}
.zr2-cls-13 {
animation:zr2-ani-13 1s cubic-bezier(0.65,0,0.35,1) both;
}
.zr2-cls-14 {
animation:zr2-ani-14 1s cubic-bezier(0.65,0,0.35,1) both;
}
.zr2-cls-15 {
animation:zr2-ani-15 1s cubic-bezier(0.65,0,0.35,1) both;
}
.zr2-cls-16 {
animation:zr2-ani-16 1s cubic-bezier(0.65,0,0.35,1) both;
}
.zr2-cls-17 {
animation:zr2-ani-17 1s cubic-bezier(0.65,0,0.35,1) both;
}
.zr2-cls-18 {
animation:zr2-ani-18 1s cubic-bezier(0.65,0,0.35,1) both;
}
.zr2-cls-19 {
animation:zr2-ani-19 1s cubic-bezier(0.65,0,0.35,1) both;
}
.zr2-cls-20 {
animation:zr2-ani-20 1s cubic-bezier(0.65,0,0.35,1) both;
}
.zr2-cls-21 {
animation:zr2-ani-21 1s cubic-bezier(0.65,0,0.35,1) both;
}
.zr2-cls-22 {
animation:zr2-ani-22 1s cubic-bezier(0.65,0,0.35,1) both;
}
.zr2-cls-23 {
animation:zr2-ani-23 1s cubic-bezier(0.65,0,0.35,1) both;
}
.zr2-cls-24 {
animation:zr2-ani-24 1s cubic-bezier(0.65,0,0.35,1) both;
}
.zr2-cls-25 {
animation:zr2-ani-25 1s cubic-bezier(0.65,0,0.35,1) both;
}
.zr2-cls-26 {
animation:zr2-ani-26 1s cubic-bezier(0.65,0,0.35,1) both;
}
.zr2-cls-27 {
animation:zr2-ani-27 1s cubic-bezier(0.65,0,0.35,1) both;
}
.zr2-cls-28 {
animation:zr2-ani-28 1s cubic-bezier(0.65,0,0.35,1) both;
}
.zr2-cls-29 {
animation:zr2-ani-29 1s cubic-bezier(0.65,0,0.35,1) both;
}
.zr2-cls-30 {
animation:zr2-ani-30 1s cubic-bezier(0.65,0,0.35,1) both;
}
.zr2-cls-31 {
animation:zr2-ani-31 1s cubic-bezier(0.65,0,0.35,1) both;
}
.zr2-cls-32 {
animation:zr2-ani-32 1s cubic-bezier(0.65,0,0.35,1) both;
}
.zr2-cls-33 {
animation:zr2-ani-33 1s cubic-bezier(0.65,0,0.35,1) both;
}
.zr2-cls-34 {
animation:zr2-ani-34 1s cubic-bezier(0.65,0,0.35,1) both;
}
.zr2-cls-35 {
animation:zr2-ani-35 1s cubic-bezier(0.65,0,0.35,1) both;
}
.zr2-cls-36 {
animation:zr2-ani-36 1s cubic-bezier(0.65,0,0.35,1) both;
}
.zr2-cls-37 {
animation:zr2-ani-37 1s cubic-bezier(0.65,0,0.35,1) both;
}
.zr2-cls-38 {
animation:zr2-ani-38 1s cubic-bezier(0.65,0,0.35,1) both;
}
.zr2-cls-39 {
animation:zr2-ani-39 1s cubic-bezier(0.65,0,0.35,1) both;
}
.zr2-cls-40 {
animation:zr2-ani-40 1s cubic-bezier(0.65,0,0.35,1) both;
}
.zr2-cls-41 {
animation:zr2-ani-41 1s cubic-bezier(0.65,0,0.35,1) both;
}
.zr2-cls-42 {
animation:zr2-ani-42 1s cubic-bezier(0.65,0,0.35,1) both;
}
.zr2-cls-43 {
animation:zr2-ani-43 1s cubic-bezier(0.65,0,0.35,1) both;
}
.zr2-cls-44 {
animation:zr2-ani-44 1s cubic-bezier(0.65,0,0.35,1) both;
}
@keyframes zr2-ani-0 {
0% {
d:path("M250 237.5A12.5 12.5 0 1 1 237.7 247.8A12.5 12.5 0 1 0 250 237.5Z");
}
100% {
d:path("M250 225A25 25 0 1 1 225.4 245.7L237.7 247.8A12.5 12.5 0 1 0 250 237.5Z");
}
}
@keyframes zr2-ani-1 {
0% {
d:path("M250 225A25 25 0 0 1 266.1 269.2A25 25 0 0 0 250 225Z");
}
100% {
d:path("M250 212.5A37.5 37.5 0 0 1 274.1 278.7L266.1 269.2A25 25 0 0 0 250 225Z");
}
}
@keyframes zr2-ani-2 {
0% {
d:path("M250 212.5A37.5 37.5 0 0 1 282.5 231.2L282.5 231.3A37.5 37.5 0 0 0 250 212.5Z");
}
100% {
d:path("M250 200A50 50 0 0 1 293.3 225L282.5 231.3A37.5 37.5 0 0 0 250 212.5Z");
}
}
@keyframes zr2-ani-3 {
0% {
d:path("M250 200A50 50 0 0 1 267.1 203L267.1 203A50 50 0 0 0 250 200Z");
}
100% {
d:path("M250 187.5A62.5 62.5 0 0 1 271.4 191.3L267.1 203A50 50 0 0 0 250 200Z");
}
}
@keyframes zr2-ani-4 {
0% {
d:path("M267.1 203A50 50 0 0 1 282.1 211.7L282.1 211.7A50 50 0 0 0 267.1 203Z");
}
100% {
d:path("M271.4 191.3A62.5 62.5 0 0 1 290.2 202.1L282.1 211.7A50 50 0 0 0 267.1 203Z");
}
}
@keyframes zr2-ani-5 {
0% {
d:path("M282.1 211.7A50 50 0 0 1 293.3 225L293.3 225A50 50 0 0 0 282.1 211.7Z");
}
100% {
d:path("M290.2 202.1A62.5 62.5 0 0 1 304.1 218.7L293.3 225A50 50 0 0 0 282.1 211.7Z");
}
}
@keyframes zr2-ani-6 {
0% {
d:path("M282.5 231.3A37.5 37.5 0 0 1 286.9 256.5L286.9 256.5A37.5 37.5 0 0 0 282.5 231.3Z");
}
100% {
d:path("M293.3 225A50 50 0 0 1 299.2 258.7L286.9 256.5A37.5 37.5 0 0 0 282.5 231.3Z");
}
}
@keyframes zr2-ani-7 {
0% {
d:path("M293.3 225A50 50 0 0 1 299.2 241.3L299.2 241.3A50 50 0 0 0 293.3 225Z");
}
100% {
d:path("M304.1 218.8A62.5 62.5 0 0 1 311.6 239.1L299.2 241.3A50 50 0 0 0 293.3 225Z");
}
}
@keyframes zr2-ani-8 {
0% {
d:path("M299.2 241.3A50 50 0 0 1 299.2 258.7L299.2 258.7A50 50 0 0 0 299.2 241.3Z");
}
100% {
d:path("M311.6 239.1A62.5 62.5 0 0 1 311.6 260.9L299.2 258.7A50 50 0 0 0 299.2 241.3Z");
}
}
@keyframes zr2-ani-9 {
0% {
d:path("M286.9 256.5A37.5 37.5 0 0 1 282.5 268.8L282.5 268.8A37.5 37.5 0 0 0 286.9 256.5Z");
}
100% {
d:path("M299.2 258.7A50 50 0 0 1 293.3 275L282.5 268.8A37.5 37.5 0 0 0 286.9 256.5Z");
}
}
@keyframes zr2-ani-10 {
0% {
d:path("M299.2 258.7A50 50 0 0 1 293.3 275L293.3 275A50 50 0 0 0 299.2 258.7Z");
}
100% {
d:path("M311.6 260.9A62.5 62.5 0 0 1 304.1 281.3L293.3 275A50 50 0 0 0 299.2 258.7Z");
}
}
@keyframes zr2-ani-11 {
0% {
d:path("M282.5 268.8A37.5 37.5 0 0 1 274.1 278.7L274.1 278.7A37.5 37.5 0 0 0 282.5 268.8Z");
}
100% {
d:path("M293.3 275A50 50 0 0 1 282.1 288.3L274.1 278.7A37.5 37.5 0 0 0 282.5 268.8Z");
}
}
@keyframes zr2-ani-12 {
0% {
d:path("M293.3 275A50 50 0 0 1 282.1 288.3L282.1 288.3A50 50 0 0 0 293.3 275Z");
}
100% {
d:path("M304.1 281.3A62.5 62.5 0 0 1 290.2 297.9L282.1 288.3A50 50 0 0 0 293.3 275Z");
}
}
@keyframes zr2-ani-13 {
0% {
d:path("M266.1 269.2A25 25 0 0 1 233.9 269.2L233.9 269.2A25 25 0 0 0 266.1 269.2Z");
}
100% {
d:path("M274.1 278.7A37.5 37.5 0 0 1 225.9 278.7L233.9 269.2A25 25 0 0 0 266.1 269.2Z");
}
}
@keyframes zr2-ani-14 {
0% {
d:path("M274.1 278.7A37.5 37.5 0 0 1 250 287.5L250 287.5A37.5 37.5 0 0 0 274.1 278.7Z");
}
100% {
d:path("M282.1 288.3A50 50 0 0 1 250 300L250 287.5A37.5 37.5 0 0 0 274.1 278.7Z");
}
}
@keyframes zr2-ani-15 {
0% {
d:path("M282.1 288.3A50 50 0 0 1 267.1 297L267.1 297A50 50 0 0 0 282.1 288.3Z");
}
100% {
d:path("M290.2 297.9A62.5 62.5 0 0 1 271.4 308.7L267.1 297A50 50 0 0 0 282.1 288.3Z");
}
}
@keyframes zr2-ani-16 {
0% {
d:path("M267.1 297A50 50 0 0 1 250 300L250 300A50 50 0 0 0 267.1 297Z");
}
100% {
d:path("M271.4 308.7A62.5 62.5 0 0 1 250 312.5L250 300A50 50 0 0 0 267.1 297Z");
}
}
@keyframes zr2-ani-17 {
0% {
d:path("M250 287.5A37.5 37.5 0 0 1 237.2 285.2A37.5 37.5 0 0 0 250 287.5Z");
}
100% {
d:path("M250 300A50 50 0 0 1 232.9 297L237.2 285.2A37.5 37.5 0 0 0 250 287.5Z");
}
}
@keyframes zr2-ani-18 {
0% {
d:path("M250 300A50 50 0 0 1 232.9 297A50 50 0 0 0 250 300Z");
}
100% {
d:path("M250 312.5A62.5 62.5 0 0 1 228.6 308.7L232.9 297A50 50 0 0 0 250 300Z");
}
}
@keyframes zr2-ani-19 {
0% {
d:path("M237.2 285.2A37.5 37.5 0 0 1 225.9 278.7L225.9 278.7A37.5 37.5 0 0 0 237.2 285.2Z");
}
100% {
d:path("M232.9 297A50 50 0 0 1 217.9 288.3L225.9 278.7A37.5 37.5 0 0 0 237.2 285.2Z");
}
}
@keyframes zr2-ani-20 {
0% {
d:path("M232.9 297A50 50 0 0 1 217.9 288.3L217.9 288.3A50 50 0 0 0 232.9 297Z");
}
100% {
d:path("M228.6 308.7A62.5 62.5 0 0 1 209.8 297.9L217.9 288.3A50 50 0 0 0 232.9 297Z");
}
}
@keyframes zr2-ani-21 {
0% {
d:path("M233.9 269.2A25 25 0 0 1 225.4 245.7L225.4 245.7A25 25 0 0 0 233.9 269.2Z");
}
100% {
d:path("M225.9 278.7A37.5 37.5 0 0 1 213.1 243.5L225.4 245.7A25 25 0 0 0 233.9 269.2Z");
}
}
@keyframes zr2-ani-22 {
0% {
d:path("M225.9 278.7A37.5 37.5 0 0 1 213.1 243.5L213.1 243.5A37.5 37.5 0 0 0 225.9 278.7Z");
}
100% {
d:path("M217.9 288.3A50 50 0 0 1 200.8 241.3L213.1 243.5A37.5 37.5 0 0 0 225.9 278.7Z");
}
}
@keyframes zr2-ani-23 {
0% {
d:path("M217.9 288.3A50 50 0 0 1 200.8 241.3L200.8 241.3A50 50 0 0 0 217.9 288.3Z");
}
100% {
d:path("M209.8 297.9A62.5 62.5 0 0 1 188.4 239.1L200.8 241.3A50 50 0 0 0 217.9 288.3Z");
}
}
@keyframes zr2-ani-24 {
0% {
d:path("M209.8 297.9A62.5 62.5 0 0 1 188.4 239.1L188.4 239.1A62.5 62.5 0 0 0 209.8 297.9Z");
}
100% {
d:path("M201.8 307.5A75 75 0 0 1 176.1 237L188.4 239.1A62.5 62.5 0 0 0 209.8 297.9Z");
}
}
@keyframes zr2-ani-25 {
0% {
d:path("M201.8 307.5A75 75 0 0 1 176.1 237L176.1 237A75 75 0 0 0 201.8 307.5Z");
}
100% {
d:path("M193.8 317A87.5 87.5 0 0 1 163.8 234.8L176.1 237A75 75 0 0 0 201.8 307.5Z");
}
}
@keyframes zr2-ani-26 {
0% {
d:path("M193.8 317A87.5 87.5 0 0 1 163.8 234.8L163.8 234.8A87.5 87.5 0 0 0 193.8 317Z");
}
100% {
d:path("M185.7 326.6A100 100 0 0 1 151.5 232.6L163.8 234.8A87.5 87.5 0 0 0 193.8 317Z");
}
}
@keyframes zr2-ani-27 {
0% {
d:path("M185.7 326.6A100 100 0 0 1 151.5 232.6L151.5 232.6A100 100 0 0 0 185.7 326.6Z");
}
100% {
d:path("M177.7 336.2A112.5 112.5 0 0 1 139.2 230.5L151.5 232.6A100 100 0 0 0 185.7 326.6Z");
}
}
@keyframes zr2-ani-28 {
0% {
d:path("M177.7 336.2A112.5 112.5 0 0 1 139.2 230.5L139.2 230.5A112.5 112.5 0 0 0 177.7 336.2Z");
}
100% {
d:path("M169.7 345.8A125 125 0 0 1 126.9 228.3L139.2 230.5A112.5 112.5 0 0 0 177.7 336.2Z");
}
}
@keyframes zr2-ani-29 {
0% {
d:path("M169.7 345.8A125 125 0 0 1 126.9 228.3L126.9 228.3A125 125 0 0 0 169.7 345.8Z");
}
100% {
d:path("M161.6 355.3A137.5 137.5 0 0 1 114.6 226.1L126.9 228.3A125 125 0 0 0 169.7 345.8Z");
}
}
@keyframes zr2-ani-30 {
0% {
d:path("M161.6 355.3A137.5 137.5 0 0 1 114.6 226.1L114.6 226.1A137.5 137.5 0 0 0 161.6 355.3Z");
}
100% {
d:path("M153.6 364.9A150 150 0 0 1 102.3 224L114.6 226.1A137.5 137.5 0 0 0 161.6 355.3Z");
}
}
@keyframes zr2-ani-31 {
0% {
d:path("M153.6 364.9A150 150 0 0 1 102.3 224L102.3 224A150 150 0 0 0 153.6 364.9Z");
}
100% {
d:path("M145.5 374.5A162.5 162.5 0 0 1 90 221.8L102.3 224A150 150 0 0 0 153.6 364.9Z");
}
}
@keyframes zr2-ani-32 {
0% {
d:path("M145.5 374.5A162.5 162.5 0 0 1 90 221.8L90 221.8A162.5 162.5 0 0 0 145.5 374.5Z");
}
100% {
d:path("M137.5 384.1A175 175 0 0 1 77.7 219.6L90 221.8A162.5 162.5 0 0 0 145.5 374.5Z");
}
}
@keyframes zr2-ani-33 {
0% {
d:path("M137.5 384.1A175 175 0 0 1 98.4 337.5L98.4 337.5A175 175 0 0 0 137.5 384.1Z");
}
100% {
d:path("M129.5 393.6A187.5 187.5 0 0 1 87.6 343.8L98.4 337.5A175 175 0 0 0 137.5 384.1Z");
}
}
@keyframes zr2-ani-34 {
0% {
d:path("M98.4 337.5A175 175 0 0 1 77.7 280.4L77.7 280.4A175 175 0 0 0 98.4 337.5Z");
}
100% {
d:path("M87.6 343.8A187.5 187.5 0 0 1 65.3 282.6L77.7 280.4A175 175 0 0 0 98.4 337.5Z");
}
}
@keyframes zr2-ani-35 {
0% {
d:path("M87.6 343.8A187.5 187.5 0 0 1 65.3 282.6L65.3 282.6A187.5 187.5 0 0 0 87.6 343.8Z");
}
100% {
d:path("M76.8 350A200 200 0 0 1 53 284.7L65.3 282.6A187.5 187.5 0 0 0 87.6 343.8Z");
}
}
@keyframes zr2-ani-36 {
0% {
d:path("M77.7 280.4A175 175 0 0 1 77.7 219.6L77.7 219.6A175 175 0 0 0 77.7 280.4Z");
}
100% {
d:path("M65.3 282.6A187.5 187.5 0 0 1 65.3 217.4L77.7 219.6A175 175 0 0 0 77.7 280.4Z");
}
}
@keyframes zr2-ani-37 {
0% {
d:path("M65.3 282.6A187.5 187.5 0 0 1 65.3 217.4L65.3 217.4A187.5 187.5 0 0 0 65.3 282.6Z");
}
100% {
d:path("M53 284.7A200 200 0 0 1 53 215.3L65.3 217.4A187.5 187.5 0 0 0 65.3 282.6Z");
}
}
@keyframes zr2-ani-38 {
0% {
d:path("M53 284.7A200 200 0 0 1 53 215.3L53 215.3A200 200 0 0 0 53 284.7Z");
}
100% {
d:path("M40.7 286.9A212.5 212.5 0 0 1 40.7 213.1L53 215.3A200 200 0 0 0 53 284.7Z");
}
}
@keyframes zr2-ani-39 {
0% {
d:path("M237.7 247.8A12.5 12.5 0 0 1 242 240.4L242 240.4A12.5 12.5 0 0 0 237.7 247.8Z");
}
100% {
d:path("M225.4 245.7A25 25 0 0 1 233.9 230.8L242 240.4A12.5 12.5 0 0 0 237.7 247.8Z");
}
}
@keyframes zr2-ani-40 {
0% {
d:path("M225.4 245.7A25 25 0 0 1 233.9 230.8L233.9 230.8A25 25 0 0 0 225.4 245.7Z");
}
100% {
d:path("M213.1 243.5A37.5 37.5 0 0 1 225.9 221.3L233.9 230.8A25 25 0 0 0 225.4 245.7Z");
}
}
@keyframes zr2-ani-41 {
0% {
d:path("M242 240.4A12.5 12.5 0 0 1 250 237.5L250 237.5A12.5 12.5 0 0 0 242 240.4Z");
}
100% {
d:path("M233.9 230.8A25 25 0 0 1 250 225L250 237.5A12.5 12.5 0 0 0 242 240.4Z");
}
}
@keyframes zr2-ani-42 {
0% {
d:path("M233.9 230.8A25 25 0 0 1 250 225L250 225A25 25 0 0 0 233.9 230.8Z");
}
100% {
d:path("M225.9 221.3A37.5 37.5 0 0 1 250 212.5L250 225A25 25 0 0 0 233.9 230.8Z");
}
}
@keyframes zr2-ani-43 {
0% {
d:path("M225.9 221.3A37.5 37.5 0 0 1 237.2 214.8L237.2 214.8A37.5 37.5 0 0 0 225.9 221.3Z");
}
100% {
d:path("M217.9 211.7A50 50 0 0 1 232.9 203L237.2 214.8A37.5 37.5 0 0 0 225.9 221.3Z");
}
}
@keyframes zr2-ani-44 {
0% {
d:path("M237.2 214.8A37.5 37.5 0 0 1 250 212.5L250 212.5A37.5 37.5 0 0 0 237.2 214.8Z");
}
100% {
d:path("M232.9 203A50 50 0 0 1 250 200L250 212.5A37.5 37.5 0 0 0 237.2 214.8Z");
}
}
]]>

</style>
</svg>