<svg width="500" height="500" xmlns="http://www.w3.org/2000/svg" xmlns:xlink="http://www.w3.org/1999/xlink" version="1.1" baseProfile="full" viewBox="0 0 500 500">
<rect width="500" height="500" x="0" y="0" id="0" fill="none"></rect>
<path d="M250 226.4A23.6 23.6 0 1 1 247.6 226.5A23.6 23.6 0 0 1 250 226.4M250 237.5A12.5 12.5 0 1 0 251.2 237.6A12.5 12.5 0 0 0 250 237.5Z" fill="#000" stroke="white" stroke-linejoin="bevel" class="zr90-cls-0"></path>
<path d="M250 215.3A34.7 34.7 0 1 1 221.1 230.7L230.4 236.9A23.6 23.6 0 1 0 250 226.4Z" fill="#4949CD" fill-opacity="0.5" stroke="#fff" stroke-width="4" stroke-opacity="0.5" stroke-linejoin="bevel" class="zr90-cls-1"></path>
<path d="M250 204.2A45.8 45.8 0 1 1 211.9 224.5L221.1 230.7A34.7 34.7 0 1 0 250 215.3Z" fill="#000" stroke="white" stroke-linejoin="bevel" class="zr90-cls-2"></path>
<path d="M250 193.1A56.9 56.9 0 1 1 202.7 218.4L211.9 224.5A45.8 45.8 0 1 0 250 204.2Z" fill="#000" stroke="white" stroke-linejoin="bevel" class="zr90-cls-3"></path>
<path d="M250 181.9A68.1 68.1 0 1 1 187.1 224L197.4 228.2A56.9 56.9 0 1 0 250 193.1Z" fill="#4949CD" fill-opacity="0.5" stroke="#fff" stroke-width="4" stroke-opacity="0.5" stroke-linejoin="bevel" class="zr90-cls-4"></path>
<path d="M250 170.8A79.2 79.2 0 1 1 176.9 219.7L187.1 224A68.1 68.1 0 1 0 250 181.9Z" fill="#F3C142" stroke="white" stroke-linejoin="bevel" class="zr90-cls-5"></path>
<path d="M250 159.7A90.3 90.3 0 1 1 166.6 215.5L176.9 219.7A79.2 79.2 0 1 0 250 170.8Z" fill="#000" stroke="white" stroke-linejoin="bevel" class="zr90-cls-6"></path>
<path d="M250 148.6A101.4 101.4 0 1 1 156.3 211.2L166.6 215.5A90.3 90.3 0 1 0 250 159.7Z" fill="#000" stroke="white" stroke-linejoin="bevel" class="zr90-cls-7"></path>
<path d="M250 137.5A112.5 112.5 0 1 1 146.1 206.9L156.3 211.2A101.4 101.4 0 1 0 250 148.6Z" fill="#4949CD" fill-opacity="0.5" stroke="#fff" stroke-width="4" stroke-opacity="0.5" stroke-linejoin="bevel" class="zr90-cls-8"></path>
<path d="M250 126.4A123.6 123.6 0 1 1 135.8 202.7L146.1 206.9A112.5 112.5 0 1 0 250 137.5Z" fill="#000" stroke="white" stroke-linejoin="bevel" class="zr90-cls-9"></path>
<path d="M250 115.3A134.7 134.7 0 1 1 125.5 198.4L135.8 202.7A123.6 123.6 0 1 0 250 126.4Z" fill="#A0522D" stroke="white" stroke-linejoin="bevel" class="zr90-cls-10"></path>
<path d="M250 104.2A145.8 145.8 0 1 1 104.2 250L115.3 250A134.7 134.7 0 1 0 250 115.3Z" fill="#A0522D" stroke="white" stroke-linejoin="bevel" class="zr90-cls-11"></path>
<path d="M250 93.1A156.9 156.9 0 1 1 105 310.1L115.3 305.8A145.8 145.8 0 1 0 250 104.2Z" fill="#4949CD" fill-opacity="0.5" stroke="#fff" stroke-width="4" stroke-opacity="0.5" stroke-linejoin="bevel" class="zr90-cls-12"></path>
<path d="M250 81.9A168.1 168.1 0 0 1 368.8 368.8L361 361A156.9 156.9 0 0 0 250 93.1Z" fill="#A0522D" stroke="white" stroke-linejoin="bevel" class="zr90-cls-13"></path>
<path d="M250 70.8A179.2 179.2 0 0 1 399 150.5L389.7 156.6A168.1 168.1 0 0 0 250 81.9Z" fill="#A0522D" stroke="white" stroke-linejoin="bevel" class="zr90-cls-14"></path>
<path d="M250 59.7A190.3 190.3 0 0 1 408.2 144.3L399 150.5A179.2 179.2 0 0 0 250 70.8Z" fill="#A0522D" stroke="white" stroke-linejoin="bevel" class="zr90-cls-15"></path>
<path d="M250 48.6A201.4 201.4 0 0 1 417.4 138.1L408.2 144.3A190.3 190.3 0 0 0 250 59.7Z" fill="#ff4949" fill-opacity="0.5" stroke="#fff" stroke-width="4" stroke-opacity="0.5" stroke-linejoin="bevel" class="zr90-cls-16"></path>
<path d="M250 37.5A212.5 212.5 0 0 1 291.5 41.6L289.3 52.5A201.4 201.4 0 0 0 250 48.6Z" fill="#A0522D" stroke="white" stroke-linejoin="bevel" class="zr90-cls-17"></path>
<path d="M291.5 41.6A212.5 212.5 0 0 1 331.3 53.7L327.1 63.9A201.4 201.4 0 0 0 289.3 52.5Z" fill="#A0522D" stroke="white" stroke-linejoin="bevel" class="zr90-cls-18"></path>
<path d="M331.3 53.7A212.5 212.5 0 0 1 368.1 73.3L361.9 82.6A201.4 201.4 0 0 0 327.1 63.9Z" fill="#A0522D" stroke="white" stroke-linejoin="bevel" class="zr90-cls-19"></path>
<path d="M368.1 73.3A212.5 212.5 0 0 1 400.3 99.7L392.4 107.6A201.4 201.4 0 0 0 361.9 82.6Z" fill="#A0522D" stroke="white" stroke-linejoin="bevel" class="zr90-cls-20"></path>
<path d="M400.3 99.7A212.5 212.5 0 0 1 426.7 131.9L417.4 138.1A201.4 201.4 0 0 0 392.4 107.6Z" fill="#A0522D" stroke="white" stroke-linejoin="bevel" class="zr90-cls-21"></path>
<path d="M399 150.5A179.2 179.2 0 0 1 415.5 318.6L405.3 314.3A168.1 168.1 0 0 0 389.7 156.6Z" fill="#A0522D" stroke="white" stroke-linejoin="bevel" class="zr90-cls-22"></path>
<path d="M408.2 144.3A190.3 190.3 0 0 1 425.8 322.8L415.5 318.6A179.2 179.2 0 0 0 399 150.5Z" fill="#ff4949" fill-opacity="0.5" stroke="#fff" stroke-width="4" stroke-opacity="0.5" stroke-linejoin="bevel" class="zr90-cls-23"></path>
<path d="M417.4 138.1A201.4 201.4 0 0 1 436.1 172.9L425.8 177.2A190.3 190.3 0 0 0 408.2 144.3Z" fill="#A0522D" stroke="white" stroke-linejoin="bevel" class="zr90-cls-24"></path>
<path d="M436.1 172.9A201.4 201.4 0 0 1 447.5 210.7L436.6 212.9A190.3 190.3 0 0 0 425.8 177.2Z" fill="#A0522D" stroke="white" stroke-linejoin="bevel" class="zr90-cls-25"></path>
<path d="M447.5 210.7A201.4 201.4 0 0 1 451.4 250L440.3 250A190.3 190.3 0 0 0 436.6 212.9Z" fill="#A0522D" stroke="white" stroke-linejoin="bevel" class="zr90-cls-26"></path>
<path d="M451.4 250A201.4 201.4 0 0 1 447.5 289.3L436.6 287.1A190.3 190.3 0 0 0 440.3 250Z" fill="#A0522D" stroke="white" stroke-linejoin="bevel" class="zr90-cls-27"></path>
<path d="M447.5 289.3A201.4 201.4 0 0 1 436.1 327.1L425.8 322.8A190.3 190.3 0 0 0 436.6 287.1Z" fill="#A0522D" stroke="white" stroke-linejoin="bevel" class="zr90-cls-28"></path>
<path d="M415.5 318.6A179.2 179.2 0 0 1 399 349.5L389.7 343.4A168.1 168.1 0 0 0 405.3 314.3Z" fill="#A0522D" stroke="white" stroke-linejoin="bevel" class="zr90-cls-29"></path>
<path d="M399 349.5A179.2 179.2 0 0 1 376.7 376.7L368.8 368.8A168.1 168.1 0 0 0 389.7 343.4Z" fill="#A0522D" stroke="white" stroke-linejoin="bevel" class="zr90-cls-30"></path>
<path d="M408.2 355.7A190.3 190.3 0 0 1 384.5 384.5L376.7 376.7A179.2 179.2 0 0 0 399 349.5Z" fill="#A0522D" stroke="white" stroke-linejoin="bevel" class="zr90-cls-31"></path>
<path d="M368.8 368.8A168.1 168.1 0 0 1 94.7 314.3L105 310.1A156.9 156.9 0 0 0 361 361Z" fill="#A0522D" stroke="white" stroke-linejoin="bevel" class="zr90-cls-32"></path>
<path d="M376.7 376.7A179.2 179.2 0 0 1 215 425.7L217.2 414.8A168.1 168.1 0 0 0 368.8 368.8Z" fill="#A0522D" stroke="white" stroke-linejoin="bevel" class="zr90-cls-33"></path>
<path d="M384.5 384.5A190.3 190.3 0 0 1 212.9 436.6L215 425.7A179.2 179.2 0 0 0 376.7 376.7Z" fill="#ff4949" fill-opacity="0.5" stroke="#fff" stroke-width="4" stroke-opacity="0.5" stroke-linejoin="bevel" class="zr90-cls-34"></path>
<path d="M392.4 392.4A201.4 201.4 0 0 1 361.9 417.4L355.7 408.2A190.3 190.3 0 0 0 384.5 384.5Z" fill="#A0522D" stroke="white" stroke-linejoin="bevel" class="zr90-cls-35"></path>
<path d="M361.9 417.4A201.4 201.4 0 0 1 327.1 436.1L322.8 425.8A190.3 190.3 0 0 0 355.7 408.2Z" fill="#A0522D" stroke="white" stroke-linejoin="bevel" class="zr90-cls-36"></path>
<path d="M327.1 436.1A201.4 201.4 0 0 1 289.3 447.5L287.1 436.6A190.3 190.3 0 0 0 322.8 425.8Z" fill="#A0522D" stroke="white" stroke-linejoin="bevel" class="zr90-cls-37"></path>
<path d="M289.3 447.5A201.4 201.4 0 0 1 250 451.4L250 440.3A190.3 190.3 0 0 0 287.1 436.6Z" fill="#A0522D" stroke="white" stroke-linejoin="bevel" class="zr90-cls-38"></path>
<path d="M250 451.4A201.4 201.4 0 0 1 210.7 447.5L212.9 436.6A190.3 190.3 0 0 0 250 440.3Z" fill="#A0522D" stroke="white" stroke-linejoin="bevel" class="zr90-cls-39"></path>
<path d="M215 425.7A179.2 179.2 0 0 1 123.3 376.7L131.2 368.8A168.1 168.1 0 0 0 217.2 414.8Z" fill="#A0522D" stroke="white" stroke-linejoin="bevel" class="zr90-cls-40"></path>
<path d="M212.9 436.6A190.3 190.3 0 0 1 115.5 384.5L123.3 376.7A179.2 179.2 0 0 0 215 425.7Z" fill="#A0522D" stroke="white" stroke-linejoin="bevel" class="zr90-cls-41"></path>
<path d="M210.7 447.5A201.4 201.4 0 0 1 107.6 392.4L115.5 384.5A190.3 190.3 0 0 0 212.9 436.6Z" fill="#ff4949" fill-opacity="0.5" stroke="#fff" stroke-width="4" stroke-opacity="0.5" stroke-linejoin="bevel" class="zr90-cls-42"></path>
<path d="M208.5 458.4A212.5 212.5 0 0 1 168.7 446.3L172.9 436.1A201.4 201.4 0 0 0 210.7 447.5Z" fill="#A0522D" stroke="white" stroke-linejoin="bevel" class="zr90-cls-43"></path>
<path d="M168.7 446.3A212.5 212.5 0 0 1 131.9 426.7L138.1 417.4A201.4 201.4 0 0 0 172.9 436.1Z" fill="#A0522D" stroke="white" stroke-linejoin="bevel" class="zr90-cls-44"></path>
<path d="M131.9 426.7A212.5 212.5 0 0 1 99.7 400.3L107.6 392.4A201.4 201.4 0 0 0 138.1 417.4Z" fill="#A0522D" stroke="white" stroke-linejoin="bevel" class="zr90-cls-45"></path>
<path d="M123.3 376.7A179.2 179.2 0 0 1 101 349.5L110.3 343.4A168.1 168.1 0 0 0 131.2 368.8Z" fill="#A0522D" stroke="white" stroke-linejoin="bevel" class="zr90-cls-46"></path>
<path d="M101 349.5A179.2 179.2 0 0 1 84.5 318.6L94.7 314.3A168.1 168.1 0 0 0 110.3 343.4Z" fill="#A0522D" stroke="white" stroke-linejoin="bevel" class="zr90-cls-47"></path>
<path d="M91.8 355.7A190.3 190.3 0 0 1 74.2 322.8L84.5 318.6A179.2 179.2 0 0 0 101 349.5Z" fill="#A0522D" stroke="white" stroke-linejoin="bevel" class="zr90-cls-48"></path>
<path d="M105 310.1A156.9 156.9 0 0 1 93.1 250L104.2 250A145.8 145.8 0 0 0 115.3 305.8Z" fill="#49ff49" fill-opacity="0.5" stroke="#fff" stroke-width="4" stroke-opacity="0.5" stroke-linejoin="bevel" class="zr90-cls-49"></path>
<path d="M94.7 314.3A168.1 168.1 0 0 1 85.2 282.8L96.1 280.6A156.9 156.9 0 0 0 105 310.1Z" fill="#A0522D" stroke="white" stroke-linejoin="bevel" class="zr90-cls-50"></path>
<path d="M85.2 282.8A168.1 168.1 0 0 1 81.9 250L93.1 250A156.9 156.9 0 0 0 96.1 280.6Z" fill="#A0522D" stroke="white" stroke-linejoin="bevel" class="zr90-cls-51"></path>
<path d="M104.2 250A145.8 145.8 0 0 1 115.3 194.2L125.5 198.4A134.7 134.7 0 0 0 115.3 250Z" fill="#A0522D" stroke="white" stroke-linejoin="bevel" class="zr90-cls-52"></path>
<path d="M93.1 250A156.9 156.9 0 0 1 105 189.9L115.3 194.2A145.8 145.8 0 0 0 104.2 250Z" fill="#A0522D" stroke="white" stroke-linejoin="bevel" class="zr90-cls-53"></path>
<path d="M81.9 250A168.1 168.1 0 0 1 94.7 185.7L105 189.9A156.9 156.9 0 0 0 93.1 250Z" fill="#49ff49" fill-opacity="0.5" stroke="#fff" stroke-width="4" stroke-opacity="0.5" stroke-linejoin="bevel" class="zr90-cls-54"></path>
<path d="M70.8 250A179.2 179.2 0 0 1 74.3 215L85.2 217.2A168.1 168.1 0 0 0 81.9 250Z" fill="#A0522D" stroke="white" stroke-linejoin="bevel" class="zr90-cls-55"></path>
<path d="M74.3 215A179.2 179.2 0 0 1 84.5 181.4L94.7 185.7A168.1 168.1 0 0 0 85.2 217.2Z" fill="#A0522D" stroke="white" stroke-linejoin="bevel" class="zr90-cls-56"></path>
<path d="M187.1 224A68.1 68.1 0 0 1 193.4 212.2L202.7 218.4A56.9 56.9 0 0 0 197.4 228.2Z" fill="#49ff49" fill-opacity="0.5" stroke="#fff" stroke-width="4" stroke-opacity="0.5" stroke-linejoin="bevel" class="zr90-cls-57"></path>
<path d="M176.9 219.7A79.2 79.2 0 0 1 184.2 206L193.4 212.2A68.1 68.1 0 0 0 187.1 224Z" fill="#0AA40D" stroke="white" stroke-linejoin="bevel" class="zr90-cls-58"></path>
<path d="M221.1 230.7A34.7 34.7 0 0 1 243.2 215.9L245.4 226.8A23.6 23.6 0 0 0 230.4 236.9Z" fill="#49ff49" fill-opacity="0.5" stroke="#fff" stroke-width="4" stroke-opacity="0.5" stroke-linejoin="bevel" class="zr90-cls-59"></path>
<path d="M211.9 224.5A45.8 45.8 0 0 1 224.5 211.9L230.7 221.1A34.7 34.7 0 0 0 221.1 230.7Z" fill="#000" stroke="white" stroke-linejoin="bevel" class="zr90-cls-60"></path>
<path d="M202.7 218.4A56.9 56.9 0 0 1 209.7 209.7L217.6 217.6A45.8 45.8 0 0 0 211.9 224.5Z" fill="#F3C142" stroke="white" stroke-linejoin="bevel" class="zr90-cls-61"></path>
<path d="M209.7 209.7A56.9 56.9 0 0 1 218.4 202.7L224.5 211.9A45.8 45.8 0 0 0 217.6 217.6Z" fill="#0AA40D" stroke="white" stroke-linejoin="bevel" class="zr90-cls-62"></path>
<path d="M224.5 211.9A45.8 45.8 0 0 1 241.1 205L243.2 215.9A34.7 34.7 0 0 0 230.7 221.1Z" fill="#000" stroke="white" stroke-linejoin="bevel" class="zr90-cls-63"></path>
<path d="M218.4 202.7A56.9 56.9 0 0 1 228.2 197.4L232.5 207.7A45.8 45.8 0 0 0 224.5 211.9Z" fill="#FF0000" stroke="white" stroke-linejoin="bevel" class="zr90-cls-64"></path>
<path d="M228.2 197.4A56.9 56.9 0 0 1 238.9 194.1L241.1 205A45.8 45.8 0 0 0 232.5 207.7Z" fill="#6dc0e3" stroke="white" stroke-linejoin="bevel" class="zr90-cls-65"></path>
<path d="M243.2 215.9A34.7 34.7 0 0 1 250 215.3L250 226.4A23.6 23.6 0 0 0 245.4 226.8Z" fill="#ff4949" fill-opacity="0.5" stroke="#fff" stroke-width="4" stroke-opacity="0.5" stroke-linejoin="bevel" class="zr90-cls-66"></path>
<path d="M241.1 205A45.8 45.8 0 0 1 250 204.2L250 215.3A34.7 34.7 0 0 0 243.2 215.9Z" fill="#000" stroke="white" stroke-linejoin="bevel" class="zr90-cls-67"></path>
<path d="M238.9 194.1A56.9 56.9 0 0 1 250 193.1L250 204.2A45.8 45.8 0 0 0 241.1 205Z" fill="#0AA40D" stroke="white" stroke-linejoin="bevel" class="zr90-cls-68"></path>
<text dominant-baseline="central" text-anchor="middle" style="font-size:9px;font-family:sans-serif;" transform="matrix(0.882,-0.471,0.471,0.882,268.9868,285.5218)" fill="#ccc" stroke="#000" stroke-width="2" paint-order="stroke" stroke-miterlimit="2">/orden-pago</text>
<text dominant-baseline="central" text-anchor="middle" style="font-size:9px;font-family:sans-serif;" transform="matrix(0.882,-0.471,0.471,0.882,274.2246,295.321)" fill="#ccc" stroke="#000" stroke-width="2" paint-order="stroke" stroke-miterlimit="2">operations</text>
<text dominant-baseline="central" text-anchor="middle" style="font-size:12px;font-family:sans-serif;" transform="matrix(0.831,-0.556,0.556,0.831,290.8961,311.2054)" fill="#333">POST</text>
<text dominant-baseline="central" text-anchor="middle" style="font-size:10px;font-family:sans-serif;" transform="matrix(0.831,-0.556,0.556,0.831,303.2421,329.6825)" fill="#ccc" stroke="#000" stroke-width="2" paint-order="stroke" stroke-miterlimit="2">content</text>
<text dominant-baseline="central" text-anchor="middle" style="font-size:9px;font-family:sans-serif;" transform="matrix(0.707,-0.707,0.707,0.707,349.1914,349.1914)" fill="#eee" stroke="#A0522D" stroke-width="2" paint-order="stroke" stroke-miterlimit="2">properties</text>
<text dominant-baseline="central" text-anchor="middle" style="font-size:9px;font-family:sans-serif;" transform="matrix(0.882,0.471,-0.471,0.882,337.0775,87.0895)" fill="#eee" stroke="#A0522D" stroke-width="2" paint-order="stroke" stroke-miterlimit="2">stringsdiff</text>
<text dominant-baseline="central" text-anchor="middle" style="font-size:12px;font-family:sans-serif;" transform="matrix(0.634,0.773,-0.773,0.634,409.9702,118.7158)" fill="#eee" stroke="#A0522D" stroke-width="2" paint-order="stroke" stroke-miterlimit="2">Activo</text>
<text dominant-baseline="central" text-anchor="middle" style="font-size:9px;font-family:sans-serif;" transform="matrix(0.098,0.995,-0.995,0.098,422.7751,232.9831)" fill="#eee" stroke="#A0522D" stroke-width="2" paint-order="stroke" stroke-miterlimit="2">properties</text>
<text dominant-baseline="central" text-anchor="middle" style="font-size:12px;font-family:sans-serif;" transform="matrix(0.471,0.882,-0.882,0.471,422.7096,157.6848)" fill="#eee" stroke="#A0522D" stroke-width="2" paint-order="stroke" stroke-miterlimit="2">Activo</text>
<text dominant-baseline="central" text-anchor="middle" style="font-size:12px;font-family:sans-serif;" transform="matrix(0.471,-0.882,0.882,0.471,403.1113,331.8397)" fill="#eee" stroke="#A0522D" stroke-width="2" paint-order="stroke" stroke-miterlimit="2">type</text>
<text dominant-baseline="central" text-anchor="middle" style="font-size:12px;font-family:sans-serif;" transform="matrix(0.634,-0.773,0.773,0.634,384.2032,360.1377)" fill="#eee" stroke="#A0522D" stroke-width="2" paint-order="stroke" stroke-miterlimit="2">items</text>
<text dominant-baseline="central" text-anchor="middle" style="font-size:9px;font-family:sans-serif;" transform="matrix(0.957,-0.29,0.29,0.957,300.3966,416.1355)" fill="#eee" stroke="#A0522D" stroke-width="2" paint-order="stroke" stroke-miterlimit="2">properties</text>
<text dominant-baseline="central" text-anchor="middle" style="font-size:12px;font-family:sans-serif;" transform="matrix(0.995,-0.098,0.098,0.995,269.195,444.8903)" fill="#eee" stroke="#A0522D" stroke-width="2" paint-order="stroke" stroke-miterlimit="2">Activo</text>
<text dominant-baseline="central" text-anchor="middle" style="font-size:9px;font-family:sans-serif;" transform="matrix(0.882,0.471,-0.471,0.882,162.9225,412.9105)" fill="#eee" stroke="#A0522D" stroke-width="2" paint-order="stroke" stroke-miterlimit="2">stringsdiff</text>
<text dominant-baseline="central" text-anchor="middle" style="font-size:12px;font-family:sans-serif;" transform="matrix(0.773,0.634,-0.634,0.773,118.7158,409.9702)" fill="#eee" stroke="#A0522D" stroke-width="2" paint-order="stroke" stroke-miterlimit="2">Activo</text>
<text dominant-baseline="central" text-anchor="middle" style="font-size:12px;font-family:sans-serif;" transform="matrix(0.634,0.773,-0.773,0.634,115.7968,360.1377)" fill="#eee" stroke="#A0522D" stroke-width="2" paint-order="stroke" stroke-miterlimit="2">type</text>
<text dominant-baseline="central" text-anchor="middle" style="font-size:12px;font-family:sans-serif;" transform="matrix(0.471,0.882,-0.882,0.471,96.8887,331.8397)" fill="#eee" stroke="#A0522D" stroke-width="2" paint-order="stroke" stroke-miterlimit="2">items</text>
<text dominant-baseline="central" text-anchor="middle" style="font-size:9px;font-family:sans-serif;" transform="matrix(0.195,-0.981,0.981,0.195,101.52,220.4655)" fill="#eee" stroke="#A0522D" stroke-width="2" paint-order="stroke" stroke-miterlimit="2">stringsdiff</text>
<text dominant-baseline="central" text-anchor="middle" style="font-size:12px;font-family:sans-serif;" transform="matrix(0.471,-0.882,0.882,0.471,185.0808,215.3)" fill="#eee" stroke="#0AA40D" stroke-width="2" paint-order="stroke" stroke-miterlimit="2">GET</text>
<text dominant-baseline="central" text-anchor="middle" style="font-size:9px;font-family:sans-serif;" transform="matrix(0.707,-0.707,0.707,0.707,221.5193,221.5193)" fill="#ccc" stroke="#000" stroke-width="2" paint-order="stroke" stroke-miterlimit="2">/orden-pago</text>
<path d="M-14.8 -16l66.6 0l0 32l-66.6 0Z" transform="translate(448.253 16)" fill="none" stroke="#ccc" stroke-width="0"></path>
<path d="M-7.3 -1.8L-0.1 4.8L7.3 -1.6M-7.3 4.3L-7.3 8.5L7.1 8.5L7.1 4.3M-0.1 4.7L-0.1 -8.5" transform="translate(448.253 16)" fill="none" stroke="#666"></path>
<path d="M-7.9 1M5.1 -3.4L8.1 -3.4L8.1 -6.4M8 -3C6.7 -6.4 3.2 -8.9 -1 -8.4C-5.3 -8 -8.6 -4.2 -8.4 0.2M-5.1 3.4L-8.1 3.4L-8.1 6.4M-8 3C-6.7 6.4 -3.2 8.9 1 8.4C5.3 8 8.6 4.2 8.4 -0.2" transform="translate(484.0476 16)" fill="none" stroke="#666"></path>
<style ><![CDATA[
.zr90-cls-0 {
animation:zr90-ani-0 1s cubic-bezier(0.65,0,0.35,1) both;
}
.zr90-cls-1 {
animation:zr90-ani-1 1s cubic-bezier(0.65,0,0.35,1) both;
}
.zr90-cls-2 {
animation:zr90-ani-2 1s cubic-bezier(0.65,0,0.35,1) both;
}
.zr90-cls-3 {
animation:zr90-ani-3 1s cubic-bezier(0.65,0,0.35,1) both;
}
.zr90-cls-4 {
animation:zr90-ani-4 1s cubic-bezier(0.65,0,0.35,1) both;
}
.zr90-cls-5 {
animation:zr90-ani-5 1s cubic-bezier(0.65,0,0.35,1) both;
}
.zr90-cls-6 {
animation:zr90-ani-6 1s cubic-bezier(0.65,0,0.35,1) both;
}
.zr90-cls-7 {
animation:zr90-ani-7 1s cubic-bezier(0.65,0,0.35,1) both;
}
.zr90-cls-8 {
animation:zr90-ani-8 1s cubic-bezier(0.65,0,0.35,1) both;
}
.zr90-cls-9 {
animation:zr90-ani-9 1s cubic-bezier(0.65,0,0.35,1) both;
}
.zr90-cls-10 {
animation:zr90-ani-10 1s cubic-bezier(0.65,0,0.35,1) both;
}
.zr90-cls-11 {
animation:zr90-ani-11 1s cubic-bezier(0.65,0,0.35,1) both;
}
.zr90-cls-12 {
animation:zr90-ani-12 1s cubic-bezier(0.65,0,0.35,1) both;
}
.zr90-cls-13 {
animation:zr90-ani-13 1s cubic-bezier(0.65,0,0.35,1) both;
}
.zr90-cls-14 {
animation:zr90-ani-14 1s cubic-bezier(0.65,0,0.35,1) both;
}
.zr90-cls-15 {
animation:zr90-ani-15 1s cubic-bezier(0.65,0,0.35,1) both;
}
.zr90-cls-16 {
animation:zr90-ani-16 1s cubic-bezier(0.65,0,0.35,1) both;
}
.zr90-cls-17 {
animation:zr90-ani-17 1s cubic-bezier(0.65,0,0.35,1) both;
}
.zr90-cls-18 {
animation:zr90-ani-18 1s cubic-bezier(0.65,0,0.35,1) both;
}
.zr90-cls-19 {
animation:zr90-ani-19 1s cubic-bezier(0.65,0,0.35,1) both;
}
.zr90-cls-20 {
animation:zr90-ani-20 1s cubic-bezier(0.65,0,0.35,1) both;
}
.zr90-cls-21 {
animation:zr90-ani-21 1s cubic-bezier(0.65,0,0.35,1) both;
}
.zr90-cls-22 {
animation:zr90-ani-22 1s cubic-bezier(0.65,0,0.35,1) both;
}
.zr90-cls-23 {
animation:zr90-ani-23 1s cubic-bezier(0.65,0,0.35,1) both;
}
.zr90-cls-24 {
animation:zr90-ani-24 1s cubic-bezier(0.65,0,0.35,1) both;
}
.zr90-cls-25 {
animation:zr90-ani-25 1s cubic-bezier(0.65,0,0.35,1) both;
}
.zr90-cls-26 {
animation:zr90-ani-26 1s cubic-bezier(0.65,0,0.35,1) both;
}
.zr90-cls-27 {
animation:zr90-ani-27 1s cubic-bezier(0.65,0,0.35,1) both;
}
.zr90-cls-28 {
animation:zr90-ani-28 1s cubic-bezier(0.65,0,0.35,1) both;
}
.zr90-cls-29 {
animation:zr90-ani-29 1s cubic-bezier(0.65,0,0.35,1) both;
}
.zr90-cls-30 {
animation:zr90-ani-30 1s cubic-bezier(0.65,0,0.35,1) both;
}
.zr90-cls-31 {
animation:zr90-ani-31 1s cubic-bezier(0.65,0,0.35,1) both;
}
.zr90-cls-32 {
animation:zr90-ani-32 1s cubic-bezier(0.65,0,0.35,1) both;
}
.zr90-cls-33 {
animation:zr90-ani-33 1s cubic-bezier(0.65,0,0.35,1) both;
}
.zr90-cls-34 {
animation:zr90-ani-34 1s cubic-bezier(0.65,0,0.35,1) both;
}
.zr90-cls-35 {
animation:zr90-ani-35 1s cubic-bezier(0.65,0,0.35,1) both;
}
.zr90-cls-36 {
animation:zr90-ani-36 1s cubic-bezier(0.65,0,0.35,1) both;
}
.zr90-cls-37 {
animation:zr90-ani-37 1s cubic-bezier(0.65,0,0.35,1) both;
}
.zr90-cls-38 {
animation:zr90-ani-38 1s cubic-bezier(0.65,0,0.35,1) both;
}
.zr90-cls-39 {
animation:zr90-ani-39 1s cubic-bezier(0.65,0,0.35,1) both;
}
.zr90-cls-40 {
animation:zr90-ani-40 1s cubic-bezier(0.65,0,0.35,1) both;
}
.zr90-cls-41 {
animation:zr90-ani-41 1s cubic-bezier(0.65,0,0.35,1) both;
}
.zr90-cls-42 {
animation:zr90-ani-42 1s cubic-bezier(0.65,0,0.35,1) both;
}
.zr90-cls-43 {
animation:zr90-ani-43 1s cubic-bezier(0.65,0,0.35,1) both;
}
.zr90-cls-44 {
animation:zr90-ani-44 1s cubic-bezier(0.65,0,0.35,1) both;
}
.zr90-cls-45 {
animation:zr90-ani-45 1s cubic-bezier(0.65,0,0.35,1) both;
}
.zr90-cls-46 {
animation:zr90-ani-46 1s cubic-bezier(0.65,0,0.35,1) both;
}
.zr90-cls-47 {
animation:zr90-ani-47 1s cubic-bezier(0.65,0,0.35,1) both;
}
.zr90-cls-48 {
animation:zr90-ani-48 1s cubic-bezier(0.65,0,0.35,1) both;
}
.zr90-cls-49 {
animation:zr90-ani-49 1s cubic-bezier(0.65,0,0.35,1) both;
}
.zr90-cls-50 {
animation:zr90-ani-50 1s cubic-bezier(0.65,0,0.35,1) both;
}
.zr90-cls-51 {
animation:zr90-ani-51 1s cubic-bezier(0.65,0,0.35,1) both;
}
.zr90-cls-52 {
animation:zr90-ani-52 1s cubic-bezier(0.65,0,0.35,1) both;
}
.zr90-cls-53 {
animation:zr90-ani-53 1s cubic-bezier(0.65,0,0.35,1) both;
}
.zr90-cls-54 {
animation:zr90-ani-54 1s cubic-bezier(0.65,0,0.35,1) both;
}
.zr90-cls-55 {
animation:zr90-ani-55 1s cubic-bezier(0.65,0,0.35,1) both;
}
.zr90-cls-56 {
animation:zr90-ani-56 1s cubic-bezier(0.65,0,0.35,1) both;
}
.zr90-cls-57 {
animation:zr90-ani-57 1s cubic-bezier(0.65,0,0.35,1) both;
}
.zr90-cls-58 {
animation:zr90-ani-58 1s cubic-bezier(0.65,0,0.35,1) both;
}
.zr90-cls-59 {
animation:zr90-ani-59 1s cubic-bezier(0.65,0,0.35,1) both;
}
.zr90-cls-60 {
animation:zr90-ani-60 1s cubic-bezier(0.65,0,0.35,1) both;
}
.zr90-cls-61 {
animation:zr90-ani-61 1s cubic-bezier(0.65,0,0.35,1) both;
}
.zr90-cls-62 {
animation:zr90-ani-62 1s cubic-bezier(0.65,0,0.35,1) both;
}
.zr90-cls-63 {
animation:zr90-ani-63 1s cubic-bezier(0.65,0,0.35,1) both;
}
.zr90-cls-64 {
animation:zr90-ani-64 1s cubic-bezier(0.65,0,0.35,1) both;
}
.zr90-cls-65 {
animation:zr90-ani-65 1s cubic-bezier(0.65,0,0.35,1) both;
}
.zr90-cls-66 {
animation:zr90-ani-66 1s cubic-bezier(0.65,0,0.35,1) both;
}
.zr90-cls-67 {
animation:zr90-ani-67 1s cubic-bezier(0.65,0,0.35,1) both;
}
.zr90-cls-68 {
animation:zr90-ani-68 1s cubic-bezier(0.65,0,0.35,1) both;
}
@keyframes zr90-ani-0 {
0% {
d:path("M250 237.5A12.5 12.5 0 1 1 248.8 237.6A12.5 12.5 0 0 1 250 237.5M250 237.5A12.5 12.5 0 1 0 251.2 237.6A12.5 12.5 0 0 0 250 237.5Z");
}
100% {
d:path("M250 226.4A23.6 23.6 0 1 1 247.6 226.5A23.6 23.6 0 0 1 250 226.4M250 237.5A12.5 12.5 0 1 0 251.2 237.6A12.5 12.5 0 0 0 250 237.5Z");
}
}
@keyframes zr90-ani-1 {
0% {
d:path("M250 226.4A23.6 23.6 0 1 1 230.4 236.9L230.4 236.9A23.6 23.6 0 1 0 250 226.4Z");
}
100% {
d:path("M250 215.3A34.7 34.7 0 1 1 221.1 230.7L230.4 236.9A23.6 23.6 0 1 0 250 226.4Z");
}
}
@keyframes zr90-ani-2 {
0% {
d:path("M250 215.3A34.7 34.7 0 1 1 221.1 230.7A34.7 34.7 0 1 0 250 215.3Z");
}
100% {
d:path("M250 204.2A45.8 45.8 0 1 1 211.9 224.5L221.1 230.7A34.7 34.7 0 1 0 250 215.3Z");
}
}
@keyframes zr90-ani-3 {
0% {
d:path("M250 204.2A45.8 45.8 0 1 1 211.9 224.5L211.9 224.5A45.8 45.8 0 1 0 250 204.2Z");
}
100% {
d:path("M250 193.1A56.9 56.9 0 1 1 202.7 218.4L211.9 224.5A45.8 45.8 0 1 0 250 204.2Z");
}
}
@keyframes zr90-ani-4 {
0% {
d:path("M250 193.1A56.9 56.9 0 1 1 197.4 228.2L197.4 228.2A56.9 56.9 0 1 0 250 193.1Z");
}
100% {
d:path("M250 181.9A68.1 68.1 0 1 1 187.1 224L197.4 228.2A56.9 56.9 0 1 0 250 193.1Z");
}
}
@keyframes zr90-ani-5 {
0% {
d:path("M250 181.9A68.1 68.1 0 1 1 187.1 224L187.1 224A68.1 68.1 0 1 0 250 181.9Z");
}
100% {
d:path("M250 170.8A79.2 79.2 0 1 1 176.9 219.7L187.1 224A68.1 68.1 0 1 0 250 181.9Z");
}
}
@keyframes zr90-ani-6 {
0% {
d:path("M250 170.8A79.2 79.2 0 1 1 176.9 219.7L176.9 219.7A79.2 79.2 0 1 0 250 170.8Z");
}
100% {
d:path("M250 159.7A90.3 90.3 0 1 1 166.6 215.5L176.9 219.7A79.2 79.2 0 1 0 250 170.8Z");
}
}
@keyframes zr90-ani-7 {
0% {
d:path("M250 159.7A90.3 90.3 0 1 1 166.6 215.5L166.6 215.5A90.3 90.3 0 1 0 250 159.7Z");
}
100% {
d:path("M250 148.6A101.4 101.4 0 1 1 156.3 211.2L166.6 215.5A90.3 90.3 0 1 0 250 159.7Z");
}
}
@keyframes zr90-ani-8 {
0% {
d:path("M250 148.6A101.4 101.4 0 1 1 156.3 211.2L156.3 211.2A101.4 101.4 0 1 0 250 148.6Z");
}
100% {
d:path("M250 137.5A112.5 112.5 0 1 1 146.1 206.9L156.3 211.2A101.4 101.4 0 1 0 250 148.6Z");
}
}
@keyframes zr90-ani-9 {
0% {
d:path("M250 137.5A112.5 112.5 0 1 1 146.1 206.9L146.1 206.9A112.5 112.5 0 1 0 250 137.5Z");
}
100% {
d:path("M250 126.4A123.6 123.6 0 1 1 135.8 202.7L146.1 206.9A112.5 112.5 0 1 0 250 137.5Z");
}
}
@keyframes zr90-ani-10 {
0% {
d:path("M250 126.4A123.6 123.6 0 1 1 135.8 202.7L135.8 202.7A123.6 123.6 0 1 0 250 126.4Z");
}
100% {
d:path("M250 115.3A134.7 134.7 0 1 1 125.5 198.4L135.8 202.7A123.6 123.6 0 1 0 250 126.4Z");
}
}
@keyframes zr90-ani-11 {
0% {
d:path("M250 115.3A134.7 134.7 0 1 1 115.3 250L115.3 250A134.7 134.7 0 1 0 250 115.3Z");
}
100% {
d:path("M250 104.2A145.8 145.8 0 1 1 104.2 250L115.3 250A134.7 134.7 0 1 0 250 115.3Z");
}
}
@keyframes zr90-ani-12 {
0% {
d:path("M250 104.2A145.8 145.8 0 1 1 115.3 305.8L115.3 305.8A145.8 145.8 0 1 0 250 104.2Z");
}
100% {
d:path("M250 93.1A156.9 156.9 0 1 1 105 310.1L115.3 305.8A145.8 145.8 0 1 0 250 104.2Z");
}
}
@keyframes zr90-ani-13 {
0% {
d:path("M250 93.1A156.9 156.9 0 0 1 361 361A156.9 156.9 0 0 0 250 93.1Z");
}
100% {
d:path("M250 81.9A168.1 168.1 0 0 1 368.8 368.8L361 361A156.9 156.9 0 0 0 250 93.1Z");
}
}
@keyframes zr90-ani-14 {
0% {
d:path("M250 81.9A168.1 168.1 0 0 1 389.7 156.6A168.1 168.1 0 0 0 250 81.9Z");
}
100% {
d:path("M250 70.8A179.2 179.2 0 0 1 399 150.5L389.7 156.6A168.1 168.1 0 0 0 250 81.9Z");
}
}
@keyframes zr90-ani-15 {
0% {
d:path("M250 70.8A179.2 179.2 0 0 1 399 150.5A179.2 179.2 0 0 0 250 70.8Z");
}
100% {
d:path("M250 59.7A190.3 190.3 0 0 1 408.2 144.3L399 150.5A179.2 179.2 0 0 0 250 70.8Z");
}
}
@keyframes zr90-ani-16 {
0% {
d:path("M250 59.7A190.3 190.3 0 0 1 408.2 144.3A190.3 190.3 0 0 0 250 59.7Z");
}
100% {
d:path("M250 48.6A201.4 201.4 0 0 1 417.4 138.1L408.2 144.3A190.3 190.3 0 0 0 250 59.7Z");
}
}
@keyframes zr90-ani-17 {
0% {
d:path("M250 48.6A201.4 201.4 0 0 1 289.3 52.5A201.4 201.4 0 0 0 250 48.6Z");
}
100% {
d:path("M250 37.5A212.5 212.5 0 0 1 291.5 41.6L289.3 52.5A201.4 201.4 0 0 0 250 48.6Z");
}
}
@keyframes zr90-ani-18 {
0% {
d:path("M289.3 52.5A201.4 201.4 0 0 1 327.1 63.9L327.1 63.9A201.4 201.4 0 0 0 289.3 52.5Z");
}
100% {
d:path("M291.5 41.6A212.5 212.5 0 0 1 331.3 53.7L327.1 63.9A201.4 201.4 0 0 0 289.3 52.5Z");
}
}
@keyframes zr90-ani-19 {
0% {
d:path("M327.1 63.9A201.4 201.4 0 0 1 361.9 82.6L361.9 82.6A201.4 201.4 0 0 0 327.1 63.9Z");
}
100% {
d:path("M331.3 53.7A212.5 212.5 0 0 1 368.1 73.3L361.9 82.6A201.4 201.4 0 0 0 327.1 63.9Z");
}
}
@keyframes zr90-ani-20 {
0% {
d:path("M361.9 82.6A201.4 201.4 0 0 1 392.4 107.6L392.4 107.6A201.4 201.4 0 0 0 361.9 82.6Z");
}
100% {
d:path("M368.1 73.3A212.5 212.5 0 0 1 400.3 99.7L392.4 107.6A201.4 201.4 0 0 0 361.9 82.6Z");
}
}
@keyframes zr90-ani-21 {
0% {
d:path("M392.4 107.6A201.4 201.4 0 0 1 417.4 138.1A201.4 201.4 0 0 0 392.4 107.6Z");
}
100% {
d:path("M400.3 99.7A212.5 212.5 0 0 1 426.7 131.9L417.4 138.1A201.4 201.4 0 0 0 392.4 107.6Z");
}
}
@keyframes zr90-ani-22 {
0% {
d:path("M389.7 156.6A168.1 168.1 0 0 1 405.3 314.3A168.1 168.1 0 0 0 389.7 156.6Z");
}
100% {
d:path("M399 150.5A179.2 179.2 0 0 1 415.5 318.6L405.3 314.3A168.1 168.1 0 0 0 389.7 156.6Z");
}
}
@keyframes zr90-ani-23 {
0% {
d:path("M399 150.5A179.2 179.2 0 0 1 415.5 318.6A179.2 179.2 0 0 0 399 150.5Z");
}
100% {
d:path("M408.2 144.3A190.3 190.3 0 0 1 425.8 322.8L415.5 318.6A179.2 179.2 0 0 0 399 150.5Z");
}
}
@keyframes zr90-ani-24 {
0% {
d:path("M408.2 144.3A190.3 190.3 0 0 1 425.8 177.2L425.8 177.2A190.3 190.3 0 0 0 408.2 144.3Z");
}
100% {
d:path("M417.4 138.1A201.4 201.4 0 0 1 436.1 172.9L425.8 177.2A190.3 190.3 0 0 0 408.2 144.3Z");
}
}
@keyframes zr90-ani-25 {
0% {
d:path("M425.8 177.2A190.3 190.3 0 0 1 436.6 212.9L436.6 212.9A190.3 190.3 0 0 0 425.8 177.2Z");
}
100% {
d:path("M436.1 172.9A201.4 201.4 0 0 1 447.5 210.7L436.6 212.9A190.3 190.3 0 0 0 425.8 177.2Z");
}
}
@keyframes zr90-ani-26 {
0% {
d:path("M436.6 212.9A190.3 190.3 0 0 1 440.3 250L440.3 250A190.3 190.3 0 0 0 436.6 212.9Z");
}
100% {
d:path("M447.5 210.7A201.4 201.4 0 0 1 451.4 250L440.3 250A190.3 190.3 0 0 0 436.6 212.9Z");
}
}
@keyframes zr90-ani-27 {
0% {
d:path("M440.3 250A190.3 190.3 0 0 1 436.6 287.1A190.3 190.3 0 0 0 440.3 250Z");
}
100% {
d:path("M451.4 250A201.4 201.4 0 0 1 447.5 289.3L436.6 287.1A190.3 190.3 0 0 0 440.3 250Z");
}
}
@keyframes zr90-ani-28 {
0% {
d:path("M436.6 287.1A190.3 190.3 0 0 1 425.8 322.8A190.3 190.3 0 0 0 436.6 287.1Z");
}
100% {
d:path("M447.5 289.3A201.4 201.4 0 0 1 436.1 327.1L425.8 322.8A190.3 190.3 0 0 0 436.6 287.1Z");
}
}
@keyframes zr90-ani-29 {
0% {
d:path("M405.3 314.3A168.1 168.1 0 0 1 389.7 343.4A168.1 168.1 0 0 0 405.3 314.3Z");
}
100% {
d:path("M415.5 318.6A179.2 179.2 0 0 1 399 349.5L389.7 343.4A168.1 168.1 0 0 0 405.3 314.3Z");
}
}
@keyframes zr90-ani-30 {
0% {
d:path("M389.7 343.4A168.1 168.1 0 0 1 368.8 368.8A168.1 168.1 0 0 0 389.7 343.4Z");
}
100% {
d:path("M399 349.5A179.2 179.2 0 0 1 376.7 376.7L368.8 368.8A168.1 168.1 0 0 0 389.7 343.4Z");
}
}
@keyframes zr90-ani-31 {
0% {
d:path("M399 349.5A179.2 179.2 0 0 1 376.7 376.7A179.2 179.2 0 0 0 399 349.5Z");
}
100% {
d:path("M408.2 355.7A190.3 190.3 0 0 1 384.5 384.5L376.7 376.7A179.2 179.2 0 0 0 399 349.5Z");
}
}
@keyframes zr90-ani-32 {
0% {
d:path("M361 361A156.9 156.9 0 0 1 105 310.1A156.9 156.9 0 0 0 361 361Z");
}
100% {
d:path("M368.8 368.8A168.1 168.1 0 0 1 94.7 314.3L105 310.1A156.9 156.9 0 0 0 361 361Z");
}
}
@keyframes zr90-ani-33 {
0% {
d:path("M368.8 368.8A168.1 168.1 0 0 1 217.2 414.8A168.1 168.1 0 0 0 368.8 368.8Z");
}
100% {
d:path("M376.7 376.7A179.2 179.2 0 0 1 215 425.7L217.2 414.8A168.1 168.1 0 0 0 368.8 368.8Z");
}
}
@keyframes zr90-ani-34 {
0% {
d:path("M376.7 376.7A179.2 179.2 0 0 1 215 425.7A179.2 179.2 0 0 0 376.7 376.7Z");
}
100% {
d:path("M384.5 384.5A190.3 190.3 0 0 1 212.9 436.6L215 425.7A179.2 179.2 0 0 0 376.7 376.7Z");
}
}
@keyframes zr90-ani-35 {
0% {
d:path("M384.5 384.5A190.3 190.3 0 0 1 355.7 408.2A190.3 190.3 0 0 0 384.5 384.5Z");
}
100% {
d:path("M392.4 392.4A201.4 201.4 0 0 1 361.9 417.4L355.7 408.2A190.3 190.3 0 0 0 384.5 384.5Z");
}
}
@keyframes zr90-ani-36 {
0% {
d:path("M355.7 408.2A190.3 190.3 0 0 1 322.8 425.8A190.3 190.3 0 0 0 355.7 408.2Z");
}
100% {
d:path("M361.9 417.4A201.4 201.4 0 0 1 327.1 436.1L322.8 425.8A190.3 190.3 0 0 0 355.7 408.2Z");
}
}
@keyframes zr90-ani-37 {
0% {
d:path("M322.8 425.8A190.3 190.3 0 0 1 287.1 436.6A190.3 190.3 0 0 0 322.8 425.8Z");
}
100% {
d:path("M327.1 436.1A201.4 201.4 0 0 1 289.3 447.5L287.1 436.6A190.3 190.3 0 0 0 322.8 425.8Z");
}
}
@keyframes zr90-ani-38 {
0% {
d:path("M287.1 436.6A190.3 190.3 0 0 1 250 440.3A190.3 190.3 0 0 0 287.1 436.6Z");
}
100% {
d:path("M289.3 447.5A201.4 201.4 0 0 1 250 451.4L250 440.3A190.3 190.3 0 0 0 287.1 436.6Z");
}
}
@keyframes zr90-ani-39 {
0% {
d:path("M250 440.3A190.3 190.3 0 0 1 212.9 436.6A190.3 190.3 0 0 0 250 440.3Z");
}
100% {
d:path("M250 451.4A201.4 201.4 0 0 1 210.7 447.5L212.9 436.6A190.3 190.3 0 0 0 250 440.3Z");
}
}
@keyframes zr90-ani-40 {
0% {
d:path("M217.2 414.8A168.1 168.1 0 0 1 131.2 368.8A168.1 168.1 0 0 0 217.2 414.8Z");
}
100% {
d:path("M215 425.7A179.2 179.2 0 0 1 123.3 376.7L131.2 368.8A168.1 168.1 0 0 0 217.2 414.8Z");
}
}
@keyframes zr90-ani-41 {
0% {
d:path("M215 425.7A179.2 179.2 0 0 1 123.3 376.7A179.2 179.2 0 0 0 215 425.7Z");
}
100% {
d:path("M212.9 436.6A190.3 190.3 0 0 1 115.5 384.5L123.3 376.7A179.2 179.2 0 0 0 215 425.7Z");
}
}
@keyframes zr90-ani-42 {
0% {
d:path("M212.9 436.6A190.3 190.3 0 0 1 115.5 384.5A190.3 190.3 0 0 0 212.9 436.6Z");
}
100% {
d:path("M210.7 447.5A201.4 201.4 0 0 1 107.6 392.4L115.5 384.5A190.3 190.3 0 0 0 212.9 436.6Z");
}
}
@keyframes zr90-ani-43 {
0% {
d:path("M210.7 447.5A201.4 201.4 0 0 1 172.9 436.1A201.4 201.4 0 0 0 210.7 447.5Z");
}
100% {
d:path("M208.5 458.4A212.5 212.5 0 0 1 168.7 446.3L172.9 436.1A201.4 201.4 0 0 0 210.7 447.5Z");
}
}
@keyframes zr90-ani-44 {
0% {
d:path("M172.9 436.1A201.4 201.4 0 0 1 138.1 417.4A201.4 201.4 0 0 0 172.9 436.1Z");
}
100% {
d:path("M168.7 446.3A212.5 212.5 0 0 1 131.9 426.7L138.1 417.4A201.4 201.4 0 0 0 172.9 436.1Z");
}
}
@keyframes zr90-ani-45 {
0% {
d:path("M138.1 417.4A201.4 201.4 0 0 1 107.6 392.4A201.4 201.4 0 0 0 138.1 417.4Z");
}
100% {
d:path("M131.9 426.7A212.5 212.5 0 0 1 99.7 400.3L107.6 392.4A201.4 201.4 0 0 0 138.1 417.4Z");
}
}
@keyframes zr90-ani-46 {
0% {
d:path("M131.2 368.8A168.1 168.1 0 0 1 110.3 343.4A168.1 168.1 0 0 0 131.2 368.8Z");
}
100% {
d:path("M123.3 376.7A179.2 179.2 0 0 1 101 349.5L110.3 343.4A168.1 168.1 0 0 0 131.2 368.8Z");
}
}
@keyframes zr90-ani-47 {
0% {
d:path("M110.3 343.4A168.1 168.1 0 0 1 94.7 314.3A168.1 168.1 0 0 0 110.3 343.4Z");
}
100% {
d:path("M101 349.5A179.2 179.2 0 0 1 84.5 318.6L94.7 314.3A168.1 168.1 0 0 0 110.3 343.4Z");
}
}
@keyframes zr90-ani-48 {
0% {
d:path("M101 349.5A179.2 179.2 0 0 1 84.5 318.6A179.2 179.2 0 0 0 101 349.5Z");
}
100% {
d:path("M91.8 355.7A190.3 190.3 0 0 1 74.2 322.8L84.5 318.6A179.2 179.2 0 0 0 101 349.5Z");
}
}
@keyframes zr90-ani-49 {
0% {
d:path("M115.3 305.8A145.8 145.8 0 0 1 104.2 250L104.2 250A145.8 145.8 0 0 0 115.3 305.8Z");
}
100% {
d:path("M105 310.1A156.9 156.9 0 0 1 93.1 250L104.2 250A145.8 145.8 0 0 0 115.3 305.8Z");
}
}
@keyframes zr90-ani-50 {
0% {
d:path("M105 310.1A156.9 156.9 0 0 1 96.1 280.6L96.1 280.6A156.9 156.9 0 0 0 105 310.1Z");
}
100% {
d:path("M94.7 314.3A168.1 168.1 0 0 1 85.2 282.8L96.1 280.6A156.9 156.9 0 0 0 105 310.1Z");
}
}
@keyframes zr90-ani-51 {
0% {
d:path("M96.1 280.6A156.9 156.9 0 0 1 93.1 250A156.9 156.9 0 0 0 96.1 280.6Z");
}
100% {
d:path("M85.2 282.8A168.1 168.1 0 0 1 81.9 250L93.1 250A156.9 156.9 0 0 0 96.1 280.6Z");
}
}
@keyframes zr90-ani-52 {
0% {
d:path("M115.3 250A134.7 134.7 0 0 1 125.5 198.4A134.7 134.7 0 0 0 115.3 250Z");
}
100% {
d:path("M104.2 250A145.8 145.8 0 0 1 115.3 194.2L125.5 198.4A134.7 134.7 0 0 0 115.3 250Z");
}
}
@keyframes zr90-ani-53 {
0% {
d:path("M104.2 250A145.8 145.8 0 0 1 115.3 194.2A145.8 145.8 0 0 0 104.2 250Z");
}
100% {
d:path("M93.1 250A156.9 156.9 0 0 1 105 189.9L115.3 194.2A145.8 145.8 0 0 0 104.2 250Z");
}
}
@keyframes zr90-ani-54 {
0% {
d:path("M93.1 250A156.9 156.9 0 0 1 105 189.9A156.9 156.9 0 0 0 93.1 250Z");
}
100% {
d:path("M81.9 250A168.1 168.1 0 0 1 94.7 185.7L105 189.9A156.9 156.9 0 0 0 93.1 250Z");
}
}
@keyframes zr90-ani-55 {
0% {
d:path("M81.9 250A168.1 168.1 0 0 1 85.2 217.2A168.1 168.1 0 0 0 81.9 250Z");
}
100% {
d:path("M70.8 250A179.2 179.2 0 0 1 74.3 215L85.2 217.2A168.1 168.1 0 0 0 81.9 250Z");
}
}
@keyframes zr90-ani-56 {
0% {
d:path("M85.2 217.2A168.1 168.1 0 0 1 94.7 185.7A168.1 168.1 0 0 0 85.2 217.2Z");
}
100% {
d:path("M74.3 215A179.2 179.2 0 0 1 84.5 181.4L94.7 185.7A168.1 168.1 0 0 0 85.2 217.2Z");
}
}
@keyframes zr90-ani-57 {
0% {
d:path("M197.4 228.2A56.9 56.9 0 0 1 202.7 218.4L202.7 218.4A56.9 56.9 0 0 0 197.4 228.2Z");
}
100% {
d:path("M187.1 224A68.1 68.1 0 0 1 193.4 212.2L202.7 218.4A56.9 56.9 0 0 0 197.4 228.2Z");
}
}
@keyframes zr90-ani-58 {
0% {
d:path("M187.1 224A68.1 68.1 0 0 1 193.4 212.2L193.4 212.2A68.1 68.1 0 0 0 187.1 224Z");
}
100% {
d:path("M176.9 219.7A79.2 79.2 0 0 1 184.2 206L193.4 212.2A68.1 68.1 0 0 0 187.1 224Z");
}
}
@keyframes zr90-ani-59 {
0% {
d:path("M230.4 236.9A23.6 23.6 0 0 1 245.4 226.8A23.6 23.6 0 0 0 230.4 236.9Z");
}
100% {
d:path("M221.1 230.7A34.7 34.7 0 0 1 243.2 215.9L245.4 226.8A23.6 23.6 0 0 0 230.4 236.9Z");
}
}
@keyframes zr90-ani-60 {
0% {
d:path("M221.1 230.7A34.7 34.7 0 0 1 230.7 221.1A34.7 34.7 0 0 0 221.1 230.7Z");
}
100% {
d:path("M211.9 224.5A45.8 45.8 0 0 1 224.5 211.9L230.7 221.1A34.7 34.7 0 0 0 221.1 230.7Z");
}
}
@keyframes zr90-ani-61 {
0% {
d:path("M211.9 224.5A45.8 45.8 0 0 1 217.6 217.6A45.8 45.8 0 0 0 211.9 224.5Z");
}
100% {
d:path("M202.7 218.4A56.9 56.9 0 0 1 209.7 209.7L217.6 217.6A45.8 45.8 0 0 0 211.9 224.5Z");
}
}
@keyframes zr90-ani-62 {
0% {
d:path("M217.6 217.6A45.8 45.8 0 0 1 224.5 211.9A45.8 45.8 0 0 0 217.6 217.6Z");
}
100% {
d:path("M209.7 209.7A56.9 56.9 0 0 1 218.4 202.7L224.5 211.9A45.8 45.8 0 0 0 217.6 217.6Z");
}
}
@keyframes zr90-ani-63 {
0% {
d:path("M230.7 221.1A34.7 34.7 0 0 1 243.2 215.9A34.7 34.7 0 0 0 230.7 221.1Z");
}
100% {
d:path("M224.5 211.9A45.8 45.8 0 0 1 241.1 205L243.2 215.9A34.7 34.7 0 0 0 230.7 221.1Z");
}
}
@keyframes zr90-ani-64 {
0% {
d:path("M224.5 211.9A45.8 45.8 0 0 1 232.5 207.7A45.8 45.8 0 0 0 224.5 211.9Z");
}
100% {
d:path("M218.4 202.7A56.9 56.9 0 0 1 228.2 197.4L232.5 207.7A45.8 45.8 0 0 0 224.5 211.9Z");
}
}
@keyframes zr90-ani-65 {
0% {
d:path("M232.5 207.7A45.8 45.8 0 0 1 241.1 205L241.1 205A45.8 45.8 0 0 0 232.5 207.7Z");
}
100% {
d:path("M228.2 197.4A56.9 56.9 0 0 1 238.9 194.1L241.1 205A45.8 45.8 0 0 0 232.5 207.7Z");
}
}
@keyframes zr90-ani-66 {
0% {
d:path("M245.4 226.8A23.6 23.6 0 0 1 250 226.4A23.6 23.6 0 0 0 245.4 226.8Z");
}
100% {
d:path("M243.2 215.9A34.7 34.7 0 0 1 250 215.3L250 226.4A23.6 23.6 0 0 0 245.4 226.8Z");
}
}
@keyframes zr90-ani-67 {
0% {
d:path("M243.2 215.9A34.7 34.7 0 0 1 250 215.3A34.7 34.7 0 0 0 243.2 215.9Z");
}
100% {
d:path("M241.1 205A45.8 45.8 0 0 1 250 204.2L250 215.3A34.7 34.7 0 0 0 243.2 215.9Z");
}
}
@keyframes zr90-ani-68 {
0% {
d:path("M241.1 205A45.8 45.8 0 0 1 250 204.2A45.8 45.8 0 0 0 241.1 205Z");
}
100% {
d:path("M238.9 194.1A56.9 56.9 0 0 1 250 193.1L250 204.2A45.8 45.8 0 0 0 241.1 205Z");
}
}
]]>

</style>
</svg>