<svg width="500" height="500" xmlns="http://www.w3.org/2000/svg" xmlns:xlink="http://www.w3.org/1999/xlink" version="1.1" baseProfile="full" viewBox="0 0 500 500">
<rect width="500" height="500" x="0" y="0" id="0" fill="none"></rect>
<path d="M250 220.8A29.2 29.2 0 1 1 249.1 220.8L249.6 237.5A12.5 12.5 0 1 0 250 237.5Z" fill="#C8C8C8" stroke="white" stroke-linejoin="bevel" class="zr46-cls-0"></path>
<path d="M250 204.2A45.8 45.8 0 1 1 248.6 204.2L249.1 220.8A29.2 29.2 0 1 0 250 220.8Z" fill="#C8C8C8" stroke="white" stroke-linejoin="bevel" class="zr46-cls-1"></path>
<path d="M249.1 220.8A29.2 29.2 0 0 1 250 220.8L250 237.5A12.5 12.5 0 0 0 249.6 237.5Z" fill="#000" stroke="white" stroke-linejoin="bevel" class="zr46-cls-2"></path>
<path d="M248.6 204.2A45.8 45.8 0 0 1 250 204.2L250 220.8A29.2 29.2 0 0 0 249.1 220.8Z" fill="#4949CD" fill-opacity="0.5" stroke="#fff" stroke-width="4" stroke-opacity="0.5" stroke-linejoin="bevel" class="zr46-cls-3"></path>
<path d="M248 187.5A62.5 62.5 0 0 1 250 187.5L250 204.2A45.8 45.8 0 0 0 248.6 204.2Z" fill="#000" stroke="white" stroke-linejoin="bevel" class="zr46-cls-4"></path>
<path d="M247.5 170.9A79.2 79.2 0 0 1 250 170.8L250 187.5A62.5 62.5 0 0 0 248 187.5Z" fill="#000" stroke="white" stroke-linejoin="bevel" class="zr46-cls-5"></path>
<path d="M247 154.2A95.8 95.8 0 0 1 250 154.2L250 170.8A79.2 79.2 0 0 0 247.5 170.9Z" fill="#4949CD" fill-opacity="0.5" stroke="#fff" stroke-width="4" stroke-opacity="0.5" stroke-linejoin="bevel" class="zr46-cls-6"></path>
<path d="M246.5 137.6A112.5 112.5 0 0 1 250 137.5L250 154.2A95.8 95.8 0 0 0 247 154.2Z" fill="#0AA40D" stroke="white" stroke-linejoin="bevel" class="zr46-cls-7"></path>
<path d="M246 120.9A129.2 129.2 0 0 1 250 120.8L250 137.5A112.5 112.5 0 0 0 246.5 137.6Z" fill="#000" stroke="white" stroke-linejoin="bevel" class="zr46-cls-8"></path>
<path d="M245.4 104.2A145.8 145.8 0 0 1 250 104.2L250 120.8A129.2 129.2 0 0 0 246 120.9Z" fill="#4949CD" fill-opacity="0.5" stroke="#fff" stroke-width="4" stroke-opacity="0.5" stroke-linejoin="bevel" class="zr46-cls-9"></path>
<path d="M244.9 87.6A162.5 162.5 0 0 1 250 87.5L250 104.2A145.8 145.8 0 0 0 245.4 104.2Z" fill="#000" stroke="white" stroke-linejoin="bevel" class="zr46-cls-10"></path>
<path d="M244.4 70.9A179.2 179.2 0 0 1 250 70.8L250 87.5A162.5 162.5 0 0 0 244.9 87.6Z" fill="#000" stroke="white" stroke-linejoin="bevel" class="zr46-cls-11"></path>
<path d="M243.9 54.3A195.8 195.8 0 0 1 250 54.2L250 70.8A179.2 179.2 0 0 0 244.4 70.9Z" fill="#A0522D" stroke="white" stroke-linejoin="bevel" class="zr46-cls-12"></path>
<path d="M243.4 37.6A212.5 212.5 0 0 1 250 37.5L250 54.2A195.8 195.8 0 0 0 243.9 54.3Z" fill="#A0522D" stroke="white" stroke-linejoin="bevel" class="zr46-cls-13"></path>
<text dominant-baseline="central" text-anchor="middle" style="font-size:12px;font-family:sans-serif;" transform="matrix(1,-0.016,0.016,1,250.3256,270.8308)" fill="#333">info</text>
<text dominant-baseline="central" text-anchor="middle" style="font-size:10px;font-family:sans-serif;" transform="matrix(1,-0.016,0.016,1,250.5861,287.4954)" fill="#333">version</text>
<path d="M-14.8 -16l66.6 0l0 32l-66.6 0Z" transform="translate(448.253 16)" fill="none" stroke="#ccc" stroke-width="0"></path>
<path d="M-7.3 -1.8L-0.1 4.8L7.3 -1.6M-7.3 4.3L-7.3 8.5L7.1 8.5L7.1 4.3M-0.1 4.7L-0.1 -8.5" transform="translate(448.253 16)" fill="none" stroke="#666"></path>
<path d="M-7.9 1M5.1 -3.4L8.1 -3.4L8.1 -6.4M8 -3C6.7 -6.4 3.2 -8.9 -1 -8.4C-5.3 -8 -8.6 -4.2 -8.4 0.2M-5.1 3.4L-8.1 3.4L-8.1 6.4M-8 3C-6.7 6.4 -3.2 8.9 1 8.4C5.3 8 8.6 4.2 8.4 -0.2" transform="translate(484.0476 16)" fill="none" stroke="#666"></path>
<style ><![CDATA[
.zr46-cls-0 {
animation:zr46-ani-0 1s cubic-bezier(0.65,0,0.35,1) both;
}
.zr46-cls-1 {
animation:zr46-ani-1 1s cubic-bezier(0.65,0,0.35,1) both;
}
.zr46-cls-2 {
animation:zr46-ani-2 1s cubic-bezier(0.65,0,0.35,1) both;
}
.zr46-cls-3 {
animation:zr46-ani-3 1s cubic-bezier(0.65,0,0.35,1) both;
}
.zr46-cls-4 {
animation:zr46-ani-4 1s cubic-bezier(0.65,0,0.35,1) both;
}
.zr46-cls-5 {
animation:zr46-ani-5 1s cubic-bezier(0.65,0,0.35,1) both;
}
.zr46-cls-6 {
animation:zr46-ani-6 1s cubic-bezier(0.65,0,0.35,1) both;
}
.zr46-cls-7 {
animation:zr46-ani-7 1s cubic-bezier(0.65,0,0.35,1) both;
}
.zr46-cls-8 {
animation:zr46-ani-8 1s cubic-bezier(0.65,0,0.35,1) both;
}
.zr46-cls-9 {
animation:zr46-ani-9 1s cubic-bezier(0.65,0,0.35,1) both;
}
.zr46-cls-10 {
animation:zr46-ani-10 1s cubic-bezier(0.65,0,0.35,1) both;
}
.zr46-cls-11 {
animation:zr46-ani-11 1s cubic-bezier(0.65,0,0.35,1) both;
}
.zr46-cls-12 {
animation:zr46-ani-12 1s cubic-bezier(0.65,0,0.35,1) both;
}
.zr46-cls-13 {
animation:zr46-ani-13 1s cubic-bezier(0.65,0,0.35,1) both;
}
@keyframes zr46-ani-0 {
0% {
d:path("M250 237.5A12.5 12.5 0 1 1 249.6 237.5L249.6 237.5A12.5 12.5 0 1 0 250 237.5Z");
}
100% {
d:path("M250 220.8A29.2 29.2 0 1 1 249.1 220.8L249.6 237.5A12.5 12.5 0 1 0 250 237.5Z");
}
}
@keyframes zr46-ani-1 {
0% {
d:path("M250 220.8A29.2 29.2 0 1 1 249.1 220.8L249.1 220.8A29.2 29.2 0 1 0 250 220.8Z");
}
100% {
d:path("M250 204.2A45.8 45.8 0 1 1 248.6 204.2L249.1 220.8A29.2 29.2 0 1 0 250 220.8Z");
}
}
@keyframes zr46-ani-2 {
0% {
d:path("M249.6 237.5A12.5 12.5 0 0 1 250 237.5L250 237.5A12.5 12.5 0 0 0 249.6 237.5Z");
}
100% {
d:path("M249.1 220.8A29.2 29.2 0 0 1 250 220.8L250 237.5A12.5 12.5 0 0 0 249.6 237.5Z");
}
}
@keyframes zr46-ani-3 {
0% {
d:path("M249.1 220.8A29.2 29.2 0 0 1 250 220.8L250 220.8A29.2 29.2 0 0 0 249.1 220.8Z");
}
100% {
d:path("M248.6 204.2A45.8 45.8 0 0 1 250 204.2L250 220.8A29.2 29.2 0 0 0 249.1 220.8Z");
}
}
@keyframes zr46-ani-4 {
0% {
d:path("M248.6 204.2A45.8 45.8 0 0 1 250 204.2L250 204.2A45.8 45.8 0 0 0 248.6 204.2Z");
}
100% {
d:path("M248 187.5A62.5 62.5 0 0 1 250 187.5L250 204.2A45.8 45.8 0 0 0 248.6 204.2Z");
}
}
@keyframes zr46-ani-5 {
0% {
d:path("M248 187.5A62.5 62.5 0 0 1 250 187.5L250 187.5A62.5 62.5 0 0 0 248 187.5Z");
}
100% {
d:path("M247.5 170.9A79.2 79.2 0 0 1 250 170.8L250 187.5A62.5 62.5 0 0 0 248 187.5Z");
}
}
@keyframes zr46-ani-6 {
0% {
d:path("M247.5 170.9A79.2 79.2 0 0 1 250 170.8L250 170.8A79.2 79.2 0 0 0 247.5 170.9Z");
}
100% {
d:path("M247 154.2A95.8 95.8 0 0 1 250 154.2L250 170.8A79.2 79.2 0 0 0 247.5 170.9Z");
}
}
@keyframes zr46-ani-7 {
0% {
d:path("M247 154.2A95.8 95.8 0 0 1 250 154.2L250 154.2A95.8 95.8 0 0 0 247 154.2Z");
}
100% {
d:path("M246.5 137.6A112.5 112.5 0 0 1 250 137.5L250 154.2A95.8 95.8 0 0 0 247 154.2Z");
}
}
@keyframes zr46-ani-8 {
0% {
d:path("M246.5 137.6A112.5 112.5 0 0 1 250 137.5L250 137.5A112.5 112.5 0 0 0 246.5 137.6Z");
}
100% {
d:path("M246 120.9A129.2 129.2 0 0 1 250 120.8L250 137.5A112.5 112.5 0 0 0 246.5 137.6Z");
}
}
@keyframes zr46-ani-9 {
0% {
d:path("M246 120.9A129.2 129.2 0 0 1 250 120.8L250 120.8A129.2 129.2 0 0 0 246 120.9Z");
}
100% {
d:path("M245.4 104.2A145.8 145.8 0 0 1 250 104.2L250 120.8A129.2 129.2 0 0 0 246 120.9Z");
}
}
@keyframes zr46-ani-10 {
0% {
d:path("M245.4 104.2A145.8 145.8 0 0 1 250 104.2L250 104.2A145.8 145.8 0 0 0 245.4 104.2Z");
}
100% {
d:path("M244.9 87.6A162.5 162.5 0 0 1 250 87.5L250 104.2A145.8 145.8 0 0 0 245.4 104.2Z");
}
}
@keyframes zr46-ani-11 {
0% {
d:path("M244.9 87.6A162.5 162.5 0 0 1 250 87.5L250 87.5A162.5 162.5 0 0 0 244.9 87.6Z");
}
100% {
d:path("M244.4 70.9A179.2 179.2 0 0 1 250 70.8L250 87.5A162.5 162.5 0 0 0 244.9 87.6Z");
}
}
@keyframes zr46-ani-12 {
0% {
d:path("M244.4 70.9A179.2 179.2 0 0 1 250 70.8L250 70.8A179.2 179.2 0 0 0 244.4 70.9Z");
}
100% {
d:path("M243.9 54.3A195.8 195.8 0 0 1 250 54.2L250 70.8A179.2 179.2 0 0 0 244.4 70.9Z");
}
}
@keyframes zr46-ani-13 {
0% {
d:path("M243.9 54.3A195.8 195.8 0 0 1 250 54.2L250 54.2A195.8 195.8 0 0 0 243.9 54.3Z");
}
100% {
d:path("M243.4 37.6A212.5 212.5 0 0 1 250 37.5L250 54.2A195.8 195.8 0 0 0 243.9 54.3Z");
}
}
]]>

</style>
</svg>