<svg width="500" height="500" xmlns="http://www.w3.org/2000/svg" xmlns:xlink="http://www.w3.org/1999/xlink" version="1.1" baseProfile="full" viewBox="0 0 500 500">
<rect width="500" height="500" x="0" y="0" id="0" fill="none"></rect>
<path d="M250 226.4A23.6 23.6 0 1 1 239.8 271.3L244.6 261.3A12.5 12.5 0 1 0 250 237.5Z" fill="#000" stroke="white" stroke-linejoin="bevel" class="zr42-cls-0"></path>
<path d="M250 215.3A34.7 34.7 0 0 1 273.6 275.5L266.1 267.3A23.6 23.6 0 0 0 250 226.4Z" fill="#4949CD" fill-opacity="0.5" stroke="#fff" stroke-width="4" stroke-opacity="0.5" stroke-linejoin="bevel" class="zr42-cls-1"></path>
<path d="M250 204.2A45.8 45.8 0 0 1 292.7 233.3L282.3 237.3A34.7 34.7 0 0 0 250 215.3Z" fill="#000" stroke="white" stroke-linejoin="bevel" class="zr42-cls-2"></path>
<path d="M250 193.1A56.9 56.9 0 0 1 303 229.2L292.7 233.3A45.8 45.8 0 0 0 250 204.2Z" fill="#000" stroke="white" stroke-linejoin="bevel" class="zr42-cls-3"></path>
<path d="M250 181.9A68.1 68.1 0 0 1 313.4 225.1L303 229.2A56.9 56.9 0 0 0 250 193.1Z" fill="#4949CD" fill-opacity="0.5" stroke="#fff" stroke-width="4" stroke-opacity="0.5" stroke-linejoin="bevel" class="zr42-cls-4"></path>
<path d="M250 170.8A79.2 79.2 0 0 1 323.7 221.1L313.4 225.1A68.1 68.1 0 0 0 250 181.9Z" fill="#F3C142" stroke="white" stroke-linejoin="bevel" class="zr42-cls-5"></path>
<path d="M250 159.7A90.3 90.3 0 0 1 334 217L323.7 221.1A79.2 79.2 0 0 0 250 170.8Z" fill="#000" stroke="white" stroke-linejoin="bevel" class="zr42-cls-6"></path>
<path d="M250 148.6A101.4 101.4 0 0 1 344.4 213L334 217A90.3 90.3 0 0 0 250 159.7Z" fill="#000" stroke="white" stroke-linejoin="bevel" class="zr42-cls-7"></path>
<path d="M250 137.5A112.5 112.5 0 0 1 354.7 208.9L344.4 213A101.4 101.4 0 0 0 250 148.6Z" fill="#4949CD" fill-opacity="0.5" stroke="#fff" stroke-width="4" stroke-opacity="0.5" stroke-linejoin="bevel" class="zr42-cls-8"></path>
<path d="M250 126.4A123.6 123.6 0 0 1 365.1 204.8L354.7 208.9A112.5 112.5 0 0 0 250 137.5Z" fill="#000" stroke="white" stroke-linejoin="bevel" class="zr42-cls-9"></path>
<path d="M250 115.3A134.7 134.7 0 0 1 375.4 200.8L365.1 204.8A123.6 123.6 0 0 0 250 126.4Z" fill="#A0522D" stroke="white" stroke-linejoin="bevel" class="zr42-cls-10"></path>
<path d="M250 104.2A145.8 145.8 0 0 1 385.8 196.7L375.4 200.8A134.7 134.7 0 0 0 250 115.3Z" fill="#A0522D" stroke="white" stroke-linejoin="bevel" class="zr42-cls-11"></path>
<path d="M250 93.1A156.9 156.9 0 0 1 396.1 192.7L385.8 196.7A145.8 145.8 0 0 0 250 104.2Z" fill="#4949CD" fill-opacity="0.5" stroke="#fff" stroke-width="4" stroke-opacity="0.5" stroke-linejoin="bevel" class="zr42-cls-12"></path>
<path d="M250 81.9A168.1 168.1 0 0 1 406.4 188.6L396.1 192.7A156.9 156.9 0 0 0 250 93.1Z" fill="#A0522D" stroke="white" stroke-linejoin="bevel" class="zr42-cls-13"></path>
<path d="M250 70.8A179.2 179.2 0 0 1 416.8 184.5L406.4 188.6A168.1 168.1 0 0 0 250 81.9Z" fill="#A0522D" stroke="white" stroke-linejoin="bevel" class="zr42-cls-14"></path>
<path d="M250 59.7A190.3 190.3 0 0 1 398.8 131.4L390.1 138.3A179.2 179.2 0 0 0 250 70.8Z" fill="#49ff49" fill-opacity="0.5" stroke="#fff" stroke-width="4" stroke-opacity="0.5" stroke-linejoin="bevel" class="zr42-cls-15"></path>
<path d="M250 48.6A201.4 201.4 0 0 1 309.4 57.6L306.1 68.2A190.3 190.3 0 0 0 250 59.7Z" fill="#A0522D" stroke="white" stroke-linejoin="bevel" class="zr42-cls-16"></path>
<path d="M309.4 57.6A201.4 201.4 0 0 1 363.4 83.6L357.2 92.8A190.3 190.3 0 0 0 306.1 68.2Z" fill="#A0522D" stroke="white" stroke-linejoin="bevel" class="zr42-cls-17"></path>
<path d="M363.4 83.6A201.4 201.4 0 0 1 407.5 124.4L398.8 131.4A190.3 190.3 0 0 0 357.2 92.8Z" fill="#A0522D" stroke="white" stroke-linejoin="bevel" class="zr42-cls-18"></path>
<path d="M398.8 131.4A190.3 190.3 0 0 1 427.1 180.5L416.8 184.5A179.2 179.2 0 0 0 390.1 138.3Z" fill="#4949CD" fill-opacity="0.5" stroke="#fff" stroke-width="4" stroke-opacity="0.5" stroke-linejoin="bevel" class="zr42-cls-19"></path>
<path d="M407.5 124.4A201.4 201.4 0 0 1 437.5 176.4L427.1 180.5A190.3 190.3 0 0 0 398.8 131.4Z" fill="#A0522D" stroke="white" stroke-linejoin="bevel" class="zr42-cls-20"></path>
<path d="M416.1 117.5A212.5 212.5 0 0 1 447.8 172.4L437.5 176.4A201.4 201.4 0 0 0 407.5 124.4Z" fill="#A0522D" stroke="white" stroke-linejoin="bevel" class="zr42-cls-21"></path>
<path d="M292.7 233.3A45.8 45.8 0 0 1 294.7 260.2L283.9 257.7A34.7 34.7 0 0 0 282.3 237.3Z" fill="#000" stroke="white" stroke-linejoin="bevel" class="zr42-cls-22"></path>
<path d="M303 229.2A56.9 56.9 0 0 1 305.5 262.7L294.7 260.2A45.8 45.8 0 0 0 292.7 233.3Z" fill="#000" stroke="white" stroke-linejoin="bevel" class="zr42-cls-23"></path>
<path d="M313.4 225.1A68.1 68.1 0 0 1 316.3 265.1L305.5 262.7A56.9 56.9 0 0 0 303 229.2Z" fill="#4949CD" fill-opacity="0.5" stroke="#fff" stroke-width="4" stroke-opacity="0.5" stroke-linejoin="bevel" class="zr42-cls-24"></path>
<path d="M323.7 221.1A79.2 79.2 0 0 1 327.2 267.6L316.3 265.1A68.1 68.1 0 0 0 313.4 225.1Z" fill="#0AA40D" stroke="white" stroke-linejoin="bevel" class="zr42-cls-25"></path>
<path d="M334 217A90.3 90.3 0 0 1 340 243.3L328.9 244.1A79.2 79.2 0 0 0 323.7 221.1Z" fill="#C8C8C8" stroke="white" stroke-linejoin="bevel" class="zr42-cls-26"></path>
<path d="M340 243.3A90.3 90.3 0 0 1 338 270.1L327.2 267.6A79.2 79.2 0 0 0 328.9 244.1Z" fill="#000" stroke="white" stroke-linejoin="bevel" class="zr42-cls-27"></path>
<path d="M351.1 242.4A101.4 101.4 0 0 1 348.8 272.6L338 270.1A90.3 90.3 0 0 0 340 243.3Z" fill="#4949CD" fill-opacity="0.5" stroke="#fff" stroke-width="4" stroke-opacity="0.5" stroke-linejoin="bevel" class="zr42-cls-28"></path>
<path d="M362.2 241.6A112.5 112.5 0 0 1 359.7 275L348.8 272.6A101.4 101.4 0 0 0 351.1 242.4Z" fill="#000" stroke="white" stroke-linejoin="bevel" class="zr42-cls-29"></path>
<path d="M373.3 240.8A123.6 123.6 0 0 1 370.5 277.5L359.7 275A112.5 112.5 0 0 0 362.2 241.6Z" fill="#000" stroke="white" stroke-linejoin="bevel" class="zr42-cls-30"></path>
<path d="M384.3 239.9A134.7 134.7 0 0 1 381.3 280L370.5 277.5A123.6 123.6 0 0 0 373.3 240.8Z" fill="#4949CD" fill-opacity="0.5" stroke="#fff" stroke-width="4" stroke-opacity="0.5" stroke-linejoin="bevel" class="zr42-cls-31"></path>
<path d="M395.4 239.1A145.8 145.8 0 0 1 392.2 282.5L381.3 280A134.7 134.7 0 0 0 384.3 239.9Z" fill="#000" stroke="white" stroke-linejoin="bevel" class="zr42-cls-32"></path>
<path d="M406.5 238.3A156.9 156.9 0 0 1 403 284.9L392.2 282.5A145.8 145.8 0 0 0 395.4 239.1Z" fill="#A0522D" stroke="white" stroke-linejoin="bevel" class="zr42-cls-33"></path>
<path d="M417.6 237.4A168.1 168.1 0 0 1 413.8 287.4L403 284.9A156.9 156.9 0 0 0 406.5 238.3Z" fill="#A0522D" stroke="white" stroke-linejoin="bevel" class="zr42-cls-34"></path>
<path d="M428.7 236.6A179.2 179.2 0 0 1 424.7 289.9L413.8 287.4A168.1 168.1 0 0 0 417.6 237.4Z" fill="#49ff49" fill-opacity="0.5" stroke="#fff" stroke-width="4" stroke-opacity="0.5" stroke-linejoin="bevel" class="zr42-cls-35"></path>
<path d="M439.7 235.8A190.3 190.3 0 0 1 435.5 292.3L424.7 289.9A179.2 179.2 0 0 0 428.7 236.6Z" fill="#A0522D" stroke="white" stroke-linejoin="bevel" class="zr42-cls-36"></path>
<path d="M294.7 260.2A45.8 45.8 0 0 1 289.7 272.9L280.1 267.4A34.7 34.7 0 0 0 283.9 257.7Z" fill="#000" stroke="white" stroke-linejoin="bevel" class="zr42-cls-37"></path>
<path d="M305.5 262.7A56.9 56.9 0 0 1 299.3 278.5L289.7 272.9A45.8 45.8 0 0 0 294.7 260.2Z" fill="#000" stroke="white" stroke-linejoin="bevel" class="zr42-cls-38"></path>
<path d="M316.3 265.1A68.1 68.1 0 0 1 308.9 284L299.3 278.5A56.9 56.9 0 0 0 305.5 262.7Z" fill="#4949CD" fill-opacity="0.5" stroke="#fff" stroke-width="4" stroke-opacity="0.5" stroke-linejoin="bevel" class="zr42-cls-39"></path>
<path d="M327.2 267.6A79.2 79.2 0 0 1 318.6 289.6L308.9 284A68.1 68.1 0 0 0 316.3 265.1Z" fill="#F3C142" stroke="white" stroke-linejoin="bevel" class="zr42-cls-40"></path>
<path d="M338 270.1A90.3 90.3 0 0 1 328.2 295.1L318.6 289.6A79.2 79.2 0 0 0 327.2 267.6Z" fill="#C8C8C8" stroke="white" stroke-linejoin="bevel" class="zr42-cls-41"></path>
<path d="M348.8 272.6A101.4 101.4 0 0 1 337.8 300.7L328.2 295.1A90.3 90.3 0 0 0 338 270.1Z" fill="#49ff49" fill-opacity="0.5" stroke="#fff" stroke-width="4" stroke-opacity="0.5" stroke-linejoin="bevel" class="zr42-cls-42"></path>
<path d="M359.7 275A112.5 112.5 0 0 1 347.4 306.2L337.8 300.7A101.4 101.4 0 0 0 348.8 272.6Z" fill="#C8C8C8" stroke="white" stroke-linejoin="bevel" class="zr42-cls-43"></path>
<path d="M289.7 272.9A45.8 45.8 0 0 1 281.2 283.6L273.6 275.5A34.7 34.7 0 0 0 280.1 267.4Z" fill="#000" stroke="white" stroke-linejoin="bevel" class="zr42-cls-44"></path>
<path d="M299.3 278.5A56.9 56.9 0 0 1 288.7 291.7L281.2 283.6A45.8 45.8 0 0 0 289.7 272.9Z" fill="#000" stroke="white" stroke-linejoin="bevel" class="zr42-cls-45"></path>
<path d="M308.9 284A68.1 68.1 0 0 1 296.3 299.9L288.7 291.7A56.9 56.9 0 0 0 299.3 278.5Z" fill="#4949CD" fill-opacity="0.5" stroke="#fff" stroke-width="4" stroke-opacity="0.5" stroke-linejoin="bevel" class="zr42-cls-46"></path>
<path d="M318.6 289.6A79.2 79.2 0 0 1 303.8 308L296.3 299.9A68.1 68.1 0 0 0 308.9 284Z" fill="#F3C142" stroke="white" stroke-linejoin="bevel" class="zr42-cls-47"></path>
<path d="M328.2 295.1A90.3 90.3 0 0 1 311.4 316.2L303.8 308A79.2 79.2 0 0 0 318.6 289.6Z" fill="#C8C8C8" stroke="white" stroke-linejoin="bevel" class="zr42-cls-48"></path>
<path d="M273.6 275.5A34.7 34.7 0 0 1 234.9 281.3L239.8 271.3A23.6 23.6 0 0 0 266.1 267.3Z" fill="#49ff49" fill-opacity="0.5" stroke="#fff" stroke-width="4" stroke-opacity="0.5" stroke-linejoin="bevel" class="zr42-cls-49"></path>
<path d="M281.2 283.6A45.8 45.8 0 0 1 269.9 291.3L265.1 281.3A34.7 34.7 0 0 0 273.6 275.5Z" fill="#000" stroke="white" stroke-linejoin="bevel" class="zr42-cls-50"></path>
<path d="M288.7 291.7A56.9 56.9 0 0 1 274.7 301.3L269.9 291.3A45.8 45.8 0 0 0 281.2 283.6Z" fill="#0AA40D" stroke="white" stroke-linejoin="bevel" class="zr42-cls-51"></path>
<path d="M269.9 291.3A45.8 45.8 0 0 1 256.8 295.3L255.2 284.3A34.7 34.7 0 0 0 265.1 281.3Z" fill="#000" stroke="white" stroke-linejoin="bevel" class="zr42-cls-52"></path>
<path d="M274.7 301.3A56.9 56.9 0 0 1 258.5 306.3L256.8 295.3A45.8 45.8 0 0 0 269.9 291.3Z" fill="#0AA40D" stroke="white" stroke-linejoin="bevel" class="zr42-cls-53"></path>
<path d="M256.8 295.3A45.8 45.8 0 0 1 243.2 295.3L244.8 284.3A34.7 34.7 0 0 0 255.2 284.3Z" fill="#000" stroke="white" stroke-linejoin="bevel" class="zr42-cls-54"></path>
<path d="M258.5 306.3A56.9 56.9 0 0 1 241.5 306.3L243.2 295.3A45.8 45.8 0 0 0 256.8 295.3Z" fill="#0AA40D" stroke="white" stroke-linejoin="bevel" class="zr42-cls-55"></path>
<path d="M243.2 295.3A45.8 45.8 0 0 1 230.1 291.3L234.9 281.3A34.7 34.7 0 0 0 244.8 284.3Z" fill="#000" stroke="white" stroke-linejoin="bevel" class="zr42-cls-56"></path>
<path d="M241.5 306.3A56.9 56.9 0 0 1 225.3 301.3L230.1 291.3A45.8 45.8 0 0 0 243.2 295.3Z" fill="#0AA40D" stroke="white" stroke-linejoin="bevel" class="zr42-cls-57"></path>
<path d="M239.8 271.3A23.6 23.6 0 0 1 231.5 235.3L240.2 242.2A12.5 12.5 0 0 0 244.6 261.3Z" fill="#C8C8C8" stroke="white" stroke-linejoin="bevel" class="zr42-cls-58"></path>
<path d="M234.9 281.3A34.7 34.7 0 0 1 222.9 228.4L231.5 235.3A23.6 23.6 0 0 0 239.8 271.3Z" fill="#49ff49" fill-opacity="0.5" stroke="#fff" stroke-width="4" stroke-opacity="0.5" stroke-linejoin="bevel" class="zr42-cls-59"></path>
<path d="M230.1 291.3A45.8 45.8 0 0 1 218.8 283.6L226.4 275.5A34.7 34.7 0 0 0 234.9 281.3Z" fill="#C8C8C8" stroke="white" stroke-linejoin="bevel" class="zr42-cls-60"></path>
<path d="M218.8 283.6A45.8 45.8 0 0 1 210.3 272.9L219.9 267.4A34.7 34.7 0 0 0 226.4 275.5Z" fill="#C8C8C8" stroke="white" stroke-linejoin="bevel" class="zr42-cls-61"></path>
<path d="M210.3 272.9A45.8 45.8 0 0 1 205.3 260.2L216.1 257.7A34.7 34.7 0 0 0 219.9 267.4Z" fill="#C8C8C8" stroke="white" stroke-linejoin="bevel" class="zr42-cls-62"></path>
<path d="M205.3 260.2A45.8 45.8 0 0 1 204.3 246.6L215.4 247.4A34.7 34.7 0 0 0 216.1 257.7Z" fill="#C8C8C8" stroke="white" stroke-linejoin="bevel" class="zr42-cls-63"></path>
<path d="M204.3 246.6A45.8 45.8 0 0 1 207.3 233.3L217.7 237.3A34.7 34.7 0 0 0 215.4 247.4Z" fill="#C8C8C8" stroke="white" stroke-linejoin="bevel" class="zr42-cls-64"></path>
<path d="M207.3 233.3A45.8 45.8 0 0 1 214.2 221.4L222.9 228.4A34.7 34.7 0 0 0 217.7 237.3Z" fill="#C8C8C8" stroke="white" stroke-linejoin="bevel" class="zr42-cls-65"></path>
<path d="M231.5 235.3A23.6 23.6 0 0 1 250 226.4L250 237.5A12.5 12.5 0 0 0 240.2 242.2Z" fill="#C8C8C8" stroke="white" stroke-linejoin="bevel" class="zr42-cls-66"></path>
<path d="M222.9 228.4A34.7 34.7 0 0 1 239.8 216.8L243 227.4A23.6 23.6 0 0 0 231.5 235.3Z" fill="#C8C8C8" stroke="white" stroke-linejoin="bevel" class="zr42-cls-67"></path>
<path d="M239.8 216.8A34.7 34.7 0 0 1 250 215.3L250 226.4A23.6 23.6 0 0 0 243 227.4Z" fill="#C8C8C8" stroke="white" stroke-linejoin="bevel" class="zr42-cls-68"></path>
<text dominant-baseline="central" text-anchor="middle" style="font-size:12px;font-family:sans-serif;" transform="matrix(0.223,-0.975,0.975,0.223,267.6029,254.0177)" fill="#ccc" stroke="#000" stroke-width="2" paint-order="stroke" stroke-miterlimit="2">paths</text>
<text dominant-baseline="central" text-anchor="middle" style="font-size:9px;font-family:sans-serif;" transform="matrix(0.826,0.563,-0.563,0.826,278.9484,207.5405)" fill="#ccc" stroke="#000" stroke-width="2" paint-order="stroke" stroke-miterlimit="2">operations</text>
<text dominant-baseline="central" text-anchor="middle" style="font-size:12px;font-family:sans-serif;" transform="matrix(0.826,0.563,-0.563,0.826,291.4666,189.1796)" fill="#333">POST</text>
<text dominant-baseline="central" text-anchor="middle" style="font-size:10px;font-family:sans-serif;" transform="matrix(0.826,0.563,-0.563,0.826,303.9848,170.8188)" fill="#ccc" stroke="#000" stroke-width="2" paint-order="stroke" stroke-miterlimit="2">content</text>
<text dominant-baseline="central" text-anchor="middle" style="font-size:12px;font-family:sans-serif;" transform="matrix(0.826,0.563,-0.563,0.826,329.0213,134.0971)" fill="#eee" stroke="#A0522D" stroke-width="2" paint-order="stroke" stroke-miterlimit="2">oneOf</text>
<text dominant-baseline="central" text-anchor="middle" style="font-size:9px;font-family:sans-serif;" transform="matrix(0.826,0.563,-0.563,0.826,347.7986,106.5558)" fill="#eee" stroke="#A0522D" stroke-width="2" paint-order="stroke" stroke-miterlimit="2">properties</text>
<text dominant-baseline="central" text-anchor="middle" style="font-size:9px;font-family:sans-serif;" transform="matrix(0.5,0.866,-0.866,0.5,419.5966,152.0833)" fill="#eee" stroke="#A0522D" stroke-width="2" paint-order="stroke" stroke-miterlimit="2">nameLowerCase</text>
<text dominant-baseline="central" text-anchor="middle" style="font-size:9px;font-family:sans-serif;" transform="matrix(0.5,0.866,-0.866,0.5,429.2191,146.5278)" fill="#eee" stroke="#A0522D" stroke-width="2" paint-order="stroke" stroke-miterlimit="2">deprecated</text>
<text dominant-baseline="central" text-anchor="middle" style="font-size:12px;font-family:sans-serif;" transform="matrix(0.075,0.997,-0.997,0.075,323.4053,244.499)" fill="#eee" stroke="#0AA40D" stroke-width="2" paint-order="stroke" stroke-miterlimit="2">GET</text>
<text dominant-baseline="central" text-anchor="middle" style="font-size:10px;font-family:sans-serif;" transform="matrix(0.075,-0.997,0.997,0.075,367.7254,258.8223)" fill="#ccc" stroke="#000" stroke-width="2" paint-order="stroke" stroke-miterlimit="2">content</text>
<text dominant-baseline="central" text-anchor="middle" style="font-size:9px;font-family:sans-serif;" transform="matrix(0.075,-0.997,0.997,0.075,412.0456,262.1436)" fill="#eee" stroke="#A0522D" stroke-width="2" paint-order="stroke" stroke-miterlimit="2">properties</text>
<text dominant-baseline="central" text-anchor="middle" style="font-size:12px;font-family:sans-serif;" transform="matrix(0.075,-0.997,0.997,0.075,434.2057,263.8043)" fill="#eee" stroke="#A0522D" stroke-width="2" paint-order="stroke" stroke-miterlimit="2">events</text>
<text dominant-baseline="central" text-anchor="middle" style="font-size:10px;font-family:sans-serif;" transform="matrix(0.365,-0.931,0.931,0.365,349.5518,289.0712)" fill="#333">Scripts</text>
<text dominant-baseline="central" text-anchor="middle" style="font-size:9px;font-family:sans-serif;" transform="matrix(0.623,-0.782,0.782,0.623,290.1775,282.0404)" fill="#ccc" stroke="#000" stroke-width="2" paint-order="stroke" stroke-miterlimit="2">operations</text>
<text dominant-baseline="central" text-anchor="middle" style="font-size:12px;font-family:sans-serif;" transform="matrix(0.623,-0.782,0.782,0.623,307.5515,295.8958)" fill="#333">POST</text>
<text dominant-baseline="central" text-anchor="middle" style="font-size:9px;font-family:sans-serif;" transform="matrix(0.623,-0.782,0.782,0.623,316.2385,302.8234)" fill="#333">description</text>
<text dominant-baseline="central" text-anchor="middle" style="font-size:12px;font-family:sans-serif;" transform="matrix(0.956,0.295,-0.295,0.956,234.8529,299.1058)" fill="#eee" stroke="#0AA40D" stroke-width="2" paint-order="stroke" stroke-miterlimit="2">GET</text>
<text dominant-baseline="central" text-anchor="middle" style="font-size:12px;font-family:sans-serif;" transform="matrix(0.223,0.975,-0.975,0.223,232.3971,254.0177)" fill="#333">tags</text>
<text dominant-baseline="central" text-anchor="middle" style="font-size:10px;font-family:sans-serif;" transform="matrix(0.365,0.931,-0.931,0.365,212.5065,264.7151)" fill="#333">Scripts</text>
<text dominant-baseline="central" text-anchor="middle" style="font-size:10px;font-family:sans-serif;" transform="matrix(0.826,-0.563,0.563,0.826,233.5698,225.9014)" fill="#333">version</text>
<path d="M-14.8 -16l66.6 0l0 32l-66.6 0Z" transform="translate(448.253 16)" fill="none" stroke="#ccc" stroke-width="0"></path>
<path d="M-7.3 -1.8L-0.1 4.8L7.3 -1.6M-7.3 4.3L-7.3 8.5L7.1 8.5L7.1 4.3M-0.1 4.7L-0.1 -8.5" transform="translate(448.253 16)" fill="none" stroke="#666"></path>
<path d="M-7.9 1M5.1 -3.4L8.1 -3.4L8.1 -6.4M8 -3C6.7 -6.4 3.2 -8.9 -1 -8.4C-5.3 -8 -8.6 -4.2 -8.4 0.2M-5.1 3.4L-8.1 3.4L-8.1 6.4M-8 3C-6.7 6.4 -3.2 8.9 1 8.4C5.3 8 8.6 4.2 8.4 -0.2" transform="translate(484.0476 16)" fill="none" stroke="#666"></path>
<style ><![CDATA[
.zr42-cls-0 {
animation:zr42-ani-0 1s cubic-bezier(0.65,0,0.35,1) both;
}
.zr42-cls-1 {
animation:zr42-ani-1 1s cubic-bezier(0.65,0,0.35,1) both;
}
.zr42-cls-2 {
animation:zr42-ani-2 1s cubic-bezier(0.65,0,0.35,1) both;
}
.zr42-cls-3 {
animation:zr42-ani-3 1s cubic-bezier(0.65,0,0.35,1) both;
}
.zr42-cls-4 {
animation:zr42-ani-4 1s cubic-bezier(0.65,0,0.35,1) both;
}
.zr42-cls-5 {
animation:zr42-ani-5 1s cubic-bezier(0.65,0,0.35,1) both;
}
.zr42-cls-6 {
animation:zr42-ani-6 1s cubic-bezier(0.65,0,0.35,1) both;
}
.zr42-cls-7 {
animation:zr42-ani-7 1s cubic-bezier(0.65,0,0.35,1) both;
}
.zr42-cls-8 {
animation:zr42-ani-8 1s cubic-bezier(0.65,0,0.35,1) both;
}
.zr42-cls-9 {
animation:zr42-ani-9 1s cubic-bezier(0.65,0,0.35,1) both;
}
.zr42-cls-10 {
animation:zr42-ani-10 1s cubic-bezier(0.65,0,0.35,1) both;
}
.zr42-cls-11 {
animation:zr42-ani-11 1s cubic-bezier(0.65,0,0.35,1) both;
}
.zr42-cls-12 {
animation:zr42-ani-12 1s cubic-bezier(0.65,0,0.35,1) both;
}
.zr42-cls-13 {
animation:zr42-ani-13 1s cubic-bezier(0.65,0,0.35,1) both;
}
.zr42-cls-14 {
animation:zr42-ani-14 1s cubic-bezier(0.65,0,0.35,1) both;
}
.zr42-cls-15 {
animation:zr42-ani-15 1s cubic-bezier(0.65,0,0.35,1) both;
}
.zr42-cls-16 {
animation:zr42-ani-16 1s cubic-bezier(0.65,0,0.35,1) both;
}
.zr42-cls-17 {
animation:zr42-ani-17 1s cubic-bezier(0.65,0,0.35,1) both;
}
.zr42-cls-18 {
animation:zr42-ani-18 1s cubic-bezier(0.65,0,0.35,1) both;
}
.zr42-cls-19 {
animation:zr42-ani-19 1s cubic-bezier(0.65,0,0.35,1) both;
}
.zr42-cls-20 {
animation:zr42-ani-20 1s cubic-bezier(0.65,0,0.35,1) both;
}
.zr42-cls-21 {
animation:zr42-ani-21 1s cubic-bezier(0.65,0,0.35,1) both;
}
.zr42-cls-22 {
animation:zr42-ani-22 1s cubic-bezier(0.65,0,0.35,1) both;
}
.zr42-cls-23 {
animation:zr42-ani-23 1s cubic-bezier(0.65,0,0.35,1) both;
}
.zr42-cls-24 {
animation:zr42-ani-24 1s cubic-bezier(0.65,0,0.35,1) both;
}
.zr42-cls-25 {
animation:zr42-ani-25 1s cubic-bezier(0.65,0,0.35,1) both;
}
.zr42-cls-26 {
animation:zr42-ani-26 1s cubic-bezier(0.65,0,0.35,1) both;
}
.zr42-cls-27 {
animation:zr42-ani-27 1s cubic-bezier(0.65,0,0.35,1) both;
}
.zr42-cls-28 {
animation:zr42-ani-28 1s cubic-bezier(0.65,0,0.35,1) both;
}
.zr42-cls-29 {
animation:zr42-ani-29 1s cubic-bezier(0.65,0,0.35,1) both;
}
.zr42-cls-30 {
animation:zr42-ani-30 1s cubic-bezier(0.65,0,0.35,1) both;
}
.zr42-cls-31 {
animation:zr42-ani-31 1s cubic-bezier(0.65,0,0.35,1) both;
}
.zr42-cls-32 {
animation:zr42-ani-32 1s cubic-bezier(0.65,0,0.35,1) both;
}
.zr42-cls-33 {
animation:zr42-ani-33 1s cubic-bezier(0.65,0,0.35,1) both;
}
.zr42-cls-34 {
animation:zr42-ani-34 1s cubic-bezier(0.65,0,0.35,1) both;
}
.zr42-cls-35 {
animation:zr42-ani-35 1s cubic-bezier(0.65,0,0.35,1) both;
}
.zr42-cls-36 {
animation:zr42-ani-36 1s cubic-bezier(0.65,0,0.35,1) both;
}
.zr42-cls-37 {
animation:zr42-ani-37 1s cubic-bezier(0.65,0,0.35,1) both;
}
.zr42-cls-38 {
animation:zr42-ani-38 1s cubic-bezier(0.65,0,0.35,1) both;
}
.zr42-cls-39 {
animation:zr42-ani-39 1s cubic-bezier(0.65,0,0.35,1) both;
}
.zr42-cls-40 {
animation:zr42-ani-40 1s cubic-bezier(0.65,0,0.35,1) both;
}
.zr42-cls-41 {
animation:zr42-ani-41 1s cubic-bezier(0.65,0,0.35,1) both;
}
.zr42-cls-42 {
animation:zr42-ani-42 1s cubic-bezier(0.65,0,0.35,1) both;
}
.zr42-cls-43 {
animation:zr42-ani-43 1s cubic-bezier(0.65,0,0.35,1) both;
}
.zr42-cls-44 {
animation:zr42-ani-44 1s cubic-bezier(0.65,0,0.35,1) both;
}
.zr42-cls-45 {
animation:zr42-ani-45 1s cubic-bezier(0.65,0,0.35,1) both;
}
.zr42-cls-46 {
animation:zr42-ani-46 1s cubic-bezier(0.65,0,0.35,1) both;
}
.zr42-cls-47 {
animation:zr42-ani-47 1s cubic-bezier(0.65,0,0.35,1) both;
}
.zr42-cls-48 {
animation:zr42-ani-48 1s cubic-bezier(0.65,0,0.35,1) both;
}
.zr42-cls-49 {
animation:zr42-ani-49 1s cubic-bezier(0.65,0,0.35,1) both;
}
.zr42-cls-50 {
animation:zr42-ani-50 1s cubic-bezier(0.65,0,0.35,1) both;
}
.zr42-cls-51 {
animation:zr42-ani-51 1s cubic-bezier(0.65,0,0.35,1) both;
}
.zr42-cls-52 {
animation:zr42-ani-52 1s cubic-bezier(0.65,0,0.35,1) both;
}
.zr42-cls-53 {
animation:zr42-ani-53 1s cubic-bezier(0.65,0,0.35,1) both;
}
.zr42-cls-54 {
animation:zr42-ani-54 1s cubic-bezier(0.65,0,0.35,1) both;
}
.zr42-cls-55 {
animation:zr42-ani-55 1s cubic-bezier(0.65,0,0.35,1) both;
}
.zr42-cls-56 {
animation:zr42-ani-56 1s cubic-bezier(0.65,0,0.35,1) both;
}
.zr42-cls-57 {
animation:zr42-ani-57 1s cubic-bezier(0.65,0,0.35,1) both;
}
.zr42-cls-58 {
animation:zr42-ani-58 1s cubic-bezier(0.65,0,0.35,1) both;
}
.zr42-cls-59 {
animation:zr42-ani-59 1s cubic-bezier(0.65,0,0.35,1) both;
}
.zr42-cls-60 {
animation:zr42-ani-60 1s cubic-bezier(0.65,0,0.35,1) both;
}
.zr42-cls-61 {
animation:zr42-ani-61 1s cubic-bezier(0.65,0,0.35,1) both;
}
.zr42-cls-62 {
animation:zr42-ani-62 1s cubic-bezier(0.65,0,0.35,1) both;
}
.zr42-cls-63 {
animation:zr42-ani-63 1s cubic-bezier(0.65,0,0.35,1) both;
}
.zr42-cls-64 {
animation:zr42-ani-64 1s cubic-bezier(0.65,0,0.35,1) both;
}
.zr42-cls-65 {
animation:zr42-ani-65 1s cubic-bezier(0.65,0,0.35,1) both;
}
.zr42-cls-66 {
animation:zr42-ani-66 1s cubic-bezier(0.65,0,0.35,1) both;
}
.zr42-cls-67 {
animation:zr42-ani-67 1s cubic-bezier(0.65,0,0.35,1) both;
}
.zr42-cls-68 {
animation:zr42-ani-68 1s cubic-bezier(0.65,0,0.35,1) both;
}
@keyframes zr42-ani-0 {
0% {
d:path("M250 237.5A12.5 12.5 0 1 1 244.6 261.3A12.5 12.5 0 1 0 250 237.5Z");
}
100% {
d:path("M250 226.4A23.6 23.6 0 1 1 239.8 271.3L244.6 261.3A12.5 12.5 0 1 0 250 237.5Z");
}
}
@keyframes zr42-ani-1 {
0% {
d:path("M250 226.4A23.6 23.6 0 0 1 266.1 267.3A23.6 23.6 0 0 0 250 226.4Z");
}
100% {
d:path("M250 215.3A34.7 34.7 0 0 1 273.6 275.5L266.1 267.3A23.6 23.6 0 0 0 250 226.4Z");
}
}
@keyframes zr42-ani-2 {
0% {
d:path("M250 215.3A34.7 34.7 0 0 1 282.3 237.3A34.7 34.7 0 0 0 250 215.3Z");
}
100% {
d:path("M250 204.2A45.8 45.8 0 0 1 292.7 233.3L282.3 237.3A34.7 34.7 0 0 0 250 215.3Z");
}
}
@keyframes zr42-ani-3 {
0% {
d:path("M250 204.2A45.8 45.8 0 0 1 292.7 233.3A45.8 45.8 0 0 0 250 204.2Z");
}
100% {
d:path("M250 193.1A56.9 56.9 0 0 1 303 229.2L292.7 233.3A45.8 45.8 0 0 0 250 204.2Z");
}
}
@keyframes zr42-ani-4 {
0% {
d:path("M250 193.1A56.9 56.9 0 0 1 303 229.2A56.9 56.9 0 0 0 250 193.1Z");
}
100% {
d:path("M250 181.9A68.1 68.1 0 0 1 313.4 225.1L303 229.2A56.9 56.9 0 0 0 250 193.1Z");
}
}
@keyframes zr42-ani-5 {
0% {
d:path("M250 181.9A68.1 68.1 0 0 1 313.4 225.1A68.1 68.1 0 0 0 250 181.9Z");
}
100% {
d:path("M250 170.8A79.2 79.2 0 0 1 323.7 221.1L313.4 225.1A68.1 68.1 0 0 0 250 181.9Z");
}
}
@keyframes zr42-ani-6 {
0% {
d:path("M250 170.8A79.2 79.2 0 0 1 323.7 221.1A79.2 79.2 0 0 0 250 170.8Z");
}
100% {
d:path("M250 159.7A90.3 90.3 0 0 1 334 217L323.7 221.1A79.2 79.2 0 0 0 250 170.8Z");
}
}
@keyframes zr42-ani-7 {
0% {
d:path("M250 159.7A90.3 90.3 0 0 1 334 217A90.3 90.3 0 0 0 250 159.7Z");
}
100% {
d:path("M250 148.6A101.4 101.4 0 0 1 344.4 213L334 217A90.3 90.3 0 0 0 250 159.7Z");
}
}
@keyframes zr42-ani-8 {
0% {
d:path("M250 148.6A101.4 101.4 0 0 1 344.4 213A101.4 101.4 0 0 0 250 148.6Z");
}
100% {
d:path("M250 137.5A112.5 112.5 0 0 1 354.7 208.9L344.4 213A101.4 101.4 0 0 0 250 148.6Z");
}
}
@keyframes zr42-ani-9 {
0% {
d:path("M250 137.5A112.5 112.5 0 0 1 354.7 208.9A112.5 112.5 0 0 0 250 137.5Z");
}
100% {
d:path("M250 126.4A123.6 123.6 0 0 1 365.1 204.8L354.7 208.9A112.5 112.5 0 0 0 250 137.5Z");
}
}
@keyframes zr42-ani-10 {
0% {
d:path("M250 126.4A123.6 123.6 0 0 1 365.1 204.8A123.6 123.6 0 0 0 250 126.4Z");
}
100% {
d:path("M250 115.3A134.7 134.7 0 0 1 375.4 200.8L365.1 204.8A123.6 123.6 0 0 0 250 126.4Z");
}
}
@keyframes zr42-ani-11 {
0% {
d:path("M250 115.3A134.7 134.7 0 0 1 375.4 200.8A134.7 134.7 0 0 0 250 115.3Z");
}
100% {
d:path("M250 104.2A145.8 145.8 0 0 1 385.8 196.7L375.4 200.8A134.7 134.7 0 0 0 250 115.3Z");
}
}
@keyframes zr42-ani-12 {
0% {
d:path("M250 104.2A145.8 145.8 0 0 1 385.8 196.7A145.8 145.8 0 0 0 250 104.2Z");
}
100% {
d:path("M250 93.1A156.9 156.9 0 0 1 396.1 192.7L385.8 196.7A145.8 145.8 0 0 0 250 104.2Z");
}
}
@keyframes zr42-ani-13 {
0% {
d:path("M250 93.1A156.9 156.9 0 0 1 396.1 192.7A156.9 156.9 0 0 0 250 93.1Z");
}
100% {
d:path("M250 81.9A168.1 168.1 0 0 1 406.4 188.6L396.1 192.7A156.9 156.9 0 0 0 250 93.1Z");
}
}
@keyframes zr42-ani-14 {
0% {
d:path("M250 81.9A168.1 168.1 0 0 1 406.4 188.6A168.1 168.1 0 0 0 250 81.9Z");
}
100% {
d:path("M250 70.8A179.2 179.2 0 0 1 416.8 184.5L406.4 188.6A168.1 168.1 0 0 0 250 81.9Z");
}
}
@keyframes zr42-ani-15 {
0% {
d:path("M250 70.8A179.2 179.2 0 0 1 390.1 138.3L390.1 138.3A179.2 179.2 0 0 0 250 70.8Z");
}
100% {
d:path("M250 59.7A190.3 190.3 0 0 1 398.8 131.4L390.1 138.3A179.2 179.2 0 0 0 250 70.8Z");
}
}
@keyframes zr42-ani-16 {
0% {
d:path("M250 59.7A190.3 190.3 0 0 1 306.1 68.2A190.3 190.3 0 0 0 250 59.7Z");
}
100% {
d:path("M250 48.6A201.4 201.4 0 0 1 309.4 57.6L306.1 68.2A190.3 190.3 0 0 0 250 59.7Z");
}
}
@keyframes zr42-ani-17 {
0% {
d:path("M306.1 68.2A190.3 190.3 0 0 1 357.2 92.8L357.2 92.8A190.3 190.3 0 0 0 306.1 68.2Z");
}
100% {
d:path("M309.4 57.6A201.4 201.4 0 0 1 363.4 83.6L357.2 92.8A190.3 190.3 0 0 0 306.1 68.2Z");
}
}
@keyframes zr42-ani-18 {
0% {
d:path("M357.2 92.8A190.3 190.3 0 0 1 398.8 131.4L398.8 131.4A190.3 190.3 0 0 0 357.2 92.8Z");
}
100% {
d:path("M363.4 83.6A201.4 201.4 0 0 1 407.5 124.4L398.8 131.4A190.3 190.3 0 0 0 357.2 92.8Z");
}
}
@keyframes zr42-ani-19 {
0% {
d:path("M390.1 138.3A179.2 179.2 0 0 1 416.8 184.5L416.8 184.5A179.2 179.2 0 0 0 390.1 138.3Z");
}
100% {
d:path("M398.8 131.4A190.3 190.3 0 0 1 427.1 180.5L416.8 184.5A179.2 179.2 0 0 0 390.1 138.3Z");
}
}
@keyframes zr42-ani-20 {
0% {
d:path("M398.8 131.4A190.3 190.3 0 0 1 427.1 180.5L427.1 180.5A190.3 190.3 0 0 0 398.8 131.4Z");
}
100% {
d:path("M407.5 124.4A201.4 201.4 0 0 1 437.5 176.4L427.1 180.5A190.3 190.3 0 0 0 398.8 131.4Z");
}
}
@keyframes zr42-ani-21 {
0% {
d:path("M407.5 124.4A201.4 201.4 0 0 1 437.5 176.4L437.5 176.4A201.4 201.4 0 0 0 407.5 124.4Z");
}
100% {
d:path("M416.1 117.5A212.5 212.5 0 0 1 447.8 172.4L437.5 176.4A201.4 201.4 0 0 0 407.5 124.4Z");
}
}
@keyframes zr42-ani-22 {
0% {
d:path("M282.3 237.3A34.7 34.7 0 0 1 283.9 257.7L283.9 257.7A34.7 34.7 0 0 0 282.3 237.3Z");
}
100% {
d:path("M292.7 233.3A45.8 45.8 0 0 1 294.7 260.2L283.9 257.7A34.7 34.7 0 0 0 282.3 237.3Z");
}
}
@keyframes zr42-ani-23 {
0% {
d:path("M292.7 233.3A45.8 45.8 0 0 1 294.7 260.2L294.7 260.2A45.8 45.8 0 0 0 292.7 233.3Z");
}
100% {
d:path("M303 229.2A56.9 56.9 0 0 1 305.5 262.7L294.7 260.2A45.8 45.8 0 0 0 292.7 233.3Z");
}
}
@keyframes zr42-ani-24 {
0% {
d:path("M303 229.2A56.9 56.9 0 0 1 305.5 262.7L305.5 262.7A56.9 56.9 0 0 0 303 229.2Z");
}
100% {
d:path("M313.4 225.1A68.1 68.1 0 0 1 316.3 265.1L305.5 262.7A56.9 56.9 0 0 0 303 229.2Z");
}
}
@keyframes zr42-ani-25 {
0% {
d:path("M313.4 225.1A68.1 68.1 0 0 1 316.3 265.1L316.3 265.1A68.1 68.1 0 0 0 313.4 225.1Z");
}
100% {
d:path("M323.7 221.1A79.2 79.2 0 0 1 327.2 267.6L316.3 265.1A68.1 68.1 0 0 0 313.4 225.1Z");
}
}
@keyframes zr42-ani-26 {
0% {
d:path("M323.7 221.1A79.2 79.2 0 0 1 328.9 244.1L328.9 244.1A79.2 79.2 0 0 0 323.7 221.1Z");
}
100% {
d:path("M334 217A90.3 90.3 0 0 1 340 243.3L328.9 244.1A79.2 79.2 0 0 0 323.7 221.1Z");
}
}
@keyframes zr42-ani-27 {
0% {
d:path("M328.9 244.1A79.2 79.2 0 0 1 327.2 267.6L327.2 267.6A79.2 79.2 0 0 0 328.9 244.1Z");
}
100% {
d:path("M340 243.3A90.3 90.3 0 0 1 338 270.1L327.2 267.6A79.2 79.2 0 0 0 328.9 244.1Z");
}
}
@keyframes zr42-ani-28 {
0% {
d:path("M340 243.3A90.3 90.3 0 0 1 338 270.1L338 270.1A90.3 90.3 0 0 0 340 243.3Z");
}
100% {
d:path("M351.1 242.4A101.4 101.4 0 0 1 348.8 272.6L338 270.1A90.3 90.3 0 0 0 340 243.3Z");
}
}
@keyframes zr42-ani-29 {
0% {
d:path("M351.1 242.4A101.4 101.4 0 0 1 348.8 272.6L348.8 272.6A101.4 101.4 0 0 0 351.1 242.4Z");
}
100% {
d:path("M362.2 241.6A112.5 112.5 0 0 1 359.7 275L348.8 272.6A101.4 101.4 0 0 0 351.1 242.4Z");
}
}
@keyframes zr42-ani-30 {
0% {
d:path("M362.2 241.6A112.5 112.5 0 0 1 359.7 275L359.7 275A112.5 112.5 0 0 0 362.2 241.6Z");
}
100% {
d:path("M373.3 240.8A123.6 123.6 0 0 1 370.5 277.5L359.7 275A112.5 112.5 0 0 0 362.2 241.6Z");
}
}
@keyframes zr42-ani-31 {
0% {
d:path("M373.3 240.8A123.6 123.6 0 0 1 370.5 277.5L370.5 277.5A123.6 123.6 0 0 0 373.3 240.8Z");
}
100% {
d:path("M384.3 239.9A134.7 134.7 0 0 1 381.3 280L370.5 277.5A123.6 123.6 0 0 0 373.3 240.8Z");
}
}
@keyframes zr42-ani-32 {
0% {
d:path("M384.3 239.9A134.7 134.7 0 0 1 381.3 280L381.3 280A134.7 134.7 0 0 0 384.3 239.9Z");
}
100% {
d:path("M395.4 239.1A145.8 145.8 0 0 1 392.2 282.5L381.3 280A134.7 134.7 0 0 0 384.3 239.9Z");
}
}
@keyframes zr42-ani-33 {
0% {
d:path("M395.4 239.1A145.8 145.8 0 0 1 392.2 282.5L392.2 282.5A145.8 145.8 0 0 0 395.4 239.1Z");
}
100% {
d:path("M406.5 238.3A156.9 156.9 0 0 1 403 284.9L392.2 282.5A145.8 145.8 0 0 0 395.4 239.1Z");
}
}
@keyframes zr42-ani-34 {
0% {
d:path("M406.5 238.3A156.9 156.9 0 0 1 403 284.9L403 284.9A156.9 156.9 0 0 0 406.5 238.3Z");
}
100% {
d:path("M417.6 237.4A168.1 168.1 0 0 1 413.8 287.4L403 284.9A156.9 156.9 0 0 0 406.5 238.3Z");
}
}
@keyframes zr42-ani-35 {
0% {
d:path("M417.6 237.4A168.1 168.1 0 0 1 413.8 287.4L413.8 287.4A168.1 168.1 0 0 0 417.6 237.4Z");
}
100% {
d:path("M428.7 236.6A179.2 179.2 0 0 1 424.7 289.9L413.8 287.4A168.1 168.1 0 0 0 417.6 237.4Z");
}
}
@keyframes zr42-ani-36 {
0% {
d:path("M428.7 236.6A179.2 179.2 0 0 1 424.7 289.9L424.7 289.9A179.2 179.2 0 0 0 428.7 236.6Z");
}
100% {
d:path("M439.7 235.8A190.3 190.3 0 0 1 435.5 292.3L424.7 289.9A179.2 179.2 0 0 0 428.7 236.6Z");
}
}
@keyframes zr42-ani-37 {
0% {
d:path("M283.9 257.7A34.7 34.7 0 0 1 280.1 267.4L280.1 267.4A34.7 34.7 0 0 0 283.9 257.7Z");
}
100% {
d:path("M294.7 260.2A45.8 45.8 0 0 1 289.7 272.9L280.1 267.4A34.7 34.7 0 0 0 283.9 257.7Z");
}
}
@keyframes zr42-ani-38 {
0% {
d:path("M294.7 260.2A45.8 45.8 0 0 1 289.7 272.9L289.7 272.9A45.8 45.8 0 0 0 294.7 260.2Z");
}
100% {
d:path("M305.5 262.7A56.9 56.9 0 0 1 299.3 278.5L289.7 272.9A45.8 45.8 0 0 0 294.7 260.2Z");
}
}
@keyframes zr42-ani-39 {
0% {
d:path("M305.5 262.7A56.9 56.9 0 0 1 299.3 278.5L299.3 278.5A56.9 56.9 0 0 0 305.5 262.7Z");
}
100% {
d:path("M316.3 265.1A68.1 68.1 0 0 1 308.9 284L299.3 278.5A56.9 56.9 0 0 0 305.5 262.7Z");
}
}
@keyframes zr42-ani-40 {
0% {
d:path("M316.3 265.1A68.1 68.1 0 0 1 308.9 284L308.9 284A68.1 68.1 0 0 0 316.3 265.1Z");
}
100% {
d:path("M327.2 267.6A79.2 79.2 0 0 1 318.6 289.6L308.9 284A68.1 68.1 0 0 0 316.3 265.1Z");
}
}
@keyframes zr42-ani-41 {
0% {
d:path("M327.2 267.6A79.2 79.2 0 0 1 318.6 289.6L318.6 289.6A79.2 79.2 0 0 0 327.2 267.6Z");
}
100% {
d:path("M338 270.1A90.3 90.3 0 0 1 328.2 295.1L318.6 289.6A79.2 79.2 0 0 0 327.2 267.6Z");
}
}
@keyframes zr42-ani-42 {
0% {
d:path("M338 270.1A90.3 90.3 0 0 1 328.2 295.1L328.2 295.1A90.3 90.3 0 0 0 338 270.1Z");
}
100% {
d:path("M348.8 272.6A101.4 101.4 0 0 1 337.8 300.7L328.2 295.1A90.3 90.3 0 0 0 338 270.1Z");
}
}
@keyframes zr42-ani-43 {
0% {
d:path("M348.8 272.6A101.4 101.4 0 0 1 337.8 300.7L337.8 300.7A101.4 101.4 0 0 0 348.8 272.6Z");
}
100% {
d:path("M359.7 275A112.5 112.5 0 0 1 347.4 306.2L337.8 300.7A101.4 101.4 0 0 0 348.8 272.6Z");
}
}
@keyframes zr42-ani-44 {
0% {
d:path("M280.1 267.4A34.7 34.7 0 0 1 273.6 275.5L273.6 275.5A34.7 34.7 0 0 0 280.1 267.4Z");
}
100% {
d:path("M289.7 272.9A45.8 45.8 0 0 1 281.2 283.6L273.6 275.5A34.7 34.7 0 0 0 280.1 267.4Z");
}
}
@keyframes zr42-ani-45 {
0% {
d:path("M289.7 272.9A45.8 45.8 0 0 1 281.2 283.6L281.2 283.6A45.8 45.8 0 0 0 289.7 272.9Z");
}
100% {
d:path("M299.3 278.5A56.9 56.9 0 0 1 288.7 291.7L281.2 283.6A45.8 45.8 0 0 0 289.7 272.9Z");
}
}
@keyframes zr42-ani-46 {
0% {
d:path("M299.3 278.5A56.9 56.9 0 0 1 288.7 291.7L288.7 291.7A56.9 56.9 0 0 0 299.3 278.5Z");
}
100% {
d:path("M308.9 284A68.1 68.1 0 0 1 296.3 299.9L288.7 291.7A56.9 56.9 0 0 0 299.3 278.5Z");
}
}
@keyframes zr42-ani-47 {
0% {
d:path("M308.9 284A68.1 68.1 0 0 1 296.3 299.9L296.3 299.9A68.1 68.1 0 0 0 308.9 284Z");
}
100% {
d:path("M318.6 289.6A79.2 79.2 0 0 1 303.8 308L296.3 299.9A68.1 68.1 0 0 0 308.9 284Z");
}
}
@keyframes zr42-ani-48 {
0% {
d:path("M318.6 289.6A79.2 79.2 0 0 1 303.8 308L303.8 308A79.2 79.2 0 0 0 318.6 289.6Z");
}
100% {
d:path("M328.2 295.1A90.3 90.3 0 0 1 311.4 316.2L303.8 308A79.2 79.2 0 0 0 318.6 289.6Z");
}
}
@keyframes zr42-ani-49 {
0% {
d:path("M266.1 267.3A23.6 23.6 0 0 1 239.8 271.3L239.8 271.3A23.6 23.6 0 0 0 266.1 267.3Z");
}
100% {
d:path("M273.6 275.5A34.7 34.7 0 0 1 234.9 281.3L239.8 271.3A23.6 23.6 0 0 0 266.1 267.3Z");
}
}
@keyframes zr42-ani-50 {
0% {
d:path("M273.6 275.5A34.7 34.7 0 0 1 265.1 281.3L265.1 281.3A34.7 34.7 0 0 0 273.6 275.5Z");
}
100% {
d:path("M281.2 283.6A45.8 45.8 0 0 1 269.9 291.3L265.1 281.3A34.7 34.7 0 0 0 273.6 275.5Z");
}
}
@keyframes zr42-ani-51 {
0% {
d:path("M281.2 283.6A45.8 45.8 0 0 1 269.9 291.3L269.9 291.3A45.8 45.8 0 0 0 281.2 283.6Z");
}
100% {
d:path("M288.7 291.7A56.9 56.9 0 0 1 274.7 301.3L269.9 291.3A45.8 45.8 0 0 0 281.2 283.6Z");
}
}
@keyframes zr42-ani-52 {
0% {
d:path("M265.1 281.3A34.7 34.7 0 0 1 255.2 284.3L255.2 284.3A34.7 34.7 0 0 0 265.1 281.3Z");
}
100% {
d:path("M269.9 291.3A45.8 45.8 0 0 1 256.8 295.3L255.2 284.3A34.7 34.7 0 0 0 265.1 281.3Z");
}
}
@keyframes zr42-ani-53 {
0% {
d:path("M269.9 291.3A45.8 45.8 0 0 1 256.8 295.3L256.8 295.3A45.8 45.8 0 0 0 269.9 291.3Z");
}
100% {
d:path("M274.7 301.3A56.9 56.9 0 0 1 258.5 306.3L256.8 295.3A45.8 45.8 0 0 0 269.9 291.3Z");
}
}
@keyframes zr42-ani-54 {
0% {
d:path("M255.2 284.3A34.7 34.7 0 0 1 244.8 284.3L244.8 284.3A34.7 34.7 0 0 0 255.2 284.3Z");
}
100% {
d:path("M256.8 295.3A45.8 45.8 0 0 1 243.2 295.3L244.8 284.3A34.7 34.7 0 0 0 255.2 284.3Z");
}
}
@keyframes zr42-ani-55 {
0% {
d:path("M256.8 295.3A45.8 45.8 0 0 1 243.2 295.3L243.2 295.3A45.8 45.8 0 0 0 256.8 295.3Z");
}
100% {
d:path("M258.5 306.3A56.9 56.9 0 0 1 241.5 306.3L243.2 295.3A45.8 45.8 0 0 0 256.8 295.3Z");
}
}
@keyframes zr42-ani-56 {
0% {
d:path("M244.8 284.3A34.7 34.7 0 0 1 234.9 281.3L234.9 281.3A34.7 34.7 0 0 0 244.8 284.3Z");
}
100% {
d:path("M243.2 295.3A45.8 45.8 0 0 1 230.1 291.3L234.9 281.3A34.7 34.7 0 0 0 244.8 284.3Z");
}
}
@keyframes zr42-ani-57 {
0% {
d:path("M243.2 295.3A45.8 45.8 0 0 1 230.1 291.3L230.1 291.3A45.8 45.8 0 0 0 243.2 295.3Z");
}
100% {
d:path("M241.5 306.3A56.9 56.9 0 0 1 225.3 301.3L230.1 291.3A45.8 45.8 0 0 0 243.2 295.3Z");
}
}
@keyframes zr42-ani-58 {
0% {
d:path("M244.6 261.3A12.5 12.5 0 0 1 240.2 242.2L240.2 242.2A12.5 12.5 0 0 0 244.6 261.3Z");
}
100% {
d:path("M239.8 271.3A23.6 23.6 0 0 1 231.5 235.3L240.2 242.2A12.5 12.5 0 0 0 244.6 261.3Z");
}
}
@keyframes zr42-ani-59 {
0% {
d:path("M239.8 271.3A23.6 23.6 0 0 1 231.5 235.3L231.5 235.3A23.6 23.6 0 0 0 239.8 271.3Z");
}
100% {
d:path("M234.9 281.3A34.7 34.7 0 0 1 222.9 228.4L231.5 235.3A23.6 23.6 0 0 0 239.8 271.3Z");
}
}
@keyframes zr42-ani-60 {
0% {
d:path("M234.9 281.3A34.7 34.7 0 0 1 226.4 275.5L226.4 275.5A34.7 34.7 0 0 0 234.9 281.3Z");
}
100% {
d:path("M230.1 291.3A45.8 45.8 0 0 1 218.8 283.6L226.4 275.5A34.7 34.7 0 0 0 234.9 281.3Z");
}
}
@keyframes zr42-ani-61 {
0% {
d:path("M226.4 275.5A34.7 34.7 0 0 1 219.9 267.4L219.9 267.4A34.7 34.7 0 0 0 226.4 275.5Z");
}
100% {
d:path("M218.8 283.6A45.8 45.8 0 0 1 210.3 272.9L219.9 267.4A34.7 34.7 0 0 0 226.4 275.5Z");
}
}
@keyframes zr42-ani-62 {
0% {
d:path("M219.9 267.4A34.7 34.7 0 0 1 216.1 257.7L216.1 257.7A34.7 34.7 0 0 0 219.9 267.4Z");
}
100% {
d:path("M210.3 272.9A45.8 45.8 0 0 1 205.3 260.2L216.1 257.7A34.7 34.7 0 0 0 219.9 267.4Z");
}
}
@keyframes zr42-ani-63 {
0% {
d:path("M216.1 257.7A34.7 34.7 0 0 1 215.4 247.4L215.4 247.4A34.7 34.7 0 0 0 216.1 257.7Z");
}
100% {
d:path("M205.3 260.2A45.8 45.8 0 0 1 204.3 246.6L215.4 247.4A34.7 34.7 0 0 0 216.1 257.7Z");
}
}
@keyframes zr42-ani-64 {
0% {
d:path("M215.4 247.4A34.7 34.7 0 0 1 217.7 237.3L217.7 237.3A34.7 34.7 0 0 0 215.4 247.4Z");
}
100% {
d:path("M204.3 246.6A45.8 45.8 0 0 1 207.3 233.3L217.7 237.3A34.7 34.7 0 0 0 215.4 247.4Z");
}
}
@keyframes zr42-ani-65 {
0% {
d:path("M217.7 237.3A34.7 34.7 0 0 1 222.9 228.4L222.9 228.4A34.7 34.7 0 0 0 217.7 237.3Z");
}
100% {
d:path("M207.3 233.3A45.8 45.8 0 0 1 214.2 221.4L222.9 228.4A34.7 34.7 0 0 0 217.7 237.3Z");
}
}
@keyframes zr42-ani-66 {
0% {
d:path("M240.2 242.2A12.5 12.5 0 0 1 250 237.5L250 237.5A12.5 12.5 0 0 0 240.2 242.2Z");
}
100% {
d:path("M231.5 235.3A23.6 23.6 0 0 1 250 226.4L250 237.5A12.5 12.5 0 0 0 240.2 242.2Z");
}
}
@keyframes zr42-ani-67 {
0% {
d:path("M231.5 235.3A23.6 23.6 0 0 1 243 227.4L243 227.4A23.6 23.6 0 0 0 231.5 235.3Z");
}
100% {
d:path("M222.9 228.4A34.7 34.7 0 0 1 239.8 216.8L243 227.4A23.6 23.6 0 0 0 231.5 235.3Z");
}
}
@keyframes zr42-ani-68 {
0% {
d:path("M243 227.4A23.6 23.6 0 0 1 250 226.4L250 226.4A23.6 23.6 0 0 0 243 227.4Z");
}
100% {
d:path("M239.8 216.8A34.7 34.7 0 0 1 250 215.3L250 226.4A23.6 23.6 0 0 0 243 227.4Z");
}
}
]]>

</style>
</svg>