<svg width="500" height="500" xmlns="http://www.w3.org/2000/svg" xmlns:xlink="http://www.w3.org/1999/xlink" version="1.1" baseProfile="full" viewBox="0 0 500 500">
<rect width="500" height="500" x="0" y="0" id="0" fill="none"></rect>
<path d="M250 217.5A32.5 32.5 0 1 1 217.5 248.5L237.5 249.4A12.5 12.5 0 1 0 250 237.5Z" fill="#C8C8C8" stroke="white" stroke-linejoin="bevel" class="zr8-cls-0"></path>
<path d="M250 197.5A52.5 52.5 0 1 1 197.6 247.5L217.5 248.5A32.5 32.5 0 1 0 250 217.5Z" fill="#C8C8C8" stroke="white" stroke-linejoin="bevel" class="zr8-cls-1"></path>
<path d="M217.5 248.5A32.5 32.5 0 0 1 250 217.5L250 237.5A12.5 12.5 0 0 0 237.5 249.4Z" fill="#000" stroke="white" stroke-linejoin="bevel" class="zr8-cls-2"></path>
<path d="M197.6 247.5A52.5 52.5 0 0 1 230.5 201.3L237.9 219.8A32.5 32.5 0 0 0 217.5 248.5Z" fill="#49ff49" fill-opacity="0.5" stroke="#fff" stroke-width="4" stroke-opacity="0.5" stroke-linejoin="bevel" class="zr8-cls-3"></path>
<path d="M177.6 246.6A72.5 72.5 0 0 1 190.9 207.9L207.2 219.5A52.5 52.5 0 0 0 197.6 247.5Z" fill="#000" stroke="white" stroke-linejoin="bevel" class="zr8-cls-4"></path>
<path d="M157.6 245.6A92.5 92.5 0 0 1 160.1 228.2L179.5 232.9A72.5 72.5 0 0 0 177.6 246.6Z" fill="#FF0000" stroke="white" stroke-linejoin="bevel" class="zr8-cls-5"></path>
<path d="M160.1 228.2A92.5 92.5 0 0 1 165.9 211.6L184.1 219.9A72.5 72.5 0 0 0 179.5 232.9Z" fill="#0AA40D" stroke="white" stroke-linejoin="bevel" class="zr8-cls-6"></path>
<path d="M165.9 211.6A92.5 92.5 0 0 1 174.7 196.3L190.9 207.9A72.5 72.5 0 0 0 184.1 219.9Z" fill="#F3C142" stroke="white" stroke-linejoin="bevel" class="zr8-cls-7"></path>
<path d="M190.9 207.9A72.5 72.5 0 0 1 200 197.5L213.8 212A52.5 52.5 0 0 0 207.2 219.5Z" fill="#000" stroke="white" stroke-linejoin="bevel" class="zr8-cls-8"></path>
<path d="M174.7 196.3A92.5 92.5 0 0 1 186.2 183.1L200 197.5A72.5 72.5 0 0 0 190.9 207.9Z" fill="#FF0000" stroke="white" stroke-linejoin="bevel" class="zr8-cls-9"></path>
<path d="M200 197.5A72.5 72.5 0 0 1 210.8 189L221.6 205.8A52.5 52.5 0 0 0 213.8 212Z" fill="#000" stroke="white" stroke-linejoin="bevel" class="zr8-cls-10"></path>
<path d="M186.2 183.1A92.5 92.5 0 0 1 200 172.2L210.8 189A72.5 72.5 0 0 0 200 197.5Z" fill="#FF0000" stroke="white" stroke-linejoin="bevel" class="zr8-cls-11"></path>
<path d="M210.8 189A72.5 72.5 0 0 1 223.1 182.7L230.5 201.3A52.5 52.5 0 0 0 221.6 205.8Z" fill="#000" stroke="white" stroke-linejoin="bevel" class="zr8-cls-12"></path>
<path d="M200 172.2A92.5 92.5 0 0 1 215.6 164.1L223.1 182.7A72.5 72.5 0 0 0 210.8 189Z" fill="#FF0000" stroke="white" stroke-linejoin="bevel" class="zr8-cls-13"></path>
<path d="M230.5 201.3A52.5 52.5 0 0 1 250 197.5L250 217.5A32.5 32.5 0 0 0 237.9 219.8Z" fill="#4949CD" fill-opacity="0.5" stroke="#fff" stroke-width="4" stroke-opacity="0.5" stroke-linejoin="bevel" class="zr8-cls-14"></path>
<path d="M223.1 182.7A72.5 72.5 0 0 1 236.3 178.8L240.1 198.4A52.5 52.5 0 0 0 230.5 201.3Z" fill="#000" stroke="white" stroke-linejoin="bevel" class="zr8-cls-15"></path>
<path d="M215.6 164.1A92.5 92.5 0 0 1 232.5 159.2L236.3 178.8A72.5 72.5 0 0 0 223.1 182.7Z" fill="#000" stroke="white" stroke-linejoin="bevel" class="zr8-cls-16"></path>
<path d="M208.2 145.6A112.5 112.5 0 0 1 228.7 139.5L232.5 159.2A92.5 92.5 0 0 0 215.6 164.1Z" fill="#4949CD" fill-opacity="0.5" stroke="#fff" stroke-width="4" stroke-opacity="0.5" stroke-linejoin="bevel" class="zr8-cls-17"></path>
<path d="M200.8 127A132.5 132.5 0 0 1 224.9 119.9L228.7 139.5A112.5 112.5 0 0 0 208.2 145.6Z" fill="#FF0000" stroke="white" stroke-linejoin="bevel" class="zr8-cls-18"></path>
<path d="M193.3 108.4A152.5 152.5 0 0 1 221.1 100.3L224.9 119.9A132.5 132.5 0 0 0 200.8 127Z" fill="#000" stroke="white" stroke-linejoin="bevel" class="zr8-cls-19"></path>
<path d="M185.9 89.9A172.5 172.5 0 0 1 217.4 80.6L221.1 100.3A152.5 152.5 0 0 0 193.3 108.4Z" fill="#ff4949" fill-opacity="0.5" stroke="#fff" stroke-width="4" stroke-opacity="0.5" stroke-linejoin="bevel" class="zr8-cls-20"></path>
<path d="M178.5 71.3A192.5 192.5 0 0 1 213.6 61L217.4 80.6A172.5 172.5 0 0 0 185.9 89.9Z" fill="#000" stroke="white" stroke-linejoin="bevel" class="zr8-cls-21"></path>
<path d="M171 52.7A212.5 212.5 0 0 1 209.8 41.3L213.6 61A192.5 192.5 0 0 0 178.5 71.3Z" fill="#000" stroke="white" stroke-linejoin="bevel" class="zr8-cls-22"></path>
<path d="M236.3 178.8A72.5 72.5 0 0 1 250 177.5L250 197.5A52.5 52.5 0 0 0 240.1 198.4Z" fill="#000" stroke="white" stroke-linejoin="bevel" class="zr8-cls-23"></path>
<path d="M232.5 159.2A92.5 92.5 0 0 1 250 157.5L250 177.5A72.5 72.5 0 0 0 236.3 178.8Z" fill="#000" stroke="white" stroke-linejoin="bevel" class="zr8-cls-24"></path>
<path d="M228.7 139.5A112.5 112.5 0 0 1 250 137.5L250 157.5A92.5 92.5 0 0 0 232.5 159.2Z" fill="#49ff49" fill-opacity="0.5" stroke="#fff" stroke-width="4" stroke-opacity="0.5" stroke-linejoin="bevel" class="zr8-cls-25"></path>
<path d="M224.9 119.9A132.5 132.5 0 0 1 250 117.5L250 137.5A112.5 112.5 0 0 0 228.7 139.5Z" fill="#FF0000" stroke="white" stroke-linejoin="bevel" class="zr8-cls-26"></path>
<text dominant-baseline="central" text-anchor="middle" style="font-size:12px;font-family:sans-serif;" transform="matrix(0.724,-0.69,0.69,0.724,265.5268,266.284)" fill="#333">info</text>
<text dominant-baseline="central" text-anchor="middle" style="font-size:10px;font-family:sans-serif;" transform="matrix(0.724,-0.69,0.69,0.724,279.3284,280.7587)" fill="#333">version</text>
<text dominant-baseline="central" text-anchor="middle" style="font-size:12px;font-family:sans-serif;" transform="matrix(0.724,-0.69,0.69,0.724,234.4732,233.716)" fill="#ccc" stroke="#000" stroke-width="2" paint-order="stroke" stroke-miterlimit="2">paths</text>
<text dominant-baseline="central" text-anchor="middle" style="font-size:9px;font-family:sans-serif;" transform="matrix(0.327,-0.945,0.945,0.327,190.9374,229.5583)" fill="#ccc" stroke="#000" stroke-width="2" paint-order="stroke" stroke-miterlimit="2">/devicestatus/</text>
<path d="M-14.8 -16l66.6 0l0 32l-66.6 0Z" transform="translate(448.253 16)" fill="none" stroke="#ccc" stroke-width="0"></path>
<path d="M-7.3 -1.8L-0.1 4.8L7.3 -1.6M-7.3 4.3L-7.3 8.5L7.1 8.5L7.1 4.3M-0.1 4.7L-0.1 -8.5" transform="translate(448.253 16)" fill="none" stroke="#666"></path>
<path d="M-7.9 1M5.1 -3.4L8.1 -3.4L8.1 -6.4M8 -3C6.7 -6.4 3.2 -8.9 -1 -8.4C-5.3 -8 -8.6 -4.2 -8.4 0.2M-5.1 3.4L-8.1 3.4L-8.1 6.4M-8 3C-6.7 6.4 -3.2 8.9 1 8.4C5.3 8 8.6 4.2 8.4 -0.2" transform="translate(484.0476 16)" fill="none" stroke="#666"></path>
<style ><![CDATA[
.zr8-cls-0 {
animation:zr8-ani-0 1s cubic-bezier(0.65,0,0.35,1) both;
}
.zr8-cls-1 {
animation:zr8-ani-1 1s cubic-bezier(0.65,0,0.35,1) both;
}
.zr8-cls-2 {
animation:zr8-ani-2 1s cubic-bezier(0.65,0,0.35,1) both;
}
.zr8-cls-3 {
animation:zr8-ani-3 1s cubic-bezier(0.65,0,0.35,1) both;
}
.zr8-cls-4 {
animation:zr8-ani-4 1s cubic-bezier(0.65,0,0.35,1) both;
}
.zr8-cls-5 {
animation:zr8-ani-5 1s cubic-bezier(0.65,0,0.35,1) both;
}
.zr8-cls-6 {
animation:zr8-ani-6 1s cubic-bezier(0.65,0,0.35,1) both;
}
.zr8-cls-7 {
animation:zr8-ani-7 1s cubic-bezier(0.65,0,0.35,1) both;
}
.zr8-cls-8 {
animation:zr8-ani-8 1s cubic-bezier(0.65,0,0.35,1) both;
}
.zr8-cls-9 {
animation:zr8-ani-9 1s cubic-bezier(0.65,0,0.35,1) both;
}
.zr8-cls-10 {
animation:zr8-ani-10 1s cubic-bezier(0.65,0,0.35,1) both;
}
.zr8-cls-11 {
animation:zr8-ani-11 1s cubic-bezier(0.65,0,0.35,1) both;
}
.zr8-cls-12 {
animation:zr8-ani-12 1s cubic-bezier(0.65,0,0.35,1) both;
}
.zr8-cls-13 {
animation:zr8-ani-13 1s cubic-bezier(0.65,0,0.35,1) both;
}
.zr8-cls-14 {
animation:zr8-ani-14 1s cubic-bezier(0.65,0,0.35,1) both;
}
.zr8-cls-15 {
animation:zr8-ani-15 1s cubic-bezier(0.65,0,0.35,1) both;
}
.zr8-cls-16 {
animation:zr8-ani-16 1s cubic-bezier(0.65,0,0.35,1) both;
}
.zr8-cls-17 {
animation:zr8-ani-17 1s cubic-bezier(0.65,0,0.35,1) both;
}
.zr8-cls-18 {
animation:zr8-ani-18 1s cubic-bezier(0.65,0,0.35,1) both;
}
.zr8-cls-19 {
animation:zr8-ani-19 1s cubic-bezier(0.65,0,0.35,1) both;
}
.zr8-cls-20 {
animation:zr8-ani-20 1s cubic-bezier(0.65,0,0.35,1) both;
}
.zr8-cls-21 {
animation:zr8-ani-21 1s cubic-bezier(0.65,0,0.35,1) both;
}
.zr8-cls-22 {
animation:zr8-ani-22 1s cubic-bezier(0.65,0,0.35,1) both;
}
.zr8-cls-23 {
animation:zr8-ani-23 1s cubic-bezier(0.65,0,0.35,1) both;
}
.zr8-cls-24 {
animation:zr8-ani-24 1s cubic-bezier(0.65,0,0.35,1) both;
}
.zr8-cls-25 {
animation:zr8-ani-25 1s cubic-bezier(0.65,0,0.35,1) both;
}
.zr8-cls-26 {
animation:zr8-ani-26 1s cubic-bezier(0.65,0,0.35,1) both;
}
@keyframes zr8-ani-0 {
0% {
d:path("M250 237.5A12.5 12.5 0 1 1 237.5 249.4A12.5 12.5 0 1 0 250 237.5Z");
}
100% {
d:path("M250 217.5A32.5 32.5 0 1 1 217.5 248.5L237.5 249.4A12.5 12.5 0 1 0 250 237.5Z");
}
}
@keyframes zr8-ani-1 {
0% {
d:path("M250 217.5A32.5 32.5 0 1 1 217.5 248.5A32.5 32.5 0 1 0 250 217.5Z");
}
100% {
d:path("M250 197.5A52.5 52.5 0 1 1 197.6 247.5L217.5 248.5A32.5 32.5 0 1 0 250 217.5Z");
}
}
@keyframes zr8-ani-2 {
0% {
d:path("M237.5 249.4A12.5 12.5 0 0 1 250 237.5L250 237.5A12.5 12.5 0 0 0 237.5 249.4Z");
}
100% {
d:path("M217.5 248.5A32.5 32.5 0 0 1 250 217.5L250 237.5A12.5 12.5 0 0 0 237.5 249.4Z");
}
}
@keyframes zr8-ani-3 {
0% {
d:path("M217.5 248.5A32.5 32.5 0 0 1 237.9 219.8L237.9 219.8A32.5 32.5 0 0 0 217.5 248.5Z");
}
100% {
d:path("M197.6 247.5A52.5 52.5 0 0 1 230.5 201.3L237.9 219.8A32.5 32.5 0 0 0 217.5 248.5Z");
}
}
@keyframes zr8-ani-4 {
0% {
d:path("M197.6 247.5A52.5 52.5 0 0 1 207.2 219.5L207.2 219.5A52.5 52.5 0 0 0 197.6 247.5Z");
}
100% {
d:path("M177.6 246.6A72.5 72.5 0 0 1 190.9 207.9L207.2 219.5A52.5 52.5 0 0 0 197.6 247.5Z");
}
}
@keyframes zr8-ani-5 {
0% {
d:path("M177.6 246.6A72.5 72.5 0 0 1 179.5 232.9L179.5 232.9A72.5 72.5 0 0 0 177.6 246.6Z");
}
100% {
d:path("M157.6 245.6A92.5 92.5 0 0 1 160.1 228.2L179.5 232.9A72.5 72.5 0 0 0 177.6 246.6Z");
}
}
@keyframes zr8-ani-6 {
0% {
d:path("M179.5 232.9A72.5 72.5 0 0 1 184.1 219.9L184.1 219.9A72.5 72.5 0 0 0 179.5 232.9Z");
}
100% {
d:path("M160.1 228.2A92.5 92.5 0 0 1 165.9 211.6L184.1 219.9A72.5 72.5 0 0 0 179.5 232.9Z");
}
}
@keyframes zr8-ani-7 {
0% {
d:path("M184.1 219.9A72.5 72.5 0 0 1 190.9 207.9L190.9 207.9A72.5 72.5 0 0 0 184.1 219.9Z");
}
100% {
d:path("M165.9 211.6A92.5 92.5 0 0 1 174.7 196.3L190.9 207.9A72.5 72.5 0 0 0 184.1 219.9Z");
}
}
@keyframes zr8-ani-8 {
0% {
d:path("M207.2 219.5A52.5 52.5 0 0 1 213.8 212L213.8 212A52.5 52.5 0 0 0 207.2 219.5Z");
}
100% {
d:path("M190.9 207.9A72.5 72.5 0 0 1 200 197.5L213.8 212A52.5 52.5 0 0 0 207.2 219.5Z");
}
}
@keyframes zr8-ani-9 {
0% {
d:path("M190.9 207.9A72.5 72.5 0 0 1 200 197.5L200 197.5A72.5 72.5 0 0 0 190.9 207.9Z");
}
100% {
d:path("M174.7 196.3A92.5 92.5 0 0 1 186.2 183.1L200 197.5A72.5 72.5 0 0 0 190.9 207.9Z");
}
}
@keyframes zr8-ani-10 {
0% {
d:path("M213.8 212A52.5 52.5 0 0 1 221.6 205.8L221.6 205.8A52.5 52.5 0 0 0 213.8 212Z");
}
100% {
d:path("M200 197.5A72.5 72.5 0 0 1 210.8 189L221.6 205.8A52.5 52.5 0 0 0 213.8 212Z");
}
}
@keyframes zr8-ani-11 {
0% {
d:path("M200 197.5A72.5 72.5 0 0 1 210.8 189L210.8 189A72.5 72.5 0 0 0 200 197.5Z");
}
100% {
d:path("M186.2 183.1A92.5 92.5 0 0 1 200 172.2L210.8 189A72.5 72.5 0 0 0 200 197.5Z");
}
}
@keyframes zr8-ani-12 {
0% {
d:path("M221.6 205.8A52.5 52.5 0 0 1 230.5 201.3L230.5 201.3A52.5 52.5 0 0 0 221.6 205.8Z");
}
100% {
d:path("M210.8 189A72.5 72.5 0 0 1 223.1 182.7L230.5 201.3A52.5 52.5 0 0 0 221.6 205.8Z");
}
}
@keyframes zr8-ani-13 {
0% {
d:path("M210.8 189A72.5 72.5 0 0 1 223.1 182.7L223.1 182.7A72.5 72.5 0 0 0 210.8 189Z");
}
100% {
d:path("M200 172.2A92.5 92.5 0 0 1 215.6 164.1L223.1 182.7A72.5 72.5 0 0 0 210.8 189Z");
}
}
@keyframes zr8-ani-14 {
0% {
d:path("M237.9 219.8A32.5 32.5 0 0 1 250 217.5L250 217.5A32.5 32.5 0 0 0 237.9 219.8Z");
}
100% {
d:path("M230.5 201.3A52.5 52.5 0 0 1 250 197.5L250 217.5A32.5 32.5 0 0 0 237.9 219.8Z");
}
}
@keyframes zr8-ani-15 {
0% {
d:path("M230.5 201.3A52.5 52.5 0 0 1 240.1 198.4L240.1 198.4A52.5 52.5 0 0 0 230.5 201.3Z");
}
100% {
d:path("M223.1 182.7A72.5 72.5 0 0 1 236.3 178.8L240.1 198.4A52.5 52.5 0 0 0 230.5 201.3Z");
}
}
@keyframes zr8-ani-16 {
0% {
d:path("M223.1 182.7A72.5 72.5 0 0 1 236.3 178.8L236.3 178.8A72.5 72.5 0 0 0 223.1 182.7Z");
}
100% {
d:path("M215.6 164.1A92.5 92.5 0 0 1 232.5 159.2L236.3 178.8A72.5 72.5 0 0 0 223.1 182.7Z");
}
}
@keyframes zr8-ani-17 {
0% {
d:path("M215.6 164.1A92.5 92.5 0 0 1 232.5 159.2L232.5 159.2A92.5 92.5 0 0 0 215.6 164.1Z");
}
100% {
d:path("M208.2 145.6A112.5 112.5 0 0 1 228.7 139.5L232.5 159.2A92.5 92.5 0 0 0 215.6 164.1Z");
}
}
@keyframes zr8-ani-18 {
0% {
d:path("M208.2 145.6A112.5 112.5 0 0 1 228.7 139.5L228.7 139.5A112.5 112.5 0 0 0 208.2 145.6Z");
}
100% {
d:path("M200.8 127A132.5 132.5 0 0 1 224.9 119.9L228.7 139.5A112.5 112.5 0 0 0 208.2 145.6Z");
}
}
@keyframes zr8-ani-19 {
0% {
d:path("M200.8 127A132.5 132.5 0 0 1 224.9 119.9L224.9 119.9A132.5 132.5 0 0 0 200.8 127Z");
}
100% {
d:path("M193.3 108.4A152.5 152.5 0 0 1 221.1 100.3L224.9 119.9A132.5 132.5 0 0 0 200.8 127Z");
}
}
@keyframes zr8-ani-20 {
0% {
d:path("M193.3 108.4A152.5 152.5 0 0 1 221.1 100.3L221.1 100.3A152.5 152.5 0 0 0 193.3 108.4Z");
}
100% {
d:path("M185.9 89.9A172.5 172.5 0 0 1 217.4 80.6L221.1 100.3A152.5 152.5 0 0 0 193.3 108.4Z");
}
}
@keyframes zr8-ani-21 {
0% {
d:path("M185.9 89.9A172.5 172.5 0 0 1 217.4 80.6L217.4 80.6A172.5 172.5 0 0 0 185.9 89.9Z");
}
100% {
d:path("M178.5 71.3A192.5 192.5 0 0 1 213.6 61L217.4 80.6A172.5 172.5 0 0 0 185.9 89.9Z");
}
}
@keyframes zr8-ani-22 {
0% {
d:path("M178.5 71.3A192.5 192.5 0 0 1 213.6 61L213.6 61A192.5 192.5 0 0 0 178.5 71.3Z");
}
100% {
d:path("M171 52.7A212.5 212.5 0 0 1 209.8 41.3L213.6 61A192.5 192.5 0 0 0 178.5 71.3Z");
}
}
@keyframes zr8-ani-23 {
0% {
d:path("M240.1 198.4A52.5 52.5 0 0 1 250 197.5L250 197.5A52.5 52.5 0 0 0 240.1 198.4Z");
}
100% {
d:path("M236.3 178.8A72.5 72.5 0 0 1 250 177.5L250 197.5A52.5 52.5 0 0 0 240.1 198.4Z");
}
}
@keyframes zr8-ani-24 {
0% {
d:path("M236.3 178.8A72.5 72.5 0 0 1 250 177.5L250 177.5A72.5 72.5 0 0 0 236.3 178.8Z");
}
100% {
d:path("M232.5 159.2A92.5 92.5 0 0 1 250 157.5L250 177.5A72.5 72.5 0 0 0 236.3 178.8Z");
}
}
@keyframes zr8-ani-25 {
0% {
d:path("M232.5 159.2A92.5 92.5 0 0 1 250 157.5L250 157.5A92.5 92.5 0 0 0 232.5 159.2Z");
}
100% {
d:path("M228.7 139.5A112.5 112.5 0 0 1 250 137.5L250 157.5A92.5 92.5 0 0 0 232.5 159.2Z");
}
}
@keyframes zr8-ani-26 {
0% {
d:path("M228.7 139.5A112.5 112.5 0 0 1 250 137.5L250 137.5A112.5 112.5 0 0 0 228.7 139.5Z");
}
100% {
d:path("M224.9 119.9A132.5 132.5 0 0 1 250 117.5L250 137.5A112.5 112.5 0 0 0 228.7 139.5Z");
}
}
]]>

</style>
</svg>