<svg width="500" height="500" xmlns="http://www.w3.org/2000/svg" xmlns:xlink="http://www.w3.org/1999/xlink" version="1.1" baseProfile="full" viewBox="0 0 500 500">
<rect width="500" height="500" x="0" y="0" id="0" fill="none"></rect>
<path d="M250 223.2A26.8 26.8 0 1 1 229.8 232.5L240.6 241.8A12.5 12.5 0 1 0 250 237.5Z" fill="#000" stroke="white" stroke-linejoin="bevel" class="zr22-cls-0"></path>
<path d="M250 208.9A41.1 41.1 0 1 1 250 291.1L250 276.8A26.8 26.8 0 0 0 250 223.2Z" fill="#49ff49" fill-opacity="0.5" stroke="#fff" stroke-width="4" stroke-opacity="0.5" stroke-linejoin="bevel" class="zr22-cls-1"></path>
<path d="M250 194.6A55.4 55.4 0 0 1 300.4 227L287.4 232.9A41.1 41.1 0 0 0 250 208.9Z" fill="#000" stroke="white" stroke-linejoin="bevel" class="zr22-cls-2"></path>
<path d="M250 180.4A69.6 69.6 0 0 1 269.6 183.2L265.6 196.9A55.4 55.4 0 0 0 250 194.6Z" fill="#FF0000" stroke="white" stroke-linejoin="bevel" class="zr22-cls-3"></path>
<path d="M269.6 183.2A69.6 69.6 0 0 1 287.7 191.4L279.9 203.4A55.4 55.4 0 0 0 265.6 196.9Z" fill="#0AA40D" stroke="white" stroke-linejoin="bevel" class="zr22-cls-4"></path>
<path d="M287.7 191.4A69.6 69.6 0 0 1 302.6 204.4L291.8 213.7A55.4 55.4 0 0 0 279.9 203.4Z" fill="#F3C142" stroke="white" stroke-linejoin="bevel" class="zr22-cls-5"></path>
<path d="M302.6 204.4A69.6 69.6 0 0 1 313.3 221.1L300.4 227A55.4 55.4 0 0 0 291.8 213.7Z" fill="#6dc0e3" stroke="white" stroke-linejoin="bevel" class="zr22-cls-6"></path>
<path d="M300.4 227A55.4 55.4 0 0 1 304.8 242.1L290.7 244.2A41.1 41.1 0 0 0 287.4 232.9Z" fill="#000" stroke="white" stroke-linejoin="bevel" class="zr22-cls-7"></path>
<path d="M313.3 221.1A69.6 69.6 0 0 1 318.9 240.1L304.8 242.1A55.4 55.4 0 0 0 300.4 227Z" fill="#0AA40D" stroke="white" stroke-linejoin="bevel" class="zr22-cls-8"></path>
<path d="M304.8 242.1A55.4 55.4 0 0 1 304.8 257.9L290.7 255.8A41.1 41.1 0 0 0 290.7 244.2Z" fill="#000" stroke="white" stroke-linejoin="bevel" class="zr22-cls-9"></path>
<path d="M318.9 240.1A69.6 69.6 0 0 1 318.9 259.9L304.8 257.9A55.4 55.4 0 0 0 304.8 242.1Z" fill="#0AA40D" stroke="white" stroke-linejoin="bevel" class="zr22-cls-10"></path>
<path d="M304.8 257.9A55.4 55.4 0 0 1 300.4 273L287.4 267.1A41.1 41.1 0 0 0 290.7 255.8Z" fill="#000" stroke="white" stroke-linejoin="bevel" class="zr22-cls-11"></path>
<path d="M318.9 259.9A69.6 69.6 0 0 1 313.3 278.9L300.4 273A55.4 55.4 0 0 0 304.8 257.9Z" fill="#0AA40D" stroke="white" stroke-linejoin="bevel" class="zr22-cls-12"></path>
<path d="M300.4 273A55.4 55.4 0 0 1 291.8 286.3L281 276.9A41.1 41.1 0 0 0 287.4 267.1Z" fill="#000" stroke="white" stroke-linejoin="bevel" class="zr22-cls-13"></path>
<path d="M313.3 278.9A69.6 69.6 0 0 1 302.6 295.6L291.8 286.3A55.4 55.4 0 0 0 300.4 273Z" fill="#0AA40D" stroke="white" stroke-linejoin="bevel" class="zr22-cls-14"></path>
<path d="M291.8 286.3A55.4 55.4 0 0 1 279.9 296.6L272.2 284.6A41.1 41.1 0 0 0 281 276.9Z" fill="#000" stroke="white" stroke-linejoin="bevel" class="zr22-cls-15"></path>
<path d="M302.6 295.6A69.6 69.6 0 0 1 287.7 308.6L279.9 296.6A55.4 55.4 0 0 0 291.8 286.3Z" fill="#0AA40D" stroke="white" stroke-linejoin="bevel" class="zr22-cls-16"></path>
<path d="M279.9 296.6A55.4 55.4 0 0 1 265.6 303.1L261.6 289.4A41.1 41.1 0 0 0 272.2 284.6Z" fill="#000" stroke="white" stroke-linejoin="bevel" class="zr22-cls-17"></path>
<path d="M287.7 308.6A69.6 69.6 0 0 1 269.6 316.8L265.6 303.1A55.4 55.4 0 0 0 279.9 296.6Z" fill="#0AA40D" stroke="white" stroke-linejoin="bevel" class="zr22-cls-18"></path>
<path d="M265.6 303.1A55.4 55.4 0 0 1 250 305.4L250 291.1A41.1 41.1 0 0 0 261.6 289.4Z" fill="#000" stroke="white" stroke-linejoin="bevel" class="zr22-cls-19"></path>
<path d="M269.6 316.8A69.6 69.6 0 0 1 250 319.6L250 305.4A55.4 55.4 0 0 0 265.6 303.1Z" fill="#0AA40D" stroke="white" stroke-linejoin="bevel" class="zr22-cls-20"></path>
<path d="M250 291.1A41.1 41.1 0 0 1 209.3 244.2L223.5 246.2A26.8 26.8 0 0 0 250 276.8Z" fill="#ff4949" fill-opacity="0.5" stroke="#fff" stroke-width="4" stroke-opacity="0.5" stroke-linejoin="bevel" class="zr22-cls-21"></path>
<path d="M250 305.4A55.4 55.4 0 0 1 199.6 273L212.6 267.1A41.1 41.1 0 0 0 250 291.1Z" fill="#000" stroke="white" stroke-linejoin="bevel" class="zr22-cls-22"></path>
<path d="M250 319.6A69.6 69.6 0 0 1 230.4 316.8L234.4 303.1A55.4 55.4 0 0 0 250 305.4Z" fill="#6dc0e3" stroke="white" stroke-linejoin="bevel" class="zr22-cls-23"></path>
<path d="M230.4 316.8A69.6 69.6 0 0 1 212.3 308.6L220.1 296.6A55.4 55.4 0 0 0 234.4 303.1Z" fill="#FF0000" stroke="white" stroke-linejoin="bevel" class="zr22-cls-24"></path>
<path d="M212.3 308.6A69.6 69.6 0 0 1 197.4 295.6L208.2 286.3A55.4 55.4 0 0 0 220.1 296.6Z" fill="#0AA40D" stroke="white" stroke-linejoin="bevel" class="zr22-cls-25"></path>
<path d="M197.4 295.6A69.6 69.6 0 0 1 186.7 278.9L199.6 273A55.4 55.4 0 0 0 208.2 286.3Z" fill="#F3C142" stroke="white" stroke-linejoin="bevel" class="zr22-cls-26"></path>
<path d="M199.6 273A55.4 55.4 0 0 1 195.2 257.9L209.3 255.8A41.1 41.1 0 0 0 212.6 267.1Z" fill="#000" stroke="white" stroke-linejoin="bevel" class="zr22-cls-27"></path>
<path d="M186.7 278.9A69.6 69.6 0 0 1 181.1 259.9L195.2 257.9A55.4 55.4 0 0 0 199.6 273Z" fill="#0AA40D" stroke="white" stroke-linejoin="bevel" class="zr22-cls-28"></path>
<path d="M195.2 257.9A55.4 55.4 0 0 1 195.2 242.1L209.3 244.2A41.1 41.1 0 0 0 209.3 255.8Z" fill="#000" stroke="white" stroke-linejoin="bevel" class="zr22-cls-29"></path>
<path d="M181.1 259.9A69.6 69.6 0 0 1 181.1 240.1L195.2 242.1A55.4 55.4 0 0 0 195.2 257.9Z" fill="#0AA40D" stroke="white" stroke-linejoin="bevel" class="zr22-cls-30"></path>
<path d="M209.3 244.2A41.1 41.1 0 0 1 219 223.1L229.8 232.5A26.8 26.8 0 0 0 223.5 246.2Z" fill="#4949CD" fill-opacity="0.5" stroke="#fff" stroke-width="4" stroke-opacity="0.5" stroke-linejoin="bevel" class="zr22-cls-31"></path>
<path d="M195.2 242.1A55.4 55.4 0 0 1 199.6 227L212.6 232.9A41.1 41.1 0 0 0 209.3 244.2Z" fill="#000" stroke="white" stroke-linejoin="bevel" class="zr22-cls-32"></path>
<path d="M181.1 240.1A69.6 69.6 0 0 1 186.7 221.1L199.6 227A55.4 55.4 0 0 0 195.2 242.1Z" fill="#000" stroke="white" stroke-linejoin="bevel" class="zr22-cls-33"></path>
<path d="M166.9 238.1A83.9 83.9 0 0 1 173.7 215.1L186.7 221.1A69.6 69.6 0 0 0 181.1 240.1Z" fill="#4949CD" fill-opacity="0.5" stroke="#fff" stroke-width="4" stroke-opacity="0.5" stroke-linejoin="bevel" class="zr22-cls-34"></path>
<path d="M152.8 236A98.2 98.2 0 0 1 160.7 209.2L173.7 215.1A83.9 83.9 0 0 0 166.9 238.1Z" fill="#0AA40D" stroke="white" stroke-linejoin="bevel" class="zr22-cls-35"></path>
<path d="M138.6 234A112.5 112.5 0 0 1 147.7 203.3L160.7 209.2A98.2 98.2 0 0 0 152.8 236Z" fill="#000" stroke="white" stroke-linejoin="bevel" class="zr22-cls-36"></path>
<path d="M124.5 232A126.8 126.8 0 0 1 134.7 197.3L147.7 203.3A112.5 112.5 0 0 0 138.6 234Z" fill="#4949CD" fill-opacity="0.5" stroke="#fff" stroke-width="4" stroke-opacity="0.5" stroke-linejoin="bevel" class="zr22-cls-37"></path>
<path d="M110.4 229.9A141.1 141.1 0 0 1 121.7 191.4L134.7 197.3A126.8 126.8 0 0 0 124.5 232Z" fill="#000" stroke="white" stroke-linejoin="bevel" class="zr22-cls-38"></path>
<path d="M96.2 227.9A155.4 155.4 0 0 1 108.7 185.5L121.7 191.4A141.1 141.1 0 0 0 110.4 229.9Z" fill="#000" stroke="white" stroke-linejoin="bevel" class="zr22-cls-39"></path>
<path d="M82.1 225.9A169.6 169.6 0 0 1 95.7 179.5L108.7 185.5A155.4 155.4 0 0 0 96.2 227.9Z" fill="#A0522D" stroke="white" stroke-linejoin="bevel" class="zr22-cls-40"></path>
<path d="M67.9 223.8A183.9 183.9 0 0 1 82.7 173.6L95.7 179.5A169.6 169.6 0 0 0 82.1 225.9Z" fill="#A0522D" stroke="white" stroke-linejoin="bevel" class="zr22-cls-41"></path>
<path d="M53.8 221.8A198.2 198.2 0 0 1 69.7 167.7L82.7 173.6A183.9 183.9 0 0 0 67.9 223.8Z" fill="#49ff49" fill-opacity="0.5" stroke="#fff" stroke-width="4" stroke-opacity="0.5" stroke-linejoin="bevel" class="zr22-cls-42"></path>
<path d="M39.7 219.8A212.5 212.5 0 0 1 56.7 161.7L69.7 167.7A198.2 198.2 0 0 0 53.8 221.8Z" fill="#A0522D" stroke="white" stroke-linejoin="bevel" class="zr22-cls-43"></path>
<path d="M199.6 227A55.4 55.4 0 0 1 208.2 213.7L219 223.1A41.1 41.1 0 0 0 212.6 232.9Z" fill="#000" stroke="white" stroke-linejoin="bevel" class="zr22-cls-44"></path>
<path d="M186.7 221.1A69.6 69.6 0 0 1 197.4 204.4L208.2 213.7A55.4 55.4 0 0 0 199.6 227Z" fill="#000" stroke="white" stroke-linejoin="bevel" class="zr22-cls-45"></path>
<path d="M173.7 215.1A83.9 83.9 0 0 1 186.6 195L197.4 204.4A69.6 69.6 0 0 0 186.7 221.1Z" fill="#4949CD" fill-opacity="0.5" stroke="#fff" stroke-width="4" stroke-opacity="0.5" stroke-linejoin="bevel" class="zr22-cls-46"></path>
<path d="M160.7 209.2A98.2 98.2 0 0 1 175.8 185.7L186.6 195A83.9 83.9 0 0 0 173.7 215.1Z" fill="#0AA40D" stroke="white" stroke-linejoin="bevel" class="zr22-cls-47"></path>
<path d="M147.7 203.3A112.5 112.5 0 0 1 165 176.3L175.8 185.7A98.2 98.2 0 0 0 160.7 209.2Z" fill="#000" stroke="white" stroke-linejoin="bevel" class="zr22-cls-48"></path>
<path d="M134.7 197.3A126.8 126.8 0 0 1 154.2 167L165 176.3A112.5 112.5 0 0 0 147.7 203.3Z" fill="#4949CD" fill-opacity="0.5" stroke="#fff" stroke-width="4" stroke-opacity="0.5" stroke-linejoin="bevel" class="zr22-cls-49"></path>
<path d="M121.7 191.4A141.1 141.1 0 0 1 143.4 157.6L154.2 167A126.8 126.8 0 0 0 134.7 197.3Z" fill="#000" stroke="white" stroke-linejoin="bevel" class="zr22-cls-50"></path>
<path d="M108.7 185.5A155.4 155.4 0 0 1 132.6 148.3L143.4 157.6A141.1 141.1 0 0 0 121.7 191.4Z" fill="#000" stroke="white" stroke-linejoin="bevel" class="zr22-cls-51"></path>
<path d="M95.7 179.5A169.6 169.6 0 0 1 121.8 138.9L132.6 148.3A155.4 155.4 0 0 0 108.7 185.5Z" fill="#A0522D" stroke="white" stroke-linejoin="bevel" class="zr22-cls-52"></path>
<path d="M82.7 173.6A183.9 183.9 0 0 1 111 129.6L121.8 138.9A169.6 169.6 0 0 0 95.7 179.5Z" fill="#A0522D" stroke="white" stroke-linejoin="bevel" class="zr22-cls-53"></path>
<path d="M69.7 167.7A198.2 198.2 0 0 1 100.2 120.2L111 129.6A183.9 183.9 0 0 0 82.7 173.6Z" fill="#49ff49" fill-opacity="0.5" stroke="#fff" stroke-width="4" stroke-opacity="0.5" stroke-linejoin="bevel" class="zr22-cls-54"></path>
<path d="M56.7 161.7A212.5 212.5 0 0 1 89.4 110.8L100.2 120.2A198.2 198.2 0 0 0 69.7 167.7Z" fill="#A0522D" stroke="white" stroke-linejoin="bevel" class="zr22-cls-55"></path>
<path d="M229.8 232.5A26.8 26.8 0 0 1 242.5 224.3L246.5 238A12.5 12.5 0 0 0 240.6 241.8Z" fill="#C8C8C8" stroke="white" stroke-linejoin="bevel" class="zr22-cls-56"></path>
<path d="M219 223.1A41.1 41.1 0 0 1 227.8 215.4L235.5 227.5A26.8 26.8 0 0 0 229.8 232.5Z" fill="#49ff49" fill-opacity="0.5" stroke="#fff" stroke-width="4" stroke-opacity="0.5" stroke-linejoin="bevel" class="zr22-cls-57"></path>
<path d="M208.2 213.7A55.4 55.4 0 0 1 220.1 203.4L227.8 215.4A41.1 41.1 0 0 0 219 223.1Z" fill="#C8C8C8" stroke="white" stroke-linejoin="bevel" class="zr22-cls-58"></path>
<path d="M227.8 215.4A41.1 41.1 0 0 1 238.4 210.6L242.5 224.3A26.8 26.8 0 0 0 235.5 227.5Z" fill="#ff4949" fill-opacity="0.5" stroke="#fff" stroke-width="4" stroke-opacity="0.5" stroke-linejoin="bevel" class="zr22-cls-59"></path>
<path d="M220.1 203.4A55.4 55.4 0 0 1 234.4 196.9L238.4 210.6A41.1 41.1 0 0 0 227.8 215.4Z" fill="#C8C8C8" stroke="white" stroke-linejoin="bevel" class="zr22-cls-60"></path>
<path d="M242.5 224.3A26.8 26.8 0 0 1 250 223.2L250 237.5A12.5 12.5 0 0 0 246.5 238Z" fill="#C8C8C8" stroke="white" stroke-linejoin="bevel" class="zr22-cls-61"></path>
<path d="M238.4 210.6A41.1 41.1 0 0 1 250 208.9L250 223.2A26.8 26.8 0 0 0 242.5 224.3Z" fill="#C8C8C8" stroke="white" stroke-linejoin="bevel" class="zr22-cls-62"></path>
<text dominant-baseline="central" text-anchor="middle" style="font-size:12px;font-family:sans-serif;" transform="matrix(0.91,-0.415,0.415,0.91,258.1599,267.8678)" fill="#ccc" stroke="#000" stroke-width="2" paint-order="stroke" stroke-miterlimit="2">paths</text>
<text dominant-baseline="central" text-anchor="middle" style="font-size:12px;font-family:sans-serif;" transform="matrix(0.756,0.655,-0.655,0.756,290.9288,202.7657)" fill="#333">POST</text>
<text dominant-baseline="central" text-anchor="middle" style="font-size:12px;font-family:sans-serif;" transform="matrix(0.282,0.959,-0.959,0.282,309.9683,232.3917)" fill="#eee" stroke="#0AA40D" stroke-width="2" paint-order="stroke" stroke-miterlimit="2">GET</text>
<text dominant-baseline="central" text-anchor="middle" style="font-size:12px;font-family:sans-serif;" transform="matrix(0.282,-0.959,0.959,0.282,309.9683,267.6083)" fill="#eee" stroke="#0AA40D" stroke-width="2" paint-order="stroke" stroke-miterlimit="2">GET</text>
<text dominant-baseline="central" text-anchor="middle" style="font-size:12px;font-family:sans-serif;" transform="matrix(0.756,-0.655,0.655,0.756,290.9288,297.2343)" fill="#eee" stroke="#0AA40D" stroke-width="2" paint-order="stroke" stroke-miterlimit="2">GET</text>
<text dominant-baseline="central" text-anchor="middle" style="font-size:12px;font-family:sans-serif;" transform="matrix(0.99,-0.142,0.142,0.99,258.8947,311.8638)" fill="#eee" stroke="#0AA40D" stroke-width="2" paint-order="stroke" stroke-miterlimit="2">GET</text>
<text dominant-baseline="central" text-anchor="middle" style="font-size:12px;font-family:sans-serif;" transform="matrix(0.756,0.655,-0.655,0.756,209.0712,297.2343)" fill="#eee" stroke="#0AA40D" stroke-width="2" paint-order="stroke" stroke-miterlimit="2">GET</text>
<text dominant-baseline="central" text-anchor="middle" style="font-size:12px;font-family:sans-serif;" transform="matrix(0.282,0.959,-0.959,0.282,190.0317,267.6083)" fill="#eee" stroke="#0AA40D" stroke-width="2" paint-order="stroke" stroke-miterlimit="2">GET</text>
<text dominant-baseline="central" text-anchor="middle" style="font-size:12px;font-family:sans-serif;" transform="matrix(0.282,-0.959,0.959,0.282,121.4965,212.268)" fill="#ccc" stroke="#000" stroke-width="2" paint-order="stroke" stroke-miterlimit="2">query</text>
<text dominant-baseline="central" text-anchor="middle" style="font-size:10px;font-family:sans-serif;" transform="matrix(0.282,-0.959,0.959,0.282,107.7894,208.2432)" fill="#ccc" stroke="#000" stroke-width="2" paint-order="stroke" stroke-miterlimit="2">_output</text>
<text dominant-baseline="central" text-anchor="middle" style="font-size:12px;font-family:sans-serif;" transform="matrix(0.282,-0.959,0.959,0.282,94.0824,204.2185)" fill="#eee" stroke="#A0522D" stroke-width="2" paint-order="stroke" stroke-miterlimit="2">schema</text>
<text dominant-baseline="central" text-anchor="middle" style="font-size:12px;font-family:sans-serif;" transform="matrix(0.282,-0.959,0.959,0.282,80.3753,200.1937)" fill="#eee" stroke="#A0522D" stroke-width="2" paint-order="stroke" stroke-miterlimit="2">enum</text>
<text dominant-baseline="central" text-anchor="middle" style="font-size:12px;font-family:sans-serif;" transform="matrix(0.282,-0.959,0.959,0.282,52.9613,192.1442)" fill="#eee" stroke="#A0522D" stroke-width="2" paint-order="stroke" stroke-miterlimit="2">token</text>
<text dominant-baseline="central" text-anchor="middle" style="font-size:9px;font-family:sans-serif;" transform="matrix(0.541,-0.841,0.841,0.541,197.4217,216.2099)" fill="#ccc" stroke="#000" stroke-width="2" paint-order="stroke" stroke-miterlimit="2">operations</text>
<text dominant-baseline="central" text-anchor="middle" style="font-size:12px;font-family:sans-serif;" transform="matrix(0.541,-0.841,0.841,0.541,173.3858,200.7631)" fill="#eee" stroke="#0AA40D" stroke-width="2" paint-order="stroke" stroke-miterlimit="2">GET</text>
<text dominant-baseline="central" text-anchor="middle" style="font-size:9px;font-family:sans-serif;" transform="matrix(0.541,-0.841,0.841,0.541,161.3679,193.0396)" fill="#ccc" stroke="#000" stroke-width="2" paint-order="stroke" stroke-miterlimit="2">params</text>
<text dominant-baseline="central" text-anchor="middle" style="font-size:12px;font-family:sans-serif;" transform="matrix(0.541,-0.841,0.841,0.541,137.3321,177.5927)" fill="#ccc" stroke="#000" stroke-width="2" paint-order="stroke" stroke-miterlimit="2">query</text>
<text dominant-baseline="central" text-anchor="middle" style="font-size:10px;font-family:sans-serif;" transform="matrix(0.541,-0.841,0.841,0.541,125.3142,169.8693)" fill="#ccc" stroke="#000" stroke-width="2" paint-order="stroke" stroke-miterlimit="2">_crosstab</text>
<text dominant-baseline="central" text-anchor="middle" style="font-size:12px;font-family:sans-serif;" transform="matrix(0.541,-0.841,0.841,0.541,113.2963,162.1459)" fill="#eee" stroke="#A0522D" stroke-width="2" paint-order="stroke" stroke-miterlimit="2">schema</text>
<text dominant-baseline="central" text-anchor="middle" style="font-size:12px;font-family:sans-serif;" transform="matrix(0.541,-0.841,0.841,0.541,101.2784,154.4224)" fill="#eee" stroke="#A0522D" stroke-width="2" paint-order="stroke" stroke-miterlimit="2">enum</text>
<text dominant-baseline="central" text-anchor="middle" style="font-size:9px;font-family:sans-serif;" transform="matrix(0.541,-0.841,0.841,0.541,77.2426,138.9755)" fill="#eee" stroke="#A0522D" stroke-width="2" paint-order="stroke" stroke-miterlimit="2">DemoOrder-TC4</text>
<text dominant-baseline="central" text-anchor="middle" style="font-size:12px;font-family:sans-serif;" transform="matrix(0.841,-0.541,0.541,0.841,239.3803,233.4754)" fill="#333">tags</text>
<text dominant-baseline="central" text-anchor="middle" style="font-size:10px;font-family:sans-serif;" transform="matrix(0.99,-0.142,0.142,0.99,245.1715,216.4168)" fill="#333">version</text>
<path d="M-14.8 -16l66.6 0l0 32l-66.6 0Z" transform="translate(448.253 16)" fill="none" stroke="#ccc" stroke-width="0"></path>
<path d="M-7.3 -1.8L-0.1 4.8L7.3 -1.6M-7.3 4.3L-7.3 8.5L7.1 8.5L7.1 4.3M-0.1 4.7L-0.1 -8.5" transform="translate(448.253 16)" fill="none" stroke="#666"></path>
<path d="M-7.9 1M5.1 -3.4L8.1 -3.4L8.1 -6.4M8 -3C6.7 -6.4 3.2 -8.9 -1 -8.4C-5.3 -8 -8.6 -4.2 -8.4 0.2M-5.1 3.4L-8.1 3.4L-8.1 6.4M-8 3C-6.7 6.4 -3.2 8.9 1 8.4C5.3 8 8.6 4.2 8.4 -0.2" transform="translate(484.0476 16)" fill="none" stroke="#666"></path>
<style ><![CDATA[
.zr22-cls-0 {
animation:zr22-ani-0 1s cubic-bezier(0.65,0,0.35,1) both;
}
.zr22-cls-1 {
animation:zr22-ani-1 1s cubic-bezier(0.65,0,0.35,1) both;
}
.zr22-cls-2 {
animation:zr22-ani-2 1s cubic-bezier(0.65,0,0.35,1) both;
}
.zr22-cls-3 {
animation:zr22-ani-3 1s cubic-bezier(0.65,0,0.35,1) both;
}
.zr22-cls-4 {
animation:zr22-ani-4 1s cubic-bezier(0.65,0,0.35,1) both;
}
.zr22-cls-5 {
animation:zr22-ani-5 1s cubic-bezier(0.65,0,0.35,1) both;
}
.zr22-cls-6 {
animation:zr22-ani-6 1s cubic-bezier(0.65,0,0.35,1) both;
}
.zr22-cls-7 {
animation:zr22-ani-7 1s cubic-bezier(0.65,0,0.35,1) both;
}
.zr22-cls-8 {
animation:zr22-ani-8 1s cubic-bezier(0.65,0,0.35,1) both;
}
.zr22-cls-9 {
animation:zr22-ani-9 1s cubic-bezier(0.65,0,0.35,1) both;
}
.zr22-cls-10 {
animation:zr22-ani-10 1s cubic-bezier(0.65,0,0.35,1) both;
}
.zr22-cls-11 {
animation:zr22-ani-11 1s cubic-bezier(0.65,0,0.35,1) both;
}
.zr22-cls-12 {
animation:zr22-ani-12 1s cubic-bezier(0.65,0,0.35,1) both;
}
.zr22-cls-13 {
animation:zr22-ani-13 1s cubic-bezier(0.65,0,0.35,1) both;
}
.zr22-cls-14 {
animation:zr22-ani-14 1s cubic-bezier(0.65,0,0.35,1) both;
}
.zr22-cls-15 {
animation:zr22-ani-15 1s cubic-bezier(0.65,0,0.35,1) both;
}
.zr22-cls-16 {
animation:zr22-ani-16 1s cubic-bezier(0.65,0,0.35,1) both;
}
.zr22-cls-17 {
animation:zr22-ani-17 1s cubic-bezier(0.65,0,0.35,1) both;
}
.zr22-cls-18 {
animation:zr22-ani-18 1s cubic-bezier(0.65,0,0.35,1) both;
}
.zr22-cls-19 {
animation:zr22-ani-19 1s cubic-bezier(0.65,0,0.35,1) both;
}
.zr22-cls-20 {
animation:zr22-ani-20 1s cubic-bezier(0.65,0,0.35,1) both;
}
.zr22-cls-21 {
animation:zr22-ani-21 1s cubic-bezier(0.65,0,0.35,1) both;
}
.zr22-cls-22 {
animation:zr22-ani-22 1s cubic-bezier(0.65,0,0.35,1) both;
}
.zr22-cls-23 {
animation:zr22-ani-23 1s cubic-bezier(0.65,0,0.35,1) both;
}
.zr22-cls-24 {
animation:zr22-ani-24 1s cubic-bezier(0.65,0,0.35,1) both;
}
.zr22-cls-25 {
animation:zr22-ani-25 1s cubic-bezier(0.65,0,0.35,1) both;
}
.zr22-cls-26 {
animation:zr22-ani-26 1s cubic-bezier(0.65,0,0.35,1) both;
}
.zr22-cls-27 {
animation:zr22-ani-27 1s cubic-bezier(0.65,0,0.35,1) both;
}
.zr22-cls-28 {
animation:zr22-ani-28 1s cubic-bezier(0.65,0,0.35,1) both;
}
.zr22-cls-29 {
animation:zr22-ani-29 1s cubic-bezier(0.65,0,0.35,1) both;
}
.zr22-cls-30 {
animation:zr22-ani-30 1s cubic-bezier(0.65,0,0.35,1) both;
}
.zr22-cls-31 {
animation:zr22-ani-31 1s cubic-bezier(0.65,0,0.35,1) both;
}
.zr22-cls-32 {
animation:zr22-ani-32 1s cubic-bezier(0.65,0,0.35,1) both;
}
.zr22-cls-33 {
animation:zr22-ani-33 1s cubic-bezier(0.65,0,0.35,1) both;
}
.zr22-cls-34 {
animation:zr22-ani-34 1s cubic-bezier(0.65,0,0.35,1) both;
}
.zr22-cls-35 {
animation:zr22-ani-35 1s cubic-bezier(0.65,0,0.35,1) both;
}
.zr22-cls-36 {
animation:zr22-ani-36 1s cubic-bezier(0.65,0,0.35,1) both;
}
.zr22-cls-37 {
animation:zr22-ani-37 1s cubic-bezier(0.65,0,0.35,1) both;
}
.zr22-cls-38 {
animation:zr22-ani-38 1s cubic-bezier(0.65,0,0.35,1) both;
}
.zr22-cls-39 {
animation:zr22-ani-39 1s cubic-bezier(0.65,0,0.35,1) both;
}
.zr22-cls-40 {
animation:zr22-ani-40 1s cubic-bezier(0.65,0,0.35,1) both;
}
.zr22-cls-41 {
animation:zr22-ani-41 1s cubic-bezier(0.65,0,0.35,1) both;
}
.zr22-cls-42 {
animation:zr22-ani-42 1s cubic-bezier(0.65,0,0.35,1) both;
}
.zr22-cls-43 {
animation:zr22-ani-43 1s cubic-bezier(0.65,0,0.35,1) both;
}
.zr22-cls-44 {
animation:zr22-ani-44 1s cubic-bezier(0.65,0,0.35,1) both;
}
.zr22-cls-45 {
animation:zr22-ani-45 1s cubic-bezier(0.65,0,0.35,1) both;
}
.zr22-cls-46 {
animation:zr22-ani-46 1s cubic-bezier(0.65,0,0.35,1) both;
}
.zr22-cls-47 {
animation:zr22-ani-47 1s cubic-bezier(0.65,0,0.35,1) both;
}
.zr22-cls-48 {
animation:zr22-ani-48 1s cubic-bezier(0.65,0,0.35,1) both;
}
.zr22-cls-49 {
animation:zr22-ani-49 1s cubic-bezier(0.65,0,0.35,1) both;
}
.zr22-cls-50 {
animation:zr22-ani-50 1s cubic-bezier(0.65,0,0.35,1) both;
}
.zr22-cls-51 {
animation:zr22-ani-51 1s cubic-bezier(0.65,0,0.35,1) both;
}
.zr22-cls-52 {
animation:zr22-ani-52 1s cubic-bezier(0.65,0,0.35,1) both;
}
.zr22-cls-53 {
animation:zr22-ani-53 1s cubic-bezier(0.65,0,0.35,1) both;
}
.zr22-cls-54 {
animation:zr22-ani-54 1s cubic-bezier(0.65,0,0.35,1) both;
}
.zr22-cls-55 {
animation:zr22-ani-55 1s cubic-bezier(0.65,0,0.35,1) both;
}
.zr22-cls-56 {
animation:zr22-ani-56 1s cubic-bezier(0.65,0,0.35,1) both;
}
.zr22-cls-57 {
animation:zr22-ani-57 1s cubic-bezier(0.65,0,0.35,1) both;
}
.zr22-cls-58 {
animation:zr22-ani-58 1s cubic-bezier(0.65,0,0.35,1) both;
}
.zr22-cls-59 {
animation:zr22-ani-59 1s cubic-bezier(0.65,0,0.35,1) both;
}
.zr22-cls-60 {
animation:zr22-ani-60 1s cubic-bezier(0.65,0,0.35,1) both;
}
.zr22-cls-61 {
animation:zr22-ani-61 1s cubic-bezier(0.65,0,0.35,1) both;
}
.zr22-cls-62 {
animation:zr22-ani-62 1s cubic-bezier(0.65,0,0.35,1) both;
}
@keyframes zr22-ani-0 {
0% {
d:path("M250 237.5A12.5 12.5 0 1 1 240.6 241.8A12.5 12.5 0 1 0 250 237.5Z");
}
100% {
d:path("M250 223.2A26.8 26.8 0 1 1 229.8 232.5L240.6 241.8A12.5 12.5 0 1 0 250 237.5Z");
}
}
@keyframes zr22-ani-1 {
0% {
d:path("M250 223.2A26.8 26.8 0 1 1 250 276.8A26.8 26.8 0 0 0 250 223.2Z");
}
100% {
d:path("M250 208.9A41.1 41.1 0 1 1 250 291.1L250 276.8A26.8 26.8 0 0 0 250 223.2Z");
}
}
@keyframes zr22-ani-2 {
0% {
d:path("M250 208.9A41.1 41.1 0 0 1 287.4 232.9A41.1 41.1 0 0 0 250 208.9Z");
}
100% {
d:path("M250 194.6A55.4 55.4 0 0 1 300.4 227L287.4 232.9A41.1 41.1 0 0 0 250 208.9Z");
}
}
@keyframes zr22-ani-3 {
0% {
d:path("M250 194.6A55.4 55.4 0 0 1 265.6 196.9A55.4 55.4 0 0 0 250 194.6Z");
}
100% {
d:path("M250 180.4A69.6 69.6 0 0 1 269.6 183.2L265.6 196.9A55.4 55.4 0 0 0 250 194.6Z");
}
}
@keyframes zr22-ani-4 {
0% {
d:path("M265.6 196.9A55.4 55.4 0 0 1 279.9 203.4L279.9 203.4A55.4 55.4 0 0 0 265.6 196.9Z");
}
100% {
d:path("M269.6 183.2A69.6 69.6 0 0 1 287.7 191.4L279.9 203.4A55.4 55.4 0 0 0 265.6 196.9Z");
}
}
@keyframes zr22-ani-5 {
0% {
d:path("M279.9 203.4A55.4 55.4 0 0 1 291.8 213.7L291.8 213.7A55.4 55.4 0 0 0 279.9 203.4Z");
}
100% {
d:path("M287.7 191.4A69.6 69.6 0 0 1 302.6 204.4L291.8 213.7A55.4 55.4 0 0 0 279.9 203.4Z");
}
}
@keyframes zr22-ani-6 {
0% {
d:path("M291.8 213.7A55.4 55.4 0 0 1 300.4 227L300.4 227A55.4 55.4 0 0 0 291.8 213.7Z");
}
100% {
d:path("M302.6 204.4A69.6 69.6 0 0 1 313.3 221.1L300.4 227A55.4 55.4 0 0 0 291.8 213.7Z");
}
}
@keyframes zr22-ani-7 {
0% {
d:path("M287.4 232.9A41.1 41.1 0 0 1 290.7 244.2L290.7 244.2A41.1 41.1 0 0 0 287.4 232.9Z");
}
100% {
d:path("M300.4 227A55.4 55.4 0 0 1 304.8 242.1L290.7 244.2A41.1 41.1 0 0 0 287.4 232.9Z");
}
}
@keyframes zr22-ani-8 {
0% {
d:path("M300.4 227A55.4 55.4 0 0 1 304.8 242.1L304.8 242.1A55.4 55.4 0 0 0 300.4 227Z");
}
100% {
d:path("M313.3 221.1A69.6 69.6 0 0 1 318.9 240.1L304.8 242.1A55.4 55.4 0 0 0 300.4 227Z");
}
}
@keyframes zr22-ani-9 {
0% {
d:path("M290.7 244.2A41.1 41.1 0 0 1 290.7 255.8L290.7 255.8A41.1 41.1 0 0 0 290.7 244.2Z");
}
100% {
d:path("M304.8 242.1A55.4 55.4 0 0 1 304.8 257.9L290.7 255.8A41.1 41.1 0 0 0 290.7 244.2Z");
}
}
@keyframes zr22-ani-10 {
0% {
d:path("M304.8 242.1A55.4 55.4 0 0 1 304.8 257.9L304.8 257.9A55.4 55.4 0 0 0 304.8 242.1Z");
}
100% {
d:path("M318.9 240.1A69.6 69.6 0 0 1 318.9 259.9L304.8 257.9A55.4 55.4 0 0 0 304.8 242.1Z");
}
}
@keyframes zr22-ani-11 {
0% {
d:path("M290.7 255.8A41.1 41.1 0 0 1 287.4 267.1L287.4 267.1A41.1 41.1 0 0 0 290.7 255.8Z");
}
100% {
d:path("M304.8 257.9A55.4 55.4 0 0 1 300.4 273L287.4 267.1A41.1 41.1 0 0 0 290.7 255.8Z");
}
}
@keyframes zr22-ani-12 {
0% {
d:path("M304.8 257.9A55.4 55.4 0 0 1 300.4 273L300.4 273A55.4 55.4 0 0 0 304.8 257.9Z");
}
100% {
d:path("M318.9 259.9A69.6 69.6 0 0 1 313.3 278.9L300.4 273A55.4 55.4 0 0 0 304.8 257.9Z");
}
}
@keyframes zr22-ani-13 {
0% {
d:path("M287.4 267.1A41.1 41.1 0 0 1 281 276.9L281 276.9A41.1 41.1 0 0 0 287.4 267.1Z");
}
100% {
d:path("M300.4 273A55.4 55.4 0 0 1 291.8 286.3L281 276.9A41.1 41.1 0 0 0 287.4 267.1Z");
}
}
@keyframes zr22-ani-14 {
0% {
d:path("M300.4 273A55.4 55.4 0 0 1 291.8 286.3L291.8 286.3A55.4 55.4 0 0 0 300.4 273Z");
}
100% {
d:path("M313.3 278.9A69.6 69.6 0 0 1 302.6 295.6L291.8 286.3A55.4 55.4 0 0 0 300.4 273Z");
}
}
@keyframes zr22-ani-15 {
0% {
d:path("M281 276.9A41.1 41.1 0 0 1 272.2 284.6L272.2 284.6A41.1 41.1 0 0 0 281 276.9Z");
}
100% {
d:path("M291.8 286.3A55.4 55.4 0 0 1 279.9 296.6L272.2 284.6A41.1 41.1 0 0 0 281 276.9Z");
}
}
@keyframes zr22-ani-16 {
0% {
d:path("M291.8 286.3A55.4 55.4 0 0 1 279.9 296.6L279.9 296.6A55.4 55.4 0 0 0 291.8 286.3Z");
}
100% {
d:path("M302.6 295.6A69.6 69.6 0 0 1 287.7 308.6L279.9 296.6A55.4 55.4 0 0 0 291.8 286.3Z");
}
}
@keyframes zr22-ani-17 {
0% {
d:path("M272.2 284.6A41.1 41.1 0 0 1 261.6 289.4L261.6 289.4A41.1 41.1 0 0 0 272.2 284.6Z");
}
100% {
d:path("M279.9 296.6A55.4 55.4 0 0 1 265.6 303.1L261.6 289.4A41.1 41.1 0 0 0 272.2 284.6Z");
}
}
@keyframes zr22-ani-18 {
0% {
d:path("M279.9 296.6A55.4 55.4 0 0 1 265.6 303.1L265.6 303.1A55.4 55.4 0 0 0 279.9 296.6Z");
}
100% {
d:path("M287.7 308.6A69.6 69.6 0 0 1 269.6 316.8L265.6 303.1A55.4 55.4 0 0 0 279.9 296.6Z");
}
}
@keyframes zr22-ani-19 {
0% {
d:path("M261.6 289.4A41.1 41.1 0 0 1 250 291.1L250 291.1A41.1 41.1 0 0 0 261.6 289.4Z");
}
100% {
d:path("M265.6 303.1A55.4 55.4 0 0 1 250 305.4L250 291.1A41.1 41.1 0 0 0 261.6 289.4Z");
}
}
@keyframes zr22-ani-20 {
0% {
d:path("M265.6 303.1A55.4 55.4 0 0 1 250 305.4L250 305.4A55.4 55.4 0 0 0 265.6 303.1Z");
}
100% {
d:path("M269.6 316.8A69.6 69.6 0 0 1 250 319.6L250 305.4A55.4 55.4 0 0 0 265.6 303.1Z");
}
}
@keyframes zr22-ani-21 {
0% {
d:path("M250 276.8A26.8 26.8 0 0 1 223.5 246.2A26.8 26.8 0 0 0 250 276.8Z");
}
100% {
d:path("M250 291.1A41.1 41.1 0 0 1 209.3 244.2L223.5 246.2A26.8 26.8 0 0 0 250 276.8Z");
}
}
@keyframes zr22-ani-22 {
0% {
d:path("M250 291.1A41.1 41.1 0 0 1 212.6 267.1A41.1 41.1 0 0 0 250 291.1Z");
}
100% {
d:path("M250 305.4A55.4 55.4 0 0 1 199.6 273L212.6 267.1A41.1 41.1 0 0 0 250 291.1Z");
}
}
@keyframes zr22-ani-23 {
0% {
d:path("M250 305.4A55.4 55.4 0 0 1 234.4 303.1A55.4 55.4 0 0 0 250 305.4Z");
}
100% {
d:path("M250 319.6A69.6 69.6 0 0 1 230.4 316.8L234.4 303.1A55.4 55.4 0 0 0 250 305.4Z");
}
}
@keyframes zr22-ani-24 {
0% {
d:path("M234.4 303.1A55.4 55.4 0 0 1 220.1 296.6L220.1 296.6A55.4 55.4 0 0 0 234.4 303.1Z");
}
100% {
d:path("M230.4 316.8A69.6 69.6 0 0 1 212.3 308.6L220.1 296.6A55.4 55.4 0 0 0 234.4 303.1Z");
}
}
@keyframes zr22-ani-25 {
0% {
d:path("M220.1 296.6A55.4 55.4 0 0 1 208.2 286.3L208.2 286.3A55.4 55.4 0 0 0 220.1 296.6Z");
}
100% {
d:path("M212.3 308.6A69.6 69.6 0 0 1 197.4 295.6L208.2 286.3A55.4 55.4 0 0 0 220.1 296.6Z");
}
}
@keyframes zr22-ani-26 {
0% {
d:path("M208.2 286.3A55.4 55.4 0 0 1 199.6 273L199.6 273A55.4 55.4 0 0 0 208.2 286.3Z");
}
100% {
d:path("M197.4 295.6A69.6 69.6 0 0 1 186.7 278.9L199.6 273A55.4 55.4 0 0 0 208.2 286.3Z");
}
}
@keyframes zr22-ani-27 {
0% {
d:path("M212.6 267.1A41.1 41.1 0 0 1 209.3 255.8L209.3 255.8A41.1 41.1 0 0 0 212.6 267.1Z");
}
100% {
d:path("M199.6 273A55.4 55.4 0 0 1 195.2 257.9L209.3 255.8A41.1 41.1 0 0 0 212.6 267.1Z");
}
}
@keyframes zr22-ani-28 {
0% {
d:path("M199.6 273A55.4 55.4 0 0 1 195.2 257.9L195.2 257.9A55.4 55.4 0 0 0 199.6 273Z");
}
100% {
d:path("M186.7 278.9A69.6 69.6 0 0 1 181.1 259.9L195.2 257.9A55.4 55.4 0 0 0 199.6 273Z");
}
}
@keyframes zr22-ani-29 {
0% {
d:path("M209.3 255.8A41.1 41.1 0 0 1 209.3 244.2L209.3 244.2A41.1 41.1 0 0 0 209.3 255.8Z");
}
100% {
d:path("M195.2 257.9A55.4 55.4 0 0 1 195.2 242.1L209.3 244.2A41.1 41.1 0 0 0 209.3 255.8Z");
}
}
@keyframes zr22-ani-30 {
0% {
d:path("M195.2 257.9A55.4 55.4 0 0 1 195.2 242.1L195.2 242.1A55.4 55.4 0 0 0 195.2 257.9Z");
}
100% {
d:path("M181.1 259.9A69.6 69.6 0 0 1 181.1 240.1L195.2 242.1A55.4 55.4 0 0 0 195.2 257.9Z");
}
}
@keyframes zr22-ani-31 {
0% {
d:path("M223.5 246.2A26.8 26.8 0 0 1 229.8 232.5L229.8 232.5A26.8 26.8 0 0 0 223.5 246.2Z");
}
100% {
d:path("M209.3 244.2A41.1 41.1 0 0 1 219 223.1L229.8 232.5A26.8 26.8 0 0 0 223.5 246.2Z");
}
}
@keyframes zr22-ani-32 {
0% {
d:path("M209.3 244.2A41.1 41.1 0 0 1 212.6 232.9L212.6 232.9A41.1 41.1 0 0 0 209.3 244.2Z");
}
100% {
d:path("M195.2 242.1A55.4 55.4 0 0 1 199.6 227L212.6 232.9A41.1 41.1 0 0 0 209.3 244.2Z");
}
}
@keyframes zr22-ani-33 {
0% {
d:path("M195.2 242.1A55.4 55.4 0 0 1 199.6 227L199.6 227A55.4 55.4 0 0 0 195.2 242.1Z");
}
100% {
d:path("M181.1 240.1A69.6 69.6 0 0 1 186.7 221.1L199.6 227A55.4 55.4 0 0 0 195.2 242.1Z");
}
}
@keyframes zr22-ani-34 {
0% {
d:path("M181.1 240.1A69.6 69.6 0 0 1 186.7 221.1L186.7 221.1A69.6 69.6 0 0 0 181.1 240.1Z");
}
100% {
d:path("M166.9 238.1A83.9 83.9 0 0 1 173.7 215.1L186.7 221.1A69.6 69.6 0 0 0 181.1 240.1Z");
}
}
@keyframes zr22-ani-35 {
0% {
d:path("M166.9 238.1A83.9 83.9 0 0 1 173.7 215.1L173.7 215.1A83.9 83.9 0 0 0 166.9 238.1Z");
}
100% {
d:path("M152.8 236A98.2 98.2 0 0 1 160.7 209.2L173.7 215.1A83.9 83.9 0 0 0 166.9 238.1Z");
}
}
@keyframes zr22-ani-36 {
0% {
d:path("M152.8 236A98.2 98.2 0 0 1 160.7 209.2L160.7 209.2A98.2 98.2 0 0 0 152.8 236Z");
}
100% {
d:path("M138.6 234A112.5 112.5 0 0 1 147.7 203.3L160.7 209.2A98.2 98.2 0 0 0 152.8 236Z");
}
}
@keyframes zr22-ani-37 {
0% {
d:path("M138.6 234A112.5 112.5 0 0 1 147.7 203.3L147.7 203.3A112.5 112.5 0 0 0 138.6 234Z");
}
100% {
d:path("M124.5 232A126.8 126.8 0 0 1 134.7 197.3L147.7 203.3A112.5 112.5 0 0 0 138.6 234Z");
}
}
@keyframes zr22-ani-38 {
0% {
d:path("M124.5 232A126.8 126.8 0 0 1 134.7 197.3L134.7 197.3A126.8 126.8 0 0 0 124.5 232Z");
}
100% {
d:path("M110.4 229.9A141.1 141.1 0 0 1 121.7 191.4L134.7 197.3A126.8 126.8 0 0 0 124.5 232Z");
}
}
@keyframes zr22-ani-39 {
0% {
d:path("M110.4 229.9A141.1 141.1 0 0 1 121.7 191.4L121.7 191.4A141.1 141.1 0 0 0 110.4 229.9Z");
}
100% {
d:path("M96.2 227.9A155.4 155.4 0 0 1 108.7 185.5L121.7 191.4A141.1 141.1 0 0 0 110.4 229.9Z");
}
}
@keyframes zr22-ani-40 {
0% {
d:path("M96.2 227.9A155.4 155.4 0 0 1 108.7 185.5L108.7 185.5A155.4 155.4 0 0 0 96.2 227.9Z");
}
100% {
d:path("M82.1 225.9A169.6 169.6 0 0 1 95.7 179.5L108.7 185.5A155.4 155.4 0 0 0 96.2 227.9Z");
}
}
@keyframes zr22-ani-41 {
0% {
d:path("M82.1 225.9A169.6 169.6 0 0 1 95.7 179.5L95.7 179.5A169.6 169.6 0 0 0 82.1 225.9Z");
}
100% {
d:path("M67.9 223.8A183.9 183.9 0 0 1 82.7 173.6L95.7 179.5A169.6 169.6 0 0 0 82.1 225.9Z");
}
}
@keyframes zr22-ani-42 {
0% {
d:path("M67.9 223.8A183.9 183.9 0 0 1 82.7 173.6L82.7 173.6A183.9 183.9 0 0 0 67.9 223.8Z");
}
100% {
d:path("M53.8 221.8A198.2 198.2 0 0 1 69.7 167.7L82.7 173.6A183.9 183.9 0 0 0 67.9 223.8Z");
}
}
@keyframes zr22-ani-43 {
0% {
d:path("M53.8 221.8A198.2 198.2 0 0 1 69.7 167.7L69.7 167.7A198.2 198.2 0 0 0 53.8 221.8Z");
}
100% {
d:path("M39.7 219.8A212.5 212.5 0 0 1 56.7 161.7L69.7 167.7A198.2 198.2 0 0 0 53.8 221.8Z");
}
}
@keyframes zr22-ani-44 {
0% {
d:path("M212.6 232.9A41.1 41.1 0 0 1 219 223.1L219 223.1A41.1 41.1 0 0 0 212.6 232.9Z");
}
100% {
d:path("M199.6 227A55.4 55.4 0 0 1 208.2 213.7L219 223.1A41.1 41.1 0 0 0 212.6 232.9Z");
}
}
@keyframes zr22-ani-45 {
0% {
d:path("M199.6 227A55.4 55.4 0 0 1 208.2 213.7L208.2 213.7A55.4 55.4 0 0 0 199.6 227Z");
}
100% {
d:path("M186.7 221.1A69.6 69.6 0 0 1 197.4 204.4L208.2 213.7A55.4 55.4 0 0 0 199.6 227Z");
}
}
@keyframes zr22-ani-46 {
0% {
d:path("M186.7 221.1A69.6 69.6 0 0 1 197.4 204.4L197.4 204.4A69.6 69.6 0 0 0 186.7 221.1Z");
}
100% {
d:path("M173.7 215.1A83.9 83.9 0 0 1 186.6 195L197.4 204.4A69.6 69.6 0 0 0 186.7 221.1Z");
}
}
@keyframes zr22-ani-47 {
0% {
d:path("M173.7 215.1A83.9 83.9 0 0 1 186.6 195L186.6 195A83.9 83.9 0 0 0 173.7 215.1Z");
}
100% {
d:path("M160.7 209.2A98.2 98.2 0 0 1 175.8 185.7L186.6 195A83.9 83.9 0 0 0 173.7 215.1Z");
}
}
@keyframes zr22-ani-48 {
0% {
d:path("M160.7 209.2A98.2 98.2 0 0 1 175.8 185.7L175.8 185.7A98.2 98.2 0 0 0 160.7 209.2Z");
}
100% {
d:path("M147.7 203.3A112.5 112.5 0 0 1 165 176.3L175.8 185.7A98.2 98.2 0 0 0 160.7 209.2Z");
}
}
@keyframes zr22-ani-49 {
0% {
d:path("M147.7 203.3A112.5 112.5 0 0 1 165 176.3L165 176.3A112.5 112.5 0 0 0 147.7 203.3Z");
}
100% {
d:path("M134.7 197.3A126.8 126.8 0 0 1 154.2 167L165 176.3A112.5 112.5 0 0 0 147.7 203.3Z");
}
}
@keyframes zr22-ani-50 {
0% {
d:path("M134.7 197.3A126.8 126.8 0 0 1 154.2 167L154.2 167A126.8 126.8 0 0 0 134.7 197.3Z");
}
100% {
d:path("M121.7 191.4A141.1 141.1 0 0 1 143.4 157.6L154.2 167A126.8 126.8 0 0 0 134.7 197.3Z");
}
}
@keyframes zr22-ani-51 {
0% {
d:path("M121.7 191.4A141.1 141.1 0 0 1 143.4 157.6L143.4 157.6A141.1 141.1 0 0 0 121.7 191.4Z");
}
100% {
d:path("M108.7 185.5A155.4 155.4 0 0 1 132.6 148.3L143.4 157.6A141.1 141.1 0 0 0 121.7 191.4Z");
}
}
@keyframes zr22-ani-52 {
0% {
d:path("M108.7 185.5A155.4 155.4 0 0 1 132.6 148.3L132.6 148.3A155.4 155.4 0 0 0 108.7 185.5Z");
}
100% {
d:path("M95.7 179.5A169.6 169.6 0 0 1 121.8 138.9L132.6 148.3A155.4 155.4 0 0 0 108.7 185.5Z");
}
}
@keyframes zr22-ani-53 {
0% {
d:path("M95.7 179.5A169.6 169.6 0 0 1 121.8 138.9L121.8 138.9A169.6 169.6 0 0 0 95.7 179.5Z");
}
100% {
d:path("M82.7 173.6A183.9 183.9 0 0 1 111 129.6L121.8 138.9A169.6 169.6 0 0 0 95.7 179.5Z");
}
}
@keyframes zr22-ani-54 {
0% {
d:path("M82.7 173.6A183.9 183.9 0 0 1 111 129.6L111 129.6A183.9 183.9 0 0 0 82.7 173.6Z");
}
100% {
d:path("M69.7 167.7A198.2 198.2 0 0 1 100.2 120.2L111 129.6A183.9 183.9 0 0 0 82.7 173.6Z");
}
}
@keyframes zr22-ani-55 {
0% {
d:path("M69.7 167.7A198.2 198.2 0 0 1 100.2 120.2L100.2 120.2A198.2 198.2 0 0 0 69.7 167.7Z");
}
100% {
d:path("M56.7 161.7A212.5 212.5 0 0 1 89.4 110.8L100.2 120.2A198.2 198.2 0 0 0 69.7 167.7Z");
}
}
@keyframes zr22-ani-56 {
0% {
d:path("M240.6 241.8A12.5 12.5 0 0 1 246.5 238L246.5 238A12.5 12.5 0 0 0 240.6 241.8Z");
}
100% {
d:path("M229.8 232.5A26.8 26.8 0 0 1 242.5 224.3L246.5 238A12.5 12.5 0 0 0 240.6 241.8Z");
}
}
@keyframes zr22-ani-57 {
0% {
d:path("M229.8 232.5A26.8 26.8 0 0 1 235.5 227.5L235.5 227.5A26.8 26.8 0 0 0 229.8 232.5Z");
}
100% {
d:path("M219 223.1A41.1 41.1 0 0 1 227.8 215.4L235.5 227.5A26.8 26.8 0 0 0 229.8 232.5Z");
}
}
@keyframes zr22-ani-58 {
0% {
d:path("M219 223.1A41.1 41.1 0 0 1 227.8 215.4L227.8 215.4A41.1 41.1 0 0 0 219 223.1Z");
}
100% {
d:path("M208.2 213.7A55.4 55.4 0 0 1 220.1 203.4L227.8 215.4A41.1 41.1 0 0 0 219 223.1Z");
}
}
@keyframes zr22-ani-59 {
0% {
d:path("M235.5 227.5A26.8 26.8 0 0 1 242.5 224.3L242.5 224.3A26.8 26.8 0 0 0 235.5 227.5Z");
}
100% {
d:path("M227.8 215.4A41.1 41.1 0 0 1 238.4 210.6L242.5 224.3A26.8 26.8 0 0 0 235.5 227.5Z");
}
}
@keyframes zr22-ani-60 {
0% {
d:path("M227.8 215.4A41.1 41.1 0 0 1 238.4 210.6L238.4 210.6A41.1 41.1 0 0 0 227.8 215.4Z");
}
100% {
d:path("M220.1 203.4A55.4 55.4 0 0 1 234.4 196.9L238.4 210.6A41.1 41.1 0 0 0 227.8 215.4Z");
}
}
@keyframes zr22-ani-61 {
0% {
d:path("M246.5 238A12.5 12.5 0 0 1 250 237.5L250 237.5A12.5 12.5 0 0 0 246.5 238Z");
}
100% {
d:path("M242.5 224.3A26.8 26.8 0 0 1 250 223.2L250 237.5A12.5 12.5 0 0 0 246.5 238Z");
}
}
@keyframes zr22-ani-62 {
0% {
d:path("M242.5 224.3A26.8 26.8 0 0 1 250 223.2L250 223.2A26.8 26.8 0 0 0 242.5 224.3Z");
}
100% {
d:path("M238.4 210.6A41.1 41.1 0 0 1 250 208.9L250 223.2A26.8 26.8 0 0 0 242.5 224.3Z");
}
}
]]>

</style>
</svg>