<svg width="500" height="500" xmlns="http://www.w3.org/2000/svg" xmlns:xlink="http://www.w3.org/1999/xlink" version="1.1" baseProfile="full" viewBox="0 0 500 500">
<rect width="500" height="500" x="0" y="0" id="0" fill="none"></rect>
<path d="M250 226.4A23.6 23.6 0 1 1 236.7 230.5L243 239.7A12.5 12.5 0 1 0 250 237.5Z" fill="#000" stroke="white" stroke-linejoin="bevel" class="zr0-cls-0"></path>
<path d="M250 215.3A34.7 34.7 0 1 1 244.8 284.3L246.5 273.3A23.6 23.6 0 1 0 250 226.4Z" fill="#49ff49" fill-opacity="0.5" stroke="#fff" stroke-width="4" stroke-opacity="0.5" stroke-linejoin="bevel" class="zr0-cls-1"></path>
<path d="M250 204.2A45.8 45.8 0 0 1 275.8 212.1L269.6 221.3A34.7 34.7 0 0 0 250 215.3Z" fill="#000" stroke="white" stroke-linejoin="bevel" class="zr0-cls-2"></path>
<path d="M250 193.1A56.9 56.9 0 0 1 266.8 195.6L263.5 206.2A45.8 45.8 0 0 0 250 204.2Z" fill="#FF0000" stroke="white" stroke-linejoin="bevel" class="zr0-cls-3"></path>
<path d="M266.8 195.6A56.9 56.9 0 0 1 282.1 203L275.8 212.1A45.8 45.8 0 0 0 263.5 206.2Z" fill="#6dc0e3" stroke="white" stroke-linejoin="bevel" class="zr0-cls-4"></path>
<path d="M275.8 212.1A45.8 45.8 0 0 1 292.7 233.3L282.3 237.3A34.7 34.7 0 0 0 269.6 221.3Z" fill="#000" stroke="white" stroke-linejoin="bevel" class="zr0-cls-5"></path>
<path d="M282.1 203A56.9 56.9 0 0 1 294.5 214.5L285.8 221.4A45.8 45.8 0 0 0 275.8 212.1Z" fill="#F3C142" stroke="white" stroke-linejoin="bevel" class="zr0-cls-6"></path>
<path d="M294.5 214.5A56.9 56.9 0 0 1 303 229.2L292.7 233.3A45.8 45.8 0 0 0 285.8 221.4Z" fill="#0AA40D" stroke="white" stroke-linejoin="bevel" class="zr0-cls-7"></path>
<path d="M292.7 233.3A45.8 45.8 0 0 1 295.7 246.6L284.6 247.4A34.7 34.7 0 0 0 282.3 237.3Z" fill="#000" stroke="white" stroke-linejoin="bevel" class="zr0-cls-8"></path>
<path d="M303 229.2A56.9 56.9 0 0 1 306.8 245.7L295.7 246.6A45.8 45.8 0 0 0 292.7 233.3Z" fill="#0AA40D" stroke="white" stroke-linejoin="bevel" class="zr0-cls-9"></path>
<path d="M295.7 246.6A45.8 45.8 0 0 1 294.7 260.2L283.9 257.7A34.7 34.7 0 0 0 284.6 247.4Z" fill="#000" stroke="white" stroke-linejoin="bevel" class="zr0-cls-10"></path>
<path d="M306.8 245.7A56.9 56.9 0 0 1 305.5 262.7L294.7 260.2A45.8 45.8 0 0 0 295.7 246.6Z" fill="#6dc0e3" stroke="white" stroke-linejoin="bevel" class="zr0-cls-11"></path>
<path d="M294.7 260.2A45.8 45.8 0 0 1 289.7 272.9L280.1 267.4A34.7 34.7 0 0 0 283.9 257.7Z" fill="#000" stroke="white" stroke-linejoin="bevel" class="zr0-cls-12"></path>
<path d="M305.5 262.7A56.9 56.9 0 0 1 299.3 278.5L289.7 272.9A45.8 45.8 0 0 0 294.7 260.2Z" fill="#FF0000" stroke="white" stroke-linejoin="bevel" class="zr0-cls-13"></path>
<path d="M289.7 272.9A45.8 45.8 0 0 1 281.2 283.6L273.6 275.5A34.7 34.7 0 0 0 280.1 267.4Z" fill="#000" stroke="white" stroke-linejoin="bevel" class="zr0-cls-14"></path>
<path d="M299.3 278.5A56.9 56.9 0 0 1 288.7 291.7L281.2 283.6A45.8 45.8 0 0 0 289.7 272.9Z" fill="#F3C142" stroke="white" stroke-linejoin="bevel" class="zr0-cls-15"></path>
<path d="M281.2 283.6A45.8 45.8 0 0 1 269.9 291.3L265.1 281.3A34.7 34.7 0 0 0 273.6 275.5Z" fill="#000" stroke="white" stroke-linejoin="bevel" class="zr0-cls-16"></path>
<path d="M288.7 291.7A56.9 56.9 0 0 1 274.7 301.3L269.9 291.3A45.8 45.8 0 0 0 281.2 283.6Z" fill="#0AA40D" stroke="white" stroke-linejoin="bevel" class="zr0-cls-17"></path>
<path d="M269.9 291.3A45.8 45.8 0 0 1 256.8 295.3L255.2 284.3A34.7 34.7 0 0 0 265.1 281.3Z" fill="#000" stroke="white" stroke-linejoin="bevel" class="zr0-cls-18"></path>
<path d="M274.7 301.3A56.9 56.9 0 0 1 258.5 306.3L256.8 295.3A45.8 45.8 0 0 0 269.9 291.3Z" fill="#0AA40D" stroke="white" stroke-linejoin="bevel" class="zr0-cls-19"></path>
<path d="M256.8 295.3A45.8 45.8 0 0 1 243.2 295.3L244.8 284.3A34.7 34.7 0 0 0 255.2 284.3Z" fill="#000" stroke="white" stroke-linejoin="bevel" class="zr0-cls-20"></path>
<path d="M258.5 306.3A56.9 56.9 0 0 1 241.5 306.3L243.2 295.3A45.8 45.8 0 0 0 256.8 295.3Z" fill="#0AA40D" stroke="white" stroke-linejoin="bevel" class="zr0-cls-21"></path>
<path d="M244.8 284.3A34.7 34.7 0 0 1 222.9 228.4L231.5 235.3A23.6 23.6 0 0 0 246.5 273.3Z" fill="#4949CD" fill-opacity="0.5" stroke="#fff" stroke-width="4" stroke-opacity="0.5" stroke-linejoin="bevel" class="zr0-cls-22"></path>
<path d="M243.2 295.3A45.8 45.8 0 0 1 218.8 283.6L226.4 275.5A34.7 34.7 0 0 0 244.8 284.3Z" fill="#000" stroke="white" stroke-linejoin="bevel" class="zr0-cls-23"></path>
<path d="M241.5 306.3A56.9 56.9 0 0 1 211.3 291.7L218.8 283.6A45.8 45.8 0 0 0 243.2 295.3Z" fill="#000" stroke="white" stroke-linejoin="bevel" class="zr0-cls-24"></path>
<path d="M239.9 317.3A68.1 68.1 0 0 1 203.7 299.9L211.3 291.7A56.9 56.9 0 0 0 241.5 306.3Z" fill="#4949CD" fill-opacity="0.5" stroke="#fff" stroke-width="4" stroke-opacity="0.5" stroke-linejoin="bevel" class="zr0-cls-25"></path>
<path d="M238.2 328.3A79.2 79.2 0 0 1 196.2 308L203.7 299.9A68.1 68.1 0 0 0 239.9 317.3Z" fill="#6dc0e3" stroke="white" stroke-linejoin="bevel" class="zr0-cls-26"></path>
<path d="M236.5 339.3A90.3 90.3 0 0 1 188.6 316.2L196.2 308A79.2 79.2 0 0 0 238.2 328.3Z" fill="#000" stroke="white" stroke-linejoin="bevel" class="zr0-cls-27"></path>
<path d="M234.9 350.3A101.4 101.4 0 0 1 181 324.3L188.6 316.2A90.3 90.3 0 0 0 236.5 339.3Z" fill="#49ff49" fill-opacity="0.5" stroke="#fff" stroke-width="4" stroke-opacity="0.5" stroke-linejoin="bevel" class="zr0-cls-28"></path>
<path d="M233.2 361.2A112.5 112.5 0 0 1 173.5 332.5L181 324.3A101.4 101.4 0 0 0 234.9 350.3Z" fill="#000" stroke="white" stroke-linejoin="bevel" class="zr0-cls-29"></path>
<path d="M231.6 372.2A123.6 123.6 0 0 1 196.4 361.4L201.2 351.4A112.5 112.5 0 0 0 233.2 361.2Z" fill="#000" stroke="white" stroke-linejoin="bevel" class="zr0-cls-30"></path>
<path d="M196.4 361.4A123.6 123.6 0 0 1 165.9 340.6L173.5 332.5A112.5 112.5 0 0 0 201.2 351.4Z" fill="#000" stroke="white" stroke-linejoin="bevel" class="zr0-cls-31"></path>
<path d="M218.8 283.6A45.8 45.8 0 0 1 210.3 272.9L219.9 267.4A34.7 34.7 0 0 0 226.4 275.5Z" fill="#000" stroke="white" stroke-linejoin="bevel" class="zr0-cls-32"></path>
<path d="M211.3 291.7A56.9 56.9 0 0 1 200.7 278.5L210.3 272.9A45.8 45.8 0 0 0 218.8 283.6Z" fill="#000" stroke="white" stroke-linejoin="bevel" class="zr0-cls-33"></path>
<path d="M203.7 299.9A68.1 68.1 0 0 1 191.1 284L200.7 278.5A56.9 56.9 0 0 0 211.3 291.7Z" fill="#4949CD" fill-opacity="0.5" stroke="#fff" stroke-width="4" stroke-opacity="0.5" stroke-linejoin="bevel" class="zr0-cls-34"></path>
<path d="M196.2 308A79.2 79.2 0 0 1 181.4 289.6L191.1 284A68.1 68.1 0 0 0 203.7 299.9Z" fill="#F3C142" stroke="white" stroke-linejoin="bevel" class="zr0-cls-35"></path>
<path d="M188.6 316.2A90.3 90.3 0 0 1 171.8 295.1L181.4 289.6A79.2 79.2 0 0 0 196.2 308Z" fill="#000" stroke="white" stroke-linejoin="bevel" class="zr0-cls-36"></path>
<path d="M181 324.3A101.4 101.4 0 0 1 162.2 300.7L171.8 295.1A90.3 90.3 0 0 0 188.6 316.2Z" fill="#ff4949" fill-opacity="0.5" stroke="#fff" stroke-width="4" stroke-opacity="0.5" stroke-linejoin="bevel" class="zr0-cls-37"></path>
<path d="M173.5 332.5A112.5 112.5 0 0 1 152.6 306.2L162.2 300.7A101.4 101.4 0 0 0 181 324.3Z" fill="#000" stroke="white" stroke-linejoin="bevel" class="zr0-cls-38"></path>
<path d="M210.3 272.9A45.8 45.8 0 0 1 205.3 260.2L216.1 257.7A34.7 34.7 0 0 0 219.9 267.4Z" fill="#000" stroke="white" stroke-linejoin="bevel" class="zr0-cls-39"></path>
<path d="M200.7 278.5A56.9 56.9 0 0 1 194.5 262.7L205.3 260.2A45.8 45.8 0 0 0 210.3 272.9Z" fill="#000" stroke="white" stroke-linejoin="bevel" class="zr0-cls-40"></path>
<path d="M191.1 284A68.1 68.1 0 0 1 183.7 265.1L194.5 262.7A56.9 56.9 0 0 0 200.7 278.5Z" fill="#49ff49" fill-opacity="0.5" stroke="#fff" stroke-width="4" stroke-opacity="0.5" stroke-linejoin="bevel" class="zr0-cls-41"></path>
<path d="M181.4 289.6A79.2 79.2 0 0 1 172.8 267.6L183.7 265.1A68.1 68.1 0 0 0 191.1 284Z" fill="#6dc0e3" stroke="white" stroke-linejoin="bevel" class="zr0-cls-42"></path>
<path d="M205.3 260.2A45.8 45.8 0 0 1 204.3 246.6L215.4 247.4A34.7 34.7 0 0 0 216.1 257.7Z" fill="#000" stroke="white" stroke-linejoin="bevel" class="zr0-cls-43"></path>
<path d="M194.5 262.7A56.9 56.9 0 0 1 193.2 245.7L204.3 246.6A45.8 45.8 0 0 0 205.3 260.2Z" fill="#000" stroke="white" stroke-linejoin="bevel" class="zr0-cls-44"></path>
<path d="M183.7 265.1A68.1 68.1 0 0 1 182.1 244.9L193.2 245.7A56.9 56.9 0 0 0 194.5 262.7Z" fill="#49ff49" fill-opacity="0.5" stroke="#fff" stroke-width="4" stroke-opacity="0.5" stroke-linejoin="bevel" class="zr0-cls-45"></path>
<path d="M172.8 267.6A79.2 79.2 0 0 1 171.1 244.1L182.1 244.9A68.1 68.1 0 0 0 183.7 265.1Z" fill="#FF0000" stroke="white" stroke-linejoin="bevel" class="zr0-cls-46"></path>
<path d="M204.3 246.6A45.8 45.8 0 0 1 207.3 233.3L217.7 237.3A34.7 34.7 0 0 0 215.4 247.4Z" fill="#000" stroke="white" stroke-linejoin="bevel" class="zr0-cls-47"></path>
<path d="M193.2 245.7A56.9 56.9 0 0 1 197 229.2L207.3 233.3A45.8 45.8 0 0 0 204.3 246.6Z" fill="#000" stroke="white" stroke-linejoin="bevel" class="zr0-cls-48"></path>
<path d="M182.1 244.9A68.1 68.1 0 0 1 186.6 225.1L197 229.2A56.9 56.9 0 0 0 193.2 245.7Z" fill="#4949CD" fill-opacity="0.5" stroke="#fff" stroke-width="4" stroke-opacity="0.5" stroke-linejoin="bevel" class="zr0-cls-49"></path>
<path d="M171.1 244.1A79.2 79.2 0 0 1 176.3 221.1L186.6 225.1A68.1 68.1 0 0 0 182.1 244.9Z" fill="#0AA40D" stroke="white" stroke-linejoin="bevel" class="zr0-cls-50"></path>
<path d="M160 243.3A90.3 90.3 0 0 1 166 217L176.3 221.1A79.2 79.2 0 0 0 171.1 244.1Z" fill="#000" stroke="white" stroke-linejoin="bevel" class="zr0-cls-51"></path>
<path d="M148.9 242.4A101.4 101.4 0 0 1 155.6 213L166 217A90.3 90.3 0 0 0 160 243.3Z" fill="#4949CD" fill-opacity="0.5" stroke="#fff" stroke-width="4" stroke-opacity="0.5" stroke-linejoin="bevel" class="zr0-cls-52"></path>
<path d="M137.8 241.6A112.5 112.5 0 0 1 145.3 208.9L155.6 213A101.4 101.4 0 0 0 148.9 242.4Z" fill="#000" stroke="white" stroke-linejoin="bevel" class="zr0-cls-53"></path>
<path d="M126.7 240.8A123.6 123.6 0 0 1 134.9 204.8L145.3 208.9A112.5 112.5 0 0 0 137.8 241.6Z" fill="#000" stroke="white" stroke-linejoin="bevel" class="zr0-cls-54"></path>
<path d="M115.7 239.9A134.7 134.7 0 0 1 124.6 200.8L134.9 204.8A123.6 123.6 0 0 0 126.7 240.8Z" fill="#4949CD" fill-opacity="0.5" stroke="#fff" stroke-width="4" stroke-opacity="0.5" stroke-linejoin="bevel" class="zr0-cls-55"></path>
<path d="M104.6 239.1A145.8 145.8 0 0 1 114.2 196.7L124.6 200.8A134.7 134.7 0 0 0 115.7 239.9Z" fill="#000" stroke="white" stroke-linejoin="bevel" class="zr0-cls-56"></path>
<path d="M93.5 238.3A156.9 156.9 0 0 1 103.9 192.7L114.2 196.7A145.8 145.8 0 0 0 104.6 239.1Z" fill="#A0522D" stroke="white" stroke-linejoin="bevel" class="zr0-cls-57"></path>
<path d="M82.4 237.4A168.1 168.1 0 0 1 93.6 188.6L103.9 192.7A156.9 156.9 0 0 0 93.5 238.3Z" fill="#A0522D" stroke="white" stroke-linejoin="bevel" class="zr0-cls-58"></path>
<path d="M71.3 236.6A179.2 179.2 0 0 1 83.2 184.5L93.6 188.6A168.1 168.1 0 0 0 82.4 237.4Z" fill="#A0522D" stroke="white" stroke-linejoin="bevel" class="zr0-cls-59"></path>
<path d="M60.3 235.8A190.3 190.3 0 0 1 72.9 180.5L83.2 184.5A179.2 179.2 0 0 0 71.3 236.6Z" fill="#A0522D" stroke="white" stroke-linejoin="bevel" class="zr0-cls-60"></path>
<path d="M49.2 235A201.4 201.4 0 0 1 62.5 176.4L72.9 180.5A190.3 190.3 0 0 0 60.3 235.8Z" fill="#49ff49" fill-opacity="0.5" stroke="#fff" stroke-width="4" stroke-opacity="0.5" stroke-linejoin="bevel" class="zr0-cls-61"></path>
<path d="M38.1 234.1A212.5 212.5 0 0 1 52.2 172.4L62.5 176.4A201.4 201.4 0 0 0 49.2 235Z" fill="#A0522D" stroke="white" stroke-linejoin="bevel" class="zr0-cls-62"></path>
<path d="M207.3 233.3A45.8 45.8 0 0 1 214.2 221.4L222.9 228.4A34.7 34.7 0 0 0 217.7 237.3Z" fill="#000" stroke="white" stroke-linejoin="bevel" class="zr0-cls-63"></path>
<path d="M197 229.2A56.9 56.9 0 0 1 205.5 214.5L214.2 221.4A45.8 45.8 0 0 0 207.3 233.3Z" fill="#000" stroke="white" stroke-linejoin="bevel" class="zr0-cls-64"></path>
<path d="M186.6 225.1A68.1 68.1 0 0 1 196.8 207.6L205.5 214.5A56.9 56.9 0 0 0 197 229.2Z" fill="#49ff49" fill-opacity="0.5" stroke="#fff" stroke-width="4" stroke-opacity="0.5" stroke-linejoin="bevel" class="zr0-cls-65"></path>
<path d="M176.3 221.1A79.2 79.2 0 0 1 188.1 200.6L196.8 207.6A68.1 68.1 0 0 0 186.6 225.1Z" fill="#000" stroke="white" stroke-linejoin="bevel" class="zr0-cls-66"></path>
<path d="M166 217A90.3 90.3 0 0 1 179.4 193.7L188.1 200.6A79.2 79.2 0 0 0 176.3 221.1Z" fill="#000" stroke="white" stroke-linejoin="bevel" class="zr0-cls-67"></path>
<path d="M222.9 228.4A34.7 34.7 0 0 1 230.4 221.3L236.7 230.5A23.6 23.6 0 0 0 231.5 235.3Z" fill="#ff4949" fill-opacity="0.5" stroke="#fff" stroke-width="4" stroke-opacity="0.5" stroke-linejoin="bevel" class="zr0-cls-68"></path>
<path d="M214.2 221.4A45.8 45.8 0 0 1 224.2 212.1L230.4 221.3A34.7 34.7 0 0 0 222.9 228.4Z" fill="#000" stroke="white" stroke-linejoin="bevel" class="zr0-cls-69"></path>
<path d="M205.5 214.5A56.9 56.9 0 0 1 217.9 203L224.2 212.1A45.8 45.8 0 0 0 214.2 221.4Z" fill="#FF0000" stroke="white" stroke-linejoin="bevel" class="zr0-cls-70"></path>
<path d="M236.7 230.5A23.6 23.6 0 0 1 250 226.4L250 237.5A12.5 12.5 0 0 0 243 239.7Z" fill="#C8C8C8" stroke="white" stroke-linejoin="bevel" class="zr0-cls-71"></path>
<path d="M230.4 221.3A34.7 34.7 0 0 1 239.8 216.8L243 227.4A23.6 23.6 0 0 0 236.7 230.5Z" fill="#C8C8C8" stroke="white" stroke-linejoin="bevel" class="zr0-cls-72"></path>
<path d="M239.8 216.8A34.7 34.7 0 0 1 250 215.3L250 226.4A23.6 23.6 0 0 0 243 227.4Z" fill="#C8C8C8" stroke="white" stroke-linejoin="bevel" class="zr0-cls-73"></path>
<text dominant-baseline="central" text-anchor="middle" style="font-size:12px;font-family:sans-serif;" transform="matrix(0.956,-0.295,0.295,0.956,255.322,267.2534)" fill="#ccc" stroke="#000" stroke-width="2" paint-order="stroke" stroke-miterlimit="2">paths</text>
<text dominant-baseline="central" text-anchor="middle" style="font-size:12px;font-family:sans-serif;" transform="matrix(0.623,0.782,-0.782,0.623,281.4904,224.8872)" fill="#ccc" stroke="#000" stroke-width="2" paint-order="stroke" stroke-miterlimit="2">/trust</text>
<text dominant-baseline="central" text-anchor="middle" style="font-size:12px;font-family:sans-serif;" transform="matrix(0.075,-0.997,0.997,0.075,301.2452,253.8403)" fill="#333">PUT</text>
<text dominant-baseline="central" text-anchor="middle" style="font-size:12px;font-family:sans-serif;" transform="matrix(0.623,-0.782,0.782,0.623,290.1775,282.0404)" fill="#333">POST</text>
<text dominant-baseline="central" text-anchor="middle" style="font-size:9px;font-family:sans-serif;" transform="matrix(0.901,0.434,-0.434,0.901,232.5241,286.289)" fill="#ccc" stroke="#000" stroke-width="2" paint-order="stroke" stroke-miterlimit="2">/trust/{id}</text>
<text dominant-baseline="central" text-anchor="middle" style="font-size:9px;font-family:sans-serif;" transform="matrix(0.901,0.434,-0.434,0.901,227.7032,296.2998)" fill="#ccc" stroke="#000" stroke-width="2" paint-order="stroke" stroke-miterlimit="2">operations</text>
<text dominant-baseline="central" text-anchor="middle" style="font-size:9px;font-family:sans-serif;" transform="matrix(0.901,0.434,-0.434,0.901,213.2404,326.3321)" fill="#ccc" stroke="#000" stroke-width="2" paint-order="stroke" stroke-miterlimit="2">params</text>
<text dominant-baseline="central" text-anchor="middle" style="font-size:12px;font-family:sans-serif;" transform="matrix(0.901,0.434,-0.434,0.901,203.5985,346.3536)" fill="#ccc" stroke="#000" stroke-width="2" paint-order="stroke" stroke-miterlimit="2">query</text>
<text dominant-baseline="central" text-anchor="middle" style="font-size:12px;font-family:sans-serif;" transform="matrix(0.623,0.782,-0.782,0.623,192.4485,295.8958)" fill="#333">POST</text>
<text dominant-baseline="central" text-anchor="middle" style="font-size:12px;font-family:sans-serif;" transform="matrix(0.623,0.782,-0.782,0.623,166.3875,316.6788)" fill="#ccc" stroke="#000" stroke-width="2" paint-order="stroke" stroke-miterlimit="2">400</text>
<text dominant-baseline="central" text-anchor="middle" style="font-size:12px;font-family:sans-serif;" transform="matrix(0.075,0.997,-0.997,0.075,176.5947,255.501)" fill="#eee" stroke="#FF0000" stroke-width="2" paint-order="stroke" stroke-miterlimit="2">DELETE</text>
<text dominant-baseline="central" text-anchor="middle" style="font-size:10px;font-family:sans-serif;" transform="matrix(0.223,-0.975,0.975,0.223,134.9043,223.7302)" fill="#ccc" stroke="#000" stroke-width="2" paint-order="stroke" stroke-miterlimit="2">content</text>
<text dominant-baseline="central" text-anchor="middle" style="font-size:12px;font-family:sans-serif;" transform="matrix(0.223,-0.975,0.975,0.223,91.5742,213.8403)" fill="#eee" stroke="#A0522D" stroke-width="2" paint-order="stroke" stroke-miterlimit="2">items</text>
<text dominant-baseline="central" text-anchor="middle" style="font-size:9px;font-family:sans-serif;" transform="matrix(0.223,-0.975,0.975,0.223,69.9091,208.8954)" fill="#eee" stroke="#A0522D" stroke-width="2" paint-order="stroke" stroke-miterlimit="2">stringsdiff</text>
<text dominant-baseline="central" text-anchor="middle" style="font-size:12px;font-family:sans-serif;" transform="matrix(0.223,-0.975,0.975,0.223,48.2441,203.9505)" fill="#eee" stroke="#A0522D" stroke-width="2" paint-order="stroke" stroke-miterlimit="2">users</text>
<text dominant-baseline="central" text-anchor="middle" style="font-size:12px;font-family:sans-serif;" transform="matrix(0.5,-0.866,0.866,0.5,176.6284,207.6389)" fill="#ccc" stroke="#000" stroke-width="2" paint-order="stroke" stroke-miterlimit="2">active</text>
<text dominant-baseline="central" text-anchor="middle" style="font-size:12px;font-family:sans-serif;" transform="matrix(0.733,-0.68,0.68,0.733,215.0467,212.3293)" fill="#eee" stroke="#FF0000" stroke-width="2" paint-order="stroke" stroke-miterlimit="2">DELETE</text>
<text dominant-baseline="central" text-anchor="middle" style="font-size:12px;font-family:sans-serif;" transform="matrix(0.956,-0.295,0.295,0.956,244.678,232.7466)" fill="#333">info</text>
<path d="M-14.8 -16l66.6 0l0 32l-66.6 0Z" transform="translate(448.253 16)" fill="none" stroke="#ccc" stroke-width="0"></path>
<path d="M-7.3 -1.8L-0.1 4.8L7.3 -1.6M-7.3 4.3L-7.3 8.5L7.1 8.5L7.1 4.3M-0.1 4.7L-0.1 -8.5" transform="translate(448.253 16)" fill="none" stroke="#666"></path>
<path d="M-7.9 1M5.1 -3.4L8.1 -3.4L8.1 -6.4M8 -3C6.7 -6.4 3.2 -8.9 -1 -8.4C-5.3 -8 -8.6 -4.2 -8.4 0.2M-5.1 3.4L-8.1 3.4L-8.1 6.4M-8 3C-6.7 6.4 -3.2 8.9 1 8.4C5.3 8 8.6 4.2 8.4 -0.2" transform="translate(484.0476 16)" fill="none" stroke="#666"></path>
<style ><![CDATA[
.zr0-cls-0 {
animation:zr0-ani-0 1s cubic-bezier(0.65,0,0.35,1) both;
}
.zr0-cls-1 {
animation:zr0-ani-1 1s cubic-bezier(0.65,0,0.35,1) both;
}
.zr0-cls-2 {
animation:zr0-ani-2 1s cubic-bezier(0.65,0,0.35,1) both;
}
.zr0-cls-3 {
animation:zr0-ani-3 1s cubic-bezier(0.65,0,0.35,1) both;
}
.zr0-cls-4 {
animation:zr0-ani-4 1s cubic-bezier(0.65,0,0.35,1) both;
}
.zr0-cls-5 {
animation:zr0-ani-5 1s cubic-bezier(0.65,0,0.35,1) both;
}
.zr0-cls-6 {
animation:zr0-ani-6 1s cubic-bezier(0.65,0,0.35,1) both;
}
.zr0-cls-7 {
animation:zr0-ani-7 1s cubic-bezier(0.65,0,0.35,1) both;
}
.zr0-cls-8 {
animation:zr0-ani-8 1s cubic-bezier(0.65,0,0.35,1) both;
}
.zr0-cls-9 {
animation:zr0-ani-9 1s cubic-bezier(0.65,0,0.35,1) both;
}
.zr0-cls-10 {
animation:zr0-ani-10 1s cubic-bezier(0.65,0,0.35,1) both;
}
.zr0-cls-11 {
animation:zr0-ani-11 1s cubic-bezier(0.65,0,0.35,1) both;
}
.zr0-cls-12 {
animation:zr0-ani-12 1s cubic-bezier(0.65,0,0.35,1) both;
}
.zr0-cls-13 {
animation:zr0-ani-13 1s cubic-bezier(0.65,0,0.35,1) both;
}
.zr0-cls-14 {
animation:zr0-ani-14 1s cubic-bezier(0.65,0,0.35,1) both;
}
.zr0-cls-15 {
animation:zr0-ani-15 1s cubic-bezier(0.65,0,0.35,1) both;
}
.zr0-cls-16 {
animation:zr0-ani-16 1s cubic-bezier(0.65,0,0.35,1) both;
}
.zr0-cls-17 {
animation:zr0-ani-17 1s cubic-bezier(0.65,0,0.35,1) both;
}
.zr0-cls-18 {
animation:zr0-ani-18 1s cubic-bezier(0.65,0,0.35,1) both;
}
.zr0-cls-19 {
animation:zr0-ani-19 1s cubic-bezier(0.65,0,0.35,1) both;
}
.zr0-cls-20 {
animation:zr0-ani-20 1s cubic-bezier(0.65,0,0.35,1) both;
}
.zr0-cls-21 {
animation:zr0-ani-21 1s cubic-bezier(0.65,0,0.35,1) both;
}
.zr0-cls-22 {
animation:zr0-ani-22 1s cubic-bezier(0.65,0,0.35,1) both;
}
.zr0-cls-23 {
animation:zr0-ani-23 1s cubic-bezier(0.65,0,0.35,1) both;
}
.zr0-cls-24 {
animation:zr0-ani-24 1s cubic-bezier(0.65,0,0.35,1) both;
}
.zr0-cls-25 {
animation:zr0-ani-25 1s cubic-bezier(0.65,0,0.35,1) both;
}
.zr0-cls-26 {
animation:zr0-ani-26 1s cubic-bezier(0.65,0,0.35,1) both;
}
.zr0-cls-27 {
animation:zr0-ani-27 1s cubic-bezier(0.65,0,0.35,1) both;
}
.zr0-cls-28 {
animation:zr0-ani-28 1s cubic-bezier(0.65,0,0.35,1) both;
}
.zr0-cls-29 {
animation:zr0-ani-29 1s cubic-bezier(0.65,0,0.35,1) both;
}
.zr0-cls-30 {
animation:zr0-ani-30 1s cubic-bezier(0.65,0,0.35,1) both;
}
.zr0-cls-31 {
animation:zr0-ani-31 1s cubic-bezier(0.65,0,0.35,1) both;
}
.zr0-cls-32 {
animation:zr0-ani-32 1s cubic-bezier(0.65,0,0.35,1) both;
}
.zr0-cls-33 {
animation:zr0-ani-33 1s cubic-bezier(0.65,0,0.35,1) both;
}
.zr0-cls-34 {
animation:zr0-ani-34 1s cubic-bezier(0.65,0,0.35,1) both;
}
.zr0-cls-35 {
animation:zr0-ani-35 1s cubic-bezier(0.65,0,0.35,1) both;
}
.zr0-cls-36 {
animation:zr0-ani-36 1s cubic-bezier(0.65,0,0.35,1) both;
}
.zr0-cls-37 {
animation:zr0-ani-37 1s cubic-bezier(0.65,0,0.35,1) both;
}
.zr0-cls-38 {
animation:zr0-ani-38 1s cubic-bezier(0.65,0,0.35,1) both;
}
.zr0-cls-39 {
animation:zr0-ani-39 1s cubic-bezier(0.65,0,0.35,1) both;
}
.zr0-cls-40 {
animation:zr0-ani-40 1s cubic-bezier(0.65,0,0.35,1) both;
}
.zr0-cls-41 {
animation:zr0-ani-41 1s cubic-bezier(0.65,0,0.35,1) both;
}
.zr0-cls-42 {
animation:zr0-ani-42 1s cubic-bezier(0.65,0,0.35,1) both;
}
.zr0-cls-43 {
animation:zr0-ani-43 1s cubic-bezier(0.65,0,0.35,1) both;
}
.zr0-cls-44 {
animation:zr0-ani-44 1s cubic-bezier(0.65,0,0.35,1) both;
}
.zr0-cls-45 {
animation:zr0-ani-45 1s cubic-bezier(0.65,0,0.35,1) both;
}
.zr0-cls-46 {
animation:zr0-ani-46 1s cubic-bezier(0.65,0,0.35,1) both;
}
.zr0-cls-47 {
animation:zr0-ani-47 1s cubic-bezier(0.65,0,0.35,1) both;
}
.zr0-cls-48 {
animation:zr0-ani-48 1s cubic-bezier(0.65,0,0.35,1) both;
}
.zr0-cls-49 {
animation:zr0-ani-49 1s cubic-bezier(0.65,0,0.35,1) both;
}
.zr0-cls-50 {
animation:zr0-ani-50 1s cubic-bezier(0.65,0,0.35,1) both;
}
.zr0-cls-51 {
animation:zr0-ani-51 1s cubic-bezier(0.65,0,0.35,1) both;
}
.zr0-cls-52 {
animation:zr0-ani-52 1s cubic-bezier(0.65,0,0.35,1) both;
}
.zr0-cls-53 {
animation:zr0-ani-53 1s cubic-bezier(0.65,0,0.35,1) both;
}
.zr0-cls-54 {
animation:zr0-ani-54 1s cubic-bezier(0.65,0,0.35,1) both;
}
.zr0-cls-55 {
animation:zr0-ani-55 1s cubic-bezier(0.65,0,0.35,1) both;
}
.zr0-cls-56 {
animation:zr0-ani-56 1s cubic-bezier(0.65,0,0.35,1) both;
}
.zr0-cls-57 {
animation:zr0-ani-57 1s cubic-bezier(0.65,0,0.35,1) both;
}
.zr0-cls-58 {
animation:zr0-ani-58 1s cubic-bezier(0.65,0,0.35,1) both;
}
.zr0-cls-59 {
animation:zr0-ani-59 1s cubic-bezier(0.65,0,0.35,1) both;
}
.zr0-cls-60 {
animation:zr0-ani-60 1s cubic-bezier(0.65,0,0.35,1) both;
}
.zr0-cls-61 {
animation:zr0-ani-61 1s cubic-bezier(0.65,0,0.35,1) both;
}
.zr0-cls-62 {
animation:zr0-ani-62 1s cubic-bezier(0.65,0,0.35,1) both;
}
.zr0-cls-63 {
animation:zr0-ani-63 1s cubic-bezier(0.65,0,0.35,1) both;
}
.zr0-cls-64 {
animation:zr0-ani-64 1s cubic-bezier(0.65,0,0.35,1) both;
}
.zr0-cls-65 {
animation:zr0-ani-65 1s cubic-bezier(0.65,0,0.35,1) both;
}
.zr0-cls-66 {
animation:zr0-ani-66 1s cubic-bezier(0.65,0,0.35,1) both;
}
.zr0-cls-67 {
animation:zr0-ani-67 1s cubic-bezier(0.65,0,0.35,1) both;
}
.zr0-cls-68 {
animation:zr0-ani-68 1s cubic-bezier(0.65,0,0.35,1) both;
}
.zr0-cls-69 {
animation:zr0-ani-69 1s cubic-bezier(0.65,0,0.35,1) both;
}
.zr0-cls-70 {
animation:zr0-ani-70 1s cubic-bezier(0.65,0,0.35,1) both;
}
.zr0-cls-71 {
animation:zr0-ani-71 1s cubic-bezier(0.65,0,0.35,1) both;
}
.zr0-cls-72 {
animation:zr0-ani-72 1s cubic-bezier(0.65,0,0.35,1) both;
}
.zr0-cls-73 {
animation:zr0-ani-73 1s cubic-bezier(0.65,0,0.35,1) both;
}
@keyframes zr0-ani-0 {
0% {
d:path("M250 237.5A12.5 12.5 0 1 1 243 239.7L243 239.7A12.5 12.5 0 1 0 250 237.5Z");
}
100% {
d:path("M250 226.4A23.6 23.6 0 1 1 236.7 230.5L243 239.7A12.5 12.5 0 1 0 250 237.5Z");
}
}
@keyframes zr0-ani-1 {
0% {
d:path("M250 226.4A23.6 23.6 0 1 1 246.5 273.3A23.6 23.6 0 1 0 250 226.4Z");
}
100% {
d:path("M250 215.3A34.7 34.7 0 1 1 244.8 284.3L246.5 273.3A23.6 23.6 0 1 0 250 226.4Z");
}
}
@keyframes zr0-ani-2 {
0% {
d:path("M250 215.3A34.7 34.7 0 0 1 269.6 221.3A34.7 34.7 0 0 0 250 215.3Z");
}
100% {
d:path("M250 204.2A45.8 45.8 0 0 1 275.8 212.1L269.6 221.3A34.7 34.7 0 0 0 250 215.3Z");
}
}
@keyframes zr0-ani-3 {
0% {
d:path("M250 204.2A45.8 45.8 0 0 1 263.5 206.2A45.8 45.8 0 0 0 250 204.2Z");
}
100% {
d:path("M250 193.1A56.9 56.9 0 0 1 266.8 195.6L263.5 206.2A45.8 45.8 0 0 0 250 204.2Z");
}
}
@keyframes zr0-ani-4 {
0% {
d:path("M263.5 206.2A45.8 45.8 0 0 1 275.8 212.1L275.8 212.1A45.8 45.8 0 0 0 263.5 206.2Z");
}
100% {
d:path("M266.8 195.6A56.9 56.9 0 0 1 282.1 203L275.8 212.1A45.8 45.8 0 0 0 263.5 206.2Z");
}
}
@keyframes zr0-ani-5 {
0% {
d:path("M269.6 221.3A34.7 34.7 0 0 1 282.3 237.3L282.3 237.3A34.7 34.7 0 0 0 269.6 221.3Z");
}
100% {
d:path("M275.8 212.1A45.8 45.8 0 0 1 292.7 233.3L282.3 237.3A34.7 34.7 0 0 0 269.6 221.3Z");
}
}
@keyframes zr0-ani-6 {
0% {
d:path("M275.8 212.1A45.8 45.8 0 0 1 285.8 221.4L285.8 221.4A45.8 45.8 0 0 0 275.8 212.1Z");
}
100% {
d:path("M282.1 203A56.9 56.9 0 0 1 294.5 214.5L285.8 221.4A45.8 45.8 0 0 0 275.8 212.1Z");
}
}
@keyframes zr0-ani-7 {
0% {
d:path("M285.8 221.4A45.8 45.8 0 0 1 292.7 233.3L292.7 233.3A45.8 45.8 0 0 0 285.8 221.4Z");
}
100% {
d:path("M294.5 214.5A56.9 56.9 0 0 1 303 229.2L292.7 233.3A45.8 45.8 0 0 0 285.8 221.4Z");
}
}
@keyframes zr0-ani-8 {
0% {
d:path("M282.3 237.3A34.7 34.7 0 0 1 284.6 247.4L284.6 247.4A34.7 34.7 0 0 0 282.3 237.3Z");
}
100% {
d:path("M292.7 233.3A45.8 45.8 0 0 1 295.7 246.6L284.6 247.4A34.7 34.7 0 0 0 282.3 237.3Z");
}
}
@keyframes zr0-ani-9 {
0% {
d:path("M292.7 233.3A45.8 45.8 0 0 1 295.7 246.6L295.7 246.6A45.8 45.8 0 0 0 292.7 233.3Z");
}
100% {
d:path("M303 229.2A56.9 56.9 0 0 1 306.8 245.7L295.7 246.6A45.8 45.8 0 0 0 292.7 233.3Z");
}
}
@keyframes zr0-ani-10 {
0% {
d:path("M284.6 247.4A34.7 34.7 0 0 1 283.9 257.7L283.9 257.7A34.7 34.7 0 0 0 284.6 247.4Z");
}
100% {
d:path("M295.7 246.6A45.8 45.8 0 0 1 294.7 260.2L283.9 257.7A34.7 34.7 0 0 0 284.6 247.4Z");
}
}
@keyframes zr0-ani-11 {
0% {
d:path("M295.7 246.6A45.8 45.8 0 0 1 294.7 260.2L294.7 260.2A45.8 45.8 0 0 0 295.7 246.6Z");
}
100% {
d:path("M306.8 245.7A56.9 56.9 0 0 1 305.5 262.7L294.7 260.2A45.8 45.8 0 0 0 295.7 246.6Z");
}
}
@keyframes zr0-ani-12 {
0% {
d:path("M283.9 257.7A34.7 34.7 0 0 1 280.1 267.4L280.1 267.4A34.7 34.7 0 0 0 283.9 257.7Z");
}
100% {
d:path("M294.7 260.2A45.8 45.8 0 0 1 289.7 272.9L280.1 267.4A34.7 34.7 0 0 0 283.9 257.7Z");
}
}
@keyframes zr0-ani-13 {
0% {
d:path("M294.7 260.2A45.8 45.8 0 0 1 289.7 272.9L289.7 272.9A45.8 45.8 0 0 0 294.7 260.2Z");
}
100% {
d:path("M305.5 262.7A56.9 56.9 0 0 1 299.3 278.5L289.7 272.9A45.8 45.8 0 0 0 294.7 260.2Z");
}
}
@keyframes zr0-ani-14 {
0% {
d:path("M280.1 267.4A34.7 34.7 0 0 1 273.6 275.5L273.6 275.5A34.7 34.7 0 0 0 280.1 267.4Z");
}
100% {
d:path("M289.7 272.9A45.8 45.8 0 0 1 281.2 283.6L273.6 275.5A34.7 34.7 0 0 0 280.1 267.4Z");
}
}
@keyframes zr0-ani-15 {
0% {
d:path("M289.7 272.9A45.8 45.8 0 0 1 281.2 283.6L281.2 283.6A45.8 45.8 0 0 0 289.7 272.9Z");
}
100% {
d:path("M299.3 278.5A56.9 56.9 0 0 1 288.7 291.7L281.2 283.6A45.8 45.8 0 0 0 289.7 272.9Z");
}
}
@keyframes zr0-ani-16 {
0% {
d:path("M273.6 275.5A34.7 34.7 0 0 1 265.1 281.3L265.1 281.3A34.7 34.7 0 0 0 273.6 275.5Z");
}
100% {
d:path("M281.2 283.6A45.8 45.8 0 0 1 269.9 291.3L265.1 281.3A34.7 34.7 0 0 0 273.6 275.5Z");
}
}
@keyframes zr0-ani-17 {
0% {
d:path("M281.2 283.6A45.8 45.8 0 0 1 269.9 291.3L269.9 291.3A45.8 45.8 0 0 0 281.2 283.6Z");
}
100% {
d:path("M288.7 291.7A56.9 56.9 0 0 1 274.7 301.3L269.9 291.3A45.8 45.8 0 0 0 281.2 283.6Z");
}
}
@keyframes zr0-ani-18 {
0% {
d:path("M265.1 281.3A34.7 34.7 0 0 1 255.2 284.3L255.2 284.3A34.7 34.7 0 0 0 265.1 281.3Z");
}
100% {
d:path("M269.9 291.3A45.8 45.8 0 0 1 256.8 295.3L255.2 284.3A34.7 34.7 0 0 0 265.1 281.3Z");
}
}
@keyframes zr0-ani-19 {
0% {
d:path("M269.9 291.3A45.8 45.8 0 0 1 256.8 295.3L256.8 295.3A45.8 45.8 0 0 0 269.9 291.3Z");
}
100% {
d:path("M274.7 301.3A56.9 56.9 0 0 1 258.5 306.3L256.8 295.3A45.8 45.8 0 0 0 269.9 291.3Z");
}
}
@keyframes zr0-ani-20 {
0% {
d:path("M255.2 284.3A34.7 34.7 0 0 1 244.8 284.3L244.8 284.3A34.7 34.7 0 0 0 255.2 284.3Z");
}
100% {
d:path("M256.8 295.3A45.8 45.8 0 0 1 243.2 295.3L244.8 284.3A34.7 34.7 0 0 0 255.2 284.3Z");
}
}
@keyframes zr0-ani-21 {
0% {
d:path("M256.8 295.3A45.8 45.8 0 0 1 243.2 295.3L243.2 295.3A45.8 45.8 0 0 0 256.8 295.3Z");
}
100% {
d:path("M258.5 306.3A56.9 56.9 0 0 1 241.5 306.3L243.2 295.3A45.8 45.8 0 0 0 256.8 295.3Z");
}
}
@keyframes zr0-ani-22 {
0% {
d:path("M246.5 273.3A23.6 23.6 0 0 1 231.5 235.3L231.5 235.3A23.6 23.6 0 0 0 246.5 273.3Z");
}
100% {
d:path("M244.8 284.3A34.7 34.7 0 0 1 222.9 228.4L231.5 235.3A23.6 23.6 0 0 0 246.5 273.3Z");
}
}
@keyframes zr0-ani-23 {
0% {
d:path("M244.8 284.3A34.7 34.7 0 0 1 226.4 275.5L226.4 275.5A34.7 34.7 0 0 0 244.8 284.3Z");
}
100% {
d:path("M243.2 295.3A45.8 45.8 0 0 1 218.8 283.6L226.4 275.5A34.7 34.7 0 0 0 244.8 284.3Z");
}
}
@keyframes zr0-ani-24 {
0% {
d:path("M243.2 295.3A45.8 45.8 0 0 1 218.8 283.6L218.8 283.6A45.8 45.8 0 0 0 243.2 295.3Z");
}
100% {
d:path("M241.5 306.3A56.9 56.9 0 0 1 211.3 291.7L218.8 283.6A45.8 45.8 0 0 0 243.2 295.3Z");
}
}
@keyframes zr0-ani-25 {
0% {
d:path("M241.5 306.3A56.9 56.9 0 0 1 211.3 291.7L211.3 291.7A56.9 56.9 0 0 0 241.5 306.3Z");
}
100% {
d:path("M239.9 317.3A68.1 68.1 0 0 1 203.7 299.9L211.3 291.7A56.9 56.9 0 0 0 241.5 306.3Z");
}
}
@keyframes zr0-ani-26 {
0% {
d:path("M239.9 317.3A68.1 68.1 0 0 1 203.7 299.9L203.7 299.9A68.1 68.1 0 0 0 239.9 317.3Z");
}
100% {
d:path("M238.2 328.3A79.2 79.2 0 0 1 196.2 308L203.7 299.9A68.1 68.1 0 0 0 239.9 317.3Z");
}
}
@keyframes zr0-ani-27 {
0% {
d:path("M238.2 328.3A79.2 79.2 0 0 1 196.2 308L196.2 308A79.2 79.2 0 0 0 238.2 328.3Z");
}
100% {
d:path("M236.5 339.3A90.3 90.3 0 0 1 188.6 316.2L196.2 308A79.2 79.2 0 0 0 238.2 328.3Z");
}
}
@keyframes zr0-ani-28 {
0% {
d:path("M236.5 339.3A90.3 90.3 0 0 1 188.6 316.2L188.6 316.2A90.3 90.3 0 0 0 236.5 339.3Z");
}
100% {
d:path("M234.9 350.3A101.4 101.4 0 0 1 181 324.3L188.6 316.2A90.3 90.3 0 0 0 236.5 339.3Z");
}
}
@keyframes zr0-ani-29 {
0% {
d:path("M234.9 350.3A101.4 101.4 0 0 1 181 324.3L181 324.3A101.4 101.4 0 0 0 234.9 350.3Z");
}
100% {
d:path("M233.2 361.2A112.5 112.5 0 0 1 173.5 332.5L181 324.3A101.4 101.4 0 0 0 234.9 350.3Z");
}
}
@keyframes zr0-ani-30 {
0% {
d:path("M233.2 361.2A112.5 112.5 0 0 1 201.2 351.4L201.2 351.4A112.5 112.5 0 0 0 233.2 361.2Z");
}
100% {
d:path("M231.6 372.2A123.6 123.6 0 0 1 196.4 361.4L201.2 351.4A112.5 112.5 0 0 0 233.2 361.2Z");
}
}
@keyframes zr0-ani-31 {
0% {
d:path("M201.2 351.4A112.5 112.5 0 0 1 173.5 332.5L173.5 332.5A112.5 112.5 0 0 0 201.2 351.4Z");
}
100% {
d:path("M196.4 361.4A123.6 123.6 0 0 1 165.9 340.6L173.5 332.5A112.5 112.5 0 0 0 201.2 351.4Z");
}
}
@keyframes zr0-ani-32 {
0% {
d:path("M226.4 275.5A34.7 34.7 0 0 1 219.9 267.4L219.9 267.4A34.7 34.7 0 0 0 226.4 275.5Z");
}
100% {
d:path("M218.8 283.6A45.8 45.8 0 0 1 210.3 272.9L219.9 267.4A34.7 34.7 0 0 0 226.4 275.5Z");
}
}
@keyframes zr0-ani-33 {
0% {
d:path("M218.8 283.6A45.8 45.8 0 0 1 210.3 272.9L210.3 272.9A45.8 45.8 0 0 0 218.8 283.6Z");
}
100% {
d:path("M211.3 291.7A56.9 56.9 0 0 1 200.7 278.5L210.3 272.9A45.8 45.8 0 0 0 218.8 283.6Z");
}
}
@keyframes zr0-ani-34 {
0% {
d:path("M211.3 291.7A56.9 56.9 0 0 1 200.7 278.5L200.7 278.5A56.9 56.9 0 0 0 211.3 291.7Z");
}
100% {
d:path("M203.7 299.9A68.1 68.1 0 0 1 191.1 284L200.7 278.5A56.9 56.9 0 0 0 211.3 291.7Z");
}
}
@keyframes zr0-ani-35 {
0% {
d:path("M203.7 299.9A68.1 68.1 0 0 1 191.1 284L191.1 284A68.1 68.1 0 0 0 203.7 299.9Z");
}
100% {
d:path("M196.2 308A79.2 79.2 0 0 1 181.4 289.6L191.1 284A68.1 68.1 0 0 0 203.7 299.9Z");
}
}
@keyframes zr0-ani-36 {
0% {
d:path("M196.2 308A79.2 79.2 0 0 1 181.4 289.6L181.4 289.6A79.2 79.2 0 0 0 196.2 308Z");
}
100% {
d:path("M188.6 316.2A90.3 90.3 0 0 1 171.8 295.1L181.4 289.6A79.2 79.2 0 0 0 196.2 308Z");
}
}
@keyframes zr0-ani-37 {
0% {
d:path("M188.6 316.2A90.3 90.3 0 0 1 171.8 295.1L171.8 295.1A90.3 90.3 0 0 0 188.6 316.2Z");
}
100% {
d:path("M181 324.3A101.4 101.4 0 0 1 162.2 300.7L171.8 295.1A90.3 90.3 0 0 0 188.6 316.2Z");
}
}
@keyframes zr0-ani-38 {
0% {
d:path("M181 324.3A101.4 101.4 0 0 1 162.2 300.7L162.2 300.7A101.4 101.4 0 0 0 181 324.3Z");
}
100% {
d:path("M173.5 332.5A112.5 112.5 0 0 1 152.6 306.2L162.2 300.7A101.4 101.4 0 0 0 181 324.3Z");
}
}
@keyframes zr0-ani-39 {
0% {
d:path("M219.9 267.4A34.7 34.7 0 0 1 216.1 257.7L216.1 257.7A34.7 34.7 0 0 0 219.9 267.4Z");
}
100% {
d:path("M210.3 272.9A45.8 45.8 0 0 1 205.3 260.2L216.1 257.7A34.7 34.7 0 0 0 219.9 267.4Z");
}
}
@keyframes zr0-ani-40 {
0% {
d:path("M210.3 272.9A45.8 45.8 0 0 1 205.3 260.2L205.3 260.2A45.8 45.8 0 0 0 210.3 272.9Z");
}
100% {
d:path("M200.7 278.5A56.9 56.9 0 0 1 194.5 262.7L205.3 260.2A45.8 45.8 0 0 0 210.3 272.9Z");
}
}
@keyframes zr0-ani-41 {
0% {
d:path("M200.7 278.5A56.9 56.9 0 0 1 194.5 262.7L194.5 262.7A56.9 56.9 0 0 0 200.7 278.5Z");
}
100% {
d:path("M191.1 284A68.1 68.1 0 0 1 183.7 265.1L194.5 262.7A56.9 56.9 0 0 0 200.7 278.5Z");
}
}
@keyframes zr0-ani-42 {
0% {
d:path("M191.1 284A68.1 68.1 0 0 1 183.7 265.1L183.7 265.1A68.1 68.1 0 0 0 191.1 284Z");
}
100% {
d:path("M181.4 289.6A79.2 79.2 0 0 1 172.8 267.6L183.7 265.1A68.1 68.1 0 0 0 191.1 284Z");
}
}
@keyframes zr0-ani-43 {
0% {
d:path("M216.1 257.7A34.7 34.7 0 0 1 215.4 247.4L215.4 247.4A34.7 34.7 0 0 0 216.1 257.7Z");
}
100% {
d:path("M205.3 260.2A45.8 45.8 0 0 1 204.3 246.6L215.4 247.4A34.7 34.7 0 0 0 216.1 257.7Z");
}
}
@keyframes zr0-ani-44 {
0% {
d:path("M205.3 260.2A45.8 45.8 0 0 1 204.3 246.6L204.3 246.6A45.8 45.8 0 0 0 205.3 260.2Z");
}
100% {
d:path("M194.5 262.7A56.9 56.9 0 0 1 193.2 245.7L204.3 246.6A45.8 45.8 0 0 0 205.3 260.2Z");
}
}
@keyframes zr0-ani-45 {
0% {
d:path("M194.5 262.7A56.9 56.9 0 0 1 193.2 245.7L193.2 245.7A56.9 56.9 0 0 0 194.5 262.7Z");
}
100% {
d:path("M183.7 265.1A68.1 68.1 0 0 1 182.1 244.9L193.2 245.7A56.9 56.9 0 0 0 194.5 262.7Z");
}
}
@keyframes zr0-ani-46 {
0% {
d:path("M183.7 265.1A68.1 68.1 0 0 1 182.1 244.9L182.1 244.9A68.1 68.1 0 0 0 183.7 265.1Z");
}
100% {
d:path("M172.8 267.6A79.2 79.2 0 0 1 171.1 244.1L182.1 244.9A68.1 68.1 0 0 0 183.7 265.1Z");
}
}
@keyframes zr0-ani-47 {
0% {
d:path("M215.4 247.4A34.7 34.7 0 0 1 217.7 237.3L217.7 237.3A34.7 34.7 0 0 0 215.4 247.4Z");
}
100% {
d:path("M204.3 246.6A45.8 45.8 0 0 1 207.3 233.3L217.7 237.3A34.7 34.7 0 0 0 215.4 247.4Z");
}
}
@keyframes zr0-ani-48 {
0% {
d:path("M204.3 246.6A45.8 45.8 0 0 1 207.3 233.3L207.3 233.3A45.8 45.8 0 0 0 204.3 246.6Z");
}
100% {
d:path("M193.2 245.7A56.9 56.9 0 0 1 197 229.2L207.3 233.3A45.8 45.8 0 0 0 204.3 246.6Z");
}
}
@keyframes zr0-ani-49 {
0% {
d:path("M193.2 245.7A56.9 56.9 0 0 1 197 229.2L197 229.2A56.9 56.9 0 0 0 193.2 245.7Z");
}
100% {
d:path("M182.1 244.9A68.1 68.1 0 0 1 186.6 225.1L197 229.2A56.9 56.9 0 0 0 193.2 245.7Z");
}
}
@keyframes zr0-ani-50 {
0% {
d:path("M182.1 244.9A68.1 68.1 0 0 1 186.6 225.1L186.6 225.1A68.1 68.1 0 0 0 182.1 244.9Z");
}
100% {
d:path("M171.1 244.1A79.2 79.2 0 0 1 176.3 221.1L186.6 225.1A68.1 68.1 0 0 0 182.1 244.9Z");
}
}
@keyframes zr0-ani-51 {
0% {
d:path("M171.1 244.1A79.2 79.2 0 0 1 176.3 221.1L176.3 221.1A79.2 79.2 0 0 0 171.1 244.1Z");
}
100% {
d:path("M160 243.3A90.3 90.3 0 0 1 166 217L176.3 221.1A79.2 79.2 0 0 0 171.1 244.1Z");
}
}
@keyframes zr0-ani-52 {
0% {
d:path("M160 243.3A90.3 90.3 0 0 1 166 217L166 217A90.3 90.3 0 0 0 160 243.3Z");
}
100% {
d:path("M148.9 242.4A101.4 101.4 0 0 1 155.6 213L166 217A90.3 90.3 0 0 0 160 243.3Z");
}
}
@keyframes zr0-ani-53 {
0% {
d:path("M148.9 242.4A101.4 101.4 0 0 1 155.6 213L155.6 213A101.4 101.4 0 0 0 148.9 242.4Z");
}
100% {
d:path("M137.8 241.6A112.5 112.5 0 0 1 145.3 208.9L155.6 213A101.4 101.4 0 0 0 148.9 242.4Z");
}
}
@keyframes zr0-ani-54 {
0% {
d:path("M137.8 241.6A112.5 112.5 0 0 1 145.3 208.9L145.3 208.9A112.5 112.5 0 0 0 137.8 241.6Z");
}
100% {
d:path("M126.7 240.8A123.6 123.6 0 0 1 134.9 204.8L145.3 208.9A112.5 112.5 0 0 0 137.8 241.6Z");
}
}
@keyframes zr0-ani-55 {
0% {
d:path("M126.7 240.8A123.6 123.6 0 0 1 134.9 204.8L134.9 204.8A123.6 123.6 0 0 0 126.7 240.8Z");
}
100% {
d:path("M115.7 239.9A134.7 134.7 0 0 1 124.6 200.8L134.9 204.8A123.6 123.6 0 0 0 126.7 240.8Z");
}
}
@keyframes zr0-ani-56 {
0% {
d:path("M115.7 239.9A134.7 134.7 0 0 1 124.6 200.8L124.6 200.8A134.7 134.7 0 0 0 115.7 239.9Z");
}
100% {
d:path("M104.6 239.1A145.8 145.8 0 0 1 114.2 196.7L124.6 200.8A134.7 134.7 0 0 0 115.7 239.9Z");
}
}
@keyframes zr0-ani-57 {
0% {
d:path("M104.6 239.1A145.8 145.8 0 0 1 114.2 196.7L114.2 196.7A145.8 145.8 0 0 0 104.6 239.1Z");
}
100% {
d:path("M93.5 238.3A156.9 156.9 0 0 1 103.9 192.7L114.2 196.7A145.8 145.8 0 0 0 104.6 239.1Z");
}
}
@keyframes zr0-ani-58 {
0% {
d:path("M93.5 238.3A156.9 156.9 0 0 1 103.9 192.7L103.9 192.7A156.9 156.9 0 0 0 93.5 238.3Z");
}
100% {
d:path("M82.4 237.4A168.1 168.1 0 0 1 93.6 188.6L103.9 192.7A156.9 156.9 0 0 0 93.5 238.3Z");
}
}
@keyframes zr0-ani-59 {
0% {
d:path("M82.4 237.4A168.1 168.1 0 0 1 93.6 188.6L93.6 188.6A168.1 168.1 0 0 0 82.4 237.4Z");
}
100% {
d:path("M71.3 236.6A179.2 179.2 0 0 1 83.2 184.5L93.6 188.6A168.1 168.1 0 0 0 82.4 237.4Z");
}
}
@keyframes zr0-ani-60 {
0% {
d:path("M71.3 236.6A179.2 179.2 0 0 1 83.2 184.5L83.2 184.5A179.2 179.2 0 0 0 71.3 236.6Z");
}
100% {
d:path("M60.3 235.8A190.3 190.3 0 0 1 72.9 180.5L83.2 184.5A179.2 179.2 0 0 0 71.3 236.6Z");
}
}
@keyframes zr0-ani-61 {
0% {
d:path("M60.3 235.8A190.3 190.3 0 0 1 72.9 180.5L72.9 180.5A190.3 190.3 0 0 0 60.3 235.8Z");
}
100% {
d:path("M49.2 235A201.4 201.4 0 0 1 62.5 176.4L72.9 180.5A190.3 190.3 0 0 0 60.3 235.8Z");
}
}
@keyframes zr0-ani-62 {
0% {
d:path("M49.2 235A201.4 201.4 0 0 1 62.5 176.4L62.5 176.4A201.4 201.4 0 0 0 49.2 235Z");
}
100% {
d:path("M38.1 234.1A212.5 212.5 0 0 1 52.2 172.4L62.5 176.4A201.4 201.4 0 0 0 49.2 235Z");
}
}
@keyframes zr0-ani-63 {
0% {
d:path("M217.7 237.3A34.7 34.7 0 0 1 222.9 228.4L222.9 228.4A34.7 34.7 0 0 0 217.7 237.3Z");
}
100% {
d:path("M207.3 233.3A45.8 45.8 0 0 1 214.2 221.4L222.9 228.4A34.7 34.7 0 0 0 217.7 237.3Z");
}
}
@keyframes zr0-ani-64 {
0% {
d:path("M207.3 233.3A45.8 45.8 0 0 1 214.2 221.4L214.2 221.4A45.8 45.8 0 0 0 207.3 233.3Z");
}
100% {
d:path("M197 229.2A56.9 56.9 0 0 1 205.5 214.5L214.2 221.4A45.8 45.8 0 0 0 207.3 233.3Z");
}
}
@keyframes zr0-ani-65 {
0% {
d:path("M197 229.2A56.9 56.9 0 0 1 205.5 214.5L205.5 214.5A56.9 56.9 0 0 0 197 229.2Z");
}
100% {
d:path("M186.6 225.1A68.1 68.1 0 0 1 196.8 207.6L205.5 214.5A56.9 56.9 0 0 0 197 229.2Z");
}
}
@keyframes zr0-ani-66 {
0% {
d:path("M186.6 225.1A68.1 68.1 0 0 1 196.8 207.6L196.8 207.6A68.1 68.1 0 0 0 186.6 225.1Z");
}
100% {
d:path("M176.3 221.1A79.2 79.2 0 0 1 188.1 200.6L196.8 207.6A68.1 68.1 0 0 0 186.6 225.1Z");
}
}
@keyframes zr0-ani-67 {
0% {
d:path("M176.3 221.1A79.2 79.2 0 0 1 188.1 200.6L188.1 200.6A79.2 79.2 0 0 0 176.3 221.1Z");
}
100% {
d:path("M166 217A90.3 90.3 0 0 1 179.4 193.7L188.1 200.6A79.2 79.2 0 0 0 176.3 221.1Z");
}
}
@keyframes zr0-ani-68 {
0% {
d:path("M231.5 235.3A23.6 23.6 0 0 1 236.7 230.5L236.7 230.5A23.6 23.6 0 0 0 231.5 235.3Z");
}
100% {
d:path("M222.9 228.4A34.7 34.7 0 0 1 230.4 221.3L236.7 230.5A23.6 23.6 0 0 0 231.5 235.3Z");
}
}
@keyframes zr0-ani-69 {
0% {
d:path("M222.9 228.4A34.7 34.7 0 0 1 230.4 221.3L230.4 221.3A34.7 34.7 0 0 0 222.9 228.4Z");
}
100% {
d:path("M214.2 221.4A45.8 45.8 0 0 1 224.2 212.1L230.4 221.3A34.7 34.7 0 0 0 222.9 228.4Z");
}
}
@keyframes zr0-ani-70 {
0% {
d:path("M214.2 221.4A45.8 45.8 0 0 1 224.2 212.1L224.2 212.1A45.8 45.8 0 0 0 214.2 221.4Z");
}
100% {
d:path("M205.5 214.5A56.9 56.9 0 0 1 217.9 203L224.2 212.1A45.8 45.8 0 0 0 214.2 221.4Z");
}
}
@keyframes zr0-ani-71 {
0% {
d:path("M243 239.7A12.5 12.5 0 0 1 250 237.5L250 237.5A12.5 12.5 0 0 0 243 239.7Z");
}
100% {
d:path("M236.7 230.5A23.6 23.6 0 0 1 250 226.4L250 237.5A12.5 12.5 0 0 0 243 239.7Z");
}
}
@keyframes zr0-ani-72 {
0% {
d:path("M236.7 230.5A23.6 23.6 0 0 1 243 227.4L243 227.4A23.6 23.6 0 0 0 236.7 230.5Z");
}
100% {
d:path("M230.4 221.3A34.7 34.7 0 0 1 239.8 216.8L243 227.4A23.6 23.6 0 0 0 236.7 230.5Z");
}
}
@keyframes zr0-ani-73 {
0% {
d:path("M243 227.4A23.6 23.6 0 0 1 250 226.4L250 226.4A23.6 23.6 0 0 0 243 227.4Z");
}
100% {
d:path("M239.8 216.8A34.7 34.7 0 0 1 250 215.3L250 226.4A23.6 23.6 0 0 0 243 227.4Z");
}
}
]]>

</style>
</svg>