<svg width="500" height="500" xmlns="http://www.w3.org/2000/svg" xmlns:xlink="http://www.w3.org/1999/xlink" version="1.1" baseProfile="full" viewBox="0 0 500 500">
<rect width="500" height="500" x="0" y="0" id="0" fill="none"></rect>
<path d="M250 219.3A30.7 30.7 0 1 1 225.5 231.5L240 242.5A12.5 12.5 0 1 0 250 237.5Z" fill="#C8C8C8" stroke="white" stroke-linejoin="bevel" class="zr60-cls-0"></path>
<path d="M250 201.1A48.9 48.9 0 1 1 211.1 220.5L225.5 231.5A30.7 30.7 0 1 0 250 219.3Z" fill="#C8C8C8" stroke="white" stroke-linejoin="bevel" class="zr60-cls-1"></path>
<path d="M225.5 231.5A30.7 30.7 0 0 1 250 219.3L250 237.5A12.5 12.5 0 0 0 240 242.5Z" fill="#000" stroke="white" stroke-linejoin="bevel" class="zr60-cls-2"></path>
<path d="M211.1 220.5A48.9 48.9 0 0 1 223.4 209L233.3 224.3A30.7 30.7 0 0 0 225.5 231.5Z" fill="#4949CD" fill-opacity="0.5" stroke="#fff" stroke-width="4" stroke-opacity="0.5" stroke-linejoin="bevel" class="zr60-cls-3"></path>
<path d="M196.6 209.5A67 67 0 0 1 201.6 203.6L214.7 216.2A48.9 48.9 0 0 0 211.1 220.5Z" fill="#000" stroke="white" stroke-linejoin="bevel" class="zr60-cls-4"></path>
<path d="M182.1 198.5A85.2 85.2 0 0 1 188.4 191.1L201.6 203.6A67 67 0 0 0 196.6 209.5Z" fill="#000" stroke="white" stroke-linejoin="bevel" class="zr60-cls-5"></path>
<path d="M167.6 187.5A103.4 103.4 0 0 1 175.3 178.5L188.4 191.1A85.2 85.2 0 0 0 182.1 198.5Z" fill="#4949CD" fill-opacity="0.5" stroke="#fff" stroke-width="4" stroke-opacity="0.5" stroke-linejoin="bevel" class="zr60-cls-6"></path>
<path d="M153.1 176.6A121.6 121.6 0 0 1 162.2 165.9L175.3 178.5A103.4 103.4 0 0 0 167.6 187.5Z" fill="#0AA40D" stroke="white" stroke-linejoin="bevel" class="zr60-cls-7"></path>
<path d="M138.6 165.6A139.8 139.8 0 0 1 149.1 153.3L162.2 165.9A121.6 121.6 0 0 0 153.1 176.6Z" fill="#C8C8C8" stroke="white" stroke-linejoin="bevel" class="zr60-cls-8"></path>
<path d="M124.1 154.6A158 158 0 0 1 129.8 147.5L143.7 159.3A139.8 139.8 0 0 0 138.6 165.6Z" fill="#49ff49" fill-opacity="0.5" stroke="#fff" stroke-width="4" stroke-opacity="0.5" stroke-linejoin="bevel" class="zr60-cls-9"></path>
<path d="M109.6 143.6A176.1 176.1 0 0 1 116 135.7L129.8 147.5A158 158 0 0 0 124.1 154.6Z" fill="#C8C8C8" stroke="white" stroke-linejoin="bevel" class="zr60-cls-10"></path>
<path d="M129.8 147.5A158 158 0 0 1 135.9 140.7L149.1 153.3A139.8 139.8 0 0 0 143.7 159.3Z" fill="#ff4949" fill-opacity="0.5" stroke="#fff" stroke-width="4" stroke-opacity="0.5" stroke-linejoin="bevel" class="zr60-cls-11"></path>
<path d="M116 135.7A176.1 176.1 0 0 1 122.8 128.2L135.9 140.7A158 158 0 0 0 129.8 147.5Z" fill="#C8C8C8" stroke="white" stroke-linejoin="bevel" class="zr60-cls-12"></path>
<path d="M201.6 203.6A67 67 0 0 1 207.2 198.4L218.8 212.4A48.9 48.9 0 0 0 214.7 216.2Z" fill="#000" stroke="white" stroke-linejoin="bevel" class="zr60-cls-13"></path>
<path d="M188.4 191.1A85.2 85.2 0 0 1 195.6 184.4L207.2 198.4A67 67 0 0 0 201.6 203.6Z" fill="#000" stroke="white" stroke-linejoin="bevel" class="zr60-cls-14"></path>
<path d="M175.3 178.5A103.4 103.4 0 0 1 184 170.4L195.6 184.4A85.2 85.2 0 0 0 188.4 191.1Z" fill="#4949CD" fill-opacity="0.5" stroke="#fff" stroke-width="4" stroke-opacity="0.5" stroke-linejoin="bevel" class="zr60-cls-15"></path>
<path d="M162.2 165.9A121.6 121.6 0 0 1 172.4 156.4L184 170.4A103.4 103.4 0 0 0 175.3 178.5Z" fill="#0AA40D" stroke="white" stroke-linejoin="bevel" class="zr60-cls-16"></path>
<path d="M149.1 153.3A139.8 139.8 0 0 1 160.8 142.4L172.4 156.4A121.6 121.6 0 0 0 162.2 165.9Z" fill="#000" stroke="white" stroke-linejoin="bevel" class="zr60-cls-17"></path>
<path d="M135.9 140.7A158 158 0 0 1 142.4 134.4L154.8 147.7A139.8 139.8 0 0 0 149.1 153.3Z" fill="#49ff49" fill-opacity="0.5" stroke="#fff" stroke-width="4" stroke-opacity="0.5" stroke-linejoin="bevel" class="zr60-cls-18"></path>
<path d="M122.8 128.2A176.1 176.1 0 0 1 130 121L142.4 134.4A158 158 0 0 0 135.9 140.7Z" fill="#000" stroke="white" stroke-linejoin="bevel" class="zr60-cls-19"></path>
<path d="M109.7 115.6A194.3 194.3 0 0 1 117.6 107.7L130 121A176.1 176.1 0 0 0 122.8 128.2Z" fill="#000" stroke="white" stroke-linejoin="bevel" class="zr60-cls-20"></path>
<path d="M142.4 134.4A158 158 0 0 1 149.2 128.4L160.8 142.4A139.8 139.8 0 0 0 154.8 147.7Z" fill="#ff4949" fill-opacity="0.5" stroke="#fff" stroke-width="4" stroke-opacity="0.5" stroke-linejoin="bevel" class="zr60-cls-21"></path>
<path d="M130 121A176.1 176.1 0 0 1 137.6 114.3L149.2 128.4A158 158 0 0 0 142.4 134.4Z" fill="#000" stroke="white" stroke-linejoin="bevel" class="zr60-cls-22"></path>
<path d="M117.6 107.7A194.3 194.3 0 0 1 126.1 100.3L137.6 114.3A176.1 176.1 0 0 0 130 121Z" fill="#000" stroke="white" stroke-linejoin="bevel" class="zr60-cls-23"></path>
<path d="M207.2 198.4A67 67 0 0 1 210.3 196L221.1 210.6A48.9 48.9 0 0 0 218.8 212.4Z" fill="#000" stroke="white" stroke-linejoin="bevel" class="zr60-cls-24"></path>
<path d="M195.6 184.4A85.2 85.2 0 0 1 199.5 181.3L210.3 196A67 67 0 0 0 207.2 198.4Z" fill="#000" stroke="white" stroke-linejoin="bevel" class="zr60-cls-25"></path>
<path d="M184 170.4A103.4 103.4 0 0 1 188.7 166.7L199.5 181.3A85.2 85.2 0 0 0 195.6 184.4Z" fill="#4949CD" fill-opacity="0.5" stroke="#fff" stroke-width="4" stroke-opacity="0.5" stroke-linejoin="bevel" class="zr60-cls-26"></path>
<path d="M172.4 156.4A121.6 121.6 0 0 1 178 152L188.7 166.7A103.4 103.4 0 0 0 184 170.4Z" fill="#6dc0e3" stroke="white" stroke-linejoin="bevel" class="zr60-cls-27"></path>
<path d="M160.8 142.4A139.8 139.8 0 0 1 167.2 137.4L178 152A121.6 121.6 0 0 0 172.4 156.4Z" fill="#C8C8C8" stroke="white" stroke-linejoin="bevel" class="zr60-cls-28"></path>
<path d="M210.3 196A67 67 0 0 1 213.5 193.8L223.4 209A48.9 48.9 0 0 0 221.1 210.6Z" fill="#000" stroke="white" stroke-linejoin="bevel" class="zr60-cls-29"></path>
<path d="M199.5 181.3A85.2 85.2 0 0 1 203.5 178.5L213.5 193.8A67 67 0 0 0 210.3 196Z" fill="#000" stroke="white" stroke-linejoin="bevel" class="zr60-cls-30"></path>
<path d="M188.7 166.7A103.4 103.4 0 0 1 193.6 163.3L203.5 178.5A85.2 85.2 0 0 0 199.5 181.3Z" fill="#4949CD" fill-opacity="0.5" stroke="#fff" stroke-width="4" stroke-opacity="0.5" stroke-linejoin="bevel" class="zr60-cls-31"></path>
<path d="M178 152A121.6 121.6 0 0 1 183.7 148.1L193.6 163.3A103.4 103.4 0 0 0 188.7 166.7Z" fill="#0AA40D" stroke="white" stroke-linejoin="bevel" class="zr60-cls-32"></path>
<path d="M167.2 137.4A139.8 139.8 0 0 1 173.8 132.8L183.7 148.1A121.6 121.6 0 0 0 178 152Z" fill="#000" stroke="white" stroke-linejoin="bevel" class="zr60-cls-33"></path>
<path d="M156.4 122.7A158 158 0 0 1 163.9 117.6L173.8 132.8A139.8 139.8 0 0 0 167.2 137.4Z" fill="#4949CD" fill-opacity="0.5" stroke="#fff" stroke-width="4" stroke-opacity="0.5" stroke-linejoin="bevel" class="zr60-cls-34"></path>
<path d="M145.6 108.1A176.1 176.1 0 0 1 154 102.3L163.9 117.6A158 158 0 0 0 156.4 122.7Z" fill="#000" stroke="white" stroke-linejoin="bevel" class="zr60-cls-35"></path>
<path d="M134.9 93.5A194.3 194.3 0 0 1 144.1 87.1L154 102.3A176.1 176.1 0 0 0 145.6 108.1Z" fill="#000" stroke="white" stroke-linejoin="bevel" class="zr60-cls-36"></path>
<path d="M124.1 78.8A212.5 212.5 0 0 1 134.2 71.8L144.1 87.1A194.3 194.3 0 0 0 134.9 93.5Z" fill="#C8C8C8" stroke="white" stroke-linejoin="bevel" class="zr60-cls-37"></path>
<path d="M223.4 209A48.9 48.9 0 0 1 236.1 203.2L241.3 220.6A30.7 30.7 0 0 0 233.3 224.3Z" fill="#49ff49" fill-opacity="0.5" stroke="#fff" stroke-width="4" stroke-opacity="0.5" stroke-linejoin="bevel" class="zr60-cls-38"></path>
<path d="M213.5 193.8A67 67 0 0 1 220.2 190L228.3 206.2A48.9 48.9 0 0 0 223.4 209Z" fill="#000" stroke="white" stroke-linejoin="bevel" class="zr60-cls-39"></path>
<path d="M203.5 178.5A85.2 85.2 0 0 1 207.7 176L216.8 191.8A67 67 0 0 0 213.5 193.8Z" fill="#F3C142" stroke="white" stroke-linejoin="bevel" class="zr60-cls-40"></path>
<path d="M207.7 176A85.2 85.2 0 0 1 212.1 173.7L220.2 190A67 67 0 0 0 216.8 191.8Z" fill="#0AA40D" stroke="white" stroke-linejoin="bevel" class="zr60-cls-41"></path>
<path d="M220.2 190A67 67 0 0 1 223.7 188.3L230.8 205.1A48.9 48.9 0 0 0 228.3 206.2Z" fill="#000" stroke="white" stroke-linejoin="bevel" class="zr60-cls-42"></path>
<path d="M212.1 173.7A85.2 85.2 0 0 1 216.5 171.6L223.7 188.3A67 67 0 0 0 220.2 190Z" fill="#0AA40D" stroke="white" stroke-linejoin="bevel" class="zr60-cls-43"></path>
<path d="M223.7 188.3A67 67 0 0 1 227.3 186.9L233.4 204A48.9 48.9 0 0 0 230.8 205.1Z" fill="#000" stroke="white" stroke-linejoin="bevel" class="zr60-cls-44"></path>
<path d="M216.5 171.6A85.2 85.2 0 0 1 221.1 169.8L227.3 186.9A67 67 0 0 0 223.7 188.3Z" fill="#0AA40D" stroke="white" stroke-linejoin="bevel" class="zr60-cls-45"></path>
<path d="M227.3 186.9A67 67 0 0 1 230.9 185.7L236.1 203.2A48.9 48.9 0 0 0 233.4 204Z" fill="#000" stroke="white" stroke-linejoin="bevel" class="zr60-cls-46"></path>
<path d="M221.1 169.8A85.2 85.2 0 0 1 225.8 168.3L230.9 185.7A67 67 0 0 0 227.3 186.9Z" fill="#0AA40D" stroke="white" stroke-linejoin="bevel" class="zr60-cls-47"></path>
<path d="M236.1 203.2A48.9 48.9 0 0 1 250 201.1L250 219.3A30.7 30.7 0 0 0 241.3 220.6Z" fill="#ff4949" fill-opacity="0.5" stroke="#fff" stroke-width="4" stroke-opacity="0.5" stroke-linejoin="bevel" class="zr60-cls-48"></path>
<path d="M230.9 185.7A67 67 0 0 1 238.5 184L241.6 201.9A48.9 48.9 0 0 0 236.1 203.2Z" fill="#000" stroke="white" stroke-linejoin="bevel" class="zr60-cls-49"></path>
<path d="M225.8 168.3A85.2 85.2 0 0 1 230.5 167L234.7 184.7A67 67 0 0 0 230.9 185.7Z" fill="#0AA40D" stroke="white" stroke-linejoin="bevel" class="zr60-cls-50"></path>
<path d="M230.5 167A85.2 85.2 0 0 1 235.3 166L238.5 184A67 67 0 0 0 234.7 184.7Z" fill="#F3C142" stroke="white" stroke-linejoin="bevel" class="zr60-cls-51"></path>
<path d="M238.5 184A67 67 0 0 1 242.3 183.4L244.4 201.5A48.9 48.9 0 0 0 241.6 201.9Z" fill="#000" stroke="white" stroke-linejoin="bevel" class="zr60-cls-52"></path>
<path d="M235.3 166A85.2 85.2 0 0 1 240.2 165.3L242.3 183.4A67 67 0 0 0 238.5 184Z" fill="#0AA40D" stroke="white" stroke-linejoin="bevel" class="zr60-cls-53"></path>
<path d="M242.3 183.4A67 67 0 0 1 246.1 183.1L247.2 201.2A48.9 48.9 0 0 0 244.4 201.5Z" fill="#000" stroke="white" stroke-linejoin="bevel" class="zr60-cls-54"></path>
<path d="M240.2 165.3A85.2 85.2 0 0 1 245.1 164.9L246.1 183.1A67 67 0 0 0 242.3 183.4Z" fill="#0AA40D" stroke="white" stroke-linejoin="bevel" class="zr60-cls-55"></path>
<path d="M246.1 183.1A67 67 0 0 1 250 183L250 201.1A48.9 48.9 0 0 0 247.2 201.2Z" fill="#000" stroke="white" stroke-linejoin="bevel" class="zr60-cls-56"></path>
<path d="M245.1 164.9A85.2 85.2 0 0 1 250 164.8L250 183A67 67 0 0 0 246.1 183.1Z" fill="#0AA40D" stroke="white" stroke-linejoin="bevel" class="zr60-cls-57"></path>
<text dominant-baseline="central" text-anchor="middle" style="font-size:12px;font-family:sans-serif;" transform="matrix(0.896,-0.445,0.445,0.896,259.6075,269.3355)" fill="#333">info</text>
<text dominant-baseline="central" text-anchor="middle" style="font-size:10px;font-family:sans-serif;" transform="matrix(0.896,-0.445,0.445,0.896,267.698,285.6181)" fill="#333">version</text>
<text dominant-baseline="central" text-anchor="middle" style="font-size:12px;font-family:sans-serif;" transform="matrix(0.896,-0.445,0.445,0.896,240.3925,230.6645)" fill="#ccc" stroke="#000" stroke-width="2" paint-order="stroke" stroke-miterlimit="2">paths</text>
<path d="M-14.8 -16l66.6 0l0 32l-66.6 0Z" transform="translate(448.253 16)" fill="none" stroke="#ccc" stroke-width="0"></path>
<path d="M-7.3 -1.8L-0.1 4.8L7.3 -1.6M-7.3 4.3L-7.3 8.5L7.1 8.5L7.1 4.3M-0.1 4.7L-0.1 -8.5" transform="translate(448.253 16)" fill="none" stroke="#666"></path>
<path d="M-7.9 1M5.1 -3.4L8.1 -3.4L8.1 -6.4M8 -3C6.7 -6.4 3.2 -8.9 -1 -8.4C-5.3 -8 -8.6 -4.2 -8.4 0.2M-5.1 3.4L-8.1 3.4L-8.1 6.4M-8 3C-6.7 6.4 -3.2 8.9 1 8.4C5.3 8 8.6 4.2 8.4 -0.2" transform="translate(484.0476 16)" fill="none" stroke="#666"></path>
<style ><![CDATA[
.zr60-cls-0 {
animation:zr60-ani-0 1s cubic-bezier(0.65,0,0.35,1) both;
}
.zr60-cls-1 {
animation:zr60-ani-1 1s cubic-bezier(0.65,0,0.35,1) both;
}
.zr60-cls-2 {
animation:zr60-ani-2 1s cubic-bezier(0.65,0,0.35,1) both;
}
.zr60-cls-3 {
animation:zr60-ani-3 1s cubic-bezier(0.65,0,0.35,1) both;
}
.zr60-cls-4 {
animation:zr60-ani-4 1s cubic-bezier(0.65,0,0.35,1) both;
}
.zr60-cls-5 {
animation:zr60-ani-5 1s cubic-bezier(0.65,0,0.35,1) both;
}
.zr60-cls-6 {
animation:zr60-ani-6 1s cubic-bezier(0.65,0,0.35,1) both;
}
.zr60-cls-7 {
animation:zr60-ani-7 1s cubic-bezier(0.65,0,0.35,1) both;
}
.zr60-cls-8 {
animation:zr60-ani-8 1s cubic-bezier(0.65,0,0.35,1) both;
}
.zr60-cls-9 {
animation:zr60-ani-9 1s cubic-bezier(0.65,0,0.35,1) both;
}
.zr60-cls-10 {
animation:zr60-ani-10 1s cubic-bezier(0.65,0,0.35,1) both;
}
.zr60-cls-11 {
animation:zr60-ani-11 1s cubic-bezier(0.65,0,0.35,1) both;
}
.zr60-cls-12 {
animation:zr60-ani-12 1s cubic-bezier(0.65,0,0.35,1) both;
}
.zr60-cls-13 {
animation:zr60-ani-13 1s cubic-bezier(0.65,0,0.35,1) both;
}
.zr60-cls-14 {
animation:zr60-ani-14 1s cubic-bezier(0.65,0,0.35,1) both;
}
.zr60-cls-15 {
animation:zr60-ani-15 1s cubic-bezier(0.65,0,0.35,1) both;
}
.zr60-cls-16 {
animation:zr60-ani-16 1s cubic-bezier(0.65,0,0.35,1) both;
}
.zr60-cls-17 {
animation:zr60-ani-17 1s cubic-bezier(0.65,0,0.35,1) both;
}
.zr60-cls-18 {
animation:zr60-ani-18 1s cubic-bezier(0.65,0,0.35,1) both;
}
.zr60-cls-19 {
animation:zr60-ani-19 1s cubic-bezier(0.65,0,0.35,1) both;
}
.zr60-cls-20 {
animation:zr60-ani-20 1s cubic-bezier(0.65,0,0.35,1) both;
}
.zr60-cls-21 {
animation:zr60-ani-21 1s cubic-bezier(0.65,0,0.35,1) both;
}
.zr60-cls-22 {
animation:zr60-ani-22 1s cubic-bezier(0.65,0,0.35,1) both;
}
.zr60-cls-23 {
animation:zr60-ani-23 1s cubic-bezier(0.65,0,0.35,1) both;
}
.zr60-cls-24 {
animation:zr60-ani-24 1s cubic-bezier(0.65,0,0.35,1) both;
}
.zr60-cls-25 {
animation:zr60-ani-25 1s cubic-bezier(0.65,0,0.35,1) both;
}
.zr60-cls-26 {
animation:zr60-ani-26 1s cubic-bezier(0.65,0,0.35,1) both;
}
.zr60-cls-27 {
animation:zr60-ani-27 1s cubic-bezier(0.65,0,0.35,1) both;
}
.zr60-cls-28 {
animation:zr60-ani-28 1s cubic-bezier(0.65,0,0.35,1) both;
}
.zr60-cls-29 {
animation:zr60-ani-29 1s cubic-bezier(0.65,0,0.35,1) both;
}
.zr60-cls-30 {
animation:zr60-ani-30 1s cubic-bezier(0.65,0,0.35,1) both;
}
.zr60-cls-31 {
animation:zr60-ani-31 1s cubic-bezier(0.65,0,0.35,1) both;
}
.zr60-cls-32 {
animation:zr60-ani-32 1s cubic-bezier(0.65,0,0.35,1) both;
}
.zr60-cls-33 {
animation:zr60-ani-33 1s cubic-bezier(0.65,0,0.35,1) both;
}
.zr60-cls-34 {
animation:zr60-ani-34 1s cubic-bezier(0.65,0,0.35,1) both;
}
.zr60-cls-35 {
animation:zr60-ani-35 1s cubic-bezier(0.65,0,0.35,1) both;
}
.zr60-cls-36 {
animation:zr60-ani-36 1s cubic-bezier(0.65,0,0.35,1) both;
}
.zr60-cls-37 {
animation:zr60-ani-37 1s cubic-bezier(0.65,0,0.35,1) both;
}
.zr60-cls-38 {
animation:zr60-ani-38 1s cubic-bezier(0.65,0,0.35,1) both;
}
.zr60-cls-39 {
animation:zr60-ani-39 1s cubic-bezier(0.65,0,0.35,1) both;
}
.zr60-cls-40 {
animation:zr60-ani-40 1s cubic-bezier(0.65,0,0.35,1) both;
}
.zr60-cls-41 {
animation:zr60-ani-41 1s cubic-bezier(0.65,0,0.35,1) both;
}
.zr60-cls-42 {
animation:zr60-ani-42 1s cubic-bezier(0.65,0,0.35,1) both;
}
.zr60-cls-43 {
animation:zr60-ani-43 1s cubic-bezier(0.65,0,0.35,1) both;
}
.zr60-cls-44 {
animation:zr60-ani-44 1s cubic-bezier(0.65,0,0.35,1) both;
}
.zr60-cls-45 {
animation:zr60-ani-45 1s cubic-bezier(0.65,0,0.35,1) both;
}
.zr60-cls-46 {
animation:zr60-ani-46 1s cubic-bezier(0.65,0,0.35,1) both;
}
.zr60-cls-47 {
animation:zr60-ani-47 1s cubic-bezier(0.65,0,0.35,1) both;
}
.zr60-cls-48 {
animation:zr60-ani-48 1s cubic-bezier(0.65,0,0.35,1) both;
}
.zr60-cls-49 {
animation:zr60-ani-49 1s cubic-bezier(0.65,0,0.35,1) both;
}
.zr60-cls-50 {
animation:zr60-ani-50 1s cubic-bezier(0.65,0,0.35,1) both;
}
.zr60-cls-51 {
animation:zr60-ani-51 1s cubic-bezier(0.65,0,0.35,1) both;
}
.zr60-cls-52 {
animation:zr60-ani-52 1s cubic-bezier(0.65,0,0.35,1) both;
}
.zr60-cls-53 {
animation:zr60-ani-53 1s cubic-bezier(0.65,0,0.35,1) both;
}
.zr60-cls-54 {
animation:zr60-ani-54 1s cubic-bezier(0.65,0,0.35,1) both;
}
.zr60-cls-55 {
animation:zr60-ani-55 1s cubic-bezier(0.65,0,0.35,1) both;
}
.zr60-cls-56 {
animation:zr60-ani-56 1s cubic-bezier(0.65,0,0.35,1) both;
}
.zr60-cls-57 {
animation:zr60-ani-57 1s cubic-bezier(0.65,0,0.35,1) both;
}
@keyframes zr60-ani-0 {
0% {
d:path("M250 237.5A12.5 12.5 0 1 1 240 242.5L240 242.5A12.5 12.5 0 1 0 250 237.5Z");
}
100% {
d:path("M250 219.3A30.7 30.7 0 1 1 225.5 231.5L240 242.5A12.5 12.5 0 1 0 250 237.5Z");
}
}
@keyframes zr60-ani-1 {
0% {
d:path("M250 219.3A30.7 30.7 0 1 1 225.5 231.5A30.7 30.7 0 1 0 250 219.3Z");
}
100% {
d:path("M250 201.1A48.9 48.9 0 1 1 211.1 220.5L225.5 231.5A30.7 30.7 0 1 0 250 219.3Z");
}
}
@keyframes zr60-ani-2 {
0% {
d:path("M240 242.5A12.5 12.5 0 0 1 250 237.5L250 237.5A12.5 12.5 0 0 0 240 242.5Z");
}
100% {
d:path("M225.5 231.5A30.7 30.7 0 0 1 250 219.3L250 237.5A12.5 12.5 0 0 0 240 242.5Z");
}
}
@keyframes zr60-ani-3 {
0% {
d:path("M225.5 231.5A30.7 30.7 0 0 1 233.3 224.3L233.3 224.3A30.7 30.7 0 0 0 225.5 231.5Z");
}
100% {
d:path("M211.1 220.5A48.9 48.9 0 0 1 223.4 209L233.3 224.3A30.7 30.7 0 0 0 225.5 231.5Z");
}
}
@keyframes zr60-ani-4 {
0% {
d:path("M211.1 220.5A48.9 48.9 0 0 1 214.7 216.2L214.7 216.2A48.9 48.9 0 0 0 211.1 220.5Z");
}
100% {
d:path("M196.6 209.5A67 67 0 0 1 201.6 203.6L214.7 216.2A48.9 48.9 0 0 0 211.1 220.5Z");
}
}
@keyframes zr60-ani-5 {
0% {
d:path("M196.6 209.5A67 67 0 0 1 201.6 203.6L201.6 203.6A67 67 0 0 0 196.6 209.5Z");
}
100% {
d:path("M182.1 198.5A85.2 85.2 0 0 1 188.4 191.1L201.6 203.6A67 67 0 0 0 196.6 209.5Z");
}
}
@keyframes zr60-ani-6 {
0% {
d:path("M182.1 198.5A85.2 85.2 0 0 1 188.4 191.1L188.4 191.1A85.2 85.2 0 0 0 182.1 198.5Z");
}
100% {
d:path("M167.6 187.5A103.4 103.4 0 0 1 175.3 178.5L188.4 191.1A85.2 85.2 0 0 0 182.1 198.5Z");
}
}
@keyframes zr60-ani-7 {
0% {
d:path("M167.6 187.5A103.4 103.4 0 0 1 175.3 178.5L175.3 178.5A103.4 103.4 0 0 0 167.6 187.5Z");
}
100% {
d:path("M153.1 176.6A121.6 121.6 0 0 1 162.2 165.9L175.3 178.5A103.4 103.4 0 0 0 167.6 187.5Z");
}
}
@keyframes zr60-ani-8 {
0% {
d:path("M153.1 176.6A121.6 121.6 0 0 1 162.2 165.9L162.2 165.9A121.6 121.6 0 0 0 153.1 176.6Z");
}
100% {
d:path("M138.6 165.6A139.8 139.8 0 0 1 149.1 153.3L162.2 165.9A121.6 121.6 0 0 0 153.1 176.6Z");
}
}
@keyframes zr60-ani-9 {
0% {
d:path("M138.6 165.6A139.8 139.8 0 0 1 143.7 159.3L143.7 159.3A139.8 139.8 0 0 0 138.6 165.6Z");
}
100% {
d:path("M124.1 154.6A158 158 0 0 1 129.8 147.5L143.7 159.3A139.8 139.8 0 0 0 138.6 165.6Z");
}
}
@keyframes zr60-ani-10 {
0% {
d:path("M124.1 154.6A158 158 0 0 1 129.8 147.5L129.8 147.5A158 158 0 0 0 124.1 154.6Z");
}
100% {
d:path("M109.6 143.6A176.1 176.1 0 0 1 116 135.7L129.8 147.5A158 158 0 0 0 124.1 154.6Z");
}
}
@keyframes zr60-ani-11 {
0% {
d:path("M143.7 159.3A139.8 139.8 0 0 1 149.1 153.3L149.1 153.3A139.8 139.8 0 0 0 143.7 159.3Z");
}
100% {
d:path("M129.8 147.5A158 158 0 0 1 135.9 140.7L149.1 153.3A139.8 139.8 0 0 0 143.7 159.3Z");
}
}
@keyframes zr60-ani-12 {
0% {
d:path("M129.8 147.5A158 158 0 0 1 135.9 140.7L135.9 140.7A158 158 0 0 0 129.8 147.5Z");
}
100% {
d:path("M116 135.7A176.1 176.1 0 0 1 122.8 128.2L135.9 140.7A158 158 0 0 0 129.8 147.5Z");
}
}
@keyframes zr60-ani-13 {
0% {
d:path("M214.7 216.2A48.9 48.9 0 0 1 218.8 212.4L218.8 212.4A48.9 48.9 0 0 0 214.7 216.2Z");
}
100% {
d:path("M201.6 203.6A67 67 0 0 1 207.2 198.4L218.8 212.4A48.9 48.9 0 0 0 214.7 216.2Z");
}
}
@keyframes zr60-ani-14 {
0% {
d:path("M201.6 203.6A67 67 0 0 1 207.2 198.4L207.2 198.4A67 67 0 0 0 201.6 203.6Z");
}
100% {
d:path("M188.4 191.1A85.2 85.2 0 0 1 195.6 184.4L207.2 198.4A67 67 0 0 0 201.6 203.6Z");
}
}
@keyframes zr60-ani-15 {
0% {
d:path("M188.4 191.1A85.2 85.2 0 0 1 195.6 184.4L195.6 184.4A85.2 85.2 0 0 0 188.4 191.1Z");
}
100% {
d:path("M175.3 178.5A103.4 103.4 0 0 1 184 170.4L195.6 184.4A85.2 85.2 0 0 0 188.4 191.1Z");
}
}
@keyframes zr60-ani-16 {
0% {
d:path("M175.3 178.5A103.4 103.4 0 0 1 184 170.4L184 170.4A103.4 103.4 0 0 0 175.3 178.5Z");
}
100% {
d:path("M162.2 165.9A121.6 121.6 0 0 1 172.4 156.4L184 170.4A103.4 103.4 0 0 0 175.3 178.5Z");
}
}
@keyframes zr60-ani-17 {
0% {
d:path("M162.2 165.9A121.6 121.6 0 0 1 172.4 156.4L172.4 156.4A121.6 121.6 0 0 0 162.2 165.9Z");
}
100% {
d:path("M149.1 153.3A139.8 139.8 0 0 1 160.8 142.4L172.4 156.4A121.6 121.6 0 0 0 162.2 165.9Z");
}
}
@keyframes zr60-ani-18 {
0% {
d:path("M149.1 153.3A139.8 139.8 0 0 1 154.8 147.7L154.8 147.7A139.8 139.8 0 0 0 149.1 153.3Z");
}
100% {
d:path("M135.9 140.7A158 158 0 0 1 142.4 134.4L154.8 147.7A139.8 139.8 0 0 0 149.1 153.3Z");
}
}
@keyframes zr60-ani-19 {
0% {
d:path("M135.9 140.7A158 158 0 0 1 142.4 134.4L142.4 134.4A158 158 0 0 0 135.9 140.7Z");
}
100% {
d:path("M122.8 128.2A176.1 176.1 0 0 1 130 121L142.4 134.4A158 158 0 0 0 135.9 140.7Z");
}
}
@keyframes zr60-ani-20 {
0% {
d:path("M122.8 128.2A176.1 176.1 0 0 1 130 121L130 121A176.1 176.1 0 0 0 122.8 128.2Z");
}
100% {
d:path("M109.7 115.6A194.3 194.3 0 0 1 117.6 107.7L130 121A176.1 176.1 0 0 0 122.8 128.2Z");
}
}
@keyframes zr60-ani-21 {
0% {
d:path("M154.8 147.7A139.8 139.8 0 0 1 160.8 142.4L160.8 142.4A139.8 139.8 0 0 0 154.8 147.7Z");
}
100% {
d:path("M142.4 134.4A158 158 0 0 1 149.2 128.4L160.8 142.4A139.8 139.8 0 0 0 154.8 147.7Z");
}
}
@keyframes zr60-ani-22 {
0% {
d:path("M142.4 134.4A158 158 0 0 1 149.2 128.4L149.2 128.4A158 158 0 0 0 142.4 134.4Z");
}
100% {
d:path("M130 121A176.1 176.1 0 0 1 137.6 114.3L149.2 128.4A158 158 0 0 0 142.4 134.4Z");
}
}
@keyframes zr60-ani-23 {
0% {
d:path("M130 121A176.1 176.1 0 0 1 137.6 114.3L137.6 114.3A176.1 176.1 0 0 0 130 121Z");
}
100% {
d:path("M117.6 107.7A194.3 194.3 0 0 1 126.1 100.3L137.6 114.3A176.1 176.1 0 0 0 130 121Z");
}
}
@keyframes zr60-ani-24 {
0% {
d:path("M218.8 212.4A48.9 48.9 0 0 1 221.1 210.6L221.1 210.6A48.9 48.9 0 0 0 218.8 212.4Z");
}
100% {
d:path("M207.2 198.4A67 67 0 0 1 210.3 196L221.1 210.6A48.9 48.9 0 0 0 218.8 212.4Z");
}
}
@keyframes zr60-ani-25 {
0% {
d:path("M207.2 198.4A67 67 0 0 1 210.3 196L210.3 196A67 67 0 0 0 207.2 198.4Z");
}
100% {
d:path("M195.6 184.4A85.2 85.2 0 0 1 199.5 181.3L210.3 196A67 67 0 0 0 207.2 198.4Z");
}
}
@keyframes zr60-ani-26 {
0% {
d:path("M195.6 184.4A85.2 85.2 0 0 1 199.5 181.3L199.5 181.3A85.2 85.2 0 0 0 195.6 184.4Z");
}
100% {
d:path("M184 170.4A103.4 103.4 0 0 1 188.7 166.7L199.5 181.3A85.2 85.2 0 0 0 195.6 184.4Z");
}
}
@keyframes zr60-ani-27 {
0% {
d:path("M184 170.4A103.4 103.4 0 0 1 188.7 166.7L188.7 166.7A103.4 103.4 0 0 0 184 170.4Z");
}
100% {
d:path("M172.4 156.4A121.6 121.6 0 0 1 178 152L188.7 166.7A103.4 103.4 0 0 0 184 170.4Z");
}
}
@keyframes zr60-ani-28 {
0% {
d:path("M172.4 156.4A121.6 121.6 0 0 1 178 152L178 152A121.6 121.6 0 0 0 172.4 156.4Z");
}
100% {
d:path("M160.8 142.4A139.8 139.8 0 0 1 167.2 137.4L178 152A121.6 121.6 0 0 0 172.4 156.4Z");
}
}
@keyframes zr60-ani-29 {
0% {
d:path("M221.1 210.6A48.9 48.9 0 0 1 223.4 209L223.4 209A48.9 48.9 0 0 0 221.1 210.6Z");
}
100% {
d:path("M210.3 196A67 67 0 0 1 213.5 193.8L223.4 209A48.9 48.9 0 0 0 221.1 210.6Z");
}
}
@keyframes zr60-ani-30 {
0% {
d:path("M210.3 196A67 67 0 0 1 213.5 193.8L213.5 193.8A67 67 0 0 0 210.3 196Z");
}
100% {
d:path("M199.5 181.3A85.2 85.2 0 0 1 203.5 178.5L213.5 193.8A67 67 0 0 0 210.3 196Z");
}
}
@keyframes zr60-ani-31 {
0% {
d:path("M199.5 181.3A85.2 85.2 0 0 1 203.5 178.5L203.5 178.5A85.2 85.2 0 0 0 199.5 181.3Z");
}
100% {
d:path("M188.7 166.7A103.4 103.4 0 0 1 193.6 163.3L203.5 178.5A85.2 85.2 0 0 0 199.5 181.3Z");
}
}
@keyframes zr60-ani-32 {
0% {
d:path("M188.7 166.7A103.4 103.4 0 0 1 193.6 163.3L193.6 163.3A103.4 103.4 0 0 0 188.7 166.7Z");
}
100% {
d:path("M178 152A121.6 121.6 0 0 1 183.7 148.1L193.6 163.3A103.4 103.4 0 0 0 188.7 166.7Z");
}
}
@keyframes zr60-ani-33 {
0% {
d:path("M178 152A121.6 121.6 0 0 1 183.7 148.1L183.7 148.1A121.6 121.6 0 0 0 178 152Z");
}
100% {
d:path("M167.2 137.4A139.8 139.8 0 0 1 173.8 132.8L183.7 148.1A121.6 121.6 0 0 0 178 152Z");
}
}
@keyframes zr60-ani-34 {
0% {
d:path("M167.2 137.4A139.8 139.8 0 0 1 173.8 132.8L173.8 132.8A139.8 139.8 0 0 0 167.2 137.4Z");
}
100% {
d:path("M156.4 122.7A158 158 0 0 1 163.9 117.6L173.8 132.8A139.8 139.8 0 0 0 167.2 137.4Z");
}
}
@keyframes zr60-ani-35 {
0% {
d:path("M156.4 122.7A158 158 0 0 1 163.9 117.6L163.9 117.6A158 158 0 0 0 156.4 122.7Z");
}
100% {
d:path("M145.6 108.1A176.1 176.1 0 0 1 154 102.3L163.9 117.6A158 158 0 0 0 156.4 122.7Z");
}
}
@keyframes zr60-ani-36 {
0% {
d:path("M145.6 108.1A176.1 176.1 0 0 1 154 102.3L154 102.3A176.1 176.1 0 0 0 145.6 108.1Z");
}
100% {
d:path("M134.9 93.5A194.3 194.3 0 0 1 144.1 87.1L154 102.3A176.1 176.1 0 0 0 145.6 108.1Z");
}
}
@keyframes zr60-ani-37 {
0% {
d:path("M134.9 93.5A194.3 194.3 0 0 1 144.1 87.1L144.1 87.1A194.3 194.3 0 0 0 134.9 93.5Z");
}
100% {
d:path("M124.1 78.8A212.5 212.5 0 0 1 134.2 71.8L144.1 87.1A194.3 194.3 0 0 0 134.9 93.5Z");
}
}
@keyframes zr60-ani-38 {
0% {
d:path("M233.3 224.3A30.7 30.7 0 0 1 241.3 220.6L241.3 220.6A30.7 30.7 0 0 0 233.3 224.3Z");
}
100% {
d:path("M223.4 209A48.9 48.9 0 0 1 236.1 203.2L241.3 220.6A30.7 30.7 0 0 0 233.3 224.3Z");
}
}
@keyframes zr60-ani-39 {
0% {
d:path("M223.4 209A48.9 48.9 0 0 1 228.3 206.2L228.3 206.2A48.9 48.9 0 0 0 223.4 209Z");
}
100% {
d:path("M213.5 193.8A67 67 0 0 1 220.2 190L228.3 206.2A48.9 48.9 0 0 0 223.4 209Z");
}
}
@keyframes zr60-ani-40 {
0% {
d:path("M213.5 193.8A67 67 0 0 1 216.8 191.8L216.8 191.8A67 67 0 0 0 213.5 193.8Z");
}
100% {
d:path("M203.5 178.5A85.2 85.2 0 0 1 207.7 176L216.8 191.8A67 67 0 0 0 213.5 193.8Z");
}
}
@keyframes zr60-ani-41 {
0% {
d:path("M216.8 191.8A67 67 0 0 1 220.2 190L220.2 190A67 67 0 0 0 216.8 191.8Z");
}
100% {
d:path("M207.7 176A85.2 85.2 0 0 1 212.1 173.7L220.2 190A67 67 0 0 0 216.8 191.8Z");
}
}
@keyframes zr60-ani-42 {
0% {
d:path("M228.3 206.2A48.9 48.9 0 0 1 230.8 205.1L230.8 205.1A48.9 48.9 0 0 0 228.3 206.2Z");
}
100% {
d:path("M220.2 190A67 67 0 0 1 223.7 188.3L230.8 205.1A48.9 48.9 0 0 0 228.3 206.2Z");
}
}
@keyframes zr60-ani-43 {
0% {
d:path("M220.2 190A67 67 0 0 1 223.7 188.3L223.7 188.3A67 67 0 0 0 220.2 190Z");
}
100% {
d:path("M212.1 173.7A85.2 85.2 0 0 1 216.5 171.6L223.7 188.3A67 67 0 0 0 220.2 190Z");
}
}
@keyframes zr60-ani-44 {
0% {
d:path("M230.8 205.1A48.9 48.9 0 0 1 233.4 204L233.4 204A48.9 48.9 0 0 0 230.8 205.1Z");
}
100% {
d:path("M223.7 188.3A67 67 0 0 1 227.3 186.9L233.4 204A48.9 48.9 0 0 0 230.8 205.1Z");
}
}
@keyframes zr60-ani-45 {
0% {
d:path("M223.7 188.3A67 67 0 0 1 227.3 186.9L227.3 186.9A67 67 0 0 0 223.7 188.3Z");
}
100% {
d:path("M216.5 171.6A85.2 85.2 0 0 1 221.1 169.8L227.3 186.9A67 67 0 0 0 223.7 188.3Z");
}
}
@keyframes zr60-ani-46 {
0% {
d:path("M233.4 204A48.9 48.9 0 0 1 236.1 203.2L236.1 203.2A48.9 48.9 0 0 0 233.4 204Z");
}
100% {
d:path("M227.3 186.9A67 67 0 0 1 230.9 185.7L236.1 203.2A48.9 48.9 0 0 0 233.4 204Z");
}
}
@keyframes zr60-ani-47 {
0% {
d:path("M227.3 186.9A67 67 0 0 1 230.9 185.7L230.9 185.7A67 67 0 0 0 227.3 186.9Z");
}
100% {
d:path("M221.1 169.8A85.2 85.2 0 0 1 225.8 168.3L230.9 185.7A67 67 0 0 0 227.3 186.9Z");
}
}
@keyframes zr60-ani-48 {
0% {
d:path("M241.3 220.6A30.7 30.7 0 0 1 250 219.3L250 219.3A30.7 30.7 0 0 0 241.3 220.6Z");
}
100% {
d:path("M236.1 203.2A48.9 48.9 0 0 1 250 201.1L250 219.3A30.7 30.7 0 0 0 241.3 220.6Z");
}
}
@keyframes zr60-ani-49 {
0% {
d:path("M236.1 203.2A48.9 48.9 0 0 1 241.6 201.9L241.6 201.9A48.9 48.9 0 0 0 236.1 203.2Z");
}
100% {
d:path("M230.9 185.7A67 67 0 0 1 238.5 184L241.6 201.9A48.9 48.9 0 0 0 236.1 203.2Z");
}
}
@keyframes zr60-ani-50 {
0% {
d:path("M230.9 185.7A67 67 0 0 1 234.7 184.7L234.7 184.7A67 67 0 0 0 230.9 185.7Z");
}
100% {
d:path("M225.8 168.3A85.2 85.2 0 0 1 230.5 167L234.7 184.7A67 67 0 0 0 230.9 185.7Z");
}
}
@keyframes zr60-ani-51 {
0% {
d:path("M234.7 184.7A67 67 0 0 1 238.5 184L238.5 184A67 67 0 0 0 234.7 184.7Z");
}
100% {
d:path("M230.5 167A85.2 85.2 0 0 1 235.3 166L238.5 184A67 67 0 0 0 234.7 184.7Z");
}
}
@keyframes zr60-ani-52 {
0% {
d:path("M241.6 201.9A48.9 48.9 0 0 1 244.4 201.5L244.4 201.5A48.9 48.9 0 0 0 241.6 201.9Z");
}
100% {
d:path("M238.5 184A67 67 0 0 1 242.3 183.4L244.4 201.5A48.9 48.9 0 0 0 241.6 201.9Z");
}
}
@keyframes zr60-ani-53 {
0% {
d:path("M238.5 184A67 67 0 0 1 242.3 183.4L242.3 183.4A67 67 0 0 0 238.5 184Z");
}
100% {
d:path("M235.3 166A85.2 85.2 0 0 1 240.2 165.3L242.3 183.4A67 67 0 0 0 238.5 184Z");
}
}
@keyframes zr60-ani-54 {
0% {
d:path("M244.4 201.5A48.9 48.9 0 0 1 247.2 201.2L247.2 201.2A48.9 48.9 0 0 0 244.4 201.5Z");
}
100% {
d:path("M242.3 183.4A67 67 0 0 1 246.1 183.1L247.2 201.2A48.9 48.9 0 0 0 244.4 201.5Z");
}
}
@keyframes zr60-ani-55 {
0% {
d:path("M242.3 183.4A67 67 0 0 1 246.1 183.1L246.1 183.1A67 67 0 0 0 242.3 183.4Z");
}
100% {
d:path("M240.2 165.3A85.2 85.2 0 0 1 245.1 164.9L246.1 183.1A67 67 0 0 0 242.3 183.4Z");
}
}
@keyframes zr60-ani-56 {
0% {
d:path("M247.2 201.2A48.9 48.9 0 0 1 250 201.1L250 201.1A48.9 48.9 0 0 0 247.2 201.2Z");
}
100% {
d:path("M246.1 183.1A67 67 0 0 1 250 183L250 201.1A48.9 48.9 0 0 0 247.2 201.2Z");
}
}
@keyframes zr60-ani-57 {
0% {
d:path("M246.1 183.1A67 67 0 0 1 250 183L250 183A67 67 0 0 0 246.1 183.1Z");
}
100% {
d:path("M245.1 164.9A85.2 85.2 0 0 1 250 164.8L250 183A67 67 0 0 0 246.1 183.1Z");
}
}
]]>

</style>
</svg>