<svg width="500" height="500" xmlns="http://www.w3.org/2000/svg" xmlns:xlink="http://www.w3.org/1999/xlink" version="1.1" baseProfile="full" viewBox="0 0 500 500">
<rect width="500" height="500" x="0" y="0" id="0" fill="none"></rect>
<path d="M250 208.9A41.1 41.1 0 1 1 228.8 214.8L243.6 239.3A12.5 12.5 0 1 0 250 237.5Z" fill="#C8C8C8" stroke="white" stroke-linejoin="bevel" class="zr66-cls-0"></path>
<path d="M250 180.4A69.6 69.6 0 1 1 196.9 204.9L218.7 223.4A41.1 41.1 0 1 0 250 208.9Z" fill="#C8C8C8" stroke="white" stroke-linejoin="bevel" class="zr66-cls-1"></path>
<path d="M196.9 204.9A69.6 69.6 0 0 1 214.1 190.3L228.8 214.8A41.1 41.1 0 0 0 218.7 223.4Z" fill="#C8C8C8" stroke="white" stroke-linejoin="bevel" class="zr66-cls-2"></path>
<path d="M228.8 214.8A41.1 41.1 0 0 1 250 208.9L250 237.5A12.5 12.5 0 0 0 243.6 239.3Z" fill="#000" stroke="white" stroke-linejoin="bevel" class="zr66-cls-3"></path>
<path d="M214.1 190.3A69.6 69.6 0 0 1 250 180.4L250 208.9A41.1 41.1 0 0 0 228.8 214.8Z" fill="#4949CD" fill-opacity="0.5" stroke="#fff" stroke-width="4" stroke-opacity="0.5" stroke-linejoin="bevel" class="zr66-cls-4"></path>
<path d="M199.4 165.8A98.2 98.2 0 0 1 218.6 156.9L227.8 184A69.6 69.6 0 0 0 214.1 190.3Z" fill="#000" stroke="white" stroke-linejoin="bevel" class="zr66-cls-5"></path>
<path d="M184.6 141.4A126.8 126.8 0 0 1 196.8 134.9L208.8 160.9A98.2 98.2 0 0 0 199.4 165.8Z" fill="#000" stroke="white" stroke-linejoin="bevel" class="zr66-cls-6"></path>
<path d="M169.9 116.9A155.4 155.4 0 0 1 177.2 112.7L190.6 138A126.8 126.8 0 0 0 184.6 141.4Z" fill="#49ff49" fill-opacity="0.5" stroke="#fff" stroke-width="4" stroke-opacity="0.5" stroke-linejoin="bevel" class="zr66-cls-7"></path>
<path d="M155.2 92.4A183.9 183.9 0 0 1 163.8 87.5L177.2 112.7A155.4 155.4 0 0 0 169.9 116.9Z" fill="#000" stroke="white" stroke-linejoin="bevel" class="zr66-cls-8"></path>
<path d="M140.4 67.9A212.5 212.5 0 0 1 150.5 62.3L163.8 87.5A183.9 183.9 0 0 0 155.2 92.4Z" fill="#000" stroke="white" stroke-linejoin="bevel" class="zr66-cls-9"></path>
<path d="M177.2 112.7A155.4 155.4 0 0 1 184.8 109L196.8 134.9A126.8 126.8 0 0 0 190.6 138Z" fill="#ff4949" fill-opacity="0.5" stroke="#fff" stroke-width="4" stroke-opacity="0.5" stroke-linejoin="bevel" class="zr66-cls-10"></path>
<path d="M163.8 87.5A183.9 183.9 0 0 1 172.8 83.1L184.8 109A155.4 155.4 0 0 0 177.2 112.7Z" fill="#000" stroke="white" stroke-linejoin="bevel" class="zr66-cls-11"></path>
<path d="M150.5 62.3A212.5 212.5 0 0 1 160.8 57.1L172.8 83.1A183.9 183.9 0 0 0 163.8 87.5Z" fill="#000" stroke="white" stroke-linejoin="bevel" class="zr66-cls-12"></path>
<path d="M196.8 134.9A126.8 126.8 0 0 1 209.5 129.9L218.6 156.9A98.2 98.2 0 0 0 208.8 160.9Z" fill="#000" stroke="white" stroke-linejoin="bevel" class="zr66-cls-13"></path>
<path d="M184.8 109A155.4 155.4 0 0 1 200.4 102.8L209.5 129.9A126.8 126.8 0 0 0 196.8 134.9Z" fill="#4949CD" fill-opacity="0.5" stroke="#fff" stroke-width="4" stroke-opacity="0.5" stroke-linejoin="bevel" class="zr66-cls-14"></path>
<path d="M172.8 83.1A183.9 183.9 0 0 1 191.3 75.7L200.4 102.8A155.4 155.4 0 0 0 184.8 109Z" fill="#0AA40D" stroke="white" stroke-linejoin="bevel" class="zr66-cls-15"></path>
<path d="M160.8 57.1A212.5 212.5 0 0 1 182.1 48.6L191.3 75.7A183.9 183.9 0 0 0 172.8 83.1Z" fill="#C8C8C8" stroke="white" stroke-linejoin="bevel" class="zr66-cls-16"></path>
<path d="M218.6 156.9A98.2 98.2 0 0 1 228.9 154.1L235 182A69.6 69.6 0 0 0 227.8 184Z" fill="#000" stroke="white" stroke-linejoin="bevel" class="zr66-cls-17"></path>
<path d="M209.5 129.9A126.8 126.8 0 0 1 222.7 126.2L228.9 154.1A98.2 98.2 0 0 0 218.6 156.9Z" fill="#000" stroke="white" stroke-linejoin="bevel" class="zr66-cls-18"></path>
<path d="M200.4 102.8A155.4 155.4 0 0 1 208.4 100.3L216.1 127.8A126.8 126.8 0 0 0 209.5 129.9Z" fill="#49ff49" fill-opacity="0.5" stroke="#fff" stroke-width="4" stroke-opacity="0.5" stroke-linejoin="bevel" class="zr66-cls-19"></path>
<path d="M191.3 75.7A183.9 183.9 0 0 1 200.8 72.8L208.4 100.3A155.4 155.4 0 0 0 200.4 102.8Z" fill="#000" stroke="white" stroke-linejoin="bevel" class="zr66-cls-20"></path>
<path d="M182.1 48.6A212.5 212.5 0 0 1 193.2 45.2L200.8 72.8A183.9 183.9 0 0 0 191.3 75.7Z" fill="#000" stroke="white" stroke-linejoin="bevel" class="zr66-cls-21"></path>
<path d="M208.4 100.3A155.4 155.4 0 0 1 216.6 98.3L222.7 126.2A126.8 126.8 0 0 0 216.1 127.8Z" fill="#ff4949" fill-opacity="0.5" stroke="#fff" stroke-width="4" stroke-opacity="0.5" stroke-linejoin="bevel" class="zr66-cls-22"></path>
<path d="M200.8 72.8A183.9 183.9 0 0 1 210.5 70.4L216.6 98.3A155.4 155.4 0 0 0 208.4 100.3Z" fill="#000" stroke="white" stroke-linejoin="bevel" class="zr66-cls-23"></path>
<path d="M193.2 45.2A212.5 212.5 0 0 1 204.3 42.5L210.5 70.4A183.9 183.9 0 0 0 200.8 72.8Z" fill="#000" stroke="white" stroke-linejoin="bevel" class="zr66-cls-24"></path>
<path d="M228.9 154.1A98.2 98.2 0 0 1 239.4 152.4L242.5 180.8A69.6 69.6 0 0 0 235 182Z" fill="#000" stroke="white" stroke-linejoin="bevel" class="zr66-cls-25"></path>
<path d="M222.7 126.2A126.8 126.8 0 0 1 236.3 124L239.4 152.4A98.2 98.2 0 0 0 228.9 154.1Z" fill="#000" stroke="white" stroke-linejoin="bevel" class="zr66-cls-26"></path>
<path d="M216.6 98.3A155.4 155.4 0 0 1 224.9 96.7L229.5 124.9A126.8 126.8 0 0 0 222.7 126.2Z" fill="#49ff49" fill-opacity="0.5" stroke="#fff" stroke-width="4" stroke-opacity="0.5" stroke-linejoin="bevel" class="zr66-cls-27"></path>
<path d="M210.5 70.4A183.9 183.9 0 0 1 220.2 68.5L224.9 96.7A155.4 155.4 0 0 0 216.6 98.3Z" fill="#000" stroke="white" stroke-linejoin="bevel" class="zr66-cls-28"></path>
<path d="M204.3 42.5A212.5 212.5 0 0 1 215.6 40.3L220.2 68.5A183.9 183.9 0 0 0 210.5 70.4Z" fill="#000" stroke="white" stroke-linejoin="bevel" class="zr66-cls-29"></path>
<path d="M224.9 96.7A155.4 155.4 0 0 1 233.2 95.6L236.3 124A126.8 126.8 0 0 0 229.5 124.9Z" fill="#ff4949" fill-opacity="0.5" stroke="#fff" stroke-width="4" stroke-opacity="0.5" stroke-linejoin="bevel" class="zr66-cls-30"></path>
<path d="M220.2 68.5A183.9 183.9 0 0 1 230.1 67.1L233.2 95.6A155.4 155.4 0 0 0 224.9 96.7Z" fill="#000" stroke="white" stroke-linejoin="bevel" class="zr66-cls-31"></path>
<path d="M215.6 40.3A212.5 212.5 0 0 1 227 38.7L230.1 67.1A183.9 183.9 0 0 0 220.2 68.5Z" fill="#000" stroke="white" stroke-linejoin="bevel" class="zr66-cls-32"></path>
<path d="M239.4 152.4A98.2 98.2 0 0 1 250 151.8L250 180.4A69.6 69.6 0 0 0 242.5 180.8Z" fill="#000" stroke="white" stroke-linejoin="bevel" class="zr66-cls-33"></path>
<path d="M236.3 124A126.8 126.8 0 0 1 250 123.2L250 151.8A98.2 98.2 0 0 0 239.4 152.4Z" fill="#000" stroke="white" stroke-linejoin="bevel" class="zr66-cls-34"></path>
<path d="M233.2 95.6A155.4 155.4 0 0 1 241.6 94.9L243.1 123.4A126.8 126.8 0 0 0 236.3 124Z" fill="#49ff49" fill-opacity="0.5" stroke="#fff" stroke-width="4" stroke-opacity="0.5" stroke-linejoin="bevel" class="zr66-cls-35"></path>
<path d="M230.1 67.1A183.9 183.9 0 0 1 240 66.3L241.6 94.9A155.4 155.4 0 0 0 233.2 95.6Z" fill="#000" stroke="white" stroke-linejoin="bevel" class="zr66-cls-36"></path>
<path d="M227 38.7A212.5 212.5 0 0 1 238.5 37.8L240 66.3A183.9 183.9 0 0 0 230.1 67.1Z" fill="#000" stroke="white" stroke-linejoin="bevel" class="zr66-cls-37"></path>
<path d="M241.6 94.9A155.4 155.4 0 0 1 250 94.6L250 123.2A126.8 126.8 0 0 0 243.1 123.4Z" fill="#ff4949" fill-opacity="0.5" stroke="#fff" stroke-width="4" stroke-opacity="0.5" stroke-linejoin="bevel" class="zr66-cls-38"></path>
<path d="M240 66.3A183.9 183.9 0 0 1 250 66.1L250 94.6A155.4 155.4 0 0 0 241.6 94.9Z" fill="#000" stroke="white" stroke-linejoin="bevel" class="zr66-cls-39"></path>
<path d="M238.5 37.8A212.5 212.5 0 0 1 250 37.5L250 66.1A183.9 183.9 0 0 0 240 66.3Z" fill="#000" stroke="white" stroke-linejoin="bevel" class="zr66-cls-40"></path>
<text dominant-baseline="central" text-anchor="middle" style="font-size:12px;font-family:sans-serif;" transform="matrix(0.964,-0.268,0.268,0.964,257.1659,275.8094)" fill="#333">info</text>
<text dominant-baseline="central" text-anchor="middle" style="font-size:10px;font-family:sans-serif;" transform="matrix(0.908,-0.42,0.42,0.908,273.2439,300.2408)" fill="#333">version</text>
<text dominant-baseline="central" text-anchor="middle" style="font-size:9px;font-family:sans-serif;" transform="matrix(0.762,-0.647,0.647,0.762,214.1625,207.8089)" fill="#333">description</text>
<text dominant-baseline="central" text-anchor="middle" style="font-size:12px;font-family:sans-serif;" transform="matrix(0.964,-0.268,0.268,0.964,242.8341,224.1906)" fill="#ccc" stroke="#000" stroke-width="2" paint-order="stroke" stroke-miterlimit="2">paths</text>
<text dominant-baseline="central" text-anchor="middle" style="font-size:9px;font-family:sans-serif;" transform="matrix(0.908,-0.42,0.42,0.908,214.7593,173.8285)" fill="#ccc" stroke="#000" stroke-width="2" paint-order="stroke" stroke-miterlimit="2">/Assets/{id}</text>
<path d="M-14.8 -16l66.6 0l0 32l-66.6 0Z" transform="translate(448.253 16)" fill="none" stroke="#ccc" stroke-width="0"></path>
<path d="M-7.3 -1.8L-0.1 4.8L7.3 -1.6M-7.3 4.3L-7.3 8.5L7.1 8.5L7.1 4.3M-0.1 4.7L-0.1 -8.5" transform="translate(448.253 16)" fill="none" stroke="#666"></path>
<path d="M-7.9 1M5.1 -3.4L8.1 -3.4L8.1 -6.4M8 -3C6.7 -6.4 3.2 -8.9 -1 -8.4C-5.3 -8 -8.6 -4.2 -8.4 0.2M-5.1 3.4L-8.1 3.4L-8.1 6.4M-8 3C-6.7 6.4 -3.2 8.9 1 8.4C5.3 8 8.6 4.2 8.4 -0.2" transform="translate(484.0476 16)" fill="none" stroke="#666"></path>
<style ><![CDATA[
.zr66-cls-0 {
animation:zr66-ani-0 1s cubic-bezier(0.65,0,0.35,1) both;
}
.zr66-cls-1 {
animation:zr66-ani-1 1s cubic-bezier(0.65,0,0.35,1) both;
}
.zr66-cls-2 {
animation:zr66-ani-2 1s cubic-bezier(0.65,0,0.35,1) both;
}
.zr66-cls-3 {
animation:zr66-ani-3 1s cubic-bezier(0.65,0,0.35,1) both;
}
.zr66-cls-4 {
animation:zr66-ani-4 1s cubic-bezier(0.65,0,0.35,1) both;
}
.zr66-cls-5 {
animation:zr66-ani-5 1s cubic-bezier(0.65,0,0.35,1) both;
}
.zr66-cls-6 {
animation:zr66-ani-6 1s cubic-bezier(0.65,0,0.35,1) both;
}
.zr66-cls-7 {
animation:zr66-ani-7 1s cubic-bezier(0.65,0,0.35,1) both;
}
.zr66-cls-8 {
animation:zr66-ani-8 1s cubic-bezier(0.65,0,0.35,1) both;
}
.zr66-cls-9 {
animation:zr66-ani-9 1s cubic-bezier(0.65,0,0.35,1) both;
}
.zr66-cls-10 {
animation:zr66-ani-10 1s cubic-bezier(0.65,0,0.35,1) both;
}
.zr66-cls-11 {
animation:zr66-ani-11 1s cubic-bezier(0.65,0,0.35,1) both;
}
.zr66-cls-12 {
animation:zr66-ani-12 1s cubic-bezier(0.65,0,0.35,1) both;
}
.zr66-cls-13 {
animation:zr66-ani-13 1s cubic-bezier(0.65,0,0.35,1) both;
}
.zr66-cls-14 {
animation:zr66-ani-14 1s cubic-bezier(0.65,0,0.35,1) both;
}
.zr66-cls-15 {
animation:zr66-ani-15 1s cubic-bezier(0.65,0,0.35,1) both;
}
.zr66-cls-16 {
animation:zr66-ani-16 1s cubic-bezier(0.65,0,0.35,1) both;
}
.zr66-cls-17 {
animation:zr66-ani-17 1s cubic-bezier(0.65,0,0.35,1) both;
}
.zr66-cls-18 {
animation:zr66-ani-18 1s cubic-bezier(0.65,0,0.35,1) both;
}
.zr66-cls-19 {
animation:zr66-ani-19 1s cubic-bezier(0.65,0,0.35,1) both;
}
.zr66-cls-20 {
animation:zr66-ani-20 1s cubic-bezier(0.65,0,0.35,1) both;
}
.zr66-cls-21 {
animation:zr66-ani-21 1s cubic-bezier(0.65,0,0.35,1) both;
}
.zr66-cls-22 {
animation:zr66-ani-22 1s cubic-bezier(0.65,0,0.35,1) both;
}
.zr66-cls-23 {
animation:zr66-ani-23 1s cubic-bezier(0.65,0,0.35,1) both;
}
.zr66-cls-24 {
animation:zr66-ani-24 1s cubic-bezier(0.65,0,0.35,1) both;
}
.zr66-cls-25 {
animation:zr66-ani-25 1s cubic-bezier(0.65,0,0.35,1) both;
}
.zr66-cls-26 {
animation:zr66-ani-26 1s cubic-bezier(0.65,0,0.35,1) both;
}
.zr66-cls-27 {
animation:zr66-ani-27 1s cubic-bezier(0.65,0,0.35,1) both;
}
.zr66-cls-28 {
animation:zr66-ani-28 1s cubic-bezier(0.65,0,0.35,1) both;
}
.zr66-cls-29 {
animation:zr66-ani-29 1s cubic-bezier(0.65,0,0.35,1) both;
}
.zr66-cls-30 {
animation:zr66-ani-30 1s cubic-bezier(0.65,0,0.35,1) both;
}
.zr66-cls-31 {
animation:zr66-ani-31 1s cubic-bezier(0.65,0,0.35,1) both;
}
.zr66-cls-32 {
animation:zr66-ani-32 1s cubic-bezier(0.65,0,0.35,1) both;
}
.zr66-cls-33 {
animation:zr66-ani-33 1s cubic-bezier(0.65,0,0.35,1) both;
}
.zr66-cls-34 {
animation:zr66-ani-34 1s cubic-bezier(0.65,0,0.35,1) both;
}
.zr66-cls-35 {
animation:zr66-ani-35 1s cubic-bezier(0.65,0,0.35,1) both;
}
.zr66-cls-36 {
animation:zr66-ani-36 1s cubic-bezier(0.65,0,0.35,1) both;
}
.zr66-cls-37 {
animation:zr66-ani-37 1s cubic-bezier(0.65,0,0.35,1) both;
}
.zr66-cls-38 {
animation:zr66-ani-38 1s cubic-bezier(0.65,0,0.35,1) both;
}
.zr66-cls-39 {
animation:zr66-ani-39 1s cubic-bezier(0.65,0,0.35,1) both;
}
.zr66-cls-40 {
animation:zr66-ani-40 1s cubic-bezier(0.65,0,0.35,1) both;
}
@keyframes zr66-ani-0 {
0% {
d:path("M250 237.5A12.5 12.5 0 1 1 243.6 239.3A12.5 12.5 0 1 0 250 237.5Z");
}
100% {
d:path("M250 208.9A41.1 41.1 0 1 1 228.8 214.8L243.6 239.3A12.5 12.5 0 1 0 250 237.5Z");
}
}
@keyframes zr66-ani-1 {
0% {
d:path("M250 208.9A41.1 41.1 0 1 1 218.7 223.4L218.7 223.4A41.1 41.1 0 1 0 250 208.9Z");
}
100% {
d:path("M250 180.4A69.6 69.6 0 1 1 196.9 204.9L218.7 223.4A41.1 41.1 0 1 0 250 208.9Z");
}
}
@keyframes zr66-ani-2 {
0% {
d:path("M218.7 223.4A41.1 41.1 0 0 1 228.8 214.8L228.8 214.8A41.1 41.1 0 0 0 218.7 223.4Z");
}
100% {
d:path("M196.9 204.9A69.6 69.6 0 0 1 214.1 190.3L228.8 214.8A41.1 41.1 0 0 0 218.7 223.4Z");
}
}
@keyframes zr66-ani-3 {
0% {
d:path("M243.6 239.3A12.5 12.5 0 0 1 250 237.5L250 237.5A12.5 12.5 0 0 0 243.6 239.3Z");
}
100% {
d:path("M228.8 214.8A41.1 41.1 0 0 1 250 208.9L250 237.5A12.5 12.5 0 0 0 243.6 239.3Z");
}
}
@keyframes zr66-ani-4 {
0% {
d:path("M228.8 214.8A41.1 41.1 0 0 1 250 208.9L250 208.9A41.1 41.1 0 0 0 228.8 214.8Z");
}
100% {
d:path("M214.1 190.3A69.6 69.6 0 0 1 250 180.4L250 208.9A41.1 41.1 0 0 0 228.8 214.8Z");
}
}
@keyframes zr66-ani-5 {
0% {
d:path("M214.1 190.3A69.6 69.6 0 0 1 227.8 184L227.8 184A69.6 69.6 0 0 0 214.1 190.3Z");
}
100% {
d:path("M199.4 165.8A98.2 98.2 0 0 1 218.6 156.9L227.8 184A69.6 69.6 0 0 0 214.1 190.3Z");
}
}
@keyframes zr66-ani-6 {
0% {
d:path("M199.4 165.8A98.2 98.2 0 0 1 208.8 160.9L208.8 160.9A98.2 98.2 0 0 0 199.4 165.8Z");
}
100% {
d:path("M184.6 141.4A126.8 126.8 0 0 1 196.8 134.9L208.8 160.9A98.2 98.2 0 0 0 199.4 165.8Z");
}
}
@keyframes zr66-ani-7 {
0% {
d:path("M184.6 141.4A126.8 126.8 0 0 1 190.6 138L190.6 138A126.8 126.8 0 0 0 184.6 141.4Z");
}
100% {
d:path("M169.9 116.9A155.4 155.4 0 0 1 177.2 112.7L190.6 138A126.8 126.8 0 0 0 184.6 141.4Z");
}
}
@keyframes zr66-ani-8 {
0% {
d:path("M169.9 116.9A155.4 155.4 0 0 1 177.2 112.7L177.2 112.7A155.4 155.4 0 0 0 169.9 116.9Z");
}
100% {
d:path("M155.2 92.4A183.9 183.9 0 0 1 163.8 87.5L177.2 112.7A155.4 155.4 0 0 0 169.9 116.9Z");
}
}
@keyframes zr66-ani-9 {
0% {
d:path("M155.2 92.4A183.9 183.9 0 0 1 163.8 87.5L163.8 87.5A183.9 183.9 0 0 0 155.2 92.4Z");
}
100% {
d:path("M140.4 67.9A212.5 212.5 0 0 1 150.5 62.3L163.8 87.5A183.9 183.9 0 0 0 155.2 92.4Z");
}
}
@keyframes zr66-ani-10 {
0% {
d:path("M190.6 138A126.8 126.8 0 0 1 196.8 134.9L196.8 134.9A126.8 126.8 0 0 0 190.6 138Z");
}
100% {
d:path("M177.2 112.7A155.4 155.4 0 0 1 184.8 109L196.8 134.9A126.8 126.8 0 0 0 190.6 138Z");
}
}
@keyframes zr66-ani-11 {
0% {
d:path("M177.2 112.7A155.4 155.4 0 0 1 184.8 109L184.8 109A155.4 155.4 0 0 0 177.2 112.7Z");
}
100% {
d:path("M163.8 87.5A183.9 183.9 0 0 1 172.8 83.1L184.8 109A155.4 155.4 0 0 0 177.2 112.7Z");
}
}
@keyframes zr66-ani-12 {
0% {
d:path("M163.8 87.5A183.9 183.9 0 0 1 172.8 83.1L172.8 83.1A183.9 183.9 0 0 0 163.8 87.5Z");
}
100% {
d:path("M150.5 62.3A212.5 212.5 0 0 1 160.8 57.1L172.8 83.1A183.9 183.9 0 0 0 163.8 87.5Z");
}
}
@keyframes zr66-ani-13 {
0% {
d:path("M208.8 160.9A98.2 98.2 0 0 1 218.6 156.9L218.6 156.9A98.2 98.2 0 0 0 208.8 160.9Z");
}
100% {
d:path("M196.8 134.9A126.8 126.8 0 0 1 209.5 129.9L218.6 156.9A98.2 98.2 0 0 0 208.8 160.9Z");
}
}
@keyframes zr66-ani-14 {
0% {
d:path("M196.8 134.9A126.8 126.8 0 0 1 209.5 129.9L209.5 129.9A126.8 126.8 0 0 0 196.8 134.9Z");
}
100% {
d:path("M184.8 109A155.4 155.4 0 0 1 200.4 102.8L209.5 129.9A126.8 126.8 0 0 0 196.8 134.9Z");
}
}
@keyframes zr66-ani-15 {
0% {
d:path("M184.8 109A155.4 155.4 0 0 1 200.4 102.8L200.4 102.8A155.4 155.4 0 0 0 184.8 109Z");
}
100% {
d:path("M172.8 83.1A183.9 183.9 0 0 1 191.3 75.7L200.4 102.8A155.4 155.4 0 0 0 184.8 109Z");
}
}
@keyframes zr66-ani-16 {
0% {
d:path("M172.8 83.1A183.9 183.9 0 0 1 191.3 75.7L191.3 75.7A183.9 183.9 0 0 0 172.8 83.1Z");
}
100% {
d:path("M160.8 57.1A212.5 212.5 0 0 1 182.1 48.6L191.3 75.7A183.9 183.9 0 0 0 172.8 83.1Z");
}
}
@keyframes zr66-ani-17 {
0% {
d:path("M227.8 184A69.6 69.6 0 0 1 235 182L235 182A69.6 69.6 0 0 0 227.8 184Z");
}
100% {
d:path("M218.6 156.9A98.2 98.2 0 0 1 228.9 154.1L235 182A69.6 69.6 0 0 0 227.8 184Z");
}
}
@keyframes zr66-ani-18 {
0% {
d:path("M218.6 156.9A98.2 98.2 0 0 1 228.9 154.1L228.9 154.1A98.2 98.2 0 0 0 218.6 156.9Z");
}
100% {
d:path("M209.5 129.9A126.8 126.8 0 0 1 222.7 126.2L228.9 154.1A98.2 98.2 0 0 0 218.6 156.9Z");
}
}
@keyframes zr66-ani-19 {
0% {
d:path("M209.5 129.9A126.8 126.8 0 0 1 216.1 127.8L216.1 127.8A126.8 126.8 0 0 0 209.5 129.9Z");
}
100% {
d:path("M200.4 102.8A155.4 155.4 0 0 1 208.4 100.3L216.1 127.8A126.8 126.8 0 0 0 209.5 129.9Z");
}
}
@keyframes zr66-ani-20 {
0% {
d:path("M200.4 102.8A155.4 155.4 0 0 1 208.4 100.3L208.4 100.3A155.4 155.4 0 0 0 200.4 102.8Z");
}
100% {
d:path("M191.3 75.7A183.9 183.9 0 0 1 200.8 72.8L208.4 100.3A155.4 155.4 0 0 0 200.4 102.8Z");
}
}
@keyframes zr66-ani-21 {
0% {
d:path("M191.3 75.7A183.9 183.9 0 0 1 200.8 72.8L200.8 72.8A183.9 183.9 0 0 0 191.3 75.7Z");
}
100% {
d:path("M182.1 48.6A212.5 212.5 0 0 1 193.2 45.2L200.8 72.8A183.9 183.9 0 0 0 191.3 75.7Z");
}
}
@keyframes zr66-ani-22 {
0% {
d:path("M216.1 127.8A126.8 126.8 0 0 1 222.7 126.2L222.7 126.2A126.8 126.8 0 0 0 216.1 127.8Z");
}
100% {
d:path("M208.4 100.3A155.4 155.4 0 0 1 216.6 98.3L222.7 126.2A126.8 126.8 0 0 0 216.1 127.8Z");
}
}
@keyframes zr66-ani-23 {
0% {
d:path("M208.4 100.3A155.4 155.4 0 0 1 216.6 98.3L216.6 98.3A155.4 155.4 0 0 0 208.4 100.3Z");
}
100% {
d:path("M200.8 72.8A183.9 183.9 0 0 1 210.5 70.4L216.6 98.3A155.4 155.4 0 0 0 208.4 100.3Z");
}
}
@keyframes zr66-ani-24 {
0% {
d:path("M200.8 72.8A183.9 183.9 0 0 1 210.5 70.4L210.5 70.4A183.9 183.9 0 0 0 200.8 72.8Z");
}
100% {
d:path("M193.2 45.2A212.5 212.5 0 0 1 204.3 42.5L210.5 70.4A183.9 183.9 0 0 0 200.8 72.8Z");
}
}
@keyframes zr66-ani-25 {
0% {
d:path("M235 182A69.6 69.6 0 0 1 242.5 180.8L242.5 180.8A69.6 69.6 0 0 0 235 182Z");
}
100% {
d:path("M228.9 154.1A98.2 98.2 0 0 1 239.4 152.4L242.5 180.8A69.6 69.6 0 0 0 235 182Z");
}
}
@keyframes zr66-ani-26 {
0% {
d:path("M228.9 154.1A98.2 98.2 0 0 1 239.4 152.4L239.4 152.4A98.2 98.2 0 0 0 228.9 154.1Z");
}
100% {
d:path("M222.7 126.2A126.8 126.8 0 0 1 236.3 124L239.4 152.4A98.2 98.2 0 0 0 228.9 154.1Z");
}
}
@keyframes zr66-ani-27 {
0% {
d:path("M222.7 126.2A126.8 126.8 0 0 1 229.5 124.9L229.5 124.9A126.8 126.8 0 0 0 222.7 126.2Z");
}
100% {
d:path("M216.6 98.3A155.4 155.4 0 0 1 224.9 96.7L229.5 124.9A126.8 126.8 0 0 0 222.7 126.2Z");
}
}
@keyframes zr66-ani-28 {
0% {
d:path("M216.6 98.3A155.4 155.4 0 0 1 224.9 96.7L224.9 96.7A155.4 155.4 0 0 0 216.6 98.3Z");
}
100% {
d:path("M210.5 70.4A183.9 183.9 0 0 1 220.2 68.5L224.9 96.7A155.4 155.4 0 0 0 216.6 98.3Z");
}
}
@keyframes zr66-ani-29 {
0% {
d:path("M210.5 70.4A183.9 183.9 0 0 1 220.2 68.5L220.2 68.5A183.9 183.9 0 0 0 210.5 70.4Z");
}
100% {
d:path("M204.3 42.5A212.5 212.5 0 0 1 215.6 40.3L220.2 68.5A183.9 183.9 0 0 0 210.5 70.4Z");
}
}
@keyframes zr66-ani-30 {
0% {
d:path("M229.5 124.9A126.8 126.8 0 0 1 236.3 124L236.3 124A126.8 126.8 0 0 0 229.5 124.9Z");
}
100% {
d:path("M224.9 96.7A155.4 155.4 0 0 1 233.2 95.6L236.3 124A126.8 126.8 0 0 0 229.5 124.9Z");
}
}
@keyframes zr66-ani-31 {
0% {
d:path("M224.9 96.7A155.4 155.4 0 0 1 233.2 95.6L233.2 95.6A155.4 155.4 0 0 0 224.9 96.7Z");
}
100% {
d:path("M220.2 68.5A183.9 183.9 0 0 1 230.1 67.1L233.2 95.6A155.4 155.4 0 0 0 224.9 96.7Z");
}
}
@keyframes zr66-ani-32 {
0% {
d:path("M220.2 68.5A183.9 183.9 0 0 1 230.1 67.1L230.1 67.1A183.9 183.9 0 0 0 220.2 68.5Z");
}
100% {
d:path("M215.6 40.3A212.5 212.5 0 0 1 227 38.7L230.1 67.1A183.9 183.9 0 0 0 220.2 68.5Z");
}
}
@keyframes zr66-ani-33 {
0% {
d:path("M242.5 180.8A69.6 69.6 0 0 1 250 180.4L250 180.4A69.6 69.6 0 0 0 242.5 180.8Z");
}
100% {
d:path("M239.4 152.4A98.2 98.2 0 0 1 250 151.8L250 180.4A69.6 69.6 0 0 0 242.5 180.8Z");
}
}
@keyframes zr66-ani-34 {
0% {
d:path("M239.4 152.4A98.2 98.2 0 0 1 250 151.8L250 151.8A98.2 98.2 0 0 0 239.4 152.4Z");
}
100% {
d:path("M236.3 124A126.8 126.8 0 0 1 250 123.2L250 151.8A98.2 98.2 0 0 0 239.4 152.4Z");
}
}
@keyframes zr66-ani-35 {
0% {
d:path("M236.3 124A126.8 126.8 0 0 1 243.1 123.4L243.1 123.4A126.8 126.8 0 0 0 236.3 124Z");
}
100% {
d:path("M233.2 95.6A155.4 155.4 0 0 1 241.6 94.9L243.1 123.4A126.8 126.8 0 0 0 236.3 124Z");
}
}
@keyframes zr66-ani-36 {
0% {
d:path("M233.2 95.6A155.4 155.4 0 0 1 241.6 94.9L241.6 94.9A155.4 155.4 0 0 0 233.2 95.6Z");
}
100% {
d:path("M230.1 67.1A183.9 183.9 0 0 1 240 66.3L241.6 94.9A155.4 155.4 0 0 0 233.2 95.6Z");
}
}
@keyframes zr66-ani-37 {
0% {
d:path("M230.1 67.1A183.9 183.9 0 0 1 240 66.3L240 66.3A183.9 183.9 0 0 0 230.1 67.1Z");
}
100% {
d:path("M227 38.7A212.5 212.5 0 0 1 238.5 37.8L240 66.3A183.9 183.9 0 0 0 230.1 67.1Z");
}
}
@keyframes zr66-ani-38 {
0% {
d:path("M243.1 123.4A126.8 126.8 0 0 1 250 123.2L250 123.2A126.8 126.8 0 0 0 243.1 123.4Z");
}
100% {
d:path("M241.6 94.9A155.4 155.4 0 0 1 250 94.6L250 123.2A126.8 126.8 0 0 0 243.1 123.4Z");
}
}
@keyframes zr66-ani-39 {
0% {
d:path("M241.6 94.9A155.4 155.4 0 0 1 250 94.6L250 94.6A155.4 155.4 0 0 0 241.6 94.9Z");
}
100% {
d:path("M240 66.3A183.9 183.9 0 0 1 250 66.1L250 94.6A155.4 155.4 0 0 0 241.6 94.9Z");
}
}
@keyframes zr66-ani-40 {
0% {
d:path("M240 66.3A183.9 183.9 0 0 1 250 66.1L250 66.1A183.9 183.9 0 0 0 240 66.3Z");
}
100% {
d:path("M238.5 37.8A212.5 212.5 0 0 1 250 37.5L250 66.1A183.9 183.9 0 0 0 240 66.3Z");
}
}
]]>

</style>
</svg>