<svg width="500" height="500" xmlns="http://www.w3.org/2000/svg" xmlns:xlink="http://www.w3.org/1999/xlink" version="1.1" baseProfile="full" viewBox="0 0 500 500">
<rect width="500" height="500" x="0" y="0" id="0" fill="none"></rect>
<path d="M250 229.2A20.8 20.8 0 1 1 238.1 232.9L242.8 239.7A12.5 12.5 0 1 0 250 237.5Z" fill="#C8C8C8" stroke="white" stroke-linejoin="bevel" class="zr38-cls-0"></path>
<path d="M250 220.8A29.2 29.2 0 1 1 229.1 229.7L235.1 235.5A20.8 20.8 0 1 0 250 229.2Z" fill="#C8C8C8" stroke="white" stroke-linejoin="bevel" class="zr38-cls-1"></path>
<path d="M229.1 229.7A29.2 29.2 0 0 1 233.3 226.1L238.1 232.9A20.8 20.8 0 0 0 235.1 235.5Z" fill="#C8C8C8" stroke="white" stroke-linejoin="bevel" class="zr38-cls-2"></path>
<path d="M238.1 232.9A20.8 20.8 0 0 1 250 229.2L250 237.5A12.5 12.5 0 0 0 242.8 239.7Z" fill="#000" stroke="white" stroke-linejoin="bevel" class="zr38-cls-3"></path>
<path d="M233.3 226.1A29.2 29.2 0 0 1 247.8 220.9L248.4 229.2A20.8 20.8 0 0 0 238.1 232.9Z" fill="#4949CD" fill-opacity="0.5" stroke="#fff" stroke-width="4" stroke-opacity="0.5" stroke-linejoin="bevel" class="zr38-cls-4"></path>
<path d="M228.5 219.2A37.5 37.5 0 0 1 238.8 214.2L241.3 222.2A29.2 29.2 0 0 0 233.3 226.1Z" fill="#000" stroke="white" stroke-linejoin="bevel" class="zr38-cls-5"></path>
<path d="M223.8 212.4A45.8 45.8 0 0 1 236.3 206.3L238.8 214.2A37.5 37.5 0 0 0 228.5 219.2Z" fill="#000" stroke="white" stroke-linejoin="bevel" class="zr38-cls-6"></path>
<path d="M219 205.6A54.2 54.2 0 0 1 233.8 198.3L236.3 206.3A45.8 45.8 0 0 0 223.8 212.4Z" fill="#4949CD" fill-opacity="0.5" stroke="#fff" stroke-width="4" stroke-opacity="0.5" stroke-linejoin="bevel" class="zr38-cls-7"></path>
<path d="M214.2 198.7A62.5 62.5 0 0 1 231.3 190.4L233.8 198.3A54.2 54.2 0 0 0 219 205.6Z" fill="#0AA40D" stroke="white" stroke-linejoin="bevel" class="zr38-cls-8"></path>
<path d="M209.5 191.9A70.8 70.8 0 0 1 221.2 185.3L224.6 192.9A62.5 62.5 0 0 0 214.2 198.7Z" fill="#000" stroke="white" stroke-linejoin="bevel" class="zr38-cls-9"></path>
<path d="M204.7 185.1A79.2 79.2 0 0 1 217.8 177.7L221.2 185.3A70.8 70.8 0 0 0 209.5 191.9Z" fill="#4949CD" fill-opacity="0.5" stroke="#fff" stroke-width="4" stroke-opacity="0.5" stroke-linejoin="bevel" class="zr38-cls-10"></path>
<path d="M199.9 178.2A87.5 87.5 0 0 1 214.4 170.1L217.8 177.7A79.2 79.2 0 0 0 204.7 185.1Z" fill="#000" stroke="white" stroke-linejoin="bevel" class="zr38-cls-11"></path>
<path d="M195.2 171.4A95.8 95.8 0 0 1 211 162.5L214.4 170.1A87.5 87.5 0 0 0 199.9 178.2Z" fill="#000" stroke="white" stroke-linejoin="bevel" class="zr38-cls-12"></path>
<path d="M190.4 164.6A104.2 104.2 0 0 1 207.6 154.8L211 162.5A95.8 95.8 0 0 0 195.2 171.4Z" fill="#4949CD" fill-opacity="0.5" stroke="#fff" stroke-width="4" stroke-opacity="0.5" stroke-linejoin="bevel" class="zr38-cls-13"></path>
<path d="M185.6 157.7A112.5 112.5 0 0 1 204.2 147.2L207.6 154.8A104.2 104.2 0 0 0 190.4 164.6Z" fill="#000" stroke="white" stroke-linejoin="bevel" class="zr38-cls-14"></path>
<path d="M180.8 150.9A120.8 120.8 0 0 1 200.9 139.6L204.2 147.2A112.5 112.5 0 0 0 185.6 157.7Z" fill="#A0522D" stroke="white" stroke-linejoin="bevel" class="zr38-cls-15"></path>
<path d="M176.1 144.1A129.2 129.2 0 0 1 197.5 132L200.9 139.6A120.8 120.8 0 0 0 180.8 150.9Z" fill="#A0522D" stroke="white" stroke-linejoin="bevel" class="zr38-cls-16"></path>
<path d="M171.3 137.2A137.5 137.5 0 0 1 194.1 124.4L197.5 132A129.2 129.2 0 0 0 176.1 144.1Z" fill="#4949CD" fill-opacity="0.5" stroke="#fff" stroke-width="4" stroke-opacity="0.5" stroke-linejoin="bevel" class="zr38-cls-17"></path>
<path d="M166.5 130.4A145.8 145.8 0 0 1 190.7 116.8L194.1 124.4A137.5 137.5 0 0 0 171.3 137.2Z" fill="#A0522D" stroke="white" stroke-linejoin="bevel" class="zr38-cls-18"></path>
<path d="M161.8 123.6A154.2 154.2 0 0 1 187.3 109.2L190.7 116.8A145.8 145.8 0 0 0 166.5 130.4Z" fill="#A0522D" stroke="white" stroke-linejoin="bevel" class="zr38-cls-19"></path>
<path d="M157 116.7A162.5 162.5 0 0 1 183.9 101.5L187.3 109.2A154.2 154.2 0 0 0 161.8 123.6Z" fill="#A0522D" stroke="white" stroke-linejoin="bevel" class="zr38-cls-20"></path>
<path d="M152.2 109.9A170.8 170.8 0 0 1 163.2 102.9L167.4 110.1A162.5 162.5 0 0 0 157 116.7Z" fill="#49ff49" fill-opacity="0.5" stroke="#fff" stroke-width="4" stroke-opacity="0.5" stroke-linejoin="bevel" class="zr38-cls-21"></path>
<path d="M147.5 103.1A179.2 179.2 0 0 1 153.1 99.3L157.6 106.3A170.8 170.8 0 0 0 152.2 109.9Z" fill="#A0522D" stroke="white" stroke-linejoin="bevel" class="zr38-cls-22"></path>
<path d="M153.1 99.3A179.2 179.2 0 0 1 158.9 95.7L163.2 102.9A170.8 170.8 0 0 0 157.6 106.3Z" fill="#A0522D" stroke="white" stroke-linejoin="bevel" class="zr38-cls-23"></path>
<path d="M163.2 102.9A170.8 170.8 0 0 1 174.6 96.7L178.3 104.2A162.5 162.5 0 0 0 167.4 110.1Z" fill="#4949CD" fill-opacity="0.5" stroke="#fff" stroke-width="4" stroke-opacity="0.5" stroke-linejoin="bevel" class="zr38-cls-24"></path>
<path d="M158.9 95.7A179.2 179.2 0 0 1 164.9 92.3L168.8 99.7A170.8 170.8 0 0 0 163.2 102.9Z" fill="#A0522D" stroke="white" stroke-linejoin="bevel" class="zr38-cls-25"></path>
<path d="M154.7 88.5A187.5 187.5 0 0 1 160.9 85L164.9 92.3A179.2 179.2 0 0 0 158.9 95.7Z" fill="#A0522D" stroke="white" stroke-linejoin="bevel" class="zr38-cls-26"></path>
<path d="M150.5 81.3A195.8 195.8 0 0 1 157 77.7L160.9 85A187.5 187.5 0 0 0 154.7 88.5Z" fill="#A0522D" stroke="white" stroke-linejoin="bevel" class="zr38-cls-27"></path>
<path d="M146.2 74.2A204.2 204.2 0 0 1 153 70.3L157 77.7A195.8 195.8 0 0 0 150.5 81.3Z" fill="#ff4949" fill-opacity="0.5" stroke="#fff" stroke-width="4" stroke-opacity="0.5" stroke-linejoin="bevel" class="zr38-cls-28"></path>
<path d="M142 67A212.5 212.5 0 0 1 149 63L153 70.3A204.2 204.2 0 0 0 146.2 74.2Z" fill="#A0522D" stroke="white" stroke-linejoin="bevel" class="zr38-cls-29"></path>
<path d="M164.9 92.3A179.2 179.2 0 0 1 170.9 89.2L174.6 96.7A170.8 170.8 0 0 0 168.8 99.7Z" fill="#A0522D" stroke="white" stroke-linejoin="bevel" class="zr38-cls-30"></path>
<path d="M160.9 85A187.5 187.5 0 0 1 167.3 81.7L170.9 89.2A179.2 179.2 0 0 0 164.9 92.3Z" fill="#C8C8C8" stroke="white" stroke-linejoin="bevel" class="zr38-cls-31"></path>
<path d="M174.6 96.7A170.8 170.8 0 0 1 180.5 93.9L183.9 101.5A162.5 162.5 0 0 0 178.3 104.2Z" fill="#ff4949" fill-opacity="0.5" stroke="#fff" stroke-width="4" stroke-opacity="0.5" stroke-linejoin="bevel" class="zr38-cls-32"></path>
<path d="M170.9 89.2A179.2 179.2 0 0 1 177.1 86.3L180.5 93.9A170.8 170.8 0 0 0 174.6 96.7Z" fill="#A0522D" stroke="white" stroke-linejoin="bevel" class="zr38-cls-33"></path>
<path d="M221.2 185.3A70.8 70.8 0 0 1 228.8 182.4L231.3 190.4A62.5 62.5 0 0 0 224.6 192.9Z" fill="#000" stroke="white" stroke-linejoin="bevel" class="zr38-cls-34"></path>
<path d="M217.8 177.7A79.2 79.2 0 0 1 223.4 175.4L226.2 183.3A70.8 70.8 0 0 0 221.2 185.3Z" fill="#4949CD" fill-opacity="0.5" stroke="#fff" stroke-width="4" stroke-opacity="0.5" stroke-linejoin="bevel" class="zr38-cls-35"></path>
<path d="M214.4 170.1A87.5 87.5 0 0 1 220.6 167.6L223.4 175.4A79.2 79.2 0 0 0 217.8 177.7Z" fill="#000" stroke="white" stroke-linejoin="bevel" class="zr38-cls-36"></path>
<path d="M211 162.5A95.8 95.8 0 0 1 217.8 159.7L220.6 167.6A87.5 87.5 0 0 0 214.4 170.1Z" fill="#000" stroke="white" stroke-linejoin="bevel" class="zr38-cls-37"></path>
<path d="M207.6 154.8A104.2 104.2 0 0 1 215 151.9L217.8 159.7A95.8 95.8 0 0 0 211 162.5Z" fill="#A0522D" stroke="white" stroke-linejoin="bevel" class="zr38-cls-38"></path>
<path d="M204.2 147.2A112.5 112.5 0 0 1 212.2 144L215 151.9A104.2 104.2 0 0 0 207.6 154.8Z" fill="#A0522D" stroke="white" stroke-linejoin="bevel" class="zr38-cls-39"></path>
<path d="M200.9 139.6A120.8 120.8 0 0 1 205.1 137.8L208.2 145.6A112.5 112.5 0 0 0 204.2 147.2Z" fill="#49ff49" fill-opacity="0.5" stroke="#fff" stroke-width="4" stroke-opacity="0.5" stroke-linejoin="bevel" class="zr38-cls-40"></path>
<path d="M197.5 132A129.2 129.2 0 0 1 202 130.1L205.1 137.8A120.8 120.8 0 0 0 200.9 139.6Z" fill="#A0522D" stroke="white" stroke-linejoin="bevel" class="zr38-cls-41"></path>
<path d="M205.1 137.8A120.8 120.8 0 0 1 209.4 136.2L212.2 144A112.5 112.5 0 0 0 208.2 145.6Z" fill="#ff4949" fill-opacity="0.5" stroke="#fff" stroke-width="4" stroke-opacity="0.5" stroke-linejoin="bevel" class="zr38-cls-42"></path>
<path d="M202 130.1A129.2 129.2 0 0 1 206.6 128.3L209.4 136.2A120.8 120.8 0 0 0 205.1 137.8Z" fill="#A0522D" stroke="white" stroke-linejoin="bevel" class="zr38-cls-43"></path>
<path d="M223.4 175.4A79.2 79.2 0 0 1 226.3 174.5L228.8 182.4A70.8 70.8 0 0 0 226.2 183.3Z" fill="#49ff49" fill-opacity="0.5" stroke="#fff" stroke-width="4" stroke-opacity="0.5" stroke-linejoin="bevel" class="zr38-cls-44"></path>
<path d="M220.6 167.6A87.5 87.5 0 0 1 223.8 166.5L226.3 174.5A79.2 79.2 0 0 0 223.4 175.4Z" fill="#000" stroke="white" stroke-linejoin="bevel" class="zr38-cls-45"></path>
<path d="M217.8 159.7A95.8 95.8 0 0 1 221.3 158.6L223.8 166.5A87.5 87.5 0 0 0 220.6 167.6Z" fill="#000" stroke="white" stroke-linejoin="bevel" class="zr38-cls-46"></path>
<path d="M238.8 214.2A37.5 37.5 0 0 1 242.9 213.2L244.5 221.4A29.2 29.2 0 0 0 241.3 222.2Z" fill="#000" stroke="white" stroke-linejoin="bevel" class="zr38-cls-47"></path>
<path d="M236.3 206.3A45.8 45.8 0 0 1 241.3 205L242.9 213.2A37.5 37.5 0 0 0 238.8 214.2Z" fill="#000" stroke="white" stroke-linejoin="bevel" class="zr38-cls-48"></path>
<path d="M233.8 198.3A54.2 54.2 0 0 1 239.7 196.8L241.3 205A45.8 45.8 0 0 0 236.3 206.3Z" fill="#4949CD" fill-opacity="0.5" stroke="#fff" stroke-width="4" stroke-opacity="0.5" stroke-linejoin="bevel" class="zr38-cls-49"></path>
<path d="M231.3 190.4A62.5 62.5 0 0 1 238.2 188.6L239.7 196.8A54.2 54.2 0 0 0 233.8 198.3Z" fill="#d6c9d4" stroke="white" stroke-linejoin="bevel" class="zr38-cls-50"></path>
<path d="M228.8 182.4A70.8 70.8 0 0 1 236.6 180.4L238.2 188.6A62.5 62.5 0 0 0 231.3 190.4Z" fill="#000" stroke="white" stroke-linejoin="bevel" class="zr38-cls-51"></path>
<path d="M226.3 174.5A79.2 79.2 0 0 1 235 172.3L236.6 180.4A70.8 70.8 0 0 0 228.8 182.4Z" fill="#000" stroke="white" stroke-linejoin="bevel" class="zr38-cls-52"></path>
<path d="M223.8 166.5A87.5 87.5 0 0 1 233.4 164.1L235 172.3A79.2 79.2 0 0 0 226.3 174.5Z" fill="#4949CD" fill-opacity="0.5" stroke="#fff" stroke-width="4" stroke-opacity="0.5" stroke-linejoin="bevel" class="zr38-cls-53"></path>
<path d="M221.3 158.6A95.8 95.8 0 0 1 231.9 155.9L233.4 164.1A87.5 87.5 0 0 0 223.8 166.5Z" fill="#000" stroke="white" stroke-linejoin="bevel" class="zr38-cls-54"></path>
<path d="M218.8 150.6A104.2 104.2 0 0 1 230.3 147.7L231.9 155.9A95.8 95.8 0 0 0 221.3 158.6Z" fill="#A0522D" stroke="white" stroke-linejoin="bevel" class="zr38-cls-55"></path>
<path d="M216.3 142.7A112.5 112.5 0 0 1 228.7 139.5L230.3 147.7A104.2 104.2 0 0 0 218.8 150.6Z" fill="#A0522D" stroke="white" stroke-linejoin="bevel" class="zr38-cls-56"></path>
<path d="M213.8 134.7A120.8 120.8 0 0 1 227.1 131.4L228.7 139.5A112.5 112.5 0 0 0 216.3 142.7Z" fill="#A0522D" stroke="white" stroke-linejoin="bevel" class="zr38-cls-57"></path>
<path d="M211.3 126.8A129.2 129.2 0 0 1 225.6 123.2L227.1 131.4A120.8 120.8 0 0 0 213.8 134.7Z" fill="#ff4949" fill-opacity="0.5" stroke="#fff" stroke-width="4" stroke-opacity="0.5" stroke-linejoin="bevel" class="zr38-cls-58"></path>
<path d="M208.8 118.8A137.5 137.5 0 0 1 213.8 117.4L216 125.4A129.2 129.2 0 0 0 211.3 126.8Z" fill="#A0522D" stroke="white" stroke-linejoin="bevel" class="zr38-cls-59"></path>
<path d="M213.8 117.4A137.5 137.5 0 0 1 218.9 116.1L220.7 124.2A129.2 129.2 0 0 0 216 125.4Z" fill="#A0522D" stroke="white" stroke-linejoin="bevel" class="zr38-cls-60"></path>
<path d="M218.9 116.1A137.5 137.5 0 0 1 224 115L225.6 123.2A129.2 129.2 0 0 0 220.7 124.2Z" fill="#A0522D" stroke="white" stroke-linejoin="bevel" class="zr38-cls-61"></path>
<path d="M242.9 213.2A37.5 37.5 0 0 1 245.7 212.7L246.7 221A29.2 29.2 0 0 0 244.5 221.4Z" fill="#000" stroke="white" stroke-linejoin="bevel" class="zr38-cls-62"></path>
<path d="M241.3 205A45.8 45.8 0 0 1 244.8 204.5L245.7 212.7A37.5 37.5 0 0 0 242.9 213.2Z" fill="#000" stroke="white" stroke-linejoin="bevel" class="zr38-cls-63"></path>
<path d="M239.7 196.8A54.2 54.2 0 0 1 243.8 196.2L244.8 204.5A45.8 45.8 0 0 0 241.3 205Z" fill="#4949CD" fill-opacity="0.5" stroke="#fff" stroke-width="4" stroke-opacity="0.5" stroke-linejoin="bevel" class="zr38-cls-64"></path>
<path d="M238.2 188.6A62.5 62.5 0 0 1 242.9 187.9L243.8 196.2A54.2 54.2 0 0 0 239.7 196.8Z" fill="#F3C142" stroke="white" stroke-linejoin="bevel" class="zr38-cls-65"></path>
<path d="M236.6 180.4A70.8 70.8 0 0 1 241.9 179.6L242.9 187.9A62.5 62.5 0 0 0 238.2 188.6Z" fill="#000" stroke="white" stroke-linejoin="bevel" class="zr38-cls-66"></path>
<path d="M235 172.3A79.2 79.2 0 0 1 241 171.3L241.9 179.6A70.8 70.8 0 0 0 236.6 180.4Z" fill="#4949CD" fill-opacity="0.5" stroke="#fff" stroke-width="4" stroke-opacity="0.5" stroke-linejoin="bevel" class="zr38-cls-67"></path>
<path d="M233.4 164.1A87.5 87.5 0 0 1 240 163.1L241 171.3A79.2 79.2 0 0 0 235 172.3Z" fill="#000" stroke="white" stroke-linejoin="bevel" class="zr38-cls-68"></path>
<path d="M231.9 155.9A95.8 95.8 0 0 1 239.1 154.8L240 163.1A87.5 87.5 0 0 0 233.4 164.1Z" fill="#000" stroke="white" stroke-linejoin="bevel" class="zr38-cls-69"></path>
<path d="M230.3 147.7A104.2 104.2 0 0 1 238.1 146.5L239.1 154.8A95.8 95.8 0 0 0 231.9 155.9Z" fill="#4949CD" fill-opacity="0.5" stroke="#fff" stroke-width="4" stroke-opacity="0.5" stroke-linejoin="bevel" class="zr38-cls-70"></path>
<path d="M228.7 139.5A112.5 112.5 0 0 1 237.2 138.2L238.1 146.5A104.2 104.2 0 0 0 230.3 147.7Z" fill="#000" stroke="white" stroke-linejoin="bevel" class="zr38-cls-71"></path>
<path d="M227.1 131.4A120.8 120.8 0 0 1 236.2 130L237.2 138.2A112.5 112.5 0 0 0 228.7 139.5Z" fill="#A0522D" stroke="white" stroke-linejoin="bevel" class="zr38-cls-72"></path>
<path d="M225.6 123.2A129.2 129.2 0 0 1 235.3 121.7L236.2 130A120.8 120.8 0 0 0 227.1 131.4Z" fill="#A0522D" stroke="white" stroke-linejoin="bevel" class="zr38-cls-73"></path>
<path d="M224 115A137.5 137.5 0 0 1 229.1 114.1L230.4 122.3A129.2 129.2 0 0 0 225.6 123.2Z" fill="#49ff49" fill-opacity="0.5" stroke="#fff" stroke-width="4" stroke-opacity="0.5" stroke-linejoin="bevel" class="zr38-cls-74"></path>
<path d="M222.4 106.8A145.8 145.8 0 0 1 227.9 105.9L229.1 114.1A137.5 137.5 0 0 0 224 115Z" fill="#A0522D" stroke="white" stroke-linejoin="bevel" class="zr38-cls-75"></path>
<path d="M229.1 114.1A137.5 137.5 0 0 1 234.3 113.4L235.3 121.7A129.2 129.2 0 0 0 230.4 122.3Z" fill="#ff4949" fill-opacity="0.5" stroke="#fff" stroke-width="4" stroke-opacity="0.5" stroke-linejoin="bevel" class="zr38-cls-76"></path>
<path d="M227.9 105.9A145.8 145.8 0 0 1 233.4 105.1L234.3 113.4A137.5 137.5 0 0 0 229.1 114.1Z" fill="#A0522D" stroke="white" stroke-linejoin="bevel" class="zr38-cls-77"></path>
<path d="M245.7 212.7A37.5 37.5 0 0 1 247.1 212.6L247.8 220.9A29.2 29.2 0 0 0 246.7 221Z" fill="#000" stroke="white" stroke-linejoin="bevel" class="zr38-cls-78"></path>
<path d="M244.8 204.5A45.8 45.8 0 0 1 246.5 204.3L247.1 212.6A37.5 37.5 0 0 0 245.7 212.7Z" fill="#000" stroke="white" stroke-linejoin="bevel" class="zr38-cls-79"></path>
<path d="M243.8 196.2A54.2 54.2 0 0 1 245.9 196L246.5 204.3A45.8 45.8 0 0 0 244.8 204.5Z" fill="#49ff49" fill-opacity="0.5" stroke="#fff" stroke-width="4" stroke-opacity="0.5" stroke-linejoin="bevel" class="zr38-cls-80"></path>
<path d="M242.9 187.9A62.5 62.5 0 0 1 245.2 187.7L245.9 196A54.2 54.2 0 0 0 243.8 196.2Z" fill="#0AA40D" stroke="white" stroke-linejoin="bevel" class="zr38-cls-81"></path>
<path d="M247.8 220.9A29.2 29.2 0 0 1 250 220.8L250 229.2A20.8 20.8 0 0 0 248.4 229.2Z" fill="#49ff49" fill-opacity="0.5" stroke="#fff" stroke-width="4" stroke-opacity="0.5" stroke-linejoin="bevel" class="zr38-cls-82"></path>
<path d="M247.1 212.6A37.5 37.5 0 0 1 248.6 212.5L248.9 220.9A29.2 29.2 0 0 0 247.8 220.9Z" fill="#000" stroke="white" stroke-linejoin="bevel" class="zr38-cls-83"></path>
<path d="M246.5 204.3A45.8 45.8 0 0 1 248.3 204.2L248.6 212.5A37.5 37.5 0 0 0 247.1 212.6Z" fill="#F3C142" stroke="white" stroke-linejoin="bevel" class="zr38-cls-84"></path>
<path d="M248.6 212.5A37.5 37.5 0 0 1 250 212.5L250 220.8A29.2 29.2 0 0 0 248.9 220.9Z" fill="#000" stroke="white" stroke-linejoin="bevel" class="zr38-cls-85"></path>
<path d="M248.3 204.2A45.8 45.8 0 0 1 250 204.2L250 212.5A37.5 37.5 0 0 0 248.6 212.5Z" fill="#0AA40D" stroke="white" stroke-linejoin="bevel" class="zr38-cls-86"></path>
<text dominant-baseline="central" text-anchor="middle" style="font-size:10px;font-family:sans-serif;" transform="matrix(0.921,-0.389,0.389,0.921,259.7318,273.0281)" fill="#333">version</text>
<text dominant-baseline="central" text-anchor="middle" style="font-size:12px;font-family:sans-serif;" transform="matrix(0.954,-0.3,0.3,0.954,245.0008,234.1007)" fill="#ccc" stroke="#000" stroke-width="2" paint-order="stroke" stroke-miterlimit="2">paths</text>
<text dominant-baseline="central" text-anchor="middle" style="font-size:9px;font-family:sans-serif;" transform="matrix(0.897,-0.441,0.441,0.897,231.6158,212.6084)" fill="#ccc" stroke="#000" stroke-width="2" paint-order="stroke" stroke-miterlimit="2">operations</text>
<text dominant-baseline="central" text-anchor="middle" style="font-size:12px;font-family:sans-serif;" transform="matrix(0.897,-0.441,0.441,0.897,224.2621,197.6518)" fill="#eee" stroke="#0AA40D" stroke-width="2" paint-order="stroke" stroke-miterlimit="2">GET</text>
<path d="M-14.8 -16l66.6 0l0 32l-66.6 0Z" transform="translate(448.253 16)" fill="none" stroke="#ccc" stroke-width="0"></path>
<path d="M-7.3 -1.8L-0.1 4.8L7.3 -1.6M-7.3 4.3L-7.3 8.5L7.1 8.5L7.1 4.3M-0.1 4.7L-0.1 -8.5" transform="translate(448.253 16)" fill="none" stroke="#666"></path>
<path d="M-7.9 1M5.1 -3.4L8.1 -3.4L8.1 -6.4M8 -3C6.7 -6.4 3.2 -8.9 -1 -8.4C-5.3 -8 -8.6 -4.2 -8.4 0.2M-5.1 3.4L-8.1 3.4L-8.1 6.4M-8 3C-6.7 6.4 -3.2 8.9 1 8.4C5.3 8 8.6 4.2 8.4 -0.2" transform="translate(484.0476 16)" fill="none" stroke="#666"></path>
<style ><![CDATA[
.zr38-cls-0 {
animation:zr38-ani-0 1s cubic-bezier(0.65,0,0.35,1) both;
}
.zr38-cls-1 {
animation:zr38-ani-1 1s cubic-bezier(0.65,0,0.35,1) both;
}
.zr38-cls-2 {
animation:zr38-ani-2 1s cubic-bezier(0.65,0,0.35,1) both;
}
.zr38-cls-3 {
animation:zr38-ani-3 1s cubic-bezier(0.65,0,0.35,1) both;
}
.zr38-cls-4 {
animation:zr38-ani-4 1s cubic-bezier(0.65,0,0.35,1) both;
}
.zr38-cls-5 {
animation:zr38-ani-5 1s cubic-bezier(0.65,0,0.35,1) both;
}
.zr38-cls-6 {
animation:zr38-ani-6 1s cubic-bezier(0.65,0,0.35,1) both;
}
.zr38-cls-7 {
animation:zr38-ani-7 1s cubic-bezier(0.65,0,0.35,1) both;
}
.zr38-cls-8 {
animation:zr38-ani-8 1s cubic-bezier(0.65,0,0.35,1) both;
}
.zr38-cls-9 {
animation:zr38-ani-9 1s cubic-bezier(0.65,0,0.35,1) both;
}
.zr38-cls-10 {
animation:zr38-ani-10 1s cubic-bezier(0.65,0,0.35,1) both;
}
.zr38-cls-11 {
animation:zr38-ani-11 1s cubic-bezier(0.65,0,0.35,1) both;
}
.zr38-cls-12 {
animation:zr38-ani-12 1s cubic-bezier(0.65,0,0.35,1) both;
}
.zr38-cls-13 {
animation:zr38-ani-13 1s cubic-bezier(0.65,0,0.35,1) both;
}
.zr38-cls-14 {
animation:zr38-ani-14 1s cubic-bezier(0.65,0,0.35,1) both;
}
.zr38-cls-15 {
animation:zr38-ani-15 1s cubic-bezier(0.65,0,0.35,1) both;
}
.zr38-cls-16 {
animation:zr38-ani-16 1s cubic-bezier(0.65,0,0.35,1) both;
}
.zr38-cls-17 {
animation:zr38-ani-17 1s cubic-bezier(0.65,0,0.35,1) both;
}
.zr38-cls-18 {
animation:zr38-ani-18 1s cubic-bezier(0.65,0,0.35,1) both;
}
.zr38-cls-19 {
animation:zr38-ani-19 1s cubic-bezier(0.65,0,0.35,1) both;
}
.zr38-cls-20 {
animation:zr38-ani-20 1s cubic-bezier(0.65,0,0.35,1) both;
}
.zr38-cls-21 {
animation:zr38-ani-21 1s cubic-bezier(0.65,0,0.35,1) both;
}
.zr38-cls-22 {
animation:zr38-ani-22 1s cubic-bezier(0.65,0,0.35,1) both;
}
.zr38-cls-23 {
animation:zr38-ani-23 1s cubic-bezier(0.65,0,0.35,1) both;
}
.zr38-cls-24 {
animation:zr38-ani-24 1s cubic-bezier(0.65,0,0.35,1) both;
}
.zr38-cls-25 {
animation:zr38-ani-25 1s cubic-bezier(0.65,0,0.35,1) both;
}
.zr38-cls-26 {
animation:zr38-ani-26 1s cubic-bezier(0.65,0,0.35,1) both;
}
.zr38-cls-27 {
animation:zr38-ani-27 1s cubic-bezier(0.65,0,0.35,1) both;
}
.zr38-cls-28 {
animation:zr38-ani-28 1s cubic-bezier(0.65,0,0.35,1) both;
}
.zr38-cls-29 {
animation:zr38-ani-29 1s cubic-bezier(0.65,0,0.35,1) both;
}
.zr38-cls-30 {
animation:zr38-ani-30 1s cubic-bezier(0.65,0,0.35,1) both;
}
.zr38-cls-31 {
animation:zr38-ani-31 1s cubic-bezier(0.65,0,0.35,1) both;
}
.zr38-cls-32 {
animation:zr38-ani-32 1s cubic-bezier(0.65,0,0.35,1) both;
}
.zr38-cls-33 {
animation:zr38-ani-33 1s cubic-bezier(0.65,0,0.35,1) both;
}
.zr38-cls-34 {
animation:zr38-ani-34 1s cubic-bezier(0.65,0,0.35,1) both;
}
.zr38-cls-35 {
animation:zr38-ani-35 1s cubic-bezier(0.65,0,0.35,1) both;
}
.zr38-cls-36 {
animation:zr38-ani-36 1s cubic-bezier(0.65,0,0.35,1) both;
}
.zr38-cls-37 {
animation:zr38-ani-37 1s cubic-bezier(0.65,0,0.35,1) both;
}
.zr38-cls-38 {
animation:zr38-ani-38 1s cubic-bezier(0.65,0,0.35,1) both;
}
.zr38-cls-39 {
animation:zr38-ani-39 1s cubic-bezier(0.65,0,0.35,1) both;
}
.zr38-cls-40 {
animation:zr38-ani-40 1s cubic-bezier(0.65,0,0.35,1) both;
}
.zr38-cls-41 {
animation:zr38-ani-41 1s cubic-bezier(0.65,0,0.35,1) both;
}
.zr38-cls-42 {
animation:zr38-ani-42 1s cubic-bezier(0.65,0,0.35,1) both;
}
.zr38-cls-43 {
animation:zr38-ani-43 1s cubic-bezier(0.65,0,0.35,1) both;
}
.zr38-cls-44 {
animation:zr38-ani-44 1s cubic-bezier(0.65,0,0.35,1) both;
}
.zr38-cls-45 {
animation:zr38-ani-45 1s cubic-bezier(0.65,0,0.35,1) both;
}
.zr38-cls-46 {
animation:zr38-ani-46 1s cubic-bezier(0.65,0,0.35,1) both;
}
.zr38-cls-47 {
animation:zr38-ani-47 1s cubic-bezier(0.65,0,0.35,1) both;
}
.zr38-cls-48 {
animation:zr38-ani-48 1s cubic-bezier(0.65,0,0.35,1) both;
}
.zr38-cls-49 {
animation:zr38-ani-49 1s cubic-bezier(0.65,0,0.35,1) both;
}
.zr38-cls-50 {
animation:zr38-ani-50 1s cubic-bezier(0.65,0,0.35,1) both;
}
.zr38-cls-51 {
animation:zr38-ani-51 1s cubic-bezier(0.65,0,0.35,1) both;
}
.zr38-cls-52 {
animation:zr38-ani-52 1s cubic-bezier(0.65,0,0.35,1) both;
}
.zr38-cls-53 {
animation:zr38-ani-53 1s cubic-bezier(0.65,0,0.35,1) both;
}
.zr38-cls-54 {
animation:zr38-ani-54 1s cubic-bezier(0.65,0,0.35,1) both;
}
.zr38-cls-55 {
animation:zr38-ani-55 1s cubic-bezier(0.65,0,0.35,1) both;
}
.zr38-cls-56 {
animation:zr38-ani-56 1s cubic-bezier(0.65,0,0.35,1) both;
}
.zr38-cls-57 {
animation:zr38-ani-57 1s cubic-bezier(0.65,0,0.35,1) both;
}
.zr38-cls-58 {
animation:zr38-ani-58 1s cubic-bezier(0.65,0,0.35,1) both;
}
.zr38-cls-59 {
animation:zr38-ani-59 1s cubic-bezier(0.65,0,0.35,1) both;
}
.zr38-cls-60 {
animation:zr38-ani-60 1s cubic-bezier(0.65,0,0.35,1) both;
}
.zr38-cls-61 {
animation:zr38-ani-61 1s cubic-bezier(0.65,0,0.35,1) both;
}
.zr38-cls-62 {
animation:zr38-ani-62 1s cubic-bezier(0.65,0,0.35,1) both;
}
.zr38-cls-63 {
animation:zr38-ani-63 1s cubic-bezier(0.65,0,0.35,1) both;
}
.zr38-cls-64 {
animation:zr38-ani-64 1s cubic-bezier(0.65,0,0.35,1) both;
}
.zr38-cls-65 {
animation:zr38-ani-65 1s cubic-bezier(0.65,0,0.35,1) both;
}
.zr38-cls-66 {
animation:zr38-ani-66 1s cubic-bezier(0.65,0,0.35,1) both;
}
.zr38-cls-67 {
animation:zr38-ani-67 1s cubic-bezier(0.65,0,0.35,1) both;
}
.zr38-cls-68 {
animation:zr38-ani-68 1s cubic-bezier(0.65,0,0.35,1) both;
}
.zr38-cls-69 {
animation:zr38-ani-69 1s cubic-bezier(0.65,0,0.35,1) both;
}
.zr38-cls-70 {
animation:zr38-ani-70 1s cubic-bezier(0.65,0,0.35,1) both;
}
.zr38-cls-71 {
animation:zr38-ani-71 1s cubic-bezier(0.65,0,0.35,1) both;
}
.zr38-cls-72 {
animation:zr38-ani-72 1s cubic-bezier(0.65,0,0.35,1) both;
}
.zr38-cls-73 {
animation:zr38-ani-73 1s cubic-bezier(0.65,0,0.35,1) both;
}
.zr38-cls-74 {
animation:zr38-ani-74 1s cubic-bezier(0.65,0,0.35,1) both;
}
.zr38-cls-75 {
animation:zr38-ani-75 1s cubic-bezier(0.65,0,0.35,1) both;
}
.zr38-cls-76 {
animation:zr38-ani-76 1s cubic-bezier(0.65,0,0.35,1) both;
}
.zr38-cls-77 {
animation:zr38-ani-77 1s cubic-bezier(0.65,0,0.35,1) both;
}
.zr38-cls-78 {
animation:zr38-ani-78 1s cubic-bezier(0.65,0,0.35,1) both;
}
.zr38-cls-79 {
animation:zr38-ani-79 1s cubic-bezier(0.65,0,0.35,1) both;
}
.zr38-cls-80 {
animation:zr38-ani-80 1s cubic-bezier(0.65,0,0.35,1) both;
}
.zr38-cls-81 {
animation:zr38-ani-81 1s cubic-bezier(0.65,0,0.35,1) both;
}
.zr38-cls-82 {
animation:zr38-ani-82 1s cubic-bezier(0.65,0,0.35,1) both;
}
.zr38-cls-83 {
animation:zr38-ani-83 1s cubic-bezier(0.65,0,0.35,1) both;
}
.zr38-cls-84 {
animation:zr38-ani-84 1s cubic-bezier(0.65,0,0.35,1) both;
}
.zr38-cls-85 {
animation:zr38-ani-85 1s cubic-bezier(0.65,0,0.35,1) both;
}
.zr38-cls-86 {
animation:zr38-ani-86 1s cubic-bezier(0.65,0,0.35,1) both;
}
@keyframes zr38-ani-0 {
0% {
d:path("M250 237.5A12.5 12.5 0 1 1 242.8 239.7A12.5 12.5 0 1 0 250 237.5Z");
}
100% {
d:path("M250 229.2A20.8 20.8 0 1 1 238.1 232.9L242.8 239.7A12.5 12.5 0 1 0 250 237.5Z");
}
}
@keyframes zr38-ani-1 {
0% {
d:path("M250 229.2A20.8 20.8 0 1 1 235.1 235.5L235.1 235.5A20.8 20.8 0 1 0 250 229.2Z");
}
100% {
d:path("M250 220.8A29.2 29.2 0 1 1 229.1 229.7L235.1 235.5A20.8 20.8 0 1 0 250 229.2Z");
}
}
@keyframes zr38-ani-2 {
0% {
d:path("M235.1 235.5A20.8 20.8 0 0 1 238.1 232.9L238.1 232.9A20.8 20.8 0 0 0 235.1 235.5Z");
}
100% {
d:path("M229.1 229.7A29.2 29.2 0 0 1 233.3 226.1L238.1 232.9A20.8 20.8 0 0 0 235.1 235.5Z");
}
}
@keyframes zr38-ani-3 {
0% {
d:path("M242.8 239.7A12.5 12.5 0 0 1 250 237.5L250 237.5A12.5 12.5 0 0 0 242.8 239.7Z");
}
100% {
d:path("M238.1 232.9A20.8 20.8 0 0 1 250 229.2L250 237.5A12.5 12.5 0 0 0 242.8 239.7Z");
}
}
@keyframes zr38-ani-4 {
0% {
d:path("M238.1 232.9A20.8 20.8 0 0 1 248.4 229.2L248.4 229.2A20.8 20.8 0 0 0 238.1 232.9Z");
}
100% {
d:path("M233.3 226.1A29.2 29.2 0 0 1 247.8 220.9L248.4 229.2A20.8 20.8 0 0 0 238.1 232.9Z");
}
}
@keyframes zr38-ani-5 {
0% {
d:path("M233.3 226.1A29.2 29.2 0 0 1 241.3 222.2L241.3 222.2A29.2 29.2 0 0 0 233.3 226.1Z");
}
100% {
d:path("M228.5 219.2A37.5 37.5 0 0 1 238.8 214.2L241.3 222.2A29.2 29.2 0 0 0 233.3 226.1Z");
}
}
@keyframes zr38-ani-6 {
0% {
d:path("M228.5 219.2A37.5 37.5 0 0 1 238.8 214.2L238.8 214.2A37.5 37.5 0 0 0 228.5 219.2Z");
}
100% {
d:path("M223.8 212.4A45.8 45.8 0 0 1 236.3 206.3L238.8 214.2A37.5 37.5 0 0 0 228.5 219.2Z");
}
}
@keyframes zr38-ani-7 {
0% {
d:path("M223.8 212.4A45.8 45.8 0 0 1 236.3 206.3L236.3 206.3A45.8 45.8 0 0 0 223.8 212.4Z");
}
100% {
d:path("M219 205.6A54.2 54.2 0 0 1 233.8 198.3L236.3 206.3A45.8 45.8 0 0 0 223.8 212.4Z");
}
}
@keyframes zr38-ani-8 {
0% {
d:path("M219 205.6A54.2 54.2 0 0 1 233.8 198.3L233.8 198.3A54.2 54.2 0 0 0 219 205.6Z");
}
100% {
d:path("M214.2 198.7A62.5 62.5 0 0 1 231.3 190.4L233.8 198.3A54.2 54.2 0 0 0 219 205.6Z");
}
}
@keyframes zr38-ani-9 {
0% {
d:path("M214.2 198.7A62.5 62.5 0 0 1 224.6 192.9L224.6 192.9A62.5 62.5 0 0 0 214.2 198.7Z");
}
100% {
d:path("M209.5 191.9A70.8 70.8 0 0 1 221.2 185.3L224.6 192.9A62.5 62.5 0 0 0 214.2 198.7Z");
}
}
@keyframes zr38-ani-10 {
0% {
d:path("M209.5 191.9A70.8 70.8 0 0 1 221.2 185.3L221.2 185.3A70.8 70.8 0 0 0 209.5 191.9Z");
}
100% {
d:path("M204.7 185.1A79.2 79.2 0 0 1 217.8 177.7L221.2 185.3A70.8 70.8 0 0 0 209.5 191.9Z");
}
}
@keyframes zr38-ani-11 {
0% {
d:path("M204.7 185.1A79.2 79.2 0 0 1 217.8 177.7L217.8 177.7A79.2 79.2 0 0 0 204.7 185.1Z");
}
100% {
d:path("M199.9 178.2A87.5 87.5 0 0 1 214.4 170.1L217.8 177.7A79.2 79.2 0 0 0 204.7 185.1Z");
}
}
@keyframes zr38-ani-12 {
0% {
d:path("M199.9 178.2A87.5 87.5 0 0 1 214.4 170.1L214.4 170.1A87.5 87.5 0 0 0 199.9 178.2Z");
}
100% {
d:path("M195.2 171.4A95.8 95.8 0 0 1 211 162.5L214.4 170.1A87.5 87.5 0 0 0 199.9 178.2Z");
}
}
@keyframes zr38-ani-13 {
0% {
d:path("M195.2 171.4A95.8 95.8 0 0 1 211 162.5L211 162.5A95.8 95.8 0 0 0 195.2 171.4Z");
}
100% {
d:path("M190.4 164.6A104.2 104.2 0 0 1 207.6 154.8L211 162.5A95.8 95.8 0 0 0 195.2 171.4Z");
}
}
@keyframes zr38-ani-14 {
0% {
d:path("M190.4 164.6A104.2 104.2 0 0 1 207.6 154.8L207.6 154.8A104.2 104.2 0 0 0 190.4 164.6Z");
}
100% {
d:path("M185.6 157.7A112.5 112.5 0 0 1 204.2 147.2L207.6 154.8A104.2 104.2 0 0 0 190.4 164.6Z");
}
}
@keyframes zr38-ani-15 {
0% {
d:path("M185.6 157.7A112.5 112.5 0 0 1 204.2 147.2L204.2 147.2A112.5 112.5 0 0 0 185.6 157.7Z");
}
100% {
d:path("M180.8 150.9A120.8 120.8 0 0 1 200.9 139.6L204.2 147.2A112.5 112.5 0 0 0 185.6 157.7Z");
}
}
@keyframes zr38-ani-16 {
0% {
d:path("M180.8 150.9A120.8 120.8 0 0 1 200.9 139.6L200.9 139.6A120.8 120.8 0 0 0 180.8 150.9Z");
}
100% {
d:path("M176.1 144.1A129.2 129.2 0 0 1 197.5 132L200.9 139.6A120.8 120.8 0 0 0 180.8 150.9Z");
}
}
@keyframes zr38-ani-17 {
0% {
d:path("M176.1 144.1A129.2 129.2 0 0 1 197.5 132L197.5 132A129.2 129.2 0 0 0 176.1 144.1Z");
}
100% {
d:path("M171.3 137.2A137.5 137.5 0 0 1 194.1 124.4L197.5 132A129.2 129.2 0 0 0 176.1 144.1Z");
}
}
@keyframes zr38-ani-18 {
0% {
d:path("M171.3 137.2A137.5 137.5 0 0 1 194.1 124.4L194.1 124.4A137.5 137.5 0 0 0 171.3 137.2Z");
}
100% {
d:path("M166.5 130.4A145.8 145.8 0 0 1 190.7 116.8L194.1 124.4A137.5 137.5 0 0 0 171.3 137.2Z");
}
}
@keyframes zr38-ani-19 {
0% {
d:path("M166.5 130.4A145.8 145.8 0 0 1 190.7 116.8L190.7 116.8A145.8 145.8 0 0 0 166.5 130.4Z");
}
100% {
d:path("M161.8 123.6A154.2 154.2 0 0 1 187.3 109.2L190.7 116.8A145.8 145.8 0 0 0 166.5 130.4Z");
}
}
@keyframes zr38-ani-20 {
0% {
d:path("M161.8 123.6A154.2 154.2 0 0 1 187.3 109.2L187.3 109.2A154.2 154.2 0 0 0 161.8 123.6Z");
}
100% {
d:path("M157 116.7A162.5 162.5 0 0 1 183.9 101.5L187.3 109.2A154.2 154.2 0 0 0 161.8 123.6Z");
}
}
@keyframes zr38-ani-21 {
0% {
d:path("M157 116.7A162.5 162.5 0 0 1 167.4 110.1L167.4 110.1A162.5 162.5 0 0 0 157 116.7Z");
}
100% {
d:path("M152.2 109.9A170.8 170.8 0 0 1 163.2 102.9L167.4 110.1A162.5 162.5 0 0 0 157 116.7Z");
}
}
@keyframes zr38-ani-22 {
0% {
d:path("M152.2 109.9A170.8 170.8 0 0 1 157.6 106.3L157.6 106.3A170.8 170.8 0 0 0 152.2 109.9Z");
}
100% {
d:path("M147.5 103.1A179.2 179.2 0 0 1 153.1 99.3L157.6 106.3A170.8 170.8 0 0 0 152.2 109.9Z");
}
}
@keyframes zr38-ani-23 {
0% {
d:path("M157.6 106.3A170.8 170.8 0 0 1 163.2 102.9L163.2 102.9A170.8 170.8 0 0 0 157.6 106.3Z");
}
100% {
d:path("M153.1 99.3A179.2 179.2 0 0 1 158.9 95.7L163.2 102.9A170.8 170.8 0 0 0 157.6 106.3Z");
}
}
@keyframes zr38-ani-24 {
0% {
d:path("M167.4 110.1A162.5 162.5 0 0 1 178.3 104.2L178.3 104.2A162.5 162.5 0 0 0 167.4 110.1Z");
}
100% {
d:path("M163.2 102.9A170.8 170.8 0 0 1 174.6 96.7L178.3 104.2A162.5 162.5 0 0 0 167.4 110.1Z");
}
}
@keyframes zr38-ani-25 {
0% {
d:path("M163.2 102.9A170.8 170.8 0 0 1 168.8 99.7L168.8 99.7A170.8 170.8 0 0 0 163.2 102.9Z");
}
100% {
d:path("M158.9 95.7A179.2 179.2 0 0 1 164.9 92.3L168.8 99.7A170.8 170.8 0 0 0 163.2 102.9Z");
}
}
@keyframes zr38-ani-26 {
0% {
d:path("M158.9 95.7A179.2 179.2 0 0 1 164.9 92.3L164.9 92.3A179.2 179.2 0 0 0 158.9 95.7Z");
}
100% {
d:path("M154.7 88.5A187.5 187.5 0 0 1 160.9 85L164.9 92.3A179.2 179.2 0 0 0 158.9 95.7Z");
}
}
@keyframes zr38-ani-27 {
0% {
d:path("M154.7 88.5A187.5 187.5 0 0 1 160.9 85L160.9 85A187.5 187.5 0 0 0 154.7 88.5Z");
}
100% {
d:path("M150.5 81.3A195.8 195.8 0 0 1 157 77.7L160.9 85A187.5 187.5 0 0 0 154.7 88.5Z");
}
}
@keyframes zr38-ani-28 {
0% {
d:path("M150.5 81.3A195.8 195.8 0 0 1 157 77.7L157 77.7A195.8 195.8 0 0 0 150.5 81.3Z");
}
100% {
d:path("M146.2 74.2A204.2 204.2 0 0 1 153 70.3L157 77.7A195.8 195.8 0 0 0 150.5 81.3Z");
}
}
@keyframes zr38-ani-29 {
0% {
d:path("M146.2 74.2A204.2 204.2 0 0 1 153 70.3L153 70.3A204.2 204.2 0 0 0 146.2 74.2Z");
}
100% {
d:path("M142 67A212.5 212.5 0 0 1 149 63L153 70.3A204.2 204.2 0 0 0 146.2 74.2Z");
}
}
@keyframes zr38-ani-30 {
0% {
d:path("M168.8 99.7A170.8 170.8 0 0 1 174.6 96.7L174.6 96.7A170.8 170.8 0 0 0 168.8 99.7Z");
}
100% {
d:path("M164.9 92.3A179.2 179.2 0 0 1 170.9 89.2L174.6 96.7A170.8 170.8 0 0 0 168.8 99.7Z");
}
}
@keyframes zr38-ani-31 {
0% {
d:path("M164.9 92.3A179.2 179.2 0 0 1 170.9 89.2L170.9 89.2A179.2 179.2 0 0 0 164.9 92.3Z");
}
100% {
d:path("M160.9 85A187.5 187.5 0 0 1 167.3 81.7L170.9 89.2A179.2 179.2 0 0 0 164.9 92.3Z");
}
}
@keyframes zr38-ani-32 {
0% {
d:path("M178.3 104.2A162.5 162.5 0 0 1 183.9 101.5L183.9 101.5A162.5 162.5 0 0 0 178.3 104.2Z");
}
100% {
d:path("M174.6 96.7A170.8 170.8 0 0 1 180.5 93.9L183.9 101.5A162.5 162.5 0 0 0 178.3 104.2Z");
}
}
@keyframes zr38-ani-33 {
0% {
d:path("M174.6 96.7A170.8 170.8 0 0 1 180.5 93.9L180.5 93.9A170.8 170.8 0 0 0 174.6 96.7Z");
}
100% {
d:path("M170.9 89.2A179.2 179.2 0 0 1 177.1 86.3L180.5 93.9A170.8 170.8 0 0 0 174.6 96.7Z");
}
}
@keyframes zr38-ani-34 {
0% {
d:path("M224.6 192.9A62.5 62.5 0 0 1 231.3 190.4L231.3 190.4A62.5 62.5 0 0 0 224.6 192.9Z");
}
100% {
d:path("M221.2 185.3A70.8 70.8 0 0 1 228.8 182.4L231.3 190.4A62.5 62.5 0 0 0 224.6 192.9Z");
}
}
@keyframes zr38-ani-35 {
0% {
d:path("M221.2 185.3A70.8 70.8 0 0 1 226.2 183.3L226.2 183.3A70.8 70.8 0 0 0 221.2 185.3Z");
}
100% {
d:path("M217.8 177.7A79.2 79.2 0 0 1 223.4 175.4L226.2 183.3A70.8 70.8 0 0 0 221.2 185.3Z");
}
}
@keyframes zr38-ani-36 {
0% {
d:path("M217.8 177.7A79.2 79.2 0 0 1 223.4 175.4L223.4 175.4A79.2 79.2 0 0 0 217.8 177.7Z");
}
100% {
d:path("M214.4 170.1A87.5 87.5 0 0 1 220.6 167.6L223.4 175.4A79.2 79.2 0 0 0 217.8 177.7Z");
}
}
@keyframes zr38-ani-37 {
0% {
d:path("M214.4 170.1A87.5 87.5 0 0 1 220.6 167.6L220.6 167.6A87.5 87.5 0 0 0 214.4 170.1Z");
}
100% {
d:path("M211 162.5A95.8 95.8 0 0 1 217.8 159.7L220.6 167.6A87.5 87.5 0 0 0 214.4 170.1Z");
}
}
@keyframes zr38-ani-38 {
0% {
d:path("M211 162.5A95.8 95.8 0 0 1 217.8 159.7L217.8 159.7A95.8 95.8 0 0 0 211 162.5Z");
}
100% {
d:path("M207.6 154.8A104.2 104.2 0 0 1 215 151.9L217.8 159.7A95.8 95.8 0 0 0 211 162.5Z");
}
}
@keyframes zr38-ani-39 {
0% {
d:path("M207.6 154.8A104.2 104.2 0 0 1 215 151.9L215 151.9A104.2 104.2 0 0 0 207.6 154.8Z");
}
100% {
d:path("M204.2 147.2A112.5 112.5 0 0 1 212.2 144L215 151.9A104.2 104.2 0 0 0 207.6 154.8Z");
}
}
@keyframes zr38-ani-40 {
0% {
d:path("M204.2 147.2A112.5 112.5 0 0 1 208.2 145.6L208.2 145.6A112.5 112.5 0 0 0 204.2 147.2Z");
}
100% {
d:path("M200.9 139.6A120.8 120.8 0 0 1 205.1 137.8L208.2 145.6A112.5 112.5 0 0 0 204.2 147.2Z");
}
}
@keyframes zr38-ani-41 {
0% {
d:path("M200.9 139.6A120.8 120.8 0 0 1 205.1 137.8L205.1 137.8A120.8 120.8 0 0 0 200.9 139.6Z");
}
100% {
d:path("M197.5 132A129.2 129.2 0 0 1 202 130.1L205.1 137.8A120.8 120.8 0 0 0 200.9 139.6Z");
}
}
@keyframes zr38-ani-42 {
0% {
d:path("M208.2 145.6A112.5 112.5 0 0 1 212.2 144L212.2 144A112.5 112.5 0 0 0 208.2 145.6Z");
}
100% {
d:path("M205.1 137.8A120.8 120.8 0 0 1 209.4 136.2L212.2 144A112.5 112.5 0 0 0 208.2 145.6Z");
}
}
@keyframes zr38-ani-43 {
0% {
d:path("M205.1 137.8A120.8 120.8 0 0 1 209.4 136.2L209.4 136.2A120.8 120.8 0 0 0 205.1 137.8Z");
}
100% {
d:path("M202 130.1A129.2 129.2 0 0 1 206.6 128.3L209.4 136.2A120.8 120.8 0 0 0 205.1 137.8Z");
}
}
@keyframes zr38-ani-44 {
0% {
d:path("M226.2 183.3A70.8 70.8 0 0 1 228.8 182.4L228.8 182.4A70.8 70.8 0 0 0 226.2 183.3Z");
}
100% {
d:path("M223.4 175.4A79.2 79.2 0 0 1 226.3 174.5L228.8 182.4A70.8 70.8 0 0 0 226.2 183.3Z");
}
}
@keyframes zr38-ani-45 {
0% {
d:path("M223.4 175.4A79.2 79.2 0 0 1 226.3 174.5L226.3 174.5A79.2 79.2 0 0 0 223.4 175.4Z");
}
100% {
d:path("M220.6 167.6A87.5 87.5 0 0 1 223.8 166.5L226.3 174.5A79.2 79.2 0 0 0 223.4 175.4Z");
}
}
@keyframes zr38-ani-46 {
0% {
d:path("M220.6 167.6A87.5 87.5 0 0 1 223.8 166.5L223.8 166.5A87.5 87.5 0 0 0 220.6 167.6Z");
}
100% {
d:path("M217.8 159.7A95.8 95.8 0 0 1 221.3 158.6L223.8 166.5A87.5 87.5 0 0 0 220.6 167.6Z");
}
}
@keyframes zr38-ani-47 {
0% {
d:path("M241.3 222.2A29.2 29.2 0 0 1 244.5 221.4L244.5 221.4A29.2 29.2 0 0 0 241.3 222.2Z");
}
100% {
d:path("M238.8 214.2A37.5 37.5 0 0 1 242.9 213.2L244.5 221.4A29.2 29.2 0 0 0 241.3 222.2Z");
}
}
@keyframes zr38-ani-48 {
0% {
d:path("M238.8 214.2A37.5 37.5 0 0 1 242.9 213.2L242.9 213.2A37.5 37.5 0 0 0 238.8 214.2Z");
}
100% {
d:path("M236.3 206.3A45.8 45.8 0 0 1 241.3 205L242.9 213.2A37.5 37.5 0 0 0 238.8 214.2Z");
}
}
@keyframes zr38-ani-49 {
0% {
d:path("M236.3 206.3A45.8 45.8 0 0 1 241.3 205L241.3 205A45.8 45.8 0 0 0 236.3 206.3Z");
}
100% {
d:path("M233.8 198.3A54.2 54.2 0 0 1 239.7 196.8L241.3 205A45.8 45.8 0 0 0 236.3 206.3Z");
}
}
@keyframes zr38-ani-50 {
0% {
d:path("M233.8 198.3A54.2 54.2 0 0 1 239.7 196.8L239.7 196.8A54.2 54.2 0 0 0 233.8 198.3Z");
}
100% {
d:path("M231.3 190.4A62.5 62.5 0 0 1 238.2 188.6L239.7 196.8A54.2 54.2 0 0 0 233.8 198.3Z");
}
}
@keyframes zr38-ani-51 {
0% {
d:path("M231.3 190.4A62.5 62.5 0 0 1 238.2 188.6L238.2 188.6A62.5 62.5 0 0 0 231.3 190.4Z");
}
100% {
d:path("M228.8 182.4A70.8 70.8 0 0 1 236.6 180.4L238.2 188.6A62.5 62.5 0 0 0 231.3 190.4Z");
}
}
@keyframes zr38-ani-52 {
0% {
d:path("M228.8 182.4A70.8 70.8 0 0 1 236.6 180.4L236.6 180.4A70.8 70.8 0 0 0 228.8 182.4Z");
}
100% {
d:path("M226.3 174.5A79.2 79.2 0 0 1 235 172.3L236.6 180.4A70.8 70.8 0 0 0 228.8 182.4Z");
}
}
@keyframes zr38-ani-53 {
0% {
d:path("M226.3 174.5A79.2 79.2 0 0 1 235 172.3L235 172.3A79.2 79.2 0 0 0 226.3 174.5Z");
}
100% {
d:path("M223.8 166.5A87.5 87.5 0 0 1 233.4 164.1L235 172.3A79.2 79.2 0 0 0 226.3 174.5Z");
}
}
@keyframes zr38-ani-54 {
0% {
d:path("M223.8 166.5A87.5 87.5 0 0 1 233.4 164.1L233.4 164.1A87.5 87.5 0 0 0 223.8 166.5Z");
}
100% {
d:path("M221.3 158.6A95.8 95.8 0 0 1 231.9 155.9L233.4 164.1A87.5 87.5 0 0 0 223.8 166.5Z");
}
}
@keyframes zr38-ani-55 {
0% {
d:path("M221.3 158.6A95.8 95.8 0 0 1 231.9 155.9L231.9 155.9A95.8 95.8 0 0 0 221.3 158.6Z");
}
100% {
d:path("M218.8 150.6A104.2 104.2 0 0 1 230.3 147.7L231.9 155.9A95.8 95.8 0 0 0 221.3 158.6Z");
}
}
@keyframes zr38-ani-56 {
0% {
d:path("M218.8 150.6A104.2 104.2 0 0 1 230.3 147.7L230.3 147.7A104.2 104.2 0 0 0 218.8 150.6Z");
}
100% {
d:path("M216.3 142.7A112.5 112.5 0 0 1 228.7 139.5L230.3 147.7A104.2 104.2 0 0 0 218.8 150.6Z");
}
}
@keyframes zr38-ani-57 {
0% {
d:path("M216.3 142.7A112.5 112.5 0 0 1 228.7 139.5L228.7 139.5A112.5 112.5 0 0 0 216.3 142.7Z");
}
100% {
d:path("M213.8 134.7A120.8 120.8 0 0 1 227.1 131.4L228.7 139.5A112.5 112.5 0 0 0 216.3 142.7Z");
}
}
@keyframes zr38-ani-58 {
0% {
d:path("M213.8 134.7A120.8 120.8 0 0 1 227.1 131.4L227.1 131.4A120.8 120.8 0 0 0 213.8 134.7Z");
}
100% {
d:path("M211.3 126.8A129.2 129.2 0 0 1 225.6 123.2L227.1 131.4A120.8 120.8 0 0 0 213.8 134.7Z");
}
}
@keyframes zr38-ani-59 {
0% {
d:path("M211.3 126.8A129.2 129.2 0 0 1 216 125.4L216 125.4A129.2 129.2 0 0 0 211.3 126.8Z");
}
100% {
d:path("M208.8 118.8A137.5 137.5 0 0 1 213.8 117.4L216 125.4A129.2 129.2 0 0 0 211.3 126.8Z");
}
}
@keyframes zr38-ani-60 {
0% {
d:path("M216 125.4A129.2 129.2 0 0 1 220.7 124.2L220.7 124.2A129.2 129.2 0 0 0 216 125.4Z");
}
100% {
d:path("M213.8 117.4A137.5 137.5 0 0 1 218.9 116.1L220.7 124.2A129.2 129.2 0 0 0 216 125.4Z");
}
}
@keyframes zr38-ani-61 {
0% {
d:path("M220.7 124.2A129.2 129.2 0 0 1 225.6 123.2L225.6 123.2A129.2 129.2 0 0 0 220.7 124.2Z");
}
100% {
d:path("M218.9 116.1A137.5 137.5 0 0 1 224 115L225.6 123.2A129.2 129.2 0 0 0 220.7 124.2Z");
}
}
@keyframes zr38-ani-62 {
0% {
d:path("M244.5 221.4A29.2 29.2 0 0 1 246.7 221L246.7 221A29.2 29.2 0 0 0 244.5 221.4Z");
}
100% {
d:path("M242.9 213.2A37.5 37.5 0 0 1 245.7 212.7L246.7 221A29.2 29.2 0 0 0 244.5 221.4Z");
}
}
@keyframes zr38-ani-63 {
0% {
d:path("M242.9 213.2A37.5 37.5 0 0 1 245.7 212.7L245.7 212.7A37.5 37.5 0 0 0 242.9 213.2Z");
}
100% {
d:path("M241.3 205A45.8 45.8 0 0 1 244.8 204.5L245.7 212.7A37.5 37.5 0 0 0 242.9 213.2Z");
}
}
@keyframes zr38-ani-64 {
0% {
d:path("M241.3 205A45.8 45.8 0 0 1 244.8 204.5L244.8 204.5A45.8 45.8 0 0 0 241.3 205Z");
}
100% {
d:path("M239.7 196.8A54.2 54.2 0 0 1 243.8 196.2L244.8 204.5A45.8 45.8 0 0 0 241.3 205Z");
}
}
@keyframes zr38-ani-65 {
0% {
d:path("M239.7 196.8A54.2 54.2 0 0 1 243.8 196.2L243.8 196.2A54.2 54.2 0 0 0 239.7 196.8Z");
}
100% {
d:path("M238.2 188.6A62.5 62.5 0 0 1 242.9 187.9L243.8 196.2A54.2 54.2 0 0 0 239.7 196.8Z");
}
}
@keyframes zr38-ani-66 {
0% {
d:path("M238.2 188.6A62.5 62.5 0 0 1 242.9 187.9L242.9 187.9A62.5 62.5 0 0 0 238.2 188.6Z");
}
100% {
d:path("M236.6 180.4A70.8 70.8 0 0 1 241.9 179.6L242.9 187.9A62.5 62.5 0 0 0 238.2 188.6Z");
}
}
@keyframes zr38-ani-67 {
0% {
d:path("M236.6 180.4A70.8 70.8 0 0 1 241.9 179.6L241.9 179.6A70.8 70.8 0 0 0 236.6 180.4Z");
}
100% {
d:path("M235 172.3A79.2 79.2 0 0 1 241 171.3L241.9 179.6A70.8 70.8 0 0 0 236.6 180.4Z");
}
}
@keyframes zr38-ani-68 {
0% {
d:path("M235 172.3A79.2 79.2 0 0 1 241 171.3L241 171.3A79.2 79.2 0 0 0 235 172.3Z");
}
100% {
d:path("M233.4 164.1A87.5 87.5 0 0 1 240 163.1L241 171.3A79.2 79.2 0 0 0 235 172.3Z");
}
}
@keyframes zr38-ani-69 {
0% {
d:path("M233.4 164.1A87.5 87.5 0 0 1 240 163.1L240 163.1A87.5 87.5 0 0 0 233.4 164.1Z");
}
100% {
d:path("M231.9 155.9A95.8 95.8 0 0 1 239.1 154.8L240 163.1A87.5 87.5 0 0 0 233.4 164.1Z");
}
}
@keyframes zr38-ani-70 {
0% {
d:path("M231.9 155.9A95.8 95.8 0 0 1 239.1 154.8L239.1 154.8A95.8 95.8 0 0 0 231.9 155.9Z");
}
100% {
d:path("M230.3 147.7A104.2 104.2 0 0 1 238.1 146.5L239.1 154.8A95.8 95.8 0 0 0 231.9 155.9Z");
}
}
@keyframes zr38-ani-71 {
0% {
d:path("M230.3 147.7A104.2 104.2 0 0 1 238.1 146.5L238.1 146.5A104.2 104.2 0 0 0 230.3 147.7Z");
}
100% {
d:path("M228.7 139.5A112.5 112.5 0 0 1 237.2 138.2L238.1 146.5A104.2 104.2 0 0 0 230.3 147.7Z");
}
}
@keyframes zr38-ani-72 {
0% {
d:path("M228.7 139.5A112.5 112.5 0 0 1 237.2 138.2L237.2 138.2A112.5 112.5 0 0 0 228.7 139.5Z");
}
100% {
d:path("M227.1 131.4A120.8 120.8 0 0 1 236.2 130L237.2 138.2A112.5 112.5 0 0 0 228.7 139.5Z");
}
}
@keyframes zr38-ani-73 {
0% {
d:path("M227.1 131.4A120.8 120.8 0 0 1 236.2 130L236.2 130A120.8 120.8 0 0 0 227.1 131.4Z");
}
100% {
d:path("M225.6 123.2A129.2 129.2 0 0 1 235.3 121.7L236.2 130A120.8 120.8 0 0 0 227.1 131.4Z");
}
}
@keyframes zr38-ani-74 {
0% {
d:path("M225.6 123.2A129.2 129.2 0 0 1 230.4 122.3L230.4 122.3A129.2 129.2 0 0 0 225.6 123.2Z");
}
100% {
d:path("M224 115A137.5 137.5 0 0 1 229.1 114.1L230.4 122.3A129.2 129.2 0 0 0 225.6 123.2Z");
}
}
@keyframes zr38-ani-75 {
0% {
d:path("M224 115A137.5 137.5 0 0 1 229.1 114.1L229.1 114.1A137.5 137.5 0 0 0 224 115Z");
}
100% {
d:path("M222.4 106.8A145.8 145.8 0 0 1 227.9 105.9L229.1 114.1A137.5 137.5 0 0 0 224 115Z");
}
}
@keyframes zr38-ani-76 {
0% {
d:path("M230.4 122.3A129.2 129.2 0 0 1 235.3 121.7L235.3 121.7A129.2 129.2 0 0 0 230.4 122.3Z");
}
100% {
d:path("M229.1 114.1A137.5 137.5 0 0 1 234.3 113.4L235.3 121.7A129.2 129.2 0 0 0 230.4 122.3Z");
}
}
@keyframes zr38-ani-77 {
0% {
d:path("M229.1 114.1A137.5 137.5 0 0 1 234.3 113.4L234.3 113.4A137.5 137.5 0 0 0 229.1 114.1Z");
}
100% {
d:path("M227.9 105.9A145.8 145.8 0 0 1 233.4 105.1L234.3 113.4A137.5 137.5 0 0 0 229.1 114.1Z");
}
}
@keyframes zr38-ani-78 {
0% {
d:path("M246.7 221A29.2 29.2 0 0 1 247.8 220.9L247.8 220.9A29.2 29.2 0 0 0 246.7 221Z");
}
100% {
d:path("M245.7 212.7A37.5 37.5 0 0 1 247.1 212.6L247.8 220.9A29.2 29.2 0 0 0 246.7 221Z");
}
}
@keyframes zr38-ani-79 {
0% {
d:path("M245.7 212.7A37.5 37.5 0 0 1 247.1 212.6L247.1 212.6A37.5 37.5 0 0 0 245.7 212.7Z");
}
100% {
d:path("M244.8 204.5A45.8 45.8 0 0 1 246.5 204.3L247.1 212.6A37.5 37.5 0 0 0 245.7 212.7Z");
}
}
@keyframes zr38-ani-80 {
0% {
d:path("M244.8 204.5A45.8 45.8 0 0 1 246.5 204.3L246.5 204.3A45.8 45.8 0 0 0 244.8 204.5Z");
}
100% {
d:path("M243.8 196.2A54.2 54.2 0 0 1 245.9 196L246.5 204.3A45.8 45.8 0 0 0 244.8 204.5Z");
}
}
@keyframes zr38-ani-81 {
0% {
d:path("M243.8 196.2A54.2 54.2 0 0 1 245.9 196L245.9 196A54.2 54.2 0 0 0 243.8 196.2Z");
}
100% {
d:path("M242.9 187.9A62.5 62.5 0 0 1 245.2 187.7L245.9 196A54.2 54.2 0 0 0 243.8 196.2Z");
}
}
@keyframes zr38-ani-82 {
0% {
d:path("M248.4 229.2A20.8 20.8 0 0 1 250 229.2L250 229.2A20.8 20.8 0 0 0 248.4 229.2Z");
}
100% {
d:path("M247.8 220.9A29.2 29.2 0 0 1 250 220.8L250 229.2A20.8 20.8 0 0 0 248.4 229.2Z");
}
}
@keyframes zr38-ani-83 {
0% {
d:path("M247.8 220.9A29.2 29.2 0 0 1 248.9 220.9L248.9 220.9A29.2 29.2 0 0 0 247.8 220.9Z");
}
100% {
d:path("M247.1 212.6A37.5 37.5 0 0 1 248.6 212.5L248.9 220.9A29.2 29.2 0 0 0 247.8 220.9Z");
}
}
@keyframes zr38-ani-84 {
0% {
d:path("M247.1 212.6A37.5 37.5 0 0 1 248.6 212.5L248.6 212.5A37.5 37.5 0 0 0 247.1 212.6Z");
}
100% {
d:path("M246.5 204.3A45.8 45.8 0 0 1 248.3 204.2L248.6 212.5A37.5 37.5 0 0 0 247.1 212.6Z");
}
}
@keyframes zr38-ani-85 {
0% {
d:path("M248.9 220.9A29.2 29.2 0 0 1 250 220.8L250 220.8A29.2 29.2 0 0 0 248.9 220.9Z");
}
100% {
d:path("M248.6 212.5A37.5 37.5 0 0 1 250 212.5L250 220.8A29.2 29.2 0 0 0 248.9 220.9Z");
}
}
@keyframes zr38-ani-86 {
0% {
d:path("M248.6 212.5A37.5 37.5 0 0 1 250 212.5L250 212.5A37.5 37.5 0 0 0 248.6 212.5Z");
}
100% {
d:path("M248.3 204.2A45.8 45.8 0 0 1 250 204.2L250 212.5A37.5 37.5 0 0 0 248.6 212.5Z");
}
}
]]>

</style>
</svg>