<svg width="500" height="500" xmlns="http://www.w3.org/2000/svg" xmlns:xlink="http://www.w3.org/1999/xlink" version="1.1" baseProfile="full" viewBox="0 0 500 500">
<rect width="500" height="500" x="0" y="0" id="0" fill="none"></rect>
<path d="M250 224.2A25.8 25.8 0 1 1 232.9 230.6L241.7 240.6A12.5 12.5 0 1 0 250 237.5Z" fill="#C8C8C8" stroke="white" stroke-linejoin="bevel" class="zr24-cls-0"></path>
<path d="M250 210.8A39.2 39.2 0 1 1 217.6 228L228.6 235.5A25.8 25.8 0 1 0 250 224.2Z" fill="#C8C8C8" stroke="white" stroke-linejoin="bevel" class="zr24-cls-1"></path>
<path d="M217.6 228A39.2 39.2 0 0 1 224.1 220.6L232.9 230.6A25.8 25.8 0 0 0 228.6 235.5Z" fill="#C8C8C8" stroke="white" stroke-linejoin="bevel" class="zr24-cls-2"></path>
<path d="M232.9 230.6A25.8 25.8 0 0 1 249.1 224.2L249.5 237.5A12.5 12.5 0 0 0 241.7 240.6Z" fill="#000" stroke="white" stroke-linejoin="bevel" class="zr24-cls-3"></path>
<path d="M224.1 220.6A39.2 39.2 0 0 1 237.5 212.9L241.8 225.5A25.8 25.8 0 0 0 232.9 230.6Z" fill="#4949CD" fill-opacity="0.5" stroke="#fff" stroke-width="4" stroke-opacity="0.5" stroke-linejoin="bevel" class="zr24-cls-4"></path>
<path d="M215.3 210.6A52.5 52.5 0 0 1 226.2 203.2L232.3 215.1A39.2 39.2 0 0 0 224.1 220.6Z" fill="#000" stroke="white" stroke-linejoin="bevel" class="zr24-cls-5"></path>
<path d="M206.5 200.6A65.8 65.8 0 0 1 220.2 191.3L226.2 203.2A52.5 52.5 0 0 0 215.3 210.6Z" fill="#000" stroke="white" stroke-linejoin="bevel" class="zr24-cls-6"></path>
<path d="M197.7 190.6A79.2 79.2 0 0 1 211.7 180.7L218.1 192.4A65.8 65.8 0 0 0 206.5 200.6Z" fill="#4949CD" fill-opacity="0.5" stroke="#fff" stroke-width="4" stroke-opacity="0.5" stroke-linejoin="bevel" class="zr24-cls-7"></path>
<path d="M188.9 180.6A92.5 92.5 0 0 1 205.2 169.1L211.7 180.7A79.2 79.2 0 0 0 197.7 190.6Z" fill="#0AA40D" stroke="white" stroke-linejoin="bevel" class="zr24-cls-8"></path>
<path d="M180 170.6A105.8 105.8 0 0 1 198.7 157.4L205.2 169.1A92.5 92.5 0 0 0 188.9 180.6Z" fill="#000" stroke="white" stroke-linejoin="bevel" class="zr24-cls-9"></path>
<path d="M171.2 160.6A119.2 119.2 0 0 1 184.9 150.2L192.2 161.3A105.8 105.8 0 0 0 180 170.6Z" fill="#4949CD" fill-opacity="0.5" stroke="#fff" stroke-width="4" stroke-opacity="0.5" stroke-linejoin="bevel" class="zr24-cls-10"></path>
<path d="M162.4 150.6A132.5 132.5 0 0 1 177.6 139L184.9 150.2A119.2 119.2 0 0 0 171.2 160.6Z" fill="#000" stroke="white" stroke-linejoin="bevel" class="zr24-cls-11"></path>
<path d="M153.6 140.6A145.8 145.8 0 0 1 166 130.8L173.7 141.7A132.5 132.5 0 0 0 162.4 150.6Z" fill="#000" stroke="white" stroke-linejoin="bevel" class="zr24-cls-12"></path>
<path d="M144.8 130.6A159.2 159.2 0 0 1 158.3 119.9L166 130.8A145.8 145.8 0 0 0 153.6 140.6Z" fill="#A0522D" stroke="white" stroke-linejoin="bevel" class="zr24-cls-13"></path>
<path d="M136 120.6A172.5 172.5 0 0 1 150.6 109L158.3 119.9A159.2 159.2 0 0 0 144.8 130.6Z" fill="#A0522D" stroke="white" stroke-linejoin="bevel" class="zr24-cls-14"></path>
<path d="M127.2 110.6A185.8 185.8 0 0 1 137.5 102.1L145.6 112.7A172.5 172.5 0 0 0 136 120.6Z" fill="#49ff49" fill-opacity="0.5" stroke="#fff" stroke-width="4" stroke-opacity="0.5" stroke-linejoin="bevel" class="zr24-cls-15"></path>
<path d="M118.3 100.6A199.2 199.2 0 0 1 123.8 95.9L132.3 106.2A185.8 185.8 0 0 0 127.2 110.6Z" fill="#A0522D" stroke="white" stroke-linejoin="bevel" class="zr24-cls-16"></path>
<path d="M123.8 95.9A199.2 199.2 0 0 1 129.5 91.4L137.5 102.1A185.8 185.8 0 0 0 132.3 106.2Z" fill="#A0522D" stroke="white" stroke-linejoin="bevel" class="zr24-cls-17"></path>
<path d="M137.5 102.1A185.8 185.8 0 0 1 143 98.1L150.6 109A172.5 172.5 0 0 0 145.6 112.7Z" fill="#ff4949" fill-opacity="0.5" stroke="#fff" stroke-width="4" stroke-opacity="0.5" stroke-linejoin="bevel" class="zr24-cls-18"></path>
<path d="M129.5 91.4A199.2 199.2 0 0 1 135.3 87.2L143 98.1A185.8 185.8 0 0 0 137.5 102.1Z" fill="#A0522D" stroke="white" stroke-linejoin="bevel" class="zr24-cls-19"></path>
<path d="M166 130.8A145.8 145.8 0 0 1 170.4 127.8L177.6 139A132.5 132.5 0 0 0 173.7 141.7Z" fill="#000" stroke="white" stroke-linejoin="bevel" class="zr24-cls-20"></path>
<path d="M158.3 119.9A159.2 159.2 0 0 1 163.1 116.7L170.4 127.8A145.8 145.8 0 0 0 166 130.8Z" fill="#A0522D" stroke="white" stroke-linejoin="bevel" class="zr24-cls-21"></path>
<path d="M150.6 109A172.5 172.5 0 0 1 155.8 105.5L163.1 116.7A159.2 159.2 0 0 0 158.3 119.9Z" fill="#A0522D" stroke="white" stroke-linejoin="bevel" class="zr24-cls-22"></path>
<path d="M143 98.1A185.8 185.8 0 0 1 148.5 94.3L155.8 105.5A172.5 172.5 0 0 0 150.6 109Z" fill="#A0522D" stroke="white" stroke-linejoin="bevel" class="zr24-cls-23"></path>
<path d="M135.3 87.2A199.2 199.2 0 0 1 141.2 83.2L148.5 94.3A185.8 185.8 0 0 0 143 98.1Z" fill="#ff4949" fill-opacity="0.5" stroke="#fff" stroke-width="4" stroke-opacity="0.5" stroke-linejoin="bevel" class="zr24-cls-24"></path>
<path d="M127.6 76.3A212.5 212.5 0 0 1 133.9 72L141.2 83.2A199.2 199.2 0 0 0 135.3 87.2Z" fill="#A0522D" stroke="white" stroke-linejoin="bevel" class="zr24-cls-25"></path>
<path d="M184.9 150.2A119.2 119.2 0 0 1 192.3 145.7L198.7 157.4A105.8 105.8 0 0 0 192.2 161.3Z" fill="#49ff49" fill-opacity="0.5" stroke="#fff" stroke-width="4" stroke-opacity="0.5" stroke-linejoin="bevel" class="zr24-cls-26"></path>
<path d="M177.6 139A132.5 132.5 0 0 1 185.8 134.1L192.3 145.7A119.2 119.2 0 0 0 184.9 150.2Z" fill="#000" stroke="white" stroke-linejoin="bevel" class="zr24-cls-27"></path>
<path d="M170.4 127.8A145.8 145.8 0 0 1 174.8 125L181.7 136.5A132.5 132.5 0 0 0 177.6 139Z" fill="#000" stroke="white" stroke-linejoin="bevel" class="zr24-cls-28"></path>
<path d="M174.8 125A145.8 145.8 0 0 1 179.4 122.4L185.8 134.1A132.5 132.5 0 0 0 181.7 136.5Z" fill="#000" stroke="white" stroke-linejoin="bevel" class="zr24-cls-29"></path>
<path d="M211.7 180.7A79.2 79.2 0 0 1 214.2 179.4L220.2 191.3A65.8 65.8 0 0 0 218.1 192.4Z" fill="#49ff49" fill-opacity="0.5" stroke="#fff" stroke-width="4" stroke-opacity="0.5" stroke-linejoin="bevel" class="zr24-cls-30"></path>
<path d="M205.2 169.1A92.5 92.5 0 0 1 208.2 167.5L214.2 179.4A79.2 79.2 0 0 0 211.7 180.7Z" fill="#F3C142" stroke="white" stroke-linejoin="bevel" class="zr24-cls-31"></path>
<path d="M226.2 203.2A52.5 52.5 0 0 1 231.5 200.9L236.2 213.4A39.2 39.2 0 0 0 232.3 215.1Z" fill="#000" stroke="white" stroke-linejoin="bevel" class="zr24-cls-32"></path>
<path d="M220.2 191.3A65.8 65.8 0 0 1 226.7 188.4L231.5 200.9A52.5 52.5 0 0 0 226.2 203.2Z" fill="#000" stroke="white" stroke-linejoin="bevel" class="zr24-cls-33"></path>
<path d="M214.2 179.4A79.2 79.2 0 0 1 222 175.9L226.7 188.4A65.8 65.8 0 0 0 220.2 191.3Z" fill="#4949CD" fill-opacity="0.5" stroke="#fff" stroke-width="4" stroke-opacity="0.5" stroke-linejoin="bevel" class="zr24-cls-34"></path>
<path d="M208.2 167.5A92.5 92.5 0 0 1 217.3 163.5L222 175.9A79.2 79.2 0 0 0 214.2 179.4Z" fill="#F3C142" stroke="white" stroke-linejoin="bevel" class="zr24-cls-35"></path>
<path d="M202.1 155.6A105.8 105.8 0 0 1 212.6 151L217.3 163.5A92.5 92.5 0 0 0 208.2 167.5Z" fill="#000" stroke="white" stroke-linejoin="bevel" class="zr24-cls-36"></path>
<path d="M196.1 143.7A119.2 119.2 0 0 1 203.9 140.1L209.1 152.4A105.8 105.8 0 0 0 202.1 155.6Z" fill="#000" stroke="white" stroke-linejoin="bevel" class="zr24-cls-37"></path>
<path d="M190.1 131.8A132.5 132.5 0 0 1 198.7 127.8L203.9 140.1A119.2 119.2 0 0 0 196.1 143.7Z" fill="#4949CD" fill-opacity="0.5" stroke="#fff" stroke-width="4" stroke-opacity="0.5" stroke-linejoin="bevel" class="zr24-cls-38"></path>
<path d="M184 119.9A145.8 145.8 0 0 1 193.6 115.5L198.7 127.8A132.5 132.5 0 0 0 190.1 131.8Z" fill="#000" stroke="white" stroke-linejoin="bevel" class="zr24-cls-39"></path>
<path d="M178 108.1A159.2 159.2 0 0 1 188.4 103.2L193.6 115.5A145.8 145.8 0 0 0 184 119.9Z" fill="#A0522D" stroke="white" stroke-linejoin="bevel" class="zr24-cls-40"></path>
<path d="M172 96.2A172.5 172.5 0 0 1 177.6 93.4L183.2 105.5A159.2 159.2 0 0 0 178 108.1Z" fill="#A0522D" stroke="white" stroke-linejoin="bevel" class="zr24-cls-41"></path>
<path d="M177.6 93.4A172.5 172.5 0 0 1 183.3 90.9L188.4 103.2A159.2 159.2 0 0 0 183.2 105.5Z" fill="#A0522D" stroke="white" stroke-linejoin="bevel" class="zr24-cls-42"></path>
<path d="M203.9 140.1A119.2 119.2 0 0 1 207.9 138.5L212.6 151A105.8 105.8 0 0 0 209.1 152.4Z" fill="#000" stroke="white" stroke-linejoin="bevel" class="zr24-cls-43"></path>
<path d="M231.5 200.9A52.5 52.5 0 0 1 233.2 200.2L237.5 212.9A39.2 39.2 0 0 0 236.2 213.4Z" fill="#000" stroke="white" stroke-linejoin="bevel" class="zr24-cls-44"></path>
<path d="M226.7 188.4A65.8 65.8 0 0 1 229 187.6L233.2 200.2A52.5 52.5 0 0 0 231.5 200.9Z" fill="#000" stroke="white" stroke-linejoin="bevel" class="zr24-cls-45"></path>
<path d="M222 175.9A79.2 79.2 0 0 1 224.7 175L229 187.6A65.8 65.8 0 0 0 226.7 188.4Z" fill="#49ff49" fill-opacity="0.5" stroke="#fff" stroke-width="4" stroke-opacity="0.5" stroke-linejoin="bevel" class="zr24-cls-46"></path>
<path d="M217.3 163.5A92.5 92.5 0 0 1 220.5 162.3L224.7 175A79.2 79.2 0 0 0 222 175.9Z" fill="#d6c9d4" stroke="white" stroke-linejoin="bevel" class="zr24-cls-47"></path>
<path d="M237.5 212.9A39.2 39.2 0 0 1 248.6 210.9L249.1 224.2A25.8 25.8 0 0 0 241.8 225.5Z" fill="#49ff49" fill-opacity="0.5" stroke="#fff" stroke-width="4" stroke-opacity="0.5" stroke-linejoin="bevel" class="zr24-cls-48"></path>
<path d="M233.2 200.2A52.5 52.5 0 0 1 238.7 198.7L241.6 211.7A39.2 39.2 0 0 0 237.5 212.9Z" fill="#000" stroke="white" stroke-linejoin="bevel" class="zr24-cls-49"></path>
<path d="M229 187.6A65.8 65.8 0 0 1 231.2 186.9L235 199.7A52.5 52.5 0 0 0 233.2 200.2Z" fill="#FF0000" stroke="white" stroke-linejoin="bevel" class="zr24-cls-50"></path>
<path d="M231.2 186.9A65.8 65.8 0 0 1 233.5 186.3L236.9 199.2A52.5 52.5 0 0 0 235 199.7Z" fill="#0AA40D" stroke="white" stroke-linejoin="bevel" class="zr24-cls-51"></path>
<path d="M233.5 186.3A65.8 65.8 0 0 1 235.8 185.7L238.7 198.7A52.5 52.5 0 0 0 236.9 199.2Z" fill="#d6c9d4" stroke="white" stroke-linejoin="bevel" class="zr24-cls-52"></path>
<path d="M238.7 198.7A52.5 52.5 0 0 1 242.4 198L244.4 211.2A39.2 39.2 0 0 0 241.6 211.7Z" fill="#000" stroke="white" stroke-linejoin="bevel" class="zr24-cls-53"></path>
<path d="M235.8 185.7A65.8 65.8 0 0 1 238.2 185.2L240.6 198.4A52.5 52.5 0 0 0 238.7 198.7Z" fill="#0AA40D" stroke="white" stroke-linejoin="bevel" class="zr24-cls-54"></path>
<path d="M238.2 185.2A65.8 65.8 0 0 1 240.5 184.9L242.4 198A52.5 52.5 0 0 0 240.6 198.4Z" fill="#F3C142" stroke="white" stroke-linejoin="bevel" class="zr24-cls-55"></path>
<path d="M242.4 198A52.5 52.5 0 0 1 244.3 197.8L245.8 211.1A39.2 39.2 0 0 0 244.4 211.2Z" fill="#000" stroke="white" stroke-linejoin="bevel" class="zr24-cls-56"></path>
<path d="M240.5 184.9A65.8 65.8 0 0 1 242.9 184.6L244.3 197.8A52.5 52.5 0 0 0 242.4 198Z" fill="#F3C142" stroke="white" stroke-linejoin="bevel" class="zr24-cls-57"></path>
<path d="M244.3 197.8A52.5 52.5 0 0 1 246.2 197.6L247.2 210.9A39.2 39.2 0 0 0 245.8 211.1Z" fill="#000" stroke="white" stroke-linejoin="bevel" class="zr24-cls-58"></path>
<path d="M242.9 184.6A65.8 65.8 0 0 1 245.2 184.3L246.2 197.6A52.5 52.5 0 0 0 244.3 197.8Z" fill="#F3C142" stroke="white" stroke-linejoin="bevel" class="zr24-cls-59"></path>
<path d="M246.2 197.6A52.5 52.5 0 0 1 248.1 197.5L248.6 210.9A39.2 39.2 0 0 0 247.2 210.9Z" fill="#000" stroke="white" stroke-linejoin="bevel" class="zr24-cls-60"></path>
<path d="M245.2 184.3A65.8 65.8 0 0 1 247.6 184.2L248.1 197.5A52.5 52.5 0 0 0 246.2 197.6Z" fill="#d6c9d4" stroke="white" stroke-linejoin="bevel" class="zr24-cls-61"></path>
<path d="M249.1 224.2A25.8 25.8 0 0 1 250 224.2L250 237.5A12.5 12.5 0 0 0 249.5 237.5Z" fill="#C8C8C8" stroke="white" stroke-linejoin="bevel" class="zr24-cls-62"></path>
<path d="M248.6 210.9A39.2 39.2 0 0 1 250 210.8L250 224.2A25.8 25.8 0 0 0 249.1 224.2Z" fill="#49ff49" fill-opacity="0.5" stroke="#fff" stroke-width="4" stroke-opacity="0.5" stroke-linejoin="bevel" class="zr24-cls-63"></path>
<path d="M248.1 197.5A52.5 52.5 0 0 1 250 197.5L250 210.8A39.2 39.2 0 0 0 248.6 210.9Z" fill="#C8C8C8" stroke="white" stroke-linejoin="bevel" class="zr24-cls-64"></path>
<text dominant-baseline="central" text-anchor="middle" style="font-size:12px;font-family:sans-serif;" transform="matrix(0.936,-0.353,0.353,0.936,256.7717,267.9306)" fill="#333">info</text>
<text dominant-baseline="central" text-anchor="middle" style="font-size:10px;font-family:sans-serif;" transform="matrix(0.884,-0.468,0.468,0.884,265.2233,278.7141)" fill="#333">version</text>
<text dominant-baseline="central" text-anchor="middle" style="font-size:12px;font-family:sans-serif;" transform="matrix(0.929,-0.37,0.37,0.929,242.9057,232.1946)" fill="#ccc" stroke="#000" stroke-width="2" paint-order="stroke" stroke-miterlimit="2">paths</text>
<text dominant-baseline="central" text-anchor="middle" style="font-size:9px;font-family:sans-serif;" transform="matrix(0.828,-0.561,0.561,0.828,216.7964,201.0284)" fill="#ccc" stroke="#000" stroke-width="2" paint-order="stroke" stroke-miterlimit="2">operations</text>
<text dominant-baseline="central" text-anchor="middle" style="font-size:12px;font-family:sans-serif;" transform="matrix(0.817,-0.576,0.576,0.817,200.5567,179.8379)" fill="#eee" stroke="#0AA40D" stroke-width="2" paint-order="stroke" stroke-miterlimit="2">GET</text>
<text dominant-baseline="central" text-anchor="middle" style="font-size:9px;font-family:sans-serif;" transform="matrix(0.817,-0.576,0.576,0.817,192.8762,168.939)" fill="#ccc" stroke="#000" stroke-width="2" paint-order="stroke" stroke-miterlimit="2">params</text>
<path d="M-14.8 -16l66.6 0l0 32l-66.6 0Z" transform="translate(448.253 16)" fill="none" stroke="#ccc" stroke-width="0"></path>
<path d="M-7.3 -1.8L-0.1 4.8L7.3 -1.6M-7.3 4.3L-7.3 8.5L7.1 8.5L7.1 4.3M-0.1 4.7L-0.1 -8.5" transform="translate(448.253 16)" fill="none" stroke="#666"></path>
<path d="M-7.9 1M5.1 -3.4L8.1 -3.4L8.1 -6.4M8 -3C6.7 -6.4 3.2 -8.9 -1 -8.4C-5.3 -8 -8.6 -4.2 -8.4 0.2M-5.1 3.4L-8.1 3.4L-8.1 6.4M-8 3C-6.7 6.4 -3.2 8.9 1 8.4C5.3 8 8.6 4.2 8.4 -0.2" transform="translate(484.0476 16)" fill="none" stroke="#666"></path>
<style ><![CDATA[
.zr24-cls-0 {
animation:zr24-ani-0 1s cubic-bezier(0.65,0,0.35,1) both;
}
.zr24-cls-1 {
animation:zr24-ani-1 1s cubic-bezier(0.65,0,0.35,1) both;
}
.zr24-cls-2 {
animation:zr24-ani-2 1s cubic-bezier(0.65,0,0.35,1) both;
}
.zr24-cls-3 {
animation:zr24-ani-3 1s cubic-bezier(0.65,0,0.35,1) both;
}
.zr24-cls-4 {
animation:zr24-ani-4 1s cubic-bezier(0.65,0,0.35,1) both;
}
.zr24-cls-5 {
animation:zr24-ani-5 1s cubic-bezier(0.65,0,0.35,1) both;
}
.zr24-cls-6 {
animation:zr24-ani-6 1s cubic-bezier(0.65,0,0.35,1) both;
}
.zr24-cls-7 {
animation:zr24-ani-7 1s cubic-bezier(0.65,0,0.35,1) both;
}
.zr24-cls-8 {
animation:zr24-ani-8 1s cubic-bezier(0.65,0,0.35,1) both;
}
.zr24-cls-9 {
animation:zr24-ani-9 1s cubic-bezier(0.65,0,0.35,1) both;
}
.zr24-cls-10 {
animation:zr24-ani-10 1s cubic-bezier(0.65,0,0.35,1) both;
}
.zr24-cls-11 {
animation:zr24-ani-11 1s cubic-bezier(0.65,0,0.35,1) both;
}
.zr24-cls-12 {
animation:zr24-ani-12 1s cubic-bezier(0.65,0,0.35,1) both;
}
.zr24-cls-13 {
animation:zr24-ani-13 1s cubic-bezier(0.65,0,0.35,1) both;
}
.zr24-cls-14 {
animation:zr24-ani-14 1s cubic-bezier(0.65,0,0.35,1) both;
}
.zr24-cls-15 {
animation:zr24-ani-15 1s cubic-bezier(0.65,0,0.35,1) both;
}
.zr24-cls-16 {
animation:zr24-ani-16 1s cubic-bezier(0.65,0,0.35,1) both;
}
.zr24-cls-17 {
animation:zr24-ani-17 1s cubic-bezier(0.65,0,0.35,1) both;
}
.zr24-cls-18 {
animation:zr24-ani-18 1s cubic-bezier(0.65,0,0.35,1) both;
}
.zr24-cls-19 {
animation:zr24-ani-19 1s cubic-bezier(0.65,0,0.35,1) both;
}
.zr24-cls-20 {
animation:zr24-ani-20 1s cubic-bezier(0.65,0,0.35,1) both;
}
.zr24-cls-21 {
animation:zr24-ani-21 1s cubic-bezier(0.65,0,0.35,1) both;
}
.zr24-cls-22 {
animation:zr24-ani-22 1s cubic-bezier(0.65,0,0.35,1) both;
}
.zr24-cls-23 {
animation:zr24-ani-23 1s cubic-bezier(0.65,0,0.35,1) both;
}
.zr24-cls-24 {
animation:zr24-ani-24 1s cubic-bezier(0.65,0,0.35,1) both;
}
.zr24-cls-25 {
animation:zr24-ani-25 1s cubic-bezier(0.65,0,0.35,1) both;
}
.zr24-cls-26 {
animation:zr24-ani-26 1s cubic-bezier(0.65,0,0.35,1) both;
}
.zr24-cls-27 {
animation:zr24-ani-27 1s cubic-bezier(0.65,0,0.35,1) both;
}
.zr24-cls-28 {
animation:zr24-ani-28 1s cubic-bezier(0.65,0,0.35,1) both;
}
.zr24-cls-29 {
animation:zr24-ani-29 1s cubic-bezier(0.65,0,0.35,1) both;
}
.zr24-cls-30 {
animation:zr24-ani-30 1s cubic-bezier(0.65,0,0.35,1) both;
}
.zr24-cls-31 {
animation:zr24-ani-31 1s cubic-bezier(0.65,0,0.35,1) both;
}
.zr24-cls-32 {
animation:zr24-ani-32 1s cubic-bezier(0.65,0,0.35,1) both;
}
.zr24-cls-33 {
animation:zr24-ani-33 1s cubic-bezier(0.65,0,0.35,1) both;
}
.zr24-cls-34 {
animation:zr24-ani-34 1s cubic-bezier(0.65,0,0.35,1) both;
}
.zr24-cls-35 {
animation:zr24-ani-35 1s cubic-bezier(0.65,0,0.35,1) both;
}
.zr24-cls-36 {
animation:zr24-ani-36 1s cubic-bezier(0.65,0,0.35,1) both;
}
.zr24-cls-37 {
animation:zr24-ani-37 1s cubic-bezier(0.65,0,0.35,1) both;
}
.zr24-cls-38 {
animation:zr24-ani-38 1s cubic-bezier(0.65,0,0.35,1) both;
}
.zr24-cls-39 {
animation:zr24-ani-39 1s cubic-bezier(0.65,0,0.35,1) both;
}
.zr24-cls-40 {
animation:zr24-ani-40 1s cubic-bezier(0.65,0,0.35,1) both;
}
.zr24-cls-41 {
animation:zr24-ani-41 1s cubic-bezier(0.65,0,0.35,1) both;
}
.zr24-cls-42 {
animation:zr24-ani-42 1s cubic-bezier(0.65,0,0.35,1) both;
}
.zr24-cls-43 {
animation:zr24-ani-43 1s cubic-bezier(0.65,0,0.35,1) both;
}
.zr24-cls-44 {
animation:zr24-ani-44 1s cubic-bezier(0.65,0,0.35,1) both;
}
.zr24-cls-45 {
animation:zr24-ani-45 1s cubic-bezier(0.65,0,0.35,1) both;
}
.zr24-cls-46 {
animation:zr24-ani-46 1s cubic-bezier(0.65,0,0.35,1) both;
}
.zr24-cls-47 {
animation:zr24-ani-47 1s cubic-bezier(0.65,0,0.35,1) both;
}
.zr24-cls-48 {
animation:zr24-ani-48 1s cubic-bezier(0.65,0,0.35,1) both;
}
.zr24-cls-49 {
animation:zr24-ani-49 1s cubic-bezier(0.65,0,0.35,1) both;
}
.zr24-cls-50 {
animation:zr24-ani-50 1s cubic-bezier(0.65,0,0.35,1) both;
}
.zr24-cls-51 {
animation:zr24-ani-51 1s cubic-bezier(0.65,0,0.35,1) both;
}
.zr24-cls-52 {
animation:zr24-ani-52 1s cubic-bezier(0.65,0,0.35,1) both;
}
.zr24-cls-53 {
animation:zr24-ani-53 1s cubic-bezier(0.65,0,0.35,1) both;
}
.zr24-cls-54 {
animation:zr24-ani-54 1s cubic-bezier(0.65,0,0.35,1) both;
}
.zr24-cls-55 {
animation:zr24-ani-55 1s cubic-bezier(0.65,0,0.35,1) both;
}
.zr24-cls-56 {
animation:zr24-ani-56 1s cubic-bezier(0.65,0,0.35,1) both;
}
.zr24-cls-57 {
animation:zr24-ani-57 1s cubic-bezier(0.65,0,0.35,1) both;
}
.zr24-cls-58 {
animation:zr24-ani-58 1s cubic-bezier(0.65,0,0.35,1) both;
}
.zr24-cls-59 {
animation:zr24-ani-59 1s cubic-bezier(0.65,0,0.35,1) both;
}
.zr24-cls-60 {
animation:zr24-ani-60 1s cubic-bezier(0.65,0,0.35,1) both;
}
.zr24-cls-61 {
animation:zr24-ani-61 1s cubic-bezier(0.65,0,0.35,1) both;
}
.zr24-cls-62 {
animation:zr24-ani-62 1s cubic-bezier(0.65,0,0.35,1) both;
}
.zr24-cls-63 {
animation:zr24-ani-63 1s cubic-bezier(0.65,0,0.35,1) both;
}
.zr24-cls-64 {
animation:zr24-ani-64 1s cubic-bezier(0.65,0,0.35,1) both;
}
@keyframes zr24-ani-0 {
0% {
d:path("M250 237.5A12.5 12.5 0 1 1 241.7 240.6A12.5 12.5 0 1 0 250 237.5Z");
}
100% {
d:path("M250 224.2A25.8 25.8 0 1 1 232.9 230.6L241.7 240.6A12.5 12.5 0 1 0 250 237.5Z");
}
}
@keyframes zr24-ani-1 {
0% {
d:path("M250 224.2A25.8 25.8 0 1 1 228.6 235.5A25.8 25.8 0 1 0 250 224.2Z");
}
100% {
d:path("M250 210.8A39.2 39.2 0 1 1 217.6 228L228.6 235.5A25.8 25.8 0 1 0 250 224.2Z");
}
}
@keyframes zr24-ani-2 {
0% {
d:path("M228.6 235.5A25.8 25.8 0 0 1 232.9 230.6L232.9 230.6A25.8 25.8 0 0 0 228.6 235.5Z");
}
100% {
d:path("M217.6 228A39.2 39.2 0 0 1 224.1 220.6L232.9 230.6A25.8 25.8 0 0 0 228.6 235.5Z");
}
}
@keyframes zr24-ani-3 {
0% {
d:path("M241.7 240.6A12.5 12.5 0 0 1 249.5 237.5L249.5 237.5A12.5 12.5 0 0 0 241.7 240.6Z");
}
100% {
d:path("M232.9 230.6A25.8 25.8 0 0 1 249.1 224.2L249.5 237.5A12.5 12.5 0 0 0 241.7 240.6Z");
}
}
@keyframes zr24-ani-4 {
0% {
d:path("M232.9 230.6A25.8 25.8 0 0 1 241.8 225.5L241.8 225.5A25.8 25.8 0 0 0 232.9 230.6Z");
}
100% {
d:path("M224.1 220.6A39.2 39.2 0 0 1 237.5 212.9L241.8 225.5A25.8 25.8 0 0 0 232.9 230.6Z");
}
}
@keyframes zr24-ani-5 {
0% {
d:path("M224.1 220.6A39.2 39.2 0 0 1 232.3 215.1L232.3 215.1A39.2 39.2 0 0 0 224.1 220.6Z");
}
100% {
d:path("M215.3 210.6A52.5 52.5 0 0 1 226.2 203.2L232.3 215.1A39.2 39.2 0 0 0 224.1 220.6Z");
}
}
@keyframes zr24-ani-6 {
0% {
d:path("M215.3 210.6A52.5 52.5 0 0 1 226.2 203.2L226.2 203.2A52.5 52.5 0 0 0 215.3 210.6Z");
}
100% {
d:path("M206.5 200.6A65.8 65.8 0 0 1 220.2 191.3L226.2 203.2A52.5 52.5 0 0 0 215.3 210.6Z");
}
}
@keyframes zr24-ani-7 {
0% {
d:path("M206.5 200.6A65.8 65.8 0 0 1 218.1 192.4L218.1 192.4A65.8 65.8 0 0 0 206.5 200.6Z");
}
100% {
d:path("M197.7 190.6A79.2 79.2 0 0 1 211.7 180.7L218.1 192.4A65.8 65.8 0 0 0 206.5 200.6Z");
}
}
@keyframes zr24-ani-8 {
0% {
d:path("M197.7 190.6A79.2 79.2 0 0 1 211.7 180.7L211.7 180.7A79.2 79.2 0 0 0 197.7 190.6Z");
}
100% {
d:path("M188.9 180.6A92.5 92.5 0 0 1 205.2 169.1L211.7 180.7A79.2 79.2 0 0 0 197.7 190.6Z");
}
}
@keyframes zr24-ani-9 {
0% {
d:path("M188.9 180.6A92.5 92.5 0 0 1 205.2 169.1L205.2 169.1A92.5 92.5 0 0 0 188.9 180.6Z");
}
100% {
d:path("M180 170.6A105.8 105.8 0 0 1 198.7 157.4L205.2 169.1A92.5 92.5 0 0 0 188.9 180.6Z");
}
}
@keyframes zr24-ani-10 {
0% {
d:path("M180 170.6A105.8 105.8 0 0 1 192.2 161.3L192.2 161.3A105.8 105.8 0 0 0 180 170.6Z");
}
100% {
d:path("M171.2 160.6A119.2 119.2 0 0 1 184.9 150.2L192.2 161.3A105.8 105.8 0 0 0 180 170.6Z");
}
}
@keyframes zr24-ani-11 {
0% {
d:path("M171.2 160.6A119.2 119.2 0 0 1 184.9 150.2L184.9 150.2A119.2 119.2 0 0 0 171.2 160.6Z");
}
100% {
d:path("M162.4 150.6A132.5 132.5 0 0 1 177.6 139L184.9 150.2A119.2 119.2 0 0 0 171.2 160.6Z");
}
}
@keyframes zr24-ani-12 {
0% {
d:path("M162.4 150.6A132.5 132.5 0 0 1 173.7 141.7L173.7 141.7A132.5 132.5 0 0 0 162.4 150.6Z");
}
100% {
d:path("M153.6 140.6A145.8 145.8 0 0 1 166 130.8L173.7 141.7A132.5 132.5 0 0 0 162.4 150.6Z");
}
}
@keyframes zr24-ani-13 {
0% {
d:path("M153.6 140.6A145.8 145.8 0 0 1 166 130.8L166 130.8A145.8 145.8 0 0 0 153.6 140.6Z");
}
100% {
d:path("M144.8 130.6A159.2 159.2 0 0 1 158.3 119.9L166 130.8A145.8 145.8 0 0 0 153.6 140.6Z");
}
}
@keyframes zr24-ani-14 {
0% {
d:path("M144.8 130.6A159.2 159.2 0 0 1 158.3 119.9L158.3 119.9A159.2 159.2 0 0 0 144.8 130.6Z");
}
100% {
d:path("M136 120.6A172.5 172.5 0 0 1 150.6 109L158.3 119.9A159.2 159.2 0 0 0 144.8 130.6Z");
}
}
@keyframes zr24-ani-15 {
0% {
d:path("M136 120.6A172.5 172.5 0 0 1 145.6 112.7L145.6 112.7A172.5 172.5 0 0 0 136 120.6Z");
}
100% {
d:path("M127.2 110.6A185.8 185.8 0 0 1 137.5 102.1L145.6 112.7A172.5 172.5 0 0 0 136 120.6Z");
}
}
@keyframes zr24-ani-16 {
0% {
d:path("M127.2 110.6A185.8 185.8 0 0 1 132.3 106.2L132.3 106.2A185.8 185.8 0 0 0 127.2 110.6Z");
}
100% {
d:path("M118.3 100.6A199.2 199.2 0 0 1 123.8 95.9L132.3 106.2A185.8 185.8 0 0 0 127.2 110.6Z");
}
}
@keyframes zr24-ani-17 {
0% {
d:path("M132.3 106.2A185.8 185.8 0 0 1 137.5 102.1L137.5 102.1A185.8 185.8 0 0 0 132.3 106.2Z");
}
100% {
d:path("M123.8 95.9A199.2 199.2 0 0 1 129.5 91.4L137.5 102.1A185.8 185.8 0 0 0 132.3 106.2Z");
}
}
@keyframes zr24-ani-18 {
0% {
d:path("M145.6 112.7A172.5 172.5 0 0 1 150.6 109L150.6 109A172.5 172.5 0 0 0 145.6 112.7Z");
}
100% {
d:path("M137.5 102.1A185.8 185.8 0 0 1 143 98.1L150.6 109A172.5 172.5 0 0 0 145.6 112.7Z");
}
}
@keyframes zr24-ani-19 {
0% {
d:path("M137.5 102.1A185.8 185.8 0 0 1 143 98.1L143 98.1A185.8 185.8 0 0 0 137.5 102.1Z");
}
100% {
d:path("M129.5 91.4A199.2 199.2 0 0 1 135.3 87.2L143 98.1A185.8 185.8 0 0 0 137.5 102.1Z");
}
}
@keyframes zr24-ani-20 {
0% {
d:path("M173.7 141.7A132.5 132.5 0 0 1 177.6 139L177.6 139A132.5 132.5 0 0 0 173.7 141.7Z");
}
100% {
d:path("M166 130.8A145.8 145.8 0 0 1 170.4 127.8L177.6 139A132.5 132.5 0 0 0 173.7 141.7Z");
}
}
@keyframes zr24-ani-21 {
0% {
d:path("M166 130.8A145.8 145.8 0 0 1 170.4 127.8L170.4 127.8A145.8 145.8 0 0 0 166 130.8Z");
}
100% {
d:path("M158.3 119.9A159.2 159.2 0 0 1 163.1 116.7L170.4 127.8A145.8 145.8 0 0 0 166 130.8Z");
}
}
@keyframes zr24-ani-22 {
0% {
d:path("M158.3 119.9A159.2 159.2 0 0 1 163.1 116.7L163.1 116.7A159.2 159.2 0 0 0 158.3 119.9Z");
}
100% {
d:path("M150.6 109A172.5 172.5 0 0 1 155.8 105.5L163.1 116.7A159.2 159.2 0 0 0 158.3 119.9Z");
}
}
@keyframes zr24-ani-23 {
0% {
d:path("M150.6 109A172.5 172.5 0 0 1 155.8 105.5L155.8 105.5A172.5 172.5 0 0 0 150.6 109Z");
}
100% {
d:path("M143 98.1A185.8 185.8 0 0 1 148.5 94.3L155.8 105.5A172.5 172.5 0 0 0 150.6 109Z");
}
}
@keyframes zr24-ani-24 {
0% {
d:path("M143 98.1A185.8 185.8 0 0 1 148.5 94.3L148.5 94.3A185.8 185.8 0 0 0 143 98.1Z");
}
100% {
d:path("M135.3 87.2A199.2 199.2 0 0 1 141.2 83.2L148.5 94.3A185.8 185.8 0 0 0 143 98.1Z");
}
}
@keyframes zr24-ani-25 {
0% {
d:path("M135.3 87.2A199.2 199.2 0 0 1 141.2 83.2L141.2 83.2A199.2 199.2 0 0 0 135.3 87.2Z");
}
100% {
d:path("M127.6 76.3A212.5 212.5 0 0 1 133.9 72L141.2 83.2A199.2 199.2 0 0 0 135.3 87.2Z");
}
}
@keyframes zr24-ani-26 {
0% {
d:path("M192.2 161.3A105.8 105.8 0 0 1 198.7 157.4L198.7 157.4A105.8 105.8 0 0 0 192.2 161.3Z");
}
100% {
d:path("M184.9 150.2A119.2 119.2 0 0 1 192.3 145.7L198.7 157.4A105.8 105.8 0 0 0 192.2 161.3Z");
}
}
@keyframes zr24-ani-27 {
0% {
d:path("M184.9 150.2A119.2 119.2 0 0 1 192.3 145.7L192.3 145.7A119.2 119.2 0 0 0 184.9 150.2Z");
}
100% {
d:path("M177.6 139A132.5 132.5 0 0 1 185.8 134.1L192.3 145.7A119.2 119.2 0 0 0 184.9 150.2Z");
}
}
@keyframes zr24-ani-28 {
0% {
d:path("M177.6 139A132.5 132.5 0 0 1 181.7 136.5L181.7 136.5A132.5 132.5 0 0 0 177.6 139Z");
}
100% {
d:path("M170.4 127.8A145.8 145.8 0 0 1 174.8 125L181.7 136.5A132.5 132.5 0 0 0 177.6 139Z");
}
}
@keyframes zr24-ani-29 {
0% {
d:path("M181.7 136.5A132.5 132.5 0 0 1 185.8 134.1L185.8 134.1A132.5 132.5 0 0 0 181.7 136.5Z");
}
100% {
d:path("M174.8 125A145.8 145.8 0 0 1 179.4 122.4L185.8 134.1A132.5 132.5 0 0 0 181.7 136.5Z");
}
}
@keyframes zr24-ani-30 {
0% {
d:path("M218.1 192.4A65.8 65.8 0 0 1 220.2 191.3L220.2 191.3A65.8 65.8 0 0 0 218.1 192.4Z");
}
100% {
d:path("M211.7 180.7A79.2 79.2 0 0 1 214.2 179.4L220.2 191.3A65.8 65.8 0 0 0 218.1 192.4Z");
}
}
@keyframes zr24-ani-31 {
0% {
d:path("M211.7 180.7A79.2 79.2 0 0 1 214.2 179.4L214.2 179.4A79.2 79.2 0 0 0 211.7 180.7Z");
}
100% {
d:path("M205.2 169.1A92.5 92.5 0 0 1 208.2 167.5L214.2 179.4A79.2 79.2 0 0 0 211.7 180.7Z");
}
}
@keyframes zr24-ani-32 {
0% {
d:path("M232.3 215.1A39.2 39.2 0 0 1 236.2 213.4L236.2 213.4A39.2 39.2 0 0 0 232.3 215.1Z");
}
100% {
d:path("M226.2 203.2A52.5 52.5 0 0 1 231.5 200.9L236.2 213.4A39.2 39.2 0 0 0 232.3 215.1Z");
}
}
@keyframes zr24-ani-33 {
0% {
d:path("M226.2 203.2A52.5 52.5 0 0 1 231.5 200.9L231.5 200.9A52.5 52.5 0 0 0 226.2 203.2Z");
}
100% {
d:path("M220.2 191.3A65.8 65.8 0 0 1 226.7 188.4L231.5 200.9A52.5 52.5 0 0 0 226.2 203.2Z");
}
}
@keyframes zr24-ani-34 {
0% {
d:path("M220.2 191.3A65.8 65.8 0 0 1 226.7 188.4L226.7 188.4A65.8 65.8 0 0 0 220.2 191.3Z");
}
100% {
d:path("M214.2 179.4A79.2 79.2 0 0 1 222 175.9L226.7 188.4A65.8 65.8 0 0 0 220.2 191.3Z");
}
}
@keyframes zr24-ani-35 {
0% {
d:path("M214.2 179.4A79.2 79.2 0 0 1 222 175.9L222 175.9A79.2 79.2 0 0 0 214.2 179.4Z");
}
100% {
d:path("M208.2 167.5A92.5 92.5 0 0 1 217.3 163.5L222 175.9A79.2 79.2 0 0 0 214.2 179.4Z");
}
}
@keyframes zr24-ani-36 {
0% {
d:path("M208.2 167.5A92.5 92.5 0 0 1 217.3 163.5L217.3 163.5A92.5 92.5 0 0 0 208.2 167.5Z");
}
100% {
d:path("M202.1 155.6A105.8 105.8 0 0 1 212.6 151L217.3 163.5A92.5 92.5 0 0 0 208.2 167.5Z");
}
}
@keyframes zr24-ani-37 {
0% {
d:path("M202.1 155.6A105.8 105.8 0 0 1 209.1 152.4L209.1 152.4A105.8 105.8 0 0 0 202.1 155.6Z");
}
100% {
d:path("M196.1 143.7A119.2 119.2 0 0 1 203.9 140.1L209.1 152.4A105.8 105.8 0 0 0 202.1 155.6Z");
}
}
@keyframes zr24-ani-38 {
0% {
d:path("M196.1 143.7A119.2 119.2 0 0 1 203.9 140.1L203.9 140.1A119.2 119.2 0 0 0 196.1 143.7Z");
}
100% {
d:path("M190.1 131.8A132.5 132.5 0 0 1 198.7 127.8L203.9 140.1A119.2 119.2 0 0 0 196.1 143.7Z");
}
}
@keyframes zr24-ani-39 {
0% {
d:path("M190.1 131.8A132.5 132.5 0 0 1 198.7 127.8L198.7 127.8A132.5 132.5 0 0 0 190.1 131.8Z");
}
100% {
d:path("M184 119.9A145.8 145.8 0 0 1 193.6 115.5L198.7 127.8A132.5 132.5 0 0 0 190.1 131.8Z");
}
}
@keyframes zr24-ani-40 {
0% {
d:path("M184 119.9A145.8 145.8 0 0 1 193.6 115.5L193.6 115.5A145.8 145.8 0 0 0 184 119.9Z");
}
100% {
d:path("M178 108.1A159.2 159.2 0 0 1 188.4 103.2L193.6 115.5A145.8 145.8 0 0 0 184 119.9Z");
}
}
@keyframes zr24-ani-41 {
0% {
d:path("M178 108.1A159.2 159.2 0 0 1 183.2 105.5L183.2 105.5A159.2 159.2 0 0 0 178 108.1Z");
}
100% {
d:path("M172 96.2A172.5 172.5 0 0 1 177.6 93.4L183.2 105.5A159.2 159.2 0 0 0 178 108.1Z");
}
}
@keyframes zr24-ani-42 {
0% {
d:path("M183.2 105.5A159.2 159.2 0 0 1 188.4 103.2L188.4 103.2A159.2 159.2 0 0 0 183.2 105.5Z");
}
100% {
d:path("M177.6 93.4A172.5 172.5 0 0 1 183.3 90.9L188.4 103.2A159.2 159.2 0 0 0 183.2 105.5Z");
}
}
@keyframes zr24-ani-43 {
0% {
d:path("M209.1 152.4A105.8 105.8 0 0 1 212.6 151L212.6 151A105.8 105.8 0 0 0 209.1 152.4Z");
}
100% {
d:path("M203.9 140.1A119.2 119.2 0 0 1 207.9 138.5L212.6 151A105.8 105.8 0 0 0 209.1 152.4Z");
}
}
@keyframes zr24-ani-44 {
0% {
d:path("M236.2 213.4A39.2 39.2 0 0 1 237.5 212.9L237.5 212.9A39.2 39.2 0 0 0 236.2 213.4Z");
}
100% {
d:path("M231.5 200.9A52.5 52.5 0 0 1 233.2 200.2L237.5 212.9A39.2 39.2 0 0 0 236.2 213.4Z");
}
}
@keyframes zr24-ani-45 {
0% {
d:path("M231.5 200.9A52.5 52.5 0 0 1 233.2 200.2L233.2 200.2A52.5 52.5 0 0 0 231.5 200.9Z");
}
100% {
d:path("M226.7 188.4A65.8 65.8 0 0 1 229 187.6L233.2 200.2A52.5 52.5 0 0 0 231.5 200.9Z");
}
}
@keyframes zr24-ani-46 {
0% {
d:path("M226.7 188.4A65.8 65.8 0 0 1 229 187.6L229 187.6A65.8 65.8 0 0 0 226.7 188.4Z");
}
100% {
d:path("M222 175.9A79.2 79.2 0 0 1 224.7 175L229 187.6A65.8 65.8 0 0 0 226.7 188.4Z");
}
}
@keyframes zr24-ani-47 {
0% {
d:path("M222 175.9A79.2 79.2 0 0 1 224.7 175L224.7 175A79.2 79.2 0 0 0 222 175.9Z");
}
100% {
d:path("M217.3 163.5A92.5 92.5 0 0 1 220.5 162.3L224.7 175A79.2 79.2 0 0 0 222 175.9Z");
}
}
@keyframes zr24-ani-48 {
0% {
d:path("M241.8 225.5A25.8 25.8 0 0 1 249.1 224.2L249.1 224.2A25.8 25.8 0 0 0 241.8 225.5Z");
}
100% {
d:path("M237.5 212.9A39.2 39.2 0 0 1 248.6 210.9L249.1 224.2A25.8 25.8 0 0 0 241.8 225.5Z");
}
}
@keyframes zr24-ani-49 {
0% {
d:path("M237.5 212.9A39.2 39.2 0 0 1 241.6 211.7L241.6 211.7A39.2 39.2 0 0 0 237.5 212.9Z");
}
100% {
d:path("M233.2 200.2A52.5 52.5 0 0 1 238.7 198.7L241.6 211.7A39.2 39.2 0 0 0 237.5 212.9Z");
}
}
@keyframes zr24-ani-50 {
0% {
d:path("M233.2 200.2A52.5 52.5 0 0 1 235 199.7L235 199.7A52.5 52.5 0 0 0 233.2 200.2Z");
}
100% {
d:path("M229 187.6A65.8 65.8 0 0 1 231.2 186.9L235 199.7A52.5 52.5 0 0 0 233.2 200.2Z");
}
}
@keyframes zr24-ani-51 {
0% {
d:path("M235 199.7A52.5 52.5 0 0 1 236.9 199.2L236.9 199.2A52.5 52.5 0 0 0 235 199.7Z");
}
100% {
d:path("M231.2 186.9A65.8 65.8 0 0 1 233.5 186.3L236.9 199.2A52.5 52.5 0 0 0 235 199.7Z");
}
}
@keyframes zr24-ani-52 {
0% {
d:path("M236.9 199.2A52.5 52.5 0 0 1 238.7 198.7L238.7 198.7A52.5 52.5 0 0 0 236.9 199.2Z");
}
100% {
d:path("M233.5 186.3A65.8 65.8 0 0 1 235.8 185.7L238.7 198.7A52.5 52.5 0 0 0 236.9 199.2Z");
}
}
@keyframes zr24-ani-53 {
0% {
d:path("M241.6 211.7A39.2 39.2 0 0 1 244.4 211.2L244.4 211.2A39.2 39.2 0 0 0 241.6 211.7Z");
}
100% {
d:path("M238.7 198.7A52.5 52.5 0 0 1 242.4 198L244.4 211.2A39.2 39.2 0 0 0 241.6 211.7Z");
}
}
@keyframes zr24-ani-54 {
0% {
d:path("M238.7 198.7A52.5 52.5 0 0 1 240.6 198.4L240.6 198.4A52.5 52.5 0 0 0 238.7 198.7Z");
}
100% {
d:path("M235.8 185.7A65.8 65.8 0 0 1 238.2 185.2L240.6 198.4A52.5 52.5 0 0 0 238.7 198.7Z");
}
}
@keyframes zr24-ani-55 {
0% {
d:path("M240.6 198.4A52.5 52.5 0 0 1 242.4 198L242.4 198A52.5 52.5 0 0 0 240.6 198.4Z");
}
100% {
d:path("M238.2 185.2A65.8 65.8 0 0 1 240.5 184.9L242.4 198A52.5 52.5 0 0 0 240.6 198.4Z");
}
}
@keyframes zr24-ani-56 {
0% {
d:path("M244.4 211.2A39.2 39.2 0 0 1 245.8 211.1L245.8 211.1A39.2 39.2 0 0 0 244.4 211.2Z");
}
100% {
d:path("M242.4 198A52.5 52.5 0 0 1 244.3 197.8L245.8 211.1A39.2 39.2 0 0 0 244.4 211.2Z");
}
}
@keyframes zr24-ani-57 {
0% {
d:path("M242.4 198A52.5 52.5 0 0 1 244.3 197.8L244.3 197.8A52.5 52.5 0 0 0 242.4 198Z");
}
100% {
d:path("M240.5 184.9A65.8 65.8 0 0 1 242.9 184.6L244.3 197.8A52.5 52.5 0 0 0 242.4 198Z");
}
}
@keyframes zr24-ani-58 {
0% {
d:path("M245.8 211.1A39.2 39.2 0 0 1 247.2 210.9L247.2 210.9A39.2 39.2 0 0 0 245.8 211.1Z");
}
100% {
d:path("M244.3 197.8A52.5 52.5 0 0 1 246.2 197.6L247.2 210.9A39.2 39.2 0 0 0 245.8 211.1Z");
}
}
@keyframes zr24-ani-59 {
0% {
d:path("M244.3 197.8A52.5 52.5 0 0 1 246.2 197.6L246.2 197.6A52.5 52.5 0 0 0 244.3 197.8Z");
}
100% {
d:path("M242.9 184.6A65.8 65.8 0 0 1 245.2 184.3L246.2 197.6A52.5 52.5 0 0 0 244.3 197.8Z");
}
}
@keyframes zr24-ani-60 {
0% {
d:path("M247.2 210.9A39.2 39.2 0 0 1 248.6 210.9L248.6 210.9A39.2 39.2 0 0 0 247.2 210.9Z");
}
100% {
d:path("M246.2 197.6A52.5 52.5 0 0 1 248.1 197.5L248.6 210.9A39.2 39.2 0 0 0 247.2 210.9Z");
}
}
@keyframes zr24-ani-61 {
0% {
d:path("M246.2 197.6A52.5 52.5 0 0 1 248.1 197.5L248.1 197.5A52.5 52.5 0 0 0 246.2 197.6Z");
}
100% {
d:path("M245.2 184.3A65.8 65.8 0 0 1 247.6 184.2L248.1 197.5A52.5 52.5 0 0 0 246.2 197.6Z");
}
}
@keyframes zr24-ani-62 {
0% {
d:path("M249.5 237.5A12.5 12.5 0 0 1 250 237.5L250 237.5A12.5 12.5 0 0 0 249.5 237.5Z");
}
100% {
d:path("M249.1 224.2A25.8 25.8 0 0 1 250 224.2L250 237.5A12.5 12.5 0 0 0 249.5 237.5Z");
}
}
@keyframes zr24-ani-63 {
0% {
d:path("M249.1 224.2A25.8 25.8 0 0 1 250 224.2L250 224.2A25.8 25.8 0 0 0 249.1 224.2Z");
}
100% {
d:path("M248.6 210.9A39.2 39.2 0 0 1 250 210.8L250 224.2A25.8 25.8 0 0 0 249.1 224.2Z");
}
}
@keyframes zr24-ani-64 {
0% {
d:path("M248.6 210.9A39.2 39.2 0 0 1 250 210.8L250 210.8A39.2 39.2 0 0 0 248.6 210.9Z");
}
100% {
d:path("M248.1 197.5A52.5 52.5 0 0 1 250 197.5L250 210.8A39.2 39.2 0 0 0 248.6 210.9Z");
}
}
]]>

</style>
</svg>