<svg width="500" height="500" xmlns="http://www.w3.org/2000/svg" xmlns:xlink="http://www.w3.org/1999/xlink" version="1.1" baseProfile="full" viewBox="0 0 500 500">
<rect width="500" height="500" x="0" y="0" id="0" fill="none"></rect>
<path d="M250 223.2A26.8 26.8 0 1 1 246.5 276.6L248.4 262.4A12.5 12.5 0 1 0 250 237.5Z" fill="#000" stroke="white" stroke-linejoin="bevel" class="zr0-cls-0"></path>
<path d="M250 208.9A41.1 41.1 0 0 1 289.7 260.6L275.9 256.9A26.8 26.8 0 0 0 250 223.2Z" fill="#49ff49" fill-opacity="0.5" stroke="#fff" stroke-width="4" stroke-opacity="0.5" stroke-linejoin="bevel" class="zr0-cls-1"></path>
<path d="M250 194.6A55.4 55.4 0 0 1 271.2 198.9L265.7 212.1A41.1 41.1 0 0 0 250 208.9Z" fill="#000" stroke="white" stroke-linejoin="bevel" class="zr0-cls-2"></path>
<path d="M250 180.4A69.6 69.6 0 0 1 259.1 181L257.2 195.1A55.4 55.4 0 0 0 250 194.6Z" fill="#FF0000" stroke="white" stroke-linejoin="bevel" class="zr0-cls-3"></path>
<path d="M259.1 181A69.6 69.6 0 0 1 268 182.7L264.3 196.5A55.4 55.4 0 0 0 257.2 195.1Z" fill="#0AA40D" stroke="white" stroke-linejoin="bevel" class="zr0-cls-4"></path>
<path d="M268 182.7A69.6 69.6 0 0 1 276.7 185.7L271.2 198.9A55.4 55.4 0 0 0 264.3 196.5Z" fill="#6dc0e3" stroke="white" stroke-linejoin="bevel" class="zr0-cls-5"></path>
<path d="M271.2 198.9A55.4 55.4 0 0 1 283.7 206.1L275 217.4A41.1 41.1 0 0 0 265.7 212.1Z" fill="#000" stroke="white" stroke-linejoin="bevel" class="zr0-cls-6"></path>
<path d="M276.7 185.7A69.6 69.6 0 0 1 284.8 189.7L277.7 202.1A55.4 55.4 0 0 0 271.2 198.9Z" fill="#0AA40D" stroke="white" stroke-linejoin="bevel" class="zr0-cls-7"></path>
<path d="M284.8 189.7A69.6 69.6 0 0 1 292.4 194.7L283.7 206.1A55.4 55.4 0 0 0 277.7 202.1Z" fill="#F3C142" stroke="white" stroke-linejoin="bevel" class="zr0-cls-8"></path>
<path d="M283.7 206.1A55.4 55.4 0 0 1 289.1 210.9L279 221A41.1 41.1 0 0 0 275 217.4Z" fill="#000" stroke="white" stroke-linejoin="bevel" class="zr0-cls-9"></path>
<path d="M292.4 194.7A69.6 69.6 0 0 1 299.2 200.8L289.1 210.9A55.4 55.4 0 0 0 283.7 206.1Z" fill="#0AA40D" stroke="white" stroke-linejoin="bevel" class="zr0-cls-10"></path>
<path d="M289.1 210.9A55.4 55.4 0 0 1 293.9 216.3L282.6 225A41.1 41.1 0 0 0 279 221Z" fill="#000" stroke="white" stroke-linejoin="bevel" class="zr0-cls-11"></path>
<path d="M299.2 200.8A69.6 69.6 0 0 1 305.3 207.6L293.9 216.3A55.4 55.4 0 0 0 289.1 210.9Z" fill="#F3C142" stroke="white" stroke-linejoin="bevel" class="zr0-cls-12"></path>
<path d="M293.9 216.3A55.4 55.4 0 0 1 297.9 222.3L285.6 229.5A41.1 41.1 0 0 0 282.6 225Z" fill="#000" stroke="white" stroke-linejoin="bevel" class="zr0-cls-13"></path>
<path d="M305.3 207.6A69.6 69.6 0 0 1 310.3 215.2L297.9 222.3A55.4 55.4 0 0 0 293.9 216.3Z" fill="#0AA40D" stroke="white" stroke-linejoin="bevel" class="zr0-cls-14"></path>
<path d="M297.9 222.3A55.4 55.4 0 0 1 301.1 228.8L287.9 234.3A41.1 41.1 0 0 0 285.6 229.5Z" fill="#000" stroke="white" stroke-linejoin="bevel" class="zr0-cls-15"></path>
<path d="M310.3 215.2A69.6 69.6 0 0 1 314.3 223.3L301.1 228.8A55.4 55.4 0 0 0 297.9 222.3Z" fill="#F3C142" stroke="white" stroke-linejoin="bevel" class="zr0-cls-16"></path>
<path d="M301.1 228.8A55.4 55.4 0 0 1 303.5 235.7L289.7 239.4A41.1 41.1 0 0 0 287.9 234.3Z" fill="#000" stroke="white" stroke-linejoin="bevel" class="zr0-cls-17"></path>
<path d="M314.3 223.3A69.6 69.6 0 0 1 317.3 232L303.5 235.7A55.4 55.4 0 0 0 301.1 228.8Z" fill="#F3C142" stroke="white" stroke-linejoin="bevel" class="zr0-cls-18"></path>
<path d="M303.5 235.7A55.4 55.4 0 0 1 304.9 242.8L290.7 244.6A41.1 41.1 0 0 0 289.7 239.4Z" fill="#000" stroke="white" stroke-linejoin="bevel" class="zr0-cls-19"></path>
<path d="M317.3 232A69.6 69.6 0 0 1 319 240.9L304.9 242.8A55.4 55.4 0 0 0 303.5 235.7Z" fill="#F3C142" stroke="white" stroke-linejoin="bevel" class="zr0-cls-20"></path>
<path d="M304.9 242.8A55.4 55.4 0 0 1 305.4 250L291.1 250A41.1 41.1 0 0 0 290.7 244.6Z" fill="#000" stroke="white" stroke-linejoin="bevel" class="zr0-cls-21"></path>
<path d="M319 240.9A69.6 69.6 0 0 1 319.6 250L305.4 250A55.4 55.4 0 0 0 304.9 242.8Z" fill="#F3C142" stroke="white" stroke-linejoin="bevel" class="zr0-cls-22"></path>
<path d="M305.4 250A55.4 55.4 0 0 1 304.9 257.2L290.7 255.4A41.1 41.1 0 0 0 291.1 250Z" fill="#000" stroke="white" stroke-linejoin="bevel" class="zr0-cls-23"></path>
<path d="M319.6 250A69.6 69.6 0 0 1 319 259.1L304.9 257.2A55.4 55.4 0 0 0 305.4 250Z" fill="#F3C142" stroke="white" stroke-linejoin="bevel" class="zr0-cls-24"></path>
<path d="M304.9 257.2A55.4 55.4 0 0 1 303.5 264.3L289.7 260.6A41.1 41.1 0 0 0 290.7 255.4Z" fill="#000" stroke="white" stroke-linejoin="bevel" class="zr0-cls-25"></path>
<path d="M319 259.1A69.6 69.6 0 0 1 317.3 268L303.5 264.3A55.4 55.4 0 0 0 304.9 257.2Z" fill="#F3C142" stroke="white" stroke-linejoin="bevel" class="zr0-cls-26"></path>
<path d="M289.7 260.6A41.1 41.1 0 0 1 244.6 290.7L246.5 276.6A26.8 26.8 0 0 0 275.9 256.9Z" fill="#4949CD" fill-opacity="0.5" stroke="#fff" stroke-width="4" stroke-opacity="0.5" stroke-linejoin="bevel" class="zr0-cls-27"></path>
<path d="M303.5 264.3A55.4 55.4 0 0 1 283.7 293.9L275 282.6A41.1 41.1 0 0 0 289.7 260.6Z" fill="#000" stroke="white" stroke-linejoin="bevel" class="zr0-cls-28"></path>
<path d="M317.3 268A69.6 69.6 0 0 1 292.4 305.3L283.7 293.9A55.4 55.4 0 0 0 303.5 264.3Z" fill="#000" stroke="white" stroke-linejoin="bevel" class="zr0-cls-29"></path>
<path d="M331.1 271.7A83.9 83.9 0 0 1 301.1 316.6L292.4 305.3A69.6 69.6 0 0 0 317.3 268Z" fill="#4949CD" fill-opacity="0.5" stroke="#fff" stroke-width="4" stroke-opacity="0.5" stroke-linejoin="bevel" class="zr0-cls-30"></path>
<path d="M344.9 275.4A98.2 98.2 0 0 1 309.8 327.9L301.1 316.6A83.9 83.9 0 0 0 331.1 271.7Z" fill="#F3C142" stroke="white" stroke-linejoin="bevel" class="zr0-cls-31"></path>
<path d="M358.7 279.1A112.5 112.5 0 0 1 318.5 339.3L309.8 327.9A98.2 98.2 0 0 0 344.9 275.4Z" fill="#000" stroke="white" stroke-linejoin="bevel" class="zr0-cls-32"></path>
<path d="M372.5 282.8A126.8 126.8 0 0 1 327.2 350.6L318.5 339.3A112.5 112.5 0 0 0 358.7 279.1Z" fill="#000" stroke="white" stroke-linejoin="bevel" class="zr0-cls-33"></path>
<path d="M386.3 286.5A141.1 141.1 0 0 1 335.9 361.9L327.2 350.6A126.8 126.8 0 0 0 372.5 282.8Z" fill="#4949CD" fill-opacity="0.5" stroke="#fff" stroke-width="4" stroke-opacity="0.5" stroke-linejoin="bevel" class="zr0-cls-34"></path>
<path d="M400.1 290.2A155.4 155.4 0 0 1 344.6 373.3L335.9 361.9A141.1 141.1 0 0 0 386.3 286.5Z" fill="#000" stroke="white" stroke-linejoin="bevel" class="zr0-cls-35"></path>
<path d="M413.9 293.9A169.6 169.6 0 0 1 353.3 384.6L344.6 373.3A155.4 155.4 0 0 0 400.1 290.2Z" fill="#A0522D" stroke="white" stroke-linejoin="bevel" class="zr0-cls-36"></path>
<path d="M427.7 297.6A183.9 183.9 0 0 1 362 395.9L353.3 384.6A169.6 169.6 0 0 0 413.9 293.9Z" fill="#A0522D" stroke="white" stroke-linejoin="bevel" class="zr0-cls-37"></path>
<path d="M441.5 301.3A198.2 198.2 0 0 1 370.7 407.3L362 395.9A183.9 183.9 0 0 0 427.7 297.6Z" fill="#ff4949" fill-opacity="0.5" stroke="#fff" stroke-width="4" stroke-opacity="0.5" stroke-linejoin="bevel" class="zr0-cls-38"></path>
<path d="M455.3 305A212.5 212.5 0 0 1 434 356.2L421.7 349.1A198.2 198.2 0 0 0 441.5 301.3Z" fill="#A0522D" stroke="white" stroke-linejoin="bevel" class="zr0-cls-39"></path>
<path d="M434 356.3A212.5 212.5 0 0 1 400.3 400.3L390.2 390.2A198.2 198.2 0 0 0 421.7 349.1Z" fill="#A0522D" stroke="white" stroke-linejoin="bevel" class="zr0-cls-40"></path>
<path d="M400.3 400.3A212.5 212.5 0 0 1 379.4 418.6L370.7 407.3A198.2 198.2 0 0 0 390.2 390.2Z" fill="#A0522D" stroke="white" stroke-linejoin="bevel" class="zr0-cls-41"></path>
<path d="M283.7 293.9A55.4 55.4 0 0 1 257.2 304.9L255.4 290.7A41.1 41.1 0 0 0 275 282.6Z" fill="#000" stroke="white" stroke-linejoin="bevel" class="zr0-cls-42"></path>
<path d="M292.4 305.3A69.6 69.6 0 0 1 259.1 319L257.2 304.9A55.4 55.4 0 0 0 283.7 293.9Z" fill="#000" stroke="white" stroke-linejoin="bevel" class="zr0-cls-43"></path>
<path d="M301.1 316.6A83.9 83.9 0 0 1 261 333.2L259.1 319A69.6 69.6 0 0 0 292.4 305.3Z" fill="#4949CD" fill-opacity="0.5" stroke="#fff" stroke-width="4" stroke-opacity="0.5" stroke-linejoin="bevel" class="zr0-cls-44"></path>
<path d="M309.8 327.9A98.2 98.2 0 0 1 262.8 347.4L261 333.2A83.9 83.9 0 0 0 301.1 316.6Z" fill="#0AA40D" stroke="white" stroke-linejoin="bevel" class="zr0-cls-45"></path>
<path d="M318.5 339.3A112.5 112.5 0 0 1 279.1 358.7L275.4 344.9A98.2 98.2 0 0 0 309.8 327.9Z" fill="#000" stroke="white" stroke-linejoin="bevel" class="zr0-cls-46"></path>
<path d="M327.2 350.6A126.8 126.8 0 0 1 282.8 372.5L279.1 358.7A112.5 112.5 0 0 0 318.5 339.3Z" fill="#49ff49" fill-opacity="0.5" stroke="#fff" stroke-width="4" stroke-opacity="0.5" stroke-linejoin="bevel" class="zr0-cls-47"></path>
<path d="M335.9 361.9A141.1 141.1 0 0 1 286.5 386.3L282.8 372.5A126.8 126.8 0 0 0 327.2 350.6Z" fill="#000" stroke="white" stroke-linejoin="bevel" class="zr0-cls-48"></path>
<path d="M344.6 373.3A155.4 155.4 0 0 1 327.7 384.5L320.5 372.2A141.1 141.1 0 0 0 335.9 361.9Z" fill="#000" stroke="white" stroke-linejoin="bevel" class="zr0-cls-49"></path>
<path d="M327.7 384.5A155.4 155.4 0 0 1 309.5 393.5L304 380.3A141.1 141.1 0 0 0 320.5 372.2Z" fill="#000" stroke="white" stroke-linejoin="bevel" class="zr0-cls-50"></path>
<path d="M309.5 393.5A155.4 155.4 0 0 1 290.2 400.1L286.5 386.3A141.1 141.1 0 0 0 304 380.3Z" fill="#000" stroke="white" stroke-linejoin="bevel" class="zr0-cls-51"></path>
<path d="M279.1 358.7A112.5 112.5 0 0 1 264.7 361.5L262.8 347.4A98.2 98.2 0 0 0 275.4 344.9Z" fill="#C8C8C8" stroke="white" stroke-linejoin="bevel" class="zr0-cls-52"></path>
<path d="M257.2 304.9A55.4 55.4 0 0 1 242.8 304.9L244.6 290.7A41.1 41.1 0 0 0 255.4 290.7Z" fill="#000" stroke="white" stroke-linejoin="bevel" class="zr0-cls-53"></path>
<path d="M259.1 319A69.6 69.6 0 0 1 240.9 319L242.8 304.9A55.4 55.4 0 0 0 257.2 304.9Z" fill="#000" stroke="white" stroke-linejoin="bevel" class="zr0-cls-54"></path>
<path d="M261 333.2A83.9 83.9 0 0 1 239 333.2L240.9 319A69.6 69.6 0 0 0 259.1 319Z" fill="#4949CD" fill-opacity="0.5" stroke="#fff" stroke-width="4" stroke-opacity="0.5" stroke-linejoin="bevel" class="zr0-cls-55"></path>
<path d="M262.8 347.4A98.2 98.2 0 0 1 237.2 347.4L239 333.2A83.9 83.9 0 0 0 261 333.2Z" fill="#0AA40D" stroke="white" stroke-linejoin="bevel" class="zr0-cls-56"></path>
<path d="M264.7 361.5A112.5 112.5 0 0 1 250 362.5L250 348.2A98.2 98.2 0 0 0 262.8 347.4Z" fill="#000" stroke="white" stroke-linejoin="bevel" class="zr0-cls-57"></path>
<path d="M266.5 375.7A126.8 126.8 0 0 1 250 376.8L250 362.5A112.5 112.5 0 0 0 264.7 361.5Z" fill="#ff4949" fill-opacity="0.5" stroke="#fff" stroke-width="4" stroke-opacity="0.5" stroke-linejoin="bevel" class="zr0-cls-58"></path>
<path d="M268.4 389.9A141.1 141.1 0 0 1 250 391.1L250 376.8A126.8 126.8 0 0 0 266.5 375.7Z" fill="#000" stroke="white" stroke-linejoin="bevel" class="zr0-cls-59"></path>
<path d="M250 362.5A112.5 112.5 0 0 1 235.3 361.5L237.2 347.4A98.2 98.2 0 0 0 250 348.2Z" fill="#000" stroke="white" stroke-linejoin="bevel" class="zr0-cls-60"></path>
<path d="M250 376.8A126.8 126.8 0 0 1 233.5 375.7L235.3 361.5A112.5 112.5 0 0 0 250 362.5Z" fill="#49ff49" fill-opacity="0.5" stroke="#fff" stroke-width="4" stroke-opacity="0.5" stroke-linejoin="bevel" class="zr0-cls-61"></path>
<path d="M250 391.1A141.1 141.1 0 0 1 231.6 389.9L233.5 375.7A126.8 126.8 0 0 0 250 376.8Z" fill="#000" stroke="white" stroke-linejoin="bevel" class="zr0-cls-62"></path>
<path d="M250 405.4A155.4 155.4 0 0 1 229.7 404L231.6 389.9A141.1 141.1 0 0 0 250 391.1Z" fill="#000" stroke="white" stroke-linejoin="bevel" class="zr0-cls-63"></path>
<path d="M246.5 276.6A26.8 26.8 0 0 1 225.3 239.7L238.5 245.2A12.5 12.5 0 0 0 248.4 262.4Z" fill="#C8C8C8" stroke="white" stroke-linejoin="bevel" class="zr0-cls-64"></path>
<path d="M244.6 290.7A41.1 41.1 0 0 1 214.4 270.5L226.8 263.4A26.8 26.8 0 0 0 246.5 276.6Z" fill="#49ff49" fill-opacity="0.5" stroke="#fff" stroke-width="4" stroke-opacity="0.5" stroke-linejoin="bevel" class="zr0-cls-65"></path>
<path d="M242.8 304.9A55.4 55.4 0 0 1 235.7 303.5L239.4 289.7A41.1 41.1 0 0 0 244.6 290.7Z" fill="#C8C8C8" stroke="white" stroke-linejoin="bevel" class="zr0-cls-66"></path>
<path d="M235.7 303.5A55.4 55.4 0 0 1 228.8 301.1L234.3 287.9A41.1 41.1 0 0 0 239.4 289.7Z" fill="#C8C8C8" stroke="white" stroke-linejoin="bevel" class="zr0-cls-67"></path>
<path d="M228.8 301.1A55.4 55.4 0 0 1 222.3 297.9L229.5 285.6A41.1 41.1 0 0 0 234.3 287.9Z" fill="#C8C8C8" stroke="white" stroke-linejoin="bevel" class="zr0-cls-68"></path>
<path d="M222.3 297.9A55.4 55.4 0 0 1 216.3 293.9L225 282.6A41.1 41.1 0 0 0 229.5 285.6Z" fill="#C8C8C8" stroke="white" stroke-linejoin="bevel" class="zr0-cls-69"></path>
<path d="M216.3 293.9A55.4 55.4 0 0 1 210.9 289.1L221 279A41.1 41.1 0 0 0 225 282.6Z" fill="#C8C8C8" stroke="white" stroke-linejoin="bevel" class="zr0-cls-70"></path>
<path d="M210.9 289.1A55.4 55.4 0 0 1 206.1 283.7L217.4 275A41.1 41.1 0 0 0 221 279Z" fill="#C8C8C8" stroke="white" stroke-linejoin="bevel" class="zr0-cls-71"></path>
<path d="M206.1 283.7A55.4 55.4 0 0 1 202.1 277.7L214.4 270.5A41.1 41.1 0 0 0 217.4 275Z" fill="#C8C8C8" stroke="white" stroke-linejoin="bevel" class="zr0-cls-72"></path>
<path d="M214.4 270.5A41.1 41.1 0 0 1 212.1 234.3L225.3 239.7A26.8 26.8 0 0 0 226.8 263.4Z" fill="#4949CD" fill-opacity="0.5" stroke="#fff" stroke-width="4" stroke-opacity="0.5" stroke-linejoin="bevel" class="zr0-cls-73"></path>
<path d="M202.1 277.7A55.4 55.4 0 0 1 196.5 264.3L210.3 260.6A41.1 41.1 0 0 0 214.4 270.5Z" fill="#C8C8C8" stroke="white" stroke-linejoin="bevel" class="zr0-cls-74"></path>
<path d="M189.7 284.8A69.6 69.6 0 0 1 182.7 268L196.5 264.3A55.4 55.4 0 0 0 202.1 277.7Z" fill="#C8C8C8" stroke="white" stroke-linejoin="bevel" class="zr0-cls-75"></path>
<path d="M196.5 264.3A55.4 55.4 0 0 1 195.1 257.2L209.3 255.4A41.1 41.1 0 0 0 210.3 260.6Z" fill="#C8C8C8" stroke="white" stroke-linejoin="bevel" class="zr0-cls-76"></path>
<path d="M182.7 268A69.6 69.6 0 0 1 181 259.1L195.1 257.2A55.4 55.4 0 0 0 196.5 264.3Z" fill="#C8C8C8" stroke="white" stroke-linejoin="bevel" class="zr0-cls-77"></path>
<path d="M195.1 257.2A55.4 55.4 0 0 1 194.6 250L208.9 250A41.1 41.1 0 0 0 209.3 255.4Z" fill="#C8C8C8" stroke="white" stroke-linejoin="bevel" class="zr0-cls-78"></path>
<path d="M181 259.1A69.6 69.6 0 0 1 180.4 250L194.6 250A55.4 55.4 0 0 0 195.1 257.2Z" fill="#C8C8C8" stroke="white" stroke-linejoin="bevel" class="zr0-cls-79"></path>
<path d="M194.6 250A55.4 55.4 0 0 1 195.1 242.8L209.3 244.6A41.1 41.1 0 0 0 208.9 250Z" fill="#C8C8C8" stroke="white" stroke-linejoin="bevel" class="zr0-cls-80"></path>
<path d="M180.4 250A69.6 69.6 0 0 1 181 240.9L195.1 242.8A55.4 55.4 0 0 0 194.6 250Z" fill="#C8C8C8" stroke="white" stroke-linejoin="bevel" class="zr0-cls-81"></path>
<path d="M195.1 242.8A55.4 55.4 0 0 1 196.5 235.7L210.3 239.4A41.1 41.1 0 0 0 209.3 244.6Z" fill="#C8C8C8" stroke="white" stroke-linejoin="bevel" class="zr0-cls-82"></path>
<path d="M181 240.9A69.6 69.6 0 0 1 182.7 232L196.5 235.7A55.4 55.4 0 0 0 195.1 242.8Z" fill="#C8C8C8" stroke="white" stroke-linejoin="bevel" class="zr0-cls-83"></path>
<path d="M196.5 235.7A55.4 55.4 0 0 1 198.9 228.8L212.1 234.3A41.1 41.1 0 0 0 210.3 239.4Z" fill="#C8C8C8" stroke="white" stroke-linejoin="bevel" class="zr0-cls-84"></path>
<path d="M182.7 232A69.6 69.6 0 0 1 185.7 223.3L198.9 228.8A55.4 55.4 0 0 0 196.5 235.7Z" fill="#C8C8C8" stroke="white" stroke-linejoin="bevel" class="zr0-cls-85"></path>
<path d="M225.3 239.7A26.8 26.8 0 0 1 250 223.2L250 237.5A12.5 12.5 0 0 0 238.5 245.2Z" fill="#C8C8C8" stroke="white" stroke-linejoin="bevel" class="zr0-cls-86"></path>
<path d="M212.1 234.3A41.1 41.1 0 0 1 250 208.9L250 223.2A26.8 26.8 0 0 0 225.3 239.7Z" fill="#C8C8C8" stroke="white" stroke-linejoin="bevel" class="zr0-cls-87"></path>
<text dominant-baseline="central" text-anchor="middle" style="font-size:12px;font-family:sans-serif;" transform="matrix(0.065,-0.998,0.998,0.065,269.6008,251.2847)" fill="#ccc" stroke="#000" stroke-width="2" paint-order="stroke" stroke-miterlimit="2">paths</text>
<text dominant-baseline="central" text-anchor="middle" style="font-size:12px;font-family:sans-serif;" transform="matrix(0.866,0.5,-0.5,0.866,274.1071,208.2452)" fill="#ccc" stroke="#000" stroke-width="2" paint-order="stroke" stroke-miterlimit="2">/roles</text>
<text dominant-baseline="central" text-anchor="middle" style="font-size:9px;font-family:sans-serif;" transform="matrix(0.556,-0.831,0.831,0.556,290.0887,276.7864)" fill="#ccc" stroke="#000" stroke-width="2" paint-order="stroke" stroke-miterlimit="2">/contact/send</text>
<text dominant-baseline="central" text-anchor="middle" style="font-size:9px;font-family:sans-serif;" transform="matrix(0.556,-0.831,0.831,0.556,301.9669,284.7231)" fill="#ccc" stroke="#000" stroke-width="2" paint-order="stroke" stroke-miterlimit="2">operations</text>
<text dominant-baseline="central" text-anchor="middle" style="font-size:12px;font-family:sans-serif;" transform="matrix(0.556,-0.831,0.831,0.556,325.7231,300.5966)" fill="#333">POST</text>
<text dominant-baseline="central" text-anchor="middle" style="font-size:9px;font-family:sans-serif;" transform="matrix(0.556,-0.831,0.831,0.556,337.6013,308.5333)" fill="#ccc" stroke="#000" stroke-width="2" paint-order="stroke" stroke-miterlimit="2">requestBody</text>
<text dominant-baseline="central" text-anchor="middle" style="font-size:10px;font-family:sans-serif;" transform="matrix(0.556,-0.831,0.831,0.556,349.4794,316.47)" fill="#ccc" stroke="#000" stroke-width="2" paint-order="stroke" stroke-miterlimit="2">content</text>
<text dominant-baseline="central" text-anchor="middle" style="font-size:12px;font-family:sans-serif;" transform="matrix(0.556,-0.831,0.831,0.556,385.1138,340.2802)" fill="#eee" stroke="#A0522D" stroke-width="2" paint-order="stroke" stroke-miterlimit="2">schema</text>
<text dominant-baseline="central" text-anchor="middle" style="font-size:9px;font-family:sans-serif;" transform="matrix(0.556,-0.831,0.831,0.556,396.9919,348.2169)" fill="#eee" stroke="#A0522D" stroke-width="2" paint-order="stroke" stroke-miterlimit="2">properties</text>
<text dominant-baseline="central" text-anchor="middle" style="font-size:10px;font-family:sans-serif;" transform="matrix(0.383,-0.924,0.924,0.383,439.7253,328.5868)" fill="#eee" stroke="#A0522D" stroke-width="2" paint-order="stroke" stroke-miterlimit="2">entityIds</text>
<text dominant-baseline="central" text-anchor="middle" style="font-size:9px;font-family:sans-serif;" transform="matrix(0.609,-0.793,0.793,0.609,412.9208,375.0135)" fill="#eee" stroke="#A0522D" stroke-width="2" paint-order="stroke" stroke-miterlimit="2">contactIds</text>
<text dominant-baseline="central" text-anchor="middle" style="font-size:12px;font-family:sans-serif;" transform="matrix(0.924,-0.383,0.383,0.924,284.8515,334.139)" fill="#eee" stroke="#0AA40D" stroke-width="2" paint-order="stroke" stroke-miterlimit="2">GET</text>
<text dominant-baseline="central" text-anchor="middle" style="font-size:9px;font-family:sans-serif;" transform="matrix(0.897,-0.442,0.442,0.897,296.5983,344.4919)" fill="#ccc" stroke="#000" stroke-width="2" paint-order="stroke" stroke-miterlimit="2">params</text>
<text dominant-baseline="central" text-anchor="middle" style="font-size:12px;font-family:sans-serif;" transform="matrix(0.897,-0.442,0.442,0.897,309.2351,370.1169)" fill="#ccc" stroke="#000" stroke-width="2" paint-order="stroke" stroke-miterlimit="2">query</text>
<text dominant-baseline="central" text-anchor="middle" style="font-size:9px;font-family:sans-serif;" transform="translate(250 312.5)" fill="#ccc" stroke="#000" stroke-width="2" paint-order="stroke" stroke-miterlimit="2">operations</text>
<text dominant-baseline="central" text-anchor="middle" style="font-size:12px;font-family:sans-serif;" transform="translate(250 341.0714)" fill="#eee" stroke="#0AA40D" stroke-width="2" paint-order="stroke" stroke-miterlimit="2">GET</text>
<text dominant-baseline="central" text-anchor="middle" style="font-size:12px;font-family:sans-serif;" transform="matrix(0.5,0.866,-0.866,0.5,232.9888,259.8214)" fill="#333">tags</text>
<text dominant-baseline="central" text-anchor="middle" style="font-size:12px;font-family:sans-serif;" transform="matrix(0.383,0.924,-0.924,0.383,205.4558,268.4508)" fill="#333">csv</text>
<text dominant-baseline="central" text-anchor="middle" style="font-size:9px;font-family:sans-serif;" transform="matrix(0.383,0.924,-0.924,0.383,192.2575,273.9177)" fill="#333">description</text>
<text dominant-baseline="central" text-anchor="middle" style="font-size:12px;font-family:sans-serif;" transform="matrix(0.831,-0.556,0.556,0.831,239.087,233.6676)" fill="#333">info</text>
<text dominant-baseline="central" text-anchor="middle" style="font-size:10px;font-family:sans-serif;" transform="matrix(0.831,-0.556,0.556,0.831,231.1503,221.7894)" fill="#333">version</text>
<path d="M-14.8 -16l66.6 0l0 32l-66.6 0Z" transform="translate(448.253 16)" fill="none" stroke="#ccc" stroke-width="0"></path>
<path d="M-7.3 -1.8L-0.1 4.8L7.3 -1.6M-7.3 4.3L-7.3 8.5L7.1 8.5L7.1 4.3M-0.1 4.7L-0.1 -8.5" transform="translate(448.253 16)" fill="none" stroke="#666"></path>
<path d="M-7.9 1M5.1 -3.4L8.1 -3.4L8.1 -6.4M8 -3C6.7 -6.4 3.2 -8.9 -1 -8.4C-5.3 -8 -8.6 -4.2 -8.4 0.2M-5.1 3.4L-8.1 3.4L-8.1 6.4M-8 3C-6.7 6.4 -3.2 8.9 1 8.4C5.3 8 8.6 4.2 8.4 -0.2" transform="translate(484.0476 16)" fill="none" stroke="#666"></path>
<style ><![CDATA[
.zr0-cls-0 {
animation:zr0-ani-0 1s cubic-bezier(0.65,0,0.35,1) both;
}
.zr0-cls-1 {
animation:zr0-ani-1 1s cubic-bezier(0.65,0,0.35,1) both;
}
.zr0-cls-2 {
animation:zr0-ani-2 1s cubic-bezier(0.65,0,0.35,1) both;
}
.zr0-cls-3 {
animation:zr0-ani-3 1s cubic-bezier(0.65,0,0.35,1) both;
}
.zr0-cls-4 {
animation:zr0-ani-4 1s cubic-bezier(0.65,0,0.35,1) both;
}
.zr0-cls-5 {
animation:zr0-ani-5 1s cubic-bezier(0.65,0,0.35,1) both;
}
.zr0-cls-6 {
animation:zr0-ani-6 1s cubic-bezier(0.65,0,0.35,1) both;
}
.zr0-cls-7 {
animation:zr0-ani-7 1s cubic-bezier(0.65,0,0.35,1) both;
}
.zr0-cls-8 {
animation:zr0-ani-8 1s cubic-bezier(0.65,0,0.35,1) both;
}
.zr0-cls-9 {
animation:zr0-ani-9 1s cubic-bezier(0.65,0,0.35,1) both;
}
.zr0-cls-10 {
animation:zr0-ani-10 1s cubic-bezier(0.65,0,0.35,1) both;
}
.zr0-cls-11 {
animation:zr0-ani-11 1s cubic-bezier(0.65,0,0.35,1) both;
}
.zr0-cls-12 {
animation:zr0-ani-12 1s cubic-bezier(0.65,0,0.35,1) both;
}
.zr0-cls-13 {
animation:zr0-ani-13 1s cubic-bezier(0.65,0,0.35,1) both;
}
.zr0-cls-14 {
animation:zr0-ani-14 1s cubic-bezier(0.65,0,0.35,1) both;
}
.zr0-cls-15 {
animation:zr0-ani-15 1s cubic-bezier(0.65,0,0.35,1) both;
}
.zr0-cls-16 {
animation:zr0-ani-16 1s cubic-bezier(0.65,0,0.35,1) both;
}
.zr0-cls-17 {
animation:zr0-ani-17 1s cubic-bezier(0.65,0,0.35,1) both;
}
.zr0-cls-18 {
animation:zr0-ani-18 1s cubic-bezier(0.65,0,0.35,1) both;
}
.zr0-cls-19 {
animation:zr0-ani-19 1s cubic-bezier(0.65,0,0.35,1) both;
}
.zr0-cls-20 {
animation:zr0-ani-20 1s cubic-bezier(0.65,0,0.35,1) both;
}
.zr0-cls-21 {
animation:zr0-ani-21 1s cubic-bezier(0.65,0,0.35,1) both;
}
.zr0-cls-22 {
animation:zr0-ani-22 1s cubic-bezier(0.65,0,0.35,1) both;
}
.zr0-cls-23 {
animation:zr0-ani-23 1s cubic-bezier(0.65,0,0.35,1) both;
}
.zr0-cls-24 {
animation:zr0-ani-24 1s cubic-bezier(0.65,0,0.35,1) both;
}
.zr0-cls-25 {
animation:zr0-ani-25 1s cubic-bezier(0.65,0,0.35,1) both;
}
.zr0-cls-26 {
animation:zr0-ani-26 1s cubic-bezier(0.65,0,0.35,1) both;
}
.zr0-cls-27 {
animation:zr0-ani-27 1s cubic-bezier(0.65,0,0.35,1) both;
}
.zr0-cls-28 {
animation:zr0-ani-28 1s cubic-bezier(0.65,0,0.35,1) both;
}
.zr0-cls-29 {
animation:zr0-ani-29 1s cubic-bezier(0.65,0,0.35,1) both;
}
.zr0-cls-30 {
animation:zr0-ani-30 1s cubic-bezier(0.65,0,0.35,1) both;
}
.zr0-cls-31 {
animation:zr0-ani-31 1s cubic-bezier(0.65,0,0.35,1) both;
}
.zr0-cls-32 {
animation:zr0-ani-32 1s cubic-bezier(0.65,0,0.35,1) both;
}
.zr0-cls-33 {
animation:zr0-ani-33 1s cubic-bezier(0.65,0,0.35,1) both;
}
.zr0-cls-34 {
animation:zr0-ani-34 1s cubic-bezier(0.65,0,0.35,1) both;
}
.zr0-cls-35 {
animation:zr0-ani-35 1s cubic-bezier(0.65,0,0.35,1) both;
}
.zr0-cls-36 {
animation:zr0-ani-36 1s cubic-bezier(0.65,0,0.35,1) both;
}
.zr0-cls-37 {
animation:zr0-ani-37 1s cubic-bezier(0.65,0,0.35,1) both;
}
.zr0-cls-38 {
animation:zr0-ani-38 1s cubic-bezier(0.65,0,0.35,1) both;
}
.zr0-cls-39 {
animation:zr0-ani-39 1s cubic-bezier(0.65,0,0.35,1) both;
}
.zr0-cls-40 {
animation:zr0-ani-40 1s cubic-bezier(0.65,0,0.35,1) both;
}
.zr0-cls-41 {
animation:zr0-ani-41 1s cubic-bezier(0.65,0,0.35,1) both;
}
.zr0-cls-42 {
animation:zr0-ani-42 1s cubic-bezier(0.65,0,0.35,1) both;
}
.zr0-cls-43 {
animation:zr0-ani-43 1s cubic-bezier(0.65,0,0.35,1) both;
}
.zr0-cls-44 {
animation:zr0-ani-44 1s cubic-bezier(0.65,0,0.35,1) both;
}
.zr0-cls-45 {
animation:zr0-ani-45 1s cubic-bezier(0.65,0,0.35,1) both;
}
.zr0-cls-46 {
animation:zr0-ani-46 1s cubic-bezier(0.65,0,0.35,1) both;
}
.zr0-cls-47 {
animation:zr0-ani-47 1s cubic-bezier(0.65,0,0.35,1) both;
}
.zr0-cls-48 {
animation:zr0-ani-48 1s cubic-bezier(0.65,0,0.35,1) both;
}
.zr0-cls-49 {
animation:zr0-ani-49 1s cubic-bezier(0.65,0,0.35,1) both;
}
.zr0-cls-50 {
animation:zr0-ani-50 1s cubic-bezier(0.65,0,0.35,1) both;
}
.zr0-cls-51 {
animation:zr0-ani-51 1s cubic-bezier(0.65,0,0.35,1) both;
}
.zr0-cls-52 {
animation:zr0-ani-52 1s cubic-bezier(0.65,0,0.35,1) both;
}
.zr0-cls-53 {
animation:zr0-ani-53 1s cubic-bezier(0.65,0,0.35,1) both;
}
.zr0-cls-54 {
animation:zr0-ani-54 1s cubic-bezier(0.65,0,0.35,1) both;
}
.zr0-cls-55 {
animation:zr0-ani-55 1s cubic-bezier(0.65,0,0.35,1) both;
}
.zr0-cls-56 {
animation:zr0-ani-56 1s cubic-bezier(0.65,0,0.35,1) both;
}
.zr0-cls-57 {
animation:zr0-ani-57 1s cubic-bezier(0.65,0,0.35,1) both;
}
.zr0-cls-58 {
animation:zr0-ani-58 1s cubic-bezier(0.65,0,0.35,1) both;
}
.zr0-cls-59 {
animation:zr0-ani-59 1s cubic-bezier(0.65,0,0.35,1) both;
}
.zr0-cls-60 {
animation:zr0-ani-60 1s cubic-bezier(0.65,0,0.35,1) both;
}
.zr0-cls-61 {
animation:zr0-ani-61 1s cubic-bezier(0.65,0,0.35,1) both;
}
.zr0-cls-62 {
animation:zr0-ani-62 1s cubic-bezier(0.65,0,0.35,1) both;
}
.zr0-cls-63 {
animation:zr0-ani-63 1s cubic-bezier(0.65,0,0.35,1) both;
}
.zr0-cls-64 {
animation:zr0-ani-64 1s cubic-bezier(0.65,0,0.35,1) both;
}
.zr0-cls-65 {
animation:zr0-ani-65 1s cubic-bezier(0.65,0,0.35,1) both;
}
.zr0-cls-66 {
animation:zr0-ani-66 1s cubic-bezier(0.65,0,0.35,1) both;
}
.zr0-cls-67 {
animation:zr0-ani-67 1s cubic-bezier(0.65,0,0.35,1) both;
}
.zr0-cls-68 {
animation:zr0-ani-68 1s cubic-bezier(0.65,0,0.35,1) both;
}
.zr0-cls-69 {
animation:zr0-ani-69 1s cubic-bezier(0.65,0,0.35,1) both;
}
.zr0-cls-70 {
animation:zr0-ani-70 1s cubic-bezier(0.65,0,0.35,1) both;
}
.zr0-cls-71 {
animation:zr0-ani-71 1s cubic-bezier(0.65,0,0.35,1) both;
}
.zr0-cls-72 {
animation:zr0-ani-72 1s cubic-bezier(0.65,0,0.35,1) both;
}
.zr0-cls-73 {
animation:zr0-ani-73 1s cubic-bezier(0.65,0,0.35,1) both;
}
.zr0-cls-74 {
animation:zr0-ani-74 1s cubic-bezier(0.65,0,0.35,1) both;
}
.zr0-cls-75 {
animation:zr0-ani-75 1s cubic-bezier(0.65,0,0.35,1) both;
}
.zr0-cls-76 {
animation:zr0-ani-76 1s cubic-bezier(0.65,0,0.35,1) both;
}
.zr0-cls-77 {
animation:zr0-ani-77 1s cubic-bezier(0.65,0,0.35,1) both;
}
.zr0-cls-78 {
animation:zr0-ani-78 1s cubic-bezier(0.65,0,0.35,1) both;
}
.zr0-cls-79 {
animation:zr0-ani-79 1s cubic-bezier(0.65,0,0.35,1) both;
}
.zr0-cls-80 {
animation:zr0-ani-80 1s cubic-bezier(0.65,0,0.35,1) both;
}
.zr0-cls-81 {
animation:zr0-ani-81 1s cubic-bezier(0.65,0,0.35,1) both;
}
.zr0-cls-82 {
animation:zr0-ani-82 1s cubic-bezier(0.65,0,0.35,1) both;
}
.zr0-cls-83 {
animation:zr0-ani-83 1s cubic-bezier(0.65,0,0.35,1) both;
}
.zr0-cls-84 {
animation:zr0-ani-84 1s cubic-bezier(0.65,0,0.35,1) both;
}
.zr0-cls-85 {
animation:zr0-ani-85 1s cubic-bezier(0.65,0,0.35,1) both;
}
.zr0-cls-86 {
animation:zr0-ani-86 1s cubic-bezier(0.65,0,0.35,1) both;
}
.zr0-cls-87 {
animation:zr0-ani-87 1s cubic-bezier(0.65,0,0.35,1) both;
}
@keyframes zr0-ani-0 {
0% {
d:path("M250 237.5A12.5 12.5 0 1 1 248.4 262.4A12.5 12.5 0 1 0 250 237.5Z");
}
100% {
d:path("M250 223.2A26.8 26.8 0 1 1 246.5 276.6L248.4 262.4A12.5 12.5 0 1 0 250 237.5Z");
}
}
@keyframes zr0-ani-1 {
0% {
d:path("M250 223.2A26.8 26.8 0 0 1 275.9 256.9A26.8 26.8 0 0 0 250 223.2Z");
}
100% {
d:path("M250 208.9A41.1 41.1 0 0 1 289.7 260.6L275.9 256.9A26.8 26.8 0 0 0 250 223.2Z");
}
}
@keyframes zr0-ani-2 {
0% {
d:path("M250 208.9A41.1 41.1 0 0 1 265.7 212.1A41.1 41.1 0 0 0 250 208.9Z");
}
100% {
d:path("M250 194.6A55.4 55.4 0 0 1 271.2 198.9L265.7 212.1A41.1 41.1 0 0 0 250 208.9Z");
}
}
@keyframes zr0-ani-3 {
0% {
d:path("M250 194.6A55.4 55.4 0 0 1 257.2 195.1A55.4 55.4 0 0 0 250 194.6Z");
}
100% {
d:path("M250 180.4A69.6 69.6 0 0 1 259.1 181L257.2 195.1A55.4 55.4 0 0 0 250 194.6Z");
}
}
@keyframes zr0-ani-4 {
0% {
d:path("M257.2 195.1A55.4 55.4 0 0 1 264.3 196.5L264.3 196.5A55.4 55.4 0 0 0 257.2 195.1Z");
}
100% {
d:path("M259.1 181A69.6 69.6 0 0 1 268 182.7L264.3 196.5A55.4 55.4 0 0 0 257.2 195.1Z");
}
}
@keyframes zr0-ani-5 {
0% {
d:path("M264.3 196.5A55.4 55.4 0 0 1 271.2 198.9L271.2 198.9A55.4 55.4 0 0 0 264.3 196.5Z");
}
100% {
d:path("M268 182.7A69.6 69.6 0 0 1 276.7 185.7L271.2 198.9A55.4 55.4 0 0 0 264.3 196.5Z");
}
}
@keyframes zr0-ani-6 {
0% {
d:path("M265.7 212.1A41.1 41.1 0 0 1 275 217.4A41.1 41.1 0 0 0 265.7 212.1Z");
}
100% {
d:path("M271.2 198.9A55.4 55.4 0 0 1 283.7 206.1L275 217.4A41.1 41.1 0 0 0 265.7 212.1Z");
}
}
@keyframes zr0-ani-7 {
0% {
d:path("M271.2 198.9A55.4 55.4 0 0 1 277.7 202.1A55.4 55.4 0 0 0 271.2 198.9Z");
}
100% {
d:path("M276.7 185.7A69.6 69.6 0 0 1 284.8 189.7L277.7 202.1A55.4 55.4 0 0 0 271.2 198.9Z");
}
}
@keyframes zr0-ani-8 {
0% {
d:path("M277.7 202.1A55.4 55.4 0 0 1 283.7 206.1L283.7 206.1A55.4 55.4 0 0 0 277.7 202.1Z");
}
100% {
d:path("M284.8 189.7A69.6 69.6 0 0 1 292.4 194.7L283.7 206.1A55.4 55.4 0 0 0 277.7 202.1Z");
}
}
@keyframes zr0-ani-9 {
0% {
d:path("M275 217.4A41.1 41.1 0 0 1 279 221L279 221A41.1 41.1 0 0 0 275 217.4Z");
}
100% {
d:path("M283.7 206.1A55.4 55.4 0 0 1 289.1 210.9L279 221A41.1 41.1 0 0 0 275 217.4Z");
}
}
@keyframes zr0-ani-10 {
0% {
d:path("M283.7 206.1A55.4 55.4 0 0 1 289.1 210.9L289.1 210.9A55.4 55.4 0 0 0 283.7 206.1Z");
}
100% {
d:path("M292.4 194.7A69.6 69.6 0 0 1 299.2 200.8L289.1 210.9A55.4 55.4 0 0 0 283.7 206.1Z");
}
}
@keyframes zr0-ani-11 {
0% {
d:path("M279 221A41.1 41.1 0 0 1 282.6 225A41.1 41.1 0 0 0 279 221Z");
}
100% {
d:path("M289.1 210.9A55.4 55.4 0 0 1 293.9 216.3L282.6 225A41.1 41.1 0 0 0 279 221Z");
}
}
@keyframes zr0-ani-12 {
0% {
d:path("M289.1 210.9A55.4 55.4 0 0 1 293.9 216.3A55.4 55.4 0 0 0 289.1 210.9Z");
}
100% {
d:path("M299.2 200.8A69.6 69.6 0 0 1 305.3 207.6L293.9 216.3A55.4 55.4 0 0 0 289.1 210.9Z");
}
}
@keyframes zr0-ani-13 {
0% {
d:path("M282.6 225A41.1 41.1 0 0 1 285.6 229.5L285.6 229.5A41.1 41.1 0 0 0 282.6 225Z");
}
100% {
d:path("M293.9 216.3A55.4 55.4 0 0 1 297.9 222.3L285.6 229.5A41.1 41.1 0 0 0 282.6 225Z");
}
}
@keyframes zr0-ani-14 {
0% {
d:path("M293.9 216.3A55.4 55.4 0 0 1 297.9 222.3L297.9 222.3A55.4 55.4 0 0 0 293.9 216.3Z");
}
100% {
d:path("M305.3 207.6A69.6 69.6 0 0 1 310.3 215.2L297.9 222.3A55.4 55.4 0 0 0 293.9 216.3Z");
}
}
@keyframes zr0-ani-15 {
0% {
d:path("M285.6 229.5A41.1 41.1 0 0 1 287.9 234.3L287.9 234.3A41.1 41.1 0 0 0 285.6 229.5Z");
}
100% {
d:path("M297.9 222.3A55.4 55.4 0 0 1 301.1 228.8L287.9 234.3A41.1 41.1 0 0 0 285.6 229.5Z");
}
}
@keyframes zr0-ani-16 {
0% {
d:path("M297.9 222.3A55.4 55.4 0 0 1 301.1 228.8L301.1 228.8A55.4 55.4 0 0 0 297.9 222.3Z");
}
100% {
d:path("M310.3 215.2A69.6 69.6 0 0 1 314.3 223.3L301.1 228.8A55.4 55.4 0 0 0 297.9 222.3Z");
}
}
@keyframes zr0-ani-17 {
0% {
d:path("M287.9 234.3A41.1 41.1 0 0 1 289.7 239.4L289.7 239.4A41.1 41.1 0 0 0 287.9 234.3Z");
}
100% {
d:path("M301.1 228.8A55.4 55.4 0 0 1 303.5 235.7L289.7 239.4A41.1 41.1 0 0 0 287.9 234.3Z");
}
}
@keyframes zr0-ani-18 {
0% {
d:path("M301.1 228.8A55.4 55.4 0 0 1 303.5 235.7L303.5 235.7A55.4 55.4 0 0 0 301.1 228.8Z");
}
100% {
d:path("M314.3 223.3A69.6 69.6 0 0 1 317.3 232L303.5 235.7A55.4 55.4 0 0 0 301.1 228.8Z");
}
}
@keyframes zr0-ani-19 {
0% {
d:path("M289.7 239.4A41.1 41.1 0 0 1 290.7 244.6L290.7 244.6A41.1 41.1 0 0 0 289.7 239.4Z");
}
100% {
d:path("M303.5 235.7A55.4 55.4 0 0 1 304.9 242.8L290.7 244.6A41.1 41.1 0 0 0 289.7 239.4Z");
}
}
@keyframes zr0-ani-20 {
0% {
d:path("M303.5 235.7A55.4 55.4 0 0 1 304.9 242.8L304.9 242.8A55.4 55.4 0 0 0 303.5 235.7Z");
}
100% {
d:path("M317.3 232A69.6 69.6 0 0 1 319 240.9L304.9 242.8A55.4 55.4 0 0 0 303.5 235.7Z");
}
}
@keyframes zr0-ani-21 {
0% {
d:path("M290.7 244.6A41.1 41.1 0 0 1 291.1 250L291.1 250A41.1 41.1 0 0 0 290.7 244.6Z");
}
100% {
d:path("M304.9 242.8A55.4 55.4 0 0 1 305.4 250L291.1 250A41.1 41.1 0 0 0 290.7 244.6Z");
}
}
@keyframes zr0-ani-22 {
0% {
d:path("M304.9 242.8A55.4 55.4 0 0 1 305.4 250L305.4 250A55.4 55.4 0 0 0 304.9 242.8Z");
}
100% {
d:path("M319 240.9A69.6 69.6 0 0 1 319.6 250L305.4 250A55.4 55.4 0 0 0 304.9 242.8Z");
}
}
@keyframes zr0-ani-23 {
0% {
d:path("M291.1 250A41.1 41.1 0 0 1 290.7 255.4A41.1 41.1 0 0 0 291.1 250Z");
}
100% {
d:path("M305.4 250A55.4 55.4 0 0 1 304.9 257.2L290.7 255.4A41.1 41.1 0 0 0 291.1 250Z");
}
}
@keyframes zr0-ani-24 {
0% {
d:path("M305.4 250A55.4 55.4 0 0 1 304.9 257.2A55.4 55.4 0 0 0 305.4 250Z");
}
100% {
d:path("M319.6 250A69.6 69.6 0 0 1 319 259.1L304.9 257.2A55.4 55.4 0 0 0 305.4 250Z");
}
}
@keyframes zr0-ani-25 {
0% {
d:path("M290.7 255.4A41.1 41.1 0 0 1 289.7 260.6L289.7 260.6A41.1 41.1 0 0 0 290.7 255.4Z");
}
100% {
d:path("M304.9 257.2A55.4 55.4 0 0 1 303.5 264.3L289.7 260.6A41.1 41.1 0 0 0 290.7 255.4Z");
}
}
@keyframes zr0-ani-26 {
0% {
d:path("M304.9 257.2A55.4 55.4 0 0 1 303.5 264.3L303.5 264.3A55.4 55.4 0 0 0 304.9 257.2Z");
}
100% {
d:path("M319 259.1A69.6 69.6 0 0 1 317.3 268L303.5 264.3A55.4 55.4 0 0 0 304.9 257.2Z");
}
}
@keyframes zr0-ani-27 {
0% {
d:path("M275.9 256.9A26.8 26.8 0 0 1 246.5 276.6L246.5 276.6A26.8 26.8 0 0 0 275.9 256.9Z");
}
100% {
d:path("M289.7 260.6A41.1 41.1 0 0 1 244.6 290.7L246.5 276.6A26.8 26.8 0 0 0 275.9 256.9Z");
}
}
@keyframes zr0-ani-28 {
0% {
d:path("M289.7 260.6A41.1 41.1 0 0 1 275 282.6L275 282.6A41.1 41.1 0 0 0 289.7 260.6Z");
}
100% {
d:path("M303.5 264.3A55.4 55.4 0 0 1 283.7 293.9L275 282.6A41.1 41.1 0 0 0 289.7 260.6Z");
}
}
@keyframes zr0-ani-29 {
0% {
d:path("M303.5 264.3A55.4 55.4 0 0 1 283.7 293.9L283.7 293.9A55.4 55.4 0 0 0 303.5 264.3Z");
}
100% {
d:path("M317.3 268A69.6 69.6 0 0 1 292.4 305.3L283.7 293.9A55.4 55.4 0 0 0 303.5 264.3Z");
}
}
@keyframes zr0-ani-30 {
0% {
d:path("M317.3 268A69.6 69.6 0 0 1 292.4 305.3L292.4 305.3A69.6 69.6 0 0 0 317.3 268Z");
}
100% {
d:path("M331.1 271.7A83.9 83.9 0 0 1 301.1 316.6L292.4 305.3A69.6 69.6 0 0 0 317.3 268Z");
}
}
@keyframes zr0-ani-31 {
0% {
d:path("M331.1 271.7A83.9 83.9 0 0 1 301.1 316.6L301.1 316.6A83.9 83.9 0 0 0 331.1 271.7Z");
}
100% {
d:path("M344.9 275.4A98.2 98.2 0 0 1 309.8 327.9L301.1 316.6A83.9 83.9 0 0 0 331.1 271.7Z");
}
}
@keyframes zr0-ani-32 {
0% {
d:path("M344.9 275.4A98.2 98.2 0 0 1 309.8 327.9L309.8 327.9A98.2 98.2 0 0 0 344.9 275.4Z");
}
100% {
d:path("M358.7 279.1A112.5 112.5 0 0 1 318.5 339.3L309.8 327.9A98.2 98.2 0 0 0 344.9 275.4Z");
}
}
@keyframes zr0-ani-33 {
0% {
d:path("M358.7 279.1A112.5 112.5 0 0 1 318.5 339.3L318.5 339.3A112.5 112.5 0 0 0 358.7 279.1Z");
}
100% {
d:path("M372.5 282.8A126.8 126.8 0 0 1 327.2 350.6L318.5 339.3A112.5 112.5 0 0 0 358.7 279.1Z");
}
}
@keyframes zr0-ani-34 {
0% {
d:path("M372.5 282.8A126.8 126.8 0 0 1 327.2 350.6L327.2 350.6A126.8 126.8 0 0 0 372.5 282.8Z");
}
100% {
d:path("M386.3 286.5A141.1 141.1 0 0 1 335.9 361.9L327.2 350.6A126.8 126.8 0 0 0 372.5 282.8Z");
}
}
@keyframes zr0-ani-35 {
0% {
d:path("M386.3 286.5A141.1 141.1 0 0 1 335.9 361.9L335.9 361.9A141.1 141.1 0 0 0 386.3 286.5Z");
}
100% {
d:path("M400.1 290.2A155.4 155.4 0 0 1 344.6 373.3L335.9 361.9A141.1 141.1 0 0 0 386.3 286.5Z");
}
}
@keyframes zr0-ani-36 {
0% {
d:path("M400.1 290.2A155.4 155.4 0 0 1 344.6 373.3L344.6 373.3A155.4 155.4 0 0 0 400.1 290.2Z");
}
100% {
d:path("M413.9 293.9A169.6 169.6 0 0 1 353.3 384.6L344.6 373.3A155.4 155.4 0 0 0 400.1 290.2Z");
}
}
@keyframes zr0-ani-37 {
0% {
d:path("M413.9 293.9A169.6 169.6 0 0 1 353.3 384.6L353.3 384.6A169.6 169.6 0 0 0 413.9 293.9Z");
}
100% {
d:path("M427.7 297.6A183.9 183.9 0 0 1 362 395.9L353.3 384.6A169.6 169.6 0 0 0 413.9 293.9Z");
}
}
@keyframes zr0-ani-38 {
0% {
d:path("M427.7 297.6A183.9 183.9 0 0 1 362 395.9L362 395.9A183.9 183.9 0 0 0 427.7 297.6Z");
}
100% {
d:path("M441.5 301.3A198.2 198.2 0 0 1 370.7 407.3L362 395.9A183.9 183.9 0 0 0 427.7 297.6Z");
}
}
@keyframes zr0-ani-39 {
0% {
d:path("M441.5 301.3A198.2 198.2 0 0 1 421.7 349.1L421.7 349.1A198.2 198.2 0 0 0 441.5 301.3Z");
}
100% {
d:path("M455.3 305A212.5 212.5 0 0 1 434 356.2L421.7 349.1A198.2 198.2 0 0 0 441.5 301.3Z");
}
}
@keyframes zr0-ani-40 {
0% {
d:path("M421.7 349.1A198.2 198.2 0 0 1 390.2 390.2L390.2 390.2A198.2 198.2 0 0 0 421.7 349.1Z");
}
100% {
d:path("M434 356.3A212.5 212.5 0 0 1 400.3 400.3L390.2 390.2A198.2 198.2 0 0 0 421.7 349.1Z");
}
}
@keyframes zr0-ani-41 {
0% {
d:path("M390.2 390.2A198.2 198.2 0 0 1 370.7 407.3L370.7 407.3A198.2 198.2 0 0 0 390.2 390.2Z");
}
100% {
d:path("M400.3 400.3A212.5 212.5 0 0 1 379.4 418.6L370.7 407.3A198.2 198.2 0 0 0 390.2 390.2Z");
}
}
@keyframes zr0-ani-42 {
0% {
d:path("M275 282.6A41.1 41.1 0 0 1 255.4 290.7L255.4 290.7A41.1 41.1 0 0 0 275 282.6Z");
}
100% {
d:path("M283.7 293.9A55.4 55.4 0 0 1 257.2 304.9L255.4 290.7A41.1 41.1 0 0 0 275 282.6Z");
}
}
@keyframes zr0-ani-43 {
0% {
d:path("M283.7 293.9A55.4 55.4 0 0 1 257.2 304.9L257.2 304.9A55.4 55.4 0 0 0 283.7 293.9Z");
}
100% {
d:path("M292.4 305.3A69.6 69.6 0 0 1 259.1 319L257.2 304.9A55.4 55.4 0 0 0 283.7 293.9Z");
}
}
@keyframes zr0-ani-44 {
0% {
d:path("M292.4 305.3A69.6 69.6 0 0 1 259.1 319L259.1 319A69.6 69.6 0 0 0 292.4 305.3Z");
}
100% {
d:path("M301.1 316.6A83.9 83.9 0 0 1 261 333.2L259.1 319A69.6 69.6 0 0 0 292.4 305.3Z");
}
}
@keyframes zr0-ani-45 {
0% {
d:path("M301.1 316.6A83.9 83.9 0 0 1 261 333.2L261 333.2A83.9 83.9 0 0 0 301.1 316.6Z");
}
100% {
d:path("M309.8 327.9A98.2 98.2 0 0 1 262.8 347.4L261 333.2A83.9 83.9 0 0 0 301.1 316.6Z");
}
}
@keyframes zr0-ani-46 {
0% {
d:path("M309.8 327.9A98.2 98.2 0 0 1 275.4 344.9L275.4 344.9A98.2 98.2 0 0 0 309.8 327.9Z");
}
100% {
d:path("M318.5 339.3A112.5 112.5 0 0 1 279.1 358.7L275.4 344.9A98.2 98.2 0 0 0 309.8 327.9Z");
}
}
@keyframes zr0-ani-47 {
0% {
d:path("M318.5 339.3A112.5 112.5 0 0 1 279.1 358.7L279.1 358.7A112.5 112.5 0 0 0 318.5 339.3Z");
}
100% {
d:path("M327.2 350.6A126.8 126.8 0 0 1 282.8 372.5L279.1 358.7A112.5 112.5 0 0 0 318.5 339.3Z");
}
}
@keyframes zr0-ani-48 {
0% {
d:path("M327.2 350.6A126.8 126.8 0 0 1 282.8 372.5L282.8 372.5A126.8 126.8 0 0 0 327.2 350.6Z");
}
100% {
d:path("M335.9 361.9A141.1 141.1 0 0 1 286.5 386.3L282.8 372.5A126.8 126.8 0 0 0 327.2 350.6Z");
}
}
@keyframes zr0-ani-49 {
0% {
d:path("M335.9 361.9A141.1 141.1 0 0 1 320.5 372.2L320.5 372.2A141.1 141.1 0 0 0 335.9 361.9Z");
}
100% {
d:path("M344.6 373.3A155.4 155.4 0 0 1 327.7 384.5L320.5 372.2A141.1 141.1 0 0 0 335.9 361.9Z");
}
}
@keyframes zr0-ani-50 {
0% {
d:path("M320.5 372.2A141.1 141.1 0 0 1 304 380.3L304 380.3A141.1 141.1 0 0 0 320.5 372.2Z");
}
100% {
d:path("M327.7 384.5A155.4 155.4 0 0 1 309.5 393.5L304 380.3A141.1 141.1 0 0 0 320.5 372.2Z");
}
}
@keyframes zr0-ani-51 {
0% {
d:path("M304 380.3A141.1 141.1 0 0 1 286.5 386.3A141.1 141.1 0 0 0 304 380.3Z");
}
100% {
d:path("M309.5 393.5A155.4 155.4 0 0 1 290.2 400.1L286.5 386.3A141.1 141.1 0 0 0 304 380.3Z");
}
}
@keyframes zr0-ani-52 {
0% {
d:path("M275.4 344.9A98.2 98.2 0 0 1 262.8 347.4L262.8 347.4A98.2 98.2 0 0 0 275.4 344.9Z");
}
100% {
d:path("M279.1 358.7A112.5 112.5 0 0 1 264.7 361.5L262.8 347.4A98.2 98.2 0 0 0 275.4 344.9Z");
}
}
@keyframes zr0-ani-53 {
0% {
d:path("M255.4 290.7A41.1 41.1 0 0 1 244.6 290.7L244.6 290.7A41.1 41.1 0 0 0 255.4 290.7Z");
}
100% {
d:path("M257.2 304.9A55.4 55.4 0 0 1 242.8 304.9L244.6 290.7A41.1 41.1 0 0 0 255.4 290.7Z");
}
}
@keyframes zr0-ani-54 {
0% {
d:path("M257.2 304.9A55.4 55.4 0 0 1 242.8 304.9L242.8 304.9A55.4 55.4 0 0 0 257.2 304.9Z");
}
100% {
d:path("M259.1 319A69.6 69.6 0 0 1 240.9 319L242.8 304.9A55.4 55.4 0 0 0 257.2 304.9Z");
}
}
@keyframes zr0-ani-55 {
0% {
d:path("M259.1 319A69.6 69.6 0 0 1 240.9 319L240.9 319A69.6 69.6 0 0 0 259.1 319Z");
}
100% {
d:path("M261 333.2A83.9 83.9 0 0 1 239 333.2L240.9 319A69.6 69.6 0 0 0 259.1 319Z");
}
}
@keyframes zr0-ani-56 {
0% {
d:path("M261 333.2A83.9 83.9 0 0 1 239 333.2L239 333.2A83.9 83.9 0 0 0 261 333.2Z");
}
100% {
d:path("M262.8 347.4A98.2 98.2 0 0 1 237.2 347.4L239 333.2A83.9 83.9 0 0 0 261 333.2Z");
}
}
@keyframes zr0-ani-57 {
0% {
d:path("M262.8 347.4A98.2 98.2 0 0 1 250 348.2L250 348.2A98.2 98.2 0 0 0 262.8 347.4Z");
}
100% {
d:path("M264.7 361.5A112.5 112.5 0 0 1 250 362.5L250 348.2A98.2 98.2 0 0 0 262.8 347.4Z");
}
}
@keyframes zr0-ani-58 {
0% {
d:path("M264.7 361.5A112.5 112.5 0 0 1 250 362.5L250 362.5A112.5 112.5 0 0 0 264.7 361.5Z");
}
100% {
d:path("M266.5 375.7A126.8 126.8 0 0 1 250 376.8L250 362.5A112.5 112.5 0 0 0 264.7 361.5Z");
}
}
@keyframes zr0-ani-59 {
0% {
d:path("M266.5 375.7A126.8 126.8 0 0 1 250 376.8L250 376.8A126.8 126.8 0 0 0 266.5 375.7Z");
}
100% {
d:path("M268.4 389.9A141.1 141.1 0 0 1 250 391.1L250 376.8A126.8 126.8 0 0 0 266.5 375.7Z");
}
}
@keyframes zr0-ani-60 {
0% {
d:path("M250 348.2A98.2 98.2 0 0 1 237.2 347.4L237.2 347.4A98.2 98.2 0 0 0 250 348.2Z");
}
100% {
d:path("M250 362.5A112.5 112.5 0 0 1 235.3 361.5L237.2 347.4A98.2 98.2 0 0 0 250 348.2Z");
}
}
@keyframes zr0-ani-61 {
0% {
d:path("M250 362.5A112.5 112.5 0 0 1 235.3 361.5L235.3 361.5A112.5 112.5 0 0 0 250 362.5Z");
}
100% {
d:path("M250 376.8A126.8 126.8 0 0 1 233.5 375.7L235.3 361.5A112.5 112.5 0 0 0 250 362.5Z");
}
}
@keyframes zr0-ani-62 {
0% {
d:path("M250 376.8A126.8 126.8 0 0 1 233.5 375.7L233.5 375.7A126.8 126.8 0 0 0 250 376.8Z");
}
100% {
d:path("M250 391.1A141.1 141.1 0 0 1 231.6 389.9L233.5 375.7A126.8 126.8 0 0 0 250 376.8Z");
}
}
@keyframes zr0-ani-63 {
0% {
d:path("M250 391.1A141.1 141.1 0 0 1 231.6 389.9L231.6 389.9A141.1 141.1 0 0 0 250 391.1Z");
}
100% {
d:path("M250 405.4A155.4 155.4 0 0 1 229.7 404L231.6 389.9A141.1 141.1 0 0 0 250 391.1Z");
}
}
@keyframes zr0-ani-64 {
0% {
d:path("M248.4 262.4A12.5 12.5 0 0 1 238.5 245.2L238.5 245.2A12.5 12.5 0 0 0 248.4 262.4Z");
}
100% {
d:path("M246.5 276.6A26.8 26.8 0 0 1 225.3 239.7L238.5 245.2A12.5 12.5 0 0 0 248.4 262.4Z");
}
}
@keyframes zr0-ani-65 {
0% {
d:path("M246.5 276.6A26.8 26.8 0 0 1 226.8 263.4L226.8 263.4A26.8 26.8 0 0 0 246.5 276.6Z");
}
100% {
d:path("M244.6 290.7A41.1 41.1 0 0 1 214.4 270.5L226.8 263.4A26.8 26.8 0 0 0 246.5 276.6Z");
}
}
@keyframes zr0-ani-66 {
0% {
d:path("M244.6 290.7A41.1 41.1 0 0 1 239.4 289.7L239.4 289.7A41.1 41.1 0 0 0 244.6 290.7Z");
}
100% {
d:path("M242.8 304.9A55.4 55.4 0 0 1 235.7 303.5L239.4 289.7A41.1 41.1 0 0 0 244.6 290.7Z");
}
}
@keyframes zr0-ani-67 {
0% {
d:path("M239.4 289.7A41.1 41.1 0 0 1 234.3 287.9L234.3 287.9A41.1 41.1 0 0 0 239.4 289.7Z");
}
100% {
d:path("M235.7 303.5A55.4 55.4 0 0 1 228.8 301.1L234.3 287.9A41.1 41.1 0 0 0 239.4 289.7Z");
}
}
@keyframes zr0-ani-68 {
0% {
d:path("M234.3 287.9A41.1 41.1 0 0 1 229.5 285.6A41.1 41.1 0 0 0 234.3 287.9Z");
}
100% {
d:path("M228.8 301.1A55.4 55.4 0 0 1 222.3 297.9L229.5 285.6A41.1 41.1 0 0 0 234.3 287.9Z");
}
}
@keyframes zr0-ani-69 {
0% {
d:path("M229.5 285.6A41.1 41.1 0 0 1 225 282.6L225 282.6A41.1 41.1 0 0 0 229.5 285.6Z");
}
100% {
d:path("M222.3 297.9A55.4 55.4 0 0 1 216.3 293.9L225 282.6A41.1 41.1 0 0 0 229.5 285.6Z");
}
}
@keyframes zr0-ani-70 {
0% {
d:path("M225 282.6A41.1 41.1 0 0 1 221 279L221 279A41.1 41.1 0 0 0 225 282.6Z");
}
100% {
d:path("M216.3 293.9A55.4 55.4 0 0 1 210.9 289.1L221 279A41.1 41.1 0 0 0 225 282.6Z");
}
}
@keyframes zr0-ani-71 {
0% {
d:path("M221 279A41.1 41.1 0 0 1 217.4 275A41.1 41.1 0 0 0 221 279Z");
}
100% {
d:path("M210.9 289.1A55.4 55.4 0 0 1 206.1 283.7L217.4 275A41.1 41.1 0 0 0 221 279Z");
}
}
@keyframes zr0-ani-72 {
0% {
d:path("M217.4 275A41.1 41.1 0 0 1 214.4 270.5L214.4 270.5A41.1 41.1 0 0 0 217.4 275Z");
}
100% {
d:path("M206.1 283.7A55.4 55.4 0 0 1 202.1 277.7L214.4 270.5A41.1 41.1 0 0 0 217.4 275Z");
}
}
@keyframes zr0-ani-73 {
0% {
d:path("M226.8 263.4A26.8 26.8 0 0 1 225.3 239.7L225.3 239.7A26.8 26.8 0 0 0 226.8 263.4Z");
}
100% {
d:path("M214.4 270.5A41.1 41.1 0 0 1 212.1 234.3L225.3 239.7A26.8 26.8 0 0 0 226.8 263.4Z");
}
}
@keyframes zr0-ani-74 {
0% {
d:path("M214.4 270.5A41.1 41.1 0 0 1 210.3 260.6L210.3 260.6A41.1 41.1 0 0 0 214.4 270.5Z");
}
100% {
d:path("M202.1 277.7A55.4 55.4 0 0 1 196.5 264.3L210.3 260.6A41.1 41.1 0 0 0 214.4 270.5Z");
}
}
@keyframes zr0-ani-75 {
0% {
d:path("M202.1 277.7A55.4 55.4 0 0 1 196.5 264.3L196.5 264.3A55.4 55.4 0 0 0 202.1 277.7Z");
}
100% {
d:path("M189.7 284.8A69.6 69.6 0 0 1 182.7 268L196.5 264.3A55.4 55.4 0 0 0 202.1 277.7Z");
}
}
@keyframes zr0-ani-76 {
0% {
d:path("M210.3 260.6A41.1 41.1 0 0 1 209.3 255.4L209.3 255.4A41.1 41.1 0 0 0 210.3 260.6Z");
}
100% {
d:path("M196.5 264.3A55.4 55.4 0 0 1 195.1 257.2L209.3 255.4A41.1 41.1 0 0 0 210.3 260.6Z");
}
}
@keyframes zr0-ani-77 {
0% {
d:path("M196.5 264.3A55.4 55.4 0 0 1 195.1 257.2L195.1 257.2A55.4 55.4 0 0 0 196.5 264.3Z");
}
100% {
d:path("M182.7 268A69.6 69.6 0 0 1 181 259.1L195.1 257.2A55.4 55.4 0 0 0 196.5 264.3Z");
}
}
@keyframes zr0-ani-78 {
0% {
d:path("M209.3 255.4A41.1 41.1 0 0 1 208.9 250L208.9 250A41.1 41.1 0 0 0 209.3 255.4Z");
}
100% {
d:path("M195.1 257.2A55.4 55.4 0 0 1 194.6 250L208.9 250A41.1 41.1 0 0 0 209.3 255.4Z");
}
}
@keyframes zr0-ani-79 {
0% {
d:path("M195.1 257.2A55.4 55.4 0 0 1 194.6 250L194.6 250A55.4 55.4 0 0 0 195.1 257.2Z");
}
100% {
d:path("M181 259.1A69.6 69.6 0 0 1 180.4 250L194.6 250A55.4 55.4 0 0 0 195.1 257.2Z");
}
}
@keyframes zr0-ani-80 {
0% {
d:path("M208.9 250A41.1 41.1 0 0 1 209.3 244.6L209.3 244.6A41.1 41.1 0 0 0 208.9 250Z");
}
100% {
d:path("M194.6 250A55.4 55.4 0 0 1 195.1 242.8L209.3 244.6A41.1 41.1 0 0 0 208.9 250Z");
}
}
@keyframes zr0-ani-81 {
0% {
d:path("M194.6 250A55.4 55.4 0 0 1 195.1 242.8L195.1 242.8A55.4 55.4 0 0 0 194.6 250Z");
}
100% {
d:path("M180.4 250A69.6 69.6 0 0 1 181 240.9L195.1 242.8A55.4 55.4 0 0 0 194.6 250Z");
}
}
@keyframes zr0-ani-82 {
0% {
d:path("M209.3 244.6A41.1 41.1 0 0 1 210.3 239.4L210.3 239.4A41.1 41.1 0 0 0 209.3 244.6Z");
}
100% {
d:path("M195.1 242.8A55.4 55.4 0 0 1 196.5 235.7L210.3 239.4A41.1 41.1 0 0 0 209.3 244.6Z");
}
}
@keyframes zr0-ani-83 {
0% {
d:path("M195.1 242.8A55.4 55.4 0 0 1 196.5 235.7L196.5 235.7A55.4 55.4 0 0 0 195.1 242.8Z");
}
100% {
d:path("M181 240.9A69.6 69.6 0 0 1 182.7 232L196.5 235.7A55.4 55.4 0 0 0 195.1 242.8Z");
}
}
@keyframes zr0-ani-84 {
0% {
d:path("M210.3 239.4A41.1 41.1 0 0 1 212.1 234.3L212.1 234.3A41.1 41.1 0 0 0 210.3 239.4Z");
}
100% {
d:path("M196.5 235.7A55.4 55.4 0 0 1 198.9 228.8L212.1 234.3A41.1 41.1 0 0 0 210.3 239.4Z");
}
}
@keyframes zr0-ani-85 {
0% {
d:path("M196.5 235.7A55.4 55.4 0 0 1 198.9 228.8L198.9 228.8A55.4 55.4 0 0 0 196.5 235.7Z");
}
100% {
d:path("M182.7 232A69.6 69.6 0 0 1 185.7 223.3L198.9 228.8A55.4 55.4 0 0 0 196.5 235.7Z");
}
}
@keyframes zr0-ani-86 {
0% {
d:path("M238.5 245.2A12.5 12.5 0 0 1 250 237.5A12.5 12.5 0 0 0 238.5 245.2Z");
}
100% {
d:path("M225.3 239.7A26.8 26.8 0 0 1 250 223.2L250 237.5A12.5 12.5 0 0 0 238.5 245.2Z");
}
}
@keyframes zr0-ani-87 {
0% {
d:path("M225.3 239.7A26.8 26.8 0 0 1 250 223.2A26.8 26.8 0 0 0 225.3 239.7Z");
}
100% {
d:path("M212.1 234.3A41.1 41.1 0 0 1 250 208.9L250 223.2A26.8 26.8 0 0 0 225.3 239.7Z");
}
}
]]>

</style>
</svg>