<svg width="500" height="500" xmlns="http://www.w3.org/2000/svg" xmlns:xlink="http://www.w3.org/1999/xlink" version="1.1" baseProfile="full" viewBox="0 0 500 500">
<rect width="500" height="500" x="0" y="0" id="0" fill="none"></rect>
<path d="M250 219.3A30.7 30.7 0 1 1 236.2 222.6L244.4 238.8A12.5 12.5 0 1 0 250 237.5Z" fill="#000" stroke="white" stroke-linejoin="bevel" class="zr8-cls-0"></path>
<path d="M250 201.1A48.9 48.9 0 1 1 201.2 252.8L219.4 251.8A30.7 30.7 0 1 0 250 219.3Z" fill="#4949CD" fill-opacity="0.5" stroke="#fff" stroke-width="4" stroke-opacity="0.5" stroke-linejoin="bevel" class="zr8-cls-1"></path>
<path d="M250 183A67 67 0 0 1 298.8 296L285.5 283.5A48.9 48.9 0 0 0 250 201.1Z" fill="#000" stroke="white" stroke-linejoin="bevel" class="zr8-cls-2"></path>
<path d="M250 164.8A85.2 85.2 0 0 1 312 308.5L298.8 296A67 67 0 0 0 250 183Z" fill="#000" stroke="white" stroke-linejoin="bevel" class="zr8-cls-3"></path>
<path d="M250 146.6A103.4 103.4 0 0 1 325.2 321L312 308.5A85.2 85.2 0 0 0 250 164.8Z" fill="#4949CD" fill-opacity="0.5" stroke="#fff" stroke-width="4" stroke-opacity="0.5" stroke-linejoin="bevel" class="zr8-cls-4"></path>
<path d="M250 128.4A121.6 121.6 0 0 1 338.4 333.4L325.2 321A103.4 103.4 0 0 0 250 146.6Z" fill="#0AA40D" stroke="white" stroke-linejoin="bevel" class="zr8-cls-5"></path>
<path d="M250 110.2A139.8 139.8 0 0 1 378.3 194.6L361.6 201.8A121.6 121.6 0 0 0 250 128.4Z" fill="#000" stroke="white" stroke-linejoin="bevel" class="zr8-cls-6"></path>
<path d="M250 92A158 158 0 0 1 395 187.4L378.3 194.6A139.8 139.8 0 0 0 250 110.2Z" fill="#4949CD" fill-opacity="0.5" stroke="#fff" stroke-width="4" stroke-opacity="0.5" stroke-linejoin="bevel" class="zr8-cls-7"></path>
<path d="M250 73.9A176.1 176.1 0 0 1 411.7 180.2L395 187.4A158 158 0 0 0 250 92Z" fill="#000" stroke="white" stroke-linejoin="bevel" class="zr8-cls-8"></path>
<path d="M250 55.7A194.3 194.3 0 0 1 337.2 76.4L329 92.6A176.1 176.1 0 0 0 250 73.9Z" fill="#000" stroke="white" stroke-linejoin="bevel" class="zr8-cls-9"></path>
<path d="M250 37.5A212.5 212.5 0 0 1 345.4 60.1L337.2 76.4A194.3 194.3 0 0 0 250 55.7Z" fill="#C8C8C8" stroke="white" stroke-linejoin="bevel" class="zr8-cls-10"></path>
<path d="M337.2 76.4A194.3 194.3 0 0 1 405.9 134L391.3 144.8A176.1 176.1 0 0 0 329 92.6Z" fill="#000" stroke="white" stroke-linejoin="bevel" class="zr8-cls-11"></path>
<path d="M345.4 60.1A212.5 212.5 0 0 1 420.5 123.1L405.9 134A194.3 194.3 0 0 0 337.2 76.4Z" fill="#C8C8C8" stroke="white" stroke-linejoin="bevel" class="zr8-cls-12"></path>
<path d="M405.9 134A194.3 194.3 0 0 1 428.4 173L411.7 180.2A176.1 176.1 0 0 0 391.3 144.8Z" fill="#000" stroke="white" stroke-linejoin="bevel" class="zr8-cls-13"></path>
<path d="M420.5 123.1A212.5 212.5 0 0 1 445.1 165.8L428.4 173A194.3 194.3 0 0 0 405.9 134Z" fill="#C8C8C8" stroke="white" stroke-linejoin="bevel" class="zr8-cls-14"></path>
<path d="M378.3 194.6A139.8 139.8 0 0 1 371 319.9L355.3 310.8A121.6 121.6 0 0 0 361.6 201.8Z" fill="#C8C8C8" stroke="white" stroke-linejoin="bevel" class="zr8-cls-15"></path>
<path d="M371 319.9A139.8 139.8 0 0 1 351.7 345.9L338.4 333.4A121.6 121.6 0 0 0 355.3 310.8Z" fill="#000" stroke="white" stroke-linejoin="bevel" class="zr8-cls-16"></path>
<path d="M298.8 296A67 67 0 0 1 213.2 306L223.1 290.8A48.9 48.9 0 0 0 285.5 283.5Z" fill="#000" stroke="white" stroke-linejoin="bevel" class="zr8-cls-17"></path>
<path d="M312 308.5A85.2 85.2 0 0 1 203.2 321.2L213.2 306A67 67 0 0 0 298.8 296Z" fill="#000" stroke="white" stroke-linejoin="bevel" class="zr8-cls-18"></path>
<path d="M325.2 321A103.4 103.4 0 0 1 193.2 336.4L203.2 321.2A85.2 85.2 0 0 0 312 308.5Z" fill="#4949CD" fill-opacity="0.5" stroke="#fff" stroke-width="4" stroke-opacity="0.5" stroke-linejoin="bevel" class="zr8-cls-19"></path>
<path d="M338.4 333.4A121.6 121.6 0 0 1 183.2 351.6L193.2 336.4A103.4 103.4 0 0 0 325.2 321Z" fill="#0AA40D" stroke="white" stroke-linejoin="bevel" class="zr8-cls-20"></path>
<path d="M351.7 345.9A139.8 139.8 0 0 1 233.8 388.8L235.9 370.8A121.6 121.6 0 0 0 338.4 333.4Z" fill="#000" stroke="white" stroke-linejoin="bevel" class="zr8-cls-21"></path>
<path d="M364.9 358.4A158 158 0 0 1 268.3 406.9L266.2 388.8A139.8 139.8 0 0 0 351.7 345.9Z" fill="#4949CD" fill-opacity="0.5" stroke="#fff" stroke-width="4" stroke-opacity="0.5" stroke-linejoin="bevel" class="zr8-cls-22"></path>
<path d="M378.1 370.9A176.1 176.1 0 0 1 270.4 424.9L268.3 406.9A158 158 0 0 0 364.9 358.4Z" fill="#000" stroke="white" stroke-linejoin="bevel" class="zr8-cls-23"></path>
<path d="M391.3 383.3A194.3 194.3 0 0 1 272.6 443L270.4 424.9A176.1 176.1 0 0 0 378.1 370.9Z" fill="#000" stroke="white" stroke-linejoin="bevel" class="zr8-cls-24"></path>
<path d="M404.6 395.8A212.5 212.5 0 0 1 274.7 461.1L272.6 443A194.3 194.3 0 0 0 391.3 383.3Z" fill="#C8C8C8" stroke="white" stroke-linejoin="bevel" class="zr8-cls-25"></path>
<path d="M268.3 406.9A158 158 0 0 1 231.7 406.9L233.8 388.8A139.8 139.8 0 0 0 266.2 388.8Z" fill="#49ff49" fill-opacity="0.5" stroke="#fff" stroke-width="4" stroke-opacity="0.5" stroke-linejoin="bevel" class="zr8-cls-26"></path>
<path d="M270.4 424.9A176.1 176.1 0 0 1 229.6 424.9L231.7 406.9A158 158 0 0 0 268.3 406.9Z" fill="#000" stroke="white" stroke-linejoin="bevel" class="zr8-cls-27"></path>
<path d="M272.6 443A194.3 194.3 0 0 1 227.4 443L229.6 424.9A176.1 176.1 0 0 0 270.4 424.9Z" fill="#000" stroke="white" stroke-linejoin="bevel" class="zr8-cls-28"></path>
<path d="M233.8 388.8A139.8 139.8 0 0 1 173.2 366.8L183.2 351.6A121.6 121.6 0 0 0 235.9 370.8Z" fill="#C8C8C8" stroke="white" stroke-linejoin="bevel" class="zr8-cls-29"></path>
<path d="M213.2 306A67 67 0 0 1 185.8 269.2L203.2 264A48.9 48.9 0 0 0 223.1 290.8Z" fill="#000" stroke="white" stroke-linejoin="bevel" class="zr8-cls-30"></path>
<path d="M203.2 321.2A85.2 85.2 0 0 1 168.4 274.4L185.8 269.2A67 67 0 0 0 213.2 306Z" fill="#000" stroke="white" stroke-linejoin="bevel" class="zr8-cls-31"></path>
<path d="M193.2 336.4A103.4 103.4 0 0 1 150.9 279.7L168.4 274.4A85.2 85.2 0 0 0 203.2 321.2Z" fill="#4949CD" fill-opacity="0.5" stroke="#fff" stroke-width="4" stroke-opacity="0.5" stroke-linejoin="bevel" class="zr8-cls-32"></path>
<path d="M183.2 351.6A121.6 121.6 0 0 1 133.5 284.9L150.9 279.7A103.4 103.4 0 0 0 193.2 336.4Z" fill="#F3C142" stroke="white" stroke-linejoin="bevel" class="zr8-cls-33"></path>
<path d="M173.2 366.8A139.8 139.8 0 0 1 116.1 290.1L133.5 284.9A121.6 121.6 0 0 0 183.2 351.6Z" fill="#C8C8C8" stroke="white" stroke-linejoin="bevel" class="zr8-cls-34"></path>
<path d="M185.8 269.2A67 67 0 0 1 183.1 253.9L201.2 252.8A48.9 48.9 0 0 0 203.2 264Z" fill="#000" stroke="white" stroke-linejoin="bevel" class="zr8-cls-35"></path>
<path d="M168.4 274.4A85.2 85.2 0 0 1 164.9 255L183.1 253.9A67 67 0 0 0 185.8 269.2Z" fill="#000" stroke="white" stroke-linejoin="bevel" class="zr8-cls-36"></path>
<path d="M150.9 279.7A103.4 103.4 0 0 1 146.8 256L164.9 255A85.2 85.2 0 0 0 168.4 274.4Z" fill="#4949CD" fill-opacity="0.5" stroke="#fff" stroke-width="4" stroke-opacity="0.5" stroke-linejoin="bevel" class="zr8-cls-37"></path>
<path d="M133.5 284.9A121.6 121.6 0 0 1 128.6 257.1L146.8 256A103.4 103.4 0 0 0 150.9 279.7Z" fill="#F3C142" stroke="white" stroke-linejoin="bevel" class="zr8-cls-38"></path>
<path d="M116.1 290.1A139.8 139.8 0 0 1 110.5 258.1L128.6 257.1A121.6 121.6 0 0 0 133.5 284.9Z" fill="#000" stroke="white" stroke-linejoin="bevel" class="zr8-cls-39"></path>
<path d="M201.2 252.8A48.9 48.9 0 0 1 210.8 220.8L225.4 231.7A30.7 30.7 0 0 0 219.4 251.8Z" fill="#ff4949" fill-opacity="0.5" stroke="#fff" stroke-width="4" stroke-opacity="0.5" stroke-linejoin="bevel" class="zr8-cls-40"></path>
<path d="M183.1 253.9A67 67 0 0 1 184 238.4L201.9 241.5A48.9 48.9 0 0 0 201.2 252.8Z" fill="#000" stroke="white" stroke-linejoin="bevel" class="zr8-cls-41"></path>
<path d="M164.9 255A85.2 85.2 0 0 1 166.1 235.2L184 238.4A67 67 0 0 0 183.1 253.9Z" fill="#F3C142" stroke="white" stroke-linejoin="bevel" class="zr8-cls-42"></path>
<path d="M184 238.4A67 67 0 0 1 188.4 223.4L205.1 230.6A48.9 48.9 0 0 0 201.9 241.5Z" fill="#000" stroke="white" stroke-linejoin="bevel" class="zr8-cls-43"></path>
<path d="M166.1 235.2A85.2 85.2 0 0 1 171.7 216.2L188.4 223.4A67 67 0 0 0 184 238.4Z" fill="#0AA40D" stroke="white" stroke-linejoin="bevel" class="zr8-cls-44"></path>
<path d="M188.4 223.4A67 67 0 0 1 196.2 210L210.8 220.8A48.9 48.9 0 0 0 205.1 230.6Z" fill="#000" stroke="white" stroke-linejoin="bevel" class="zr8-cls-45"></path>
<path d="M171.7 216.2A85.2 85.2 0 0 1 181.6 199.1L196.2 210A67 67 0 0 0 188.4 223.4Z" fill="#F3C142" stroke="white" stroke-linejoin="bevel" class="zr8-cls-46"></path>
<path d="M210.8 220.8A48.9 48.9 0 0 1 228.1 206.3L236.2 222.6A30.7 30.7 0 0 0 225.4 231.7Z" fill="#49ff49" fill-opacity="0.5" stroke="#fff" stroke-width="4" stroke-opacity="0.5" stroke-linejoin="bevel" class="zr8-cls-47"></path>
<path d="M196.2 210A67 67 0 0 1 206.9 198.6L218.6 212.6A48.9 48.9 0 0 0 210.8 220.8Z" fill="#000" stroke="white" stroke-linejoin="bevel" class="zr8-cls-48"></path>
<path d="M181.6 199.1A85.2 85.2 0 0 1 195.2 184.7L206.9 198.6A67 67 0 0 0 196.2 210Z" fill="#0AA40D" stroke="white" stroke-linejoin="bevel" class="zr8-cls-49"></path>
<path d="M206.9 198.6A67 67 0 0 1 219.9 190.1L228.1 206.3A48.9 48.9 0 0 0 218.6 212.6Z" fill="#000" stroke="white" stroke-linejoin="bevel" class="zr8-cls-50"></path>
<path d="M195.2 184.7A85.2 85.2 0 0 1 211.8 173.8L219.9 190.1A67 67 0 0 0 206.9 198.6Z" fill="#F3C142" stroke="white" stroke-linejoin="bevel" class="zr8-cls-51"></path>
<path d="M236.2 222.6A30.7 30.7 0 0 1 250 219.3L250 237.5A12.5 12.5 0 0 0 244.4 238.8Z" fill="#C8C8C8" stroke="white" stroke-linejoin="bevel" class="zr8-cls-52"></path>
<path d="M228.1 206.3A48.9 48.9 0 0 1 238.7 202.5L242.9 220.1A30.7 30.7 0 0 0 236.2 222.6Z" fill="#C8C8C8" stroke="white" stroke-linejoin="bevel" class="zr8-cls-53"></path>
<path d="M238.7 202.5A48.9 48.9 0 0 1 250 201.1L250 219.3A30.7 30.7 0 0 0 242.9 220.1Z" fill="#C8C8C8" stroke="white" stroke-linejoin="bevel" class="zr8-cls-54"></path>
<text dominant-baseline="central" text-anchor="middle" style="font-size:12px;font-family:sans-serif;" transform="matrix(0.973,-0.231,0.231,0.973,254.9792,271.0089)" fill="#ccc" stroke="#000" stroke-width="2" paint-order="stroke" stroke-miterlimit="2">paths</text>
<text dominant-baseline="central" text-anchor="middle" style="font-size:10px;font-family:sans-serif;" transform="matrix(0.396,0.918,-0.918,0.396,303.2148,227.0454)" fill="#ccc" stroke="#000" stroke-width="2" paint-order="stroke" stroke-miterlimit="2">/v2/bets</text>
<text dominant-baseline="central" text-anchor="middle" style="font-size:9px;font-family:sans-serif;" transform="matrix(0.396,0.918,-0.918,0.396,319.9096,219.8439)" fill="#ccc" stroke="#000" stroke-width="2" paint-order="stroke" stroke-miterlimit="2">operations</text>
<text dominant-baseline="central" text-anchor="middle" style="font-size:12px;font-family:sans-serif;" transform="matrix(0.396,0.918,-0.918,0.396,353.2993,205.441)" fill="#eee" stroke="#0AA40D" stroke-width="2" paint-order="stroke" stroke-miterlimit="2">GET</text>
<text dominant-baseline="central" text-anchor="middle" style="font-size:9px;font-family:sans-serif;" transform="matrix(0.835,0.55,-0.55,0.835,321.8108,140.8169)" fill="#ccc" stroke="#000" stroke-width="2" paint-order="stroke" stroke-miterlimit="2">params</text>
<text dominant-baseline="central" text-anchor="middle" style="font-size:12px;font-family:sans-serif;" transform="matrix(0.835,0.55,-0.55,0.835,341.793,110.4356)" fill="#ccc" stroke="#000" stroke-width="2" paint-order="stroke" stroke-miterlimit="2">query</text>
<text dominant-baseline="central" text-anchor="middle" style="font-size:10px;font-family:sans-serif;" transform="matrix(0.973,0.231,-0.231,0.973,292.7163,69.7656)" fill="#ccc" stroke="#000" stroke-width="2" paint-order="stroke" stroke-miterlimit="2">fromDate</text>
<text dominant-baseline="central" text-anchor="middle" style="font-size:9px;font-family:sans-serif;" transform="matrix(0.973,0.231,-0.231,0.973,296.9094,52.0738)" fill="#333">description</text>
<text dominant-baseline="central" text-anchor="middle" style="font-size:12px;font-family:sans-serif;" transform="matrix(0.766,0.643,-0.643,0.766,369.0618,108.1077)" fill="#ccc" stroke="#000" stroke-width="2" paint-order="stroke" stroke-miterlimit="2">toDate</text>
<text dominant-baseline="central" text-anchor="middle" style="font-size:9px;font-family:sans-serif;" transform="matrix(0.766,0.643,-0.643,0.766,380.7488,94.1796)" fill="#333">description</text>
<text dominant-baseline="central" text-anchor="middle" style="font-size:9px;font-family:sans-serif;" transform="matrix(0.5,0.866,-0.866,0.5,426.1574,148.2955)" fill="#333">description</text>
<text dominant-baseline="central" text-anchor="middle" style="font-size:9px;font-family:sans-serif;" transform="matrix(0.058,-0.998,0.998,0.058,380.4607,257.5985)" fill="#333">description</text>
<text dominant-baseline="central" text-anchor="middle" style="font-size:9px;font-family:sans-serif;" transform="matrix(0.597,-0.802,0.802,0.597,354.8229,328.0378)" fill="#ccc" stroke="#000" stroke-width="2" paint-order="stroke" stroke-miterlimit="2">deprecated</text>
<text dominant-baseline="central" text-anchor="middle" style="font-size:10px;font-family:sans-serif;" transform="matrix(0.993,-0.116,0.116,0.993,256.7281,307.5627)" fill="#ccc" stroke="#000" stroke-width="2" paint-order="stroke" stroke-miterlimit="2">/v3/bets</text>
<text dominant-baseline="central" text-anchor="middle" style="font-size:9px;font-family:sans-serif;" transform="matrix(0.993,-0.116,0.116,0.993,258.8389,325.6216)" fill="#ccc" stroke="#000" stroke-width="2" paint-order="stroke" stroke-miterlimit="2">operations</text>
<text dominant-baseline="central" text-anchor="middle" style="font-size:12px;font-family:sans-serif;" transform="matrix(0.993,-0.116,0.116,0.993,263.0605,361.7393)" fill="#eee" stroke="#0AA40D" stroke-width="2" paint-order="stroke" stroke-miterlimit="2">GET</text>
<text dominant-baseline="central" text-anchor="middle" style="font-size:9px;font-family:sans-serif;" transform="matrix(0.94,-0.342,0.342,0.94,294.6958,372.8007)" fill="#ccc" stroke="#000" stroke-width="2" paint-order="stroke" stroke-miterlimit="2">params</text>
<text dominant-baseline="central" text-anchor="middle" style="font-size:12px;font-family:sans-serif;" transform="matrix(0.894,-0.449,0.449,0.894,324.9699,399.2773)" fill="#ccc" stroke="#000" stroke-width="2" paint-order="stroke" stroke-miterlimit="2">query</text>
<text dominant-baseline="central" text-anchor="middle" style="font-size:9px;font-family:sans-serif;" transform="matrix(0.894,-0.449,0.449,0.894,341.2898,431.773)" fill="#333">description</text>
<text dominant-baseline="central" text-anchor="middle" style="font-size:12px;font-family:sans-serif;" transform="translate(250 417.0455)" fill="#ccc" stroke="#000" stroke-width="2" paint-order="stroke" stroke-miterlimit="2">query</text>
<text dominant-baseline="central" text-anchor="middle" style="font-size:10px;font-family:sans-serif;" transform="translate(250 435.2273)" fill="#ccc" stroke="#000" stroke-width="2" paint-order="stroke" stroke-miterlimit="2">betType</text>
<text dominant-baseline="central" text-anchor="middle" style="font-size:9px;font-family:sans-serif;" transform="matrix(0.94,0.342,-0.342,0.94,205.3042,372.8007)" fill="#333">description</text>
<text dominant-baseline="central" text-anchor="middle" style="font-size:9px;font-family:sans-serif;" transform="matrix(0.597,0.802,-0.802,0.597,188.9293,295.4655)" fill="#ccc" stroke="#000" stroke-width="2" paint-order="stroke" stroke-miterlimit="2">operations</text>
<text dominant-baseline="central" text-anchor="middle" style="font-size:12px;font-family:sans-serif;" transform="matrix(0.597,0.802,-0.802,0.597,159.7611,317.1803)" fill="#333">POST</text>
<text dominant-baseline="central" text-anchor="middle" style="font-size:9px;font-family:sans-serif;" transform="matrix(0.597,0.802,-0.802,0.597,145.1771,328.0378)" fill="#333">description</text>
<text dominant-baseline="central" text-anchor="middle" style="font-size:12px;font-family:sans-serif;" transform="matrix(0.174,0.985,-0.985,0.174,139.2091,269.5354)" fill="#333">POST</text>
<text dominant-baseline="central" text-anchor="middle" style="font-size:9px;font-family:sans-serif;" transform="matrix(0.174,0.985,-0.985,0.174,121.3035,272.6927)" fill="#ccc" stroke="#000" stroke-width="2" paint-order="stroke" stroke-miterlimit="2">deprecated</text>
<text dominant-baseline="central" text-anchor="middle" style="font-size:12px;font-family:sans-serif;" transform="matrix(0.287,-0.958,0.958,0.287,177.0622,228.1638)" fill="#eee" stroke="#0AA40D" stroke-width="2" paint-order="stroke" stroke-miterlimit="2">GET</text>
<text dominant-baseline="central" text-anchor="middle" style="font-size:10px;font-family:sans-serif;" transform="matrix(0.686,-0.727,0.727,0.686,207.8454,210.2292)" fill="#ccc" stroke="#000" stroke-width="2" paint-order="stroke" stroke-miterlimit="2">/v3/bets</text>
<text dominant-baseline="central" text-anchor="middle" style="font-size:12px;font-family:sans-serif;" transform="matrix(0.686,-0.727,0.727,0.686,194.6204,197.7521)" fill="#eee" stroke="#0AA40D" stroke-width="2" paint-order="stroke" stroke-miterlimit="2">GET</text>
<text dominant-baseline="central" text-anchor="middle" style="font-size:12px;font-family:sans-serif;" transform="matrix(0.973,-0.231,0.231,0.973,245.0208,228.9911)" fill="#333">info</text>
<text dominant-baseline="central" text-anchor="middle" style="font-size:12px;font-family:sans-serif;" transform="matrix(0.94,-0.342,0.342,0.94,236.3969,212.6259)" fill="#333">title</text>
<path d="M-14.8 -16l66.6 0l0 32l-66.6 0Z" transform="translate(448.253 16)" fill="none" stroke="#ccc" stroke-width="0"></path>
<path d="M-7.3 -1.8L-0.1 4.8L7.3 -1.6M-7.3 4.3L-7.3 8.5L7.1 8.5L7.1 4.3M-0.1 4.7L-0.1 -8.5" transform="translate(448.253 16)" fill="none" stroke="#666"></path>
<path d="M-7.9 1M5.1 -3.4L8.1 -3.4L8.1 -6.4M8 -3C6.7 -6.4 3.2 -8.9 -1 -8.4C-5.3 -8 -8.6 -4.2 -8.4 0.2M-5.1 3.4L-8.1 3.4L-8.1 6.4M-8 3C-6.7 6.4 -3.2 8.9 1 8.4C5.3 8 8.6 4.2 8.4 -0.2" transform="translate(484.0476 16)" fill="none" stroke="#666"></path>
<style ><![CDATA[
.zr8-cls-0 {
animation:zr8-ani-0 1s cubic-bezier(0.65,0,0.35,1) both;
}
.zr8-cls-1 {
animation:zr8-ani-1 1s cubic-bezier(0.65,0,0.35,1) both;
}
.zr8-cls-2 {
animation:zr8-ani-2 1s cubic-bezier(0.65,0,0.35,1) both;
}
.zr8-cls-3 {
animation:zr8-ani-3 1s cubic-bezier(0.65,0,0.35,1) both;
}
.zr8-cls-4 {
animation:zr8-ani-4 1s cubic-bezier(0.65,0,0.35,1) both;
}
.zr8-cls-5 {
animation:zr8-ani-5 1s cubic-bezier(0.65,0,0.35,1) both;
}
.zr8-cls-6 {
animation:zr8-ani-6 1s cubic-bezier(0.65,0,0.35,1) both;
}
.zr8-cls-7 {
animation:zr8-ani-7 1s cubic-bezier(0.65,0,0.35,1) both;
}
.zr8-cls-8 {
animation:zr8-ani-8 1s cubic-bezier(0.65,0,0.35,1) both;
}
.zr8-cls-9 {
animation:zr8-ani-9 1s cubic-bezier(0.65,0,0.35,1) both;
}
.zr8-cls-10 {
animation:zr8-ani-10 1s cubic-bezier(0.65,0,0.35,1) both;
}
.zr8-cls-11 {
animation:zr8-ani-11 1s cubic-bezier(0.65,0,0.35,1) both;
}
.zr8-cls-12 {
animation:zr8-ani-12 1s cubic-bezier(0.65,0,0.35,1) both;
}
.zr8-cls-13 {
animation:zr8-ani-13 1s cubic-bezier(0.65,0,0.35,1) both;
}
.zr8-cls-14 {
animation:zr8-ani-14 1s cubic-bezier(0.65,0,0.35,1) both;
}
.zr8-cls-15 {
animation:zr8-ani-15 1s cubic-bezier(0.65,0,0.35,1) both;
}
.zr8-cls-16 {
animation:zr8-ani-16 1s cubic-bezier(0.65,0,0.35,1) both;
}
.zr8-cls-17 {
animation:zr8-ani-17 1s cubic-bezier(0.65,0,0.35,1) both;
}
.zr8-cls-18 {
animation:zr8-ani-18 1s cubic-bezier(0.65,0,0.35,1) both;
}
.zr8-cls-19 {
animation:zr8-ani-19 1s cubic-bezier(0.65,0,0.35,1) both;
}
.zr8-cls-20 {
animation:zr8-ani-20 1s cubic-bezier(0.65,0,0.35,1) both;
}
.zr8-cls-21 {
animation:zr8-ani-21 1s cubic-bezier(0.65,0,0.35,1) both;
}
.zr8-cls-22 {
animation:zr8-ani-22 1s cubic-bezier(0.65,0,0.35,1) both;
}
.zr8-cls-23 {
animation:zr8-ani-23 1s cubic-bezier(0.65,0,0.35,1) both;
}
.zr8-cls-24 {
animation:zr8-ani-24 1s cubic-bezier(0.65,0,0.35,1) both;
}
.zr8-cls-25 {
animation:zr8-ani-25 1s cubic-bezier(0.65,0,0.35,1) both;
}
.zr8-cls-26 {
animation:zr8-ani-26 1s cubic-bezier(0.65,0,0.35,1) both;
}
.zr8-cls-27 {
animation:zr8-ani-27 1s cubic-bezier(0.65,0,0.35,1) both;
}
.zr8-cls-28 {
animation:zr8-ani-28 1s cubic-bezier(0.65,0,0.35,1) both;
}
.zr8-cls-29 {
animation:zr8-ani-29 1s cubic-bezier(0.65,0,0.35,1) both;
}
.zr8-cls-30 {
animation:zr8-ani-30 1s cubic-bezier(0.65,0,0.35,1) both;
}
.zr8-cls-31 {
animation:zr8-ani-31 1s cubic-bezier(0.65,0,0.35,1) both;
}
.zr8-cls-32 {
animation:zr8-ani-32 1s cubic-bezier(0.65,0,0.35,1) both;
}
.zr8-cls-33 {
animation:zr8-ani-33 1s cubic-bezier(0.65,0,0.35,1) both;
}
.zr8-cls-34 {
animation:zr8-ani-34 1s cubic-bezier(0.65,0,0.35,1) both;
}
.zr8-cls-35 {
animation:zr8-ani-35 1s cubic-bezier(0.65,0,0.35,1) both;
}
.zr8-cls-36 {
animation:zr8-ani-36 1s cubic-bezier(0.65,0,0.35,1) both;
}
.zr8-cls-37 {
animation:zr8-ani-37 1s cubic-bezier(0.65,0,0.35,1) both;
}
.zr8-cls-38 {
animation:zr8-ani-38 1s cubic-bezier(0.65,0,0.35,1) both;
}
.zr8-cls-39 {
animation:zr8-ani-39 1s cubic-bezier(0.65,0,0.35,1) both;
}
.zr8-cls-40 {
animation:zr8-ani-40 1s cubic-bezier(0.65,0,0.35,1) both;
}
.zr8-cls-41 {
animation:zr8-ani-41 1s cubic-bezier(0.65,0,0.35,1) both;
}
.zr8-cls-42 {
animation:zr8-ani-42 1s cubic-bezier(0.65,0,0.35,1) both;
}
.zr8-cls-43 {
animation:zr8-ani-43 1s cubic-bezier(0.65,0,0.35,1) both;
}
.zr8-cls-44 {
animation:zr8-ani-44 1s cubic-bezier(0.65,0,0.35,1) both;
}
.zr8-cls-45 {
animation:zr8-ani-45 1s cubic-bezier(0.65,0,0.35,1) both;
}
.zr8-cls-46 {
animation:zr8-ani-46 1s cubic-bezier(0.65,0,0.35,1) both;
}
.zr8-cls-47 {
animation:zr8-ani-47 1s cubic-bezier(0.65,0,0.35,1) both;
}
.zr8-cls-48 {
animation:zr8-ani-48 1s cubic-bezier(0.65,0,0.35,1) both;
}
.zr8-cls-49 {
animation:zr8-ani-49 1s cubic-bezier(0.65,0,0.35,1) both;
}
.zr8-cls-50 {
animation:zr8-ani-50 1s cubic-bezier(0.65,0,0.35,1) both;
}
.zr8-cls-51 {
animation:zr8-ani-51 1s cubic-bezier(0.65,0,0.35,1) both;
}
.zr8-cls-52 {
animation:zr8-ani-52 1s cubic-bezier(0.65,0,0.35,1) both;
}
.zr8-cls-53 {
animation:zr8-ani-53 1s cubic-bezier(0.65,0,0.35,1) both;
}
.zr8-cls-54 {
animation:zr8-ani-54 1s cubic-bezier(0.65,0,0.35,1) both;
}
@keyframes zr8-ani-0 {
0% {
d:path("M250 237.5A12.5 12.5 0 1 1 244.4 238.8A12.5 12.5 0 1 0 250 237.5Z");
}
100% {
d:path("M250 219.3A30.7 30.7 0 1 1 236.2 222.6L244.4 238.8A12.5 12.5 0 1 0 250 237.5Z");
}
}
@keyframes zr8-ani-1 {
0% {
d:path("M250 219.3A30.7 30.7 0 1 1 219.4 251.8L219.4 251.8A30.7 30.7 0 1 0 250 219.3Z");
}
100% {
d:path("M250 201.1A48.9 48.9 0 1 1 201.2 252.8L219.4 251.8A30.7 30.7 0 1 0 250 219.3Z");
}
}
@keyframes zr8-ani-2 {
0% {
d:path("M250 201.1A48.9 48.9 0 0 1 285.5 283.5A48.9 48.9 0 0 0 250 201.1Z");
}
100% {
d:path("M250 183A67 67 0 0 1 298.8 296L285.5 283.5A48.9 48.9 0 0 0 250 201.1Z");
}
}
@keyframes zr8-ani-3 {
0% {
d:path("M250 183A67 67 0 0 1 298.8 296A67 67 0 0 0 250 183Z");
}
100% {
d:path("M250 164.8A85.2 85.2 0 0 1 312 308.5L298.8 296A67 67 0 0 0 250 183Z");
}
}
@keyframes zr8-ani-4 {
0% {
d:path("M250 164.8A85.2 85.2 0 0 1 312 308.5A85.2 85.2 0 0 0 250 164.8Z");
}
100% {
d:path("M250 146.6A103.4 103.4 0 0 1 325.2 321L312 308.5A85.2 85.2 0 0 0 250 164.8Z");
}
}
@keyframes zr8-ani-5 {
0% {
d:path("M250 146.6A103.4 103.4 0 0 1 325.2 321A103.4 103.4 0 0 0 250 146.6Z");
}
100% {
d:path("M250 128.4A121.6 121.6 0 0 1 338.4 333.4L325.2 321A103.4 103.4 0 0 0 250 146.6Z");
}
}
@keyframes zr8-ani-6 {
0% {
d:path("M250 128.4A121.6 121.6 0 0 1 361.6 201.8L361.6 201.8A121.6 121.6 0 0 0 250 128.4Z");
}
100% {
d:path("M250 110.2A139.8 139.8 0 0 1 378.3 194.6L361.6 201.8A121.6 121.6 0 0 0 250 128.4Z");
}
}
@keyframes zr8-ani-7 {
0% {
d:path("M250 110.2A139.8 139.8 0 0 1 378.3 194.6A139.8 139.8 0 0 0 250 110.2Z");
}
100% {
d:path("M250 92A158 158 0 0 1 395 187.4L378.3 194.6A139.8 139.8 0 0 0 250 110.2Z");
}
}
@keyframes zr8-ani-8 {
0% {
d:path("M250 92A158 158 0 0 1 395 187.4A158 158 0 0 0 250 92Z");
}
100% {
d:path("M250 73.9A176.1 176.1 0 0 1 411.7 180.2L395 187.4A158 158 0 0 0 250 92Z");
}
}
@keyframes zr8-ani-9 {
0% {
d:path("M250 73.9A176.1 176.1 0 0 1 329 92.6L329 92.6A176.1 176.1 0 0 0 250 73.9Z");
}
100% {
d:path("M250 55.7A194.3 194.3 0 0 1 337.2 76.4L329 92.6A176.1 176.1 0 0 0 250 73.9Z");
}
}
@keyframes zr8-ani-10 {
0% {
d:path("M250 55.7A194.3 194.3 0 0 1 337.2 76.4L337.2 76.4A194.3 194.3 0 0 0 250 55.7Z");
}
100% {
d:path("M250 37.5A212.5 212.5 0 0 1 345.4 60.1L337.2 76.4A194.3 194.3 0 0 0 250 55.7Z");
}
}
@keyframes zr8-ani-11 {
0% {
d:path("M329 92.6A176.1 176.1 0 0 1 391.3 144.8L391.3 144.8A176.1 176.1 0 0 0 329 92.6Z");
}
100% {
d:path("M337.2 76.4A194.3 194.3 0 0 1 405.9 134L391.3 144.8A176.1 176.1 0 0 0 329 92.6Z");
}
}
@keyframes zr8-ani-12 {
0% {
d:path("M337.2 76.4A194.3 194.3 0 0 1 405.9 134L405.9 134A194.3 194.3 0 0 0 337.2 76.4Z");
}
100% {
d:path("M345.4 60.1A212.5 212.5 0 0 1 420.5 123.1L405.9 134A194.3 194.3 0 0 0 337.2 76.4Z");
}
}
@keyframes zr8-ani-13 {
0% {
d:path("M391.3 144.8A176.1 176.1 0 0 1 411.7 180.2L411.7 180.2A176.1 176.1 0 0 0 391.3 144.8Z");
}
100% {
d:path("M405.9 134A194.3 194.3 0 0 1 428.4 173L411.7 180.2A176.1 176.1 0 0 0 391.3 144.8Z");
}
}
@keyframes zr8-ani-14 {
0% {
d:path("M405.9 134A194.3 194.3 0 0 1 428.4 173L428.4 173A194.3 194.3 0 0 0 405.9 134Z");
}
100% {
d:path("M420.5 123.1A212.5 212.5 0 0 1 445.1 165.8L428.4 173A194.3 194.3 0 0 0 405.9 134Z");
}
}
@keyframes zr8-ani-15 {
0% {
d:path("M361.6 201.8A121.6 121.6 0 0 1 355.3 310.8L355.3 310.8A121.6 121.6 0 0 0 361.6 201.8Z");
}
100% {
d:path("M378.3 194.6A139.8 139.8 0 0 1 371 319.9L355.3 310.8A121.6 121.6 0 0 0 361.6 201.8Z");
}
}
@keyframes zr8-ani-16 {
0% {
d:path("M355.3 310.8A121.6 121.6 0 0 1 338.4 333.4L338.4 333.4A121.6 121.6 0 0 0 355.3 310.8Z");
}
100% {
d:path("M371 319.9A139.8 139.8 0 0 1 351.7 345.9L338.4 333.4A121.6 121.6 0 0 0 355.3 310.8Z");
}
}
@keyframes zr8-ani-17 {
0% {
d:path("M285.5 283.5A48.9 48.9 0 0 1 223.1 290.8L223.1 290.8A48.9 48.9 0 0 0 285.5 283.5Z");
}
100% {
d:path("M298.8 296A67 67 0 0 1 213.2 306L223.1 290.8A48.9 48.9 0 0 0 285.5 283.5Z");
}
}
@keyframes zr8-ani-18 {
0% {
d:path("M298.8 296A67 67 0 0 1 213.2 306L213.2 306A67 67 0 0 0 298.8 296Z");
}
100% {
d:path("M312 308.5A85.2 85.2 0 0 1 203.2 321.2L213.2 306A67 67 0 0 0 298.8 296Z");
}
}
@keyframes zr8-ani-19 {
0% {
d:path("M312 308.5A85.2 85.2 0 0 1 203.2 321.2L203.2 321.2A85.2 85.2 0 0 0 312 308.5Z");
}
100% {
d:path("M325.2 321A103.4 103.4 0 0 1 193.2 336.4L203.2 321.2A85.2 85.2 0 0 0 312 308.5Z");
}
}
@keyframes zr8-ani-20 {
0% {
d:path("M325.2 321A103.4 103.4 0 0 1 193.2 336.4L193.2 336.4A103.4 103.4 0 0 0 325.2 321Z");
}
100% {
d:path("M338.4 333.4A121.6 121.6 0 0 1 183.2 351.6L193.2 336.4A103.4 103.4 0 0 0 325.2 321Z");
}
}
@keyframes zr8-ani-21 {
0% {
d:path("M338.4 333.4A121.6 121.6 0 0 1 235.9 370.8L235.9 370.8A121.6 121.6 0 0 0 338.4 333.4Z");
}
100% {
d:path("M351.7 345.9A139.8 139.8 0 0 1 233.8 388.8L235.9 370.8A121.6 121.6 0 0 0 338.4 333.4Z");
}
}
@keyframes zr8-ani-22 {
0% {
d:path("M351.7 345.9A139.8 139.8 0 0 1 266.2 388.8L266.2 388.8A139.8 139.8 0 0 0 351.7 345.9Z");
}
100% {
d:path("M364.9 358.4A158 158 0 0 1 268.3 406.9L266.2 388.8A139.8 139.8 0 0 0 351.7 345.9Z");
}
}
@keyframes zr8-ani-23 {
0% {
d:path("M364.9 358.4A158 158 0 0 1 268.3 406.9L268.3 406.9A158 158 0 0 0 364.9 358.4Z");
}
100% {
d:path("M378.1 370.9A176.1 176.1 0 0 1 270.4 424.9L268.3 406.9A158 158 0 0 0 364.9 358.4Z");
}
}
@keyframes zr8-ani-24 {
0% {
d:path("M378.1 370.9A176.1 176.1 0 0 1 270.4 424.9L270.4 424.9A176.1 176.1 0 0 0 378.1 370.9Z");
}
100% {
d:path("M391.3 383.3A194.3 194.3 0 0 1 272.6 443L270.4 424.9A176.1 176.1 0 0 0 378.1 370.9Z");
}
}
@keyframes zr8-ani-25 {
0% {
d:path("M391.3 383.3A194.3 194.3 0 0 1 272.6 443L272.6 443A194.3 194.3 0 0 0 391.3 383.3Z");
}
100% {
d:path("M404.6 395.8A212.5 212.5 0 0 1 274.7 461.1L272.6 443A194.3 194.3 0 0 0 391.3 383.3Z");
}
}
@keyframes zr8-ani-26 {
0% {
d:path("M266.2 388.8A139.8 139.8 0 0 1 233.8 388.8L233.8 388.8A139.8 139.8 0 0 0 266.2 388.8Z");
}
100% {
d:path("M268.3 406.9A158 158 0 0 1 231.7 406.9L233.8 388.8A139.8 139.8 0 0 0 266.2 388.8Z");
}
}
@keyframes zr8-ani-27 {
0% {
d:path("M268.3 406.9A158 158 0 0 1 231.7 406.9L231.7 406.9A158 158 0 0 0 268.3 406.9Z");
}
100% {
d:path("M270.4 424.9A176.1 176.1 0 0 1 229.6 424.9L231.7 406.9A158 158 0 0 0 268.3 406.9Z");
}
}
@keyframes zr8-ani-28 {
0% {
d:path("M270.4 424.9A176.1 176.1 0 0 1 229.6 424.9L229.6 424.9A176.1 176.1 0 0 0 270.4 424.9Z");
}
100% {
d:path("M272.6 443A194.3 194.3 0 0 1 227.4 443L229.6 424.9A176.1 176.1 0 0 0 270.4 424.9Z");
}
}
@keyframes zr8-ani-29 {
0% {
d:path("M235.9 370.8A121.6 121.6 0 0 1 183.2 351.6L183.2 351.6A121.6 121.6 0 0 0 235.9 370.8Z");
}
100% {
d:path("M233.8 388.8A139.8 139.8 0 0 1 173.2 366.8L183.2 351.6A121.6 121.6 0 0 0 235.9 370.8Z");
}
}
@keyframes zr8-ani-30 {
0% {
d:path("M223.1 290.8A48.9 48.9 0 0 1 203.2 264L203.2 264A48.9 48.9 0 0 0 223.1 290.8Z");
}
100% {
d:path("M213.2 306A67 67 0 0 1 185.8 269.2L203.2 264A48.9 48.9 0 0 0 223.1 290.8Z");
}
}
@keyframes zr8-ani-31 {
0% {
d:path("M213.2 306A67 67 0 0 1 185.8 269.2L185.8 269.2A67 67 0 0 0 213.2 306Z");
}
100% {
d:path("M203.2 321.2A85.2 85.2 0 0 1 168.4 274.4L185.8 269.2A67 67 0 0 0 213.2 306Z");
}
}
@keyframes zr8-ani-32 {
0% {
d:path("M203.2 321.2A85.2 85.2 0 0 1 168.4 274.4L168.4 274.4A85.2 85.2 0 0 0 203.2 321.2Z");
}
100% {
d:path("M193.2 336.4A103.4 103.4 0 0 1 150.9 279.7L168.4 274.4A85.2 85.2 0 0 0 203.2 321.2Z");
}
}
@keyframes zr8-ani-33 {
0% {
d:path("M193.2 336.4A103.4 103.4 0 0 1 150.9 279.7L150.9 279.7A103.4 103.4 0 0 0 193.2 336.4Z");
}
100% {
d:path("M183.2 351.6A121.6 121.6 0 0 1 133.5 284.9L150.9 279.7A103.4 103.4 0 0 0 193.2 336.4Z");
}
}
@keyframes zr8-ani-34 {
0% {
d:path("M183.2 351.6A121.6 121.6 0 0 1 133.5 284.9L133.5 284.9A121.6 121.6 0 0 0 183.2 351.6Z");
}
100% {
d:path("M173.2 366.8A139.8 139.8 0 0 1 116.1 290.1L133.5 284.9A121.6 121.6 0 0 0 183.2 351.6Z");
}
}
@keyframes zr8-ani-35 {
0% {
d:path("M203.2 264A48.9 48.9 0 0 1 201.2 252.8L201.2 252.8A48.9 48.9 0 0 0 203.2 264Z");
}
100% {
d:path("M185.8 269.2A67 67 0 0 1 183.1 253.9L201.2 252.8A48.9 48.9 0 0 0 203.2 264Z");
}
}
@keyframes zr8-ani-36 {
0% {
d:path("M185.8 269.2A67 67 0 0 1 183.1 253.9L183.1 253.9A67 67 0 0 0 185.8 269.2Z");
}
100% {
d:path("M168.4 274.4A85.2 85.2 0 0 1 164.9 255L183.1 253.9A67 67 0 0 0 185.8 269.2Z");
}
}
@keyframes zr8-ani-37 {
0% {
d:path("M168.4 274.4A85.2 85.2 0 0 1 164.9 255L164.9 255A85.2 85.2 0 0 0 168.4 274.4Z");
}
100% {
d:path("M150.9 279.7A103.4 103.4 0 0 1 146.8 256L164.9 255A85.2 85.2 0 0 0 168.4 274.4Z");
}
}
@keyframes zr8-ani-38 {
0% {
d:path("M150.9 279.7A103.4 103.4 0 0 1 146.8 256L146.8 256A103.4 103.4 0 0 0 150.9 279.7Z");
}
100% {
d:path("M133.5 284.9A121.6 121.6 0 0 1 128.6 257.1L146.8 256A103.4 103.4 0 0 0 150.9 279.7Z");
}
}
@keyframes zr8-ani-39 {
0% {
d:path("M133.5 284.9A121.6 121.6 0 0 1 128.6 257.1L128.6 257.1A121.6 121.6 0 0 0 133.5 284.9Z");
}
100% {
d:path("M116.1 290.1A139.8 139.8 0 0 1 110.5 258.1L128.6 257.1A121.6 121.6 0 0 0 133.5 284.9Z");
}
}
@keyframes zr8-ani-40 {
0% {
d:path("M219.4 251.8A30.7 30.7 0 0 1 225.4 231.7L225.4 231.7A30.7 30.7 0 0 0 219.4 251.8Z");
}
100% {
d:path("M201.2 252.8A48.9 48.9 0 0 1 210.8 220.8L225.4 231.7A30.7 30.7 0 0 0 219.4 251.8Z");
}
}
@keyframes zr8-ani-41 {
0% {
d:path("M201.2 252.8A48.9 48.9 0 0 1 201.9 241.5L201.9 241.5A48.9 48.9 0 0 0 201.2 252.8Z");
}
100% {
d:path("M183.1 253.9A67 67 0 0 1 184 238.4L201.9 241.5A48.9 48.9 0 0 0 201.2 252.8Z");
}
}
@keyframes zr8-ani-42 {
0% {
d:path("M183.1 253.9A67 67 0 0 1 184 238.4L184 238.4A67 67 0 0 0 183.1 253.9Z");
}
100% {
d:path("M164.9 255A85.2 85.2 0 0 1 166.1 235.2L184 238.4A67 67 0 0 0 183.1 253.9Z");
}
}
@keyframes zr8-ani-43 {
0% {
d:path("M201.9 241.5A48.9 48.9 0 0 1 205.1 230.6L205.1 230.6A48.9 48.9 0 0 0 201.9 241.5Z");
}
100% {
d:path("M184 238.4A67 67 0 0 1 188.4 223.4L205.1 230.6A48.9 48.9 0 0 0 201.9 241.5Z");
}
}
@keyframes zr8-ani-44 {
0% {
d:path("M184 238.4A67 67 0 0 1 188.4 223.4L188.4 223.4A67 67 0 0 0 184 238.4Z");
}
100% {
d:path("M166.1 235.2A85.2 85.2 0 0 1 171.7 216.2L188.4 223.4A67 67 0 0 0 184 238.4Z");
}
}
@keyframes zr8-ani-45 {
0% {
d:path("M205.1 230.6A48.9 48.9 0 0 1 210.8 220.8L210.8 220.8A48.9 48.9 0 0 0 205.1 230.6Z");
}
100% {
d:path("M188.4 223.4A67 67 0 0 1 196.2 210L210.8 220.8A48.9 48.9 0 0 0 205.1 230.6Z");
}
}
@keyframes zr8-ani-46 {
0% {
d:path("M188.4 223.4A67 67 0 0 1 196.2 210L196.2 210A67 67 0 0 0 188.4 223.4Z");
}
100% {
d:path("M171.7 216.2A85.2 85.2 0 0 1 181.6 199.1L196.2 210A67 67 0 0 0 188.4 223.4Z");
}
}
@keyframes zr8-ani-47 {
0% {
d:path("M225.4 231.7A30.7 30.7 0 0 1 236.2 222.6L236.2 222.6A30.7 30.7 0 0 0 225.4 231.7Z");
}
100% {
d:path("M210.8 220.8A48.9 48.9 0 0 1 228.1 206.3L236.2 222.6A30.7 30.7 0 0 0 225.4 231.7Z");
}
}
@keyframes zr8-ani-48 {
0% {
d:path("M210.8 220.8A48.9 48.9 0 0 1 218.6 212.6L218.6 212.6A48.9 48.9 0 0 0 210.8 220.8Z");
}
100% {
d:path("M196.2 210A67 67 0 0 1 206.9 198.6L218.6 212.6A48.9 48.9 0 0 0 210.8 220.8Z");
}
}
@keyframes zr8-ani-49 {
0% {
d:path("M196.2 210A67 67 0 0 1 206.9 198.6L206.9 198.6A67 67 0 0 0 196.2 210Z");
}
100% {
d:path("M181.6 199.1A85.2 85.2 0 0 1 195.2 184.7L206.9 198.6A67 67 0 0 0 196.2 210Z");
}
}
@keyframes zr8-ani-50 {
0% {
d:path("M218.6 212.6A48.9 48.9 0 0 1 228.1 206.3L228.1 206.3A48.9 48.9 0 0 0 218.6 212.6Z");
}
100% {
d:path("M206.9 198.6A67 67 0 0 1 219.9 190.1L228.1 206.3A48.9 48.9 0 0 0 218.6 212.6Z");
}
}
@keyframes zr8-ani-51 {
0% {
d:path("M206.9 198.6A67 67 0 0 1 219.9 190.1L219.9 190.1A67 67 0 0 0 206.9 198.6Z");
}
100% {
d:path("M195.2 184.7A85.2 85.2 0 0 1 211.8 173.8L219.9 190.1A67 67 0 0 0 206.9 198.6Z");
}
}
@keyframes zr8-ani-52 {
0% {
d:path("M244.4 238.8A12.5 12.5 0 0 1 250 237.5L250 237.5A12.5 12.5 0 0 0 244.4 238.8Z");
}
100% {
d:path("M236.2 222.6A30.7 30.7 0 0 1 250 219.3L250 237.5A12.5 12.5 0 0 0 244.4 238.8Z");
}
}
@keyframes zr8-ani-53 {
0% {
d:path("M236.2 222.6A30.7 30.7 0 0 1 242.9 220.1L242.9 220.1A30.7 30.7 0 0 0 236.2 222.6Z");
}
100% {
d:path("M228.1 206.3A48.9 48.9 0 0 1 238.7 202.5L242.9 220.1A30.7 30.7 0 0 0 236.2 222.6Z");
}
}
@keyframes zr8-ani-54 {
0% {
d:path("M242.9 220.1A30.7 30.7 0 0 1 250 219.3L250 219.3A30.7 30.7 0 0 0 242.9 220.1Z");
}
100% {
d:path("M238.7 202.5A48.9 48.9 0 0 1 250 201.1L250 219.3A30.7 30.7 0 0 0 242.9 220.1Z");
}
}
]]>

</style>
</svg>