<svg width="500" height="500" xmlns="http://www.w3.org/2000/svg" xmlns:xlink="http://www.w3.org/1999/xlink" version="1.1" baseProfile="full" viewBox="0 0 500 500">
<rect width="500" height="500" x="0" y="0" id="0" fill="none"></rect>
<path d="M250 220.8A29.2 29.2 0 1 1 241.5 222.1L246.3 238A12.5 12.5 0 1 0 250 237.5Z" fill="#C8C8C8" stroke="white" stroke-linejoin="bevel" class="zr74-cls-0"></path>
<path d="M250 204.2A45.8 45.8 0 1 1 236.6 206.2L241.5 222.1A29.2 29.2 0 1 0 250 220.8Z" fill="#C8C8C8" stroke="white" stroke-linejoin="bevel" class="zr74-cls-1"></path>
<path d="M241.5 222.1A29.2 29.2 0 0 1 250 220.8L250 237.5A12.5 12.5 0 0 0 246.3 238Z" fill="#000" stroke="white" stroke-linejoin="bevel" class="zr74-cls-2"></path>
<path d="M236.6 206.2A45.8 45.8 0 0 1 250 204.2L250 220.8A29.2 29.2 0 0 0 241.5 222.1Z" fill="#4949CD" fill-opacity="0.5" stroke="#fff" stroke-width="4" stroke-opacity="0.5" stroke-linejoin="bevel" class="zr74-cls-3"></path>
<path d="M231.7 190.2A62.5 62.5 0 0 1 242.6 187.9L244.6 204.5A45.8 45.8 0 0 0 236.6 206.2Z" fill="#000" stroke="white" stroke-linejoin="bevel" class="zr74-cls-4"></path>
<path d="M226.9 174.3A79.2 79.2 0 0 1 240.6 171.4L242.6 187.9A62.5 62.5 0 0 0 231.7 190.2Z" fill="#000" stroke="white" stroke-linejoin="bevel" class="zr74-cls-5"></path>
<path d="M222 158.3A95.8 95.8 0 0 1 238.7 154.8L240.6 171.4A79.2 79.2 0 0 0 226.9 174.3Z" fill="#4949CD" fill-opacity="0.5" stroke="#fff" stroke-width="4" stroke-opacity="0.5" stroke-linejoin="bevel" class="zr74-cls-6"></path>
<path d="M217.1 142.4A112.5 112.5 0 0 1 236.7 138.3L238.7 154.8A95.8 95.8 0 0 0 222 158.3Z" fill="#0AA40D" stroke="white" stroke-linejoin="bevel" class="zr74-cls-7"></path>
<path d="M212.3 126.5A129.2 129.2 0 0 1 234.7 121.7L236.7 138.3A112.5 112.5 0 0 0 217.1 142.4Z" fill="#000" stroke="white" stroke-linejoin="bevel" class="zr74-cls-8"></path>
<path d="M207.4 110.5A145.8 145.8 0 0 1 224.2 106.5L227.2 122.9A129.2 129.2 0 0 0 212.3 126.5Z" fill="#49ff49" fill-opacity="0.5" stroke="#fff" stroke-width="4" stroke-opacity="0.5" stroke-linejoin="bevel" class="zr74-cls-9"></path>
<path d="M202.5 94.6A162.5 162.5 0 0 1 221.3 90.1L224.2 106.5A145.8 145.8 0 0 0 207.4 110.5Z" fill="#000" stroke="white" stroke-linejoin="bevel" class="zr74-cls-10"></path>
<path d="M197.7 78.6A179.2 179.2 0 0 1 207.9 75.8L211.8 92A162.5 162.5 0 0 0 202.5 94.6Z" fill="#000" stroke="white" stroke-linejoin="bevel" class="zr74-cls-11"></path>
<path d="M207.9 75.8A179.2 179.2 0 0 1 218.3 73.7L221.3 90.1A162.5 162.5 0 0 0 211.8 92Z" fill="#000" stroke="white" stroke-linejoin="bevel" class="zr74-cls-12"></path>
<path d="M224.2 106.5A145.8 145.8 0 0 1 232.8 105.2L234.7 121.7A129.2 129.2 0 0 0 227.2 122.9Z" fill="#4949CD" fill-opacity="0.5" stroke="#fff" stroke-width="4" stroke-opacity="0.5" stroke-linejoin="bevel" class="zr74-cls-13"></path>
<path d="M221.3 90.1A162.5 162.5 0 0 1 230.8 88.6L232.8 105.2A145.8 145.8 0 0 0 224.2 106.5Z" fill="#000" stroke="white" stroke-linejoin="bevel" class="zr74-cls-14"></path>
<path d="M218.3 73.7A179.2 179.2 0 0 1 228.8 72.1L230.8 88.6A162.5 162.5 0 0 0 221.3 90.1Z" fill="#000" stroke="white" stroke-linejoin="bevel" class="zr74-cls-15"></path>
<path d="M215.4 57.3A195.8 195.8 0 0 1 226.8 55.5L228.8 72.1A179.2 179.2 0 0 0 218.3 73.7Z" fill="#A0522D" stroke="white" stroke-linejoin="bevel" class="zr74-cls-16"></path>
<path d="M212.4 40.9A212.5 212.5 0 0 1 224.9 39L226.8 55.5A195.8 195.8 0 0 0 215.4 57.3Z" fill="#A0522D" stroke="white" stroke-linejoin="bevel" class="zr74-cls-17"></path>
<path d="M242.6 187.9A62.5 62.5 0 0 1 250 187.5L250 204.2A45.8 45.8 0 0 0 244.6 204.5Z" fill="#000" stroke="white" stroke-linejoin="bevel" class="zr74-cls-18"></path>
<path d="M240.6 171.4A79.2 79.2 0 0 1 250 170.8L250 187.5A62.5 62.5 0 0 0 242.6 187.9Z" fill="#000" stroke="white" stroke-linejoin="bevel" class="zr74-cls-19"></path>
<path d="M238.7 154.8A95.8 95.8 0 0 1 250 154.2L250 170.8A79.2 79.2 0 0 0 240.6 171.4Z" fill="#4949CD" fill-opacity="0.5" stroke="#fff" stroke-width="4" stroke-opacity="0.5" stroke-linejoin="bevel" class="zr74-cls-20"></path>
<path d="M236.7 138.3A112.5 112.5 0 0 1 250 137.5L250 154.2A95.8 95.8 0 0 0 238.7 154.8Z" fill="#0AA40D" stroke="white" stroke-linejoin="bevel" class="zr74-cls-21"></path>
<path d="M234.7 121.7A129.2 129.2 0 0 1 242.3 121.1L243.3 137.7A112.5 112.5 0 0 0 236.7 138.3Z" fill="#000" stroke="white" stroke-linejoin="bevel" class="zr74-cls-22"></path>
<path d="M232.8 105.2A145.8 145.8 0 0 1 241.4 104.4L242.3 121.1A129.2 129.2 0 0 0 234.7 121.7Z" fill="#4949CD" fill-opacity="0.5" stroke="#fff" stroke-width="4" stroke-opacity="0.5" stroke-linejoin="bevel" class="zr74-cls-23"></path>
<path d="M230.8 88.6A162.5 162.5 0 0 1 240.4 87.8L241.4 104.4A145.8 145.8 0 0 0 232.8 105.2Z" fill="#000" stroke="white" stroke-linejoin="bevel" class="zr74-cls-24"></path>
<path d="M228.8 72.1A179.2 179.2 0 0 1 239.4 71.1L240.4 87.8A162.5 162.5 0 0 0 230.8 88.6Z" fill="#000" stroke="white" stroke-linejoin="bevel" class="zr74-cls-25"></path>
<path d="M226.8 55.5A195.8 195.8 0 0 1 238.4 54.5L239.4 71.1A179.2 179.2 0 0 0 228.8 72.1Z" fill="#A0522D" stroke="white" stroke-linejoin="bevel" class="zr74-cls-26"></path>
<path d="M224.9 39A212.5 212.5 0 0 1 237.4 37.9L238.4 54.5A195.8 195.8 0 0 0 226.8 55.5Z" fill="#A0522D" stroke="white" stroke-linejoin="bevel" class="zr74-cls-27"></path>
<path d="M242.3 121.1A129.2 129.2 0 0 1 250 120.8L250 137.5A112.5 112.5 0 0 0 243.3 137.7Z" fill="#C8C8C8" stroke="white" stroke-linejoin="bevel" class="zr74-cls-28"></path>
<text dominant-baseline="central" text-anchor="middle" style="font-size:12px;font-family:sans-serif;" transform="matrix(0.989,-0.148,0.148,0.989,253.076,270.605)" fill="#333">info</text>
<text dominant-baseline="central" text-anchor="middle" style="font-size:10px;font-family:sans-serif;" transform="matrix(0.989,-0.148,0.148,0.989,255.5367,287.089)" fill="#333">version</text>
<text dominant-baseline="central" text-anchor="middle" style="font-size:12px;font-family:sans-serif;" transform="matrix(0.989,-0.148,0.148,0.989,246.924,229.395)" fill="#ccc" stroke="#000" stroke-width="2" paint-order="stroke" stroke-miterlimit="2">paths</text>
<path d="M-14.8 -16l66.6 0l0 32l-66.6 0Z" transform="translate(448.253 16)" fill="none" stroke="#ccc" stroke-width="0"></path>
<path d="M-7.3 -1.8L-0.1 4.8L7.3 -1.6M-7.3 4.3L-7.3 8.5L7.1 8.5L7.1 4.3M-0.1 4.7L-0.1 -8.5" transform="translate(448.253 16)" fill="none" stroke="#666"></path>
<path d="M-7.9 1M5.1 -3.4L8.1 -3.4L8.1 -6.4M8 -3C6.7 -6.4 3.2 -8.9 -1 -8.4C-5.3 -8 -8.6 -4.2 -8.4 0.2M-5.1 3.4L-8.1 3.4L-8.1 6.4M-8 3C-6.7 6.4 -3.2 8.9 1 8.4C5.3 8 8.6 4.2 8.4 -0.2" transform="translate(484.0476 16)" fill="none" stroke="#666"></path>
<style ><![CDATA[
.zr74-cls-0 {
animation:zr74-ani-0 1s cubic-bezier(0.65,0,0.35,1) both;
}
.zr74-cls-1 {
animation:zr74-ani-1 1s cubic-bezier(0.65,0,0.35,1) both;
}
.zr74-cls-2 {
animation:zr74-ani-2 1s cubic-bezier(0.65,0,0.35,1) both;
}
.zr74-cls-3 {
animation:zr74-ani-3 1s cubic-bezier(0.65,0,0.35,1) both;
}
.zr74-cls-4 {
animation:zr74-ani-4 1s cubic-bezier(0.65,0,0.35,1) both;
}
.zr74-cls-5 {
animation:zr74-ani-5 1s cubic-bezier(0.65,0,0.35,1) both;
}
.zr74-cls-6 {
animation:zr74-ani-6 1s cubic-bezier(0.65,0,0.35,1) both;
}
.zr74-cls-7 {
animation:zr74-ani-7 1s cubic-bezier(0.65,0,0.35,1) both;
}
.zr74-cls-8 {
animation:zr74-ani-8 1s cubic-bezier(0.65,0,0.35,1) both;
}
.zr74-cls-9 {
animation:zr74-ani-9 1s cubic-bezier(0.65,0,0.35,1) both;
}
.zr74-cls-10 {
animation:zr74-ani-10 1s cubic-bezier(0.65,0,0.35,1) both;
}
.zr74-cls-11 {
animation:zr74-ani-11 1s cubic-bezier(0.65,0,0.35,1) both;
}
.zr74-cls-12 {
animation:zr74-ani-12 1s cubic-bezier(0.65,0,0.35,1) both;
}
.zr74-cls-13 {
animation:zr74-ani-13 1s cubic-bezier(0.65,0,0.35,1) both;
}
.zr74-cls-14 {
animation:zr74-ani-14 1s cubic-bezier(0.65,0,0.35,1) both;
}
.zr74-cls-15 {
animation:zr74-ani-15 1s cubic-bezier(0.65,0,0.35,1) both;
}
.zr74-cls-16 {
animation:zr74-ani-16 1s cubic-bezier(0.65,0,0.35,1) both;
}
.zr74-cls-17 {
animation:zr74-ani-17 1s cubic-bezier(0.65,0,0.35,1) both;
}
.zr74-cls-18 {
animation:zr74-ani-18 1s cubic-bezier(0.65,0,0.35,1) both;
}
.zr74-cls-19 {
animation:zr74-ani-19 1s cubic-bezier(0.65,0,0.35,1) both;
}
.zr74-cls-20 {
animation:zr74-ani-20 1s cubic-bezier(0.65,0,0.35,1) both;
}
.zr74-cls-21 {
animation:zr74-ani-21 1s cubic-bezier(0.65,0,0.35,1) both;
}
.zr74-cls-22 {
animation:zr74-ani-22 1s cubic-bezier(0.65,0,0.35,1) both;
}
.zr74-cls-23 {
animation:zr74-ani-23 1s cubic-bezier(0.65,0,0.35,1) both;
}
.zr74-cls-24 {
animation:zr74-ani-24 1s cubic-bezier(0.65,0,0.35,1) both;
}
.zr74-cls-25 {
animation:zr74-ani-25 1s cubic-bezier(0.65,0,0.35,1) both;
}
.zr74-cls-26 {
animation:zr74-ani-26 1s cubic-bezier(0.65,0,0.35,1) both;
}
.zr74-cls-27 {
animation:zr74-ani-27 1s cubic-bezier(0.65,0,0.35,1) both;
}
.zr74-cls-28 {
animation:zr74-ani-28 1s cubic-bezier(0.65,0,0.35,1) both;
}
@keyframes zr74-ani-0 {
0% {
d:path("M250 237.5A12.5 12.5 0 1 1 246.3 238L246.3 238A12.5 12.5 0 1 0 250 237.5Z");
}
100% {
d:path("M250 220.8A29.2 29.2 0 1 1 241.5 222.1L246.3 238A12.5 12.5 0 1 0 250 237.5Z");
}
}
@keyframes zr74-ani-1 {
0% {
d:path("M250 220.8A29.2 29.2 0 1 1 241.5 222.1L241.5 222.1A29.2 29.2 0 1 0 250 220.8Z");
}
100% {
d:path("M250 204.2A45.8 45.8 0 1 1 236.6 206.2L241.5 222.1A29.2 29.2 0 1 0 250 220.8Z");
}
}
@keyframes zr74-ani-2 {
0% {
d:path("M246.3 238A12.5 12.5 0 0 1 250 237.5L250 237.5A12.5 12.5 0 0 0 246.3 238Z");
}
100% {
d:path("M241.5 222.1A29.2 29.2 0 0 1 250 220.8L250 237.5A12.5 12.5 0 0 0 246.3 238Z");
}
}
@keyframes zr74-ani-3 {
0% {
d:path("M241.5 222.1A29.2 29.2 0 0 1 250 220.8L250 220.8A29.2 29.2 0 0 0 241.5 222.1Z");
}
100% {
d:path("M236.6 206.2A45.8 45.8 0 0 1 250 204.2L250 220.8A29.2 29.2 0 0 0 241.5 222.1Z");
}
}
@keyframes zr74-ani-4 {
0% {
d:path("M236.6 206.2A45.8 45.8 0 0 1 244.6 204.5L244.6 204.5A45.8 45.8 0 0 0 236.6 206.2Z");
}
100% {
d:path("M231.7 190.2A62.5 62.5 0 0 1 242.6 187.9L244.6 204.5A45.8 45.8 0 0 0 236.6 206.2Z");
}
}
@keyframes zr74-ani-5 {
0% {
d:path("M231.7 190.2A62.5 62.5 0 0 1 242.6 187.9L242.6 187.9A62.5 62.5 0 0 0 231.7 190.2Z");
}
100% {
d:path("M226.9 174.3A79.2 79.2 0 0 1 240.6 171.4L242.6 187.9A62.5 62.5 0 0 0 231.7 190.2Z");
}
}
@keyframes zr74-ani-6 {
0% {
d:path("M226.9 174.3A79.2 79.2 0 0 1 240.6 171.4L240.6 171.4A79.2 79.2 0 0 0 226.9 174.3Z");
}
100% {
d:path("M222 158.3A95.8 95.8 0 0 1 238.7 154.8L240.6 171.4A79.2 79.2 0 0 0 226.9 174.3Z");
}
}
@keyframes zr74-ani-7 {
0% {
d:path("M222 158.3A95.8 95.8 0 0 1 238.7 154.8L238.7 154.8A95.8 95.8 0 0 0 222 158.3Z");
}
100% {
d:path("M217.1 142.4A112.5 112.5 0 0 1 236.7 138.3L238.7 154.8A95.8 95.8 0 0 0 222 158.3Z");
}
}
@keyframes zr74-ani-8 {
0% {
d:path("M217.1 142.4A112.5 112.5 0 0 1 236.7 138.3L236.7 138.3A112.5 112.5 0 0 0 217.1 142.4Z");
}
100% {
d:path("M212.3 126.5A129.2 129.2 0 0 1 234.7 121.7L236.7 138.3A112.5 112.5 0 0 0 217.1 142.4Z");
}
}
@keyframes zr74-ani-9 {
0% {
d:path("M212.3 126.5A129.2 129.2 0 0 1 227.2 122.9L227.2 122.9A129.2 129.2 0 0 0 212.3 126.5Z");
}
100% {
d:path("M207.4 110.5A145.8 145.8 0 0 1 224.2 106.5L227.2 122.9A129.2 129.2 0 0 0 212.3 126.5Z");
}
}
@keyframes zr74-ani-10 {
0% {
d:path("M207.4 110.5A145.8 145.8 0 0 1 224.2 106.5L224.2 106.5A145.8 145.8 0 0 0 207.4 110.5Z");
}
100% {
d:path("M202.5 94.6A162.5 162.5 0 0 1 221.3 90.1L224.2 106.5A145.8 145.8 0 0 0 207.4 110.5Z");
}
}
@keyframes zr74-ani-11 {
0% {
d:path("M202.5 94.6A162.5 162.5 0 0 1 211.8 92L211.8 92A162.5 162.5 0 0 0 202.5 94.6Z");
}
100% {
d:path("M197.7 78.6A179.2 179.2 0 0 1 207.9 75.8L211.8 92A162.5 162.5 0 0 0 202.5 94.6Z");
}
}
@keyframes zr74-ani-12 {
0% {
d:path("M211.8 92A162.5 162.5 0 0 1 221.3 90.1L221.3 90.1A162.5 162.5 0 0 0 211.8 92Z");
}
100% {
d:path("M207.9 75.8A179.2 179.2 0 0 1 218.3 73.7L221.3 90.1A162.5 162.5 0 0 0 211.8 92Z");
}
}
@keyframes zr74-ani-13 {
0% {
d:path("M227.2 122.9A129.2 129.2 0 0 1 234.7 121.7L234.7 121.7A129.2 129.2 0 0 0 227.2 122.9Z");
}
100% {
d:path("M224.2 106.5A145.8 145.8 0 0 1 232.8 105.2L234.7 121.7A129.2 129.2 0 0 0 227.2 122.9Z");
}
}
@keyframes zr74-ani-14 {
0% {
d:path("M224.2 106.5A145.8 145.8 0 0 1 232.8 105.2L232.8 105.2A145.8 145.8 0 0 0 224.2 106.5Z");
}
100% {
d:path("M221.3 90.1A162.5 162.5 0 0 1 230.8 88.6L232.8 105.2A145.8 145.8 0 0 0 224.2 106.5Z");
}
}
@keyframes zr74-ani-15 {
0% {
d:path("M221.3 90.1A162.5 162.5 0 0 1 230.8 88.6L230.8 88.6A162.5 162.5 0 0 0 221.3 90.1Z");
}
100% {
d:path("M218.3 73.7A179.2 179.2 0 0 1 228.8 72.1L230.8 88.6A162.5 162.5 0 0 0 221.3 90.1Z");
}
}
@keyframes zr74-ani-16 {
0% {
d:path("M218.3 73.7A179.2 179.2 0 0 1 228.8 72.1L228.8 72.1A179.2 179.2 0 0 0 218.3 73.7Z");
}
100% {
d:path("M215.4 57.3A195.8 195.8 0 0 1 226.8 55.5L228.8 72.1A179.2 179.2 0 0 0 218.3 73.7Z");
}
}
@keyframes zr74-ani-17 {
0% {
d:path("M215.4 57.3A195.8 195.8 0 0 1 226.8 55.5L226.8 55.5A195.8 195.8 0 0 0 215.4 57.3Z");
}
100% {
d:path("M212.4 40.9A212.5 212.5 0 0 1 224.9 39L226.8 55.5A195.8 195.8 0 0 0 215.4 57.3Z");
}
}
@keyframes zr74-ani-18 {
0% {
d:path("M244.6 204.5A45.8 45.8 0 0 1 250 204.2L250 204.2A45.8 45.8 0 0 0 244.6 204.5Z");
}
100% {
d:path("M242.6 187.9A62.5 62.5 0 0 1 250 187.5L250 204.2A45.8 45.8 0 0 0 244.6 204.5Z");
}
}
@keyframes zr74-ani-19 {
0% {
d:path("M242.6 187.9A62.5 62.5 0 0 1 250 187.5L250 187.5A62.5 62.5 0 0 0 242.6 187.9Z");
}
100% {
d:path("M240.6 171.4A79.2 79.2 0 0 1 250 170.8L250 187.5A62.5 62.5 0 0 0 242.6 187.9Z");
}
}
@keyframes zr74-ani-20 {
0% {
d:path("M240.6 171.4A79.2 79.2 0 0 1 250 170.8L250 170.8A79.2 79.2 0 0 0 240.6 171.4Z");
}
100% {
d:path("M238.7 154.8A95.8 95.8 0 0 1 250 154.2L250 170.8A79.2 79.2 0 0 0 240.6 171.4Z");
}
}
@keyframes zr74-ani-21 {
0% {
d:path("M238.7 154.8A95.8 95.8 0 0 1 250 154.2L250 154.2A95.8 95.8 0 0 0 238.7 154.8Z");
}
100% {
d:path("M236.7 138.3A112.5 112.5 0 0 1 250 137.5L250 154.2A95.8 95.8 0 0 0 238.7 154.8Z");
}
}
@keyframes zr74-ani-22 {
0% {
d:path("M236.7 138.3A112.5 112.5 0 0 1 243.3 137.7L243.3 137.7A112.5 112.5 0 0 0 236.7 138.3Z");
}
100% {
d:path("M234.7 121.7A129.2 129.2 0 0 1 242.3 121.1L243.3 137.7A112.5 112.5 0 0 0 236.7 138.3Z");
}
}
@keyframes zr74-ani-23 {
0% {
d:path("M234.7 121.7A129.2 129.2 0 0 1 242.3 121.1L242.3 121.1A129.2 129.2 0 0 0 234.7 121.7Z");
}
100% {
d:path("M232.8 105.2A145.8 145.8 0 0 1 241.4 104.4L242.3 121.1A129.2 129.2 0 0 0 234.7 121.7Z");
}
}
@keyframes zr74-ani-24 {
0% {
d:path("M232.8 105.2A145.8 145.8 0 0 1 241.4 104.4L241.4 104.4A145.8 145.8 0 0 0 232.8 105.2Z");
}
100% {
d:path("M230.8 88.6A162.5 162.5 0 0 1 240.4 87.8L241.4 104.4A145.8 145.8 0 0 0 232.8 105.2Z");
}
}
@keyframes zr74-ani-25 {
0% {
d:path("M230.8 88.6A162.5 162.5 0 0 1 240.4 87.8L240.4 87.8A162.5 162.5 0 0 0 230.8 88.6Z");
}
100% {
d:path("M228.8 72.1A179.2 179.2 0 0 1 239.4 71.1L240.4 87.8A162.5 162.5 0 0 0 230.8 88.6Z");
}
}
@keyframes zr74-ani-26 {
0% {
d:path("M228.8 72.1A179.2 179.2 0 0 1 239.4 71.1L239.4 71.1A179.2 179.2 0 0 0 228.8 72.1Z");
}
100% {
d:path("M226.8 55.5A195.8 195.8 0 0 1 238.4 54.5L239.4 71.1A179.2 179.2 0 0 0 228.8 72.1Z");
}
}
@keyframes zr74-ani-27 {
0% {
d:path("M226.8 55.5A195.8 195.8 0 0 1 238.4 54.5L238.4 54.5A195.8 195.8 0 0 0 226.8 55.5Z");
}
100% {
d:path("M224.9 39A212.5 212.5 0 0 1 237.4 37.9L238.4 54.5A195.8 195.8 0 0 0 226.8 55.5Z");
}
}
@keyframes zr74-ani-28 {
0% {
d:path("M243.3 137.7A112.5 112.5 0 0 1 250 137.5L250 137.5A112.5 112.5 0 0 0 243.3 137.7Z");
}
100% {
d:path("M242.3 121.1A129.2 129.2 0 0 1 250 120.8L250 137.5A112.5 112.5 0 0 0 243.3 137.7Z");
}
}
]]>

</style>
</svg>