<svg width="500" height="500" xmlns="http://www.w3.org/2000/svg" xmlns:xlink="http://www.w3.org/1999/xlink" version="1.1" baseProfile="full" viewBox="0 0 500 500">
<rect width="500" height="500" x="0" y="0" id="0" fill="none"></rect>
<path d="M250 217.5A32.5 32.5 0 1 1 217.8 245.4L237.6 248.2A12.5 12.5 0 1 0 250 237.5Z" fill="#000" stroke="white" stroke-linejoin="bevel" class="zr28-cls-0"></path>
<path d="M250 197.5A52.5 52.5 0 0 1 278.4 294.2L267.6 277.3A32.5 32.5 0 0 0 250 217.5Z" fill="#49ff49" fill-opacity="0.5" stroke="#fff" stroke-width="4" stroke-opacity="0.5" stroke-linejoin="bevel" class="zr28-cls-1"></path>
<path d="M250 177.5A72.5 72.5 0 0 1 270.4 180.4L264.8 199.6A52.5 52.5 0 0 0 250 197.5Z" fill="#000" stroke="white" stroke-linejoin="bevel" class="zr28-cls-2"></path>
<path d="M250 157.5A92.5 92.5 0 0 1 276.1 161.2L270.4 180.4A72.5 72.5 0 0 0 250 177.5Z" fill="#0AA40D" stroke="white" stroke-linejoin="bevel" class="zr28-cls-3"></path>
<path d="M270.4 180.4A72.5 72.5 0 0 1 289.2 189L278.4 205.8A52.5 52.5 0 0 0 264.8 199.6Z" fill="#000" stroke="white" stroke-linejoin="bevel" class="zr28-cls-4"></path>
<path d="M276.1 161.2A92.5 92.5 0 0 1 300 172.2L289.2 189A72.5 72.5 0 0 0 270.4 180.4Z" fill="#0AA40D" stroke="white" stroke-linejoin="bevel" class="zr28-cls-5"></path>
<path d="M289.2 189A72.5 72.5 0 0 1 304.8 202.5L289.7 215.6A52.5 52.5 0 0 0 278.4 205.8Z" fill="#000" stroke="white" stroke-linejoin="bevel" class="zr28-cls-6"></path>
<path d="M300 172.2A92.5 92.5 0 0 1 319.9 189.4L304.8 202.5A72.5 72.5 0 0 0 289.2 189Z" fill="#F3C142" stroke="white" stroke-linejoin="bevel" class="zr28-cls-7"></path>
<path d="M304.8 202.5A72.5 72.5 0 0 1 315.9 219.9L297.8 228.2A52.5 52.5 0 0 0 289.7 215.6Z" fill="#000" stroke="white" stroke-linejoin="bevel" class="zr28-cls-8"></path>
<path d="M319.9 189.4A92.5 92.5 0 0 1 334.1 211.6L315.9 219.9A72.5 72.5 0 0 0 304.8 202.5Z" fill="#0AA40D" stroke="white" stroke-linejoin="bevel" class="zr28-cls-9"></path>
<path d="M315.9 219.9A72.5 72.5 0 0 1 321.8 239.7L302 242.5A52.5 52.5 0 0 0 297.8 228.2Z" fill="#000" stroke="white" stroke-linejoin="bevel" class="zr28-cls-10"></path>
<path d="M334.1 211.6A92.5 92.5 0 0 1 341.6 236.8L321.8 239.7A72.5 72.5 0 0 0 315.9 219.9Z" fill="#0AA40D" stroke="white" stroke-linejoin="bevel" class="zr28-cls-11"></path>
<path d="M321.8 239.7A72.5 72.5 0 0 1 321.8 260.3L302 257.5A52.5 52.5 0 0 0 302 242.5Z" fill="#000" stroke="white" stroke-linejoin="bevel" class="zr28-cls-12"></path>
<path d="M341.6 236.8A92.5 92.5 0 0 1 341.6 263.2L321.8 260.3A72.5 72.5 0 0 0 321.8 239.7Z" fill="#0AA40D" stroke="white" stroke-linejoin="bevel" class="zr28-cls-13"></path>
<path d="M321.8 260.3A72.5 72.5 0 0 1 315.9 280.1L297.8 271.8A52.5 52.5 0 0 0 302 257.5Z" fill="#000" stroke="white" stroke-linejoin="bevel" class="zr28-cls-14"></path>
<path d="M341.6 263.2A92.5 92.5 0 0 1 334.1 288.4L315.9 280.1A72.5 72.5 0 0 0 321.8 260.3Z" fill="#0AA40D" stroke="white" stroke-linejoin="bevel" class="zr28-cls-15"></path>
<path d="M315.9 280.1A72.5 72.5 0 0 1 304.8 297.5L289.7 284.4A52.5 52.5 0 0 0 297.8 271.8Z" fill="#000" stroke="white" stroke-linejoin="bevel" class="zr28-cls-16"></path>
<path d="M334.1 288.4A92.5 92.5 0 0 1 319.9 310.6L304.8 297.5A72.5 72.5 0 0 0 315.9 280.1Z" fill="#0AA40D" stroke="white" stroke-linejoin="bevel" class="zr28-cls-17"></path>
<path d="M304.8 297.5A72.5 72.5 0 0 1 289.2 311L278.4 294.2A52.5 52.5 0 0 0 289.7 284.4Z" fill="#000" stroke="white" stroke-linejoin="bevel" class="zr28-cls-18"></path>
<path d="M319.9 310.6A92.5 92.5 0 0 1 300 327.8L289.2 311A72.5 72.5 0 0 0 304.8 297.5Z" fill="#0AA40D" stroke="white" stroke-linejoin="bevel" class="zr28-cls-19"></path>
<path d="M278.4 294.2A52.5 52.5 0 0 1 198 242.5L217.8 245.4A32.5 32.5 0 0 0 267.6 277.3Z" fill="#4949CD" fill-opacity="0.5" stroke="#fff" stroke-width="4" stroke-opacity="0.5" stroke-linejoin="bevel" class="zr28-cls-20"></path>
<path d="M289.2 311A72.5 72.5 0 0 1 250 322.5L250 302.5A52.5 52.5 0 0 0 278.4 294.2Z" fill="#000" stroke="white" stroke-linejoin="bevel" class="zr28-cls-21"></path>
<path d="M300 327.8A92.5 92.5 0 0 1 250 342.5L250 322.5A72.5 72.5 0 0 0 289.2 311Z" fill="#000" stroke="white" stroke-linejoin="bevel" class="zr28-cls-22"></path>
<path d="M310.8 344.6A112.5 112.5 0 0 1 250 362.5L250 342.5A92.5 92.5 0 0 0 300 327.8Z" fill="#4949CD" fill-opacity="0.5" stroke="#fff" stroke-width="4" stroke-opacity="0.5" stroke-linejoin="bevel" class="zr28-cls-23"></path>
<path d="M321.6 361.5A132.5 132.5 0 0 1 250 382.5L250 362.5A112.5 112.5 0 0 0 310.8 344.6Z" fill="#F3C142" stroke="white" stroke-linejoin="bevel" class="zr28-cls-24"></path>
<path d="M332.4 378.3A152.5 152.5 0 0 1 250 402.5L250 382.5A132.5 132.5 0 0 0 321.6 361.5Z" fill="#000" stroke="white" stroke-linejoin="bevel" class="zr28-cls-25"></path>
<path d="M343.3 395.1A172.5 172.5 0 0 1 298.6 415.5L293 396.3A152.5 152.5 0 0 0 332.4 378.3Z" fill="#49ff49" fill-opacity="0.5" stroke="#fff" stroke-width="4" stroke-opacity="0.5" stroke-linejoin="bevel" class="zr28-cls-26"></path>
<path d="M354.1 411.9A192.5 192.5 0 0 1 304.2 434.7L298.6 415.5A172.5 172.5 0 0 0 343.3 395.1Z" fill="#000" stroke="white" stroke-linejoin="bevel" class="zr28-cls-27"></path>
<path d="M364.9 428.8A212.5 212.5 0 0 1 309.9 453.9L304.2 434.7A192.5 192.5 0 0 0 354.1 411.9Z" fill="#000" stroke="white" stroke-linejoin="bevel" class="zr28-cls-28"></path>
<path d="M298.6 415.5A172.5 172.5 0 0 1 250 422.5L250 402.5A152.5 152.5 0 0 0 293 396.3Z" fill="#ff4949" fill-opacity="0.5" stroke="#fff" stroke-width="4" stroke-opacity="0.5" stroke-linejoin="bevel" class="zr28-cls-29"></path>
<path d="M304.2 434.7A192.5 192.5 0 0 1 250 442.5L250 422.5A172.5 172.5 0 0 0 298.6 415.5Z" fill="#000" stroke="white" stroke-linejoin="bevel" class="zr28-cls-30"></path>
<path d="M309.9 453.9A212.5 212.5 0 0 1 250 462.5L250 442.5A192.5 192.5 0 0 0 304.2 434.7Z" fill="#000" stroke="white" stroke-linejoin="bevel" class="zr28-cls-31"></path>
<path d="M250 322.5A72.5 72.5 0 0 1 210.8 311L221.6 294.2A52.5 52.5 0 0 0 250 302.5Z" fill="#000" stroke="white" stroke-linejoin="bevel" class="zr28-cls-32"></path>
<path d="M250 342.5A92.5 92.5 0 0 1 200 327.8L210.8 311A72.5 72.5 0 0 0 250 322.5Z" fill="#000" stroke="white" stroke-linejoin="bevel" class="zr28-cls-33"></path>
<path d="M250 362.5A112.5 112.5 0 0 1 189.2 344.6L200 327.8A92.5 92.5 0 0 0 250 342.5Z" fill="#4949CD" fill-opacity="0.5" stroke="#fff" stroke-width="4" stroke-opacity="0.5" stroke-linejoin="bevel" class="zr28-cls-34"></path>
<path d="M250 382.5A132.5 132.5 0 0 1 178.4 361.5L189.2 344.6A112.5 112.5 0 0 0 250 362.5Z" fill="#F3C142" stroke="white" stroke-linejoin="bevel" class="zr28-cls-35"></path>
<path d="M250 402.5A152.5 152.5 0 0 1 167.6 378.3L178.4 361.5A132.5 132.5 0 0 0 250 382.5Z" fill="#000" stroke="white" stroke-linejoin="bevel" class="zr28-cls-36"></path>
<path d="M250 422.5A172.5 172.5 0 0 1 201.4 415.5L207 396.3A152.5 152.5 0 0 0 250 402.5Z" fill="#49ff49" fill-opacity="0.5" stroke="#fff" stroke-width="4" stroke-opacity="0.5" stroke-linejoin="bevel" class="zr28-cls-37"></path>
<path d="M250 442.5A192.5 192.5 0 0 1 195.8 434.7L201.4 415.5A172.5 172.5 0 0 0 250 422.5Z" fill="#000" stroke="white" stroke-linejoin="bevel" class="zr28-cls-38"></path>
<path d="M250 462.5A212.5 212.5 0 0 1 190.1 453.9L195.8 434.7A192.5 192.5 0 0 0 250 442.5Z" fill="#000" stroke="white" stroke-linejoin="bevel" class="zr28-cls-39"></path>
<path d="M201.4 415.5A172.5 172.5 0 0 1 156.7 395.1L167.6 378.3A152.5 152.5 0 0 0 207 396.3Z" fill="#ff4949" fill-opacity="0.5" stroke="#fff" stroke-width="4" stroke-opacity="0.5" stroke-linejoin="bevel" class="zr28-cls-40"></path>
<path d="M195.8 434.7A192.5 192.5 0 0 1 145.9 411.9L156.7 395.1A172.5 172.5 0 0 0 201.4 415.5Z" fill="#000" stroke="white" stroke-linejoin="bevel" class="zr28-cls-41"></path>
<path d="M190.1 453.9A212.5 212.5 0 0 1 135.1 428.8L145.9 411.9A192.5 192.5 0 0 0 195.8 434.7Z" fill="#000" stroke="white" stroke-linejoin="bevel" class="zr28-cls-42"></path>
<path d="M210.8 311A72.5 72.5 0 0 1 195.2 297.5L210.3 284.4A52.5 52.5 0 0 0 221.6 294.2Z" fill="#000" stroke="white" stroke-linejoin="bevel" class="zr28-cls-43"></path>
<path d="M200 327.8A92.5 92.5 0 0 1 180.1 310.6L195.2 297.5A72.5 72.5 0 0 0 210.8 311Z" fill="#000" stroke="white" stroke-linejoin="bevel" class="zr28-cls-44"></path>
<path d="M189.2 344.6A112.5 112.5 0 0 1 165 323.7L180.1 310.6A92.5 92.5 0 0 0 200 327.8Z" fill="#4949CD" fill-opacity="0.5" stroke="#fff" stroke-width="4" stroke-opacity="0.5" stroke-linejoin="bevel" class="zr28-cls-45"></path>
<path d="M178.4 361.5A132.5 132.5 0 0 1 149.9 336.8L165 323.7A112.5 112.5 0 0 0 189.2 344.6Z" fill="#0AA40D" stroke="white" stroke-linejoin="bevel" class="zr28-cls-46"></path>
<path d="M167.6 378.3A152.5 152.5 0 0 1 134.7 349.9L149.9 336.8A132.5 132.5 0 0 0 178.4 361.5Z" fill="#000" stroke="white" stroke-linejoin="bevel" class="zr28-cls-47"></path>
<path d="M156.7 395.1A172.5 172.5 0 0 1 119.6 363L134.7 349.9A152.5 152.5 0 0 0 167.6 378.3Z" fill="#ff4949" fill-opacity="0.5" stroke="#fff" stroke-width="4" stroke-opacity="0.5" stroke-linejoin="bevel" class="zr28-cls-48"></path>
<path d="M145.9 411.9A192.5 192.5 0 0 1 104.5 376.1L119.6 363A172.5 172.5 0 0 0 156.7 395.1Z" fill="#000" stroke="white" stroke-linejoin="bevel" class="zr28-cls-49"></path>
<path d="M195.2 297.5A72.5 72.5 0 0 1 184.1 280.1L202.2 271.8A52.5 52.5 0 0 0 210.3 284.4Z" fill="#000" stroke="white" stroke-linejoin="bevel" class="zr28-cls-50"></path>
<path d="M180.1 310.6A92.5 92.5 0 0 1 165.9 288.4L184.1 280.1A72.5 72.5 0 0 0 195.2 297.5Z" fill="#000" stroke="white" stroke-linejoin="bevel" class="zr28-cls-51"></path>
<path d="M165 323.7A112.5 112.5 0 0 1 147.7 296.7L165.9 288.4A92.5 92.5 0 0 0 180.1 310.6Z" fill="#4949CD" fill-opacity="0.5" stroke="#fff" stroke-width="4" stroke-opacity="0.5" stroke-linejoin="bevel" class="zr28-cls-52"></path>
<path d="M149.9 336.8A132.5 132.5 0 0 1 129.5 305L147.7 296.7A112.5 112.5 0 0 0 165 323.7Z" fill="#0AA40D" stroke="white" stroke-linejoin="bevel" class="zr28-cls-53"></path>
<path d="M134.7 349.9A152.5 152.5 0 0 1 111.3 313.4L129.5 305A132.5 132.5 0 0 0 149.9 336.8Z" fill="#000" stroke="white" stroke-linejoin="bevel" class="zr28-cls-54"></path>
<path d="M119.6 363A172.5 172.5 0 0 1 93.1 321.7L111.3 313.4A152.5 152.5 0 0 0 134.7 349.9Z" fill="#49ff49" fill-opacity="0.5" stroke="#fff" stroke-width="4" stroke-opacity="0.5" stroke-linejoin="bevel" class="zr28-cls-55"></path>
<path d="M104.5 376.1A192.5 192.5 0 0 1 74.9 330L93.1 321.7A172.5 172.5 0 0 0 119.6 363Z" fill="#000" stroke="white" stroke-linejoin="bevel" class="zr28-cls-56"></path>
<path d="M89.4 389.2A212.5 212.5 0 0 1 56.7 338.3L74.9 330A192.5 192.5 0 0 0 104.5 376.1Z" fill="#000" stroke="white" stroke-linejoin="bevel" class="zr28-cls-57"></path>
<path d="M184.1 280.1A72.5 72.5 0 0 1 178.2 260.3L198 257.5A52.5 52.5 0 0 0 202.2 271.8Z" fill="#000" stroke="white" stroke-linejoin="bevel" class="zr28-cls-58"></path>
<path d="M165.9 288.4A92.5 92.5 0 0 1 158.4 263.2L178.2 260.3A72.5 72.5 0 0 0 184.1 280.1Z" fill="#000" stroke="white" stroke-linejoin="bevel" class="zr28-cls-59"></path>
<path d="M147.7 296.7A112.5 112.5 0 0 1 138.6 266L158.4 263.2A92.5 92.5 0 0 0 165.9 288.4Z" fill="#49ff49" fill-opacity="0.5" stroke="#fff" stroke-width="4" stroke-opacity="0.5" stroke-linejoin="bevel" class="zr28-cls-60"></path>
<path d="M129.5 305A132.5 132.5 0 0 1 118.8 268.9L138.6 266A112.5 112.5 0 0 0 147.7 296.7Z" fill="#0AA40D" stroke="white" stroke-linejoin="bevel" class="zr28-cls-61"></path>
<path d="M178.2 260.3A72.5 72.5 0 0 1 178.2 239.7L198 242.5A52.5 52.5 0 0 0 198 257.5Z" fill="#000" stroke="white" stroke-linejoin="bevel" class="zr28-cls-62"></path>
<path d="M158.4 263.2A92.5 92.5 0 0 1 158.4 236.8L178.2 239.7A72.5 72.5 0 0 0 178.2 260.3Z" fill="#000" stroke="white" stroke-linejoin="bevel" class="zr28-cls-63"></path>
<path d="M138.6 266A112.5 112.5 0 0 1 138.6 234L158.4 236.8A92.5 92.5 0 0 0 158.4 263.2Z" fill="#4949CD" fill-opacity="0.5" stroke="#fff" stroke-width="4" stroke-opacity="0.5" stroke-linejoin="bevel" class="zr28-cls-64"></path>
<path d="M118.8 268.9A132.5 132.5 0 0 1 118.8 231.1L138.6 234A112.5 112.5 0 0 0 138.6 266Z" fill="#0AA40D" stroke="white" stroke-linejoin="bevel" class="zr28-cls-65"></path>
<path d="M99.1 271.7A152.5 152.5 0 0 1 99.1 228.3L118.8 231.1A132.5 132.5 0 0 0 118.8 268.9Z" fill="#C8C8C8" stroke="white" stroke-linejoin="bevel" class="zr28-cls-66"></path>
<path d="M217.8 245.4A32.5 32.5 0 0 1 250 217.5L250 237.5A12.5 12.5 0 0 0 237.6 248.2Z" fill="#C8C8C8" stroke="white" stroke-linejoin="bevel" class="zr28-cls-67"></path>
<path d="M198 242.5A52.5 52.5 0 0 1 210.3 215.6L225.4 228.7A32.5 32.5 0 0 0 217.8 245.4Z" fill="#C8C8C8" stroke="white" stroke-linejoin="bevel" class="zr28-cls-68"></path>
<path d="M210.3 215.6A52.5 52.5 0 0 1 235.2 199.6L240.8 218.8A32.5 32.5 0 0 0 225.4 228.7Z" fill="#C8C8C8" stroke="white" stroke-linejoin="bevel" class="zr28-cls-69"></path>
<path d="M235.2 199.6A52.5 52.5 0 0 1 250 197.5L250 217.5A32.5 32.5 0 0 0 240.8 218.8Z" fill="#C8C8C8" stroke="white" stroke-linejoin="bevel" class="zr28-cls-70"></path>
<text dominant-baseline="central" text-anchor="middle" style="font-size:12px;font-family:sans-serif;" transform="matrix(0.756,-0.655,0.655,0.756,264.7344,267.0044)" fill="#ccc" stroke="#000" stroke-width="2" paint-order="stroke" stroke-miterlimit="2">paths</text>
<text dominant-baseline="central" text-anchor="middle" style="font-size:12px;font-family:sans-serif;" transform="matrix(0.99,0.142,-0.142,0.99,261.741,168.3397)" fill="#eee" stroke="#0AA40D" stroke-width="2" paint-order="stroke" stroke-miterlimit="2">GET</text>
<text dominant-baseline="central" text-anchor="middle" style="font-size:12px;font-family:sans-serif;" transform="matrix(0.756,0.655,-0.655,0.756,304.026,187.6507)" fill="#333">POST</text>
<text dominant-baseline="central" text-anchor="middle" style="font-size:12px;font-family:sans-serif;" transform="matrix(0.282,0.959,-0.959,0.282,329.1582,226.7571)" fill="#eee" stroke="#0AA40D" stroke-width="2" paint-order="stroke" stroke-miterlimit="2">GET</text>
<text dominant-baseline="central" text-anchor="middle" style="font-size:9px;font-family:sans-serif;" transform="matrix(0.282,-0.959,0.959,0.282,309.9683,267.6083)" fill="#ccc" stroke="#000" stroke-width="2" paint-order="stroke" stroke-miterlimit="2">/connectors</text>
<text dominant-baseline="central" text-anchor="middle" style="font-size:12px;font-family:sans-serif;" transform="matrix(0.541,-0.841,0.841,0.541,319.4034,294.6029)" fill="#eee" stroke="#0AA40D" stroke-width="2" paint-order="stroke" stroke-miterlimit="2">GET</text>
<text dominant-baseline="central" text-anchor="middle" style="font-size:9px;font-family:sans-serif;" transform="matrix(0.959,-0.282,0.282,0.959,273.2429,329.1582)" fill="#ccc" stroke="#000" stroke-width="2" paint-order="stroke" stroke-miterlimit="2">operations</text>
<text dominant-baseline="central" text-anchor="middle" style="font-size:12px;font-family:sans-serif;" transform="matrix(0.959,-0.282,0.282,0.959,284.5122,367.5379)" fill="#333">POST</text>
<text dominant-baseline="central" text-anchor="middle" style="font-size:9px;font-family:sans-serif;" transform="matrix(0.959,-0.282,0.282,0.959,290.1469,386.7277)" fill="#ccc" stroke="#000" stroke-width="2" paint-order="stroke" stroke-miterlimit="2">params</text>
<text dominant-baseline="central" text-anchor="middle" style="font-size:10px;font-family:sans-serif;" transform="matrix(0.91,-0.415,0.415,0.91,325.8132,416.0078)" fill="#ccc" stroke="#000" stroke-width="2" paint-order="stroke" stroke-miterlimit="2">formData</text>
<text dominant-baseline="central" text-anchor="middle" style="font-size:10px;font-family:sans-serif;" transform="matrix(0.91,-0.415,0.415,0.91,334.1215,434.2005)" fill="#ccc" stroke="#000" stroke-width="2" paint-order="stroke" stroke-miterlimit="2">statement</text>
<text dominant-baseline="central" text-anchor="middle" style="font-size:10px;font-family:sans-serif;" transform="matrix(0.99,-0.142,0.142,0.99,275.9725,430.6424)" fill="#ccc" stroke="#000" stroke-width="2" paint-order="stroke" stroke-miterlimit="2">formData</text>
<text dominant-baseline="central" text-anchor="middle" style="font-size:9px;font-family:sans-serif;" transform="matrix(0.99,-0.142,0.142,0.99,278.8188,450.4388)" fill="#ccc" stroke="#000" stroke-width="2" paint-order="stroke" stroke-miterlimit="2">statements</text>
<text dominant-baseline="central" text-anchor="middle" style="font-size:12px;font-family:sans-serif;" transform="matrix(0.959,0.282,-0.282,0.959,232.3917,309.9683)" fill="#ccc" stroke="#000" stroke-width="2" paint-order="stroke" stroke-miterlimit="2">/token</text>
<text dominant-baseline="central" text-anchor="middle" style="font-size:9px;font-family:sans-serif;" transform="matrix(0.959,0.282,-0.282,0.959,226.7571,329.1582)" fill="#ccc" stroke="#000" stroke-width="2" paint-order="stroke" stroke-miterlimit="2">operations</text>
<text dominant-baseline="central" text-anchor="middle" style="font-size:12px;font-family:sans-serif;" transform="matrix(0.959,0.282,-0.282,0.959,215.4878,367.5379)" fill="#333">POST</text>
<text dominant-baseline="central" text-anchor="middle" style="font-size:9px;font-family:sans-serif;" transform="matrix(0.959,0.282,-0.282,0.959,209.8531,386.7277)" fill="#ccc" stroke="#000" stroke-width="2" paint-order="stroke" stroke-miterlimit="2">params</text>
<text dominant-baseline="central" text-anchor="middle" style="font-size:10px;font-family:sans-serif;" transform="matrix(0.99,0.142,-0.142,0.99,224.0275,430.6424)" fill="#ccc" stroke="#000" stroke-width="2" paint-order="stroke" stroke-miterlimit="2">formData</text>
<text dominant-baseline="central" text-anchor="middle" style="font-size:12px;font-family:sans-serif;" transform="matrix(0.99,0.142,-0.142,0.99,221.1812,450.4388)" fill="#ccc" stroke="#000" stroke-width="2" paint-order="stroke" stroke-miterlimit="2">scope</text>
<text dominant-baseline="central" text-anchor="middle" style="font-size:12px;font-family:sans-serif;" transform="matrix(0.91,0.415,-0.415,0.91,174.1868,416.0078)" fill="#ccc" stroke="#000" stroke-width="2" paint-order="stroke" stroke-miterlimit="2">body</text>
<text dominant-baseline="central" text-anchor="middle" style="font-size:12px;font-family:sans-serif;" transform="matrix(0.756,0.655,-0.655,0.756,169.7796,342.5793)" fill="#eee" stroke="#0AA40D" stroke-width="2" paint-order="stroke" stroke-miterlimit="2">GET</text>
<text dominant-baseline="central" text-anchor="middle" style="font-size:10px;font-family:sans-serif;" transform="matrix(0.756,0.655,-0.655,0.756,156.6823,357.6943)" fill="#ccc" stroke="#000" stroke-width="2" paint-order="stroke" stroke-miterlimit="2">responses</text>
<text dominant-baseline="central" text-anchor="middle" style="font-size:12px;font-family:sans-serif;" transform="matrix(0.756,0.655,-0.655,0.756,130.4879,387.9243)" fill="#ccc" stroke="#000" stroke-width="2" paint-order="stroke" stroke-miterlimit="2">401</text>
<text dominant-baseline="central" text-anchor="middle" style="font-size:9px;font-family:sans-serif;" transform="matrix(0.541,0.841,-0.841,0.541,180.5966,294.6029)" fill="#ccc" stroke="#000" stroke-width="2" paint-order="stroke" stroke-miterlimit="2">operations</text>
<text dominant-baseline="central" text-anchor="middle" style="font-size:12px;font-family:sans-serif;" transform="matrix(0.541,0.841,-0.841,0.541,146.9464,316.2285)" fill="#eee" stroke="#0AA40D" stroke-width="2" paint-order="stroke" stroke-miterlimit="2">GET</text>
<text dominant-baseline="central" text-anchor="middle" style="font-size:12px;font-family:sans-serif;" transform="matrix(0.541,0.841,-0.841,0.541,96.4712,348.6669)" fill="#ccc" stroke="#000" stroke-width="2" paint-order="stroke" stroke-miterlimit="2">query</text>
<text dominant-baseline="central" text-anchor="middle" style="font-size:12px;font-family:sans-serif;" transform="matrix(0.541,0.841,-0.841,0.541,79.6462,359.4798)" fill="#ccc" stroke="#000" stroke-width="2" paint-order="stroke" stroke-miterlimit="2">filter</text>
<text dominant-baseline="central" text-anchor="middle" style="font-size:12px;font-family:sans-serif;" transform="matrix(0.282,0.959,-0.959,0.282,132.4621,284.5122)" fill="#eee" stroke="#0AA40D" stroke-width="2" paint-order="stroke" stroke-miterlimit="2">GET</text>
<text dominant-baseline="central" text-anchor="middle" style="font-size:9px;font-family:sans-serif;" transform="matrix(0,1,-1,0,167.5,250)" fill="#ccc" stroke="#000" stroke-width="2" paint-order="stroke" stroke-miterlimit="2">operations</text>
<text dominant-baseline="central" text-anchor="middle" style="font-size:12px;font-family:sans-serif;" transform="matrix(0,1,-1,0,127.5,250)" fill="#eee" stroke="#0AA40D" stroke-width="2" paint-order="stroke" stroke-miterlimit="2">GET</text>
<text dominant-baseline="central" text-anchor="middle" style="font-size:9px;font-family:sans-serif;" transform="matrix(0,1,-1,0,107.5,250)" fill="#333">description</text>
<text dominant-baseline="central" text-anchor="middle" style="font-size:12px;font-family:sans-serif;" transform="matrix(0.756,-0.655,0.655,0.756,235.2656,232.9956)" fill="#333">info</text>
<text dominant-baseline="central" text-anchor="middle" style="font-size:10px;font-family:sans-serif;" transform="matrix(0.841,-0.541,0.541,0.841,227.0228,214.2467)" fill="#333">version</text>
<path d="M-14.8 -16l66.6 0l0 32l-66.6 0Z" transform="translate(448.253 16)" fill="none" stroke="#ccc" stroke-width="0"></path>
<path d="M-7.3 -1.8L-0.1 4.8L7.3 -1.6M-7.3 4.3L-7.3 8.5L7.1 8.5L7.1 4.3M-0.1 4.7L-0.1 -8.5" transform="translate(448.253 16)" fill="none" stroke="#666"></path>
<path d="M-7.9 1M5.1 -3.4L8.1 -3.4L8.1 -6.4M8 -3C6.7 -6.4 3.2 -8.9 -1 -8.4C-5.3 -8 -8.6 -4.2 -8.4 0.2M-5.1 3.4L-8.1 3.4L-8.1 6.4M-8 3C-6.7 6.4 -3.2 8.9 1 8.4C5.3 8 8.6 4.2 8.4 -0.2" transform="translate(484.0476 16)" fill="none" stroke="#666"></path>
<style ><![CDATA[
.zr28-cls-0 {
animation:zr28-ani-0 1s cubic-bezier(0.65,0,0.35,1) both;
}
.zr28-cls-1 {
animation:zr28-ani-1 1s cubic-bezier(0.65,0,0.35,1) both;
}
.zr28-cls-2 {
animation:zr28-ani-2 1s cubic-bezier(0.65,0,0.35,1) both;
}
.zr28-cls-3 {
animation:zr28-ani-3 1s cubic-bezier(0.65,0,0.35,1) both;
}
.zr28-cls-4 {
animation:zr28-ani-4 1s cubic-bezier(0.65,0,0.35,1) both;
}
.zr28-cls-5 {
animation:zr28-ani-5 1s cubic-bezier(0.65,0,0.35,1) both;
}
.zr28-cls-6 {
animation:zr28-ani-6 1s cubic-bezier(0.65,0,0.35,1) both;
}
.zr28-cls-7 {
animation:zr28-ani-7 1s cubic-bezier(0.65,0,0.35,1) both;
}
.zr28-cls-8 {
animation:zr28-ani-8 1s cubic-bezier(0.65,0,0.35,1) both;
}
.zr28-cls-9 {
animation:zr28-ani-9 1s cubic-bezier(0.65,0,0.35,1) both;
}
.zr28-cls-10 {
animation:zr28-ani-10 1s cubic-bezier(0.65,0,0.35,1) both;
}
.zr28-cls-11 {
animation:zr28-ani-11 1s cubic-bezier(0.65,0,0.35,1) both;
}
.zr28-cls-12 {
animation:zr28-ani-12 1s cubic-bezier(0.65,0,0.35,1) both;
}
.zr28-cls-13 {
animation:zr28-ani-13 1s cubic-bezier(0.65,0,0.35,1) both;
}
.zr28-cls-14 {
animation:zr28-ani-14 1s cubic-bezier(0.65,0,0.35,1) both;
}
.zr28-cls-15 {
animation:zr28-ani-15 1s cubic-bezier(0.65,0,0.35,1) both;
}
.zr28-cls-16 {
animation:zr28-ani-16 1s cubic-bezier(0.65,0,0.35,1) both;
}
.zr28-cls-17 {
animation:zr28-ani-17 1s cubic-bezier(0.65,0,0.35,1) both;
}
.zr28-cls-18 {
animation:zr28-ani-18 1s cubic-bezier(0.65,0,0.35,1) both;
}
.zr28-cls-19 {
animation:zr28-ani-19 1s cubic-bezier(0.65,0,0.35,1) both;
}
.zr28-cls-20 {
animation:zr28-ani-20 1s cubic-bezier(0.65,0,0.35,1) both;
}
.zr28-cls-21 {
animation:zr28-ani-21 1s cubic-bezier(0.65,0,0.35,1) both;
}
.zr28-cls-22 {
animation:zr28-ani-22 1s cubic-bezier(0.65,0,0.35,1) both;
}
.zr28-cls-23 {
animation:zr28-ani-23 1s cubic-bezier(0.65,0,0.35,1) both;
}
.zr28-cls-24 {
animation:zr28-ani-24 1s cubic-bezier(0.65,0,0.35,1) both;
}
.zr28-cls-25 {
animation:zr28-ani-25 1s cubic-bezier(0.65,0,0.35,1) both;
}
.zr28-cls-26 {
animation:zr28-ani-26 1s cubic-bezier(0.65,0,0.35,1) both;
}
.zr28-cls-27 {
animation:zr28-ani-27 1s cubic-bezier(0.65,0,0.35,1) both;
}
.zr28-cls-28 {
animation:zr28-ani-28 1s cubic-bezier(0.65,0,0.35,1) both;
}
.zr28-cls-29 {
animation:zr28-ani-29 1s cubic-bezier(0.65,0,0.35,1) both;
}
.zr28-cls-30 {
animation:zr28-ani-30 1s cubic-bezier(0.65,0,0.35,1) both;
}
.zr28-cls-31 {
animation:zr28-ani-31 1s cubic-bezier(0.65,0,0.35,1) both;
}
.zr28-cls-32 {
animation:zr28-ani-32 1s cubic-bezier(0.65,0,0.35,1) both;
}
.zr28-cls-33 {
animation:zr28-ani-33 1s cubic-bezier(0.65,0,0.35,1) both;
}
.zr28-cls-34 {
animation:zr28-ani-34 1s cubic-bezier(0.65,0,0.35,1) both;
}
.zr28-cls-35 {
animation:zr28-ani-35 1s cubic-bezier(0.65,0,0.35,1) both;
}
.zr28-cls-36 {
animation:zr28-ani-36 1s cubic-bezier(0.65,0,0.35,1) both;
}
.zr28-cls-37 {
animation:zr28-ani-37 1s cubic-bezier(0.65,0,0.35,1) both;
}
.zr28-cls-38 {
animation:zr28-ani-38 1s cubic-bezier(0.65,0,0.35,1) both;
}
.zr28-cls-39 {
animation:zr28-ani-39 1s cubic-bezier(0.65,0,0.35,1) both;
}
.zr28-cls-40 {
animation:zr28-ani-40 1s cubic-bezier(0.65,0,0.35,1) both;
}
.zr28-cls-41 {
animation:zr28-ani-41 1s cubic-bezier(0.65,0,0.35,1) both;
}
.zr28-cls-42 {
animation:zr28-ani-42 1s cubic-bezier(0.65,0,0.35,1) both;
}
.zr28-cls-43 {
animation:zr28-ani-43 1s cubic-bezier(0.65,0,0.35,1) both;
}
.zr28-cls-44 {
animation:zr28-ani-44 1s cubic-bezier(0.65,0,0.35,1) both;
}
.zr28-cls-45 {
animation:zr28-ani-45 1s cubic-bezier(0.65,0,0.35,1) both;
}
.zr28-cls-46 {
animation:zr28-ani-46 1s cubic-bezier(0.65,0,0.35,1) both;
}
.zr28-cls-47 {
animation:zr28-ani-47 1s cubic-bezier(0.65,0,0.35,1) both;
}
.zr28-cls-48 {
animation:zr28-ani-48 1s cubic-bezier(0.65,0,0.35,1) both;
}
.zr28-cls-49 {
animation:zr28-ani-49 1s cubic-bezier(0.65,0,0.35,1) both;
}
.zr28-cls-50 {
animation:zr28-ani-50 1s cubic-bezier(0.65,0,0.35,1) both;
}
.zr28-cls-51 {
animation:zr28-ani-51 1s cubic-bezier(0.65,0,0.35,1) both;
}
.zr28-cls-52 {
animation:zr28-ani-52 1s cubic-bezier(0.65,0,0.35,1) both;
}
.zr28-cls-53 {
animation:zr28-ani-53 1s cubic-bezier(0.65,0,0.35,1) both;
}
.zr28-cls-54 {
animation:zr28-ani-54 1s cubic-bezier(0.65,0,0.35,1) both;
}
.zr28-cls-55 {
animation:zr28-ani-55 1s cubic-bezier(0.65,0,0.35,1) both;
}
.zr28-cls-56 {
animation:zr28-ani-56 1s cubic-bezier(0.65,0,0.35,1) both;
}
.zr28-cls-57 {
animation:zr28-ani-57 1s cubic-bezier(0.65,0,0.35,1) both;
}
.zr28-cls-58 {
animation:zr28-ani-58 1s cubic-bezier(0.65,0,0.35,1) both;
}
.zr28-cls-59 {
animation:zr28-ani-59 1s cubic-bezier(0.65,0,0.35,1) both;
}
.zr28-cls-60 {
animation:zr28-ani-60 1s cubic-bezier(0.65,0,0.35,1) both;
}
.zr28-cls-61 {
animation:zr28-ani-61 1s cubic-bezier(0.65,0,0.35,1) both;
}
.zr28-cls-62 {
animation:zr28-ani-62 1s cubic-bezier(0.65,0,0.35,1) both;
}
.zr28-cls-63 {
animation:zr28-ani-63 1s cubic-bezier(0.65,0,0.35,1) both;
}
.zr28-cls-64 {
animation:zr28-ani-64 1s cubic-bezier(0.65,0,0.35,1) both;
}
.zr28-cls-65 {
animation:zr28-ani-65 1s cubic-bezier(0.65,0,0.35,1) both;
}
.zr28-cls-66 {
animation:zr28-ani-66 1s cubic-bezier(0.65,0,0.35,1) both;
}
.zr28-cls-67 {
animation:zr28-ani-67 1s cubic-bezier(0.65,0,0.35,1) both;
}
.zr28-cls-68 {
animation:zr28-ani-68 1s cubic-bezier(0.65,0,0.35,1) both;
}
.zr28-cls-69 {
animation:zr28-ani-69 1s cubic-bezier(0.65,0,0.35,1) both;
}
.zr28-cls-70 {
animation:zr28-ani-70 1s cubic-bezier(0.65,0,0.35,1) both;
}
@keyframes zr28-ani-0 {
0% {
d:path("M250 237.5A12.5 12.5 0 1 1 237.6 248.2A12.5 12.5 0 1 0 250 237.5Z");
}
100% {
d:path("M250 217.5A32.5 32.5 0 1 1 217.8 245.4L237.6 248.2A12.5 12.5 0 1 0 250 237.5Z");
}
}
@keyframes zr28-ani-1 {
0% {
d:path("M250 217.5A32.5 32.5 0 0 1 267.6 277.3A32.5 32.5 0 0 0 250 217.5Z");
}
100% {
d:path("M250 197.5A52.5 52.5 0 0 1 278.4 294.2L267.6 277.3A32.5 32.5 0 0 0 250 217.5Z");
}
}
@keyframes zr28-ani-2 {
0% {
d:path("M250 197.5A52.5 52.5 0 0 1 264.8 199.6L264.8 199.6A52.5 52.5 0 0 0 250 197.5Z");
}
100% {
d:path("M250 177.5A72.5 72.5 0 0 1 270.4 180.4L264.8 199.6A52.5 52.5 0 0 0 250 197.5Z");
}
}
@keyframes zr28-ani-3 {
0% {
d:path("M250 177.5A72.5 72.5 0 0 1 270.4 180.4L270.4 180.4A72.5 72.5 0 0 0 250 177.5Z");
}
100% {
d:path("M250 157.5A92.5 92.5 0 0 1 276.1 161.2L270.4 180.4A72.5 72.5 0 0 0 250 177.5Z");
}
}
@keyframes zr28-ani-4 {
0% {
d:path("M264.8 199.6A52.5 52.5 0 0 1 278.4 205.8L278.4 205.8A52.5 52.5 0 0 0 264.8 199.6Z");
}
100% {
d:path("M270.4 180.4A72.5 72.5 0 0 1 289.2 189L278.4 205.8A52.5 52.5 0 0 0 264.8 199.6Z");
}
}
@keyframes zr28-ani-5 {
0% {
d:path("M270.4 180.4A72.5 72.5 0 0 1 289.2 189L289.2 189A72.5 72.5 0 0 0 270.4 180.4Z");
}
100% {
d:path("M276.1 161.2A92.5 92.5 0 0 1 300 172.2L289.2 189A72.5 72.5 0 0 0 270.4 180.4Z");
}
}
@keyframes zr28-ani-6 {
0% {
d:path("M278.4 205.8A52.5 52.5 0 0 1 289.7 215.6L289.7 215.6A52.5 52.5 0 0 0 278.4 205.8Z");
}
100% {
d:path("M289.2 189A72.5 72.5 0 0 1 304.8 202.5L289.7 215.6A52.5 52.5 0 0 0 278.4 205.8Z");
}
}
@keyframes zr28-ani-7 {
0% {
d:path("M289.2 189A72.5 72.5 0 0 1 304.8 202.5L304.8 202.5A72.5 72.5 0 0 0 289.2 189Z");
}
100% {
d:path("M300 172.2A92.5 92.5 0 0 1 319.9 189.4L304.8 202.5A72.5 72.5 0 0 0 289.2 189Z");
}
}
@keyframes zr28-ani-8 {
0% {
d:path("M289.7 215.6A52.5 52.5 0 0 1 297.8 228.2L297.8 228.2A52.5 52.5 0 0 0 289.7 215.6Z");
}
100% {
d:path("M304.8 202.5A72.5 72.5 0 0 1 315.9 219.9L297.8 228.2A52.5 52.5 0 0 0 289.7 215.6Z");
}
}
@keyframes zr28-ani-9 {
0% {
d:path("M304.8 202.5A72.5 72.5 0 0 1 315.9 219.9L315.9 219.9A72.5 72.5 0 0 0 304.8 202.5Z");
}
100% {
d:path("M319.9 189.4A92.5 92.5 0 0 1 334.1 211.6L315.9 219.9A72.5 72.5 0 0 0 304.8 202.5Z");
}
}
@keyframes zr28-ani-10 {
0% {
d:path("M297.8 228.2A52.5 52.5 0 0 1 302 242.5L302 242.5A52.5 52.5 0 0 0 297.8 228.2Z");
}
100% {
d:path("M315.9 219.9A72.5 72.5 0 0 1 321.8 239.7L302 242.5A52.5 52.5 0 0 0 297.8 228.2Z");
}
}
@keyframes zr28-ani-11 {
0% {
d:path("M315.9 219.9A72.5 72.5 0 0 1 321.8 239.7L321.8 239.7A72.5 72.5 0 0 0 315.9 219.9Z");
}
100% {
d:path("M334.1 211.6A92.5 92.5 0 0 1 341.6 236.8L321.8 239.7A72.5 72.5 0 0 0 315.9 219.9Z");
}
}
@keyframes zr28-ani-12 {
0% {
d:path("M302 242.5A52.5 52.5 0 0 1 302 257.5L302 257.5A52.5 52.5 0 0 0 302 242.5Z");
}
100% {
d:path("M321.8 239.7A72.5 72.5 0 0 1 321.8 260.3L302 257.5A52.5 52.5 0 0 0 302 242.5Z");
}
}
@keyframes zr28-ani-13 {
0% {
d:path("M321.8 239.7A72.5 72.5 0 0 1 321.8 260.3L321.8 260.3A72.5 72.5 0 0 0 321.8 239.7Z");
}
100% {
d:path("M341.6 236.8A92.5 92.5 0 0 1 341.6 263.2L321.8 260.3A72.5 72.5 0 0 0 321.8 239.7Z");
}
}
@keyframes zr28-ani-14 {
0% {
d:path("M302 257.5A52.5 52.5 0 0 1 297.8 271.8L297.8 271.8A52.5 52.5 0 0 0 302 257.5Z");
}
100% {
d:path("M321.8 260.3A72.5 72.5 0 0 1 315.9 280.1L297.8 271.8A52.5 52.5 0 0 0 302 257.5Z");
}
}
@keyframes zr28-ani-15 {
0% {
d:path("M321.8 260.3A72.5 72.5 0 0 1 315.9 280.1L315.9 280.1A72.5 72.5 0 0 0 321.8 260.3Z");
}
100% {
d:path("M341.6 263.2A92.5 92.5 0 0 1 334.1 288.4L315.9 280.1A72.5 72.5 0 0 0 321.8 260.3Z");
}
}
@keyframes zr28-ani-16 {
0% {
d:path("M297.8 271.8A52.5 52.5 0 0 1 289.7 284.4L289.7 284.4A52.5 52.5 0 0 0 297.8 271.8Z");
}
100% {
d:path("M315.9 280.1A72.5 72.5 0 0 1 304.8 297.5L289.7 284.4A52.5 52.5 0 0 0 297.8 271.8Z");
}
}
@keyframes zr28-ani-17 {
0% {
d:path("M315.9 280.1A72.5 72.5 0 0 1 304.8 297.5L304.8 297.5A72.5 72.5 0 0 0 315.9 280.1Z");
}
100% {
d:path("M334.1 288.4A92.5 92.5 0 0 1 319.9 310.6L304.8 297.5A72.5 72.5 0 0 0 315.9 280.1Z");
}
}
@keyframes zr28-ani-18 {
0% {
d:path("M289.7 284.4A52.5 52.5 0 0 1 278.4 294.2L278.4 294.2A52.5 52.5 0 0 0 289.7 284.4Z");
}
100% {
d:path("M304.8 297.5A72.5 72.5 0 0 1 289.2 311L278.4 294.2A52.5 52.5 0 0 0 289.7 284.4Z");
}
}
@keyframes zr28-ani-19 {
0% {
d:path("M304.8 297.5A72.5 72.5 0 0 1 289.2 311L289.2 311A72.5 72.5 0 0 0 304.8 297.5Z");
}
100% {
d:path("M319.9 310.6A92.5 92.5 0 0 1 300 327.8L289.2 311A72.5 72.5 0 0 0 304.8 297.5Z");
}
}
@keyframes zr28-ani-20 {
0% {
d:path("M267.6 277.3A32.5 32.5 0 0 1 217.8 245.4L217.8 245.4A32.5 32.5 0 0 0 267.6 277.3Z");
}
100% {
d:path("M278.4 294.2A52.5 52.5 0 0 1 198 242.5L217.8 245.4A32.5 32.5 0 0 0 267.6 277.3Z");
}
}
@keyframes zr28-ani-21 {
0% {
d:path("M278.4 294.2A52.5 52.5 0 0 1 250 302.5L250 302.5A52.5 52.5 0 0 0 278.4 294.2Z");
}
100% {
d:path("M289.2 311A72.5 72.5 0 0 1 250 322.5L250 302.5A52.5 52.5 0 0 0 278.4 294.2Z");
}
}
@keyframes zr28-ani-22 {
0% {
d:path("M289.2 311A72.5 72.5 0 0 1 250 322.5L250 322.5A72.5 72.5 0 0 0 289.2 311Z");
}
100% {
d:path("M300 327.8A92.5 92.5 0 0 1 250 342.5L250 322.5A72.5 72.5 0 0 0 289.2 311Z");
}
}
@keyframes zr28-ani-23 {
0% {
d:path("M300 327.8A92.5 92.5 0 0 1 250 342.5L250 342.5A92.5 92.5 0 0 0 300 327.8Z");
}
100% {
d:path("M310.8 344.6A112.5 112.5 0 0 1 250 362.5L250 342.5A92.5 92.5 0 0 0 300 327.8Z");
}
}
@keyframes zr28-ani-24 {
0% {
d:path("M310.8 344.6A112.5 112.5 0 0 1 250 362.5L250 362.5A112.5 112.5 0 0 0 310.8 344.6Z");
}
100% {
d:path("M321.6 361.5A132.5 132.5 0 0 1 250 382.5L250 362.5A112.5 112.5 0 0 0 310.8 344.6Z");
}
}
@keyframes zr28-ani-25 {
0% {
d:path("M321.6 361.5A132.5 132.5 0 0 1 250 382.5L250 382.5A132.5 132.5 0 0 0 321.6 361.5Z");
}
100% {
d:path("M332.4 378.3A152.5 152.5 0 0 1 250 402.5L250 382.5A132.5 132.5 0 0 0 321.6 361.5Z");
}
}
@keyframes zr28-ani-26 {
0% {
d:path("M332.4 378.3A152.5 152.5 0 0 1 293 396.3L293 396.3A152.5 152.5 0 0 0 332.4 378.3Z");
}
100% {
d:path("M343.3 395.1A172.5 172.5 0 0 1 298.6 415.5L293 396.3A152.5 152.5 0 0 0 332.4 378.3Z");
}
}
@keyframes zr28-ani-27 {
0% {
d:path("M343.3 395.1A172.5 172.5 0 0 1 298.6 415.5L298.6 415.5A172.5 172.5 0 0 0 343.3 395.1Z");
}
100% {
d:path("M354.1 411.9A192.5 192.5 0 0 1 304.2 434.7L298.6 415.5A172.5 172.5 0 0 0 343.3 395.1Z");
}
}
@keyframes zr28-ani-28 {
0% {
d:path("M354.1 411.9A192.5 192.5 0 0 1 304.2 434.7L304.2 434.7A192.5 192.5 0 0 0 354.1 411.9Z");
}
100% {
d:path("M364.9 428.8A212.5 212.5 0 0 1 309.9 453.9L304.2 434.7A192.5 192.5 0 0 0 354.1 411.9Z");
}
}
@keyframes zr28-ani-29 {
0% {
d:path("M293 396.3A152.5 152.5 0 0 1 250 402.5L250 402.5A152.5 152.5 0 0 0 293 396.3Z");
}
100% {
d:path("M298.6 415.5A172.5 172.5 0 0 1 250 422.5L250 402.5A152.5 152.5 0 0 0 293 396.3Z");
}
}
@keyframes zr28-ani-30 {
0% {
d:path("M298.6 415.5A172.5 172.5 0 0 1 250 422.5L250 422.5A172.5 172.5 0 0 0 298.6 415.5Z");
}
100% {
d:path("M304.2 434.7A192.5 192.5 0 0 1 250 442.5L250 422.5A172.5 172.5 0 0 0 298.6 415.5Z");
}
}
@keyframes zr28-ani-31 {
0% {
d:path("M304.2 434.7A192.5 192.5 0 0 1 250 442.5L250 442.5A192.5 192.5 0 0 0 304.2 434.7Z");
}
100% {
d:path("M309.9 453.9A212.5 212.5 0 0 1 250 462.5L250 442.5A192.5 192.5 0 0 0 304.2 434.7Z");
}
}
@keyframes zr28-ani-32 {
0% {
d:path("M250 302.5A52.5 52.5 0 0 1 221.6 294.2A52.5 52.5 0 0 0 250 302.5Z");
}
100% {
d:path("M250 322.5A72.5 72.5 0 0 1 210.8 311L221.6 294.2A52.5 52.5 0 0 0 250 302.5Z");
}
}
@keyframes zr28-ani-33 {
0% {
d:path("M250 322.5A72.5 72.5 0 0 1 210.8 311A72.5 72.5 0 0 0 250 322.5Z");
}
100% {
d:path("M250 342.5A92.5 92.5 0 0 1 200 327.8L210.8 311A72.5 72.5 0 0 0 250 322.5Z");
}
}
@keyframes zr28-ani-34 {
0% {
d:path("M250 342.5A92.5 92.5 0 0 1 200 327.8A92.5 92.5 0 0 0 250 342.5Z");
}
100% {
d:path("M250 362.5A112.5 112.5 0 0 1 189.2 344.6L200 327.8A92.5 92.5 0 0 0 250 342.5Z");
}
}
@keyframes zr28-ani-35 {
0% {
d:path("M250 362.5A112.5 112.5 0 0 1 189.2 344.6A112.5 112.5 0 0 0 250 362.5Z");
}
100% {
d:path("M250 382.5A132.5 132.5 0 0 1 178.4 361.5L189.2 344.6A112.5 112.5 0 0 0 250 362.5Z");
}
}
@keyframes zr28-ani-36 {
0% {
d:path("M250 382.5A132.5 132.5 0 0 1 178.4 361.5A132.5 132.5 0 0 0 250 382.5Z");
}
100% {
d:path("M250 402.5A152.5 152.5 0 0 1 167.6 378.3L178.4 361.5A132.5 132.5 0 0 0 250 382.5Z");
}
}
@keyframes zr28-ani-37 {
0% {
d:path("M250 402.5A152.5 152.5 0 0 1 207 396.3A152.5 152.5 0 0 0 250 402.5Z");
}
100% {
d:path("M250 422.5A172.5 172.5 0 0 1 201.4 415.5L207 396.3A152.5 152.5 0 0 0 250 402.5Z");
}
}
@keyframes zr28-ani-38 {
0% {
d:path("M250 422.5A172.5 172.5 0 0 1 201.4 415.5A172.5 172.5 0 0 0 250 422.5Z");
}
100% {
d:path("M250 442.5A192.5 192.5 0 0 1 195.8 434.7L201.4 415.5A172.5 172.5 0 0 0 250 422.5Z");
}
}
@keyframes zr28-ani-39 {
0% {
d:path("M250 442.5A192.5 192.5 0 0 1 195.8 434.7A192.5 192.5 0 0 0 250 442.5Z");
}
100% {
d:path("M250 462.5A212.5 212.5 0 0 1 190.1 453.9L195.8 434.7A192.5 192.5 0 0 0 250 442.5Z");
}
}
@keyframes zr28-ani-40 {
0% {
d:path("M207 396.3A152.5 152.5 0 0 1 167.6 378.3L167.6 378.3A152.5 152.5 0 0 0 207 396.3Z");
}
100% {
d:path("M201.4 415.5A172.5 172.5 0 0 1 156.7 395.1L167.6 378.3A152.5 152.5 0 0 0 207 396.3Z");
}
}
@keyframes zr28-ani-41 {
0% {
d:path("M201.4 415.5A172.5 172.5 0 0 1 156.7 395.1L156.7 395.1A172.5 172.5 0 0 0 201.4 415.5Z");
}
100% {
d:path("M195.8 434.7A192.5 192.5 0 0 1 145.9 411.9L156.7 395.1A172.5 172.5 0 0 0 201.4 415.5Z");
}
}
@keyframes zr28-ani-42 {
0% {
d:path("M195.8 434.7A192.5 192.5 0 0 1 145.9 411.9L145.9 411.9A192.5 192.5 0 0 0 195.8 434.7Z");
}
100% {
d:path("M190.1 453.9A212.5 212.5 0 0 1 135.1 428.8L145.9 411.9A192.5 192.5 0 0 0 195.8 434.7Z");
}
}
@keyframes zr28-ani-43 {
0% {
d:path("M221.6 294.2A52.5 52.5 0 0 1 210.3 284.4L210.3 284.4A52.5 52.5 0 0 0 221.6 294.2Z");
}
100% {
d:path("M210.8 311A72.5 72.5 0 0 1 195.2 297.5L210.3 284.4A52.5 52.5 0 0 0 221.6 294.2Z");
}
}
@keyframes zr28-ani-44 {
0% {
d:path("M210.8 311A72.5 72.5 0 0 1 195.2 297.5L195.2 297.5A72.5 72.5 0 0 0 210.8 311Z");
}
100% {
d:path("M200 327.8A92.5 92.5 0 0 1 180.1 310.6L195.2 297.5A72.5 72.5 0 0 0 210.8 311Z");
}
}
@keyframes zr28-ani-45 {
0% {
d:path("M200 327.8A92.5 92.5 0 0 1 180.1 310.6L180.1 310.6A92.5 92.5 0 0 0 200 327.8Z");
}
100% {
d:path("M189.2 344.6A112.5 112.5 0 0 1 165 323.7L180.1 310.6A92.5 92.5 0 0 0 200 327.8Z");
}
}
@keyframes zr28-ani-46 {
0% {
d:path("M189.2 344.6A112.5 112.5 0 0 1 165 323.7L165 323.7A112.5 112.5 0 0 0 189.2 344.6Z");
}
100% {
d:path("M178.4 361.5A132.5 132.5 0 0 1 149.9 336.8L165 323.7A112.5 112.5 0 0 0 189.2 344.6Z");
}
}
@keyframes zr28-ani-47 {
0% {
d:path("M178.4 361.5A132.5 132.5 0 0 1 149.9 336.8L149.9 336.8A132.5 132.5 0 0 0 178.4 361.5Z");
}
100% {
d:path("M167.6 378.3A152.5 152.5 0 0 1 134.7 349.9L149.9 336.8A132.5 132.5 0 0 0 178.4 361.5Z");
}
}
@keyframes zr28-ani-48 {
0% {
d:path("M167.6 378.3A152.5 152.5 0 0 1 134.7 349.9L134.7 349.9A152.5 152.5 0 0 0 167.6 378.3Z");
}
100% {
d:path("M156.7 395.1A172.5 172.5 0 0 1 119.6 363L134.7 349.9A152.5 152.5 0 0 0 167.6 378.3Z");
}
}
@keyframes zr28-ani-49 {
0% {
d:path("M156.7 395.1A172.5 172.5 0 0 1 119.6 363L119.6 363A172.5 172.5 0 0 0 156.7 395.1Z");
}
100% {
d:path("M145.9 411.9A192.5 192.5 0 0 1 104.5 376.1L119.6 363A172.5 172.5 0 0 0 156.7 395.1Z");
}
}
@keyframes zr28-ani-50 {
0% {
d:path("M210.3 284.4A52.5 52.5 0 0 1 202.2 271.8L202.2 271.8A52.5 52.5 0 0 0 210.3 284.4Z");
}
100% {
d:path("M195.2 297.5A72.5 72.5 0 0 1 184.1 280.1L202.2 271.8A52.5 52.5 0 0 0 210.3 284.4Z");
}
}
@keyframes zr28-ani-51 {
0% {
d:path("M195.2 297.5A72.5 72.5 0 0 1 184.1 280.1L184.1 280.1A72.5 72.5 0 0 0 195.2 297.5Z");
}
100% {
d:path("M180.1 310.6A92.5 92.5 0 0 1 165.9 288.4L184.1 280.1A72.5 72.5 0 0 0 195.2 297.5Z");
}
}
@keyframes zr28-ani-52 {
0% {
d:path("M180.1 310.6A92.5 92.5 0 0 1 165.9 288.4L165.9 288.4A92.5 92.5 0 0 0 180.1 310.6Z");
}
100% {
d:path("M165 323.7A112.5 112.5 0 0 1 147.7 296.7L165.9 288.4A92.5 92.5 0 0 0 180.1 310.6Z");
}
}
@keyframes zr28-ani-53 {
0% {
d:path("M165 323.7A112.5 112.5 0 0 1 147.7 296.7L147.7 296.7A112.5 112.5 0 0 0 165 323.7Z");
}
100% {
d:path("M149.9 336.8A132.5 132.5 0 0 1 129.5 305L147.7 296.7A112.5 112.5 0 0 0 165 323.7Z");
}
}
@keyframes zr28-ani-54 {
0% {
d:path("M149.9 336.8A132.5 132.5 0 0 1 129.5 305L129.5 305A132.5 132.5 0 0 0 149.9 336.8Z");
}
100% {
d:path("M134.7 349.9A152.5 152.5 0 0 1 111.3 313.4L129.5 305A132.5 132.5 0 0 0 149.9 336.8Z");
}
}
@keyframes zr28-ani-55 {
0% {
d:path("M134.7 349.9A152.5 152.5 0 0 1 111.3 313.4L111.3 313.4A152.5 152.5 0 0 0 134.7 349.9Z");
}
100% {
d:path("M119.6 363A172.5 172.5 0 0 1 93.1 321.7L111.3 313.4A152.5 152.5 0 0 0 134.7 349.9Z");
}
}
@keyframes zr28-ani-56 {
0% {
d:path("M119.6 363A172.5 172.5 0 0 1 93.1 321.7L93.1 321.7A172.5 172.5 0 0 0 119.6 363Z");
}
100% {
d:path("M104.5 376.1A192.5 192.5 0 0 1 74.9 330L93.1 321.7A172.5 172.5 0 0 0 119.6 363Z");
}
}
@keyframes zr28-ani-57 {
0% {
d:path("M104.5 376.1A192.5 192.5 0 0 1 74.9 330L74.9 330A192.5 192.5 0 0 0 104.5 376.1Z");
}
100% {
d:path("M89.4 389.2A212.5 212.5 0 0 1 56.7 338.3L74.9 330A192.5 192.5 0 0 0 104.5 376.1Z");
}
}
@keyframes zr28-ani-58 {
0% {
d:path("M202.2 271.8A52.5 52.5 0 0 1 198 257.5L198 257.5A52.5 52.5 0 0 0 202.2 271.8Z");
}
100% {
d:path("M184.1 280.1A72.5 72.5 0 0 1 178.2 260.3L198 257.5A52.5 52.5 0 0 0 202.2 271.8Z");
}
}
@keyframes zr28-ani-59 {
0% {
d:path("M184.1 280.1A72.5 72.5 0 0 1 178.2 260.3L178.2 260.3A72.5 72.5 0 0 0 184.1 280.1Z");
}
100% {
d:path("M165.9 288.4A92.5 92.5 0 0 1 158.4 263.2L178.2 260.3A72.5 72.5 0 0 0 184.1 280.1Z");
}
}
@keyframes zr28-ani-60 {
0% {
d:path("M165.9 288.4A92.5 92.5 0 0 1 158.4 263.2L158.4 263.2A92.5 92.5 0 0 0 165.9 288.4Z");
}
100% {
d:path("M147.7 296.7A112.5 112.5 0 0 1 138.6 266L158.4 263.2A92.5 92.5 0 0 0 165.9 288.4Z");
}
}
@keyframes zr28-ani-61 {
0% {
d:path("M147.7 296.7A112.5 112.5 0 0 1 138.6 266L138.6 266A112.5 112.5 0 0 0 147.7 296.7Z");
}
100% {
d:path("M129.5 305A132.5 132.5 0 0 1 118.8 268.9L138.6 266A112.5 112.5 0 0 0 147.7 296.7Z");
}
}
@keyframes zr28-ani-62 {
0% {
d:path("M198 257.5A52.5 52.5 0 0 1 198 242.5L198 242.5A52.5 52.5 0 0 0 198 257.5Z");
}
100% {
d:path("M178.2 260.3A72.5 72.5 0 0 1 178.2 239.7L198 242.5A52.5 52.5 0 0 0 198 257.5Z");
}
}
@keyframes zr28-ani-63 {
0% {
d:path("M178.2 260.3A72.5 72.5 0 0 1 178.2 239.7L178.2 239.7A72.5 72.5 0 0 0 178.2 260.3Z");
}
100% {
d:path("M158.4 263.2A92.5 92.5 0 0 1 158.4 236.8L178.2 239.7A72.5 72.5 0 0 0 178.2 260.3Z");
}
}
@keyframes zr28-ani-64 {
0% {
d:path("M158.4 263.2A92.5 92.5 0 0 1 158.4 236.8L158.4 236.8A92.5 92.5 0 0 0 158.4 263.2Z");
}
100% {
d:path("M138.6 266A112.5 112.5 0 0 1 138.6 234L158.4 236.8A92.5 92.5 0 0 0 158.4 263.2Z");
}
}
@keyframes zr28-ani-65 {
0% {
d:path("M138.6 266A112.5 112.5 0 0 1 138.6 234L138.6 234A112.5 112.5 0 0 0 138.6 266Z");
}
100% {
d:path("M118.8 268.9A132.5 132.5 0 0 1 118.8 231.1L138.6 234A112.5 112.5 0 0 0 138.6 266Z");
}
}
@keyframes zr28-ani-66 {
0% {
d:path("M118.8 268.9A132.5 132.5 0 0 1 118.8 231.1L118.8 231.1A132.5 132.5 0 0 0 118.8 268.9Z");
}
100% {
d:path("M99.1 271.7A152.5 152.5 0 0 1 99.1 228.3L118.8 231.1A132.5 132.5 0 0 0 118.8 268.9Z");
}
}
@keyframes zr28-ani-67 {
0% {
d:path("M237.6 248.2A12.5 12.5 0 0 1 250 237.5L250 237.5A12.5 12.5 0 0 0 237.6 248.2Z");
}
100% {
d:path("M217.8 245.4A32.5 32.5 0 0 1 250 217.5L250 237.5A12.5 12.5 0 0 0 237.6 248.2Z");
}
}
@keyframes zr28-ani-68 {
0% {
d:path("M217.8 245.4A32.5 32.5 0 0 1 225.4 228.7L225.4 228.7A32.5 32.5 0 0 0 217.8 245.4Z");
}
100% {
d:path("M198 242.5A52.5 52.5 0 0 1 210.3 215.6L225.4 228.7A32.5 32.5 0 0 0 217.8 245.4Z");
}
}
@keyframes zr28-ani-69 {
0% {
d:path("M225.4 228.7A32.5 32.5 0 0 1 240.8 218.8L240.8 218.8A32.5 32.5 0 0 0 225.4 228.7Z");
}
100% {
d:path("M210.3 215.6A52.5 52.5 0 0 1 235.2 199.6L240.8 218.8A32.5 32.5 0 0 0 225.4 228.7Z");
}
}
@keyframes zr28-ani-70 {
0% {
d:path("M240.8 218.8A32.5 32.5 0 0 1 250 217.5L250 217.5A32.5 32.5 0 0 0 240.8 218.8Z");
}
100% {
d:path("M235.2 199.6A52.5 52.5 0 0 1 250 197.5L250 217.5A32.5 32.5 0 0 0 240.8 218.8Z");
}
}
]]>

</style>
</svg>