<svg width="500" height="500" xmlns="http://www.w3.org/2000/svg" xmlns:xlink="http://www.w3.org/1999/xlink" version="1.1" baseProfile="full" viewBox="0 0 500 500">
<rect width="500" height="500" x="0" y="0" id="0" fill="none"></rect>
<path d="M250 215.3A34.7 34.7 0 1 1 221.7 229.9L239.8 242.7A12.5 12.5 0 1 0 250 237.5Z" fill="#000" stroke="white" stroke-linejoin="bevel" class="zr0-cls-0"></path>
<path d="M250 193.1A56.9 56.9 0 1 1 207 287.3L223.8 272.7A34.7 34.7 0 1 0 250 215.3Z" fill="#49ff49" fill-opacity="0.5" stroke="#fff" stroke-width="4" stroke-opacity="0.5" stroke-linejoin="bevel" class="zr0-cls-1"></path>
<path d="M250 170.8A79.2 79.2 0 0 1 265 172.3L260.8 194.1A56.9 56.9 0 0 0 250 193.1Z" fill="#000" stroke="white" stroke-linejoin="bevel" class="zr0-cls-2"></path>
<path d="M250 148.6A101.4 101.4 0 0 1 269.2 150.4L265 172.3A79.2 79.2 0 0 0 250 170.8Z" fill="#0AA40D" stroke="white" stroke-linejoin="bevel" class="zr0-cls-3"></path>
<path d="M265 172.3A79.2 79.2 0 0 1 279.4 176.5L271.2 197.1A56.9 56.9 0 0 0 260.8 194.1Z" fill="#000" stroke="white" stroke-linejoin="bevel" class="zr0-cls-4"></path>
<path d="M269.2 150.4A101.4 101.4 0 0 1 287.7 155.9L279.4 176.5A79.2 79.2 0 0 0 265 172.3Z" fill="#0AA40D" stroke="white" stroke-linejoin="bevel" class="zr0-cls-5"></path>
<path d="M279.4 176.5A79.2 79.2 0 0 1 292.8 183.4L280.8 202.1A56.9 56.9 0 0 0 271.2 197.1Z" fill="#000" stroke="white" stroke-linejoin="bevel" class="zr0-cls-6"></path>
<path d="M287.7 155.9A101.4 101.4 0 0 1 304.8 164.7L292.8 183.4A79.2 79.2 0 0 0 279.4 176.5Z" fill="#0AA40D" stroke="white" stroke-linejoin="bevel" class="zr0-cls-7"></path>
<path d="M292.8 183.4A79.2 79.2 0 0 1 304.6 192.7L289.3 208.8A56.9 56.9 0 0 0 280.8 202.1Z" fill="#000" stroke="white" stroke-linejoin="bevel" class="zr0-cls-8"></path>
<path d="M304.8 164.7A101.4 101.4 0 0 1 320 176.6L304.6 192.7A79.2 79.2 0 0 0 292.8 183.4Z" fill="#0AA40D" stroke="white" stroke-linejoin="bevel" class="zr0-cls-9"></path>
<path d="M304.6 192.7A79.2 79.2 0 0 1 314.5 204.1L296.4 217A56.9 56.9 0 0 0 289.3 208.8Z" fill="#000" stroke="white" stroke-linejoin="bevel" class="zr0-cls-10"></path>
<path d="M320 176.6A101.4 101.4 0 0 1 332.6 191.2L314.5 204.1A79.2 79.2 0 0 0 304.6 192.7Z" fill="#0AA40D" stroke="white" stroke-linejoin="bevel" class="zr0-cls-11"></path>
<path d="M314.5 204.1A79.2 79.2 0 0 1 322 217.1L301.8 226.3A56.9 56.9 0 0 0 296.4 217Z" fill="#000" stroke="white" stroke-linejoin="bevel" class="zr0-cls-12"></path>
<path d="M332.6 191.2A101.4 101.4 0 0 1 342.2 207.9L322 217.1A79.2 79.2 0 0 0 314.5 204.1Z" fill="#0AA40D" stroke="white" stroke-linejoin="bevel" class="zr0-cls-13"></path>
<path d="M322 217.1A79.2 79.2 0 0 1 326.9 231.3L305.3 236.6A56.9 56.9 0 0 0 301.8 226.3Z" fill="#000" stroke="white" stroke-linejoin="bevel" class="zr0-cls-14"></path>
<path d="M342.2 207.9A101.4 101.4 0 0 1 348.5 226.1L326.9 231.3A79.2 79.2 0 0 0 322 217.1Z" fill="#0AA40D" stroke="white" stroke-linejoin="bevel" class="zr0-cls-15"></path>
<path d="M326.9 231.3A79.2 79.2 0 0 1 329.1 246.2L306.9 247.3A56.9 56.9 0 0 0 305.3 236.6Z" fill="#000" stroke="white" stroke-linejoin="bevel" class="zr0-cls-16"></path>
<path d="M348.5 226.1A101.4 101.4 0 0 1 351.3 245.2L329.1 246.2A79.2 79.2 0 0 0 326.9 231.3Z" fill="#0AA40D" stroke="white" stroke-linejoin="bevel" class="zr0-cls-17"></path>
<path d="M329.1 246.2A79.2 79.2 0 0 1 328.4 261.3L306.4 258.1A56.9 56.9 0 0 0 306.9 247.3Z" fill="#000" stroke="white" stroke-linejoin="bevel" class="zr0-cls-18"></path>
<path d="M351.3 245.2A101.4 101.4 0 0 1 350.4 264.4L328.4 261.3A79.2 79.2 0 0 0 329.1 246.2Z" fill="#0AA40D" stroke="white" stroke-linejoin="bevel" class="zr0-cls-19"></path>
<path d="M328.4 261.3A79.2 79.2 0 0 1 324.8 275.9L303.8 268.6A56.9 56.9 0 0 0 306.4 258.1Z" fill="#000" stroke="white" stroke-linejoin="bevel" class="zr0-cls-20"></path>
<path d="M350.4 264.4A101.4 101.4 0 0 1 345.8 283.2L324.8 275.9A79.2 79.2 0 0 0 328.4 261.3Z" fill="#0AA40D" stroke="white" stroke-linejoin="bevel" class="zr0-cls-21"></path>
<path d="M324.8 275.9A79.2 79.2 0 0 1 318.6 289.6L299.3 278.5A56.9 56.9 0 0 0 303.8 268.6Z" fill="#000" stroke="white" stroke-linejoin="bevel" class="zr0-cls-22"></path>
<path d="M345.8 283.2A101.4 101.4 0 0 1 337.8 300.7L318.6 289.6A79.2 79.2 0 0 0 324.8 275.9Z" fill="#0AA40D" stroke="white" stroke-linejoin="bevel" class="zr0-cls-23"></path>
<path d="M318.6 289.6A79.2 79.2 0 0 1 309.8 301.8L293 287.3A56.9 56.9 0 0 0 299.3 278.5Z" fill="#000" stroke="white" stroke-linejoin="bevel" class="zr0-cls-24"></path>
<path d="M337.8 300.7A101.4 101.4 0 0 1 326.6 316.4L309.8 301.8A79.2 79.2 0 0 0 318.6 289.6Z" fill="#0AA40D" stroke="white" stroke-linejoin="bevel" class="zr0-cls-25"></path>
<path d="M309.8 301.8A79.2 79.2 0 0 1 298.9 312.2L285.2 294.8A56.9 56.9 0 0 0 293 287.3Z" fill="#000" stroke="white" stroke-linejoin="bevel" class="zr0-cls-26"></path>
<path d="M326.6 316.4A101.4 101.4 0 0 1 312.7 329.7L298.9 312.2A79.2 79.2 0 0 0 309.8 301.8Z" fill="#0AA40D" stroke="white" stroke-linejoin="bevel" class="zr0-cls-27"></path>
<path d="M298.9 312.2A79.2 79.2 0 0 1 286.3 320.4L276.1 300.6A56.9 56.9 0 0 0 285.2 294.8Z" fill="#000" stroke="white" stroke-linejoin="bevel" class="zr0-cls-28"></path>
<path d="M312.7 329.7A101.4 101.4 0 0 1 296.5 340.1L286.3 320.4A79.2 79.2 0 0 0 298.9 312.2Z" fill="#0AA40D" stroke="white" stroke-linejoin="bevel" class="zr0-cls-29"></path>
<path d="M286.3 320.4A79.2 79.2 0 0 1 272.3 326L266 304.6A56.9 56.9 0 0 0 276.1 300.6Z" fill="#000" stroke="white" stroke-linejoin="bevel" class="zr0-cls-30"></path>
<path d="M296.5 340.1A101.4 101.4 0 0 1 278.6 347.3L272.3 326A79.2 79.2 0 0 0 286.3 320.4Z" fill="#0AA40D" stroke="white" stroke-linejoin="bevel" class="zr0-cls-31"></path>
<path d="M272.3 326A79.2 79.2 0 0 1 257.5 328.8L255.4 306.7A56.9 56.9 0 0 0 266 304.6Z" fill="#000" stroke="white" stroke-linejoin="bevel" class="zr0-cls-32"></path>
<path d="M278.6 347.3A101.4 101.4 0 0 1 259.6 350.9L257.5 328.8A79.2 79.2 0 0 0 272.3 326Z" fill="#0AA40D" stroke="white" stroke-linejoin="bevel" class="zr0-cls-33"></path>
<path d="M257.5 328.8A79.2 79.2 0 0 1 242.5 328.8L244.6 306.7A56.9 56.9 0 0 0 255.4 306.7Z" fill="#000" stroke="white" stroke-linejoin="bevel" class="zr0-cls-34"></path>
<path d="M259.6 350.9A101.4 101.4 0 0 1 240.4 350.9L242.5 328.8A79.2 79.2 0 0 0 257.5 328.8Z" fill="#0AA40D" stroke="white" stroke-linejoin="bevel" class="zr0-cls-35"></path>
<path d="M242.5 328.8A79.2 79.2 0 0 1 227.7 326L234 304.6A56.9 56.9 0 0 0 244.6 306.7Z" fill="#000" stroke="white" stroke-linejoin="bevel" class="zr0-cls-36"></path>
<path d="M240.4 350.9A101.4 101.4 0 0 1 221.4 347.3L227.7 326A79.2 79.2 0 0 0 242.5 328.8Z" fill="#0AA40D" stroke="white" stroke-linejoin="bevel" class="zr0-cls-37"></path>
<path d="M227.7 326A79.2 79.2 0 0 1 213.7 320.4L223.9 300.6A56.9 56.9 0 0 0 234 304.6Z" fill="#000" stroke="white" stroke-linejoin="bevel" class="zr0-cls-38"></path>
<path d="M221.4 347.3A101.4 101.4 0 0 1 203.5 340.1L213.7 320.4A79.2 79.2 0 0 0 227.7 326Z" fill="#0AA40D" stroke="white" stroke-linejoin="bevel" class="zr0-cls-39"></path>
<path d="M213.7 320.4A79.2 79.2 0 0 1 201.1 312.2L214.8 294.8A56.9 56.9 0 0 0 223.9 300.6Z" fill="#000" stroke="white" stroke-linejoin="bevel" class="zr0-cls-40"></path>
<path d="M203.5 340.1A101.4 101.4 0 0 1 187.3 329.7L201.1 312.2A79.2 79.2 0 0 0 213.7 320.4Z" fill="#0AA40D" stroke="white" stroke-linejoin="bevel" class="zr0-cls-41"></path>
<path d="M201.1 312.2A79.2 79.2 0 0 1 190.2 301.8L207 287.3A56.9 56.9 0 0 0 214.8 294.8Z" fill="#000" stroke="white" stroke-linejoin="bevel" class="zr0-cls-42"></path>
<path d="M187.3 329.7A101.4 101.4 0 0 1 173.4 316.4L190.2 301.8A79.2 79.2 0 0 0 201.1 312.2Z" fill="#0AA40D" stroke="white" stroke-linejoin="bevel" class="zr0-cls-43"></path>
<path d="M207 287.3A56.9 56.9 0 0 1 193.1 247.3L215.3 248.3A34.7 34.7 0 0 0 223.8 272.7Z" fill="#ff4949" fill-opacity="0.5" stroke="#fff" stroke-width="4" stroke-opacity="0.5" stroke-linejoin="bevel" class="zr0-cls-44"></path>
<path d="M190.2 301.8A79.2 79.2 0 0 1 175.2 275.9L196.2 268.6A56.9 56.9 0 0 0 207 287.3Z" fill="#000" stroke="white" stroke-linejoin="bevel" class="zr0-cls-45"></path>
<path d="M173.4 316.4A101.4 101.4 0 0 1 162.2 300.7L181.4 289.6A79.2 79.2 0 0 0 190.2 301.8Z" fill="#0AA40D" stroke="white" stroke-linejoin="bevel" class="zr0-cls-46"></path>
<path d="M162.2 300.7A101.4 101.4 0 0 1 154.2 283.2L175.2 275.9A79.2 79.2 0 0 0 181.4 289.6Z" fill="#F3C142" stroke="white" stroke-linejoin="bevel" class="zr0-cls-47"></path>
<path d="M175.2 275.9A79.2 79.2 0 0 1 170.9 246.2L193.1 247.3A56.9 56.9 0 0 0 196.2 268.6Z" fill="#000" stroke="white" stroke-linejoin="bevel" class="zr0-cls-48"></path>
<path d="M154.2 283.2A101.4 101.4 0 0 1 149.6 264.4L171.6 261.3A79.2 79.2 0 0 0 175.2 275.9Z" fill="#FF0000" stroke="white" stroke-linejoin="bevel" class="zr0-cls-49"></path>
<path d="M149.6 264.4A101.4 101.4 0 0 1 148.7 245.2L170.9 246.2A79.2 79.2 0 0 0 171.6 261.3Z" fill="#0AA40D" stroke="white" stroke-linejoin="bevel" class="zr0-cls-50"></path>
<path d="M193.1 247.3A56.9 56.9 0 0 1 203.6 217L221.7 229.9A34.7 34.7 0 0 0 215.3 248.3Z" fill="#4949CD" fill-opacity="0.5" stroke="#fff" stroke-width="4" stroke-opacity="0.5" stroke-linejoin="bevel" class="zr0-cls-51"></path>
<path d="M170.9 246.2A79.2 79.2 0 0 1 185.5 204.1L203.6 217A56.9 56.9 0 0 0 193.1 247.3Z" fill="#000" stroke="white" stroke-linejoin="bevel" class="zr0-cls-52"></path>
<path d="M148.7 245.2A101.4 101.4 0 0 1 167.4 191.2L185.5 204.1A79.2 79.2 0 0 0 170.9 246.2Z" fill="#000" stroke="white" stroke-linejoin="bevel" class="zr0-cls-53"></path>
<path d="M126.5 244.1A123.6 123.6 0 0 1 149.3 178.3L167.4 191.2A101.4 101.4 0 0 0 148.7 245.2Z" fill="#4949CD" fill-opacity="0.5" stroke="#fff" stroke-width="4" stroke-opacity="0.5" stroke-linejoin="bevel" class="zr0-cls-54"></path>
<path d="M104.3 243.1A145.8 145.8 0 0 1 131.2 165.4L149.3 178.3A123.6 123.6 0 0 0 126.5 244.1Z" fill="#0AA40D" stroke="white" stroke-linejoin="bevel" class="zr0-cls-55"></path>
<path d="M82.1 242A168.1 168.1 0 0 1 97.1 180.2L117.3 189.4A145.8 145.8 0 0 0 104.3 243.1Z" fill="#C8C8C8" stroke="white" stroke-linejoin="bevel" class="zr0-cls-56"></path>
<path d="M59.9 240.9A190.3 190.3 0 0 1 65.1 205.1L86.7 210.4A168.1 168.1 0 0 0 82.1 242Z" fill="#49ff49" fill-opacity="0.5" stroke="#fff" stroke-width="4" stroke-opacity="0.5" stroke-linejoin="bevel" class="zr0-cls-57"></path>
<path d="M37.7 239.9A212.5 212.5 0 0 1 43.5 199.9L65.1 205.1A190.3 190.3 0 0 0 59.9 240.9Z" fill="#C8C8C8" stroke="white" stroke-linejoin="bevel" class="zr0-cls-58"></path>
<path d="M65.1 205.1A190.3 190.3 0 0 1 76.9 171L97.1 180.2A168.1 168.1 0 0 0 86.7 210.4Z" fill="#ff4949" fill-opacity="0.5" stroke="#fff" stroke-width="4" stroke-opacity="0.5" stroke-linejoin="bevel" class="zr0-cls-59"></path>
<path d="M43.5 199.9A212.5 212.5 0 0 1 56.7 161.7L76.9 171A190.3 190.3 0 0 0 65.1 205.1Z" fill="#C8C8C8" stroke="white" stroke-linejoin="bevel" class="zr0-cls-60"></path>
<path d="M97.1 180.2A168.1 168.1 0 0 1 113.1 152.5L131.2 165.4A145.8 145.8 0 0 0 117.3 189.4Z" fill="#C8C8C8" stroke="white" stroke-linejoin="bevel" class="zr0-cls-61"></path>
<path d="M221.7 229.9A34.7 34.7 0 0 1 250 215.3L250 237.5A12.5 12.5 0 0 0 239.8 242.7Z" fill="#C8C8C8" stroke="white" stroke-linejoin="bevel" class="zr0-cls-62"></path>
<path d="M203.6 217A56.9 56.9 0 0 1 210.7 208.8L226 224.9A34.7 34.7 0 0 0 221.7 229.9Z" fill="#C8C8C8" stroke="white" stroke-linejoin="bevel" class="zr0-cls-63"></path>
<path d="M210.7 208.8A56.9 56.9 0 0 1 219.2 202.1L231.2 220.8A34.7 34.7 0 0 0 226 224.9Z" fill="#C8C8C8" stroke="white" stroke-linejoin="bevel" class="zr0-cls-64"></path>
<path d="M219.2 202.1A56.9 56.9 0 0 1 228.8 197.1L237.1 217.8A34.7 34.7 0 0 0 231.2 220.8Z" fill="#C8C8C8" stroke="white" stroke-linejoin="bevel" class="zr0-cls-65"></path>
<path d="M228.8 197.1A56.9 56.9 0 0 1 239.2 194.1L243.4 215.9A34.7 34.7 0 0 0 237.1 217.8Z" fill="#C8C8C8" stroke="white" stroke-linejoin="bevel" class="zr0-cls-66"></path>
<path d="M220.6 176.5A79.2 79.2 0 0 1 235 172.3L239.2 194.1A56.9 56.9 0 0 0 228.8 197.1Z" fill="#ff4949" fill-opacity="0.5" stroke="#fff" stroke-width="4" stroke-opacity="0.5" stroke-linejoin="bevel" class="zr0-cls-67"></path>
<path d="M239.2 194.1A56.9 56.9 0 0 1 250 193.1L250 215.3A34.7 34.7 0 0 0 243.4 215.9Z" fill="#C8C8C8" stroke="white" stroke-linejoin="bevel" class="zr0-cls-68"></path>
<text dominant-baseline="central" text-anchor="middle" style="font-size:12px;font-family:sans-serif;" transform="matrix(0.889,-0.458,0.458,0.889,260.8192,270.9864)" fill="#ccc" stroke="#000" stroke-width="2" paint-order="stroke" stroke-miterlimit="2">paths</text>
<text dominant-baseline="central" text-anchor="middle" style="font-size:12px;font-family:sans-serif;" transform="matrix(0.5,0.866,-0.866,0.5,191.0622,284.0278)" fill="#ccc" stroke="#000" stroke-width="2" paint-order="stroke" stroke-miterlimit="2">/pets</text>
<text dominant-baseline="central" text-anchor="middle" style="font-size:12px;font-family:sans-serif;" transform="matrix(0.327,-0.945,0.945,0.327,185.6874,227.7412)" fill="#ccc" stroke="#000" stroke-width="2" paint-order="stroke" stroke-miterlimit="2">/audit</text>
<text dominant-baseline="central" text-anchor="middle" style="font-size:9px;font-family:sans-serif;" transform="matrix(0.327,-0.945,0.945,0.327,164.6874,220.473)" fill="#ccc" stroke="#000" stroke-width="2" paint-order="stroke" stroke-miterlimit="2">operations</text>
<text dominant-baseline="central" text-anchor="middle" style="font-size:12px;font-family:sans-serif;" transform="matrix(0.327,-0.945,0.945,0.327,122.6874,205.9367)" fill="#eee" stroke="#0AA40D" stroke-width="2" paint-order="stroke" stroke-miterlimit="2">GET</text>
<text dominant-baseline="central" text-anchor="middle" style="font-size:12px;font-family:sans-serif;" transform="matrix(0.236,-0.972,0.972,0.236,97.4796,212.9989)" fill="#333">tags</text>
<text dominant-baseline="central" text-anchor="middle" style="font-size:12px;font-family:sans-serif;" transform="matrix(0.889,-0.458,0.458,0.889,239.1808,229.0136)" fill="#333">info</text>
<path d="M-14.8 -16l66.6 0l0 32l-66.6 0Z" transform="translate(448.253 16)" fill="none" stroke="#ccc" stroke-width="0"></path>
<path d="M-7.3 -1.8L-0.1 4.8L7.3 -1.6M-7.3 4.3L-7.3 8.5L7.1 8.5L7.1 4.3M-0.1 4.7L-0.1 -8.5" transform="translate(448.253 16)" fill="none" stroke="#666"></path>
<path d="M-7.9 1M5.1 -3.4L8.1 -3.4L8.1 -6.4M8 -3C6.7 -6.4 3.2 -8.9 -1 -8.4C-5.3 -8 -8.6 -4.2 -8.4 0.2M-5.1 3.4L-8.1 3.4L-8.1 6.4M-8 3C-6.7 6.4 -3.2 8.9 1 8.4C5.3 8 8.6 4.2 8.4 -0.2" transform="translate(484.0476 16)" fill="none" stroke="#666"></path>
<style ><![CDATA[
.zr0-cls-0 {
animation:zr0-ani-0 1s cubic-bezier(0.65,0,0.35,1) both;
}
.zr0-cls-1 {
animation:zr0-ani-1 1s cubic-bezier(0.65,0,0.35,1) both;
}
.zr0-cls-2 {
animation:zr0-ani-2 1s cubic-bezier(0.65,0,0.35,1) both;
}
.zr0-cls-3 {
animation:zr0-ani-3 1s cubic-bezier(0.65,0,0.35,1) both;
}
.zr0-cls-4 {
animation:zr0-ani-4 1s cubic-bezier(0.65,0,0.35,1) both;
}
.zr0-cls-5 {
animation:zr0-ani-5 1s cubic-bezier(0.65,0,0.35,1) both;
}
.zr0-cls-6 {
animation:zr0-ani-6 1s cubic-bezier(0.65,0,0.35,1) both;
}
.zr0-cls-7 {
animation:zr0-ani-7 1s cubic-bezier(0.65,0,0.35,1) both;
}
.zr0-cls-8 {
animation:zr0-ani-8 1s cubic-bezier(0.65,0,0.35,1) both;
}
.zr0-cls-9 {
animation:zr0-ani-9 1s cubic-bezier(0.65,0,0.35,1) both;
}
.zr0-cls-10 {
animation:zr0-ani-10 1s cubic-bezier(0.65,0,0.35,1) both;
}
.zr0-cls-11 {
animation:zr0-ani-11 1s cubic-bezier(0.65,0,0.35,1) both;
}
.zr0-cls-12 {
animation:zr0-ani-12 1s cubic-bezier(0.65,0,0.35,1) both;
}
.zr0-cls-13 {
animation:zr0-ani-13 1s cubic-bezier(0.65,0,0.35,1) both;
}
.zr0-cls-14 {
animation:zr0-ani-14 1s cubic-bezier(0.65,0,0.35,1) both;
}
.zr0-cls-15 {
animation:zr0-ani-15 1s cubic-bezier(0.65,0,0.35,1) both;
}
.zr0-cls-16 {
animation:zr0-ani-16 1s cubic-bezier(0.65,0,0.35,1) both;
}
.zr0-cls-17 {
animation:zr0-ani-17 1s cubic-bezier(0.65,0,0.35,1) both;
}
.zr0-cls-18 {
animation:zr0-ani-18 1s cubic-bezier(0.65,0,0.35,1) both;
}
.zr0-cls-19 {
animation:zr0-ani-19 1s cubic-bezier(0.65,0,0.35,1) both;
}
.zr0-cls-20 {
animation:zr0-ani-20 1s cubic-bezier(0.65,0,0.35,1) both;
}
.zr0-cls-21 {
animation:zr0-ani-21 1s cubic-bezier(0.65,0,0.35,1) both;
}
.zr0-cls-22 {
animation:zr0-ani-22 1s cubic-bezier(0.65,0,0.35,1) both;
}
.zr0-cls-23 {
animation:zr0-ani-23 1s cubic-bezier(0.65,0,0.35,1) both;
}
.zr0-cls-24 {
animation:zr0-ani-24 1s cubic-bezier(0.65,0,0.35,1) both;
}
.zr0-cls-25 {
animation:zr0-ani-25 1s cubic-bezier(0.65,0,0.35,1) both;
}
.zr0-cls-26 {
animation:zr0-ani-26 1s cubic-bezier(0.65,0,0.35,1) both;
}
.zr0-cls-27 {
animation:zr0-ani-27 1s cubic-bezier(0.65,0,0.35,1) both;
}
.zr0-cls-28 {
animation:zr0-ani-28 1s cubic-bezier(0.65,0,0.35,1) both;
}
.zr0-cls-29 {
animation:zr0-ani-29 1s cubic-bezier(0.65,0,0.35,1) both;
}
.zr0-cls-30 {
animation:zr0-ani-30 1s cubic-bezier(0.65,0,0.35,1) both;
}
.zr0-cls-31 {
animation:zr0-ani-31 1s cubic-bezier(0.65,0,0.35,1) both;
}
.zr0-cls-32 {
animation:zr0-ani-32 1s cubic-bezier(0.65,0,0.35,1) both;
}
.zr0-cls-33 {
animation:zr0-ani-33 1s cubic-bezier(0.65,0,0.35,1) both;
}
.zr0-cls-34 {
animation:zr0-ani-34 1s cubic-bezier(0.65,0,0.35,1) both;
}
.zr0-cls-35 {
animation:zr0-ani-35 1s cubic-bezier(0.65,0,0.35,1) both;
}
.zr0-cls-36 {
animation:zr0-ani-36 1s cubic-bezier(0.65,0,0.35,1) both;
}
.zr0-cls-37 {
animation:zr0-ani-37 1s cubic-bezier(0.65,0,0.35,1) both;
}
.zr0-cls-38 {
animation:zr0-ani-38 1s cubic-bezier(0.65,0,0.35,1) both;
}
.zr0-cls-39 {
animation:zr0-ani-39 1s cubic-bezier(0.65,0,0.35,1) both;
}
.zr0-cls-40 {
animation:zr0-ani-40 1s cubic-bezier(0.65,0,0.35,1) both;
}
.zr0-cls-41 {
animation:zr0-ani-41 1s cubic-bezier(0.65,0,0.35,1) both;
}
.zr0-cls-42 {
animation:zr0-ani-42 1s cubic-bezier(0.65,0,0.35,1) both;
}
.zr0-cls-43 {
animation:zr0-ani-43 1s cubic-bezier(0.65,0,0.35,1) both;
}
.zr0-cls-44 {
animation:zr0-ani-44 1s cubic-bezier(0.65,0,0.35,1) both;
}
.zr0-cls-45 {
animation:zr0-ani-45 1s cubic-bezier(0.65,0,0.35,1) both;
}
.zr0-cls-46 {
animation:zr0-ani-46 1s cubic-bezier(0.65,0,0.35,1) both;
}
.zr0-cls-47 {
animation:zr0-ani-47 1s cubic-bezier(0.65,0,0.35,1) both;
}
.zr0-cls-48 {
animation:zr0-ani-48 1s cubic-bezier(0.65,0,0.35,1) both;
}
.zr0-cls-49 {
animation:zr0-ani-49 1s cubic-bezier(0.65,0,0.35,1) both;
}
.zr0-cls-50 {
animation:zr0-ani-50 1s cubic-bezier(0.65,0,0.35,1) both;
}
.zr0-cls-51 {
animation:zr0-ani-51 1s cubic-bezier(0.65,0,0.35,1) both;
}
.zr0-cls-52 {
animation:zr0-ani-52 1s cubic-bezier(0.65,0,0.35,1) both;
}
.zr0-cls-53 {
animation:zr0-ani-53 1s cubic-bezier(0.65,0,0.35,1) both;
}
.zr0-cls-54 {
animation:zr0-ani-54 1s cubic-bezier(0.65,0,0.35,1) both;
}
.zr0-cls-55 {
animation:zr0-ani-55 1s cubic-bezier(0.65,0,0.35,1) both;
}
.zr0-cls-56 {
animation:zr0-ani-56 1s cubic-bezier(0.65,0,0.35,1) both;
}
.zr0-cls-57 {
animation:zr0-ani-57 1s cubic-bezier(0.65,0,0.35,1) both;
}
.zr0-cls-58 {
animation:zr0-ani-58 1s cubic-bezier(0.65,0,0.35,1) both;
}
.zr0-cls-59 {
animation:zr0-ani-59 1s cubic-bezier(0.65,0,0.35,1) both;
}
.zr0-cls-60 {
animation:zr0-ani-60 1s cubic-bezier(0.65,0,0.35,1) both;
}
.zr0-cls-61 {
animation:zr0-ani-61 1s cubic-bezier(0.65,0,0.35,1) both;
}
.zr0-cls-62 {
animation:zr0-ani-62 1s cubic-bezier(0.65,0,0.35,1) both;
}
.zr0-cls-63 {
animation:zr0-ani-63 1s cubic-bezier(0.65,0,0.35,1) both;
}
.zr0-cls-64 {
animation:zr0-ani-64 1s cubic-bezier(0.65,0,0.35,1) both;
}
.zr0-cls-65 {
animation:zr0-ani-65 1s cubic-bezier(0.65,0,0.35,1) both;
}
.zr0-cls-66 {
animation:zr0-ani-66 1s cubic-bezier(0.65,0,0.35,1) both;
}
.zr0-cls-67 {
animation:zr0-ani-67 1s cubic-bezier(0.65,0,0.35,1) both;
}
.zr0-cls-68 {
animation:zr0-ani-68 1s cubic-bezier(0.65,0,0.35,1) both;
}
@keyframes zr0-ani-0 {
0% {
d:path("M250 237.5A12.5 12.5 0 1 1 239.8 242.7A12.5 12.5 0 1 0 250 237.5Z");
}
100% {
d:path("M250 215.3A34.7 34.7 0 1 1 221.7 229.9L239.8 242.7A12.5 12.5 0 1 0 250 237.5Z");
}
}
@keyframes zr0-ani-1 {
0% {
d:path("M250 215.3A34.7 34.7 0 1 1 223.8 272.7L223.8 272.7A34.7 34.7 0 1 0 250 215.3Z");
}
100% {
d:path("M250 193.1A56.9 56.9 0 1 1 207 287.3L223.8 272.7A34.7 34.7 0 1 0 250 215.3Z");
}
}
@keyframes zr0-ani-2 {
0% {
d:path("M250 193.1A56.9 56.9 0 0 1 260.8 194.1A56.9 56.9 0 0 0 250 193.1Z");
}
100% {
d:path("M250 170.8A79.2 79.2 0 0 1 265 172.3L260.8 194.1A56.9 56.9 0 0 0 250 193.1Z");
}
}
@keyframes zr0-ani-3 {
0% {
d:path("M250 170.8A79.2 79.2 0 0 1 265 172.3A79.2 79.2 0 0 0 250 170.8Z");
}
100% {
d:path("M250 148.6A101.4 101.4 0 0 1 269.2 150.4L265 172.3A79.2 79.2 0 0 0 250 170.8Z");
}
}
@keyframes zr0-ani-4 {
0% {
d:path("M260.8 194.1A56.9 56.9 0 0 1 271.2 197.1L271.2 197.1A56.9 56.9 0 0 0 260.8 194.1Z");
}
100% {
d:path("M265 172.3A79.2 79.2 0 0 1 279.4 176.5L271.2 197.1A56.9 56.9 0 0 0 260.8 194.1Z");
}
}
@keyframes zr0-ani-5 {
0% {
d:path("M265 172.3A79.2 79.2 0 0 1 279.4 176.5L279.4 176.5A79.2 79.2 0 0 0 265 172.3Z");
}
100% {
d:path("M269.2 150.4A101.4 101.4 0 0 1 287.7 155.9L279.4 176.5A79.2 79.2 0 0 0 265 172.3Z");
}
}
@keyframes zr0-ani-6 {
0% {
d:path("M271.2 197.1A56.9 56.9 0 0 1 280.8 202.1L280.8 202.1A56.9 56.9 0 0 0 271.2 197.1Z");
}
100% {
d:path("M279.4 176.5A79.2 79.2 0 0 1 292.8 183.4L280.8 202.1A56.9 56.9 0 0 0 271.2 197.1Z");
}
}
@keyframes zr0-ani-7 {
0% {
d:path("M279.4 176.5A79.2 79.2 0 0 1 292.8 183.4L292.8 183.4A79.2 79.2 0 0 0 279.4 176.5Z");
}
100% {
d:path("M287.7 155.9A101.4 101.4 0 0 1 304.8 164.7L292.8 183.4A79.2 79.2 0 0 0 279.4 176.5Z");
}
}
@keyframes zr0-ani-8 {
0% {
d:path("M280.8 202.1A56.9 56.9 0 0 1 289.3 208.8L289.3 208.8A56.9 56.9 0 0 0 280.8 202.1Z");
}
100% {
d:path("M292.8 183.4A79.2 79.2 0 0 1 304.6 192.7L289.3 208.8A56.9 56.9 0 0 0 280.8 202.1Z");
}
}
@keyframes zr0-ani-9 {
0% {
d:path("M292.8 183.4A79.2 79.2 0 0 1 304.6 192.7L304.6 192.7A79.2 79.2 0 0 0 292.8 183.4Z");
}
100% {
d:path("M304.8 164.7A101.4 101.4 0 0 1 320 176.6L304.6 192.7A79.2 79.2 0 0 0 292.8 183.4Z");
}
}
@keyframes zr0-ani-10 {
0% {
d:path("M289.3 208.8A56.9 56.9 0 0 1 296.4 217L296.4 217A56.9 56.9 0 0 0 289.3 208.8Z");
}
100% {
d:path("M304.6 192.7A79.2 79.2 0 0 1 314.5 204.1L296.4 217A56.9 56.9 0 0 0 289.3 208.8Z");
}
}
@keyframes zr0-ani-11 {
0% {
d:path("M304.6 192.7A79.2 79.2 0 0 1 314.5 204.1L314.5 204.1A79.2 79.2 0 0 0 304.6 192.7Z");
}
100% {
d:path("M320 176.6A101.4 101.4 0 0 1 332.6 191.2L314.5 204.1A79.2 79.2 0 0 0 304.6 192.7Z");
}
}
@keyframes zr0-ani-12 {
0% {
d:path("M296.4 217A56.9 56.9 0 0 1 301.8 226.3L301.8 226.3A56.9 56.9 0 0 0 296.4 217Z");
}
100% {
d:path("M314.5 204.1A79.2 79.2 0 0 1 322 217.1L301.8 226.3A56.9 56.9 0 0 0 296.4 217Z");
}
}
@keyframes zr0-ani-13 {
0% {
d:path("M314.5 204.1A79.2 79.2 0 0 1 322 217.1L322 217.1A79.2 79.2 0 0 0 314.5 204.1Z");
}
100% {
d:path("M332.6 191.2A101.4 101.4 0 0 1 342.2 207.9L322 217.1A79.2 79.2 0 0 0 314.5 204.1Z");
}
}
@keyframes zr0-ani-14 {
0% {
d:path("M301.8 226.3A56.9 56.9 0 0 1 305.3 236.6L305.3 236.6A56.9 56.9 0 0 0 301.8 226.3Z");
}
100% {
d:path("M322 217.1A79.2 79.2 0 0 1 326.9 231.3L305.3 236.6A56.9 56.9 0 0 0 301.8 226.3Z");
}
}
@keyframes zr0-ani-15 {
0% {
d:path("M322 217.1A79.2 79.2 0 0 1 326.9 231.3L326.9 231.3A79.2 79.2 0 0 0 322 217.1Z");
}
100% {
d:path("M342.2 207.9A101.4 101.4 0 0 1 348.5 226.1L326.9 231.3A79.2 79.2 0 0 0 322 217.1Z");
}
}
@keyframes zr0-ani-16 {
0% {
d:path("M305.3 236.6A56.9 56.9 0 0 1 306.9 247.3L306.9 247.3A56.9 56.9 0 0 0 305.3 236.6Z");
}
100% {
d:path("M326.9 231.3A79.2 79.2 0 0 1 329.1 246.2L306.9 247.3A56.9 56.9 0 0 0 305.3 236.6Z");
}
}
@keyframes zr0-ani-17 {
0% {
d:path("M326.9 231.3A79.2 79.2 0 0 1 329.1 246.2L329.1 246.2A79.2 79.2 0 0 0 326.9 231.3Z");
}
100% {
d:path("M348.5 226.1A101.4 101.4 0 0 1 351.3 245.2L329.1 246.2A79.2 79.2 0 0 0 326.9 231.3Z");
}
}
@keyframes zr0-ani-18 {
0% {
d:path("M306.9 247.3A56.9 56.9 0 0 1 306.4 258.1L306.4 258.1A56.9 56.9 0 0 0 306.9 247.3Z");
}
100% {
d:path("M329.1 246.2A79.2 79.2 0 0 1 328.4 261.3L306.4 258.1A56.9 56.9 0 0 0 306.9 247.3Z");
}
}
@keyframes zr0-ani-19 {
0% {
d:path("M329.1 246.2A79.2 79.2 0 0 1 328.4 261.3L328.4 261.3A79.2 79.2 0 0 0 329.1 246.2Z");
}
100% {
d:path("M351.3 245.2A101.4 101.4 0 0 1 350.4 264.4L328.4 261.3A79.2 79.2 0 0 0 329.1 246.2Z");
}
}
@keyframes zr0-ani-20 {
0% {
d:path("M306.4 258.1A56.9 56.9 0 0 1 303.8 268.6L303.8 268.6A56.9 56.9 0 0 0 306.4 258.1Z");
}
100% {
d:path("M328.4 261.3A79.2 79.2 0 0 1 324.8 275.9L303.8 268.6A56.9 56.9 0 0 0 306.4 258.1Z");
}
}
@keyframes zr0-ani-21 {
0% {
d:path("M328.4 261.3A79.2 79.2 0 0 1 324.8 275.9L324.8 275.9A79.2 79.2 0 0 0 328.4 261.3Z");
}
100% {
d:path("M350.4 264.4A101.4 101.4 0 0 1 345.8 283.2L324.8 275.9A79.2 79.2 0 0 0 328.4 261.3Z");
}
}
@keyframes zr0-ani-22 {
0% {
d:path("M303.8 268.6A56.9 56.9 0 0 1 299.3 278.5L299.3 278.5A56.9 56.9 0 0 0 303.8 268.6Z");
}
100% {
d:path("M324.8 275.9A79.2 79.2 0 0 1 318.6 289.6L299.3 278.5A56.9 56.9 0 0 0 303.8 268.6Z");
}
}
@keyframes zr0-ani-23 {
0% {
d:path("M324.8 275.9A79.2 79.2 0 0 1 318.6 289.6L318.6 289.6A79.2 79.2 0 0 0 324.8 275.9Z");
}
100% {
d:path("M345.8 283.2A101.4 101.4 0 0 1 337.8 300.7L318.6 289.6A79.2 79.2 0 0 0 324.8 275.9Z");
}
}
@keyframes zr0-ani-24 {
0% {
d:path("M299.3 278.5A56.9 56.9 0 0 1 293 287.3L293 287.3A56.9 56.9 0 0 0 299.3 278.5Z");
}
100% {
d:path("M318.6 289.6A79.2 79.2 0 0 1 309.8 301.8L293 287.3A56.9 56.9 0 0 0 299.3 278.5Z");
}
}
@keyframes zr0-ani-25 {
0% {
d:path("M318.6 289.6A79.2 79.2 0 0 1 309.8 301.8L309.8 301.8A79.2 79.2 0 0 0 318.6 289.6Z");
}
100% {
d:path("M337.8 300.7A101.4 101.4 0 0 1 326.6 316.4L309.8 301.8A79.2 79.2 0 0 0 318.6 289.6Z");
}
}
@keyframes zr0-ani-26 {
0% {
d:path("M293 287.3A56.9 56.9 0 0 1 285.2 294.8L285.2 294.8A56.9 56.9 0 0 0 293 287.3Z");
}
100% {
d:path("M309.8 301.8A79.2 79.2 0 0 1 298.9 312.2L285.2 294.8A56.9 56.9 0 0 0 293 287.3Z");
}
}
@keyframes zr0-ani-27 {
0% {
d:path("M309.8 301.8A79.2 79.2 0 0 1 298.9 312.2L298.9 312.2A79.2 79.2 0 0 0 309.8 301.8Z");
}
100% {
d:path("M326.6 316.4A101.4 101.4 0 0 1 312.7 329.7L298.9 312.2A79.2 79.2 0 0 0 309.8 301.8Z");
}
}
@keyframes zr0-ani-28 {
0% {
d:path("M285.2 294.8A56.9 56.9 0 0 1 276.1 300.6L276.1 300.6A56.9 56.9 0 0 0 285.2 294.8Z");
}
100% {
d:path("M298.9 312.2A79.2 79.2 0 0 1 286.3 320.4L276.1 300.6A56.9 56.9 0 0 0 285.2 294.8Z");
}
}
@keyframes zr0-ani-29 {
0% {
d:path("M298.9 312.2A79.2 79.2 0 0 1 286.3 320.4L286.3 320.4A79.2 79.2 0 0 0 298.9 312.2Z");
}
100% {
d:path("M312.7 329.7A101.4 101.4 0 0 1 296.5 340.1L286.3 320.4A79.2 79.2 0 0 0 298.9 312.2Z");
}
}
@keyframes zr0-ani-30 {
0% {
d:path("M276.1 300.6A56.9 56.9 0 0 1 266 304.6L266 304.6A56.9 56.9 0 0 0 276.1 300.6Z");
}
100% {
d:path("M286.3 320.4A79.2 79.2 0 0 1 272.3 326L266 304.6A56.9 56.9 0 0 0 276.1 300.6Z");
}
}
@keyframes zr0-ani-31 {
0% {
d:path("M286.3 320.4A79.2 79.2 0 0 1 272.3 326L272.3 326A79.2 79.2 0 0 0 286.3 320.4Z");
}
100% {
d:path("M296.5 340.1A101.4 101.4 0 0 1 278.6 347.3L272.3 326A79.2 79.2 0 0 0 286.3 320.4Z");
}
}
@keyframes zr0-ani-32 {
0% {
d:path("M266 304.6A56.9 56.9 0 0 1 255.4 306.7L255.4 306.7A56.9 56.9 0 0 0 266 304.6Z");
}
100% {
d:path("M272.3 326A79.2 79.2 0 0 1 257.5 328.8L255.4 306.7A56.9 56.9 0 0 0 266 304.6Z");
}
}
@keyframes zr0-ani-33 {
0% {
d:path("M272.3 326A79.2 79.2 0 0 1 257.5 328.8L257.5 328.8A79.2 79.2 0 0 0 272.3 326Z");
}
100% {
d:path("M278.6 347.3A101.4 101.4 0 0 1 259.6 350.9L257.5 328.8A79.2 79.2 0 0 0 272.3 326Z");
}
}
@keyframes zr0-ani-34 {
0% {
d:path("M255.4 306.7A56.9 56.9 0 0 1 244.6 306.7L244.6 306.7A56.9 56.9 0 0 0 255.4 306.7Z");
}
100% {
d:path("M257.5 328.8A79.2 79.2 0 0 1 242.5 328.8L244.6 306.7A56.9 56.9 0 0 0 255.4 306.7Z");
}
}
@keyframes zr0-ani-35 {
0% {
d:path("M257.5 328.8A79.2 79.2 0 0 1 242.5 328.8L242.5 328.8A79.2 79.2 0 0 0 257.5 328.8Z");
}
100% {
d:path("M259.6 350.9A101.4 101.4 0 0 1 240.4 350.9L242.5 328.8A79.2 79.2 0 0 0 257.5 328.8Z");
}
}
@keyframes zr0-ani-36 {
0% {
d:path("M244.6 306.7A56.9 56.9 0 0 1 234 304.6L234 304.6A56.9 56.9 0 0 0 244.6 306.7Z");
}
100% {
d:path("M242.5 328.8A79.2 79.2 0 0 1 227.7 326L234 304.6A56.9 56.9 0 0 0 244.6 306.7Z");
}
}
@keyframes zr0-ani-37 {
0% {
d:path("M242.5 328.8A79.2 79.2 0 0 1 227.7 326L227.7 326A79.2 79.2 0 0 0 242.5 328.8Z");
}
100% {
d:path("M240.4 350.9A101.4 101.4 0 0 1 221.4 347.3L227.7 326A79.2 79.2 0 0 0 242.5 328.8Z");
}
}
@keyframes zr0-ani-38 {
0% {
d:path("M234 304.6A56.9 56.9 0 0 1 223.9 300.6L223.9 300.6A56.9 56.9 0 0 0 234 304.6Z");
}
100% {
d:path("M227.7 326A79.2 79.2 0 0 1 213.7 320.4L223.9 300.6A56.9 56.9 0 0 0 234 304.6Z");
}
}
@keyframes zr0-ani-39 {
0% {
d:path("M227.7 326A79.2 79.2 0 0 1 213.7 320.4L213.7 320.4A79.2 79.2 0 0 0 227.7 326Z");
}
100% {
d:path("M221.4 347.3A101.4 101.4 0 0 1 203.5 340.1L213.7 320.4A79.2 79.2 0 0 0 227.7 326Z");
}
}
@keyframes zr0-ani-40 {
0% {
d:path("M223.9 300.6A56.9 56.9 0 0 1 214.8 294.8L214.8 294.8A56.9 56.9 0 0 0 223.9 300.6Z");
}
100% {
d:path("M213.7 320.4A79.2 79.2 0 0 1 201.1 312.2L214.8 294.8A56.9 56.9 0 0 0 223.9 300.6Z");
}
}
@keyframes zr0-ani-41 {
0% {
d:path("M213.7 320.4A79.2 79.2 0 0 1 201.1 312.2L201.1 312.2A79.2 79.2 0 0 0 213.7 320.4Z");
}
100% {
d:path("M203.5 340.1A101.4 101.4 0 0 1 187.3 329.7L201.1 312.2A79.2 79.2 0 0 0 213.7 320.4Z");
}
}
@keyframes zr0-ani-42 {
0% {
d:path("M214.8 294.8A56.9 56.9 0 0 1 207 287.3L207 287.3A56.9 56.9 0 0 0 214.8 294.8Z");
}
100% {
d:path("M201.1 312.2A79.2 79.2 0 0 1 190.2 301.8L207 287.3A56.9 56.9 0 0 0 214.8 294.8Z");
}
}
@keyframes zr0-ani-43 {
0% {
d:path("M201.1 312.2A79.2 79.2 0 0 1 190.2 301.8L190.2 301.8A79.2 79.2 0 0 0 201.1 312.2Z");
}
100% {
d:path("M187.3 329.7A101.4 101.4 0 0 1 173.4 316.4L190.2 301.8A79.2 79.2 0 0 0 201.1 312.2Z");
}
}
@keyframes zr0-ani-44 {
0% {
d:path("M223.8 272.7A34.7 34.7 0 0 1 215.3 248.3L215.3 248.3A34.7 34.7 0 0 0 223.8 272.7Z");
}
100% {
d:path("M207 287.3A56.9 56.9 0 0 1 193.1 247.3L215.3 248.3A34.7 34.7 0 0 0 223.8 272.7Z");
}
}
@keyframes zr0-ani-45 {
0% {
d:path("M207 287.3A56.9 56.9 0 0 1 196.2 268.6L196.2 268.6A56.9 56.9 0 0 0 207 287.3Z");
}
100% {
d:path("M190.2 301.8A79.2 79.2 0 0 1 175.2 275.9L196.2 268.6A56.9 56.9 0 0 0 207 287.3Z");
}
}
@keyframes zr0-ani-46 {
0% {
d:path("M190.2 301.8A79.2 79.2 0 0 1 181.4 289.6L181.4 289.6A79.2 79.2 0 0 0 190.2 301.8Z");
}
100% {
d:path("M173.4 316.4A101.4 101.4 0 0 1 162.2 300.7L181.4 289.6A79.2 79.2 0 0 0 190.2 301.8Z");
}
}
@keyframes zr0-ani-47 {
0% {
d:path("M181.4 289.6A79.2 79.2 0 0 1 175.2 275.9L175.2 275.9A79.2 79.2 0 0 0 181.4 289.6Z");
}
100% {
d:path("M162.2 300.7A101.4 101.4 0 0 1 154.2 283.2L175.2 275.9A79.2 79.2 0 0 0 181.4 289.6Z");
}
}
@keyframes zr0-ani-48 {
0% {
d:path("M196.2 268.6A56.9 56.9 0 0 1 193.1 247.3L193.1 247.3A56.9 56.9 0 0 0 196.2 268.6Z");
}
100% {
d:path("M175.2 275.9A79.2 79.2 0 0 1 170.9 246.2L193.1 247.3A56.9 56.9 0 0 0 196.2 268.6Z");
}
}
@keyframes zr0-ani-49 {
0% {
d:path("M175.2 275.9A79.2 79.2 0 0 1 171.6 261.3L171.6 261.3A79.2 79.2 0 0 0 175.2 275.9Z");
}
100% {
d:path("M154.2 283.2A101.4 101.4 0 0 1 149.6 264.4L171.6 261.3A79.2 79.2 0 0 0 175.2 275.9Z");
}
}
@keyframes zr0-ani-50 {
0% {
d:path("M171.6 261.3A79.2 79.2 0 0 1 170.9 246.2L170.9 246.2A79.2 79.2 0 0 0 171.6 261.3Z");
}
100% {
d:path("M149.6 264.4A101.4 101.4 0 0 1 148.7 245.2L170.9 246.2A79.2 79.2 0 0 0 171.6 261.3Z");
}
}
@keyframes zr0-ani-51 {
0% {
d:path("M215.3 248.3A34.7 34.7 0 0 1 221.7 229.9L221.7 229.9A34.7 34.7 0 0 0 215.3 248.3Z");
}
100% {
d:path("M193.1 247.3A56.9 56.9 0 0 1 203.6 217L221.7 229.9A34.7 34.7 0 0 0 215.3 248.3Z");
}
}
@keyframes zr0-ani-52 {
0% {
d:path("M193.1 247.3A56.9 56.9 0 0 1 203.6 217L203.6 217A56.9 56.9 0 0 0 193.1 247.3Z");
}
100% {
d:path("M170.9 246.2A79.2 79.2 0 0 1 185.5 204.1L203.6 217A56.9 56.9 0 0 0 193.1 247.3Z");
}
}
@keyframes zr0-ani-53 {
0% {
d:path("M170.9 246.2A79.2 79.2 0 0 1 185.5 204.1L185.5 204.1A79.2 79.2 0 0 0 170.9 246.2Z");
}
100% {
d:path("M148.7 245.2A101.4 101.4 0 0 1 167.4 191.2L185.5 204.1A79.2 79.2 0 0 0 170.9 246.2Z");
}
}
@keyframes zr0-ani-54 {
0% {
d:path("M148.7 245.2A101.4 101.4 0 0 1 167.4 191.2L167.4 191.2A101.4 101.4 0 0 0 148.7 245.2Z");
}
100% {
d:path("M126.5 244.1A123.6 123.6 0 0 1 149.3 178.3L167.4 191.2A101.4 101.4 0 0 0 148.7 245.2Z");
}
}
@keyframes zr0-ani-55 {
0% {
d:path("M126.5 244.1A123.6 123.6 0 0 1 149.3 178.3L149.3 178.3A123.6 123.6 0 0 0 126.5 244.1Z");
}
100% {
d:path("M104.3 243.1A145.8 145.8 0 0 1 131.2 165.4L149.3 178.3A123.6 123.6 0 0 0 126.5 244.1Z");
}
}
@keyframes zr0-ani-56 {
0% {
d:path("M104.3 243.1A145.8 145.8 0 0 1 117.3 189.4L117.3 189.4A145.8 145.8 0 0 0 104.3 243.1Z");
}
100% {
d:path("M82.1 242A168.1 168.1 0 0 1 97.1 180.2L117.3 189.4A145.8 145.8 0 0 0 104.3 243.1Z");
}
}
@keyframes zr0-ani-57 {
0% {
d:path("M82.1 242A168.1 168.1 0 0 1 86.7 210.4L86.7 210.4A168.1 168.1 0 0 0 82.1 242Z");
}
100% {
d:path("M59.9 240.9A190.3 190.3 0 0 1 65.1 205.1L86.7 210.4A168.1 168.1 0 0 0 82.1 242Z");
}
}
@keyframes zr0-ani-58 {
0% {
d:path("M59.9 240.9A190.3 190.3 0 0 1 65.1 205.1L65.1 205.1A190.3 190.3 0 0 0 59.9 240.9Z");
}
100% {
d:path("M37.7 239.9A212.5 212.5 0 0 1 43.5 199.9L65.1 205.1A190.3 190.3 0 0 0 59.9 240.9Z");
}
}
@keyframes zr0-ani-59 {
0% {
d:path("M86.7 210.4A168.1 168.1 0 0 1 97.1 180.2L97.1 180.2A168.1 168.1 0 0 0 86.7 210.4Z");
}
100% {
d:path("M65.1 205.1A190.3 190.3 0 0 1 76.9 171L97.1 180.2A168.1 168.1 0 0 0 86.7 210.4Z");
}
}
@keyframes zr0-ani-60 {
0% {
d:path("M65.1 205.1A190.3 190.3 0 0 1 76.9 171L76.9 171A190.3 190.3 0 0 0 65.1 205.1Z");
}
100% {
d:path("M43.5 199.9A212.5 212.5 0 0 1 56.7 161.7L76.9 171A190.3 190.3 0 0 0 65.1 205.1Z");
}
}
@keyframes zr0-ani-61 {
0% {
d:path("M117.3 189.4A145.8 145.8 0 0 1 131.2 165.4L131.2 165.4A145.8 145.8 0 0 0 117.3 189.4Z");
}
100% {
d:path("M97.1 180.2A168.1 168.1 0 0 1 113.1 152.5L131.2 165.4A145.8 145.8 0 0 0 117.3 189.4Z");
}
}
@keyframes zr0-ani-62 {
0% {
d:path("M239.8 242.7A12.5 12.5 0 0 1 250 237.5L250 237.5A12.5 12.5 0 0 0 239.8 242.7Z");
}
100% {
d:path("M221.7 229.9A34.7 34.7 0 0 1 250 215.3L250 237.5A12.5 12.5 0 0 0 239.8 242.7Z");
}
}
@keyframes zr0-ani-63 {
0% {
d:path("M221.7 229.9A34.7 34.7 0 0 1 226 224.9L226 224.9A34.7 34.7 0 0 0 221.7 229.9Z");
}
100% {
d:path("M203.6 217A56.9 56.9 0 0 1 210.7 208.8L226 224.9A34.7 34.7 0 0 0 221.7 229.9Z");
}
}
@keyframes zr0-ani-64 {
0% {
d:path("M226 224.9A34.7 34.7 0 0 1 231.2 220.8L231.2 220.8A34.7 34.7 0 0 0 226 224.9Z");
}
100% {
d:path("M210.7 208.8A56.9 56.9 0 0 1 219.2 202.1L231.2 220.8A34.7 34.7 0 0 0 226 224.9Z");
}
}
@keyframes zr0-ani-65 {
0% {
d:path("M231.2 220.8A34.7 34.7 0 0 1 237.1 217.8L237.1 217.8A34.7 34.7 0 0 0 231.2 220.8Z");
}
100% {
d:path("M219.2 202.1A56.9 56.9 0 0 1 228.8 197.1L237.1 217.8A34.7 34.7 0 0 0 231.2 220.8Z");
}
}
@keyframes zr0-ani-66 {
0% {
d:path("M237.1 217.8A34.7 34.7 0 0 1 243.4 215.9L243.4 215.9A34.7 34.7 0 0 0 237.1 217.8Z");
}
100% {
d:path("M228.8 197.1A56.9 56.9 0 0 1 239.2 194.1L243.4 215.9A34.7 34.7 0 0 0 237.1 217.8Z");
}
}
@keyframes zr0-ani-67 {
0% {
d:path("M228.8 197.1A56.9 56.9 0 0 1 239.2 194.1L239.2 194.1A56.9 56.9 0 0 0 228.8 197.1Z");
}
100% {
d:path("M220.6 176.5A79.2 79.2 0 0 1 235 172.3L239.2 194.1A56.9 56.9 0 0 0 228.8 197.1Z");
}
}
@keyframes zr0-ani-68 {
0% {
d:path("M243.4 215.9A34.7 34.7 0 0 1 250 215.3L250 215.3A34.7 34.7 0 0 0 243.4 215.9Z");
}
100% {
d:path("M239.2 194.1A56.9 56.9 0 0 1 250 193.1L250 215.3A34.7 34.7 0 0 0 243.4 215.9Z");
}
}
]]>

</style>
</svg>