<svg width="500" height="500" xmlns="http://www.w3.org/2000/svg" xmlns:xlink="http://www.w3.org/1999/xlink" version="1.1" baseProfile="full" viewBox="0 0 500 500">
<rect width="500" height="500" x="0" y="0" id="0" fill="none"></rect>
<path d="M250 217.5A32.5 32.5 0 1 1 227.5 226.6L241.3 241A12.5 12.5 0 1 0 250 237.5Z" fill="#C8C8C8" stroke="white" stroke-linejoin="bevel" class="zr18-cls-0"></path>
<path d="M250 197.5A52.5 52.5 0 1 1 200.6 232.3L219.4 239A32.5 32.5 0 1 0 250 217.5Z" fill="#C8C8C8" stroke="white" stroke-linejoin="bevel" class="zr18-cls-1"></path>
<path d="M200.6 232.3A52.5 52.5 0 0 1 208.2 218.2L224.2 230.3A32.5 32.5 0 0 0 219.4 239Z" fill="#C8C8C8" stroke="white" stroke-linejoin="bevel" class="zr18-cls-2"></path>
<path d="M208.2 218.2A52.5 52.5 0 0 1 213.6 212.2L227.5 226.6A32.5 32.5 0 0 0 224.2 230.3Z" fill="#C8C8C8" stroke="white" stroke-linejoin="bevel" class="zr18-cls-3"></path>
<path d="M192.3 206A72.5 72.5 0 0 1 199.7 197.8L213.6 212.2A52.5 52.5 0 0 0 208.2 218.2Z" fill="#ff4949" fill-opacity="0.5" stroke="#fff" stroke-width="4" stroke-opacity="0.5" stroke-linejoin="bevel" class="zr18-cls-4"></path>
<path d="M227.5 226.6A32.5 32.5 0 0 1 250 217.5L250 237.5A12.5 12.5 0 0 0 241.3 241Z" fill="#000" stroke="white" stroke-linejoin="bevel" class="zr18-cls-5"></path>
<path d="M213.6 212.2A52.5 52.5 0 0 1 226.7 203L235.6 220.9A32.5 32.5 0 0 0 227.5 226.6Z" fill="#49ff49" fill-opacity="0.5" stroke="#fff" stroke-width="4" stroke-opacity="0.5" stroke-linejoin="bevel" class="zr18-cls-6"></path>
<path d="M199.7 197.8A72.5 72.5 0 0 1 208.3 190.7L219.8 207.1A52.5 52.5 0 0 0 213.6 212.2Z" fill="#000" stroke="white" stroke-linejoin="bevel" class="zr18-cls-7"></path>
<path d="M185.9 183.4A92.5 92.5 0 0 1 196.8 174.3L208.3 190.7A72.5 72.5 0 0 0 199.7 197.8Z" fill="#F3C142" stroke="white" stroke-linejoin="bevel" class="zr18-cls-8"></path>
<path d="M208.3 190.7A72.5 72.5 0 0 1 217.8 185L226.7 203A52.5 52.5 0 0 0 219.8 207.1Z" fill="#000" stroke="white" stroke-linejoin="bevel" class="zr18-cls-9"></path>
<path d="M196.8 174.3A92.5 92.5 0 0 1 209 167.1L217.8 185A72.5 72.5 0 0 0 208.3 190.7Z" fill="#0AA40D" stroke="white" stroke-linejoin="bevel" class="zr18-cls-10"></path>
<path d="M226.7 203A52.5 52.5 0 0 1 242 198.1L245 217.9A32.5 32.5 0 0 0 235.6 220.9Z" fill="#ff4949" fill-opacity="0.5" stroke="#fff" stroke-width="4" stroke-opacity="0.5" stroke-linejoin="bevel" class="zr18-cls-11"></path>
<path d="M217.8 185A72.5 72.5 0 0 1 228.1 180.9L234.2 199.9A52.5 52.5 0 0 0 226.7 203Z" fill="#000" stroke="white" stroke-linejoin="bevel" class="zr18-cls-12"></path>
<path d="M209 167.1A92.5 92.5 0 0 1 222.1 161.8L228.1 180.9A72.5 72.5 0 0 0 217.8 185Z" fill="#F3C142" stroke="white" stroke-linejoin="bevel" class="zr18-cls-13"></path>
<path d="M228.1 180.9A72.5 72.5 0 0 1 238.9 178.3L242 198.1A52.5 52.5 0 0 0 234.2 199.9Z" fill="#000" stroke="white" stroke-linejoin="bevel" class="zr18-cls-14"></path>
<path d="M222.1 161.8A92.5 92.5 0 0 1 235.9 158.6L238.9 178.3A72.5 72.5 0 0 0 228.1 180.9Z" fill="#0AA40D" stroke="white" stroke-linejoin="bevel" class="zr18-cls-15"></path>
<path d="M242 198.1A52.5 52.5 0 0 1 250 197.5L250 217.5A32.5 32.5 0 0 0 245 217.9Z" fill="#4949CD" fill-opacity="0.5" stroke="#fff" stroke-width="4" stroke-opacity="0.5" stroke-linejoin="bevel" class="zr18-cls-16"></path>
<path d="M238.9 178.3A72.5 72.5 0 0 1 250 177.5L250 197.5A52.5 52.5 0 0 0 242 198.1Z" fill="#000" stroke="white" stroke-linejoin="bevel" class="zr18-cls-17"></path>
<path d="M235.9 158.6A92.5 92.5 0 0 1 250 157.5L250 177.5A72.5 72.5 0 0 0 238.9 178.3Z" fill="#000" stroke="white" stroke-linejoin="bevel" class="zr18-cls-18"></path>
<path d="M232.8 138.8A112.5 112.5 0 0 1 250 137.5L250 157.5A92.5 92.5 0 0 0 235.9 158.6Z" fill="#4949CD" fill-opacity="0.5" stroke="#fff" stroke-width="4" stroke-opacity="0.5" stroke-linejoin="bevel" class="zr18-cls-19"></path>
<path d="M229.8 119.1A132.5 132.5 0 0 1 250 117.5L250 137.5A112.5 112.5 0 0 0 232.8 138.8Z" fill="#0AA40D" stroke="white" stroke-linejoin="bevel" class="zr18-cls-20"></path>
<path d="M226.7 99.3A152.5 152.5 0 0 1 250 97.5L250 117.5A132.5 132.5 0 0 0 229.8 119.1Z" fill="#000" stroke="white" stroke-linejoin="bevel" class="zr18-cls-21"></path>
<path d="M223.7 79.5A172.5 172.5 0 0 1 250 77.5L250 97.5A152.5 152.5 0 0 0 226.7 99.3Z" fill="#ff4949" fill-opacity="0.5" stroke="#fff" stroke-width="4" stroke-opacity="0.5" stroke-linejoin="bevel" class="zr18-cls-22"></path>
<path d="M220.6 59.8A192.5 192.5 0 0 1 250 57.5L250 77.5A172.5 172.5 0 0 0 223.7 79.5Z" fill="#000" stroke="white" stroke-linejoin="bevel" class="zr18-cls-23"></path>
<path d="M217.6 40A212.5 212.5 0 0 1 250 37.5L250 57.5A192.5 192.5 0 0 0 220.6 59.8Z" fill="#000" stroke="white" stroke-linejoin="bevel" class="zr18-cls-24"></path>
<text dominant-baseline="central" text-anchor="middle" style="font-size:12px;font-family:sans-serif;" transform="matrix(0.928,-0.374,0.374,0.928,258.4109,270.8688)" fill="#333">info</text>
<text dominant-baseline="central" text-anchor="middle" style="font-size:10px;font-family:sans-serif;" transform="matrix(0.818,-0.575,0.575,0.818,274.451,284.762)" fill="#333">version</text>
<text dominant-baseline="central" text-anchor="middle" style="font-size:9px;font-family:sans-serif;" transform="matrix(0.478,-0.879,0.879,0.478,212.6632,229.6969)" fill="#333">description</text>
<text dominant-baseline="central" text-anchor="middle" style="font-size:12px;font-family:sans-serif;" transform="matrix(0.928,-0.374,0.374,0.928,241.5891,229.1312)" fill="#ccc" stroke="#000" stroke-width="2" paint-order="stroke" stroke-miterlimit="2">paths</text>
<path d="M-14.8 -16l66.6 0l0 32l-66.6 0Z" transform="translate(448.253 16)" fill="none" stroke="#ccc" stroke-width="0"></path>
<path d="M-7.3 -1.8L-0.1 4.8L7.3 -1.6M-7.3 4.3L-7.3 8.5L7.1 8.5L7.1 4.3M-0.1 4.7L-0.1 -8.5" transform="translate(448.253 16)" fill="none" stroke="#666"></path>
<path d="M-7.9 1M5.1 -3.4L8.1 -3.4L8.1 -6.4M8 -3C6.7 -6.4 3.2 -8.9 -1 -8.4C-5.3 -8 -8.6 -4.2 -8.4 0.2M-5.1 3.4L-8.1 3.4L-8.1 6.4M-8 3C-6.7 6.4 -3.2 8.9 1 8.4C5.3 8 8.6 4.2 8.4 -0.2" transform="translate(484.0476 16)" fill="none" stroke="#666"></path>
<style ><![CDATA[
.zr18-cls-0 {
animation:zr18-ani-0 1s cubic-bezier(0.65,0,0.35,1) both;
}
.zr18-cls-1 {
animation:zr18-ani-1 1s cubic-bezier(0.65,0,0.35,1) both;
}
.zr18-cls-2 {
animation:zr18-ani-2 1s cubic-bezier(0.65,0,0.35,1) both;
}
.zr18-cls-3 {
animation:zr18-ani-3 1s cubic-bezier(0.65,0,0.35,1) both;
}
.zr18-cls-4 {
animation:zr18-ani-4 1s cubic-bezier(0.65,0,0.35,1) both;
}
.zr18-cls-5 {
animation:zr18-ani-5 1s cubic-bezier(0.65,0,0.35,1) both;
}
.zr18-cls-6 {
animation:zr18-ani-6 1s cubic-bezier(0.65,0,0.35,1) both;
}
.zr18-cls-7 {
animation:zr18-ani-7 1s cubic-bezier(0.65,0,0.35,1) both;
}
.zr18-cls-8 {
animation:zr18-ani-8 1s cubic-bezier(0.65,0,0.35,1) both;
}
.zr18-cls-9 {
animation:zr18-ani-9 1s cubic-bezier(0.65,0,0.35,1) both;
}
.zr18-cls-10 {
animation:zr18-ani-10 1s cubic-bezier(0.65,0,0.35,1) both;
}
.zr18-cls-11 {
animation:zr18-ani-11 1s cubic-bezier(0.65,0,0.35,1) both;
}
.zr18-cls-12 {
animation:zr18-ani-12 1s cubic-bezier(0.65,0,0.35,1) both;
}
.zr18-cls-13 {
animation:zr18-ani-13 1s cubic-bezier(0.65,0,0.35,1) both;
}
.zr18-cls-14 {
animation:zr18-ani-14 1s cubic-bezier(0.65,0,0.35,1) both;
}
.zr18-cls-15 {
animation:zr18-ani-15 1s cubic-bezier(0.65,0,0.35,1) both;
}
.zr18-cls-16 {
animation:zr18-ani-16 1s cubic-bezier(0.65,0,0.35,1) both;
}
.zr18-cls-17 {
animation:zr18-ani-17 1s cubic-bezier(0.65,0,0.35,1) both;
}
.zr18-cls-18 {
animation:zr18-ani-18 1s cubic-bezier(0.65,0,0.35,1) both;
}
.zr18-cls-19 {
animation:zr18-ani-19 1s cubic-bezier(0.65,0,0.35,1) both;
}
.zr18-cls-20 {
animation:zr18-ani-20 1s cubic-bezier(0.65,0,0.35,1) both;
}
.zr18-cls-21 {
animation:zr18-ani-21 1s cubic-bezier(0.65,0,0.35,1) both;
}
.zr18-cls-22 {
animation:zr18-ani-22 1s cubic-bezier(0.65,0,0.35,1) both;
}
.zr18-cls-23 {
animation:zr18-ani-23 1s cubic-bezier(0.65,0,0.35,1) both;
}
.zr18-cls-24 {
animation:zr18-ani-24 1s cubic-bezier(0.65,0,0.35,1) both;
}
@keyframes zr18-ani-0 {
0% {
d:path("M250 237.5A12.5 12.5 0 1 1 241.3 241L241.3 241A12.5 12.5 0 1 0 250 237.5Z");
}
100% {
d:path("M250 217.5A32.5 32.5 0 1 1 227.5 226.6L241.3 241A12.5 12.5 0 1 0 250 237.5Z");
}
}
@keyframes zr18-ani-1 {
0% {
d:path("M250 217.5A32.5 32.5 0 1 1 219.4 239L219.4 239A32.5 32.5 0 1 0 250 217.5Z");
}
100% {
d:path("M250 197.5A52.5 52.5 0 1 1 200.6 232.3L219.4 239A32.5 32.5 0 1 0 250 217.5Z");
}
}
@keyframes zr18-ani-2 {
0% {
d:path("M219.4 239A32.5 32.5 0 0 1 224.2 230.3L224.2 230.3A32.5 32.5 0 0 0 219.4 239Z");
}
100% {
d:path("M200.6 232.3A52.5 52.5 0 0 1 208.2 218.2L224.2 230.3A32.5 32.5 0 0 0 219.4 239Z");
}
}
@keyframes zr18-ani-3 {
0% {
d:path("M224.2 230.3A32.5 32.5 0 0 1 227.5 226.6L227.5 226.6A32.5 32.5 0 0 0 224.2 230.3Z");
}
100% {
d:path("M208.2 218.2A52.5 52.5 0 0 1 213.6 212.2L227.5 226.6A32.5 32.5 0 0 0 224.2 230.3Z");
}
}
@keyframes zr18-ani-4 {
0% {
d:path("M208.2 218.2A52.5 52.5 0 0 1 213.6 212.2L213.6 212.2A52.5 52.5 0 0 0 208.2 218.2Z");
}
100% {
d:path("M192.3 206A72.5 72.5 0 0 1 199.7 197.8L213.6 212.2A52.5 52.5 0 0 0 208.2 218.2Z");
}
}
@keyframes zr18-ani-5 {
0% {
d:path("M241.3 241A12.5 12.5 0 0 1 250 237.5L250 237.5A12.5 12.5 0 0 0 241.3 241Z");
}
100% {
d:path("M227.5 226.6A32.5 32.5 0 0 1 250 217.5L250 237.5A12.5 12.5 0 0 0 241.3 241Z");
}
}
@keyframes zr18-ani-6 {
0% {
d:path("M227.5 226.6A32.5 32.5 0 0 1 235.6 220.9L235.6 220.9A32.5 32.5 0 0 0 227.5 226.6Z");
}
100% {
d:path("M213.6 212.2A52.5 52.5 0 0 1 226.7 203L235.6 220.9A32.5 32.5 0 0 0 227.5 226.6Z");
}
}
@keyframes zr18-ani-7 {
0% {
d:path("M213.6 212.2A52.5 52.5 0 0 1 219.8 207.1L219.8 207.1A52.5 52.5 0 0 0 213.6 212.2Z");
}
100% {
d:path("M199.7 197.8A72.5 72.5 0 0 1 208.3 190.7L219.8 207.1A52.5 52.5 0 0 0 213.6 212.2Z");
}
}
@keyframes zr18-ani-8 {
0% {
d:path("M199.7 197.8A72.5 72.5 0 0 1 208.3 190.7L208.3 190.7A72.5 72.5 0 0 0 199.7 197.8Z");
}
100% {
d:path("M185.9 183.4A92.5 92.5 0 0 1 196.8 174.3L208.3 190.7A72.5 72.5 0 0 0 199.7 197.8Z");
}
}
@keyframes zr18-ani-9 {
0% {
d:path("M219.8 207.1A52.5 52.5 0 0 1 226.7 203L226.7 203A52.5 52.5 0 0 0 219.8 207.1Z");
}
100% {
d:path("M208.3 190.7A72.5 72.5 0 0 1 217.8 185L226.7 203A52.5 52.5 0 0 0 219.8 207.1Z");
}
}
@keyframes zr18-ani-10 {
0% {
d:path("M208.3 190.7A72.5 72.5 0 0 1 217.8 185L217.8 185A72.5 72.5 0 0 0 208.3 190.7Z");
}
100% {
d:path("M196.8 174.3A92.5 92.5 0 0 1 209 167.1L217.8 185A72.5 72.5 0 0 0 208.3 190.7Z");
}
}
@keyframes zr18-ani-11 {
0% {
d:path("M235.6 220.9A32.5 32.5 0 0 1 245 217.9L245 217.9A32.5 32.5 0 0 0 235.6 220.9Z");
}
100% {
d:path("M226.7 203A52.5 52.5 0 0 1 242 198.1L245 217.9A32.5 32.5 0 0 0 235.6 220.9Z");
}
}
@keyframes zr18-ani-12 {
0% {
d:path("M226.7 203A52.5 52.5 0 0 1 234.2 199.9L234.2 199.9A52.5 52.5 0 0 0 226.7 203Z");
}
100% {
d:path("M217.8 185A72.5 72.5 0 0 1 228.1 180.9L234.2 199.9A52.5 52.5 0 0 0 226.7 203Z");
}
}
@keyframes zr18-ani-13 {
0% {
d:path("M217.8 185A72.5 72.5 0 0 1 228.1 180.9L228.1 180.9A72.5 72.5 0 0 0 217.8 185Z");
}
100% {
d:path("M209 167.1A92.5 92.5 0 0 1 222.1 161.8L228.1 180.9A72.5 72.5 0 0 0 217.8 185Z");
}
}
@keyframes zr18-ani-14 {
0% {
d:path("M234.2 199.9A52.5 52.5 0 0 1 242 198.1L242 198.1A52.5 52.5 0 0 0 234.2 199.9Z");
}
100% {
d:path("M228.1 180.9A72.5 72.5 0 0 1 238.9 178.3L242 198.1A52.5 52.5 0 0 0 234.2 199.9Z");
}
}
@keyframes zr18-ani-15 {
0% {
d:path("M228.1 180.9A72.5 72.5 0 0 1 238.9 178.3L238.9 178.3A72.5 72.5 0 0 0 228.1 180.9Z");
}
100% {
d:path("M222.1 161.8A92.5 92.5 0 0 1 235.9 158.6L238.9 178.3A72.5 72.5 0 0 0 228.1 180.9Z");
}
}
@keyframes zr18-ani-16 {
0% {
d:path("M245 217.9A32.5 32.5 0 0 1 250 217.5L250 217.5A32.5 32.5 0 0 0 245 217.9Z");
}
100% {
d:path("M242 198.1A52.5 52.5 0 0 1 250 197.5L250 217.5A32.5 32.5 0 0 0 245 217.9Z");
}
}
@keyframes zr18-ani-17 {
0% {
d:path("M242 198.1A52.5 52.5 0 0 1 250 197.5L250 197.5A52.5 52.5 0 0 0 242 198.1Z");
}
100% {
d:path("M238.9 178.3A72.5 72.5 0 0 1 250 177.5L250 197.5A52.5 52.5 0 0 0 242 198.1Z");
}
}
@keyframes zr18-ani-18 {
0% {
d:path("M238.9 178.3A72.5 72.5 0 0 1 250 177.5L250 177.5A72.5 72.5 0 0 0 238.9 178.3Z");
}
100% {
d:path("M235.9 158.6A92.5 92.5 0 0 1 250 157.5L250 177.5A72.5 72.5 0 0 0 238.9 178.3Z");
}
}
@keyframes zr18-ani-19 {
0% {
d:path("M235.9 158.6A92.5 92.5 0 0 1 250 157.5L250 157.5A92.5 92.5 0 0 0 235.9 158.6Z");
}
100% {
d:path("M232.8 138.8A112.5 112.5 0 0 1 250 137.5L250 157.5A92.5 92.5 0 0 0 235.9 158.6Z");
}
}
@keyframes zr18-ani-20 {
0% {
d:path("M232.8 138.8A112.5 112.5 0 0 1 250 137.5L250 137.5A112.5 112.5 0 0 0 232.8 138.8Z");
}
100% {
d:path("M229.8 119.1A132.5 132.5 0 0 1 250 117.5L250 137.5A112.5 112.5 0 0 0 232.8 138.8Z");
}
}
@keyframes zr18-ani-21 {
0% {
d:path("M229.8 119.1A132.5 132.5 0 0 1 250 117.5L250 117.5A132.5 132.5 0 0 0 229.8 119.1Z");
}
100% {
d:path("M226.7 99.3A152.5 152.5 0 0 1 250 97.5L250 117.5A132.5 132.5 0 0 0 229.8 119.1Z");
}
}
@keyframes zr18-ani-22 {
0% {
d:path("M226.7 99.3A152.5 152.5 0 0 1 250 97.5L250 97.5A152.5 152.5 0 0 0 226.7 99.3Z");
}
100% {
d:path("M223.7 79.5A172.5 172.5 0 0 1 250 77.5L250 97.5A152.5 152.5 0 0 0 226.7 99.3Z");
}
}
@keyframes zr18-ani-23 {
0% {
d:path("M223.7 79.5A172.5 172.5 0 0 1 250 77.5L250 77.5A172.5 172.5 0 0 0 223.7 79.5Z");
}
100% {
d:path("M220.6 59.8A192.5 192.5 0 0 1 250 57.5L250 77.5A172.5 172.5 0 0 0 223.7 79.5Z");
}
}
@keyframes zr18-ani-24 {
0% {
d:path("M220.6 59.8A192.5 192.5 0 0 1 250 57.5L250 57.5A192.5 192.5 0 0 0 220.6 59.8Z");
}
100% {
d:path("M217.6 40A212.5 212.5 0 0 1 250 37.5L250 57.5A192.5 192.5 0 0 0 220.6 59.8Z");
}
}
]]>

</style>
</svg>