<svg width="500" height="500" xmlns="http://www.w3.org/2000/svg" xmlns:xlink="http://www.w3.org/1999/xlink" version="1.1" baseProfile="full" viewBox="0 0 500 500">
<rect width="500" height="500" x="0" y="0" id="0" fill="none"></rect>
<path d="M250 217.5A32.5 32.5 0 1 1 238.9 219.5L245.7 238.3A12.5 12.5 0 1 0 250 237.5Z" fill="#000" stroke="white" stroke-linejoin="bevel" class="zr106-cls-0"></path>
<path d="M250 197.5A52.5 52.5 0 0 1 276.3 295.5L266.3 278.1A32.5 32.5 0 0 0 250 217.5Z" fill="#49ff49" fill-opacity="0.5" stroke="#fff" stroke-width="4" stroke-opacity="0.5" stroke-linejoin="bevel" class="zr106-cls-1"></path>
<path d="M250 177.5A72.5 72.5 0 0 1 262.6 178.6L259.1 198.3A52.5 52.5 0 0 0 250 197.5Z" fill="#000" stroke="white" stroke-linejoin="bevel" class="zr106-cls-2"></path>
<path d="M250 157.5A92.5 92.5 0 0 1 266.1 158.9L262.6 178.6A72.5 72.5 0 0 0 250 177.5Z" fill="#0AA40D" stroke="white" stroke-linejoin="bevel" class="zr106-cls-3"></path>
<path d="M262.6 178.6A72.5 72.5 0 0 1 274.8 181.9L268 200.7A52.5 52.5 0 0 0 259.1 198.3Z" fill="#000" stroke="white" stroke-linejoin="bevel" class="zr106-cls-4"></path>
<path d="M266.1 158.9A92.5 92.5 0 0 1 281.6 163.1L274.8 181.9A72.5 72.5 0 0 0 262.6 178.6Z" fill="#0AA40D" stroke="white" stroke-linejoin="bevel" class="zr106-cls-5"></path>
<path d="M274.8 181.9A72.5 72.5 0 0 1 286.2 187.2L276.3 204.5A52.5 52.5 0 0 0 268 200.7Z" fill="#000" stroke="white" stroke-linejoin="bevel" class="zr106-cls-6"></path>
<path d="M281.6 163.1A92.5 92.5 0 0 1 296.2 169.9L286.3 187.2A72.5 72.5 0 0 0 274.8 181.9Z" fill="#0AA40D" stroke="white" stroke-linejoin="bevel" class="zr106-cls-7"></path>
<path d="M286.3 187.2A72.5 72.5 0 0 1 296.6 194.5L283.7 209.8A52.5 52.5 0 0 0 276.2 204.5Z" fill="#000" stroke="white" stroke-linejoin="bevel" class="zr106-cls-8"></path>
<path d="M296.3 169.9A92.5 92.5 0 0 1 309.5 179.1L296.6 194.5A72.5 72.5 0 0 0 286.2 187.2Z" fill="#0AA40D" stroke="white" stroke-linejoin="bevel" class="zr106-cls-9"></path>
<path d="M296.6 194.5A72.5 72.5 0 0 1 305.5 203.4L290.2 216.3A52.5 52.5 0 0 0 283.7 209.8Z" fill="#000" stroke="white" stroke-linejoin="bevel" class="zr106-cls-10"></path>
<path d="M309.5 179.1A92.5 92.5 0 0 1 320.9 190.5L305.5 203.4A72.5 72.5 0 0 0 296.6 194.5Z" fill="#0AA40D" stroke="white" stroke-linejoin="bevel" class="zr106-cls-11"></path>
<path d="M305.5 203.4A72.5 72.5 0 0 1 312.8 213.8L295.5 223.8A52.5 52.5 0 0 0 290.2 216.3Z" fill="#000" stroke="white" stroke-linejoin="bevel" class="zr106-cls-12"></path>
<path d="M320.9 190.5A92.5 92.5 0 0 1 330.1 203.8L312.8 213.8A72.5 72.5 0 0 0 305.5 203.4Z" fill="#0AA40D" stroke="white" stroke-linejoin="bevel" class="zr106-cls-13"></path>
<path d="M312.8 213.8A72.5 72.5 0 0 1 318.1 225.2L299.3 232A52.5 52.5 0 0 0 295.5 223.8Z" fill="#000" stroke="white" stroke-linejoin="bevel" class="zr106-cls-14"></path>
<path d="M330.1 203.8A92.5 92.5 0 0 1 336.9 218.4L318.1 225.2A72.5 72.5 0 0 0 312.8 213.8Z" fill="#0AA40D" stroke="white" stroke-linejoin="bevel" class="zr106-cls-15"></path>
<path d="M318.1 225.2A72.5 72.5 0 0 1 321.4 237.4L301.7 240.9A52.5 52.5 0 0 0 299.3 232Z" fill="#000" stroke="white" stroke-linejoin="bevel" class="zr106-cls-16"></path>
<path d="M336.9 218.4A92.5 92.5 0 0 1 341.1 233.9L321.4 237.4A72.5 72.5 0 0 0 318.1 225.2Z" fill="#0AA40D" stroke="white" stroke-linejoin="bevel" class="zr106-cls-17"></path>
<path d="M321.4 237.4A72.5 72.5 0 0 1 322.5 250L302.5 250A52.5 52.5 0 0 0 301.7 240.9Z" fill="#000" stroke="white" stroke-linejoin="bevel" class="zr106-cls-18"></path>
<path d="M341.1 233.9A92.5 92.5 0 0 1 342.5 250L322.5 250A72.5 72.5 0 0 0 321.4 237.4Z" fill="#0AA40D" stroke="white" stroke-linejoin="bevel" class="zr106-cls-19"></path>
<path d="M322.5 250A72.5 72.5 0 0 1 321.4 262.6L301.7 259.1A52.5 52.5 0 0 0 302.5 250Z" fill="#000" stroke="white" stroke-linejoin="bevel" class="zr106-cls-20"></path>
<path d="M342.5 250A92.5 92.5 0 0 1 341.1 266.1L321.4 262.6A72.5 72.5 0 0 0 322.5 250Z" fill="#0AA40D" stroke="white" stroke-linejoin="bevel" class="zr106-cls-21"></path>
<path d="M321.4 262.6A72.5 72.5 0 0 1 318.1 274.8L299.3 268A52.5 52.5 0 0 0 301.7 259.1Z" fill="#000" stroke="white" stroke-linejoin="bevel" class="zr106-cls-22"></path>
<path d="M341.1 266.1A92.5 92.5 0 0 1 336.9 281.6L318.1 274.8A72.5 72.5 0 0 0 321.4 262.6Z" fill="#0AA40D" stroke="white" stroke-linejoin="bevel" class="zr106-cls-23"></path>
<path d="M318.1 274.8A72.5 72.5 0 0 1 312.8 286.2L295.5 276.3A52.5 52.5 0 0 0 299.3 268Z" fill="#000" stroke="white" stroke-linejoin="bevel" class="zr106-cls-24"></path>
<path d="M336.9 281.6A92.5 92.5 0 0 1 330.1 296.2L312.8 286.3A72.5 72.5 0 0 0 318.1 274.8Z" fill="#0AA40D" stroke="white" stroke-linejoin="bevel" class="zr106-cls-25"></path>
<path d="M312.8 286.3A72.5 72.5 0 0 1 305.5 296.6L290.2 283.7A52.5 52.5 0 0 0 295.5 276.2Z" fill="#000" stroke="white" stroke-linejoin="bevel" class="zr106-cls-26"></path>
<path d="M330.1 296.3A92.5 92.5 0 0 1 320.9 309.5L305.5 296.6A72.5 72.5 0 0 0 312.8 286.2Z" fill="#0AA40D" stroke="white" stroke-linejoin="bevel" class="zr106-cls-27"></path>
<path d="M305.5 296.6A72.5 72.5 0 0 1 296.6 305.5L283.7 290.2A52.5 52.5 0 0 0 290.2 283.7Z" fill="#000" stroke="white" stroke-linejoin="bevel" class="zr106-cls-28"></path>
<path d="M320.9 309.5A92.5 92.5 0 0 1 309.5 320.9L296.6 305.5A72.5 72.5 0 0 0 305.5 296.6Z" fill="#0AA40D" stroke="white" stroke-linejoin="bevel" class="zr106-cls-29"></path>
<path d="M296.6 305.5A72.5 72.5 0 0 1 286.2 312.8L276.3 295.5A52.5 52.5 0 0 0 283.7 290.2Z" fill="#000" stroke="white" stroke-linejoin="bevel" class="zr106-cls-30"></path>
<path d="M309.5 320.9A92.5 92.5 0 0 1 296.2 330.1L286.3 312.8A72.5 72.5 0 0 0 296.6 305.5Z" fill="#0AA40D" stroke="white" stroke-linejoin="bevel" class="zr106-cls-31"></path>
<path d="M276.3 295.5A52.5 52.5 0 0 1 198.3 240.9L218 244.4A32.5 32.5 0 0 0 266.2 278.1Z" fill="#ff4949" fill-opacity="0.5" stroke="#fff" stroke-width="4" stroke-opacity="0.5" stroke-linejoin="bevel" class="zr106-cls-32"></path>
<path d="M286.3 312.8A72.5 72.5 0 0 1 274.8 318.1L268 299.3A52.5 52.5 0 0 0 276.2 295.5Z" fill="#000" stroke="white" stroke-linejoin="bevel" class="zr106-cls-33"></path>
<path d="M296.3 330.1A92.5 92.5 0 0 1 281.6 336.9L274.8 318.1A72.5 72.5 0 0 0 286.2 312.8Z" fill="#0AA40D" stroke="white" stroke-linejoin="bevel" class="zr106-cls-34"></path>
<path d="M274.8 318.1A72.5 72.5 0 0 1 262.6 321.4L259.1 301.7A52.5 52.5 0 0 0 268 299.3Z" fill="#000" stroke="white" stroke-linejoin="bevel" class="zr106-cls-35"></path>
<path d="M281.6 336.9A92.5 92.5 0 0 1 266.1 341.1L262.6 321.4A72.5 72.5 0 0 0 274.8 318.1Z" fill="#0AA40D" stroke="white" stroke-linejoin="bevel" class="zr106-cls-36"></path>
<path d="M262.6 321.4A72.5 72.5 0 0 1 250 322.5L250 302.5A52.5 52.5 0 0 0 259.1 301.7Z" fill="#000" stroke="white" stroke-linejoin="bevel" class="zr106-cls-37"></path>
<path d="M266.1 341.1A92.5 92.5 0 0 1 250 342.5L250 322.5A72.5 72.5 0 0 0 262.6 321.4Z" fill="#0AA40D" stroke="white" stroke-linejoin="bevel" class="zr106-cls-38"></path>
<path d="M250 322.5A72.5 72.5 0 0 1 237.4 321.4L240.9 301.7A52.5 52.5 0 0 0 250 302.5Z" fill="#000" stroke="white" stroke-linejoin="bevel" class="zr106-cls-39"></path>
<path d="M250 342.5A92.5 92.5 0 0 1 233.9 341.1L237.4 321.4A72.5 72.5 0 0 0 250 322.5Z" fill="#0AA40D" stroke="white" stroke-linejoin="bevel" class="zr106-cls-40"></path>
<path d="M237.4 321.4A72.5 72.5 0 0 1 225.2 318.1L232 299.3A52.5 52.5 0 0 0 240.9 301.7Z" fill="#000" stroke="white" stroke-linejoin="bevel" class="zr106-cls-41"></path>
<path d="M233.9 341.1A92.5 92.5 0 0 1 218.4 336.9L225.2 318.1A72.5 72.5 0 0 0 237.4 321.4Z" fill="#0AA40D" stroke="white" stroke-linejoin="bevel" class="zr106-cls-42"></path>
<path d="M225.2 318.1A72.5 72.5 0 0 1 213.8 312.8L223.8 295.5A52.5 52.5 0 0 0 232 299.3Z" fill="#000" stroke="white" stroke-linejoin="bevel" class="zr106-cls-43"></path>
<path d="M218.4 336.9A92.5 92.5 0 0 1 203.8 330.1L213.8 312.8A72.5 72.5 0 0 0 225.2 318.1Z" fill="#0AA40D" stroke="white" stroke-linejoin="bevel" class="zr106-cls-44"></path>
<path d="M213.8 312.8A72.5 72.5 0 0 1 203.4 305.5L216.3 290.2A52.5 52.5 0 0 0 223.8 295.5Z" fill="#000" stroke="white" stroke-linejoin="bevel" class="zr106-cls-45"></path>
<path d="M203.7 330.1A92.5 92.5 0 0 1 190.5 320.9L203.4 305.5A72.5 72.5 0 0 0 213.8 312.8Z" fill="#0AA40D" stroke="white" stroke-linejoin="bevel" class="zr106-cls-46"></path>
<path d="M203.4 305.5A72.5 72.5 0 0 1 194.5 296.6L209.8 283.7A52.5 52.5 0 0 0 216.3 290.2Z" fill="#000" stroke="white" stroke-linejoin="bevel" class="zr106-cls-47"></path>
<path d="M190.5 320.9A92.5 92.5 0 0 1 179.1 309.5L194.5 296.6A72.5 72.5 0 0 0 203.4 305.5Z" fill="#0AA40D" stroke="white" stroke-linejoin="bevel" class="zr106-cls-48"></path>
<path d="M194.5 296.6A72.5 72.5 0 0 1 187.2 286.2L204.5 276.3A52.5 52.5 0 0 0 209.8 283.7Z" fill="#000" stroke="white" stroke-linejoin="bevel" class="zr106-cls-49"></path>
<path d="M179.1 309.5A92.5 92.5 0 0 1 169.9 296.2L187.2 286.3A72.5 72.5 0 0 0 194.5 296.6Z" fill="#0AA40D" stroke="white" stroke-linejoin="bevel" class="zr106-cls-50"></path>
<path d="M187.2 286.3A72.5 72.5 0 0 1 181.9 274.8L200.7 268A52.5 52.5 0 0 0 204.5 276.2Z" fill="#000" stroke="white" stroke-linejoin="bevel" class="zr106-cls-51"></path>
<path d="M169.9 296.3A92.5 92.5 0 0 1 163.1 281.6L181.9 274.8A72.5 72.5 0 0 0 187.2 286.2Z" fill="#0AA40D" stroke="white" stroke-linejoin="bevel" class="zr106-cls-52"></path>
<path d="M181.9 274.8A72.5 72.5 0 0 1 178.6 262.6L198.3 259.1A52.5 52.5 0 0 0 200.7 268Z" fill="#000" stroke="white" stroke-linejoin="bevel" class="zr106-cls-53"></path>
<path d="M163.1 281.6A92.5 92.5 0 0 1 158.9 266.1L178.6 262.6A72.5 72.5 0 0 0 181.9 274.8Z" fill="#0AA40D" stroke="white" stroke-linejoin="bevel" class="zr106-cls-54"></path>
<path d="M178.6 262.6A72.5 72.5 0 0 1 177.5 250L197.5 250A52.5 52.5 0 0 0 198.3 259.1Z" fill="#000" stroke="white" stroke-linejoin="bevel" class="zr106-cls-55"></path>
<path d="M158.9 266.1A92.5 92.5 0 0 1 157.5 250L177.5 250A72.5 72.5 0 0 0 178.6 262.6Z" fill="#0AA40D" stroke="white" stroke-linejoin="bevel" class="zr106-cls-56"></path>
<path d="M177.5 250A72.5 72.5 0 0 1 178.6 237.4L198.3 240.9A52.5 52.5 0 0 0 197.5 250Z" fill="#000" stroke="white" stroke-linejoin="bevel" class="zr106-cls-57"></path>
<path d="M157.5 250A92.5 92.5 0 0 1 158.9 233.9L178.6 237.4A72.5 72.5 0 0 0 177.5 250Z" fill="#0AA40D" stroke="white" stroke-linejoin="bevel" class="zr106-cls-58"></path>
<path d="M198.3 240.9A52.5 52.5 0 0 1 232 200.7L238.9 219.5A32.5 32.5 0 0 0 218 244.4Z" fill="#4949CD" fill-opacity="0.5" stroke="#fff" stroke-width="4" stroke-opacity="0.5" stroke-linejoin="bevel" class="zr106-cls-59"></path>
<path d="M178.6 237.4A72.5 72.5 0 0 1 187.2 213.7L204.5 223.8A52.5 52.5 0 0 0 198.3 240.9Z" fill="#000" stroke="white" stroke-linejoin="bevel" class="zr106-cls-60"></path>
<path d="M158.9 233.9A92.5 92.5 0 0 1 169.9 203.7L187.2 213.8A72.5 72.5 0 0 0 178.6 237.4Z" fill="#000" stroke="white" stroke-linejoin="bevel" class="zr106-cls-61"></path>
<path d="M139.2 230.5A112.5 112.5 0 0 1 152.6 193.7L169.9 203.8A92.5 92.5 0 0 0 158.9 233.9Z" fill="#4949CD" fill-opacity="0.5" stroke="#fff" stroke-width="4" stroke-opacity="0.5" stroke-linejoin="bevel" class="zr106-cls-62"></path>
<path d="M119.5 227A132.5 132.5 0 0 1 135.3 183.7L152.6 193.8A112.5 112.5 0 0 0 139.2 230.5Z" fill="#0AA40D" stroke="white" stroke-linejoin="bevel" class="zr106-cls-63"></path>
<path d="M99.8 223.5A152.5 152.5 0 0 1 117.9 173.7L135.3 183.8A132.5 132.5 0 0 0 119.5 227Z" fill="#000" stroke="white" stroke-linejoin="bevel" class="zr106-cls-64"></path>
<path d="M80.1 220A172.5 172.5 0 0 1 87.9 191L106.7 197.8A152.5 152.5 0 0 0 99.8 223.5Z" fill="#ff4949" fill-opacity="0.5" stroke="#fff" stroke-width="4" stroke-opacity="0.5" stroke-linejoin="bevel" class="zr106-cls-65"></path>
<path d="M60.4 216.6A192.5 192.5 0 0 1 69.1 184.2L87.9 191A172.5 172.5 0 0 0 80.1 220Z" fill="#000" stroke="white" stroke-linejoin="bevel" class="zr106-cls-66"></path>
<path d="M40.7 213.1A212.5 212.5 0 0 1 50.3 177.3L69.1 184.2A192.5 192.5 0 0 0 60.4 216.6Z" fill="#000" stroke="white" stroke-linejoin="bevel" class="zr106-cls-67"></path>
<path d="M87.9 191A172.5 172.5 0 0 1 100.6 163.8L117.9 173.8A152.5 152.5 0 0 0 106.7 197.8Z" fill="#49ff49" fill-opacity="0.5" stroke="#fff" stroke-width="4" stroke-opacity="0.5" stroke-linejoin="bevel" class="zr106-cls-68"></path>
<path d="M69.1 184.2A192.5 192.5 0 0 1 83.3 153.8L100.6 163.8A172.5 172.5 0 0 0 87.9 191Z" fill="#000" stroke="white" stroke-linejoin="bevel" class="zr106-cls-69"></path>
<path d="M50.3 177.3A212.5 212.5 0 0 1 66 143.8L83.3 153.8A192.5 192.5 0 0 0 69.1 184.2Z" fill="#000" stroke="white" stroke-linejoin="bevel" class="zr106-cls-70"></path>
<path d="M187.2 213.8A72.5 72.5 0 0 1 203.4 194.5L216.3 209.8A52.5 52.5 0 0 0 204.5 223.7Z" fill="#000" stroke="white" stroke-linejoin="bevel" class="zr106-cls-71"></path>
<path d="M169.9 203.8A92.5 92.5 0 0 1 190.5 179.1L203.4 194.5A72.5 72.5 0 0 0 187.2 213.7Z" fill="#000" stroke="white" stroke-linejoin="bevel" class="zr106-cls-72"></path>
<path d="M152.6 193.8A112.5 112.5 0 0 1 177.7 163.8L190.5 179.1A92.5 92.5 0 0 0 169.9 203.7Z" fill="#4949CD" fill-opacity="0.5" stroke="#fff" stroke-width="4" stroke-opacity="0.5" stroke-linejoin="bevel" class="zr106-cls-73"></path>
<path d="M135.3 183.8A132.5 132.5 0 0 1 164.8 148.5L177.7 163.8A112.5 112.5 0 0 0 152.6 193.7Z" fill="#0AA40D" stroke="white" stroke-linejoin="bevel" class="zr106-cls-74"></path>
<path d="M117.9 173.8A152.5 152.5 0 0 1 152 133.2L164.8 148.5A132.5 132.5 0 0 0 135.3 183.7Z" fill="#000" stroke="white" stroke-linejoin="bevel" class="zr106-cls-75"></path>
<path d="M100.6 163.8A172.5 172.5 0 0 1 139.1 117.9L152 133.2A152.5 152.5 0 0 0 117.9 173.7Z" fill="#49ff49" fill-opacity="0.5" stroke="#fff" stroke-width="4" stroke-opacity="0.5" stroke-linejoin="bevel" class="zr106-cls-76"></path>
<path d="M83.3 153.8A192.5 192.5 0 0 1 126.3 102.5L139.1 117.9A172.5 172.5 0 0 0 100.6 163.7Z" fill="#000" stroke="white" stroke-linejoin="bevel" class="zr106-cls-77"></path>
<path d="M66 143.8A212.5 212.5 0 0 1 87.2 113.4L102.5 126.3A192.5 192.5 0 0 0 83.3 153.8Z" fill="#000" stroke="white" stroke-linejoin="bevel" class="zr106-cls-78"></path>
<path d="M87.2 113.4A212.5 212.5 0 0 1 113.4 87.2L126.3 102.5A192.5 192.5 0 0 0 102.5 126.3Z" fill="#000" stroke="white" stroke-linejoin="bevel" class="zr106-cls-79"></path>
<path d="M203.4 194.5A72.5 72.5 0 0 1 213.8 187.2L223.7 204.5A52.5 52.5 0 0 0 216.3 209.8Z" fill="#000" stroke="white" stroke-linejoin="bevel" class="zr106-cls-80"></path>
<path d="M190.5 179.1A92.5 92.5 0 0 1 203.8 169.9L213.7 187.2A72.5 72.5 0 0 0 203.4 194.5Z" fill="#000" stroke="white" stroke-linejoin="bevel" class="zr106-cls-81"></path>
<path d="M177.7 163.8A112.5 112.5 0 0 1 193.8 152.6L203.7 169.9A92.5 92.5 0 0 0 190.5 179.1Z" fill="#4949CD" fill-opacity="0.5" stroke="#fff" stroke-width="4" stroke-opacity="0.5" stroke-linejoin="bevel" class="zr106-cls-82"></path>
<path d="M164.8 148.5A132.5 132.5 0 0 1 183.8 135.3L193.7 152.6A112.5 112.5 0 0 0 177.7 163.8Z" fill="#0AA40D" stroke="white" stroke-linejoin="bevel" class="zr106-cls-83"></path>
<path d="M152 133.2A152.5 152.5 0 0 1 173.8 117.9L183.7 135.3A132.5 132.5 0 0 0 164.8 148.5Z" fill="#000" stroke="white" stroke-linejoin="bevel" class="zr106-cls-84"></path>
<path d="M139.1 117.9A172.5 172.5 0 0 1 163.8 100.6L173.7 117.9A152.5 152.5 0 0 0 152 133.2Z" fill="#ff4949" fill-opacity="0.5" stroke="#fff" stroke-width="4" stroke-opacity="0.5" stroke-linejoin="bevel" class="zr106-cls-85"></path>
<path d="M126.3 102.5A192.5 192.5 0 0 1 153.8 83.3L163.7 100.6A172.5 172.5 0 0 0 139.1 117.9Z" fill="#000" stroke="white" stroke-linejoin="bevel" class="zr106-cls-86"></path>
<path d="M113.4 87.2A212.5 212.5 0 0 1 143.8 66L153.7 83.3A192.5 192.5 0 0 0 126.3 102.5Z" fill="#000" stroke="white" stroke-linejoin="bevel" class="zr106-cls-87"></path>
<path d="M213.7 187.2A72.5 72.5 0 0 1 225.2 181.9L232 200.7A52.5 52.5 0 0 0 223.8 204.5Z" fill="#000" stroke="white" stroke-linejoin="bevel" class="zr106-cls-88"></path>
<path d="M203.7 169.9A92.5 92.5 0 0 1 218.4 163.1L225.2 181.9A72.5 72.5 0 0 0 213.8 187.2Z" fill="#000" stroke="white" stroke-linejoin="bevel" class="zr106-cls-89"></path>
<path d="M193.7 152.6A112.5 112.5 0 0 1 211.5 144.3L218.4 163.1A92.5 92.5 0 0 0 203.8 169.9Z" fill="#4949CD" fill-opacity="0.5" stroke="#fff" stroke-width="4" stroke-opacity="0.5" stroke-linejoin="bevel" class="zr106-cls-90"></path>
<path d="M183.7 135.3A132.5 132.5 0 0 1 204.7 125.5L211.5 144.3A112.5 112.5 0 0 0 193.8 152.6Z" fill="#0AA40D" stroke="white" stroke-linejoin="bevel" class="zr106-cls-91"></path>
<path d="M173.7 117.9A152.5 152.5 0 0 1 197.8 106.7L204.7 125.5A132.5 132.5 0 0 0 183.8 135.3Z" fill="#C8C8C8" stroke="white" stroke-linejoin="bevel" class="zr106-cls-92"></path>
<path d="M238.9 219.5A32.5 32.5 0 0 1 250 217.5L250 237.5A12.5 12.5 0 0 0 245.7 238.3Z" fill="#C8C8C8" stroke="white" stroke-linejoin="bevel" class="zr106-cls-93"></path>
<path d="M232 200.7A52.5 52.5 0 0 1 250 197.5L250 217.5A32.5 32.5 0 0 0 238.9 219.5Z" fill="#C8C8C8" stroke="white" stroke-linejoin="bevel" class="zr106-cls-94"></path>
<text dominant-baseline="central" text-anchor="middle" style="font-size:12px;font-family:sans-serif;" transform="matrix(0.985,-0.174,0.174,0.985,253.9071,272.1582)" fill="#ccc" stroke="#000" stroke-width="2" paint-order="stroke" stroke-miterlimit="2">paths</text>
<text dominant-baseline="central" text-anchor="middle" style="font-size:12px;font-family:sans-serif;" transform="matrix(0.342,-0.94,0.94,0.342,134.8877,208.1025)" fill="#eee" stroke="#0AA40D" stroke-width="2" paint-order="stroke" stroke-miterlimit="2">GET</text>
<text dominant-baseline="central" text-anchor="middle" style="font-size:9px;font-family:sans-serif;" transform="matrix(0.342,-0.94,0.94,0.342,116.0938,201.2621)" fill="#ccc" stroke="#000" stroke-width="2" paint-order="stroke" stroke-miterlimit="2">params</text>
<text dominant-baseline="central" text-anchor="middle" style="font-size:9px;font-family:sans-serif;" transform="matrix(0.643,-0.766,0.766,0.643,186.8013,196.97)" fill="#ccc" stroke="#000" stroke-width="2" paint-order="stroke" stroke-miterlimit="2">operations</text>
<text dominant-baseline="central" text-anchor="middle" style="font-size:12px;font-family:sans-serif;" transform="matrix(0.643,-0.766,0.766,0.643,156.1596,171.2585)" fill="#eee" stroke="#0AA40D" stroke-width="2" paint-order="stroke" stroke-miterlimit="2">GET</text>
<text dominant-baseline="central" text-anchor="middle" style="font-size:9px;font-family:sans-serif;" transform="matrix(0.643,-0.766,0.766,0.643,140.8387,158.4028)" fill="#ccc" stroke="#000" stroke-width="2" paint-order="stroke" stroke-miterlimit="2">params</text>
<text dominant-baseline="central" text-anchor="middle" style="font-size:12px;font-family:sans-serif;" transform="matrix(0.643,-0.766,0.766,0.643,110.1969,132.6913)" fill="#ccc" stroke="#000" stroke-width="2" paint-order="stroke" stroke-miterlimit="2">query</text>
<text dominant-baseline="central" text-anchor="middle" style="font-size:12px;font-family:sans-serif;" transform="matrix(0.985,-0.174,0.174,0.985,246.0929,227.8418)" fill="#333">info</text>
<text dominant-baseline="central" text-anchor="middle" style="font-size:10px;font-family:sans-serif;" transform="matrix(0.985,-0.174,0.174,0.985,242.62,208.1457)" fill="#333">version</text>
<path d="M-14.8 -16l66.6 0l0 32l-66.6 0Z" transform="translate(448.253 16)" fill="none" stroke="#ccc" stroke-width="0"></path>
<path d="M-7.3 -1.8L-0.1 4.8L7.3 -1.6M-7.3 4.3L-7.3 8.5L7.1 8.5L7.1 4.3M-0.1 4.7L-0.1 -8.5" transform="translate(448.253 16)" fill="none" stroke="#666"></path>
<path d="M-7.9 1M5.1 -3.4L8.1 -3.4L8.1 -6.4M8 -3C6.7 -6.4 3.2 -8.9 -1 -8.4C-5.3 -8 -8.6 -4.2 -8.4 0.2M-5.1 3.4L-8.1 3.4L-8.1 6.4M-8 3C-6.7 6.4 -3.2 8.9 1 8.4C5.3 8 8.6 4.2 8.4 -0.2" transform="translate(484.0476 16)" fill="none" stroke="#666"></path>
<style ><![CDATA[
.zr106-cls-0 {
animation:zr106-ani-0 1s cubic-bezier(0.65,0,0.35,1) both;
}
.zr106-cls-1 {
animation:zr106-ani-1 1s cubic-bezier(0.65,0,0.35,1) both;
}
.zr106-cls-2 {
animation:zr106-ani-2 1s cubic-bezier(0.65,0,0.35,1) both;
}
.zr106-cls-3 {
animation:zr106-ani-3 1s cubic-bezier(0.65,0,0.35,1) both;
}
.zr106-cls-4 {
animation:zr106-ani-4 1s cubic-bezier(0.65,0,0.35,1) both;
}
.zr106-cls-5 {
animation:zr106-ani-5 1s cubic-bezier(0.65,0,0.35,1) both;
}
.zr106-cls-6 {
animation:zr106-ani-6 1s cubic-bezier(0.65,0,0.35,1) both;
}
.zr106-cls-7 {
animation:zr106-ani-7 1s cubic-bezier(0.65,0,0.35,1) both;
}
.zr106-cls-8 {
animation:zr106-ani-8 1s cubic-bezier(0.65,0,0.35,1) both;
}
.zr106-cls-9 {
animation:zr106-ani-9 1s cubic-bezier(0.65,0,0.35,1) both;
}
.zr106-cls-10 {
animation:zr106-ani-10 1s cubic-bezier(0.65,0,0.35,1) both;
}
.zr106-cls-11 {
animation:zr106-ani-11 1s cubic-bezier(0.65,0,0.35,1) both;
}
.zr106-cls-12 {
animation:zr106-ani-12 1s cubic-bezier(0.65,0,0.35,1) both;
}
.zr106-cls-13 {
animation:zr106-ani-13 1s cubic-bezier(0.65,0,0.35,1) both;
}
.zr106-cls-14 {
animation:zr106-ani-14 1s cubic-bezier(0.65,0,0.35,1) both;
}
.zr106-cls-15 {
animation:zr106-ani-15 1s cubic-bezier(0.65,0,0.35,1) both;
}
.zr106-cls-16 {
animation:zr106-ani-16 1s cubic-bezier(0.65,0,0.35,1) both;
}
.zr106-cls-17 {
animation:zr106-ani-17 1s cubic-bezier(0.65,0,0.35,1) both;
}
.zr106-cls-18 {
animation:zr106-ani-18 1s cubic-bezier(0.65,0,0.35,1) both;
}
.zr106-cls-19 {
animation:zr106-ani-19 1s cubic-bezier(0.65,0,0.35,1) both;
}
.zr106-cls-20 {
animation:zr106-ani-20 1s cubic-bezier(0.65,0,0.35,1) both;
}
.zr106-cls-21 {
animation:zr106-ani-21 1s cubic-bezier(0.65,0,0.35,1) both;
}
.zr106-cls-22 {
animation:zr106-ani-22 1s cubic-bezier(0.65,0,0.35,1) both;
}
.zr106-cls-23 {
animation:zr106-ani-23 1s cubic-bezier(0.65,0,0.35,1) both;
}
.zr106-cls-24 {
animation:zr106-ani-24 1s cubic-bezier(0.65,0,0.35,1) both;
}
.zr106-cls-25 {
animation:zr106-ani-25 1s cubic-bezier(0.65,0,0.35,1) both;
}
.zr106-cls-26 {
animation:zr106-ani-26 1s cubic-bezier(0.65,0,0.35,1) both;
}
.zr106-cls-27 {
animation:zr106-ani-27 1s cubic-bezier(0.65,0,0.35,1) both;
}
.zr106-cls-28 {
animation:zr106-ani-28 1s cubic-bezier(0.65,0,0.35,1) both;
}
.zr106-cls-29 {
animation:zr106-ani-29 1s cubic-bezier(0.65,0,0.35,1) both;
}
.zr106-cls-30 {
animation:zr106-ani-30 1s cubic-bezier(0.65,0,0.35,1) both;
}
.zr106-cls-31 {
animation:zr106-ani-31 1s cubic-bezier(0.65,0,0.35,1) both;
}
.zr106-cls-32 {
animation:zr106-ani-32 1s cubic-bezier(0.65,0,0.35,1) both;
}
.zr106-cls-33 {
animation:zr106-ani-33 1s cubic-bezier(0.65,0,0.35,1) both;
}
.zr106-cls-34 {
animation:zr106-ani-34 1s cubic-bezier(0.65,0,0.35,1) both;
}
.zr106-cls-35 {
animation:zr106-ani-35 1s cubic-bezier(0.65,0,0.35,1) both;
}
.zr106-cls-36 {
animation:zr106-ani-36 1s cubic-bezier(0.65,0,0.35,1) both;
}
.zr106-cls-37 {
animation:zr106-ani-37 1s cubic-bezier(0.65,0,0.35,1) both;
}
.zr106-cls-38 {
animation:zr106-ani-38 1s cubic-bezier(0.65,0,0.35,1) both;
}
.zr106-cls-39 {
animation:zr106-ani-39 1s cubic-bezier(0.65,0,0.35,1) both;
}
.zr106-cls-40 {
animation:zr106-ani-40 1s cubic-bezier(0.65,0,0.35,1) both;
}
.zr106-cls-41 {
animation:zr106-ani-41 1s cubic-bezier(0.65,0,0.35,1) both;
}
.zr106-cls-42 {
animation:zr106-ani-42 1s cubic-bezier(0.65,0,0.35,1) both;
}
.zr106-cls-43 {
animation:zr106-ani-43 1s cubic-bezier(0.65,0,0.35,1) both;
}
.zr106-cls-44 {
animation:zr106-ani-44 1s cubic-bezier(0.65,0,0.35,1) both;
}
.zr106-cls-45 {
animation:zr106-ani-45 1s cubic-bezier(0.65,0,0.35,1) both;
}
.zr106-cls-46 {
animation:zr106-ani-46 1s cubic-bezier(0.65,0,0.35,1) both;
}
.zr106-cls-47 {
animation:zr106-ani-47 1s cubic-bezier(0.65,0,0.35,1) both;
}
.zr106-cls-48 {
animation:zr106-ani-48 1s cubic-bezier(0.65,0,0.35,1) both;
}
.zr106-cls-49 {
animation:zr106-ani-49 1s cubic-bezier(0.65,0,0.35,1) both;
}
.zr106-cls-50 {
animation:zr106-ani-50 1s cubic-bezier(0.65,0,0.35,1) both;
}
.zr106-cls-51 {
animation:zr106-ani-51 1s cubic-bezier(0.65,0,0.35,1) both;
}
.zr106-cls-52 {
animation:zr106-ani-52 1s cubic-bezier(0.65,0,0.35,1) both;
}
.zr106-cls-53 {
animation:zr106-ani-53 1s cubic-bezier(0.65,0,0.35,1) both;
}
.zr106-cls-54 {
animation:zr106-ani-54 1s cubic-bezier(0.65,0,0.35,1) both;
}
.zr106-cls-55 {
animation:zr106-ani-55 1s cubic-bezier(0.65,0,0.35,1) both;
}
.zr106-cls-56 {
animation:zr106-ani-56 1s cubic-bezier(0.65,0,0.35,1) both;
}
.zr106-cls-57 {
animation:zr106-ani-57 1s cubic-bezier(0.65,0,0.35,1) both;
}
.zr106-cls-58 {
animation:zr106-ani-58 1s cubic-bezier(0.65,0,0.35,1) both;
}
.zr106-cls-59 {
animation:zr106-ani-59 1s cubic-bezier(0.65,0,0.35,1) both;
}
.zr106-cls-60 {
animation:zr106-ani-60 1s cubic-bezier(0.65,0,0.35,1) both;
}
.zr106-cls-61 {
animation:zr106-ani-61 1s cubic-bezier(0.65,0,0.35,1) both;
}
.zr106-cls-62 {
animation:zr106-ani-62 1s cubic-bezier(0.65,0,0.35,1) both;
}
.zr106-cls-63 {
animation:zr106-ani-63 1s cubic-bezier(0.65,0,0.35,1) both;
}
.zr106-cls-64 {
animation:zr106-ani-64 1s cubic-bezier(0.65,0,0.35,1) both;
}
.zr106-cls-65 {
animation:zr106-ani-65 1s cubic-bezier(0.65,0,0.35,1) both;
}
.zr106-cls-66 {
animation:zr106-ani-66 1s cubic-bezier(0.65,0,0.35,1) both;
}
.zr106-cls-67 {
animation:zr106-ani-67 1s cubic-bezier(0.65,0,0.35,1) both;
}
.zr106-cls-68 {
animation:zr106-ani-68 1s cubic-bezier(0.65,0,0.35,1) both;
}
.zr106-cls-69 {
animation:zr106-ani-69 1s cubic-bezier(0.65,0,0.35,1) both;
}
.zr106-cls-70 {
animation:zr106-ani-70 1s cubic-bezier(0.65,0,0.35,1) both;
}
.zr106-cls-71 {
animation:zr106-ani-71 1s cubic-bezier(0.65,0,0.35,1) both;
}
.zr106-cls-72 {
animation:zr106-ani-72 1s cubic-bezier(0.65,0,0.35,1) both;
}
.zr106-cls-73 {
animation:zr106-ani-73 1s cubic-bezier(0.65,0,0.35,1) both;
}
.zr106-cls-74 {
animation:zr106-ani-74 1s cubic-bezier(0.65,0,0.35,1) both;
}
.zr106-cls-75 {
animation:zr106-ani-75 1s cubic-bezier(0.65,0,0.35,1) both;
}
.zr106-cls-76 {
animation:zr106-ani-76 1s cubic-bezier(0.65,0,0.35,1) both;
}
.zr106-cls-77 {
animation:zr106-ani-77 1s cubic-bezier(0.65,0,0.35,1) both;
}
.zr106-cls-78 {
animation:zr106-ani-78 1s cubic-bezier(0.65,0,0.35,1) both;
}
.zr106-cls-79 {
animation:zr106-ani-79 1s cubic-bezier(0.65,0,0.35,1) both;
}
.zr106-cls-80 {
animation:zr106-ani-80 1s cubic-bezier(0.65,0,0.35,1) both;
}
.zr106-cls-81 {
animation:zr106-ani-81 1s cubic-bezier(0.65,0,0.35,1) both;
}
.zr106-cls-82 {
animation:zr106-ani-82 1s cubic-bezier(0.65,0,0.35,1) both;
}
.zr106-cls-83 {
animation:zr106-ani-83 1s cubic-bezier(0.65,0,0.35,1) both;
}
.zr106-cls-84 {
animation:zr106-ani-84 1s cubic-bezier(0.65,0,0.35,1) both;
}
.zr106-cls-85 {
animation:zr106-ani-85 1s cubic-bezier(0.65,0,0.35,1) both;
}
.zr106-cls-86 {
animation:zr106-ani-86 1s cubic-bezier(0.65,0,0.35,1) both;
}
.zr106-cls-87 {
animation:zr106-ani-87 1s cubic-bezier(0.65,0,0.35,1) both;
}
.zr106-cls-88 {
animation:zr106-ani-88 1s cubic-bezier(0.65,0,0.35,1) both;
}
.zr106-cls-89 {
animation:zr106-ani-89 1s cubic-bezier(0.65,0,0.35,1) both;
}
.zr106-cls-90 {
animation:zr106-ani-90 1s cubic-bezier(0.65,0,0.35,1) both;
}
.zr106-cls-91 {
animation:zr106-ani-91 1s cubic-bezier(0.65,0,0.35,1) both;
}
.zr106-cls-92 {
animation:zr106-ani-92 1s cubic-bezier(0.65,0,0.35,1) both;
}
.zr106-cls-93 {
animation:zr106-ani-93 1s cubic-bezier(0.65,0,0.35,1) both;
}
.zr106-cls-94 {
animation:zr106-ani-94 1s cubic-bezier(0.65,0,0.35,1) both;
}
@keyframes zr106-ani-0 {
0% {
d:path("M250 237.5A12.5 12.5 0 1 1 245.7 238.3L245.7 238.3A12.5 12.5 0 1 0 250 237.5Z");
}
100% {
d:path("M250 217.5A32.5 32.5 0 1 1 238.9 219.5L245.7 238.3A12.5 12.5 0 1 0 250 237.5Z");
}
}
@keyframes zr106-ani-1 {
0% {
d:path("M250 217.5A32.5 32.5 0 0 1 266.3 278.1A32.5 32.5 0 0 0 250 217.5Z");
}
100% {
d:path("M250 197.5A52.5 52.5 0 0 1 276.3 295.5L266.3 278.1A32.5 32.5 0 0 0 250 217.5Z");
}
}
@keyframes zr106-ani-2 {
0% {
d:path("M250 197.5A52.5 52.5 0 0 1 259.1 198.3A52.5 52.5 0 0 0 250 197.5Z");
}
100% {
d:path("M250 177.5A72.5 72.5 0 0 1 262.6 178.6L259.1 198.3A52.5 52.5 0 0 0 250 197.5Z");
}
}
@keyframes zr106-ani-3 {
0% {
d:path("M250 177.5A72.5 72.5 0 0 1 262.6 178.6L262.6 178.6A72.5 72.5 0 0 0 250 177.5Z");
}
100% {
d:path("M250 157.5A92.5 92.5 0 0 1 266.1 158.9L262.6 178.6A72.5 72.5 0 0 0 250 177.5Z");
}
}
@keyframes zr106-ani-4 {
0% {
d:path("M259.1 198.3A52.5 52.5 0 0 1 268 200.7L268 200.7A52.5 52.5 0 0 0 259.1 198.3Z");
}
100% {
d:path("M262.6 178.6A72.5 72.5 0 0 1 274.8 181.9L268 200.7A52.5 52.5 0 0 0 259.1 198.3Z");
}
}
@keyframes zr106-ani-5 {
0% {
d:path("M262.6 178.6A72.5 72.5 0 0 1 274.8 181.9L274.8 181.9A72.5 72.5 0 0 0 262.6 178.6Z");
}
100% {
d:path("M266.1 158.9A92.5 92.5 0 0 1 281.6 163.1L274.8 181.9A72.5 72.5 0 0 0 262.6 178.6Z");
}
}
@keyframes zr106-ani-6 {
0% {
d:path("M268 200.7A52.5 52.5 0 0 1 276.2 204.5L276.3 204.5A52.5 52.5 0 0 0 268 200.7Z");
}
100% {
d:path("M274.8 181.9A72.5 72.5 0 0 1 286.2 187.2L276.3 204.5A52.5 52.5 0 0 0 268 200.7Z");
}
}
@keyframes zr106-ani-7 {
0% {
d:path("M274.8 181.9A72.5 72.5 0 0 1 286.2 187.2L286.3 187.2A72.5 72.5 0 0 0 274.8 181.9Z");
}
100% {
d:path("M281.6 163.1A92.5 92.5 0 0 1 296.2 169.9L286.3 187.2A72.5 72.5 0 0 0 274.8 181.9Z");
}
}
@keyframes zr106-ani-8 {
0% {
d:path("M276.3 204.5A52.5 52.5 0 0 1 283.7 209.8L283.7 209.8A52.5 52.5 0 0 0 276.2 204.5Z");
}
100% {
d:path("M286.3 187.2A72.5 72.5 0 0 1 296.6 194.5L283.7 209.8A52.5 52.5 0 0 0 276.2 204.5Z");
}
}
@keyframes zr106-ani-9 {
0% {
d:path("M286.3 187.2A72.5 72.5 0 0 1 296.6 194.5L296.6 194.5A72.5 72.5 0 0 0 286.2 187.2Z");
}
100% {
d:path("M296.3 169.9A92.5 92.5 0 0 1 309.5 179.1L296.6 194.5A72.5 72.5 0 0 0 286.2 187.2Z");
}
}
@keyframes zr106-ani-10 {
0% {
d:path("M283.7 209.8A52.5 52.5 0 0 1 290.2 216.3L290.2 216.3A52.5 52.5 0 0 0 283.7 209.8Z");
}
100% {
d:path("M296.6 194.5A72.5 72.5 0 0 1 305.5 203.4L290.2 216.3A52.5 52.5 0 0 0 283.7 209.8Z");
}
}
@keyframes zr106-ani-11 {
0% {
d:path("M296.6 194.5A72.5 72.5 0 0 1 305.5 203.4L305.5 203.4A72.5 72.5 0 0 0 296.6 194.5Z");
}
100% {
d:path("M309.5 179.1A92.5 92.5 0 0 1 320.9 190.5L305.5 203.4A72.5 72.5 0 0 0 296.6 194.5Z");
}
}
@keyframes zr106-ani-12 {
0% {
d:path("M290.2 216.3A52.5 52.5 0 0 1 295.5 223.8L295.5 223.8A52.5 52.5 0 0 0 290.2 216.3Z");
}
100% {
d:path("M305.5 203.4A72.5 72.5 0 0 1 312.8 213.8L295.5 223.8A52.5 52.5 0 0 0 290.2 216.3Z");
}
}
@keyframes zr106-ani-13 {
0% {
d:path("M305.5 203.4A72.5 72.5 0 0 1 312.8 213.8L312.8 213.8A72.5 72.5 0 0 0 305.5 203.4Z");
}
100% {
d:path("M320.9 190.5A92.5 92.5 0 0 1 330.1 203.8L312.8 213.8A72.5 72.5 0 0 0 305.5 203.4Z");
}
}
@keyframes zr106-ani-14 {
0% {
d:path("M295.5 223.8A52.5 52.5 0 0 1 299.3 232L299.3 232A52.5 52.5 0 0 0 295.5 223.8Z");
}
100% {
d:path("M312.8 213.8A72.5 72.5 0 0 1 318.1 225.2L299.3 232A52.5 52.5 0 0 0 295.5 223.8Z");
}
}
@keyframes zr106-ani-15 {
0% {
d:path("M312.8 213.8A72.5 72.5 0 0 1 318.1 225.2L318.1 225.2A72.5 72.5 0 0 0 312.8 213.8Z");
}
100% {
d:path("M330.1 203.8A92.5 92.5 0 0 1 336.9 218.4L318.1 225.2A72.5 72.5 0 0 0 312.8 213.8Z");
}
}
@keyframes zr106-ani-16 {
0% {
d:path("M299.3 232A52.5 52.5 0 0 1 301.7 240.9L301.7 240.9A52.5 52.5 0 0 0 299.3 232Z");
}
100% {
d:path("M318.1 225.2A72.5 72.5 0 0 1 321.4 237.4L301.7 240.9A52.5 52.5 0 0 0 299.3 232Z");
}
}
@keyframes zr106-ani-17 {
0% {
d:path("M318.1 225.2A72.5 72.5 0 0 1 321.4 237.4L321.4 237.4A72.5 72.5 0 0 0 318.1 225.2Z");
}
100% {
d:path("M336.9 218.4A92.5 92.5 0 0 1 341.1 233.9L321.4 237.4A72.5 72.5 0 0 0 318.1 225.2Z");
}
}
@keyframes zr106-ani-18 {
0% {
d:path("M301.7 240.9A52.5 52.5 0 0 1 302.5 250L302.5 250A52.5 52.5 0 0 0 301.7 240.9Z");
}
100% {
d:path("M321.4 237.4A72.5 72.5 0 0 1 322.5 250L302.5 250A52.5 52.5 0 0 0 301.7 240.9Z");
}
}
@keyframes zr106-ani-19 {
0% {
d:path("M321.4 237.4A72.5 72.5 0 0 1 322.5 250L322.5 250A72.5 72.5 0 0 0 321.4 237.4Z");
}
100% {
d:path("M341.1 233.9A92.5 92.5 0 0 1 342.5 250L322.5 250A72.5 72.5 0 0 0 321.4 237.4Z");
}
}
@keyframes zr106-ani-20 {
0% {
d:path("M302.5 250A52.5 52.5 0 0 1 301.7 259.1A52.5 52.5 0 0 0 302.5 250Z");
}
100% {
d:path("M322.5 250A72.5 72.5 0 0 1 321.4 262.6L301.7 259.1A52.5 52.5 0 0 0 302.5 250Z");
}
}
@keyframes zr106-ani-21 {
0% {
d:path("M322.5 250A72.5 72.5 0 0 1 321.4 262.6A72.5 72.5 0 0 0 322.5 250Z");
}
100% {
d:path("M342.5 250A92.5 92.5 0 0 1 341.1 266.1L321.4 262.6A72.5 72.5 0 0 0 322.5 250Z");
}
}
@keyframes zr106-ani-22 {
0% {
d:path("M301.7 259.1A52.5 52.5 0 0 1 299.3 268L299.3 268A52.5 52.5 0 0 0 301.7 259.1Z");
}
100% {
d:path("M321.4 262.6A72.5 72.5 0 0 1 318.1 274.8L299.3 268A52.5 52.5 0 0 0 301.7 259.1Z");
}
}
@keyframes zr106-ani-23 {
0% {
d:path("M321.4 262.6A72.5 72.5 0 0 1 318.1 274.8L318.1 274.8A72.5 72.5 0 0 0 321.4 262.6Z");
}
100% {
d:path("M341.1 266.1A92.5 92.5 0 0 1 336.9 281.6L318.1 274.8A72.5 72.5 0 0 0 321.4 262.6Z");
}
}
@keyframes zr106-ani-24 {
0% {
d:path("M299.3 268A52.5 52.5 0 0 1 295.5 276.2L295.5 276.3A52.5 52.5 0 0 0 299.3 268Z");
}
100% {
d:path("M318.1 274.8A72.5 72.5 0 0 1 312.8 286.2L295.5 276.3A52.5 52.5 0 0 0 299.3 268Z");
}
}
@keyframes zr106-ani-25 {
0% {
d:path("M318.1 274.8A72.5 72.5 0 0 1 312.8 286.2L312.8 286.3A72.5 72.5 0 0 0 318.1 274.8Z");
}
100% {
d:path("M336.9 281.6A92.5 92.5 0 0 1 330.1 296.2L312.8 286.3A72.5 72.5 0 0 0 318.1 274.8Z");
}
}
@keyframes zr106-ani-26 {
0% {
d:path("M295.5 276.3A52.5 52.5 0 0 1 290.2 283.7L290.2 283.7A52.5 52.5 0 0 0 295.5 276.2Z");
}
100% {
d:path("M312.8 286.3A72.5 72.5 0 0 1 305.5 296.6L290.2 283.7A52.5 52.5 0 0 0 295.5 276.2Z");
}
}
@keyframes zr106-ani-27 {
0% {
d:path("M312.8 286.3A72.5 72.5 0 0 1 305.5 296.6L305.5 296.6A72.5 72.5 0 0 0 312.8 286.2Z");
}
100% {
d:path("M330.1 296.3A92.5 92.5 0 0 1 320.9 309.5L305.5 296.6A72.5 72.5 0 0 0 312.8 286.2Z");
}
}
@keyframes zr106-ani-28 {
0% {
d:path("M290.2 283.7A52.5 52.5 0 0 1 283.7 290.2L283.7 290.2A52.5 52.5 0 0 0 290.2 283.7Z");
}
100% {
d:path("M305.5 296.6A72.5 72.5 0 0 1 296.6 305.5L283.7 290.2A52.5 52.5 0 0 0 290.2 283.7Z");
}
}
@keyframes zr106-ani-29 {
0% {
d:path("M305.5 296.6A72.5 72.5 0 0 1 296.6 305.5L296.6 305.5A72.5 72.5 0 0 0 305.5 296.6Z");
}
100% {
d:path("M320.9 309.5A92.5 92.5 0 0 1 309.5 320.9L296.6 305.5A72.5 72.5 0 0 0 305.5 296.6Z");
}
}
@keyframes zr106-ani-30 {
0% {
d:path("M283.7 290.2A52.5 52.5 0 0 1 276.2 295.5L276.3 295.5A52.5 52.5 0 0 0 283.7 290.2Z");
}
100% {
d:path("M296.6 305.5A72.5 72.5 0 0 1 286.2 312.8L276.3 295.5A52.5 52.5 0 0 0 283.7 290.2Z");
}
}
@keyframes zr106-ani-31 {
0% {
d:path("M296.6 305.5A72.5 72.5 0 0 1 286.2 312.8L286.3 312.8A72.5 72.5 0 0 0 296.6 305.5Z");
}
100% {
d:path("M309.5 320.9A92.5 92.5 0 0 1 296.2 330.1L286.3 312.8A72.5 72.5 0 0 0 296.6 305.5Z");
}
}
@keyframes zr106-ani-32 {
0% {
d:path("M266.3 278.1A32.5 32.5 0 0 1 218 244.4L218 244.4A32.5 32.5 0 0 0 266.2 278.1Z");
}
100% {
d:path("M276.3 295.5A52.5 52.5 0 0 1 198.3 240.9L218 244.4A32.5 32.5 0 0 0 266.2 278.1Z");
}
}
@keyframes zr106-ani-33 {
0% {
d:path("M276.3 295.5A52.5 52.5 0 0 1 268 299.3L268 299.3A52.5 52.5 0 0 0 276.2 295.5Z");
}
100% {
d:path("M286.3 312.8A72.5 72.5 0 0 1 274.8 318.1L268 299.3A52.5 52.5 0 0 0 276.2 295.5Z");
}
}
@keyframes zr106-ani-34 {
0% {
d:path("M286.3 312.8A72.5 72.5 0 0 1 274.8 318.1L274.8 318.1A72.5 72.5 0 0 0 286.2 312.8Z");
}
100% {
d:path("M296.3 330.1A92.5 92.5 0 0 1 281.6 336.9L274.8 318.1A72.5 72.5 0 0 0 286.2 312.8Z");
}
}
@keyframes zr106-ani-35 {
0% {
d:path("M268 299.3A52.5 52.5 0 0 1 259.1 301.7L259.1 301.7A52.5 52.5 0 0 0 268 299.3Z");
}
100% {
d:path("M274.8 318.1A72.5 72.5 0 0 1 262.6 321.4L259.1 301.7A52.5 52.5 0 0 0 268 299.3Z");
}
}
@keyframes zr106-ani-36 {
0% {
d:path("M274.8 318.1A72.5 72.5 0 0 1 262.6 321.4L262.6 321.4A72.5 72.5 0 0 0 274.8 318.1Z");
}
100% {
d:path("M281.6 336.9A92.5 92.5 0 0 1 266.1 341.1L262.6 321.4A72.5 72.5 0 0 0 274.8 318.1Z");
}
}
@keyframes zr106-ani-37 {
0% {
d:path("M259.1 301.7A52.5 52.5 0 0 1 250 302.5L250 302.5A52.5 52.5 0 0 0 259.1 301.7Z");
}
100% {
d:path("M262.6 321.4A72.5 72.5 0 0 1 250 322.5L250 302.5A52.5 52.5 0 0 0 259.1 301.7Z");
}
}
@keyframes zr106-ani-38 {
0% {
d:path("M262.6 321.4A72.5 72.5 0 0 1 250 322.5L250 322.5A72.5 72.5 0 0 0 262.6 321.4Z");
}
100% {
d:path("M266.1 341.1A92.5 92.5 0 0 1 250 342.5L250 322.5A72.5 72.5 0 0 0 262.6 321.4Z");
}
}
@keyframes zr106-ani-39 {
0% {
d:path("M250 302.5A52.5 52.5 0 0 1 240.9 301.7L240.9 301.7A52.5 52.5 0 0 0 250 302.5Z");
}
100% {
d:path("M250 322.5A72.5 72.5 0 0 1 237.4 321.4L240.9 301.7A52.5 52.5 0 0 0 250 302.5Z");
}
}
@keyframes zr106-ani-40 {
0% {
d:path("M250 322.5A72.5 72.5 0 0 1 237.4 321.4L237.4 321.4A72.5 72.5 0 0 0 250 322.5Z");
}
100% {
d:path("M250 342.5A92.5 92.5 0 0 1 233.9 341.1L237.4 321.4A72.5 72.5 0 0 0 250 322.5Z");
}
}
@keyframes zr106-ani-41 {
0% {
d:path("M240.9 301.7A52.5 52.5 0 0 1 232 299.3L232 299.3A52.5 52.5 0 0 0 240.9 301.7Z");
}
100% {
d:path("M237.4 321.4A72.5 72.5 0 0 1 225.2 318.1L232 299.3A52.5 52.5 0 0 0 240.9 301.7Z");
}
}
@keyframes zr106-ani-42 {
0% {
d:path("M237.4 321.4A72.5 72.5 0 0 1 225.2 318.1L225.2 318.1A72.5 72.5 0 0 0 237.4 321.4Z");
}
100% {
d:path("M233.9 341.1A92.5 92.5 0 0 1 218.4 336.9L225.2 318.1A72.5 72.5 0 0 0 237.4 321.4Z");
}
}
@keyframes zr106-ani-43 {
0% {
d:path("M232 299.3A52.5 52.5 0 0 1 223.8 295.5L223.8 295.5A52.5 52.5 0 0 0 232 299.3Z");
}
100% {
d:path("M225.2 318.1A72.5 72.5 0 0 1 213.8 312.8L223.8 295.5A52.5 52.5 0 0 0 232 299.3Z");
}
}
@keyframes zr106-ani-44 {
0% {
d:path("M225.2 318.1A72.5 72.5 0 0 1 213.8 312.8L213.8 312.8A72.5 72.5 0 0 0 225.2 318.1Z");
}
100% {
d:path("M218.4 336.9A92.5 92.5 0 0 1 203.8 330.1L213.8 312.8A72.5 72.5 0 0 0 225.2 318.1Z");
}
}
@keyframes zr106-ani-45 {
0% {
d:path("M223.8 295.5A52.5 52.5 0 0 1 216.3 290.2L216.3 290.2A52.5 52.5 0 0 0 223.8 295.5Z");
}
100% {
d:path("M213.8 312.8A72.5 72.5 0 0 1 203.4 305.5L216.3 290.2A52.5 52.5 0 0 0 223.8 295.5Z");
}
}
@keyframes zr106-ani-46 {
0% {
d:path("M213.8 312.8A72.5 72.5 0 0 1 203.4 305.5L203.4 305.5A72.5 72.5 0 0 0 213.8 312.8Z");
}
100% {
d:path("M203.7 330.1A92.5 92.5 0 0 1 190.5 320.9L203.4 305.5A72.5 72.5 0 0 0 213.8 312.8Z");
}
}
@keyframes zr106-ani-47 {
0% {
d:path("M216.3 290.2A52.5 52.5 0 0 1 209.8 283.7L209.8 283.7A52.5 52.5 0 0 0 216.3 290.2Z");
}
100% {
d:path("M203.4 305.5A72.5 72.5 0 0 1 194.5 296.6L209.8 283.7A52.5 52.5 0 0 0 216.3 290.2Z");
}
}
@keyframes zr106-ani-48 {
0% {
d:path("M203.4 305.5A72.5 72.5 0 0 1 194.5 296.6L194.5 296.6A72.5 72.5 0 0 0 203.4 305.5Z");
}
100% {
d:path("M190.5 320.9A92.5 92.5 0 0 1 179.1 309.5L194.5 296.6A72.5 72.5 0 0 0 203.4 305.5Z");
}
}
@keyframes zr106-ani-49 {
0% {
d:path("M209.8 283.7A52.5 52.5 0 0 1 204.5 276.2L204.5 276.3A52.5 52.5 0 0 0 209.8 283.7Z");
}
100% {
d:path("M194.5 296.6A72.5 72.5 0 0 1 187.2 286.2L204.5 276.3A52.5 52.5 0 0 0 209.8 283.7Z");
}
}
@keyframes zr106-ani-50 {
0% {
d:path("M194.5 296.6A72.5 72.5 0 0 1 187.2 286.2L187.2 286.3A72.5 72.5 0 0 0 194.5 296.6Z");
}
100% {
d:path("M179.1 309.5A92.5 92.5 0 0 1 169.9 296.2L187.2 286.3A72.5 72.5 0 0 0 194.5 296.6Z");
}
}
@keyframes zr106-ani-51 {
0% {
d:path("M204.5 276.3A52.5 52.5 0 0 1 200.7 268L200.7 268A52.5 52.5 0 0 0 204.5 276.2Z");
}
100% {
d:path("M187.2 286.3A72.5 72.5 0 0 1 181.9 274.8L200.7 268A52.5 52.5 0 0 0 204.5 276.2Z");
}
}
@keyframes zr106-ani-52 {
0% {
d:path("M187.2 286.3A72.5 72.5 0 0 1 181.9 274.8L181.9 274.8A72.5 72.5 0 0 0 187.2 286.2Z");
}
100% {
d:path("M169.9 296.3A92.5 92.5 0 0 1 163.1 281.6L181.9 274.8A72.5 72.5 0 0 0 187.2 286.2Z");
}
}
@keyframes zr106-ani-53 {
0% {
d:path("M200.7 268A52.5 52.5 0 0 1 198.3 259.1L198.3 259.1A52.5 52.5 0 0 0 200.7 268Z");
}
100% {
d:path("M181.9 274.8A72.5 72.5 0 0 1 178.6 262.6L198.3 259.1A52.5 52.5 0 0 0 200.7 268Z");
}
}
@keyframes zr106-ani-54 {
0% {
d:path("M181.9 274.8A72.5 72.5 0 0 1 178.6 262.6L178.6 262.6A72.5 72.5 0 0 0 181.9 274.8Z");
}
100% {
d:path("M163.1 281.6A92.5 92.5 0 0 1 158.9 266.1L178.6 262.6A72.5 72.5 0 0 0 181.9 274.8Z");
}
}
@keyframes zr106-ani-55 {
0% {
d:path("M198.3 259.1A52.5 52.5 0 0 1 197.5 250L197.5 250A52.5 52.5 0 0 0 198.3 259.1Z");
}
100% {
d:path("M178.6 262.6A72.5 72.5 0 0 1 177.5 250L197.5 250A52.5 52.5 0 0 0 198.3 259.1Z");
}
}
@keyframes zr106-ani-56 {
0% {
d:path("M178.6 262.6A72.5 72.5 0 0 1 177.5 250L177.5 250A72.5 72.5 0 0 0 178.6 262.6Z");
}
100% {
d:path("M158.9 266.1A92.5 92.5 0 0 1 157.5 250L177.5 250A72.5 72.5 0 0 0 178.6 262.6Z");
}
}
@keyframes zr106-ani-57 {
0% {
d:path("M197.5 250A52.5 52.5 0 0 1 198.3 240.9L198.3 240.9A52.5 52.5 0 0 0 197.5 250Z");
}
100% {
d:path("M177.5 250A72.5 72.5 0 0 1 178.6 237.4L198.3 240.9A52.5 52.5 0 0 0 197.5 250Z");
}
}
@keyframes zr106-ani-58 {
0% {
d:path("M177.5 250A72.5 72.5 0 0 1 178.6 237.4L178.6 237.4A72.5 72.5 0 0 0 177.5 250Z");
}
100% {
d:path("M157.5 250A92.5 92.5 0 0 1 158.9 233.9L178.6 237.4A72.5 72.5 0 0 0 177.5 250Z");
}
}
@keyframes zr106-ani-59 {
0% {
d:path("M218 244.4A32.5 32.5 0 0 1 238.9 219.5L238.9 219.5A32.5 32.5 0 0 0 218 244.4Z");
}
100% {
d:path("M198.3 240.9A52.5 52.5 0 0 1 232 200.7L238.9 219.5A32.5 32.5 0 0 0 218 244.4Z");
}
}
@keyframes zr106-ani-60 {
0% {
d:path("M198.3 240.9A52.5 52.5 0 0 1 204.5 223.7L204.5 223.8A52.5 52.5 0 0 0 198.3 240.9Z");
}
100% {
d:path("M178.6 237.4A72.5 72.5 0 0 1 187.2 213.7L204.5 223.8A52.5 52.5 0 0 0 198.3 240.9Z");
}
}
@keyframes zr106-ani-61 {
0% {
d:path("M178.6 237.4A72.5 72.5 0 0 1 187.2 213.7L187.2 213.8A72.5 72.5 0 0 0 178.6 237.4Z");
}
100% {
d:path("M158.9 233.9A92.5 92.5 0 0 1 169.9 203.7L187.2 213.8A72.5 72.5 0 0 0 178.6 237.4Z");
}
}
@keyframes zr106-ani-62 {
0% {
d:path("M158.9 233.9A92.5 92.5 0 0 1 169.9 203.7L169.9 203.8A92.5 92.5 0 0 0 158.9 233.9Z");
}
100% {
d:path("M139.2 230.5A112.5 112.5 0 0 1 152.6 193.7L169.9 203.8A92.5 92.5 0 0 0 158.9 233.9Z");
}
}
@keyframes zr106-ani-63 {
0% {
d:path("M139.2 230.5A112.5 112.5 0 0 1 152.6 193.7L152.6 193.8A112.5 112.5 0 0 0 139.2 230.5Z");
}
100% {
d:path("M119.5 227A132.5 132.5 0 0 1 135.3 183.7L152.6 193.8A112.5 112.5 0 0 0 139.2 230.5Z");
}
}
@keyframes zr106-ani-64 {
0% {
d:path("M119.5 227A132.5 132.5 0 0 1 135.3 183.7L135.3 183.8A132.5 132.5 0 0 0 119.5 227Z");
}
100% {
d:path("M99.8 223.5A152.5 152.5 0 0 1 117.9 173.7L135.3 183.8A132.5 132.5 0 0 0 119.5 227Z");
}
}
@keyframes zr106-ani-65 {
0% {
d:path("M99.8 223.5A152.5 152.5 0 0 1 106.7 197.8L106.7 197.8A152.5 152.5 0 0 0 99.8 223.5Z");
}
100% {
d:path("M80.1 220A172.5 172.5 0 0 1 87.9 191L106.7 197.8A152.5 152.5 0 0 0 99.8 223.5Z");
}
}
@keyframes zr106-ani-66 {
0% {
d:path("M80.1 220A172.5 172.5 0 0 1 87.9 191L87.9 191A172.5 172.5 0 0 0 80.1 220Z");
}
100% {
d:path("M60.4 216.6A192.5 192.5 0 0 1 69.1 184.2L87.9 191A172.5 172.5 0 0 0 80.1 220Z");
}
}
@keyframes zr106-ani-67 {
0% {
d:path("M60.4 216.6A192.5 192.5 0 0 1 69.1 184.2L69.1 184.2A192.5 192.5 0 0 0 60.4 216.6Z");
}
100% {
d:path("M40.7 213.1A212.5 212.5 0 0 1 50.3 177.3L69.1 184.2A192.5 192.5 0 0 0 60.4 216.6Z");
}
}
@keyframes zr106-ani-68 {
0% {
d:path("M106.7 197.8A152.5 152.5 0 0 1 117.9 173.8L117.9 173.8A152.5 152.5 0 0 0 106.7 197.8Z");
}
100% {
d:path("M87.9 191A172.5 172.5 0 0 1 100.6 163.8L117.9 173.8A152.5 152.5 0 0 0 106.7 197.8Z");
}
}
@keyframes zr106-ani-69 {
0% {
d:path("M87.9 191A172.5 172.5 0 0 1 100.6 163.8L100.6 163.8A172.5 172.5 0 0 0 87.9 191Z");
}
100% {
d:path("M69.1 184.2A192.5 192.5 0 0 1 83.3 153.8L100.6 163.8A172.5 172.5 0 0 0 87.9 191Z");
}
}
@keyframes zr106-ani-70 {
0% {
d:path("M69.1 184.2A192.5 192.5 0 0 1 83.3 153.8L83.3 153.8A192.5 192.5 0 0 0 69.1 184.2Z");
}
100% {
d:path("M50.3 177.3A212.5 212.5 0 0 1 66 143.8L83.3 153.8A192.5 192.5 0 0 0 69.1 184.2Z");
}
}
@keyframes zr106-ani-71 {
0% {
d:path("M204.5 223.8A52.5 52.5 0 0 1 216.3 209.8L216.3 209.8A52.5 52.5 0 0 0 204.5 223.7Z");
}
100% {
d:path("M187.2 213.8A72.5 72.5 0 0 1 203.4 194.5L216.3 209.8A52.5 52.5 0 0 0 204.5 223.7Z");
}
}
@keyframes zr106-ani-72 {
0% {
d:path("M187.2 213.8A72.5 72.5 0 0 1 203.4 194.5L203.4 194.5A72.5 72.5 0 0 0 187.2 213.7Z");
}
100% {
d:path("M169.9 203.8A92.5 92.5 0 0 1 190.5 179.1L203.4 194.5A72.5 72.5 0 0 0 187.2 213.7Z");
}
}
@keyframes zr106-ani-73 {
0% {
d:path("M169.9 203.8A92.5 92.5 0 0 1 190.5 179.1L190.5 179.1A92.5 92.5 0 0 0 169.9 203.7Z");
}
100% {
d:path("M152.6 193.8A112.5 112.5 0 0 1 177.7 163.8L190.5 179.1A92.5 92.5 0 0 0 169.9 203.7Z");
}
}
@keyframes zr106-ani-74 {
0% {
d:path("M152.6 193.8A112.5 112.5 0 0 1 177.7 163.8L177.7 163.8A112.5 112.5 0 0 0 152.6 193.7Z");
}
100% {
d:path("M135.3 183.8A132.5 132.5 0 0 1 164.8 148.5L177.7 163.8A112.5 112.5 0 0 0 152.6 193.7Z");
}
}
@keyframes zr106-ani-75 {
0% {
d:path("M135.3 183.8A132.5 132.5 0 0 1 164.8 148.5L164.8 148.5A132.5 132.5 0 0 0 135.3 183.7Z");
}
100% {
d:path("M117.9 173.8A152.5 152.5 0 0 1 152 133.2L164.8 148.5A132.5 132.5 0 0 0 135.3 183.7Z");
}
}
@keyframes zr106-ani-76 {
0% {
d:path("M117.9 173.8A152.5 152.5 0 0 1 152 133.2L152 133.2A152.5 152.5 0 0 0 117.9 173.7Z");
}
100% {
d:path("M100.6 163.8A172.5 172.5 0 0 1 139.1 117.9L152 133.2A152.5 152.5 0 0 0 117.9 173.7Z");
}
}
@keyframes zr106-ani-77 {
0% {
d:path("M100.6 163.8A172.5 172.5 0 0 1 139.1 117.9L139.1 117.9A172.5 172.5 0 0 0 100.6 163.7Z");
}
100% {
d:path("M83.3 153.8A192.5 192.5 0 0 1 126.3 102.5L139.1 117.9A172.5 172.5 0 0 0 100.6 163.7Z");
}
}
@keyframes zr106-ani-78 {
0% {
d:path("M83.3 153.8A192.5 192.5 0 0 1 102.5 126.3L102.5 126.3A192.5 192.5 0 0 0 83.3 153.8Z");
}
100% {
d:path("M66 143.8A212.5 212.5 0 0 1 87.2 113.4L102.5 126.3A192.5 192.5 0 0 0 83.3 153.8Z");
}
}
@keyframes zr106-ani-79 {
0% {
d:path("M102.5 126.3A192.5 192.5 0 0 1 126.3 102.5L126.3 102.5A192.5 192.5 0 0 0 102.5 126.3Z");
}
100% {
d:path("M87.2 113.4A212.5 212.5 0 0 1 113.4 87.2L126.3 102.5A192.5 192.5 0 0 0 102.5 126.3Z");
}
}
@keyframes zr106-ani-80 {
0% {
d:path("M216.3 209.8A52.5 52.5 0 0 1 223.8 204.5L223.7 204.5A52.5 52.5 0 0 0 216.3 209.8Z");
}
100% {
d:path("M203.4 194.5A72.5 72.5 0 0 1 213.8 187.2L223.7 204.5A52.5 52.5 0 0 0 216.3 209.8Z");
}
}
@keyframes zr106-ani-81 {
0% {
d:path("M203.4 194.5A72.5 72.5 0 0 1 213.8 187.2L213.7 187.2A72.5 72.5 0 0 0 203.4 194.5Z");
}
100% {
d:path("M190.5 179.1A92.5 92.5 0 0 1 203.8 169.9L213.7 187.2A72.5 72.5 0 0 0 203.4 194.5Z");
}
}
@keyframes zr106-ani-82 {
0% {
d:path("M190.5 179.1A92.5 92.5 0 0 1 203.8 169.9L203.7 169.9A92.5 92.5 0 0 0 190.5 179.1Z");
}
100% {
d:path("M177.7 163.8A112.5 112.5 0 0 1 193.8 152.6L203.7 169.9A92.5 92.5 0 0 0 190.5 179.1Z");
}
}
@keyframes zr106-ani-83 {
0% {
d:path("M177.7 163.8A112.5 112.5 0 0 1 193.8 152.6L193.7 152.6A112.5 112.5 0 0 0 177.7 163.8Z");
}
100% {
d:path("M164.8 148.5A132.5 132.5 0 0 1 183.8 135.3L193.7 152.6A112.5 112.5 0 0 0 177.7 163.8Z");
}
}
@keyframes zr106-ani-84 {
0% {
d:path("M164.8 148.5A132.5 132.5 0 0 1 183.8 135.3L183.7 135.3A132.5 132.5 0 0 0 164.8 148.5Z");
}
100% {
d:path("M152 133.2A152.5 152.5 0 0 1 173.8 117.9L183.7 135.3A132.5 132.5 0 0 0 164.8 148.5Z");
}
}
@keyframes zr106-ani-85 {
0% {
d:path("M152 133.2A152.5 152.5 0 0 1 173.8 117.9L173.7 117.9A152.5 152.5 0 0 0 152 133.2Z");
}
100% {
d:path("M139.1 117.9A172.5 172.5 0 0 1 163.8 100.6L173.7 117.9A152.5 152.5 0 0 0 152 133.2Z");
}
}
@keyframes zr106-ani-86 {
0% {
d:path("M139.1 117.9A172.5 172.5 0 0 1 163.8 100.6L163.7 100.6A172.5 172.5 0 0 0 139.1 117.9Z");
}
100% {
d:path("M126.3 102.5A192.5 192.5 0 0 1 153.8 83.3L163.7 100.6A172.5 172.5 0 0 0 139.1 117.9Z");
}
}
@keyframes zr106-ani-87 {
0% {
d:path("M126.3 102.5A192.5 192.5 0 0 1 153.8 83.3L153.7 83.3A192.5 192.5 0 0 0 126.3 102.5Z");
}
100% {
d:path("M113.4 87.2A212.5 212.5 0 0 1 143.8 66L153.7 83.3A192.5 192.5 0 0 0 126.3 102.5Z");
}
}
@keyframes zr106-ani-88 {
0% {
d:path("M223.7 204.5A52.5 52.5 0 0 1 232 200.7L232 200.7A52.5 52.5 0 0 0 223.8 204.5Z");
}
100% {
d:path("M213.7 187.2A72.5 72.5 0 0 1 225.2 181.9L232 200.7A52.5 52.5 0 0 0 223.8 204.5Z");
}
}
@keyframes zr106-ani-89 {
0% {
d:path("M213.7 187.2A72.5 72.5 0 0 1 225.2 181.9L225.2 181.9A72.5 72.5 0 0 0 213.8 187.2Z");
}
100% {
d:path("M203.7 169.9A92.5 92.5 0 0 1 218.4 163.1L225.2 181.9A72.5 72.5 0 0 0 213.8 187.2Z");
}
}
@keyframes zr106-ani-90 {
0% {
d:path("M203.7 169.9A92.5 92.5 0 0 1 218.4 163.1L218.4 163.1A92.5 92.5 0 0 0 203.8 169.9Z");
}
100% {
d:path("M193.7 152.6A112.5 112.5 0 0 1 211.5 144.3L218.4 163.1A92.5 92.5 0 0 0 203.8 169.9Z");
}
}
@keyframes zr106-ani-91 {
0% {
d:path("M193.7 152.6A112.5 112.5 0 0 1 211.5 144.3L211.5 144.3A112.5 112.5 0 0 0 193.8 152.6Z");
}
100% {
d:path("M183.7 135.3A132.5 132.5 0 0 1 204.7 125.5L211.5 144.3A112.5 112.5 0 0 0 193.8 152.6Z");
}
}
@keyframes zr106-ani-92 {
0% {
d:path("M183.7 135.3A132.5 132.5 0 0 1 204.7 125.5L204.7 125.5A132.5 132.5 0 0 0 183.8 135.3Z");
}
100% {
d:path("M173.7 117.9A152.5 152.5 0 0 1 197.8 106.7L204.7 125.5A132.5 132.5 0 0 0 183.8 135.3Z");
}
}
@keyframes zr106-ani-93 {
0% {
d:path("M245.7 238.3A12.5 12.5 0 0 1 250 237.5L250 237.5A12.5 12.5 0 0 0 245.7 238.3Z");
}
100% {
d:path("M238.9 219.5A32.5 32.5 0 0 1 250 217.5L250 237.5A12.5 12.5 0 0 0 245.7 238.3Z");
}
}
@keyframes zr106-ani-94 {
0% {
d:path("M238.9 219.5A32.5 32.5 0 0 1 250 217.5L250 217.5A32.5 32.5 0 0 0 238.9 219.5Z");
}
100% {
d:path("M232 200.7A52.5 52.5 0 0 1 250 197.5L250 217.5A32.5 32.5 0 0 0 238.9 219.5Z");
}
}
]]>

</style>
</svg>