<svg width="500" height="500" xmlns="http://www.w3.org/2000/svg" xmlns:xlink="http://www.w3.org/1999/xlink" version="1.1" baseProfile="full" viewBox="0 0 500 500">
<rect width="500" height="500" x="0" y="0" id="0" fill="none"></rect>
<path d="M250 212.5A37.5 37.5 0 0 1 256.2 287L252.1 262.3A12.5 12.5 0 0 0 250 237.5Z" fill="#C8C8C8" stroke="white" stroke-linejoin="bevel" class="zr138-cls-0"></path>
<path d="M250 187.5A62.5 62.5 0 0 1 307.2 275.1L284.3 265.1A37.5 37.5 0 0 0 250 212.5Z" fill="#C8C8C8" stroke="white" stroke-linejoin="bevel" class="zr138-cls-1"></path>
<path d="M250 162.5A87.5 87.5 0 0 1 323.3 202.1L302.3 215.8A62.5 62.5 0 0 0 250 187.5Z" fill="#C8C8C8" stroke="white" stroke-linejoin="bevel" class="zr138-cls-2"></path>
<path d="M323.3 202.1A87.5 87.5 0 0 1 330.1 285.1L307.2 275.1A62.5 62.5 0 0 0 302.3 215.8Z" fill="#C8C8C8" stroke="white" stroke-linejoin="bevel" class="zr138-cls-3"></path>
<path d="M307.2 275.1A62.5 62.5 0 0 1 279.7 305L267.8 283A37.5 37.5 0 0 0 284.3 265.1Z" fill="#C8C8C8" stroke="white" stroke-linejoin="bevel" class="zr138-cls-4"></path>
<path d="M279.7 305A62.5 62.5 0 0 1 260.3 311.6L256.2 287A37.5 37.5 0 0 0 267.8 283Z" fill="#C8C8C8" stroke="white" stroke-linejoin="bevel" class="zr138-cls-5"></path>
<path d="M256.2 287A37.5 37.5 0 0 1 237.8 214.5L245.9 238.2A12.5 12.5 0 0 0 252.1 262.3Z" fill="#C8C8C8" stroke="white" stroke-linejoin="bevel" class="zr138-cls-6"></path>
<path d="M260.3 311.6A62.5 62.5 0 0 1 189.4 234.7L213.6 240.8A37.5 37.5 0 0 0 256.2 287Z" fill="#ff4949" fill-opacity="0.5" stroke="#fff" stroke-width="4" stroke-opacity="0.5" stroke-linejoin="bevel" class="zr138-cls-7"></path>
<path d="M264.4 336.3A87.5 87.5 0 0 1 235.6 336.3L239.7 311.6A62.5 62.5 0 0 0 260.3 311.6Z" fill="#C8C8C8" stroke="white" stroke-linejoin="bevel" class="zr138-cls-8"></path>
<path d="M235.6 336.3A87.5 87.5 0 0 1 208.4 327L220.3 305A62.5 62.5 0 0 0 239.7 311.6Z" fill="#C8C8C8" stroke="white" stroke-linejoin="bevel" class="zr138-cls-9"></path>
<path d="M208.4 327A87.5 87.5 0 0 1 185.6 309.3L204 292.3A62.5 62.5 0 0 0 220.3 305Z" fill="#C8C8C8" stroke="white" stroke-linejoin="bevel" class="zr138-cls-10"></path>
<path d="M185.6 309.3A87.5 87.5 0 0 1 169.9 285.1L192.8 275.1A62.5 62.5 0 0 0 204 292.3Z" fill="#C8C8C8" stroke="white" stroke-linejoin="bevel" class="zr138-cls-11"></path>
<path d="M169.9 285.1A87.5 87.5 0 0 1 162.8 257.2L187.7 255.2A62.5 62.5 0 0 0 192.8 275.1Z" fill="#C8C8C8" stroke="white" stroke-linejoin="bevel" class="zr138-cls-12"></path>
<path d="M162.8 257.2A87.5 87.5 0 0 1 165.2 228.5L189.4 234.7A62.5 62.5 0 0 0 187.7 255.2Z" fill="#C8C8C8" stroke="white" stroke-linejoin="bevel" class="zr138-cls-13"></path>
<path d="M189.4 234.7A62.5 62.5 0 0 1 229.7 190.9L237.8 214.5A37.5 37.5 0 0 0 213.6 240.8Z" fill="#49ff49" fill-opacity="0.5" stroke="#fff" stroke-width="4" stroke-opacity="0.5" stroke-linejoin="bevel" class="zr138-cls-14"></path>
<path d="M165.2 228.5A87.5 87.5 0 0 1 176.7 202.1L197.7 215.8A62.5 62.5 0 0 0 189.4 234.7Z" fill="#C8C8C8" stroke="white" stroke-linejoin="bevel" class="zr138-cls-15"></path>
<path d="M176.7 202.1A87.5 87.5 0 0 1 196.3 181L211.6 200.7A62.5 62.5 0 0 0 197.7 215.8Z" fill="#C8C8C8" stroke="white" stroke-linejoin="bevel" class="zr138-cls-16"></path>
<path d="M196.3 181A87.5 87.5 0 0 1 221.6 167.2L229.7 190.9A62.5 62.5 0 0 0 211.6 200.7Z" fill="#C8C8C8" stroke="white" stroke-linejoin="bevel" class="zr138-cls-17"></path>
<path d="M237.8 214.5A37.5 37.5 0 0 1 250 212.5L250 237.5A12.5 12.5 0 0 0 245.9 238.2Z" fill="#000" stroke="white" stroke-linejoin="bevel" class="zr138-cls-18"></path>
<path d="M229.7 190.9A62.5 62.5 0 0 1 250 187.5L250 212.5A37.5 37.5 0 0 0 237.8 214.5Z" fill="#4949CD" fill-opacity="0.5" stroke="#fff" stroke-width="4" stroke-opacity="0.5" stroke-linejoin="bevel" class="zr138-cls-19"></path>
<path d="M221.6 167.2A87.5 87.5 0 0 1 250 162.5L250 187.5A62.5 62.5 0 0 0 229.7 190.9Z" fill="#000" stroke="white" stroke-linejoin="bevel" class="zr138-cls-20"></path>
<path d="M213.5 143.6A112.5 112.5 0 0 1 250 137.5L250 162.5A87.5 87.5 0 0 0 221.6 167.2Z" fill="#000" stroke="white" stroke-linejoin="bevel" class="zr138-cls-21"></path>
<path d="M205.4 120A137.5 137.5 0 0 1 250 112.5L250 137.5A112.5 112.5 0 0 0 213.5 143.6Z" fill="#4949CD" fill-opacity="0.5" stroke="#fff" stroke-width="4" stroke-opacity="0.5" stroke-linejoin="bevel" class="zr138-cls-22"></path>
<path d="M197.2 96.3A162.5 162.5 0 0 1 250 87.5L250 112.5A137.5 137.5 0 0 0 205.4 120Z" fill="#F3C142" stroke="white" stroke-linejoin="bevel" class="zr138-cls-23"></path>
<path d="M189.1 72.7A187.5 187.5 0 0 1 250 62.5L250 87.5A162.5 162.5 0 0 0 197.2 96.3Z" fill="#000" stroke="white" stroke-linejoin="bevel" class="zr138-cls-24"></path>
<path d="M181 49A212.5 212.5 0 0 1 250 37.5L250 62.5A187.5 187.5 0 0 0 189.1 72.7Z" fill="#000" stroke="white" stroke-linejoin="bevel" class="zr138-cls-25"></path>
<text dominant-baseline="central" text-anchor="middle" style="font-size:12px;font-family:sans-serif;" transform="matrix(0.083,0.997,-0.997,0.083,274.9146,247.9355)" fill="#333">info</text>
<text dominant-baseline="central" text-anchor="middle" style="font-size:10px;font-family:sans-serif;" transform="matrix(0.547,0.837,-0.837,0.547,291.8583,222.6526)" fill="#333">contact</text>
<text dominant-baseline="central" text-anchor="middle" style="font-size:12px;font-family:sans-serif;" transform="matrix(0.879,0.476,-0.476,0.879,285.6961,184.0395)" fill="#333">name</text>
<text dominant-baseline="central" text-anchor="middle" style="font-size:12px;font-family:sans-serif;" transform="matrix(0.083,0.997,-0.997,0.083,324.7438,243.8065)" fill="#333">email</text>
<text dominant-baseline="central" text-anchor="middle" style="font-size:12px;font-family:sans-serif;" transform="matrix(0.677,-0.736,0.736,0.677,286.7862,283.8641)" fill="#333">title</text>
<text dominant-baseline="central" text-anchor="middle" style="font-size:12px;font-family:sans-serif;" transform="matrix(0.245,0.969,-0.969,0.245,225.765,256.1371)" fill="#333">tags</text>
<text dominant-baseline="central" text-anchor="middle" style="font-size:12px;font-family:sans-serif;" transform="matrix(0.946,0.325,-0.325,0.946,225.6475,320.9363)" fill="#333">drug</text>
<text dominant-baseline="central" text-anchor="middle" style="font-size:9px;font-family:sans-serif;" transform="matrix(0.245,0.969,-0.969,0.245,177.295,268.4114)" fill="#333">annotation</text>
<text dominant-baseline="central" text-anchor="middle" style="font-size:10px;font-family:sans-serif;" transform="matrix(0.677,-0.736,0.736,0.677,194.8207,199.2039)" fill="#333">chemical</text>
<text dominant-baseline="central" text-anchor="middle" style="font-size:12px;font-family:sans-serif;" transform="matrix(0.986,-0.165,0.165,0.986,245.8851,225.341)" fill="#ccc" stroke="#000" stroke-width="2" paint-order="stroke" stroke-miterlimit="2">paths</text>
<text dominant-baseline="central" text-anchor="middle" style="font-size:9px;font-family:sans-serif;" transform="matrix(0.986,-0.165,0.165,0.986,237.6554,176.0229)" fill="#ccc" stroke="#000" stroke-width="2" paint-order="stroke" stroke-miterlimit="2">/association</text>
<text dominant-baseline="central" text-anchor="middle" style="font-size:9px;font-family:sans-serif;" transform="matrix(0.986,-0.165,0.165,0.986,233.5405,151.3639)" fill="#ccc" stroke="#000" stroke-width="2" paint-order="stroke" stroke-miterlimit="2">operations</text>
<text dominant-baseline="central" text-anchor="middle" style="font-size:12px;font-family:sans-serif;" transform="matrix(0.986,-0.165,0.165,0.986,225.3108,102.0458)" fill="#333">POST</text>
<text dominant-baseline="central" text-anchor="middle" style="font-size:9px;font-family:sans-serif;" transform="matrix(0.986,-0.165,0.165,0.986,221.1959,77.3868)" fill="#ccc" stroke="#000" stroke-width="2" paint-order="stroke" stroke-miterlimit="2">requestBody</text>
<text dominant-baseline="central" text-anchor="middle" style="font-size:10px;font-family:sans-serif;" transform="matrix(0.986,-0.165,0.165,0.986,217.0811,52.7277)" fill="#ccc" stroke="#000" stroke-width="2" paint-order="stroke" stroke-miterlimit="2">required</text>
<path d="M-14.8 -16l66.6 0l0 32l-66.6 0Z" transform="translate(448.253 16)" fill="none" stroke="#ccc" stroke-width="0"></path>
<path d="M-7.3 -1.8L-0.1 4.8L7.3 -1.6M-7.3 4.3L-7.3 8.5L7.1 8.5L7.1 4.3M-0.1 4.7L-0.1 -8.5" transform="translate(448.253 16)" fill="none" stroke="#666"></path>
<path d="M-7.9 1M5.1 -3.4L8.1 -3.4L8.1 -6.4M8 -3C6.7 -6.4 3.2 -8.9 -1 -8.4C-5.3 -8 -8.6 -4.2 -8.4 0.2M-5.1 3.4L-8.1 3.4L-8.1 6.4M-8 3C-6.7 6.4 -3.2 8.9 1 8.4C5.3 8 8.6 4.2 8.4 -0.2" transform="translate(484.0476 16)" fill="none" stroke="#666"></path>
<style ><![CDATA[
.zr138-cls-0 {
animation:zr138-ani-0 1s cubic-bezier(0.65,0,0.35,1) both;
}
.zr138-cls-1 {
animation:zr138-ani-1 1s cubic-bezier(0.65,0,0.35,1) both;
}
.zr138-cls-2 {
animation:zr138-ani-2 1s cubic-bezier(0.65,0,0.35,1) both;
}
.zr138-cls-3 {
animation:zr138-ani-3 1s cubic-bezier(0.65,0,0.35,1) both;
}
.zr138-cls-4 {
animation:zr138-ani-4 1s cubic-bezier(0.65,0,0.35,1) both;
}
.zr138-cls-5 {
animation:zr138-ani-5 1s cubic-bezier(0.65,0,0.35,1) both;
}
.zr138-cls-6 {
animation:zr138-ani-6 1s cubic-bezier(0.65,0,0.35,1) both;
}
.zr138-cls-7 {
animation:zr138-ani-7 1s cubic-bezier(0.65,0,0.35,1) both;
}
.zr138-cls-8 {
animation:zr138-ani-8 1s cubic-bezier(0.65,0,0.35,1) both;
}
.zr138-cls-9 {
animation:zr138-ani-9 1s cubic-bezier(0.65,0,0.35,1) both;
}
.zr138-cls-10 {
animation:zr138-ani-10 1s cubic-bezier(0.65,0,0.35,1) both;
}
.zr138-cls-11 {
animation:zr138-ani-11 1s cubic-bezier(0.65,0,0.35,1) both;
}
.zr138-cls-12 {
animation:zr138-ani-12 1s cubic-bezier(0.65,0,0.35,1) both;
}
.zr138-cls-13 {
animation:zr138-ani-13 1s cubic-bezier(0.65,0,0.35,1) both;
}
.zr138-cls-14 {
animation:zr138-ani-14 1s cubic-bezier(0.65,0,0.35,1) both;
}
.zr138-cls-15 {
animation:zr138-ani-15 1s cubic-bezier(0.65,0,0.35,1) both;
}
.zr138-cls-16 {
animation:zr138-ani-16 1s cubic-bezier(0.65,0,0.35,1) both;
}
.zr138-cls-17 {
animation:zr138-ani-17 1s cubic-bezier(0.65,0,0.35,1) both;
}
.zr138-cls-18 {
animation:zr138-ani-18 1s cubic-bezier(0.65,0,0.35,1) both;
}
.zr138-cls-19 {
animation:zr138-ani-19 1s cubic-bezier(0.65,0,0.35,1) both;
}
.zr138-cls-20 {
animation:zr138-ani-20 1s cubic-bezier(0.65,0,0.35,1) both;
}
.zr138-cls-21 {
animation:zr138-ani-21 1s cubic-bezier(0.65,0,0.35,1) both;
}
.zr138-cls-22 {
animation:zr138-ani-22 1s cubic-bezier(0.65,0,0.35,1) both;
}
.zr138-cls-23 {
animation:zr138-ani-23 1s cubic-bezier(0.65,0,0.35,1) both;
}
.zr138-cls-24 {
animation:zr138-ani-24 1s cubic-bezier(0.65,0,0.35,1) both;
}
.zr138-cls-25 {
animation:zr138-ani-25 1s cubic-bezier(0.65,0,0.35,1) both;
}
@keyframes zr138-ani-0 {
0% {
d:path("M250 237.5A12.5 12.5 0 0 1 252.1 262.3L252.1 262.3A12.5 12.5 0 0 0 250 237.5Z");
}
100% {
d:path("M250 212.5A37.5 37.5 0 0 1 256.2 287L252.1 262.3A12.5 12.5 0 0 0 250 237.5Z");
}
}
@keyframes zr138-ani-1 {
0% {
d:path("M250 212.5A37.5 37.5 0 0 1 284.3 265.1A37.5 37.5 0 0 0 250 212.5Z");
}
100% {
d:path("M250 187.5A62.5 62.5 0 0 1 307.2 275.1L284.3 265.1A37.5 37.5 0 0 0 250 212.5Z");
}
}
@keyframes zr138-ani-2 {
0% {
d:path("M250 187.5A62.5 62.5 0 0 1 302.3 215.8A62.5 62.5 0 0 0 250 187.5Z");
}
100% {
d:path("M250 162.5A87.5 87.5 0 0 1 323.3 202.1L302.3 215.8A62.5 62.5 0 0 0 250 187.5Z");
}
}
@keyframes zr138-ani-3 {
0% {
d:path("M302.3 215.8A62.5 62.5 0 0 1 307.2 275.1L307.2 275.1A62.5 62.5 0 0 0 302.3 215.8Z");
}
100% {
d:path("M323.3 202.1A87.5 87.5 0 0 1 330.1 285.1L307.2 275.1A62.5 62.5 0 0 0 302.3 215.8Z");
}
}
@keyframes zr138-ani-4 {
0% {
d:path("M284.3 265.1A37.5 37.5 0 0 1 267.8 283L267.8 283A37.5 37.5 0 0 0 284.3 265.1Z");
}
100% {
d:path("M307.2 275.1A62.5 62.5 0 0 1 279.7 305L267.8 283A37.5 37.5 0 0 0 284.3 265.1Z");
}
}
@keyframes zr138-ani-5 {
0% {
d:path("M267.8 283A37.5 37.5 0 0 1 256.2 287L256.2 287A37.5 37.5 0 0 0 267.8 283Z");
}
100% {
d:path("M279.7 305A62.5 62.5 0 0 1 260.3 311.6L256.2 287A37.5 37.5 0 0 0 267.8 283Z");
}
}
@keyframes zr138-ani-6 {
0% {
d:path("M252.1 262.3A12.5 12.5 0 0 1 245.9 238.2L245.9 238.2A12.5 12.5 0 0 0 252.1 262.3Z");
}
100% {
d:path("M256.2 287A37.5 37.5 0 0 1 237.8 214.5L245.9 238.2A12.5 12.5 0 0 0 252.1 262.3Z");
}
}
@keyframes zr138-ani-7 {
0% {
d:path("M256.2 287A37.5 37.5 0 0 1 213.6 240.8L213.6 240.8A37.5 37.5 0 0 0 256.2 287Z");
}
100% {
d:path("M260.3 311.6A62.5 62.5 0 0 1 189.4 234.7L213.6 240.8A37.5 37.5 0 0 0 256.2 287Z");
}
}
@keyframes zr138-ani-8 {
0% {
d:path("M260.3 311.6A62.5 62.5 0 0 1 239.7 311.6L239.7 311.6A62.5 62.5 0 0 0 260.3 311.6Z");
}
100% {
d:path("M264.4 336.3A87.5 87.5 0 0 1 235.6 336.3L239.7 311.6A62.5 62.5 0 0 0 260.3 311.6Z");
}
}
@keyframes zr138-ani-9 {
0% {
d:path("M239.7 311.6A62.5 62.5 0 0 1 220.3 305L220.3 305A62.5 62.5 0 0 0 239.7 311.6Z");
}
100% {
d:path("M235.6 336.3A87.5 87.5 0 0 1 208.4 327L220.3 305A62.5 62.5 0 0 0 239.7 311.6Z");
}
}
@keyframes zr138-ani-10 {
0% {
d:path("M220.3 305A62.5 62.5 0 0 1 204 292.3L204 292.3A62.5 62.5 0 0 0 220.3 305Z");
}
100% {
d:path("M208.4 327A87.5 87.5 0 0 1 185.6 309.3L204 292.3A62.5 62.5 0 0 0 220.3 305Z");
}
}
@keyframes zr138-ani-11 {
0% {
d:path("M204 292.3A62.5 62.5 0 0 1 192.8 275.1L192.8 275.1A62.5 62.5 0 0 0 204 292.3Z");
}
100% {
d:path("M185.6 309.3A87.5 87.5 0 0 1 169.9 285.1L192.8 275.1A62.5 62.5 0 0 0 204 292.3Z");
}
}
@keyframes zr138-ani-12 {
0% {
d:path("M192.8 275.1A62.5 62.5 0 0 1 187.7 255.2L187.7 255.2A62.5 62.5 0 0 0 192.8 275.1Z");
}
100% {
d:path("M169.9 285.1A87.5 87.5 0 0 1 162.8 257.2L187.7 255.2A62.5 62.5 0 0 0 192.8 275.1Z");
}
}
@keyframes zr138-ani-13 {
0% {
d:path("M187.7 255.2A62.5 62.5 0 0 1 189.4 234.7L189.4 234.7A62.5 62.5 0 0 0 187.7 255.2Z");
}
100% {
d:path("M162.8 257.2A87.5 87.5 0 0 1 165.2 228.5L189.4 234.7A62.5 62.5 0 0 0 187.7 255.2Z");
}
}
@keyframes zr138-ani-14 {
0% {
d:path("M213.6 240.8A37.5 37.5 0 0 1 237.8 214.5L237.8 214.5A37.5 37.5 0 0 0 213.6 240.8Z");
}
100% {
d:path("M189.4 234.7A62.5 62.5 0 0 1 229.7 190.9L237.8 214.5A37.5 37.5 0 0 0 213.6 240.8Z");
}
}
@keyframes zr138-ani-15 {
0% {
d:path("M189.4 234.7A62.5 62.5 0 0 1 197.7 215.8L197.7 215.8A62.5 62.5 0 0 0 189.4 234.7Z");
}
100% {
d:path("M165.2 228.5A87.5 87.5 0 0 1 176.7 202.1L197.7 215.8A62.5 62.5 0 0 0 189.4 234.7Z");
}
}
@keyframes zr138-ani-16 {
0% {
d:path("M197.7 215.8A62.5 62.5 0 0 1 211.6 200.7L211.6 200.7A62.5 62.5 0 0 0 197.7 215.8Z");
}
100% {
d:path("M176.7 202.1A87.5 87.5 0 0 1 196.3 181L211.6 200.7A62.5 62.5 0 0 0 197.7 215.8Z");
}
}
@keyframes zr138-ani-17 {
0% {
d:path("M211.6 200.7A62.5 62.5 0 0 1 229.7 190.9L229.7 190.9A62.5 62.5 0 0 0 211.6 200.7Z");
}
100% {
d:path("M196.3 181A87.5 87.5 0 0 1 221.6 167.2L229.7 190.9A62.5 62.5 0 0 0 211.6 200.7Z");
}
}
@keyframes zr138-ani-18 {
0% {
d:path("M245.9 238.2A12.5 12.5 0 0 1 250 237.5L250 237.5A12.5 12.5 0 0 0 245.9 238.2Z");
}
100% {
d:path("M237.8 214.5A37.5 37.5 0 0 1 250 212.5L250 237.5A12.5 12.5 0 0 0 245.9 238.2Z");
}
}
@keyframes zr138-ani-19 {
0% {
d:path("M237.8 214.5A37.5 37.5 0 0 1 250 212.5L250 212.5A37.5 37.5 0 0 0 237.8 214.5Z");
}
100% {
d:path("M229.7 190.9A62.5 62.5 0 0 1 250 187.5L250 212.5A37.5 37.5 0 0 0 237.8 214.5Z");
}
}
@keyframes zr138-ani-20 {
0% {
d:path("M229.7 190.9A62.5 62.5 0 0 1 250 187.5L250 187.5A62.5 62.5 0 0 0 229.7 190.9Z");
}
100% {
d:path("M221.6 167.2A87.5 87.5 0 0 1 250 162.5L250 187.5A62.5 62.5 0 0 0 229.7 190.9Z");
}
}
@keyframes zr138-ani-21 {
0% {
d:path("M221.6 167.2A87.5 87.5 0 0 1 250 162.5L250 162.5A87.5 87.5 0 0 0 221.6 167.2Z");
}
100% {
d:path("M213.5 143.6A112.5 112.5 0 0 1 250 137.5L250 162.5A87.5 87.5 0 0 0 221.6 167.2Z");
}
}
@keyframes zr138-ani-22 {
0% {
d:path("M213.5 143.6A112.5 112.5 0 0 1 250 137.5L250 137.5A112.5 112.5 0 0 0 213.5 143.6Z");
}
100% {
d:path("M205.4 120A137.5 137.5 0 0 1 250 112.5L250 137.5A112.5 112.5 0 0 0 213.5 143.6Z");
}
}
@keyframes zr138-ani-23 {
0% {
d:path("M205.4 120A137.5 137.5 0 0 1 250 112.5L250 112.5A137.5 137.5 0 0 0 205.4 120Z");
}
100% {
d:path("M197.2 96.3A162.5 162.5 0 0 1 250 87.5L250 112.5A137.5 137.5 0 0 0 205.4 120Z");
}
}
@keyframes zr138-ani-24 {
0% {
d:path("M197.2 96.3A162.5 162.5 0 0 1 250 87.5L250 87.5A162.5 162.5 0 0 0 197.2 96.3Z");
}
100% {
d:path("M189.1 72.7A187.5 187.5 0 0 1 250 62.5L250 87.5A162.5 162.5 0 0 0 197.2 96.3Z");
}
}
@keyframes zr138-ani-25 {
0% {
d:path("M189.1 72.7A187.5 187.5 0 0 1 250 62.5L250 62.5A187.5 187.5 0 0 0 189.1 72.7Z");
}
100% {
d:path("M181 49A212.5 212.5 0 0 1 250 37.5L250 62.5A187.5 187.5 0 0 0 189.1 72.7Z");
}
}
]]>

</style>
</svg>