<svg width="500" height="500" xmlns="http://www.w3.org/2000/svg" xmlns:xlink="http://www.w3.org/1999/xlink" version="1.1" baseProfile="full" viewBox="0 0 500 500">
<rect width="500" height="500" x="0" y="0" id="0" fill="none"></rect>
<path d="M250 220.8A29.2 29.2 0 1 1 234.1 225.5L243.2 239.5A12.5 12.5 0 1 0 250 237.5Z" fill="#C8C8C8" stroke="white" stroke-linejoin="bevel" class="zr68-cls-0"></path>
<path d="M250 204.2A45.8 45.8 0 1 1 222.8 213.1L232.7 226.5A29.2 29.2 0 1 0 250 220.8Z" fill="#C8C8C8" stroke="white" stroke-linejoin="bevel" class="zr68-cls-1"></path>
<path d="M222.8 213.1A45.8 45.8 0 0 1 225 211.6L234.1 225.5A29.2 29.2 0 0 0 232.7 226.5Z" fill="#C8C8C8" stroke="white" stroke-linejoin="bevel" class="zr68-cls-2"></path>
<path d="M234.1 225.5A29.2 29.2 0 0 1 250 220.8L250 237.5A12.5 12.5 0 0 0 243.2 239.5Z" fill="#000" stroke="white" stroke-linejoin="bevel" class="zr68-cls-3"></path>
<path d="M225 211.6A45.8 45.8 0 0 1 250 204.2L250 220.8A29.2 29.2 0 0 0 234.1 225.5Z" fill="#4949CD" fill-opacity="0.5" stroke="#fff" stroke-width="4" stroke-opacity="0.5" stroke-linejoin="bevel" class="zr68-cls-4"></path>
<path d="M215.9 197.6A62.5 62.5 0 0 1 246.4 187.6L247.4 204.2A45.8 45.8 0 0 0 225 211.6Z" fill="#000" stroke="white" stroke-linejoin="bevel" class="zr68-cls-5"></path>
<path d="M206.9 183.6A79.2 79.2 0 0 1 245.4 171L246.4 187.6A62.5 62.5 0 0 0 215.9 197.6Z" fill="#000" stroke="white" stroke-linejoin="bevel" class="zr68-cls-6"></path>
<path d="M197.8 169.7A95.8 95.8 0 0 1 244.5 154.3L245.4 171A79.2 79.2 0 0 0 206.9 183.6Z" fill="#4949CD" fill-opacity="0.5" stroke="#fff" stroke-width="4" stroke-opacity="0.5" stroke-linejoin="bevel" class="zr68-cls-7"></path>
<path d="M188.7 155.7A112.5 112.5 0 0 1 243.5 137.7L244.5 154.3A95.8 95.8 0 0 0 197.8 169.7Z" fill="#F3C142" stroke="white" stroke-linejoin="bevel" class="zr68-cls-8"></path>
<path d="M179.6 141.7A129.2 129.2 0 0 1 242.6 121L243.5 137.7A112.5 112.5 0 0 0 188.7 155.7Z" fill="#000" stroke="white" stroke-linejoin="bevel" class="zr68-cls-9"></path>
<path d="M170.5 127.7A145.8 145.8 0 0 1 216.7 108L220.5 124.3A129.2 129.2 0 0 0 179.6 141.7Z" fill="#4949CD" fill-opacity="0.5" stroke="#fff" stroke-width="4" stroke-opacity="0.5" stroke-linejoin="bevel" class="zr68-cls-10"></path>
<path d="M161.4 113.8A162.5 162.5 0 0 1 212.9 91.8L216.7 108A145.8 145.8 0 0 0 170.5 127.7Z" fill="#000" stroke="white" stroke-linejoin="bevel" class="zr68-cls-11"></path>
<path d="M152.3 99.8A179.2 179.2 0 0 1 179.7 85.2L186.2 100.6A162.5 162.5 0 0 0 161.4 113.8Z" fill="#C8C8C8" stroke="white" stroke-linejoin="bevel" class="zr68-cls-12"></path>
<path d="M179.7 85.2A179.2 179.2 0 0 1 209.1 75.6L212.9 91.8A162.5 162.5 0 0 0 186.2 100.6Z" fill="#000" stroke="white" stroke-linejoin="bevel" class="zr68-cls-13"></path>
<path d="M173.1 69.9A195.8 195.8 0 0 1 194.3 62.2L199.1 78.2A179.2 179.2 0 0 0 179.7 85.2Z" fill="#49ff49" fill-opacity="0.5" stroke="#fff" stroke-width="4" stroke-opacity="0.5" stroke-linejoin="bevel" class="zr68-cls-14"></path>
<path d="M166.6 54.6A212.5 212.5 0 0 1 189.6 46.3L194.3 62.2A195.8 195.8 0 0 0 173.1 69.9Z" fill="#000" stroke="white" stroke-linejoin="bevel" class="zr68-cls-15"></path>
<path d="M194.3 62.2A195.8 195.8 0 0 1 205.2 59.3L209.1 75.6A179.2 179.2 0 0 0 199.1 78.2Z" fill="#ff4949" fill-opacity="0.5" stroke="#fff" stroke-width="4" stroke-opacity="0.5" stroke-linejoin="bevel" class="zr68-cls-16"></path>
<path d="M189.6 46.3A212.5 212.5 0 0 1 201.4 43.1L205.2 59.3A195.8 195.8 0 0 0 194.3 62.2Z" fill="#000" stroke="white" stroke-linejoin="bevel" class="zr68-cls-17"></path>
<path d="M216.7 108A145.8 145.8 0 0 1 233.2 105.1L235.1 121.7A129.2 129.2 0 0 0 220.5 124.3Z" fill="#ff4949" fill-opacity="0.5" stroke="#fff" stroke-width="4" stroke-opacity="0.5" stroke-linejoin="bevel" class="zr68-cls-18"></path>
<path d="M212.9 91.8A162.5 162.5 0 0 1 231.3 88.6L233.2 105.1A145.8 145.8 0 0 0 216.7 108Z" fill="#000" stroke="white" stroke-linejoin="bevel" class="zr68-cls-19"></path>
<path d="M233.2 105.1A145.8 145.8 0 0 1 241.6 104.4L242.6 121A129.2 129.2 0 0 0 235.1 121.7Z" fill="#49ff49" fill-opacity="0.5" stroke="#fff" stroke-width="4" stroke-opacity="0.5" stroke-linejoin="bevel" class="zr68-cls-20"></path>
<path d="M231.3 88.6A162.5 162.5 0 0 1 240.6 87.8L241.6 104.4A145.8 145.8 0 0 0 233.2 105.1Z" fill="#000" stroke="white" stroke-linejoin="bevel" class="zr68-cls-21"></path>
<path d="M246.4 187.6A62.5 62.5 0 0 1 250 187.5L250 204.2A45.8 45.8 0 0 0 247.4 204.2Z" fill="#000" stroke="white" stroke-linejoin="bevel" class="zr68-cls-22"></path>
<path d="M245.4 171A79.2 79.2 0 0 1 250 170.8L250 187.5A62.5 62.5 0 0 0 246.4 187.6Z" fill="#000" stroke="white" stroke-linejoin="bevel" class="zr68-cls-23"></path>
<path d="M244.5 154.3A95.8 95.8 0 0 1 250 154.2L250 170.8A79.2 79.2 0 0 0 245.4 171Z" fill="#4949CD" fill-opacity="0.5" stroke="#fff" stroke-width="4" stroke-opacity="0.5" stroke-linejoin="bevel" class="zr68-cls-24"></path>
<path d="M243.5 137.7A112.5 112.5 0 0 1 250 137.5L250 154.2A95.8 95.8 0 0 0 244.5 154.3Z" fill="#F3C142" stroke="white" stroke-linejoin="bevel" class="zr68-cls-25"></path>
<path d="M242.6 121A129.2 129.2 0 0 1 250 120.8L250 137.5A112.5 112.5 0 0 0 243.5 137.7Z" fill="#C8C8C8" stroke="white" stroke-linejoin="bevel" class="zr68-cls-26"></path>
<text dominant-baseline="central" text-anchor="middle" style="font-size:12px;font-family:sans-serif;" transform="matrix(0.959,-0.284,0.284,0.959,255.9218,269.974)" fill="#333">info</text>
<text dominant-baseline="central" text-anchor="middle" style="font-size:10px;font-family:sans-serif;" transform="matrix(0.95,-0.312,0.312,0.95,261.6909,285.6311)" fill="#333">version</text>
<text dominant-baseline="central" text-anchor="middle" style="font-size:12px;font-family:sans-serif;" transform="matrix(0.959,-0.284,0.284,0.959,244.0782,230.026)" fill="#ccc" stroke="#000" stroke-width="2" paint-order="stroke" stroke-miterlimit="2">paths</text>
<text dominant-baseline="central" text-anchor="middle" style="font-size:9px;font-family:sans-serif;" transform="matrix(0.95,-0.312,0.312,0.95,227.9172,182.6969)" fill="#ccc" stroke="#000" stroke-width="2" paint-order="stroke" stroke-miterlimit="2">operations</text>
<text dominant-baseline="central" text-anchor="middle" style="font-size:12px;font-family:sans-serif;" transform="matrix(0.95,-0.312,0.312,0.95,217.5253,151.0248)" fill="#333">POST</text>
<text dominant-baseline="central" text-anchor="middle" style="font-size:10px;font-family:sans-serif;" transform="matrix(0.95,-0.312,0.312,0.95,212.3294,135.1888)" fill="#ccc" stroke="#000" stroke-width="2" paint-order="stroke" stroke-miterlimit="2">responses</text>
<text dominant-baseline="central" text-anchor="middle" style="font-size:12px;font-family:sans-serif;" transform="matrix(0.92,-0.393,0.393,0.92,189.467,108.2145)" fill="#ccc" stroke="#000" stroke-width="2" paint-order="stroke" stroke-miterlimit="2">400</text>
<path d="M-14.8 -16l66.6 0l0 32l-66.6 0Z" transform="translate(448.253 16)" fill="none" stroke="#ccc" stroke-width="0"></path>
<path d="M-7.3 -1.8L-0.1 4.8L7.3 -1.6M-7.3 4.3L-7.3 8.5L7.1 8.5L7.1 4.3M-0.1 4.7L-0.1 -8.5" transform="translate(448.253 16)" fill="none" stroke="#666"></path>
<path d="M-7.9 1M5.1 -3.4L8.1 -3.4L8.1 -6.4M8 -3C6.7 -6.4 3.2 -8.9 -1 -8.4C-5.3 -8 -8.6 -4.2 -8.4 0.2M-5.1 3.4L-8.1 3.4L-8.1 6.4M-8 3C-6.7 6.4 -3.2 8.9 1 8.4C5.3 8 8.6 4.2 8.4 -0.2" transform="translate(484.0476 16)" fill="none" stroke="#666"></path>
<style ><![CDATA[
.zr68-cls-0 {
animation:zr68-ani-0 1s cubic-bezier(0.65,0,0.35,1) both;
}
.zr68-cls-1 {
animation:zr68-ani-1 1s cubic-bezier(0.65,0,0.35,1) both;
}
.zr68-cls-2 {
animation:zr68-ani-2 1s cubic-bezier(0.65,0,0.35,1) both;
}
.zr68-cls-3 {
animation:zr68-ani-3 1s cubic-bezier(0.65,0,0.35,1) both;
}
.zr68-cls-4 {
animation:zr68-ani-4 1s cubic-bezier(0.65,0,0.35,1) both;
}
.zr68-cls-5 {
animation:zr68-ani-5 1s cubic-bezier(0.65,0,0.35,1) both;
}
.zr68-cls-6 {
animation:zr68-ani-6 1s cubic-bezier(0.65,0,0.35,1) both;
}
.zr68-cls-7 {
animation:zr68-ani-7 1s cubic-bezier(0.65,0,0.35,1) both;
}
.zr68-cls-8 {
animation:zr68-ani-8 1s cubic-bezier(0.65,0,0.35,1) both;
}
.zr68-cls-9 {
animation:zr68-ani-9 1s cubic-bezier(0.65,0,0.35,1) both;
}
.zr68-cls-10 {
animation:zr68-ani-10 1s cubic-bezier(0.65,0,0.35,1) both;
}
.zr68-cls-11 {
animation:zr68-ani-11 1s cubic-bezier(0.65,0,0.35,1) both;
}
.zr68-cls-12 {
animation:zr68-ani-12 1s cubic-bezier(0.65,0,0.35,1) both;
}
.zr68-cls-13 {
animation:zr68-ani-13 1s cubic-bezier(0.65,0,0.35,1) both;
}
.zr68-cls-14 {
animation:zr68-ani-14 1s cubic-bezier(0.65,0,0.35,1) both;
}
.zr68-cls-15 {
animation:zr68-ani-15 1s cubic-bezier(0.65,0,0.35,1) both;
}
.zr68-cls-16 {
animation:zr68-ani-16 1s cubic-bezier(0.65,0,0.35,1) both;
}
.zr68-cls-17 {
animation:zr68-ani-17 1s cubic-bezier(0.65,0,0.35,1) both;
}
.zr68-cls-18 {
animation:zr68-ani-18 1s cubic-bezier(0.65,0,0.35,1) both;
}
.zr68-cls-19 {
animation:zr68-ani-19 1s cubic-bezier(0.65,0,0.35,1) both;
}
.zr68-cls-20 {
animation:zr68-ani-20 1s cubic-bezier(0.65,0,0.35,1) both;
}
.zr68-cls-21 {
animation:zr68-ani-21 1s cubic-bezier(0.65,0,0.35,1) both;
}
.zr68-cls-22 {
animation:zr68-ani-22 1s cubic-bezier(0.65,0,0.35,1) both;
}
.zr68-cls-23 {
animation:zr68-ani-23 1s cubic-bezier(0.65,0,0.35,1) both;
}
.zr68-cls-24 {
animation:zr68-ani-24 1s cubic-bezier(0.65,0,0.35,1) both;
}
.zr68-cls-25 {
animation:zr68-ani-25 1s cubic-bezier(0.65,0,0.35,1) both;
}
.zr68-cls-26 {
animation:zr68-ani-26 1s cubic-bezier(0.65,0,0.35,1) both;
}
@keyframes zr68-ani-0 {
0% {
d:path("M250 237.5A12.5 12.5 0 1 1 243.2 239.5L243.2 239.5A12.5 12.5 0 1 0 250 237.5Z");
}
100% {
d:path("M250 220.8A29.2 29.2 0 1 1 234.1 225.5L243.2 239.5A12.5 12.5 0 1 0 250 237.5Z");
}
}
@keyframes zr68-ani-1 {
0% {
d:path("M250 220.8A29.2 29.2 0 1 1 232.7 226.5A29.2 29.2 0 1 0 250 220.8Z");
}
100% {
d:path("M250 204.2A45.8 45.8 0 1 1 222.8 213.1L232.7 226.5A29.2 29.2 0 1 0 250 220.8Z");
}
}
@keyframes zr68-ani-2 {
0% {
d:path("M232.7 226.5A29.2 29.2 0 0 1 234.1 225.5L234.1 225.5A29.2 29.2 0 0 0 232.7 226.5Z");
}
100% {
d:path("M222.8 213.1A45.8 45.8 0 0 1 225 211.6L234.1 225.5A29.2 29.2 0 0 0 232.7 226.5Z");
}
}
@keyframes zr68-ani-3 {
0% {
d:path("M243.2 239.5A12.5 12.5 0 0 1 250 237.5L250 237.5A12.5 12.5 0 0 0 243.2 239.5Z");
}
100% {
d:path("M234.1 225.5A29.2 29.2 0 0 1 250 220.8L250 237.5A12.5 12.5 0 0 0 243.2 239.5Z");
}
}
@keyframes zr68-ani-4 {
0% {
d:path("M234.1 225.5A29.2 29.2 0 0 1 250 220.8L250 220.8A29.2 29.2 0 0 0 234.1 225.5Z");
}
100% {
d:path("M225 211.6A45.8 45.8 0 0 1 250 204.2L250 220.8A29.2 29.2 0 0 0 234.1 225.5Z");
}
}
@keyframes zr68-ani-5 {
0% {
d:path("M225 211.6A45.8 45.8 0 0 1 247.4 204.2L247.4 204.2A45.8 45.8 0 0 0 225 211.6Z");
}
100% {
d:path("M215.9 197.6A62.5 62.5 0 0 1 246.4 187.6L247.4 204.2A45.8 45.8 0 0 0 225 211.6Z");
}
}
@keyframes zr68-ani-6 {
0% {
d:path("M215.9 197.6A62.5 62.5 0 0 1 246.4 187.6L246.4 187.6A62.5 62.5 0 0 0 215.9 197.6Z");
}
100% {
d:path("M206.9 183.6A79.2 79.2 0 0 1 245.4 171L246.4 187.6A62.5 62.5 0 0 0 215.9 197.6Z");
}
}
@keyframes zr68-ani-7 {
0% {
d:path("M206.9 183.6A79.2 79.2 0 0 1 245.4 171L245.4 171A79.2 79.2 0 0 0 206.9 183.6Z");
}
100% {
d:path("M197.8 169.7A95.8 95.8 0 0 1 244.5 154.3L245.4 171A79.2 79.2 0 0 0 206.9 183.6Z");
}
}
@keyframes zr68-ani-8 {
0% {
d:path("M197.8 169.7A95.8 95.8 0 0 1 244.5 154.3L244.5 154.3A95.8 95.8 0 0 0 197.8 169.7Z");
}
100% {
d:path("M188.7 155.7A112.5 112.5 0 0 1 243.5 137.7L244.5 154.3A95.8 95.8 0 0 0 197.8 169.7Z");
}
}
@keyframes zr68-ani-9 {
0% {
d:path("M188.7 155.7A112.5 112.5 0 0 1 243.5 137.7L243.5 137.7A112.5 112.5 0 0 0 188.7 155.7Z");
}
100% {
d:path("M179.6 141.7A129.2 129.2 0 0 1 242.6 121L243.5 137.7A112.5 112.5 0 0 0 188.7 155.7Z");
}
}
@keyframes zr68-ani-10 {
0% {
d:path("M179.6 141.7A129.2 129.2 0 0 1 220.5 124.3L220.5 124.3A129.2 129.2 0 0 0 179.6 141.7Z");
}
100% {
d:path("M170.5 127.7A145.8 145.8 0 0 1 216.7 108L220.5 124.3A129.2 129.2 0 0 0 179.6 141.7Z");
}
}
@keyframes zr68-ani-11 {
0% {
d:path("M170.5 127.7A145.8 145.8 0 0 1 216.7 108L216.7 108A145.8 145.8 0 0 0 170.5 127.7Z");
}
100% {
d:path("M161.4 113.8A162.5 162.5 0 0 1 212.9 91.8L216.7 108A145.8 145.8 0 0 0 170.5 127.7Z");
}
}
@keyframes zr68-ani-12 {
0% {
d:path("M161.4 113.8A162.5 162.5 0 0 1 186.2 100.6L186.2 100.6A162.5 162.5 0 0 0 161.4 113.8Z");
}
100% {
d:path("M152.3 99.8A179.2 179.2 0 0 1 179.7 85.2L186.2 100.6A162.5 162.5 0 0 0 161.4 113.8Z");
}
}
@keyframes zr68-ani-13 {
0% {
d:path("M186.2 100.6A162.5 162.5 0 0 1 212.9 91.8L212.9 91.8A162.5 162.5 0 0 0 186.2 100.6Z");
}
100% {
d:path("M179.7 85.2A179.2 179.2 0 0 1 209.1 75.6L212.9 91.8A162.5 162.5 0 0 0 186.2 100.6Z");
}
}
@keyframes zr68-ani-14 {
0% {
d:path("M179.7 85.2A179.2 179.2 0 0 1 199.1 78.2L199.1 78.2A179.2 179.2 0 0 0 179.7 85.2Z");
}
100% {
d:path("M173.1 69.9A195.8 195.8 0 0 1 194.3 62.2L199.1 78.2A179.2 179.2 0 0 0 179.7 85.2Z");
}
}
@keyframes zr68-ani-15 {
0% {
d:path("M173.1 69.9A195.8 195.8 0 0 1 194.3 62.2L194.3 62.2A195.8 195.8 0 0 0 173.1 69.9Z");
}
100% {
d:path("M166.6 54.6A212.5 212.5 0 0 1 189.6 46.3L194.3 62.2A195.8 195.8 0 0 0 173.1 69.9Z");
}
}
@keyframes zr68-ani-16 {
0% {
d:path("M199.1 78.2A179.2 179.2 0 0 1 209.1 75.6L209.1 75.6A179.2 179.2 0 0 0 199.1 78.2Z");
}
100% {
d:path("M194.3 62.2A195.8 195.8 0 0 1 205.2 59.3L209.1 75.6A179.2 179.2 0 0 0 199.1 78.2Z");
}
}
@keyframes zr68-ani-17 {
0% {
d:path("M194.3 62.2A195.8 195.8 0 0 1 205.2 59.3L205.2 59.3A195.8 195.8 0 0 0 194.3 62.2Z");
}
100% {
d:path("M189.6 46.3A212.5 212.5 0 0 1 201.4 43.1L205.2 59.3A195.8 195.8 0 0 0 194.3 62.2Z");
}
}
@keyframes zr68-ani-18 {
0% {
d:path("M220.5 124.3A129.2 129.2 0 0 1 235.1 121.7L235.1 121.7A129.2 129.2 0 0 0 220.5 124.3Z");
}
100% {
d:path("M216.7 108A145.8 145.8 0 0 1 233.2 105.1L235.1 121.7A129.2 129.2 0 0 0 220.5 124.3Z");
}
}
@keyframes zr68-ani-19 {
0% {
d:path("M216.7 108A145.8 145.8 0 0 1 233.2 105.1L233.2 105.1A145.8 145.8 0 0 0 216.7 108Z");
}
100% {
d:path("M212.9 91.8A162.5 162.5 0 0 1 231.3 88.6L233.2 105.1A145.8 145.8 0 0 0 216.7 108Z");
}
}
@keyframes zr68-ani-20 {
0% {
d:path("M235.1 121.7A129.2 129.2 0 0 1 242.6 121L242.6 121A129.2 129.2 0 0 0 235.1 121.7Z");
}
100% {
d:path("M233.2 105.1A145.8 145.8 0 0 1 241.6 104.4L242.6 121A129.2 129.2 0 0 0 235.1 121.7Z");
}
}
@keyframes zr68-ani-21 {
0% {
d:path("M233.2 105.1A145.8 145.8 0 0 1 241.6 104.4L241.6 104.4A145.8 145.8 0 0 0 233.2 105.1Z");
}
100% {
d:path("M231.3 88.6A162.5 162.5 0 0 1 240.6 87.8L241.6 104.4A145.8 145.8 0 0 0 233.2 105.1Z");
}
}
@keyframes zr68-ani-22 {
0% {
d:path("M247.4 204.2A45.8 45.8 0 0 1 250 204.2L250 204.2A45.8 45.8 0 0 0 247.4 204.2Z");
}
100% {
d:path("M246.4 187.6A62.5 62.5 0 0 1 250 187.5L250 204.2A45.8 45.8 0 0 0 247.4 204.2Z");
}
}
@keyframes zr68-ani-23 {
0% {
d:path("M246.4 187.6A62.5 62.5 0 0 1 250 187.5L250 187.5A62.5 62.5 0 0 0 246.4 187.6Z");
}
100% {
d:path("M245.4 171A79.2 79.2 0 0 1 250 170.8L250 187.5A62.5 62.5 0 0 0 246.4 187.6Z");
}
}
@keyframes zr68-ani-24 {
0% {
d:path("M245.4 171A79.2 79.2 0 0 1 250 170.8L250 170.8A79.2 79.2 0 0 0 245.4 171Z");
}
100% {
d:path("M244.5 154.3A95.8 95.8 0 0 1 250 154.2L250 170.8A79.2 79.2 0 0 0 245.4 171Z");
}
}
@keyframes zr68-ani-25 {
0% {
d:path("M244.5 154.3A95.8 95.8 0 0 1 250 154.2L250 154.2A95.8 95.8 0 0 0 244.5 154.3Z");
}
100% {
d:path("M243.5 137.7A112.5 112.5 0 0 1 250 137.5L250 154.2A95.8 95.8 0 0 0 244.5 154.3Z");
}
}
@keyframes zr68-ani-26 {
0% {
d:path("M243.5 137.7A112.5 112.5 0 0 1 250 137.5L250 137.5A112.5 112.5 0 0 0 243.5 137.7Z");
}
100% {
d:path("M242.6 121A129.2 129.2 0 0 1 250 120.8L250 137.5A112.5 112.5 0 0 0 243.5 137.7Z");
}
}
]]>

</style>
</svg>