<svg width="500" height="500" xmlns="http://www.w3.org/2000/svg" xmlns:xlink="http://www.w3.org/1999/xlink" version="1.1" baseProfile="full" viewBox="0 0 500 500">
<rect width="500" height="500" x="0" y="0" id="0" fill="none"></rect>
<path d="M250 137.5A112.5 112.5 0 1 1 238.8 138.1A112.5 112.5 0 0 1 250 137.5M250 237.5A12.5 12.5 0 1 0 251.2 237.6A12.5 12.5 0 0 0 250 237.5Z" fill="#C8C8C8" stroke="white" stroke-linejoin="bevel" class="zr118-cls-0"></path>
<path d="M250 37.5A212.5 212.5 0 1 1 161.2 443L203 352.2A112.5 112.5 0 1 0 250 137.5Z" fill="#C8C8C8" stroke="white" stroke-linejoin="bevel" class="zr118-cls-1"></path>
<path d="M161.2 443A212.5 212.5 0 0 1 250 37.5L250 137.5A112.5 112.5 0 0 0 203 352.2Z" fill="#C8C8C8" stroke="white" stroke-linejoin="bevel" class="zr118-cls-2"></path>
<text dominant-baseline="central" text-anchor="middle" style="font-size:12px;font-family:sans-serif;" transform="translate(250 312.5)" fill="#333">info</text>
<text dominant-baseline="central" text-anchor="middle" style="font-size:12px;font-family:sans-serif;" transform="matrix(0.214,-0.977,0.977,0.214,408.7379,284.7641)" fill="#333">title</text>
<text dominant-baseline="central" text-anchor="middle" style="font-size:10px;font-family:sans-serif;" transform="matrix(0.214,-0.977,0.977,0.214,91.2621,215.2359)" fill="#333">version</text>
<path d="M-14.8 -16l66.6 0l0 32l-66.6 0Z" transform="translate(448.253 16)" fill="none" stroke="#ccc" stroke-width="0"></path>
<path d="M-7.3 -1.8L-0.1 4.8L7.3 -1.6M-7.3 4.3L-7.3 8.5L7.1 8.5L7.1 4.3M-0.1 4.7L-0.1 -8.5" transform="translate(448.253 16)" fill="none" stroke="#666"></path>
<path d="M-7.9 1M5.1 -3.4L8.1 -3.4L8.1 -6.4M8 -3C6.7 -6.4 3.2 -8.9 -1 -8.4C-5.3 -8 -8.6 -4.2 -8.4 0.2M-5.1 3.4L-8.1 3.4L-8.1 6.4M-8 3C-6.7 6.4 -3.2 8.9 1 8.4C5.3 8 8.6 4.2 8.4 -0.2" transform="translate(484.0476 16)" fill="none" stroke="#666"></path>
<style ><![CDATA[
.zr118-cls-0 {
animation:zr118-ani-0 1s cubic-bezier(0.65,0,0.35,1) both;
}
.zr118-cls-1 {
animation:zr118-ani-1 1s cubic-bezier(0.65,0,0.35,1) both;
}
.zr118-cls-2 {
animation:zr118-ani-2 1s cubic-bezier(0.65,0,0.35,1) both;
}
@keyframes zr118-ani-0 {
0% {
d:path("M250 237.5A12.5 12.5 0 1 1 248.8 237.6A12.5 12.5 0 0 1 250 237.5M250 237.5A12.5 12.5 0 1 0 251.2 237.6A12.5 12.5 0 0 0 250 237.5Z");
}
100% {
d:path("M250 137.5A112.5 112.5 0 1 1 238.8 138.1A112.5 112.5 0 0 1 250 137.5M250 237.5A12.5 12.5 0 1 0 251.2 237.6A12.5 12.5 0 0 0 250 237.5Z");
}
}
@keyframes zr118-ani-1 {
0% {
d:path("M250 137.5A112.5 112.5 0 1 1 203 352.2L203 352.2A112.5 112.5 0 1 0 250 137.5Z");
}
100% {
d:path("M250 37.5A212.5 212.5 0 1 1 161.2 443L203 352.2A112.5 112.5 0 1 0 250 137.5Z");
}
}
@keyframes zr118-ani-2 {
0% {
d:path("M203 352.2A112.5 112.5 0 0 1 250 137.5L250 137.5A112.5 112.5 0 0 0 203 352.2Z");
}
100% {
d:path("M161.2 443A212.5 212.5 0 0 1 250 37.5L250 137.5A112.5 112.5 0 0 0 203 352.2Z");
}
}
]]>

</style>
</svg>