<svg width="500" height="500" xmlns="http://www.w3.org/2000/svg" xmlns:xlink="http://www.w3.org/1999/xlink" version="1.1" baseProfile="full" viewBox="0 0 500 500">
<rect width="500" height="500" x="0" y="0" id="0" fill="none"></rect>
<path d="M250 219.3A30.7 30.7 0 1 1 248.7 219.3L249.5 237.5A12.5 12.5 0 1 0 250 237.5Z" fill="#C8C8C8" stroke="white" stroke-linejoin="bevel" class="zr34-cls-0"></path>
<path d="M250 201.1A48.9 48.9 0 1 1 233.5 204L239.6 221.1A30.7 30.7 0 1 0 250 219.3Z" fill="#C8C8C8" stroke="white" stroke-linejoin="bevel" class="zr34-cls-1"></path>
<path d="M233.5 204A48.9 48.9 0 0 1 245.8 201.3L247.4 219.4A30.7 30.7 0 0 0 239.6 221.1Z" fill="#C8C8C8" stroke="white" stroke-linejoin="bevel" class="zr34-cls-2"></path>
<path d="M245.8 201.3A48.9 48.9 0 0 1 247.9 201.2L248.7 219.3A30.7 30.7 0 0 0 247.4 219.4Z" fill="#C8C8C8" stroke="white" stroke-linejoin="bevel" class="zr34-cls-3"></path>
<path d="M248.7 219.3A30.7 30.7 0 0 1 250 219.3L250 237.5A12.5 12.5 0 0 0 249.5 237.5Z" fill="#000" stroke="white" stroke-linejoin="bevel" class="zr34-cls-4"></path>
<path d="M247.9 201.2A48.9 48.9 0 0 1 250 201.1L250 219.3A30.7 30.7 0 0 0 248.7 219.3Z" fill="#4949CD" fill-opacity="0.5" stroke="#fff" stroke-width="4" stroke-opacity="0.5" stroke-linejoin="bevel" class="zr34-cls-5"></path>
<path d="M247.1 183A67 67 0 0 1 250 183L250 201.1A48.9 48.9 0 0 0 247.9 201.2Z" fill="#000" stroke="white" stroke-linejoin="bevel" class="zr34-cls-6"></path>
<path d="M246.3 164.9A85.2 85.2 0 0 1 250 164.8L250 183A67 67 0 0 0 247.1 183Z" fill="#000" stroke="white" stroke-linejoin="bevel" class="zr34-cls-7"></path>
<path d="M245.6 146.7A103.4 103.4 0 0 1 250 146.6L250 164.8A85.2 85.2 0 0 0 246.3 164.9Z" fill="#4949CD" fill-opacity="0.5" stroke="#fff" stroke-width="4" stroke-opacity="0.5" stroke-linejoin="bevel" class="zr34-cls-8"></path>
<path d="M244.8 128.5A121.6 121.6 0 0 1 250 128.4L250 146.6A103.4 103.4 0 0 0 245.6 146.7Z" fill="#0AA40D" stroke="white" stroke-linejoin="bevel" class="zr34-cls-9"></path>
<path d="M244 110.4A139.8 139.8 0 0 1 250 110.2L250 128.4A121.6 121.6 0 0 0 244.8 128.5Z" fill="#000" stroke="white" stroke-linejoin="bevel" class="zr34-cls-10"></path>
<path d="M243.2 92.2A158 158 0 0 1 250 92L250 110.2A139.8 139.8 0 0 0 244 110.4Z" fill="#4949CD" fill-opacity="0.5" stroke="#fff" stroke-width="4" stroke-opacity="0.5" stroke-linejoin="bevel" class="zr34-cls-11"></path>
<path d="M242.4 74A176.1 176.1 0 0 1 250 73.9L250 92A158 158 0 0 0 243.2 92.2Z" fill="#000" stroke="white" stroke-linejoin="bevel" class="zr34-cls-12"></path>
<path d="M241.6 55.9A194.3 194.3 0 0 1 250 55.7L250 73.9A176.1 176.1 0 0 0 242.4 74Z" fill="#000" stroke="white" stroke-linejoin="bevel" class="zr34-cls-13"></path>
<path d="M240.9 37.7A212.5 212.5 0 0 1 250 37.5L250 55.7A194.3 194.3 0 0 0 241.6 55.9Z" fill="#C8C8C8" stroke="white" stroke-linejoin="bevel" class="zr34-cls-14"></path>
<text dominant-baseline="central" text-anchor="middle" style="font-size:12px;font-family:sans-serif;" transform="matrix(1,-0.022,0.022,1,250.4646,271.5859)" fill="#333">info</text>
<text dominant-baseline="central" text-anchor="middle" style="font-size:10px;font-family:sans-serif;" transform="matrix(0.985,-0.171,0.171,0.985,256.8128,289.1849)" fill="#333">version</text>
<text dominant-baseline="central" text-anchor="middle" style="font-size:9px;font-family:sans-serif;" transform="matrix(0.977,-0.214,0.214,0.977,241.5077,211.1445)" fill="#333">description</text>
<path d="M-14.8 -16l66.6 0l0 32l-66.6 0Z" transform="translate(448.253 16)" fill="none" stroke="#ccc" stroke-width="0"></path>
<path d="M-7.3 -1.8L-0.1 4.8L7.3 -1.6M-7.3 4.3L-7.3 8.5L7.1 8.5L7.1 4.3M-0.1 4.7L-0.1 -8.5" transform="translate(448.253 16)" fill="none" stroke="#666"></path>
<path d="M-7.9 1M5.1 -3.4L8.1 -3.4L8.1 -6.4M8 -3C6.7 -6.4 3.2 -8.9 -1 -8.4C-5.3 -8 -8.6 -4.2 -8.4 0.2M-5.1 3.4L-8.1 3.4L-8.1 6.4M-8 3C-6.7 6.4 -3.2 8.9 1 8.4C5.3 8 8.6 4.2 8.4 -0.2" transform="translate(484.0476 16)" fill="none" stroke="#666"></path>
<style ><![CDATA[
.zr34-cls-0 {
animation:zr34-ani-0 1s cubic-bezier(0.65,0,0.35,1) both;
}
.zr34-cls-1 {
animation:zr34-ani-1 1s cubic-bezier(0.65,0,0.35,1) both;
}
.zr34-cls-2 {
animation:zr34-ani-2 1s cubic-bezier(0.65,0,0.35,1) both;
}
.zr34-cls-3 {
animation:zr34-ani-3 1s cubic-bezier(0.65,0,0.35,1) both;
}
.zr34-cls-4 {
animation:zr34-ani-4 1s cubic-bezier(0.65,0,0.35,1) both;
}
.zr34-cls-5 {
animation:zr34-ani-5 1s cubic-bezier(0.65,0,0.35,1) both;
}
.zr34-cls-6 {
animation:zr34-ani-6 1s cubic-bezier(0.65,0,0.35,1) both;
}
.zr34-cls-7 {
animation:zr34-ani-7 1s cubic-bezier(0.65,0,0.35,1) both;
}
.zr34-cls-8 {
animation:zr34-ani-8 1s cubic-bezier(0.65,0,0.35,1) both;
}
.zr34-cls-9 {
animation:zr34-ani-9 1s cubic-bezier(0.65,0,0.35,1) both;
}
.zr34-cls-10 {
animation:zr34-ani-10 1s cubic-bezier(0.65,0,0.35,1) both;
}
.zr34-cls-11 {
animation:zr34-ani-11 1s cubic-bezier(0.65,0,0.35,1) both;
}
.zr34-cls-12 {
animation:zr34-ani-12 1s cubic-bezier(0.65,0,0.35,1) both;
}
.zr34-cls-13 {
animation:zr34-ani-13 1s cubic-bezier(0.65,0,0.35,1) both;
}
.zr34-cls-14 {
animation:zr34-ani-14 1s cubic-bezier(0.65,0,0.35,1) both;
}
@keyframes zr34-ani-0 {
0% {
d:path("M250 237.5A12.5 12.5 0 1 1 249.5 237.5L249.5 237.5A12.5 12.5 0 1 0 250 237.5Z");
}
100% {
d:path("M250 219.3A30.7 30.7 0 1 1 248.7 219.3L249.5 237.5A12.5 12.5 0 1 0 250 237.5Z");
}
}
@keyframes zr34-ani-1 {
0% {
d:path("M250 219.3A30.7 30.7 0 1 1 239.6 221.1A30.7 30.7 0 1 0 250 219.3Z");
}
100% {
d:path("M250 201.1A48.9 48.9 0 1 1 233.5 204L239.6 221.1A30.7 30.7 0 1 0 250 219.3Z");
}
}
@keyframes zr34-ani-2 {
0% {
d:path("M239.6 221.1A30.7 30.7 0 0 1 247.4 219.4L247.4 219.4A30.7 30.7 0 0 0 239.6 221.1Z");
}
100% {
d:path("M233.5 204A48.9 48.9 0 0 1 245.8 201.3L247.4 219.4A30.7 30.7 0 0 0 239.6 221.1Z");
}
}
@keyframes zr34-ani-3 {
0% {
d:path("M247.4 219.4A30.7 30.7 0 0 1 248.7 219.3L248.7 219.3A30.7 30.7 0 0 0 247.4 219.4Z");
}
100% {
d:path("M245.8 201.3A48.9 48.9 0 0 1 247.9 201.2L248.7 219.3A30.7 30.7 0 0 0 247.4 219.4Z");
}
}
@keyframes zr34-ani-4 {
0% {
d:path("M249.5 237.5A12.5 12.5 0 0 1 250 237.5L250 237.5A12.5 12.5 0 0 0 249.5 237.5Z");
}
100% {
d:path("M248.7 219.3A30.7 30.7 0 0 1 250 219.3L250 237.5A12.5 12.5 0 0 0 249.5 237.5Z");
}
}
@keyframes zr34-ani-5 {
0% {
d:path("M248.7 219.3A30.7 30.7 0 0 1 250 219.3L250 219.3A30.7 30.7 0 0 0 248.7 219.3Z");
}
100% {
d:path("M247.9 201.2A48.9 48.9 0 0 1 250 201.1L250 219.3A30.7 30.7 0 0 0 248.7 219.3Z");
}
}
@keyframes zr34-ani-6 {
0% {
d:path("M247.9 201.2A48.9 48.9 0 0 1 250 201.1L250 201.1A48.9 48.9 0 0 0 247.9 201.2Z");
}
100% {
d:path("M247.1 183A67 67 0 0 1 250 183L250 201.1A48.9 48.9 0 0 0 247.9 201.2Z");
}
}
@keyframes zr34-ani-7 {
0% {
d:path("M247.1 183A67 67 0 0 1 250 183L250 183A67 67 0 0 0 247.1 183Z");
}
100% {
d:path("M246.3 164.9A85.2 85.2 0 0 1 250 164.8L250 183A67 67 0 0 0 247.1 183Z");
}
}
@keyframes zr34-ani-8 {
0% {
d:path("M246.3 164.9A85.2 85.2 0 0 1 250 164.8L250 164.8A85.2 85.2 0 0 0 246.3 164.9Z");
}
100% {
d:path("M245.6 146.7A103.4 103.4 0 0 1 250 146.6L250 164.8A85.2 85.2 0 0 0 246.3 164.9Z");
}
}
@keyframes zr34-ani-9 {
0% {
d:path("M245.6 146.7A103.4 103.4 0 0 1 250 146.6L250 146.6A103.4 103.4 0 0 0 245.6 146.7Z");
}
100% {
d:path("M244.8 128.5A121.6 121.6 0 0 1 250 128.4L250 146.6A103.4 103.4 0 0 0 245.6 146.7Z");
}
}
@keyframes zr34-ani-10 {
0% {
d:path("M244.8 128.5A121.6 121.6 0 0 1 250 128.4L250 128.4A121.6 121.6 0 0 0 244.8 128.5Z");
}
100% {
d:path("M244 110.4A139.8 139.8 0 0 1 250 110.2L250 128.4A121.6 121.6 0 0 0 244.8 128.5Z");
}
}
@keyframes zr34-ani-11 {
0% {
d:path("M244 110.4A139.8 139.8 0 0 1 250 110.2L250 110.2A139.8 139.8 0 0 0 244 110.4Z");
}
100% {
d:path("M243.2 92.2A158 158 0 0 1 250 92L250 110.2A139.8 139.8 0 0 0 244 110.4Z");
}
}
@keyframes zr34-ani-12 {
0% {
d:path("M243.2 92.2A158 158 0 0 1 250 92L250 92A158 158 0 0 0 243.2 92.2Z");
}
100% {
d:path("M242.4 74A176.1 176.1 0 0 1 250 73.9L250 92A158 158 0 0 0 243.2 92.2Z");
}
}
@keyframes zr34-ani-13 {
0% {
d:path("M242.4 74A176.1 176.1 0 0 1 250 73.9L250 73.9A176.1 176.1 0 0 0 242.4 74Z");
}
100% {
d:path("M241.6 55.9A194.3 194.3 0 0 1 250 55.7L250 73.9A176.1 176.1 0 0 0 242.4 74Z");
}
}
@keyframes zr34-ani-14 {
0% {
d:path("M241.6 55.9A194.3 194.3 0 0 1 250 55.7L250 55.7A194.3 194.3 0 0 0 241.6 55.9Z");
}
100% {
d:path("M240.9 37.7A212.5 212.5 0 0 1 250 37.5L250 55.7A194.3 194.3 0 0 0 241.6 55.9Z");
}
}
]]>

</style>
</svg>