<svg width="500" height="500" xmlns="http://www.w3.org/2000/svg" xmlns:xlink="http://www.w3.org/1999/xlink" version="1.1" baseProfile="full" viewBox="0 0 500 500">
<rect width="500" height="500" x="0" y="0" id="0" fill="none"></rect>
<path d="M250 223.2A26.8 26.8 0 1 1 223.5 254.1L237.6 251.9A12.5 12.5 0 1 0 250 237.5Z" fill="#000" stroke="white" stroke-linejoin="bevel" class="zr38-cls-0"></path>
<path d="M250 208.9A41.1 41.1 0 1 1 247.5 291L248.4 276.7A26.8 26.8 0 1 0 250 223.2Z" fill="#49ff49" fill-opacity="0.5" stroke="#fff" stroke-width="4" stroke-opacity="0.5" stroke-linejoin="bevel" class="zr38-cls-1"></path>
<path d="M250 194.6A55.4 55.4 0 0 1 276.2 201.2L269.4 213.8A41.1 41.1 0 0 0 250 208.9Z" fill="#000" stroke="white" stroke-linejoin="bevel" class="zr38-cls-2"></path>
<path d="M250 180.4A69.6 69.6 0 0 1 258.6 180.9L256.8 195.1A55.4 55.4 0 0 0 250 194.6Z" fill="#FF0000" stroke="white" stroke-linejoin="bevel" class="zr38-cls-3"></path>
<path d="M258.6 180.9A69.6 69.6 0 0 1 267 182.5L263.5 196.3A55.4 55.4 0 0 0 256.8 195.1Z" fill="#0AA40D" stroke="white" stroke-linejoin="bevel" class="zr38-cls-4"></path>
<path d="M267 182.5A69.6 69.6 0 0 1 275.2 185.1L270 198.4A55.4 55.4 0 0 0 263.5 196.3Z" fill="#F3C142" stroke="white" stroke-linejoin="bevel" class="zr38-cls-5"></path>
<path d="M275.2 185.1A69.6 69.6 0 0 1 282.9 188.6L276.2 201.2A55.4 55.4 0 0 0 270 198.4Z" fill="#6dc0e3" stroke="white" stroke-linejoin="bevel" class="zr38-cls-6"></path>
<path d="M276.2 201.2A55.4 55.4 0 0 1 292 214L281.2 223.3A41.1 41.1 0 0 0 269.4 213.8Z" fill="#000" stroke="white" stroke-linejoin="bevel" class="zr38-cls-7"></path>
<path d="M282.9 188.6A69.6 69.6 0 0 1 290.2 193.2L282 204.8A55.4 55.4 0 0 0 276.2 201.2Z" fill="#FF0000" stroke="white" stroke-linejoin="bevel" class="zr38-cls-8"></path>
<path d="M290.2 193.2A69.6 69.6 0 0 1 296.9 198.5L287.3 209.1A55.4 55.4 0 0 0 282 204.8Z" fill="#0AA40D" stroke="white" stroke-linejoin="bevel" class="zr38-cls-9"></path>
<path d="M296.9 198.5A69.6 69.6 0 0 1 302.9 204.7L292 214A55.4 55.4 0 0 0 287.3 209.1Z" fill="#6dc0e3" stroke="white" stroke-linejoin="bevel" class="zr38-cls-10"></path>
<path d="M292 214A55.4 55.4 0 0 1 299.6 225.3L286.8 231.7A41.1 41.1 0 0 0 281.2 223.3Z" fill="#000" stroke="white" stroke-linejoin="bevel" class="zr38-cls-11"></path>
<path d="M302.9 204.7A69.6 69.6 0 0 1 308.1 211.5L296.1 219.4A55.4 55.4 0 0 0 292 214Z" fill="#0AA40D" stroke="white" stroke-linejoin="bevel" class="zr38-cls-12"></path>
<path d="M308.1 211.5A69.6 69.6 0 0 1 312.3 219L299.6 225.3A55.4 55.4 0 0 0 296.1 219.4Z" fill="#F3C142" stroke="white" stroke-linejoin="bevel" class="zr38-cls-13"></path>
<path d="M299.6 225.3A55.4 55.4 0 0 1 304.1 238.2L290.1 241.2A41.1 41.1 0 0 0 286.8 231.7Z" fill="#000" stroke="white" stroke-linejoin="bevel" class="zr38-cls-14"></path>
<path d="M312.3 219A69.6 69.6 0 0 1 315.7 226.9L302.2 231.6A55.4 55.4 0 0 0 299.6 225.3Z" fill="#0AA40D" stroke="white" stroke-linejoin="bevel" class="zr38-cls-15"></path>
<path d="M315.7 226.9A69.6 69.6 0 0 1 318 235.1L304.1 238.2A55.4 55.4 0 0 0 302.2 231.6Z" fill="#F3C142" stroke="white" stroke-linejoin="bevel" class="zr38-cls-16"></path>
<path d="M304.1 238.2A55.4 55.4 0 0 1 305.3 251.7L291.1 251.3A41.1 41.1 0 0 0 290.1 241.2Z" fill="#000" stroke="white" stroke-linejoin="bevel" class="zr38-cls-17"></path>
<path d="M318 235.1A69.6 69.6 0 0 1 319.3 243.6L305.1 244.9A55.4 55.4 0 0 0 304.1 238.2Z" fill="#FF0000" stroke="white" stroke-linejoin="bevel" class="zr38-cls-18"></path>
<path d="M319.3 243.6A69.6 69.6 0 0 1 319.6 252.1L305.3 251.7A55.4 55.4 0 0 0 305.1 244.9Z" fill="#0AA40D" stroke="white" stroke-linejoin="bevel" class="zr38-cls-19"></path>
<path d="M305.3 251.7A55.4 55.4 0 0 1 304.7 258.5L290.6 256.3A41.1 41.1 0 0 0 291.1 251.3Z" fill="#000" stroke="white" stroke-linejoin="bevel" class="zr38-cls-20"></path>
<path d="M319.6 252.1A69.6 69.6 0 0 1 318.8 260.7L304.7 258.5A55.4 55.4 0 0 0 305.3 251.7Z" fill="#F3C142" stroke="white" stroke-linejoin="bevel" class="zr38-cls-21"></path>
<path d="M304.7 258.5A55.4 55.4 0 0 1 303.2 265.1L289.5 261.2A41.1 41.1 0 0 0 290.6 256.3Z" fill="#000" stroke="white" stroke-linejoin="bevel" class="zr38-cls-22"></path>
<path d="M318.8 260.7A69.6 69.6 0 0 1 317 269.1L303.2 265.1A55.4 55.4 0 0 0 304.7 258.5Z" fill="#6dc0e3" stroke="white" stroke-linejoin="bevel" class="zr38-cls-23"></path>
<path d="M303.2 265.1A55.4 55.4 0 0 1 301 271.6L287.8 266A41.1 41.1 0 0 0 289.5 261.2Z" fill="#000" stroke="white" stroke-linejoin="bevel" class="zr38-cls-24"></path>
<path d="M317 269.1A69.6 69.6 0 0 1 314.1 277.1L301 271.6A55.4 55.4 0 0 0 303.2 265.1Z" fill="#6dc0e3" stroke="white" stroke-linejoin="bevel" class="zr38-cls-25"></path>
<path d="M301 271.6A55.4 55.4 0 0 1 297.9 277.7L285.6 270.5A41.1 41.1 0 0 0 287.8 266Z" fill="#000" stroke="white" stroke-linejoin="bevel" class="zr38-cls-26"></path>
<path d="M314.1 277.1A69.6 69.6 0 0 1 310.3 284.8L297.9 277.7A55.4 55.4 0 0 0 301 271.6Z" fill="#6dc0e3" stroke="white" stroke-linejoin="bevel" class="zr38-cls-27"></path>
<path d="M297.9 277.7A55.4 55.4 0 0 1 294.2 283.4L282.8 274.8A41.1 41.1 0 0 0 285.6 270.5Z" fill="#000" stroke="white" stroke-linejoin="bevel" class="zr38-cls-28"></path>
<path d="M310.3 284.8A69.6 69.6 0 0 1 305.6 292L294.2 283.4A55.4 55.4 0 0 0 297.9 277.7Z" fill="#F3C142" stroke="white" stroke-linejoin="bevel" class="zr38-cls-29"></path>
<path d="M294.2 283.4A55.4 55.4 0 0 1 289.7 288.5L279.5 278.6A41.1 41.1 0 0 0 282.8 274.8Z" fill="#000" stroke="white" stroke-linejoin="bevel" class="zr38-cls-30"></path>
<path d="M305.6 292A69.6 69.6 0 0 1 300 298.5L289.7 288.5A55.4 55.4 0 0 0 294.2 283.4Z" fill="#0AA40D" stroke="white" stroke-linejoin="bevel" class="zr38-cls-31"></path>
<path d="M289.7 288.5A55.4 55.4 0 0 1 284.7 293.1L275.7 282A41.1 41.1 0 0 0 279.5 278.6Z" fill="#000" stroke="white" stroke-linejoin="bevel" class="zr38-cls-32"></path>
<path d="M300 298.5A69.6 69.6 0 0 1 293.7 304.3L284.7 293.1A55.4 55.4 0 0 0 289.7 288.5Z" fill="#0AA40D" stroke="white" stroke-linejoin="bevel" class="zr38-cls-33"></path>
<path d="M284.7 293.1A55.4 55.4 0 0 1 279.1 297.1L271.6 284.9A41.1 41.1 0 0 0 275.7 282Z" fill="#000" stroke="white" stroke-linejoin="bevel" class="zr38-cls-34"></path>
<path d="M293.7 304.3A69.6 69.6 0 0 1 286.7 309.2L279.1 297.1A55.4 55.4 0 0 0 284.7 293.1Z" fill="#F3C142" stroke="white" stroke-linejoin="bevel" class="zr38-cls-35"></path>
<path d="M279.1 297.1A55.4 55.4 0 0 1 273.1 300.3L267.2 287.3A41.1 41.1 0 0 0 271.6 284.9Z" fill="#000" stroke="white" stroke-linejoin="bevel" class="zr38-cls-36"></path>
<path d="M286.7 309.2A69.6 69.6 0 0 1 279.1 313.3L273.1 300.3A55.4 55.4 0 0 0 279.1 297.1Z" fill="#0AA40D" stroke="white" stroke-linejoin="bevel" class="zr38-cls-37"></path>
<path d="M273.1 300.3A55.4 55.4 0 0 1 266.8 302.8L262.5 289.1A41.1 41.1 0 0 0 267.2 287.3Z" fill="#000" stroke="white" stroke-linejoin="bevel" class="zr38-cls-38"></path>
<path d="M279.1 313.3A69.6 69.6 0 0 1 271.1 316.4L266.8 302.8A55.4 55.4 0 0 0 273.1 300.3Z" fill="#0AA40D" stroke="white" stroke-linejoin="bevel" class="zr38-cls-39"></path>
<path d="M266.8 302.8A55.4 55.4 0 0 1 260.2 304.4L257.5 290.4A41.1 41.1 0 0 0 262.5 289.1Z" fill="#000" stroke="white" stroke-linejoin="bevel" class="zr38-cls-40"></path>
<path d="M271.1 316.4A69.6 69.6 0 0 1 262.8 318.5L260.2 304.4A55.4 55.4 0 0 0 266.8 302.8Z" fill="#0AA40D" stroke="white" stroke-linejoin="bevel" class="zr38-cls-41"></path>
<path d="M260.2 304.4A55.4 55.4 0 0 1 253.4 305.3L252.5 291A41.1 41.1 0 0 0 257.5 290.4Z" fill="#000" stroke="white" stroke-linejoin="bevel" class="zr38-cls-42"></path>
<path d="M262.8 318.5A69.6 69.6 0 0 1 254.3 319.5L253.4 305.3A55.4 55.4 0 0 0 260.2 304.4Z" fill="#0AA40D" stroke="white" stroke-linejoin="bevel" class="zr38-cls-43"></path>
<path d="M253.4 305.3A55.4 55.4 0 0 1 246.6 305.3L247.5 291A41.1 41.1 0 0 0 252.5 291Z" fill="#000" stroke="white" stroke-linejoin="bevel" class="zr38-cls-44"></path>
<path d="M254.3 319.5A69.6 69.6 0 0 1 245.7 319.5L246.6 305.3A55.4 55.4 0 0 0 253.4 305.3Z" fill="#0AA40D" stroke="white" stroke-linejoin="bevel" class="zr38-cls-45"></path>
<path d="M247.5 291A41.1 41.1 0 0 1 210.5 261.2L224.2 257.3A26.8 26.8 0 0 0 248.4 276.7Z" fill="#4949CD" fill-opacity="0.5" stroke="#fff" stroke-width="4" stroke-opacity="0.5" stroke-linejoin="bevel" class="zr38-cls-46"></path>
<path d="M246.6 305.3A55.4 55.4 0 0 1 210.3 288.5L220.5 278.6A41.1 41.1 0 0 0 247.5 291Z" fill="#000" stroke="white" stroke-linejoin="bevel" class="zr38-cls-47"></path>
<path d="M245.7 319.5A69.6 69.6 0 0 1 206.3 304.3L215.3 293.1A55.4 55.4 0 0 0 246.6 305.3Z" fill="#000" stroke="white" stroke-linejoin="bevel" class="zr38-cls-48"></path>
<path d="M244.8 333.8A83.9 83.9 0 0 1 205.8 321.4L213.3 309.2A69.6 69.6 0 0 0 245.7 319.5Z" fill="#4949CD" fill-opacity="0.5" stroke="#fff" stroke-width="4" stroke-opacity="0.5" stroke-linejoin="bevel" class="zr38-cls-49"></path>
<path d="M244 348A98.2 98.2 0 0 1 209 339.2L214.9 326.2A83.9 83.9 0 0 0 244.8 333.8Z" fill="#F3C142" stroke="white" stroke-linejoin="bevel" class="zr38-cls-50"></path>
<path d="M243.1 362.3A112.5 112.5 0 0 1 215.9 357.2L220.2 343.6A98.2 98.2 0 0 0 244 348Z" fill="#000" stroke="white" stroke-linejoin="bevel" class="zr38-cls-51"></path>
<path d="M242.2 376.5A126.8 126.8 0 0 1 226.7 374.6L229.3 360.6A112.5 112.5 0 0 0 243.1 362.3Z" fill="#49ff49" fill-opacity="0.5" stroke="#fff" stroke-width="4" stroke-opacity="0.5" stroke-linejoin="bevel" class="zr38-cls-52"></path>
<path d="M241.3 390.8A141.1 141.1 0 0 1 224.1 388.7L226.7 374.6A126.8 126.8 0 0 0 242.2 376.5Z" fill="#000" stroke="white" stroke-linejoin="bevel" class="zr38-cls-53"></path>
<path d="M226.7 374.6A126.8 126.8 0 0 1 211.6 370.8L215.9 357.2A112.5 112.5 0 0 0 229.3 360.6Z" fill="#ff4949" fill-opacity="0.5" stroke="#fff" stroke-width="4" stroke-opacity="0.5" stroke-linejoin="bevel" class="zr38-cls-54"></path>
<path d="M224.1 388.7A141.1 141.1 0 0 1 207.2 384.4L211.6 370.8A126.8 126.8 0 0 0 226.7 374.6Z" fill="#000" stroke="white" stroke-linejoin="bevel" class="zr38-cls-55"></path>
<path d="M215.9 357.2A112.5 112.5 0 0 1 203 352.2L209 339.2A98.2 98.2 0 0 0 220.2 343.6Z" fill="#000" stroke="white" stroke-linejoin="bevel" class="zr38-cls-56"></path>
<path d="M211.6 370.8A126.8 126.8 0 0 1 197 365.2L203 352.2A112.5 112.5 0 0 0 215.9 357.2Z" fill="#4949CD" fill-opacity="0.5" stroke="#fff" stroke-width="4" stroke-opacity="0.5" stroke-linejoin="bevel" class="zr38-cls-57"></path>
<path d="M207.2 384.4A141.1 141.1 0 0 1 191 378.2L197 365.2A126.8 126.8 0 0 0 211.6 370.8Z" fill="#000" stroke="white" stroke-linejoin="bevel" class="zr38-cls-58"></path>
<path d="M202.9 398A155.4 155.4 0 0 1 185.1 391.1L191 378.2A141.1 141.1 0 0 0 207.2 384.4Z" fill="#000" stroke="white" stroke-linejoin="bevel" class="zr38-cls-59"></path>
<path d="M198.6 411.7A169.6 169.6 0 0 1 179.1 404.1L185.1 391.1A155.4 155.4 0 0 0 202.9 398Z" fill="#A0522D" stroke="white" stroke-linejoin="bevel" class="zr38-cls-60"></path>
<path d="M194.2 425.3A183.9 183.9 0 0 1 173.1 417.1L179.1 404.1A169.6 169.6 0 0 0 198.6 411.7Z" fill="#A0522D" stroke="white" stroke-linejoin="bevel" class="zr38-cls-61"></path>
<path d="M189.9 438.9A198.2 198.2 0 0 1 167.2 430.1L173.1 417.1A183.9 183.9 0 0 0 194.2 425.3Z" fill="#49ff49" fill-opacity="0.5" stroke="#fff" stroke-width="4" stroke-opacity="0.5" stroke-linejoin="bevel" class="zr38-cls-62"></path>
<path d="M185.6 452.5A212.5 212.5 0 0 1 161.2 443L167.2 430.1A198.2 198.2 0 0 0 189.9 438.9Z" fill="#A0522D" stroke="white" stroke-linejoin="bevel" class="zr38-cls-63"></path>
<path d="M209 339.2A98.2 98.2 0 0 1 198.3 333.5L205.8 321.4A83.9 83.9 0 0 0 214.9 326.2Z" fill="#0AA40D" stroke="white" stroke-linejoin="bevel" class="zr38-cls-64"></path>
<path d="M203 352.2A112.5 112.5 0 0 1 190.8 345.6L198.3 333.5A98.2 98.2 0 0 0 209 339.2Z" fill="#000" stroke="white" stroke-linejoin="bevel" class="zr38-cls-65"></path>
<path d="M197 365.2A126.8 126.8 0 0 1 183.3 357.8L190.8 345.6A112.5 112.5 0 0 0 203 352.2Z" fill="#ff4949" fill-opacity="0.5" stroke="#fff" stroke-width="4" stroke-opacity="0.5" stroke-linejoin="bevel" class="zr38-cls-66"></path>
<path d="M191 378.2A141.1 141.1 0 0 1 175.7 369.9L183.3 357.8A126.8 126.8 0 0 0 197 365.2Z" fill="#000" stroke="white" stroke-linejoin="bevel" class="zr38-cls-67"></path>
<path d="M185.1 391.1A155.4 155.4 0 0 1 168.2 382.1L175.7 369.9A141.1 141.1 0 0 0 191 378.2Z" fill="#000" stroke="white" stroke-linejoin="bevel" class="zr38-cls-68"></path>
<path d="M205.8 321.4A83.9 83.9 0 0 1 197.4 315.4L206.3 304.3A69.6 69.6 0 0 0 213.3 309.2Z" fill="#49ff49" fill-opacity="0.5" stroke="#fff" stroke-width="4" stroke-opacity="0.5" stroke-linejoin="bevel" class="zr38-cls-69"></path>
<path d="M198.3 333.5A98.2 98.2 0 0 1 188.4 326.5L197.4 315.4A83.9 83.9 0 0 0 205.8 321.4Z" fill="#F3C142" stroke="white" stroke-linejoin="bevel" class="zr38-cls-70"></path>
<path d="M206.3 304.3A69.6 69.6 0 0 1 200 298.5L210.3 288.5A55.4 55.4 0 0 0 215.3 293.1Z" fill="#000" stroke="white" stroke-linejoin="bevel" class="zr38-cls-71"></path>
<path d="M197.4 315.4A83.9 83.9 0 0 1 189.7 308.4L200 298.5A69.6 69.6 0 0 0 206.3 304.3Z" fill="#49ff49" fill-opacity="0.5" stroke="#fff" stroke-width="4" stroke-opacity="0.5" stroke-linejoin="bevel" class="zr38-cls-72"></path>
<path d="M188.4 326.5A98.2 98.2 0 0 1 179.5 318.4L189.7 308.4A83.9 83.9 0 0 0 197.4 315.4Z" fill="#000" stroke="white" stroke-linejoin="bevel" class="zr38-cls-73"></path>
<path d="M179.5 337.6A112.5 112.5 0 0 1 169.2 328.3L179.5 318.4A98.2 98.2 0 0 0 188.4 326.5Z" fill="#000" stroke="white" stroke-linejoin="bevel" class="zr38-cls-74"></path>
<path d="M210.3 288.5A55.4 55.4 0 0 1 205.8 283.4L217.2 274.8A41.1 41.1 0 0 0 220.5 278.6Z" fill="#000" stroke="white" stroke-linejoin="bevel" class="zr38-cls-75"></path>
<path d="M200 298.5A69.6 69.6 0 0 1 194.4 292L205.8 283.4A55.4 55.4 0 0 0 210.3 288.5Z" fill="#000" stroke="white" stroke-linejoin="bevel" class="zr38-cls-76"></path>
<path d="M189.7 308.4A83.9 83.9 0 0 1 183 300.6L194.4 292A69.6 69.6 0 0 0 200 298.5Z" fill="#49ff49" fill-opacity="0.5" stroke="#fff" stroke-width="4" stroke-opacity="0.5" stroke-linejoin="bevel" class="zr38-cls-77"></path>
<path d="M179.5 318.4A98.2 98.2 0 0 1 171.6 309.2L183 300.6A83.9 83.9 0 0 0 189.7 308.4Z" fill="#6dc0e3" stroke="white" stroke-linejoin="bevel" class="zr38-cls-78"></path>
<path d="M205.8 283.4A55.4 55.4 0 0 1 202.1 277.7L214.4 270.5A41.1 41.1 0 0 0 217.2 274.8Z" fill="#000" stroke="white" stroke-linejoin="bevel" class="zr38-cls-79"></path>
<path d="M194.4 292A69.6 69.6 0 0 1 189.7 284.8L202.1 277.7A55.4 55.4 0 0 0 205.8 283.4Z" fill="#000" stroke="white" stroke-linejoin="bevel" class="zr38-cls-80"></path>
<path d="M183 300.6A83.9 83.9 0 0 1 177.3 292L189.7 284.8A69.6 69.6 0 0 0 194.4 292Z" fill="#49ff49" fill-opacity="0.5" stroke="#fff" stroke-width="4" stroke-opacity="0.5" stroke-linejoin="bevel" class="zr38-cls-81"></path>
<path d="M171.6 309.2A98.2 98.2 0 0 1 164.9 299.1L177.3 292A83.9 83.9 0 0 0 183 300.6Z" fill="#F3C142" stroke="white" stroke-linejoin="bevel" class="zr38-cls-82"></path>
<path d="M202.1 277.7A55.4 55.4 0 0 1 199 271.6L212.2 266A41.1 41.1 0 0 0 214.4 270.5Z" fill="#000" stroke="white" stroke-linejoin="bevel" class="zr38-cls-83"></path>
<path d="M189.7 284.8A69.6 69.6 0 0 1 185.9 277.1L199 271.6A55.4 55.4 0 0 0 202.1 277.7Z" fill="#000" stroke="white" stroke-linejoin="bevel" class="zr38-cls-84"></path>
<path d="M177.3 292A83.9 83.9 0 0 1 172.7 282.7L185.9 277.1A69.6 69.6 0 0 0 189.7 284.8Z" fill="#49ff49" fill-opacity="0.5" stroke="#fff" stroke-width="4" stroke-opacity="0.5" stroke-linejoin="bevel" class="zr38-cls-85"></path>
<path d="M164.9 299.1A98.2 98.2 0 0 1 159.6 288.3L172.7 282.7A83.9 83.9 0 0 0 177.3 292Z" fill="#0AA40D" stroke="white" stroke-linejoin="bevel" class="zr38-cls-86"></path>
<path d="M199 271.6A55.4 55.4 0 0 1 196.8 265.1L210.5 261.2A41.1 41.1 0 0 0 212.2 266Z" fill="#000" stroke="white" stroke-linejoin="bevel" class="zr38-cls-87"></path>
<path d="M185.9 277.1A69.6 69.6 0 0 1 183 269.1L196.8 265.1A55.4 55.4 0 0 0 199 271.6Z" fill="#000" stroke="white" stroke-linejoin="bevel" class="zr38-cls-88"></path>
<path d="M172.7 282.7A83.9 83.9 0 0 1 169.3 273L183 269.1A69.6 69.6 0 0 0 185.9 277.1Z" fill="#49ff49" fill-opacity="0.5" stroke="#fff" stroke-width="4" stroke-opacity="0.5" stroke-linejoin="bevel" class="zr38-cls-89"></path>
<path d="M159.6 288.3A98.2 98.2 0 0 1 155.5 276.9L169.3 273A83.9 83.9 0 0 0 172.7 282.7Z" fill="#F3C142" stroke="white" stroke-linejoin="bevel" class="zr38-cls-90"></path>
<path d="M210.5 261.2A41.1 41.1 0 0 1 209.4 256.3L223.5 254.1A26.8 26.8 0 0 0 224.2 257.3Z" fill="#ff4949" fill-opacity="0.5" stroke="#fff" stroke-width="4" stroke-opacity="0.5" stroke-linejoin="bevel" class="zr38-cls-91"></path>
<path d="M196.8 265.1A55.4 55.4 0 0 1 195.3 258.5L209.4 256.3A41.1 41.1 0 0 0 210.5 261.2Z" fill="#000" stroke="white" stroke-linejoin="bevel" class="zr38-cls-92"></path>
<path d="M183 269.1A69.6 69.6 0 0 1 181.2 260.7L195.3 258.5A55.4 55.4 0 0 0 196.8 265.1Z" fill="#6dc0e3" stroke="white" stroke-linejoin="bevel" class="zr38-cls-93"></path>
<path d="M223.5 254.1A26.8 26.8 0 0 1 250 223.2L250 237.5A12.5 12.5 0 0 0 237.6 251.9Z" fill="#C8C8C8" stroke="white" stroke-linejoin="bevel" class="zr38-cls-94"></path>
<path d="M209.4 256.3A41.1 41.1 0 0 1 245 209.2L246.7 223.4A26.8 26.8 0 0 0 223.5 254.1Z" fill="#C8C8C8" stroke="white" stroke-linejoin="bevel" class="zr38-cls-95"></path>
<path d="M245 209.2A41.1 41.1 0 0 1 250 208.9L250 223.2A26.8 26.8 0 0 0 246.7 223.4Z" fill="#C8C8C8" stroke="white" stroke-linejoin="bevel" class="zr38-cls-96"></path>
<text dominant-baseline="central" text-anchor="middle" style="font-size:12px;font-family:sans-serif;" transform="matrix(0.651,-0.759,0.759,0.651,264.9169,262.78)" fill="#ccc" stroke="#000" stroke-width="2" paint-order="stroke" stroke-miterlimit="2">paths</text>
<text dominant-baseline="central" text-anchor="middle" style="font-size:9px;font-family:sans-serif;" transform="matrix(0.932,0.361,-0.361,0.932,227.4224,308.2795)" fill="#ccc" stroke="#000" stroke-width="2" paint-order="stroke" stroke-miterlimit="2">operations</text>
<text dominant-baseline="central" text-anchor="middle" style="font-size:12px;font-family:sans-serif;" transform="matrix(0.97,0.244,-0.244,0.97,227.7864,338.3208)" fill="#333">POST</text>
<text dominant-baseline="central" text-anchor="middle" style="font-size:10px;font-family:sans-serif;" transform="matrix(0.983,0.184,-0.184,0.983,230.6407,353.5632)" fill="#ccc" stroke="#000" stroke-width="2" paint-order="stroke" stroke-miterlimit="2">responses</text>
<text dominant-baseline="central" text-anchor="middle" style="font-size:12px;font-family:sans-serif;" transform="matrix(0.651,-0.759,0.759,0.651,235.0831,237.22)" fill="#333">info</text>
<text dominant-baseline="central" text-anchor="middle" style="font-size:10px;font-family:sans-serif;" transform="matrix(0.603,-0.798,0.798,0.603,222.9244,229.5535)" fill="#333">version</text>
<path d="M-14.8 -16l66.6 0l0 32l-66.6 0Z" transform="translate(448.253 16)" fill="none" stroke="#ccc" stroke-width="0"></path>
<path d="M-7.3 -1.8L-0.1 4.8L7.3 -1.6M-7.3 4.3L-7.3 8.5L7.1 8.5L7.1 4.3M-0.1 4.7L-0.1 -8.5" transform="translate(448.253 16)" fill="none" stroke="#666"></path>
<path d="M-7.9 1M5.1 -3.4L8.1 -3.4L8.1 -6.4M8 -3C6.7 -6.4 3.2 -8.9 -1 -8.4C-5.3 -8 -8.6 -4.2 -8.4 0.2M-5.1 3.4L-8.1 3.4L-8.1 6.4M-8 3C-6.7 6.4 -3.2 8.9 1 8.4C5.3 8 8.6 4.2 8.4 -0.2" transform="translate(484.0476 16)" fill="none" stroke="#666"></path>
<style ><![CDATA[
.zr38-cls-0 {
animation:zr38-ani-0 1s cubic-bezier(0.65,0,0.35,1) both;
}
.zr38-cls-1 {
animation:zr38-ani-1 1s cubic-bezier(0.65,0,0.35,1) both;
}
.zr38-cls-2 {
animation:zr38-ani-2 1s cubic-bezier(0.65,0,0.35,1) both;
}
.zr38-cls-3 {
animation:zr38-ani-3 1s cubic-bezier(0.65,0,0.35,1) both;
}
.zr38-cls-4 {
animation:zr38-ani-4 1s cubic-bezier(0.65,0,0.35,1) both;
}
.zr38-cls-5 {
animation:zr38-ani-5 1s cubic-bezier(0.65,0,0.35,1) both;
}
.zr38-cls-6 {
animation:zr38-ani-6 1s cubic-bezier(0.65,0,0.35,1) both;
}
.zr38-cls-7 {
animation:zr38-ani-7 1s cubic-bezier(0.65,0,0.35,1) both;
}
.zr38-cls-8 {
animation:zr38-ani-8 1s cubic-bezier(0.65,0,0.35,1) both;
}
.zr38-cls-9 {
animation:zr38-ani-9 1s cubic-bezier(0.65,0,0.35,1) both;
}
.zr38-cls-10 {
animation:zr38-ani-10 1s cubic-bezier(0.65,0,0.35,1) both;
}
.zr38-cls-11 {
animation:zr38-ani-11 1s cubic-bezier(0.65,0,0.35,1) both;
}
.zr38-cls-12 {
animation:zr38-ani-12 1s cubic-bezier(0.65,0,0.35,1) both;
}
.zr38-cls-13 {
animation:zr38-ani-13 1s cubic-bezier(0.65,0,0.35,1) both;
}
.zr38-cls-14 {
animation:zr38-ani-14 1s cubic-bezier(0.65,0,0.35,1) both;
}
.zr38-cls-15 {
animation:zr38-ani-15 1s cubic-bezier(0.65,0,0.35,1) both;
}
.zr38-cls-16 {
animation:zr38-ani-16 1s cubic-bezier(0.65,0,0.35,1) both;
}
.zr38-cls-17 {
animation:zr38-ani-17 1s cubic-bezier(0.65,0,0.35,1) both;
}
.zr38-cls-18 {
animation:zr38-ani-18 1s cubic-bezier(0.65,0,0.35,1) both;
}
.zr38-cls-19 {
animation:zr38-ani-19 1s cubic-bezier(0.65,0,0.35,1) both;
}
.zr38-cls-20 {
animation:zr38-ani-20 1s cubic-bezier(0.65,0,0.35,1) both;
}
.zr38-cls-21 {
animation:zr38-ani-21 1s cubic-bezier(0.65,0,0.35,1) both;
}
.zr38-cls-22 {
animation:zr38-ani-22 1s cubic-bezier(0.65,0,0.35,1) both;
}
.zr38-cls-23 {
animation:zr38-ani-23 1s cubic-bezier(0.65,0,0.35,1) both;
}
.zr38-cls-24 {
animation:zr38-ani-24 1s cubic-bezier(0.65,0,0.35,1) both;
}
.zr38-cls-25 {
animation:zr38-ani-25 1s cubic-bezier(0.65,0,0.35,1) both;
}
.zr38-cls-26 {
animation:zr38-ani-26 1s cubic-bezier(0.65,0,0.35,1) both;
}
.zr38-cls-27 {
animation:zr38-ani-27 1s cubic-bezier(0.65,0,0.35,1) both;
}
.zr38-cls-28 {
animation:zr38-ani-28 1s cubic-bezier(0.65,0,0.35,1) both;
}
.zr38-cls-29 {
animation:zr38-ani-29 1s cubic-bezier(0.65,0,0.35,1) both;
}
.zr38-cls-30 {
animation:zr38-ani-30 1s cubic-bezier(0.65,0,0.35,1) both;
}
.zr38-cls-31 {
animation:zr38-ani-31 1s cubic-bezier(0.65,0,0.35,1) both;
}
.zr38-cls-32 {
animation:zr38-ani-32 1s cubic-bezier(0.65,0,0.35,1) both;
}
.zr38-cls-33 {
animation:zr38-ani-33 1s cubic-bezier(0.65,0,0.35,1) both;
}
.zr38-cls-34 {
animation:zr38-ani-34 1s cubic-bezier(0.65,0,0.35,1) both;
}
.zr38-cls-35 {
animation:zr38-ani-35 1s cubic-bezier(0.65,0,0.35,1) both;
}
.zr38-cls-36 {
animation:zr38-ani-36 1s cubic-bezier(0.65,0,0.35,1) both;
}
.zr38-cls-37 {
animation:zr38-ani-37 1s cubic-bezier(0.65,0,0.35,1) both;
}
.zr38-cls-38 {
animation:zr38-ani-38 1s cubic-bezier(0.65,0,0.35,1) both;
}
.zr38-cls-39 {
animation:zr38-ani-39 1s cubic-bezier(0.65,0,0.35,1) both;
}
.zr38-cls-40 {
animation:zr38-ani-40 1s cubic-bezier(0.65,0,0.35,1) both;
}
.zr38-cls-41 {
animation:zr38-ani-41 1s cubic-bezier(0.65,0,0.35,1) both;
}
.zr38-cls-42 {
animation:zr38-ani-42 1s cubic-bezier(0.65,0,0.35,1) both;
}
.zr38-cls-43 {
animation:zr38-ani-43 1s cubic-bezier(0.65,0,0.35,1) both;
}
.zr38-cls-44 {
animation:zr38-ani-44 1s cubic-bezier(0.65,0,0.35,1) both;
}
.zr38-cls-45 {
animation:zr38-ani-45 1s cubic-bezier(0.65,0,0.35,1) both;
}
.zr38-cls-46 {
animation:zr38-ani-46 1s cubic-bezier(0.65,0,0.35,1) both;
}
.zr38-cls-47 {
animation:zr38-ani-47 1s cubic-bezier(0.65,0,0.35,1) both;
}
.zr38-cls-48 {
animation:zr38-ani-48 1s cubic-bezier(0.65,0,0.35,1) both;
}
.zr38-cls-49 {
animation:zr38-ani-49 1s cubic-bezier(0.65,0,0.35,1) both;
}
.zr38-cls-50 {
animation:zr38-ani-50 1s cubic-bezier(0.65,0,0.35,1) both;
}
.zr38-cls-51 {
animation:zr38-ani-51 1s cubic-bezier(0.65,0,0.35,1) both;
}
.zr38-cls-52 {
animation:zr38-ani-52 1s cubic-bezier(0.65,0,0.35,1) both;
}
.zr38-cls-53 {
animation:zr38-ani-53 1s cubic-bezier(0.65,0,0.35,1) both;
}
.zr38-cls-54 {
animation:zr38-ani-54 1s cubic-bezier(0.65,0,0.35,1) both;
}
.zr38-cls-55 {
animation:zr38-ani-55 1s cubic-bezier(0.65,0,0.35,1) both;
}
.zr38-cls-56 {
animation:zr38-ani-56 1s cubic-bezier(0.65,0,0.35,1) both;
}
.zr38-cls-57 {
animation:zr38-ani-57 1s cubic-bezier(0.65,0,0.35,1) both;
}
.zr38-cls-58 {
animation:zr38-ani-58 1s cubic-bezier(0.65,0,0.35,1) both;
}
.zr38-cls-59 {
animation:zr38-ani-59 1s cubic-bezier(0.65,0,0.35,1) both;
}
.zr38-cls-60 {
animation:zr38-ani-60 1s cubic-bezier(0.65,0,0.35,1) both;
}
.zr38-cls-61 {
animation:zr38-ani-61 1s cubic-bezier(0.65,0,0.35,1) both;
}
.zr38-cls-62 {
animation:zr38-ani-62 1s cubic-bezier(0.65,0,0.35,1) both;
}
.zr38-cls-63 {
animation:zr38-ani-63 1s cubic-bezier(0.65,0,0.35,1) both;
}
.zr38-cls-64 {
animation:zr38-ani-64 1s cubic-bezier(0.65,0,0.35,1) both;
}
.zr38-cls-65 {
animation:zr38-ani-65 1s cubic-bezier(0.65,0,0.35,1) both;
}
.zr38-cls-66 {
animation:zr38-ani-66 1s cubic-bezier(0.65,0,0.35,1) both;
}
.zr38-cls-67 {
animation:zr38-ani-67 1s cubic-bezier(0.65,0,0.35,1) both;
}
.zr38-cls-68 {
animation:zr38-ani-68 1s cubic-bezier(0.65,0,0.35,1) both;
}
.zr38-cls-69 {
animation:zr38-ani-69 1s cubic-bezier(0.65,0,0.35,1) both;
}
.zr38-cls-70 {
animation:zr38-ani-70 1s cubic-bezier(0.65,0,0.35,1) both;
}
.zr38-cls-71 {
animation:zr38-ani-71 1s cubic-bezier(0.65,0,0.35,1) both;
}
.zr38-cls-72 {
animation:zr38-ani-72 1s cubic-bezier(0.65,0,0.35,1) both;
}
.zr38-cls-73 {
animation:zr38-ani-73 1s cubic-bezier(0.65,0,0.35,1) both;
}
.zr38-cls-74 {
animation:zr38-ani-74 1s cubic-bezier(0.65,0,0.35,1) both;
}
.zr38-cls-75 {
animation:zr38-ani-75 1s cubic-bezier(0.65,0,0.35,1) both;
}
.zr38-cls-76 {
animation:zr38-ani-76 1s cubic-bezier(0.65,0,0.35,1) both;
}
.zr38-cls-77 {
animation:zr38-ani-77 1s cubic-bezier(0.65,0,0.35,1) both;
}
.zr38-cls-78 {
animation:zr38-ani-78 1s cubic-bezier(0.65,0,0.35,1) both;
}
.zr38-cls-79 {
animation:zr38-ani-79 1s cubic-bezier(0.65,0,0.35,1) both;
}
.zr38-cls-80 {
animation:zr38-ani-80 1s cubic-bezier(0.65,0,0.35,1) both;
}
.zr38-cls-81 {
animation:zr38-ani-81 1s cubic-bezier(0.65,0,0.35,1) both;
}
.zr38-cls-82 {
animation:zr38-ani-82 1s cubic-bezier(0.65,0,0.35,1) both;
}
.zr38-cls-83 {
animation:zr38-ani-83 1s cubic-bezier(0.65,0,0.35,1) both;
}
.zr38-cls-84 {
animation:zr38-ani-84 1s cubic-bezier(0.65,0,0.35,1) both;
}
.zr38-cls-85 {
animation:zr38-ani-85 1s cubic-bezier(0.65,0,0.35,1) both;
}
.zr38-cls-86 {
animation:zr38-ani-86 1s cubic-bezier(0.65,0,0.35,1) both;
}
.zr38-cls-87 {
animation:zr38-ani-87 1s cubic-bezier(0.65,0,0.35,1) both;
}
.zr38-cls-88 {
animation:zr38-ani-88 1s cubic-bezier(0.65,0,0.35,1) both;
}
.zr38-cls-89 {
animation:zr38-ani-89 1s cubic-bezier(0.65,0,0.35,1) both;
}
.zr38-cls-90 {
animation:zr38-ani-90 1s cubic-bezier(0.65,0,0.35,1) both;
}
.zr38-cls-91 {
animation:zr38-ani-91 1s cubic-bezier(0.65,0,0.35,1) both;
}
.zr38-cls-92 {
animation:zr38-ani-92 1s cubic-bezier(0.65,0,0.35,1) both;
}
.zr38-cls-93 {
animation:zr38-ani-93 1s cubic-bezier(0.65,0,0.35,1) both;
}
.zr38-cls-94 {
animation:zr38-ani-94 1s cubic-bezier(0.65,0,0.35,1) both;
}
.zr38-cls-95 {
animation:zr38-ani-95 1s cubic-bezier(0.65,0,0.35,1) both;
}
.zr38-cls-96 {
animation:zr38-ani-96 1s cubic-bezier(0.65,0,0.35,1) both;
}
@keyframes zr38-ani-0 {
0% {
d:path("M250 237.5A12.5 12.5 0 1 1 237.6 251.9A12.5 12.5 0 1 0 250 237.5Z");
}
100% {
d:path("M250 223.2A26.8 26.8 0 1 1 223.5 254.1L237.6 251.9A12.5 12.5 0 1 0 250 237.5Z");
}
}
@keyframes zr38-ani-1 {
0% {
d:path("M250 223.2A26.8 26.8 0 1 1 248.4 276.7A26.8 26.8 0 1 0 250 223.2Z");
}
100% {
d:path("M250 208.9A41.1 41.1 0 1 1 247.5 291L248.4 276.7A26.8 26.8 0 1 0 250 223.2Z");
}
}
@keyframes zr38-ani-2 {
0% {
d:path("M250 208.9A41.1 41.1 0 0 1 269.4 213.8A41.1 41.1 0 0 0 250 208.9Z");
}
100% {
d:path("M250 194.6A55.4 55.4 0 0 1 276.2 201.2L269.4 213.8A41.1 41.1 0 0 0 250 208.9Z");
}
}
@keyframes zr38-ani-3 {
0% {
d:path("M250 194.6A55.4 55.4 0 0 1 256.8 195.1L256.8 195.1A55.4 55.4 0 0 0 250 194.6Z");
}
100% {
d:path("M250 180.4A69.6 69.6 0 0 1 258.6 180.9L256.8 195.1A55.4 55.4 0 0 0 250 194.6Z");
}
}
@keyframes zr38-ani-4 {
0% {
d:path("M256.8 195.1A55.4 55.4 0 0 1 263.5 196.3L263.5 196.3A55.4 55.4 0 0 0 256.8 195.1Z");
}
100% {
d:path("M258.6 180.9A69.6 69.6 0 0 1 267 182.5L263.5 196.3A55.4 55.4 0 0 0 256.8 195.1Z");
}
}
@keyframes zr38-ani-5 {
0% {
d:path("M263.5 196.3A55.4 55.4 0 0 1 270 198.4L270 198.4A55.4 55.4 0 0 0 263.5 196.3Z");
}
100% {
d:path("M267 182.5A69.6 69.6 0 0 1 275.2 185.1L270 198.4A55.4 55.4 0 0 0 263.5 196.3Z");
}
}
@keyframes zr38-ani-6 {
0% {
d:path("M270 198.4A55.4 55.4 0 0 1 276.2 201.2L276.2 201.2A55.4 55.4 0 0 0 270 198.4Z");
}
100% {
d:path("M275.2 185.1A69.6 69.6 0 0 1 282.9 188.6L276.2 201.2A55.4 55.4 0 0 0 270 198.4Z");
}
}
@keyframes zr38-ani-7 {
0% {
d:path("M269.4 213.8A41.1 41.1 0 0 1 281.2 223.3L281.2 223.3A41.1 41.1 0 0 0 269.4 213.8Z");
}
100% {
d:path("M276.2 201.2A55.4 55.4 0 0 1 292 214L281.2 223.3A41.1 41.1 0 0 0 269.4 213.8Z");
}
}
@keyframes zr38-ani-8 {
0% {
d:path("M276.2 201.2A55.4 55.4 0 0 1 282 204.8L282 204.8A55.4 55.4 0 0 0 276.2 201.2Z");
}
100% {
d:path("M282.9 188.6A69.6 69.6 0 0 1 290.2 193.2L282 204.8A55.4 55.4 0 0 0 276.2 201.2Z");
}
}
@keyframes zr38-ani-9 {
0% {
d:path("M282 204.8A55.4 55.4 0 0 1 287.3 209.1L287.3 209.1A55.4 55.4 0 0 0 282 204.8Z");
}
100% {
d:path("M290.2 193.2A69.6 69.6 0 0 1 296.9 198.5L287.3 209.1A55.4 55.4 0 0 0 282 204.8Z");
}
}
@keyframes zr38-ani-10 {
0% {
d:path("M287.3 209.1A55.4 55.4 0 0 1 292 214L292 214A55.4 55.4 0 0 0 287.3 209.1Z");
}
100% {
d:path("M296.9 198.5A69.6 69.6 0 0 1 302.9 204.7L292 214A55.4 55.4 0 0 0 287.3 209.1Z");
}
}
@keyframes zr38-ani-11 {
0% {
d:path("M281.2 223.3A41.1 41.1 0 0 1 286.8 231.7L286.8 231.7A41.1 41.1 0 0 0 281.2 223.3Z");
}
100% {
d:path("M292 214A55.4 55.4 0 0 1 299.6 225.3L286.8 231.7A41.1 41.1 0 0 0 281.2 223.3Z");
}
}
@keyframes zr38-ani-12 {
0% {
d:path("M292 214A55.4 55.4 0 0 1 296.1 219.4L296.1 219.4A55.4 55.4 0 0 0 292 214Z");
}
100% {
d:path("M302.9 204.7A69.6 69.6 0 0 1 308.1 211.5L296.1 219.4A55.4 55.4 0 0 0 292 214Z");
}
}
@keyframes zr38-ani-13 {
0% {
d:path("M296.1 219.4A55.4 55.4 0 0 1 299.6 225.3L299.6 225.3A55.4 55.4 0 0 0 296.1 219.4Z");
}
100% {
d:path("M308.1 211.5A69.6 69.6 0 0 1 312.3 219L299.6 225.3A55.4 55.4 0 0 0 296.1 219.4Z");
}
}
@keyframes zr38-ani-14 {
0% {
d:path("M286.8 231.7A41.1 41.1 0 0 1 290.1 241.2L290.1 241.2A41.1 41.1 0 0 0 286.8 231.7Z");
}
100% {
d:path("M299.6 225.3A55.4 55.4 0 0 1 304.1 238.2L290.1 241.2A41.1 41.1 0 0 0 286.8 231.7Z");
}
}
@keyframes zr38-ani-15 {
0% {
d:path("M299.6 225.3A55.4 55.4 0 0 1 302.2 231.6L302.2 231.6A55.4 55.4 0 0 0 299.6 225.3Z");
}
100% {
d:path("M312.3 219A69.6 69.6 0 0 1 315.7 226.9L302.2 231.6A55.4 55.4 0 0 0 299.6 225.3Z");
}
}
@keyframes zr38-ani-16 {
0% {
d:path("M302.2 231.6A55.4 55.4 0 0 1 304.1 238.2L304.1 238.2A55.4 55.4 0 0 0 302.2 231.6Z");
}
100% {
d:path("M315.7 226.9A69.6 69.6 0 0 1 318 235.1L304.1 238.2A55.4 55.4 0 0 0 302.2 231.6Z");
}
}
@keyframes zr38-ani-17 {
0% {
d:path("M290.1 241.2A41.1 41.1 0 0 1 291.1 251.3L291.1 251.3A41.1 41.1 0 0 0 290.1 241.2Z");
}
100% {
d:path("M304.1 238.2A55.4 55.4 0 0 1 305.3 251.7L291.1 251.3A41.1 41.1 0 0 0 290.1 241.2Z");
}
}
@keyframes zr38-ani-18 {
0% {
d:path("M304.1 238.2A55.4 55.4 0 0 1 305.1 244.9L305.1 244.9A55.4 55.4 0 0 0 304.1 238.2Z");
}
100% {
d:path("M318 235.1A69.6 69.6 0 0 1 319.3 243.6L305.1 244.9A55.4 55.4 0 0 0 304.1 238.2Z");
}
}
@keyframes zr38-ani-19 {
0% {
d:path("M305.1 244.9A55.4 55.4 0 0 1 305.3 251.7L305.3 251.7A55.4 55.4 0 0 0 305.1 244.9Z");
}
100% {
d:path("M319.3 243.6A69.6 69.6 0 0 1 319.6 252.1L305.3 251.7A55.4 55.4 0 0 0 305.1 244.9Z");
}
}
@keyframes zr38-ani-20 {
0% {
d:path("M291.1 251.3A41.1 41.1 0 0 1 290.6 256.3L290.6 256.3A41.1 41.1 0 0 0 291.1 251.3Z");
}
100% {
d:path("M305.3 251.7A55.4 55.4 0 0 1 304.7 258.5L290.6 256.3A41.1 41.1 0 0 0 291.1 251.3Z");
}
}
@keyframes zr38-ani-21 {
0% {
d:path("M305.3 251.7A55.4 55.4 0 0 1 304.7 258.5L304.7 258.5A55.4 55.4 0 0 0 305.3 251.7Z");
}
100% {
d:path("M319.6 252.1A69.6 69.6 0 0 1 318.8 260.7L304.7 258.5A55.4 55.4 0 0 0 305.3 251.7Z");
}
}
@keyframes zr38-ani-22 {
0% {
d:path("M290.6 256.3A41.1 41.1 0 0 1 289.5 261.2L289.5 261.2A41.1 41.1 0 0 0 290.6 256.3Z");
}
100% {
d:path("M304.7 258.5A55.4 55.4 0 0 1 303.2 265.1L289.5 261.2A41.1 41.1 0 0 0 290.6 256.3Z");
}
}
@keyframes zr38-ani-23 {
0% {
d:path("M304.7 258.5A55.4 55.4 0 0 1 303.2 265.1L303.2 265.1A55.4 55.4 0 0 0 304.7 258.5Z");
}
100% {
d:path("M318.8 260.7A69.6 69.6 0 0 1 317 269.1L303.2 265.1A55.4 55.4 0 0 0 304.7 258.5Z");
}
}
@keyframes zr38-ani-24 {
0% {
d:path("M289.5 261.2A41.1 41.1 0 0 1 287.8 266L287.8 266A41.1 41.1 0 0 0 289.5 261.2Z");
}
100% {
d:path("M303.2 265.1A55.4 55.4 0 0 1 301 271.6L287.8 266A41.1 41.1 0 0 0 289.5 261.2Z");
}
}
@keyframes zr38-ani-25 {
0% {
d:path("M303.2 265.1A55.4 55.4 0 0 1 301 271.6L301 271.6A55.4 55.4 0 0 0 303.2 265.1Z");
}
100% {
d:path("M317 269.1A69.6 69.6 0 0 1 314.1 277.1L301 271.6A55.4 55.4 0 0 0 303.2 265.1Z");
}
}
@keyframes zr38-ani-26 {
0% {
d:path("M287.8 266A41.1 41.1 0 0 1 285.6 270.5L285.6 270.5A41.1 41.1 0 0 0 287.8 266Z");
}
100% {
d:path("M301 271.6A55.4 55.4 0 0 1 297.9 277.7L285.6 270.5A41.1 41.1 0 0 0 287.8 266Z");
}
}
@keyframes zr38-ani-27 {
0% {
d:path("M301 271.6A55.4 55.4 0 0 1 297.9 277.7L297.9 277.7A55.4 55.4 0 0 0 301 271.6Z");
}
100% {
d:path("M314.1 277.1A69.6 69.6 0 0 1 310.3 284.8L297.9 277.7A55.4 55.4 0 0 0 301 271.6Z");
}
}
@keyframes zr38-ani-28 {
0% {
d:path("M285.6 270.5A41.1 41.1 0 0 1 282.8 274.8L282.8 274.8A41.1 41.1 0 0 0 285.6 270.5Z");
}
100% {
d:path("M297.9 277.7A55.4 55.4 0 0 1 294.2 283.4L282.8 274.8A41.1 41.1 0 0 0 285.6 270.5Z");
}
}
@keyframes zr38-ani-29 {
0% {
d:path("M297.9 277.7A55.4 55.4 0 0 1 294.2 283.4L294.2 283.4A55.4 55.4 0 0 0 297.9 277.7Z");
}
100% {
d:path("M310.3 284.8A69.6 69.6 0 0 1 305.6 292L294.2 283.4A55.4 55.4 0 0 0 297.9 277.7Z");
}
}
@keyframes zr38-ani-30 {
0% {
d:path("M282.8 274.8A41.1 41.1 0 0 1 279.5 278.6L279.5 278.6A41.1 41.1 0 0 0 282.8 274.8Z");
}
100% {
d:path("M294.2 283.4A55.4 55.4 0 0 1 289.7 288.5L279.5 278.6A41.1 41.1 0 0 0 282.8 274.8Z");
}
}
@keyframes zr38-ani-31 {
0% {
d:path("M294.2 283.4A55.4 55.4 0 0 1 289.7 288.5L289.7 288.5A55.4 55.4 0 0 0 294.2 283.4Z");
}
100% {
d:path("M305.6 292A69.6 69.6 0 0 1 300 298.5L289.7 288.5A55.4 55.4 0 0 0 294.2 283.4Z");
}
}
@keyframes zr38-ani-32 {
0% {
d:path("M279.5 278.6A41.1 41.1 0 0 1 275.7 282L275.7 282A41.1 41.1 0 0 0 279.5 278.6Z");
}
100% {
d:path("M289.7 288.5A55.4 55.4 0 0 1 284.7 293.1L275.7 282A41.1 41.1 0 0 0 279.5 278.6Z");
}
}
@keyframes zr38-ani-33 {
0% {
d:path("M289.7 288.5A55.4 55.4 0 0 1 284.7 293.1L284.7 293.1A55.4 55.4 0 0 0 289.7 288.5Z");
}
100% {
d:path("M300 298.5A69.6 69.6 0 0 1 293.7 304.3L284.7 293.1A55.4 55.4 0 0 0 289.7 288.5Z");
}
}
@keyframes zr38-ani-34 {
0% {
d:path("M275.7 282A41.1 41.1 0 0 1 271.6 284.9L271.6 284.9A41.1 41.1 0 0 0 275.7 282Z");
}
100% {
d:path("M284.7 293.1A55.4 55.4 0 0 1 279.1 297.1L271.6 284.9A41.1 41.1 0 0 0 275.7 282Z");
}
}
@keyframes zr38-ani-35 {
0% {
d:path("M284.7 293.1A55.4 55.4 0 0 1 279.1 297.1L279.1 297.1A55.4 55.4 0 0 0 284.7 293.1Z");
}
100% {
d:path("M293.7 304.3A69.6 69.6 0 0 1 286.7 309.2L279.1 297.1A55.4 55.4 0 0 0 284.7 293.1Z");
}
}
@keyframes zr38-ani-36 {
0% {
d:path("M271.6 284.9A41.1 41.1 0 0 1 267.2 287.3L267.2 287.3A41.1 41.1 0 0 0 271.6 284.9Z");
}
100% {
d:path("M279.1 297.1A55.4 55.4 0 0 1 273.1 300.3L267.2 287.3A41.1 41.1 0 0 0 271.6 284.9Z");
}
}
@keyframes zr38-ani-37 {
0% {
d:path("M279.1 297.1A55.4 55.4 0 0 1 273.1 300.3L273.1 300.3A55.4 55.4 0 0 0 279.1 297.1Z");
}
100% {
d:path("M286.7 309.2A69.6 69.6 0 0 1 279.1 313.3L273.1 300.3A55.4 55.4 0 0 0 279.1 297.1Z");
}
}
@keyframes zr38-ani-38 {
0% {
d:path("M267.2 287.3A41.1 41.1 0 0 1 262.5 289.1L262.5 289.1A41.1 41.1 0 0 0 267.2 287.3Z");
}
100% {
d:path("M273.1 300.3A55.4 55.4 0 0 1 266.8 302.8L262.5 289.1A41.1 41.1 0 0 0 267.2 287.3Z");
}
}
@keyframes zr38-ani-39 {
0% {
d:path("M273.1 300.3A55.4 55.4 0 0 1 266.8 302.8L266.8 302.8A55.4 55.4 0 0 0 273.1 300.3Z");
}
100% {
d:path("M279.1 313.3A69.6 69.6 0 0 1 271.1 316.4L266.8 302.8A55.4 55.4 0 0 0 273.1 300.3Z");
}
}
@keyframes zr38-ani-40 {
0% {
d:path("M262.5 289.1A41.1 41.1 0 0 1 257.5 290.4L257.5 290.4A41.1 41.1 0 0 0 262.5 289.1Z");
}
100% {
d:path("M266.8 302.8A55.4 55.4 0 0 1 260.2 304.4L257.5 290.4A41.1 41.1 0 0 0 262.5 289.1Z");
}
}
@keyframes zr38-ani-41 {
0% {
d:path("M266.8 302.8A55.4 55.4 0 0 1 260.2 304.4L260.2 304.4A55.4 55.4 0 0 0 266.8 302.8Z");
}
100% {
d:path("M271.1 316.4A69.6 69.6 0 0 1 262.8 318.5L260.2 304.4A55.4 55.4 0 0 0 266.8 302.8Z");
}
}
@keyframes zr38-ani-42 {
0% {
d:path("M257.5 290.4A41.1 41.1 0 0 1 252.5 291L252.5 291A41.1 41.1 0 0 0 257.5 290.4Z");
}
100% {
d:path("M260.2 304.4A55.4 55.4 0 0 1 253.4 305.3L252.5 291A41.1 41.1 0 0 0 257.5 290.4Z");
}
}
@keyframes zr38-ani-43 {
0% {
d:path("M260.2 304.4A55.4 55.4 0 0 1 253.4 305.3L253.4 305.3A55.4 55.4 0 0 0 260.2 304.4Z");
}
100% {
d:path("M262.8 318.5A69.6 69.6 0 0 1 254.3 319.5L253.4 305.3A55.4 55.4 0 0 0 260.2 304.4Z");
}
}
@keyframes zr38-ani-44 {
0% {
d:path("M252.5 291A41.1 41.1 0 0 1 247.5 291L247.5 291A41.1 41.1 0 0 0 252.5 291Z");
}
100% {
d:path("M253.4 305.3A55.4 55.4 0 0 1 246.6 305.3L247.5 291A41.1 41.1 0 0 0 252.5 291Z");
}
}
@keyframes zr38-ani-45 {
0% {
d:path("M253.4 305.3A55.4 55.4 0 0 1 246.6 305.3L246.6 305.3A55.4 55.4 0 0 0 253.4 305.3Z");
}
100% {
d:path("M254.3 319.5A69.6 69.6 0 0 1 245.7 319.5L246.6 305.3A55.4 55.4 0 0 0 253.4 305.3Z");
}
}
@keyframes zr38-ani-46 {
0% {
d:path("M248.4 276.7A26.8 26.8 0 0 1 224.2 257.3L224.2 257.3A26.8 26.8 0 0 0 248.4 276.7Z");
}
100% {
d:path("M247.5 291A41.1 41.1 0 0 1 210.5 261.2L224.2 257.3A26.8 26.8 0 0 0 248.4 276.7Z");
}
}
@keyframes zr38-ani-47 {
0% {
d:path("M247.5 291A41.1 41.1 0 0 1 220.5 278.6L220.5 278.6A41.1 41.1 0 0 0 247.5 291Z");
}
100% {
d:path("M246.6 305.3A55.4 55.4 0 0 1 210.3 288.5L220.5 278.6A41.1 41.1 0 0 0 247.5 291Z");
}
}
@keyframes zr38-ani-48 {
0% {
d:path("M246.6 305.3A55.4 55.4 0 0 1 215.3 293.1L215.3 293.1A55.4 55.4 0 0 0 246.6 305.3Z");
}
100% {
d:path("M245.7 319.5A69.6 69.6 0 0 1 206.3 304.3L215.3 293.1A55.4 55.4 0 0 0 246.6 305.3Z");
}
}
@keyframes zr38-ani-49 {
0% {
d:path("M245.7 319.5A69.6 69.6 0 0 1 213.3 309.2L213.3 309.2A69.6 69.6 0 0 0 245.7 319.5Z");
}
100% {
d:path("M244.8 333.8A83.9 83.9 0 0 1 205.8 321.4L213.3 309.2A69.6 69.6 0 0 0 245.7 319.5Z");
}
}
@keyframes zr38-ani-50 {
0% {
d:path("M244.8 333.8A83.9 83.9 0 0 1 214.9 326.2L214.9 326.2A83.9 83.9 0 0 0 244.8 333.8Z");
}
100% {
d:path("M244 348A98.2 98.2 0 0 1 209 339.2L214.9 326.2A83.9 83.9 0 0 0 244.8 333.8Z");
}
}
@keyframes zr38-ani-51 {
0% {
d:path("M244 348A98.2 98.2 0 0 1 220.2 343.6L220.2 343.6A98.2 98.2 0 0 0 244 348Z");
}
100% {
d:path("M243.1 362.3A112.5 112.5 0 0 1 215.9 357.2L220.2 343.6A98.2 98.2 0 0 0 244 348Z");
}
}
@keyframes zr38-ani-52 {
0% {
d:path("M243.1 362.3A112.5 112.5 0 0 1 229.3 360.6L229.3 360.6A112.5 112.5 0 0 0 243.1 362.3Z");
}
100% {
d:path("M242.2 376.5A126.8 126.8 0 0 1 226.7 374.6L229.3 360.6A112.5 112.5 0 0 0 243.1 362.3Z");
}
}
@keyframes zr38-ani-53 {
0% {
d:path("M242.2 376.5A126.8 126.8 0 0 1 226.7 374.6L226.7 374.6A126.8 126.8 0 0 0 242.2 376.5Z");
}
100% {
d:path("M241.3 390.8A141.1 141.1 0 0 1 224.1 388.7L226.7 374.6A126.8 126.8 0 0 0 242.2 376.5Z");
}
}
@keyframes zr38-ani-54 {
0% {
d:path("M229.3 360.6A112.5 112.5 0 0 1 215.9 357.2L215.9 357.2A112.5 112.5 0 0 0 229.3 360.6Z");
}
100% {
d:path("M226.7 374.6A126.8 126.8 0 0 1 211.6 370.8L215.9 357.2A112.5 112.5 0 0 0 229.3 360.6Z");
}
}
@keyframes zr38-ani-55 {
0% {
d:path("M226.7 374.6A126.8 126.8 0 0 1 211.6 370.8L211.6 370.8A126.8 126.8 0 0 0 226.7 374.6Z");
}
100% {
d:path("M224.1 388.7A141.1 141.1 0 0 1 207.2 384.4L211.6 370.8A126.8 126.8 0 0 0 226.7 374.6Z");
}
}
@keyframes zr38-ani-56 {
0% {
d:path("M220.2 343.6A98.2 98.2 0 0 1 209 339.2L209 339.2A98.2 98.2 0 0 0 220.2 343.6Z");
}
100% {
d:path("M215.9 357.2A112.5 112.5 0 0 1 203 352.2L209 339.2A98.2 98.2 0 0 0 220.2 343.6Z");
}
}
@keyframes zr38-ani-57 {
0% {
d:path("M215.9 357.2A112.5 112.5 0 0 1 203 352.2L203 352.2A112.5 112.5 0 0 0 215.9 357.2Z");
}
100% {
d:path("M211.6 370.8A126.8 126.8 0 0 1 197 365.2L203 352.2A112.5 112.5 0 0 0 215.9 357.2Z");
}
}
@keyframes zr38-ani-58 {
0% {
d:path("M211.6 370.8A126.8 126.8 0 0 1 197 365.2L197 365.2A126.8 126.8 0 0 0 211.6 370.8Z");
}
100% {
d:path("M207.2 384.4A141.1 141.1 0 0 1 191 378.2L197 365.2A126.8 126.8 0 0 0 211.6 370.8Z");
}
}
@keyframes zr38-ani-59 {
0% {
d:path("M207.2 384.4A141.1 141.1 0 0 1 191 378.2L191 378.2A141.1 141.1 0 0 0 207.2 384.4Z");
}
100% {
d:path("M202.9 398A155.4 155.4 0 0 1 185.1 391.1L191 378.2A141.1 141.1 0 0 0 207.2 384.4Z");
}
}
@keyframes zr38-ani-60 {
0% {
d:path("M202.9 398A155.4 155.4 0 0 1 185.1 391.1L185.1 391.1A155.4 155.4 0 0 0 202.9 398Z");
}
100% {
d:path("M198.6 411.7A169.6 169.6 0 0 1 179.1 404.1L185.1 391.1A155.4 155.4 0 0 0 202.9 398Z");
}
}
@keyframes zr38-ani-61 {
0% {
d:path("M198.6 411.7A169.6 169.6 0 0 1 179.1 404.1L179.1 404.1A169.6 169.6 0 0 0 198.6 411.7Z");
}
100% {
d:path("M194.2 425.3A183.9 183.9 0 0 1 173.1 417.1L179.1 404.1A169.6 169.6 0 0 0 198.6 411.7Z");
}
}
@keyframes zr38-ani-62 {
0% {
d:path("M194.2 425.3A183.9 183.9 0 0 1 173.1 417.1L173.1 417.1A183.9 183.9 0 0 0 194.2 425.3Z");
}
100% {
d:path("M189.9 438.9A198.2 198.2 0 0 1 167.2 430.1L173.1 417.1A183.9 183.9 0 0 0 194.2 425.3Z");
}
}
@keyframes zr38-ani-63 {
0% {
d:path("M189.9 438.9A198.2 198.2 0 0 1 167.2 430.1L167.2 430.1A198.2 198.2 0 0 0 189.9 438.9Z");
}
100% {
d:path("M185.6 452.5A212.5 212.5 0 0 1 161.2 443L167.2 430.1A198.2 198.2 0 0 0 189.9 438.9Z");
}
}
@keyframes zr38-ani-64 {
0% {
d:path("M214.9 326.2A83.9 83.9 0 0 1 205.8 321.4L205.8 321.4A83.9 83.9 0 0 0 214.9 326.2Z");
}
100% {
d:path("M209 339.2A98.2 98.2 0 0 1 198.3 333.5L205.8 321.4A83.9 83.9 0 0 0 214.9 326.2Z");
}
}
@keyframes zr38-ani-65 {
0% {
d:path("M209 339.2A98.2 98.2 0 0 1 198.3 333.5L198.3 333.5A98.2 98.2 0 0 0 209 339.2Z");
}
100% {
d:path("M203 352.2A112.5 112.5 0 0 1 190.8 345.6L198.3 333.5A98.2 98.2 0 0 0 209 339.2Z");
}
}
@keyframes zr38-ani-66 {
0% {
d:path("M203 352.2A112.5 112.5 0 0 1 190.8 345.6L190.8 345.6A112.5 112.5 0 0 0 203 352.2Z");
}
100% {
d:path("M197 365.2A126.8 126.8 0 0 1 183.3 357.8L190.8 345.6A112.5 112.5 0 0 0 203 352.2Z");
}
}
@keyframes zr38-ani-67 {
0% {
d:path("M197 365.2A126.8 126.8 0 0 1 183.3 357.8L183.3 357.8A126.8 126.8 0 0 0 197 365.2Z");
}
100% {
d:path("M191 378.2A141.1 141.1 0 0 1 175.7 369.9L183.3 357.8A126.8 126.8 0 0 0 197 365.2Z");
}
}
@keyframes zr38-ani-68 {
0% {
d:path("M191 378.2A141.1 141.1 0 0 1 175.7 369.9L175.7 369.9A141.1 141.1 0 0 0 191 378.2Z");
}
100% {
d:path("M185.1 391.1A155.4 155.4 0 0 1 168.2 382.1L175.7 369.9A141.1 141.1 0 0 0 191 378.2Z");
}
}
@keyframes zr38-ani-69 {
0% {
d:path("M213.3 309.2A69.6 69.6 0 0 1 206.3 304.3L206.3 304.3A69.6 69.6 0 0 0 213.3 309.2Z");
}
100% {
d:path("M205.8 321.4A83.9 83.9 0 0 1 197.4 315.4L206.3 304.3A69.6 69.6 0 0 0 213.3 309.2Z");
}
}
@keyframes zr38-ani-70 {
0% {
d:path("M205.8 321.4A83.9 83.9 0 0 1 197.4 315.4L197.4 315.4A83.9 83.9 0 0 0 205.8 321.4Z");
}
100% {
d:path("M198.3 333.5A98.2 98.2 0 0 1 188.4 326.5L197.4 315.4A83.9 83.9 0 0 0 205.8 321.4Z");
}
}
@keyframes zr38-ani-71 {
0% {
d:path("M215.3 293.1A55.4 55.4 0 0 1 210.3 288.5L210.3 288.5A55.4 55.4 0 0 0 215.3 293.1Z");
}
100% {
d:path("M206.3 304.3A69.6 69.6 0 0 1 200 298.5L210.3 288.5A55.4 55.4 0 0 0 215.3 293.1Z");
}
}
@keyframes zr38-ani-72 {
0% {
d:path("M206.3 304.3A69.6 69.6 0 0 1 200 298.5L200 298.5A69.6 69.6 0 0 0 206.3 304.3Z");
}
100% {
d:path("M197.4 315.4A83.9 83.9 0 0 1 189.7 308.4L200 298.5A69.6 69.6 0 0 0 206.3 304.3Z");
}
}
@keyframes zr38-ani-73 {
0% {
d:path("M197.4 315.4A83.9 83.9 0 0 1 189.7 308.4L189.7 308.4A83.9 83.9 0 0 0 197.4 315.4Z");
}
100% {
d:path("M188.4 326.5A98.2 98.2 0 0 1 179.5 318.4L189.7 308.4A83.9 83.9 0 0 0 197.4 315.4Z");
}
}
@keyframes zr38-ani-74 {
0% {
d:path("M188.4 326.5A98.2 98.2 0 0 1 179.5 318.4L179.5 318.4A98.2 98.2 0 0 0 188.4 326.5Z");
}
100% {
d:path("M179.5 337.6A112.5 112.5 0 0 1 169.2 328.3L179.5 318.4A98.2 98.2 0 0 0 188.4 326.5Z");
}
}
@keyframes zr38-ani-75 {
0% {
d:path("M220.5 278.6A41.1 41.1 0 0 1 217.2 274.8L217.2 274.8A41.1 41.1 0 0 0 220.5 278.6Z");
}
100% {
d:path("M210.3 288.5A55.4 55.4 0 0 1 205.8 283.4L217.2 274.8A41.1 41.1 0 0 0 220.5 278.6Z");
}
}
@keyframes zr38-ani-76 {
0% {
d:path("M210.3 288.5A55.4 55.4 0 0 1 205.8 283.4L205.8 283.4A55.4 55.4 0 0 0 210.3 288.5Z");
}
100% {
d:path("M200 298.5A69.6 69.6 0 0 1 194.4 292L205.8 283.4A55.4 55.4 0 0 0 210.3 288.5Z");
}
}
@keyframes zr38-ani-77 {
0% {
d:path("M200 298.5A69.6 69.6 0 0 1 194.4 292L194.4 292A69.6 69.6 0 0 0 200 298.5Z");
}
100% {
d:path("M189.7 308.4A83.9 83.9 0 0 1 183 300.6L194.4 292A69.6 69.6 0 0 0 200 298.5Z");
}
}
@keyframes zr38-ani-78 {
0% {
d:path("M189.7 308.4A83.9 83.9 0 0 1 183 300.6L183 300.6A83.9 83.9 0 0 0 189.7 308.4Z");
}
100% {
d:path("M179.5 318.4A98.2 98.2 0 0 1 171.6 309.2L183 300.6A83.9 83.9 0 0 0 189.7 308.4Z");
}
}
@keyframes zr38-ani-79 {
0% {
d:path("M217.2 274.8A41.1 41.1 0 0 1 214.4 270.5L214.4 270.5A41.1 41.1 0 0 0 217.2 274.8Z");
}
100% {
d:path("M205.8 283.4A55.4 55.4 0 0 1 202.1 277.7L214.4 270.5A41.1 41.1 0 0 0 217.2 274.8Z");
}
}
@keyframes zr38-ani-80 {
0% {
d:path("M205.8 283.4A55.4 55.4 0 0 1 202.1 277.7L202.1 277.7A55.4 55.4 0 0 0 205.8 283.4Z");
}
100% {
d:path("M194.4 292A69.6 69.6 0 0 1 189.7 284.8L202.1 277.7A55.4 55.4 0 0 0 205.8 283.4Z");
}
}
@keyframes zr38-ani-81 {
0% {
d:path("M194.4 292A69.6 69.6 0 0 1 189.7 284.8L189.7 284.8A69.6 69.6 0 0 0 194.4 292Z");
}
100% {
d:path("M183 300.6A83.9 83.9 0 0 1 177.3 292L189.7 284.8A69.6 69.6 0 0 0 194.4 292Z");
}
}
@keyframes zr38-ani-82 {
0% {
d:path("M183 300.6A83.9 83.9 0 0 1 177.3 292L177.3 292A83.9 83.9 0 0 0 183 300.6Z");
}
100% {
d:path("M171.6 309.2A98.2 98.2 0 0 1 164.9 299.1L177.3 292A83.9 83.9 0 0 0 183 300.6Z");
}
}
@keyframes zr38-ani-83 {
0% {
d:path("M214.4 270.5A41.1 41.1 0 0 1 212.2 266L212.2 266A41.1 41.1 0 0 0 214.4 270.5Z");
}
100% {
d:path("M202.1 277.7A55.4 55.4 0 0 1 199 271.6L212.2 266A41.1 41.1 0 0 0 214.4 270.5Z");
}
}
@keyframes zr38-ani-84 {
0% {
d:path("M202.1 277.7A55.4 55.4 0 0 1 199 271.6L199 271.6A55.4 55.4 0 0 0 202.1 277.7Z");
}
100% {
d:path("M189.7 284.8A69.6 69.6 0 0 1 185.9 277.1L199 271.6A55.4 55.4 0 0 0 202.1 277.7Z");
}
}
@keyframes zr38-ani-85 {
0% {
d:path("M189.7 284.8A69.6 69.6 0 0 1 185.9 277.1L185.9 277.1A69.6 69.6 0 0 0 189.7 284.8Z");
}
100% {
d:path("M177.3 292A83.9 83.9 0 0 1 172.7 282.7L185.9 277.1A69.6 69.6 0 0 0 189.7 284.8Z");
}
}
@keyframes zr38-ani-86 {
0% {
d:path("M177.3 292A83.9 83.9 0 0 1 172.7 282.7L172.7 282.7A83.9 83.9 0 0 0 177.3 292Z");
}
100% {
d:path("M164.9 299.1A98.2 98.2 0 0 1 159.6 288.3L172.7 282.7A83.9 83.9 0 0 0 177.3 292Z");
}
}
@keyframes zr38-ani-87 {
0% {
d:path("M212.2 266A41.1 41.1 0 0 1 210.5 261.2L210.5 261.2A41.1 41.1 0 0 0 212.2 266Z");
}
100% {
d:path("M199 271.6A55.4 55.4 0 0 1 196.8 265.1L210.5 261.2A41.1 41.1 0 0 0 212.2 266Z");
}
}
@keyframes zr38-ani-88 {
0% {
d:path("M199 271.6A55.4 55.4 0 0 1 196.8 265.1L196.8 265.1A55.4 55.4 0 0 0 199 271.6Z");
}
100% {
d:path("M185.9 277.1A69.6 69.6 0 0 1 183 269.1L196.8 265.1A55.4 55.4 0 0 0 199 271.6Z");
}
}
@keyframes zr38-ani-89 {
0% {
d:path("M185.9 277.1A69.6 69.6 0 0 1 183 269.1L183 269.1A69.6 69.6 0 0 0 185.9 277.1Z");
}
100% {
d:path("M172.7 282.7A83.9 83.9 0 0 1 169.3 273L183 269.1A69.6 69.6 0 0 0 185.9 277.1Z");
}
}
@keyframes zr38-ani-90 {
0% {
d:path("M172.7 282.7A83.9 83.9 0 0 1 169.3 273L169.3 273A83.9 83.9 0 0 0 172.7 282.7Z");
}
100% {
d:path("M159.6 288.3A98.2 98.2 0 0 1 155.5 276.9L169.3 273A83.9 83.9 0 0 0 172.7 282.7Z");
}
}
@keyframes zr38-ani-91 {
0% {
d:path("M224.2 257.3A26.8 26.8 0 0 1 223.5 254.1L223.5 254.1A26.8 26.8 0 0 0 224.2 257.3Z");
}
100% {
d:path("M210.5 261.2A41.1 41.1 0 0 1 209.4 256.3L223.5 254.1A26.8 26.8 0 0 0 224.2 257.3Z");
}
}
@keyframes zr38-ani-92 {
0% {
d:path("M210.5 261.2A41.1 41.1 0 0 1 209.4 256.3L209.4 256.3A41.1 41.1 0 0 0 210.5 261.2Z");
}
100% {
d:path("M196.8 265.1A55.4 55.4 0 0 1 195.3 258.5L209.4 256.3A41.1 41.1 0 0 0 210.5 261.2Z");
}
}
@keyframes zr38-ani-93 {
0% {
d:path("M196.8 265.1A55.4 55.4 0 0 1 195.3 258.5L195.3 258.5A55.4 55.4 0 0 0 196.8 265.1Z");
}
100% {
d:path("M183 269.1A69.6 69.6 0 0 1 181.2 260.7L195.3 258.5A55.4 55.4 0 0 0 196.8 265.1Z");
}
}
@keyframes zr38-ani-94 {
0% {
d:path("M237.6 251.9A12.5 12.5 0 0 1 250 237.5L250 237.5A12.5 12.5 0 0 0 237.6 251.9Z");
}
100% {
d:path("M223.5 254.1A26.8 26.8 0 0 1 250 223.2L250 237.5A12.5 12.5 0 0 0 237.6 251.9Z");
}
}
@keyframes zr38-ani-95 {
0% {
d:path("M223.5 254.1A26.8 26.8 0 0 1 246.7 223.4L246.7 223.4A26.8 26.8 0 0 0 223.5 254.1Z");
}
100% {
d:path("M209.4 256.3A41.1 41.1 0 0 1 245 209.2L246.7 223.4A26.8 26.8 0 0 0 223.5 254.1Z");
}
}
@keyframes zr38-ani-96 {
0% {
d:path("M246.7 223.4A26.8 26.8 0 0 1 250 223.2L250 223.2A26.8 26.8 0 0 0 246.7 223.4Z");
}
100% {
d:path("M245 209.2A41.1 41.1 0 0 1 250 208.9L250 223.2A26.8 26.8 0 0 0 246.7 223.4Z");
}
}
]]>

</style>
</svg>