<svg width="500" height="500" xmlns="http://www.w3.org/2000/svg" xmlns:xlink="http://www.w3.org/1999/xlink" version="1.1" baseProfile="full" viewBox="0 0 500 500">
<rect width="500" height="500" x="0" y="0" id="0" fill="none"></rect>
<path d="M250 224.2A25.8 25.8 0 1 1 225.4 242L238.1 246.1A12.5 12.5 0 1 0 250 237.5Z" fill="#000" stroke="white" stroke-linejoin="bevel" class="zr54-cls-0"></path>
<path d="M250 210.8A39.2 39.2 0 1 1 218.3 273L229.1 265.2A25.8 25.8 0 1 0 250 224.2Z" fill="#4949CD" fill-opacity="0.5" stroke="#fff" stroke-width="4" stroke-opacity="0.5" stroke-linejoin="bevel" class="zr54-cls-1"></path>
<path d="M250 197.5A52.5 52.5 0 0 1 292.5 280.9L281.7 273A39.2 39.2 0 0 0 250 210.8Z" fill="#000" stroke="white" stroke-linejoin="bevel" class="zr54-cls-2"></path>
<path d="M250 184.2A65.8 65.8 0 0 1 303.3 288.7L292.5 280.9A52.5 52.5 0 0 0 250 197.5Z" fill="#000" stroke="white" stroke-linejoin="bevel" class="zr54-cls-3"></path>
<path d="M250 170.8A79.2 79.2 0 0 1 314 296.5L303.3 288.7A65.8 65.8 0 0 0 250 184.2Z" fill="#4949CD" fill-opacity="0.5" stroke="#fff" stroke-width="4" stroke-opacity="0.5" stroke-linejoin="bevel" class="zr54-cls-4"></path>
<path d="M250 157.5A92.5 92.5 0 0 1 324.8 304.4L314 296.5A79.2 79.2 0 0 0 250 170.8Z" fill="#F3C142" stroke="white" stroke-linejoin="bevel" class="zr54-cls-5"></path>
<path d="M250 144.2A105.8 105.8 0 0 1 312.2 164.4L304.4 175.2A92.5 92.5 0 0 0 250 157.5Z" fill="#C8C8C8" stroke="white" stroke-linejoin="bevel" class="zr54-cls-6"></path>
<path d="M312.2 164.4A105.8 105.8 0 0 1 350.7 217.3L338 221.4A92.5 92.5 0 0 0 304.4 175.2Z" fill="#000" stroke="white" stroke-linejoin="bevel" class="zr54-cls-7"></path>
<path d="M320 153.6A119.2 119.2 0 0 1 363.3 213.2L350.7 217.3A105.8 105.8 0 0 0 312.2 164.4Z" fill="#000" stroke="white" stroke-linejoin="bevel" class="zr54-cls-8"></path>
<path d="M327.9 142.8A132.5 132.5 0 0 1 376 209.1L363.3 213.2A119.2 119.2 0 0 0 320 153.6Z" fill="#4949CD" fill-opacity="0.5" stroke="#fff" stroke-width="4" stroke-opacity="0.5" stroke-linejoin="bevel" class="zr54-cls-9"></path>
<path d="M335.7 132A145.8 145.8 0 0 1 388.7 204.9L376 209.1A132.5 132.5 0 0 0 327.9 142.8Z" fill="#000" stroke="white" stroke-linejoin="bevel" class="zr54-cls-10"></path>
<path d="M343.6 121.2A159.2 159.2 0 0 1 401.4 200.8L388.7 204.9A145.8 145.8 0 0 0 335.7 132Z" fill="#A0522D" stroke="white" stroke-linejoin="bevel" class="zr54-cls-11"></path>
<path d="M351.4 110.4A172.5 172.5 0 0 1 414.1 196.7L401.4 200.8A159.2 159.2 0 0 0 343.6 121.2Z" fill="#A0522D" stroke="white" stroke-linejoin="bevel" class="zr54-cls-12"></path>
<path d="M359.2 99.7A185.8 185.8 0 0 1 400.3 140.8L389.6 148.6A172.5 172.5 0 0 0 351.4 110.4Z" fill="#4949CD" fill-opacity="0.5" stroke="#fff" stroke-width="4" stroke-opacity="0.5" stroke-linejoin="bevel" class="zr54-cls-13"></path>
<path d="M367.1 88.9A199.2 199.2 0 0 1 411.1 132.9L400.3 140.8A185.8 185.8 0 0 0 359.2 99.7Z" fill="#A0522D" stroke="white" stroke-linejoin="bevel" class="zr54-cls-14"></path>
<path d="M374.9 78.1A212.5 212.5 0 0 1 421.9 125.1L411.1 132.9A199.2 199.2 0 0 0 367.1 88.9Z" fill="#A0522D" stroke="white" stroke-linejoin="bevel" class="zr54-cls-15"></path>
<path d="M400.3 140.8A185.8 185.8 0 0 1 426.7 192.6L414.1 196.7A172.5 172.5 0 0 0 389.6 148.6Z" fill="#49ff49" fill-opacity="0.5" stroke="#fff" stroke-width="4" stroke-opacity="0.5" stroke-linejoin="bevel" class="zr54-cls-16"></path>
<path d="M411.1 132.9A199.2 199.2 0 0 1 439.4 188.5L426.7 192.6A185.8 185.8 0 0 0 400.3 140.8Z" fill="#A0522D" stroke="white" stroke-linejoin="bevel" class="zr54-cls-17"></path>
<path d="M350.7 217.3A105.8 105.8 0 0 1 350.7 282.7L338 278.6A92.5 92.5 0 0 0 338 221.4Z" fill="#000" stroke="white" stroke-linejoin="bevel" class="zr54-cls-18"></path>
<path d="M363.3 213.2A119.2 119.2 0 0 1 369.2 250L355.8 250A105.8 105.8 0 0 0 350.7 217.3Z" fill="#49ff49" fill-opacity="0.5" stroke="#fff" stroke-width="4" stroke-opacity="0.5" stroke-linejoin="bevel" class="zr54-cls-19"></path>
<path d="M376 209.1A132.5 132.5 0 0 1 382.5 250L369.2 250A119.2 119.2 0 0 0 363.3 213.2Z" fill="#000" stroke="white" stroke-linejoin="bevel" class="zr54-cls-20"></path>
<path d="M369.2 250A119.2 119.2 0 0 1 363.3 286.8L350.7 282.7A105.8 105.8 0 0 0 355.8 250Z" fill="#ff4949" fill-opacity="0.5" stroke="#fff" stroke-width="4" stroke-opacity="0.5" stroke-linejoin="bevel" class="zr54-cls-21"></path>
<path d="M382.5 250A132.5 132.5 0 0 1 376 290.9L363.3 286.8A119.2 119.2 0 0 0 369.2 250Z" fill="#000" stroke="white" stroke-linejoin="bevel" class="zr54-cls-22"></path>
<path d="M350.7 282.7A105.8 105.8 0 0 1 335.6 312.2L324.8 304.4A92.5 92.5 0 0 0 338 278.6Z" fill="#000" stroke="white" stroke-linejoin="bevel" class="zr54-cls-23"></path>
<path d="M363.3 286.8A119.2 119.2 0 0 1 346.4 320L335.6 312.2A105.8 105.8 0 0 0 350.7 282.7Z" fill="#49ff49" fill-opacity="0.5" stroke="#fff" stroke-width="4" stroke-opacity="0.5" stroke-linejoin="bevel" class="zr54-cls-24"></path>
<path d="M376 290.9A132.5 132.5 0 0 1 357.2 327.9L346.4 320A119.2 119.2 0 0 0 363.3 286.8Z" fill="#000" stroke="white" stroke-linejoin="bevel" class="zr54-cls-25"></path>
<path d="M388.7 295.1A145.8 145.8 0 0 1 368 335.7L357.2 327.9A132.5 132.5 0 0 0 376 290.9Z" fill="#000" stroke="white" stroke-linejoin="bevel" class="zr54-cls-26"></path>
<path d="M292.5 280.9A52.5 52.5 0 0 1 250 302.5L250 289.2A39.2 39.2 0 0 0 281.7 273Z" fill="#000" stroke="white" stroke-linejoin="bevel" class="zr54-cls-27"></path>
<path d="M303.3 288.7A65.8 65.8 0 0 1 250 315.8L250 302.5A52.5 52.5 0 0 0 292.5 280.9Z" fill="#000" stroke="white" stroke-linejoin="bevel" class="zr54-cls-28"></path>
<path d="M314 296.5A79.2 79.2 0 0 1 250 329.2L250 315.8A65.8 65.8 0 0 0 303.3 288.7Z" fill="#4949CD" fill-opacity="0.5" stroke="#fff" stroke-width="4" stroke-opacity="0.5" stroke-linejoin="bevel" class="zr54-cls-29"></path>
<path d="M324.8 304.4A92.5 92.5 0 0 1 250 342.5L250 329.2A79.2 79.2 0 0 0 314 296.5Z" fill="#F3C142" stroke="white" stroke-linejoin="bevel" class="zr54-cls-30"></path>
<path d="M335.6 312.2A105.8 105.8 0 0 1 282.7 350.7L278.6 338A92.5 92.5 0 0 0 324.8 304.4Z" fill="#C8C8C8" stroke="white" stroke-linejoin="bevel" class="zr54-cls-31"></path>
<path d="M282.7 350.7A105.8 105.8 0 0 1 250 355.8L250 342.5A92.5 92.5 0 0 0 278.6 338Z" fill="#000" stroke="white" stroke-linejoin="bevel" class="zr54-cls-32"></path>
<path d="M286.8 363.3A119.2 119.2 0 0 1 250 369.2L250 355.8A105.8 105.8 0 0 0 282.7 350.7Z" fill="#000" stroke="white" stroke-linejoin="bevel" class="zr54-cls-33"></path>
<path d="M290.9 376A132.5 132.5 0 0 1 250 382.5L250 369.2A119.2 119.2 0 0 0 286.8 363.3Z" fill="#4949CD" fill-opacity="0.5" stroke="#fff" stroke-width="4" stroke-opacity="0.5" stroke-linejoin="bevel" class="zr54-cls-34"></path>
<path d="M295.1 388.7A145.8 145.8 0 0 1 250 395.8L250 382.5A132.5 132.5 0 0 0 290.9 376Z" fill="#000" stroke="white" stroke-linejoin="bevel" class="zr54-cls-35"></path>
<path d="M299.2 401.4A159.2 159.2 0 0 1 250 409.2L250 395.8A145.8 145.8 0 0 0 295.1 388.7Z" fill="#A0522D" stroke="white" stroke-linejoin="bevel" class="zr54-cls-36"></path>
<path d="M303.3 414.1A172.5 172.5 0 0 1 250 422.5L250 409.2A159.2 159.2 0 0 0 299.2 401.4Z" fill="#A0522D" stroke="white" stroke-linejoin="bevel" class="zr54-cls-37"></path>
<path d="M307.4 426.7A185.8 185.8 0 0 1 250 435.8L250 422.5A172.5 172.5 0 0 0 303.3 414.1Z" fill="#49ff49" fill-opacity="0.5" stroke="#fff" stroke-width="4" stroke-opacity="0.5" stroke-linejoin="bevel" class="zr54-cls-38"></path>
<path d="M311.5 439.4A199.2 199.2 0 0 1 250 449.2L250 435.8A185.8 185.8 0 0 0 307.4 426.7Z" fill="#A0522D" stroke="white" stroke-linejoin="bevel" class="zr54-cls-39"></path>
<path d="M250 302.5A52.5 52.5 0 0 1 219.1 292.5L227 281.7A39.2 39.2 0 0 0 250 289.2Z" fill="#000" stroke="white" stroke-linejoin="bevel" class="zr54-cls-40"></path>
<path d="M250 315.8A65.8 65.8 0 0 1 211.3 303.3L219.1 292.5A52.5 52.5 0 0 0 250 302.5Z" fill="#000" stroke="white" stroke-linejoin="bevel" class="zr54-cls-41"></path>
<path d="M250 329.2A79.2 79.2 0 0 1 203.5 314L211.3 303.3A65.8 65.8 0 0 0 250 315.8Z" fill="#4949CD" fill-opacity="0.5" stroke="#fff" stroke-width="4" stroke-opacity="0.5" stroke-linejoin="bevel" class="zr54-cls-42"></path>
<path d="M250 342.5A92.5 92.5 0 0 1 195.6 324.8L203.5 314A79.2 79.2 0 0 0 250 329.2Z" fill="#F3C142" stroke="white" stroke-linejoin="bevel" class="zr54-cls-43"></path>
<path d="M250 355.8A105.8 105.8 0 0 1 217.3 350.7L221.4 338A92.5 92.5 0 0 0 250 342.5Z" fill="#C8C8C8" stroke="white" stroke-linejoin="bevel" class="zr54-cls-44"></path>
<path d="M217.3 350.7A105.8 105.8 0 0 1 187.8 335.6L195.6 324.8A92.5 92.5 0 0 0 221.4 338Z" fill="#000" stroke="white" stroke-linejoin="bevel" class="zr54-cls-45"></path>
<path d="M213.2 363.3A119.2 119.2 0 0 1 180 346.4L187.8 335.6A105.8 105.8 0 0 0 217.3 350.7Z" fill="#49ff49" fill-opacity="0.5" stroke="#fff" stroke-width="4" stroke-opacity="0.5" stroke-linejoin="bevel" class="zr54-cls-46"></path>
<path d="M219.1 292.5A52.5 52.5 0 0 1 207.5 280.9L218.3 273A39.2 39.2 0 0 0 227 281.7Z" fill="#000" stroke="white" stroke-linejoin="bevel" class="zr54-cls-47"></path>
<path d="M211.3 303.3A65.8 65.8 0 0 1 196.7 288.7L207.5 280.9A52.5 52.5 0 0 0 219.1 292.5Z" fill="#000" stroke="white" stroke-linejoin="bevel" class="zr54-cls-48"></path>
<path d="M203.5 314A79.2 79.2 0 0 1 186 296.5L196.7 288.7A65.8 65.8 0 0 0 211.3 303.3Z" fill="#49ff49" fill-opacity="0.5" stroke="#fff" stroke-width="4" stroke-opacity="0.5" stroke-linejoin="bevel" class="zr54-cls-49"></path>
<path d="M195.6 324.8A92.5 92.5 0 0 1 175.2 304.4L186 296.5A79.2 79.2 0 0 0 203.5 314Z" fill="#FF0000" stroke="white" stroke-linejoin="bevel" class="zr54-cls-50"></path>
<path d="M218.3 273A39.2 39.2 0 0 1 210.8 250L224.2 250A25.8 25.8 0 0 0 229.1 265.2Z" fill="#49ff49" fill-opacity="0.5" stroke="#fff" stroke-width="4" stroke-opacity="0.5" stroke-linejoin="bevel" class="zr54-cls-51"></path>
<path d="M207.5 280.9A52.5 52.5 0 0 1 200.1 266.2L212.8 262.1A39.2 39.2 0 0 0 218.3 273Z" fill="#000" stroke="white" stroke-linejoin="bevel" class="zr54-cls-52"></path>
<path d="M196.7 288.7A65.8 65.8 0 0 1 187.4 270.3L200.1 266.2A52.5 52.5 0 0 0 207.5 280.9Z" fill="#FF0000" stroke="white" stroke-linejoin="bevel" class="zr54-cls-53"></path>
<path d="M200.1 266.2A52.5 52.5 0 0 1 197.5 250L210.8 250A39.2 39.2 0 0 0 212.8 262.1Z" fill="#000" stroke="white" stroke-linejoin="bevel" class="zr54-cls-54"></path>
<path d="M187.4 270.3A65.8 65.8 0 0 1 184.2 250L197.5 250A52.5 52.5 0 0 0 200.1 266.2Z" fill="#F3C142" stroke="white" stroke-linejoin="bevel" class="zr54-cls-55"></path>
<path d="M210.8 250A39.2 39.2 0 0 1 212.8 237.9L225.4 242A25.8 25.8 0 0 0 224.2 250Z" fill="#ff4949" fill-opacity="0.5" stroke="#fff" stroke-width="4" stroke-opacity="0.5" stroke-linejoin="bevel" class="zr54-cls-56"></path>
<path d="M197.5 250A52.5 52.5 0 0 1 200.1 233.8L212.8 237.9A39.2 39.2 0 0 0 210.8 250Z" fill="#000" stroke="white" stroke-linejoin="bevel" class="zr54-cls-57"></path>
<path d="M184.2 250A65.8 65.8 0 0 1 187.4 229.7L200.1 233.8A52.5 52.5 0 0 0 197.5 250Z" fill="#F3C142" stroke="white" stroke-linejoin="bevel" class="zr54-cls-58"></path>
<path d="M225.4 242A25.8 25.8 0 0 1 250 224.2L250 237.5A12.5 12.5 0 0 0 238.1 246.1Z" fill="#C8C8C8" stroke="white" stroke-linejoin="bevel" class="zr54-cls-59"></path>
<path d="M212.8 237.9A39.2 39.2 0 0 1 250 210.8L250 224.2A25.8 25.8 0 0 0 225.4 242Z" fill="#C8C8C8" stroke="white" stroke-linejoin="bevel" class="zr54-cls-60"></path>
<text dominant-baseline="central" text-anchor="middle" style="font-size:12px;font-family:sans-serif;" transform="matrix(0.809,-0.588,0.588,0.809,261.2659,265.5062)" fill="#ccc" stroke="#000" stroke-width="2" paint-order="stroke" stroke-miterlimit="2">paths</text>
<text dominant-baseline="central" text-anchor="middle" style="font-size:9px;font-family:sans-serif;" transform="matrix(0.454,0.891,-0.891,0.454,302.7179,223.1389)" fill="#ccc" stroke="#000" stroke-width="2" paint-order="stroke" stroke-miterlimit="2">operations</text>
<text dominant-baseline="central" text-anchor="middle" style="font-size:12px;font-family:sans-serif;" transform="matrix(0.454,0.891,-0.891,0.454,326.4781,211.0325)" fill="#333">POST</text>
<text dominant-baseline="central" text-anchor="middle" style="font-size:9px;font-family:sans-serif;" transform="matrix(0.951,0.309,-0.309,0.951,280.6442,155.6869)" fill="#333">description</text>
<text dominant-baseline="central" text-anchor="middle" style="font-size:9px;font-family:sans-serif;" transform="matrix(0.588,0.809,-0.809,0.588,330.2275,191.7113)" fill="#ccc" stroke="#000" stroke-width="2" paint-order="stroke" stroke-miterlimit="2">requestBody</text>
<text dominant-baseline="central" text-anchor="middle" style="font-size:10px;font-family:sans-serif;" transform="matrix(0.588,0.809,-0.809,0.588,341.0144,183.8742)" fill="#ccc" stroke="#000" stroke-width="2" paint-order="stroke" stroke-miterlimit="2">content</text>
<text dominant-baseline="central" text-anchor="middle" style="font-size:12px;font-family:sans-serif;" transform="matrix(0.588,0.809,-0.809,0.588,373.3751,160.3627)" fill="#eee" stroke="#A0522D" stroke-width="2" paint-order="stroke" stroke-miterlimit="2">schema</text>
<text dominant-baseline="central" text-anchor="middle" style="font-size:9px;font-family:sans-serif;" transform="matrix(0.588,0.809,-0.809,0.588,384.162,152.5256)" fill="#eee" stroke="#A0522D" stroke-width="2" paint-order="stroke" stroke-miterlimit="2">properties</text>
<text dominant-baseline="central" text-anchor="middle" style="font-size:12px;font-family:sans-serif;" transform="matrix(0.707,0.707,-0.707,0.707,395.5461,104.4539)" fill="#eee" stroke="#A0522D" stroke-width="2" paint-order="stroke" stroke-miterlimit="2">format</text>
<text dominant-baseline="central" text-anchor="middle" style="font-size:10px;font-family:sans-serif;" transform="matrix(0.454,0.891,-0.891,0.454,421.5188,162.6068)" fill="#eee" stroke="#A0522D" stroke-width="2" paint-order="stroke" stroke-miterlimit="2">seriesId</text>
<text dominant-baseline="central" text-anchor="middle" style="font-size:10px;font-family:sans-serif;" transform="matrix(0,-1,1,0,349.1667,250)" fill="#ccc" stroke="#000" stroke-width="2" paint-order="stroke" stroke-miterlimit="2">responses</text>
<text dominant-baseline="central" text-anchor="middle" style="font-size:12px;font-family:sans-serif;" transform="matrix(0.156,0.988,-0.988,0.156,374.2841,230.3153)" fill="#ccc" stroke="#000" stroke-width="2" paint-order="stroke" stroke-miterlimit="2">200</text>
<text dominant-baseline="central" text-anchor="middle" style="font-size:12px;font-family:sans-serif;" transform="matrix(0.156,-0.988,0.988,0.156,374.2841,269.6847)" fill="#ccc" stroke="#000" stroke-width="2" paint-order="stroke" stroke-miterlimit="2">201</text>
<text dominant-baseline="central" text-anchor="middle" style="font-size:9px;font-family:sans-serif;" transform="matrix(0.454,-0.891,0.891,0.454,338.3581,295.0207)" fill="#ccc" stroke="#000" stroke-width="2" paint-order="stroke" stroke-miterlimit="2">params</text>
<text dominant-baseline="central" text-anchor="middle" style="font-size:12px;font-family:sans-serif;" transform="matrix(0.454,-0.891,0.891,0.454,373.9984,313.1803)" fill="#ccc" stroke="#000" stroke-width="2" paint-order="stroke" stroke-miterlimit="2">tenant</text>
<text dominant-baseline="central" text-anchor="middle" style="font-size:9px;font-family:sans-serif;" transform="matrix(0.891,-0.454,0.454,0.891,276.8611,302.7179)" fill="#ccc" stroke="#000" stroke-width="2" paint-order="stroke" stroke-miterlimit="2">operations</text>
<text dominant-baseline="central" text-anchor="middle" style="font-size:12px;font-family:sans-serif;" transform="matrix(0.891,-0.454,0.454,0.891,288.9675,326.4781)" fill="#333">POST</text>
<text dominant-baseline="central" text-anchor="middle" style="font-size:9px;font-family:sans-serif;" transform="matrix(0.809,-0.588,0.588,0.809,308.2887,330.2275)" fill="#333">description</text>
<text dominant-baseline="central" text-anchor="middle" style="font-size:10px;font-family:sans-serif;" transform="matrix(0.988,-0.156,0.156,0.988,267.5989,361.1149)" fill="#ccc" stroke="#000" stroke-width="2" paint-order="stroke" stroke-miterlimit="2">content</text>
<text dominant-baseline="central" text-anchor="middle" style="font-size:12px;font-family:sans-serif;" transform="matrix(0.988,-0.156,0.156,0.988,273.8563,400.6225)" fill="#eee" stroke="#A0522D" stroke-width="2" paint-order="stroke" stroke-miterlimit="2">schema</text>
<text dominant-baseline="central" text-anchor="middle" style="font-size:9px;font-family:sans-serif;" transform="matrix(0.988,-0.156,0.156,0.988,275.942,413.7916)" fill="#eee" stroke="#A0522D" stroke-width="2" paint-order="stroke" stroke-miterlimit="2">properties</text>
<text dominant-baseline="central" text-anchor="middle" style="font-size:9px;font-family:sans-serif;" transform="matrix(0.988,-0.156,0.156,0.988,280.1136,440.13)" fill="#eee" stroke="#A0522D" stroke-width="2" paint-order="stroke" stroke-miterlimit="2">ttlMinutes</text>
<text dominant-baseline="central" text-anchor="middle" style="font-size:9px;font-family:sans-serif;" transform="matrix(0.951,0.309,-0.309,0.951,231.7165,306.2708)" fill="#ccc" stroke="#000" stroke-width="2" paint-order="stroke" stroke-miterlimit="2">operations</text>
<text dominant-baseline="central" text-anchor="middle" style="font-size:12px;font-family:sans-serif;" transform="matrix(0.951,0.309,-0.309,0.951,223.476,331.6324)" fill="#333">POST</text>
<text dominant-baseline="central" text-anchor="middle" style="font-size:9px;font-family:sans-serif;" transform="matrix(0.891,0.454,-0.454,0.891,204.9793,338.3581)" fill="#ccc" stroke="#000" stroke-width="2" paint-order="stroke" stroke-miterlimit="2">requestBody</text>
<text dominant-baseline="central" text-anchor="middle" style="font-size:12px;font-family:sans-serif;" transform="matrix(0.156,0.988,-0.988,0.156,191.5618,259.2557)" fill="#333">POST</text>
<text dominant-baseline="central" text-anchor="middle" style="font-size:12px;font-family:sans-serif;" transform="matrix(0.809,-0.588,0.588,0.809,238.7341,234.4938)" fill="#333">info</text>
<text dominant-baseline="central" text-anchor="middle" style="font-size:10px;font-family:sans-serif;" transform="matrix(0.809,-0.588,0.588,0.809,230.897,223.7069)" fill="#333">version</text>
<path d="M-14.8 -16l66.6 0l0 32l-66.6 0Z" transform="translate(448.253 16)" fill="none" stroke="#ccc" stroke-width="0"></path>
<path d="M-7.3 -1.8L-0.1 4.8L7.3 -1.6M-7.3 4.3L-7.3 8.5L7.1 8.5L7.1 4.3M-0.1 4.7L-0.1 -8.5" transform="translate(448.253 16)" fill="none" stroke="#666"></path>
<path d="M-7.9 1M5.1 -3.4L8.1 -3.4L8.1 -6.4M8 -3C6.7 -6.4 3.2 -8.9 -1 -8.4C-5.3 -8 -8.6 -4.2 -8.4 0.2M-5.1 3.4L-8.1 3.4L-8.1 6.4M-8 3C-6.7 6.4 -3.2 8.9 1 8.4C5.3 8 8.6 4.2 8.4 -0.2" transform="translate(484.0476 16)" fill="none" stroke="#666"></path>
<style ><![CDATA[
.zr54-cls-0 {
animation:zr54-ani-0 1s cubic-bezier(0.65,0,0.35,1) both;
}
.zr54-cls-1 {
animation:zr54-ani-1 1s cubic-bezier(0.65,0,0.35,1) both;
}
.zr54-cls-2 {
animation:zr54-ani-2 1s cubic-bezier(0.65,0,0.35,1) both;
}
.zr54-cls-3 {
animation:zr54-ani-3 1s cubic-bezier(0.65,0,0.35,1) both;
}
.zr54-cls-4 {
animation:zr54-ani-4 1s cubic-bezier(0.65,0,0.35,1) both;
}
.zr54-cls-5 {
animation:zr54-ani-5 1s cubic-bezier(0.65,0,0.35,1) both;
}
.zr54-cls-6 {
animation:zr54-ani-6 1s cubic-bezier(0.65,0,0.35,1) both;
}
.zr54-cls-7 {
animation:zr54-ani-7 1s cubic-bezier(0.65,0,0.35,1) both;
}
.zr54-cls-8 {
animation:zr54-ani-8 1s cubic-bezier(0.65,0,0.35,1) both;
}
.zr54-cls-9 {
animation:zr54-ani-9 1s cubic-bezier(0.65,0,0.35,1) both;
}
.zr54-cls-10 {
animation:zr54-ani-10 1s cubic-bezier(0.65,0,0.35,1) both;
}
.zr54-cls-11 {
animation:zr54-ani-11 1s cubic-bezier(0.65,0,0.35,1) both;
}
.zr54-cls-12 {
animation:zr54-ani-12 1s cubic-bezier(0.65,0,0.35,1) both;
}
.zr54-cls-13 {
animation:zr54-ani-13 1s cubic-bezier(0.65,0,0.35,1) both;
}
.zr54-cls-14 {
animation:zr54-ani-14 1s cubic-bezier(0.65,0,0.35,1) both;
}
.zr54-cls-15 {
animation:zr54-ani-15 1s cubic-bezier(0.65,0,0.35,1) both;
}
.zr54-cls-16 {
animation:zr54-ani-16 1s cubic-bezier(0.65,0,0.35,1) both;
}
.zr54-cls-17 {
animation:zr54-ani-17 1s cubic-bezier(0.65,0,0.35,1) both;
}
.zr54-cls-18 {
animation:zr54-ani-18 1s cubic-bezier(0.65,0,0.35,1) both;
}
.zr54-cls-19 {
animation:zr54-ani-19 1s cubic-bezier(0.65,0,0.35,1) both;
}
.zr54-cls-20 {
animation:zr54-ani-20 1s cubic-bezier(0.65,0,0.35,1) both;
}
.zr54-cls-21 {
animation:zr54-ani-21 1s cubic-bezier(0.65,0,0.35,1) both;
}
.zr54-cls-22 {
animation:zr54-ani-22 1s cubic-bezier(0.65,0,0.35,1) both;
}
.zr54-cls-23 {
animation:zr54-ani-23 1s cubic-bezier(0.65,0,0.35,1) both;
}
.zr54-cls-24 {
animation:zr54-ani-24 1s cubic-bezier(0.65,0,0.35,1) both;
}
.zr54-cls-25 {
animation:zr54-ani-25 1s cubic-bezier(0.65,0,0.35,1) both;
}
.zr54-cls-26 {
animation:zr54-ani-26 1s cubic-bezier(0.65,0,0.35,1) both;
}
.zr54-cls-27 {
animation:zr54-ani-27 1s cubic-bezier(0.65,0,0.35,1) both;
}
.zr54-cls-28 {
animation:zr54-ani-28 1s cubic-bezier(0.65,0,0.35,1) both;
}
.zr54-cls-29 {
animation:zr54-ani-29 1s cubic-bezier(0.65,0,0.35,1) both;
}
.zr54-cls-30 {
animation:zr54-ani-30 1s cubic-bezier(0.65,0,0.35,1) both;
}
.zr54-cls-31 {
animation:zr54-ani-31 1s cubic-bezier(0.65,0,0.35,1) both;
}
.zr54-cls-32 {
animation:zr54-ani-32 1s cubic-bezier(0.65,0,0.35,1) both;
}
.zr54-cls-33 {
animation:zr54-ani-33 1s cubic-bezier(0.65,0,0.35,1) both;
}
.zr54-cls-34 {
animation:zr54-ani-34 1s cubic-bezier(0.65,0,0.35,1) both;
}
.zr54-cls-35 {
animation:zr54-ani-35 1s cubic-bezier(0.65,0,0.35,1) both;
}
.zr54-cls-36 {
animation:zr54-ani-36 1s cubic-bezier(0.65,0,0.35,1) both;
}
.zr54-cls-37 {
animation:zr54-ani-37 1s cubic-bezier(0.65,0,0.35,1) both;
}
.zr54-cls-38 {
animation:zr54-ani-38 1s cubic-bezier(0.65,0,0.35,1) both;
}
.zr54-cls-39 {
animation:zr54-ani-39 1s cubic-bezier(0.65,0,0.35,1) both;
}
.zr54-cls-40 {
animation:zr54-ani-40 1s cubic-bezier(0.65,0,0.35,1) both;
}
.zr54-cls-41 {
animation:zr54-ani-41 1s cubic-bezier(0.65,0,0.35,1) both;
}
.zr54-cls-42 {
animation:zr54-ani-42 1s cubic-bezier(0.65,0,0.35,1) both;
}
.zr54-cls-43 {
animation:zr54-ani-43 1s cubic-bezier(0.65,0,0.35,1) both;
}
.zr54-cls-44 {
animation:zr54-ani-44 1s cubic-bezier(0.65,0,0.35,1) both;
}
.zr54-cls-45 {
animation:zr54-ani-45 1s cubic-bezier(0.65,0,0.35,1) both;
}
.zr54-cls-46 {
animation:zr54-ani-46 1s cubic-bezier(0.65,0,0.35,1) both;
}
.zr54-cls-47 {
animation:zr54-ani-47 1s cubic-bezier(0.65,0,0.35,1) both;
}
.zr54-cls-48 {
animation:zr54-ani-48 1s cubic-bezier(0.65,0,0.35,1) both;
}
.zr54-cls-49 {
animation:zr54-ani-49 1s cubic-bezier(0.65,0,0.35,1) both;
}
.zr54-cls-50 {
animation:zr54-ani-50 1s cubic-bezier(0.65,0,0.35,1) both;
}
.zr54-cls-51 {
animation:zr54-ani-51 1s cubic-bezier(0.65,0,0.35,1) both;
}
.zr54-cls-52 {
animation:zr54-ani-52 1s cubic-bezier(0.65,0,0.35,1) both;
}
.zr54-cls-53 {
animation:zr54-ani-53 1s cubic-bezier(0.65,0,0.35,1) both;
}
.zr54-cls-54 {
animation:zr54-ani-54 1s cubic-bezier(0.65,0,0.35,1) both;
}
.zr54-cls-55 {
animation:zr54-ani-55 1s cubic-bezier(0.65,0,0.35,1) both;
}
.zr54-cls-56 {
animation:zr54-ani-56 1s cubic-bezier(0.65,0,0.35,1) both;
}
.zr54-cls-57 {
animation:zr54-ani-57 1s cubic-bezier(0.65,0,0.35,1) both;
}
.zr54-cls-58 {
animation:zr54-ani-58 1s cubic-bezier(0.65,0,0.35,1) both;
}
.zr54-cls-59 {
animation:zr54-ani-59 1s cubic-bezier(0.65,0,0.35,1) both;
}
.zr54-cls-60 {
animation:zr54-ani-60 1s cubic-bezier(0.65,0,0.35,1) both;
}
@keyframes zr54-ani-0 {
0% {
d:path("M250 237.5A12.5 12.5 0 1 1 238.1 246.1A12.5 12.5 0 1 0 250 237.5Z");
}
100% {
d:path("M250 224.2A25.8 25.8 0 1 1 225.4 242L238.1 246.1A12.5 12.5 0 1 0 250 237.5Z");
}
}
@keyframes zr54-ani-1 {
0% {
d:path("M250 224.2A25.8 25.8 0 1 1 229.1 265.2A25.8 25.8 0 1 0 250 224.2Z");
}
100% {
d:path("M250 210.8A39.2 39.2 0 1 1 218.3 273L229.1 265.2A25.8 25.8 0 1 0 250 224.2Z");
}
}
@keyframes zr54-ani-2 {
0% {
d:path("M250 210.8A39.2 39.2 0 0 1 281.7 273A39.2 39.2 0 0 0 250 210.8Z");
}
100% {
d:path("M250 197.5A52.5 52.5 0 0 1 292.5 280.9L281.7 273A39.2 39.2 0 0 0 250 210.8Z");
}
}
@keyframes zr54-ani-3 {
0% {
d:path("M250 197.5A52.5 52.5 0 0 1 292.5 280.9A52.5 52.5 0 0 0 250 197.5Z");
}
100% {
d:path("M250 184.2A65.8 65.8 0 0 1 303.3 288.7L292.5 280.9A52.5 52.5 0 0 0 250 197.5Z");
}
}
@keyframes zr54-ani-4 {
0% {
d:path("M250 184.2A65.8 65.8 0 0 1 303.3 288.7L303.3 288.7A65.8 65.8 0 0 0 250 184.2Z");
}
100% {
d:path("M250 170.8A79.2 79.2 0 0 1 314 296.5L303.3 288.7A65.8 65.8 0 0 0 250 184.2Z");
}
}
@keyframes zr54-ani-5 {
0% {
d:path("M250 170.8A79.2 79.2 0 0 1 314 296.5A79.2 79.2 0 0 0 250 170.8Z");
}
100% {
d:path("M250 157.5A92.5 92.5 0 0 1 324.8 304.4L314 296.5A79.2 79.2 0 0 0 250 170.8Z");
}
}
@keyframes zr54-ani-6 {
0% {
d:path("M250 157.5A92.5 92.5 0 0 1 304.4 175.2L304.4 175.2A92.5 92.5 0 0 0 250 157.5Z");
}
100% {
d:path("M250 144.2A105.8 105.8 0 0 1 312.2 164.4L304.4 175.2A92.5 92.5 0 0 0 250 157.5Z");
}
}
@keyframes zr54-ani-7 {
0% {
d:path("M304.4 175.2A92.5 92.5 0 0 1 338 221.4L338 221.4A92.5 92.5 0 0 0 304.4 175.2Z");
}
100% {
d:path("M312.2 164.4A105.8 105.8 0 0 1 350.7 217.3L338 221.4A92.5 92.5 0 0 0 304.4 175.2Z");
}
}
@keyframes zr54-ani-8 {
0% {
d:path("M312.2 164.4A105.8 105.8 0 0 1 350.7 217.3L350.7 217.3A105.8 105.8 0 0 0 312.2 164.4Z");
}
100% {
d:path("M320 153.6A119.2 119.2 0 0 1 363.3 213.2L350.7 217.3A105.8 105.8 0 0 0 312.2 164.4Z");
}
}
@keyframes zr54-ani-9 {
0% {
d:path("M320 153.6A119.2 119.2 0 0 1 363.3 213.2L363.3 213.2A119.2 119.2 0 0 0 320 153.6Z");
}
100% {
d:path("M327.9 142.8A132.5 132.5 0 0 1 376 209.1L363.3 213.2A119.2 119.2 0 0 0 320 153.6Z");
}
}
@keyframes zr54-ani-10 {
0% {
d:path("M327.9 142.8A132.5 132.5 0 0 1 376 209.1L376 209.1A132.5 132.5 0 0 0 327.9 142.8Z");
}
100% {
d:path("M335.7 132A145.8 145.8 0 0 1 388.7 204.9L376 209.1A132.5 132.5 0 0 0 327.9 142.8Z");
}
}
@keyframes zr54-ani-11 {
0% {
d:path("M335.7 132A145.8 145.8 0 0 1 388.7 204.9L388.7 204.9A145.8 145.8 0 0 0 335.7 132Z");
}
100% {
d:path("M343.6 121.2A159.2 159.2 0 0 1 401.4 200.8L388.7 204.9A145.8 145.8 0 0 0 335.7 132Z");
}
}
@keyframes zr54-ani-12 {
0% {
d:path("M343.6 121.2A159.2 159.2 0 0 1 401.4 200.8L401.4 200.8A159.2 159.2 0 0 0 343.6 121.2Z");
}
100% {
d:path("M351.4 110.4A172.5 172.5 0 0 1 414.1 196.7L401.4 200.8A159.2 159.2 0 0 0 343.6 121.2Z");
}
}
@keyframes zr54-ani-13 {
0% {
d:path("M351.4 110.4A172.5 172.5 0 0 1 389.6 148.6L389.6 148.6A172.5 172.5 0 0 0 351.4 110.4Z");
}
100% {
d:path("M359.2 99.7A185.8 185.8 0 0 1 400.3 140.8L389.6 148.6A172.5 172.5 0 0 0 351.4 110.4Z");
}
}
@keyframes zr54-ani-14 {
0% {
d:path("M359.2 99.7A185.8 185.8 0 0 1 400.3 140.8L400.3 140.8A185.8 185.8 0 0 0 359.2 99.7Z");
}
100% {
d:path("M367.1 88.9A199.2 199.2 0 0 1 411.1 132.9L400.3 140.8A185.8 185.8 0 0 0 359.2 99.7Z");
}
}
@keyframes zr54-ani-15 {
0% {
d:path("M367.1 88.9A199.2 199.2 0 0 1 411.1 132.9L411.1 132.9A199.2 199.2 0 0 0 367.1 88.9Z");
}
100% {
d:path("M374.9 78.1A212.5 212.5 0 0 1 421.9 125.1L411.1 132.9A199.2 199.2 0 0 0 367.1 88.9Z");
}
}
@keyframes zr54-ani-16 {
0% {
d:path("M389.6 148.6A172.5 172.5 0 0 1 414.1 196.7L414.1 196.7A172.5 172.5 0 0 0 389.6 148.6Z");
}
100% {
d:path("M400.3 140.8A185.8 185.8 0 0 1 426.7 192.6L414.1 196.7A172.5 172.5 0 0 0 389.6 148.6Z");
}
}
@keyframes zr54-ani-17 {
0% {
d:path("M400.3 140.8A185.8 185.8 0 0 1 426.7 192.6L426.7 192.6A185.8 185.8 0 0 0 400.3 140.8Z");
}
100% {
d:path("M411.1 132.9A199.2 199.2 0 0 1 439.4 188.5L426.7 192.6A185.8 185.8 0 0 0 400.3 140.8Z");
}
}
@keyframes zr54-ani-18 {
0% {
d:path("M338 221.4A92.5 92.5 0 0 1 338 278.6A92.5 92.5 0 0 0 338 221.4Z");
}
100% {
d:path("M350.7 217.3A105.8 105.8 0 0 1 350.7 282.7L338 278.6A92.5 92.5 0 0 0 338 221.4Z");
}
}
@keyframes zr54-ani-19 {
0% {
d:path("M350.7 217.3A105.8 105.8 0 0 1 355.8 250L355.8 250A105.8 105.8 0 0 0 350.7 217.3Z");
}
100% {
d:path("M363.3 213.2A119.2 119.2 0 0 1 369.2 250L355.8 250A105.8 105.8 0 0 0 350.7 217.3Z");
}
}
@keyframes zr54-ani-20 {
0% {
d:path("M363.3 213.2A119.2 119.2 0 0 1 369.2 250L369.2 250A119.2 119.2 0 0 0 363.3 213.2Z");
}
100% {
d:path("M376 209.1A132.5 132.5 0 0 1 382.5 250L369.2 250A119.2 119.2 0 0 0 363.3 213.2Z");
}
}
@keyframes zr54-ani-21 {
0% {
d:path("M355.8 250A105.8 105.8 0 0 1 350.7 282.7A105.8 105.8 0 0 0 355.8 250Z");
}
100% {
d:path("M369.2 250A119.2 119.2 0 0 1 363.3 286.8L350.7 282.7A105.8 105.8 0 0 0 355.8 250Z");
}
}
@keyframes zr54-ani-22 {
0% {
d:path("M369.2 250A119.2 119.2 0 0 1 363.3 286.8A119.2 119.2 0 0 0 369.2 250Z");
}
100% {
d:path("M382.5 250A132.5 132.5 0 0 1 376 290.9L363.3 286.8A119.2 119.2 0 0 0 369.2 250Z");
}
}
@keyframes zr54-ani-23 {
0% {
d:path("M338 278.6A92.5 92.5 0 0 1 324.8 304.4A92.5 92.5 0 0 0 338 278.6Z");
}
100% {
d:path("M350.7 282.7A105.8 105.8 0 0 1 335.6 312.2L324.8 304.4A92.5 92.5 0 0 0 338 278.6Z");
}
}
@keyframes zr54-ani-24 {
0% {
d:path("M350.7 282.7A105.8 105.8 0 0 1 335.6 312.2A105.8 105.8 0 0 0 350.7 282.7Z");
}
100% {
d:path("M363.3 286.8A119.2 119.2 0 0 1 346.4 320L335.6 312.2A105.8 105.8 0 0 0 350.7 282.7Z");
}
}
@keyframes zr54-ani-25 {
0% {
d:path("M363.3 286.8A119.2 119.2 0 0 1 346.4 320A119.2 119.2 0 0 0 363.3 286.8Z");
}
100% {
d:path("M376 290.9A132.5 132.5 0 0 1 357.2 327.9L346.4 320A119.2 119.2 0 0 0 363.3 286.8Z");
}
}
@keyframes zr54-ani-26 {
0% {
d:path("M376 290.9A132.5 132.5 0 0 1 357.2 327.9A132.5 132.5 0 0 0 376 290.9Z");
}
100% {
d:path("M388.7 295.1A145.8 145.8 0 0 1 368 335.7L357.2 327.9A132.5 132.5 0 0 0 376 290.9Z");
}
}
@keyframes zr54-ani-27 {
0% {
d:path("M281.7 273A39.2 39.2 0 0 1 250 289.2A39.2 39.2 0 0 0 281.7 273Z");
}
100% {
d:path("M292.5 280.9A52.5 52.5 0 0 1 250 302.5L250 289.2A39.2 39.2 0 0 0 281.7 273Z");
}
}
@keyframes zr54-ani-28 {
0% {
d:path("M292.5 280.9A52.5 52.5 0 0 1 250 302.5A52.5 52.5 0 0 0 292.5 280.9Z");
}
100% {
d:path("M303.3 288.7A65.8 65.8 0 0 1 250 315.8L250 302.5A52.5 52.5 0 0 0 292.5 280.9Z");
}
}
@keyframes zr54-ani-29 {
0% {
d:path("M303.3 288.7A65.8 65.8 0 0 1 250 315.8A65.8 65.8 0 0 0 303.3 288.7Z");
}
100% {
d:path("M314 296.5A79.2 79.2 0 0 1 250 329.2L250 315.8A65.8 65.8 0 0 0 303.3 288.7Z");
}
}
@keyframes zr54-ani-30 {
0% {
d:path("M314 296.5A79.2 79.2 0 0 1 250 329.2A79.2 79.2 0 0 0 314 296.5Z");
}
100% {
d:path("M324.8 304.4A92.5 92.5 0 0 1 250 342.5L250 329.2A79.2 79.2 0 0 0 314 296.5Z");
}
}
@keyframes zr54-ani-31 {
0% {
d:path("M324.8 304.4A92.5 92.5 0 0 1 278.6 338A92.5 92.5 0 0 0 324.8 304.4Z");
}
100% {
d:path("M335.6 312.2A105.8 105.8 0 0 1 282.7 350.7L278.6 338A92.5 92.5 0 0 0 324.8 304.4Z");
}
}
@keyframes zr54-ani-32 {
0% {
d:path("M278.6 338A92.5 92.5 0 0 1 250 342.5A92.5 92.5 0 0 0 278.6 338Z");
}
100% {
d:path("M282.7 350.7A105.8 105.8 0 0 1 250 355.8L250 342.5A92.5 92.5 0 0 0 278.6 338Z");
}
}
@keyframes zr54-ani-33 {
0% {
d:path("M282.7 350.7A105.8 105.8 0 0 1 250 355.8A105.8 105.8 0 0 0 282.7 350.7Z");
}
100% {
d:path("M286.8 363.3A119.2 119.2 0 0 1 250 369.2L250 355.8A105.8 105.8 0 0 0 282.7 350.7Z");
}
}
@keyframes zr54-ani-34 {
0% {
d:path("M286.8 363.3A119.2 119.2 0 0 1 250 369.2A119.2 119.2 0 0 0 286.8 363.3Z");
}
100% {
d:path("M290.9 376A132.5 132.5 0 0 1 250 382.5L250 369.2A119.2 119.2 0 0 0 286.8 363.3Z");
}
}
@keyframes zr54-ani-35 {
0% {
d:path("M290.9 376A132.5 132.5 0 0 1 250 382.5A132.5 132.5 0 0 0 290.9 376Z");
}
100% {
d:path("M295.1 388.7A145.8 145.8 0 0 1 250 395.8L250 382.5A132.5 132.5 0 0 0 290.9 376Z");
}
}
@keyframes zr54-ani-36 {
0% {
d:path("M295.1 388.7A145.8 145.8 0 0 1 250 395.8A145.8 145.8 0 0 0 295.1 388.7Z");
}
100% {
d:path("M299.2 401.4A159.2 159.2 0 0 1 250 409.2L250 395.8A145.8 145.8 0 0 0 295.1 388.7Z");
}
}
@keyframes zr54-ani-37 {
0% {
d:path("M299.2 401.4A159.2 159.2 0 0 1 250 409.2A159.2 159.2 0 0 0 299.2 401.4Z");
}
100% {
d:path("M303.3 414.1A172.5 172.5 0 0 1 250 422.5L250 409.2A159.2 159.2 0 0 0 299.2 401.4Z");
}
}
@keyframes zr54-ani-38 {
0% {
d:path("M303.3 414.1A172.5 172.5 0 0 1 250 422.5A172.5 172.5 0 0 0 303.3 414.1Z");
}
100% {
d:path("M307.4 426.7A185.8 185.8 0 0 1 250 435.8L250 422.5A172.5 172.5 0 0 0 303.3 414.1Z");
}
}
@keyframes zr54-ani-39 {
0% {
d:path("M307.4 426.7A185.8 185.8 0 0 1 250 435.8A185.8 185.8 0 0 0 307.4 426.7Z");
}
100% {
d:path("M311.5 439.4A199.2 199.2 0 0 1 250 449.2L250 435.8A185.8 185.8 0 0 0 307.4 426.7Z");
}
}
@keyframes zr54-ani-40 {
0% {
d:path("M250 289.2A39.2 39.2 0 0 1 227 281.7A39.2 39.2 0 0 0 250 289.2Z");
}
100% {
d:path("M250 302.5A52.5 52.5 0 0 1 219.1 292.5L227 281.7A39.2 39.2 0 0 0 250 289.2Z");
}
}
@keyframes zr54-ani-41 {
0% {
d:path("M250 302.5A52.5 52.5 0 0 1 219.1 292.5A52.5 52.5 0 0 0 250 302.5Z");
}
100% {
d:path("M250 315.8A65.8 65.8 0 0 1 211.3 303.3L219.1 292.5A52.5 52.5 0 0 0 250 302.5Z");
}
}
@keyframes zr54-ani-42 {
0% {
d:path("M250 315.8A65.8 65.8 0 0 1 211.3 303.3A65.8 65.8 0 0 0 250 315.8Z");
}
100% {
d:path("M250 329.2A79.2 79.2 0 0 1 203.5 314L211.3 303.3A65.8 65.8 0 0 0 250 315.8Z");
}
}
@keyframes zr54-ani-43 {
0% {
d:path("M250 329.2A79.2 79.2 0 0 1 203.5 314A79.2 79.2 0 0 0 250 329.2Z");
}
100% {
d:path("M250 342.5A92.5 92.5 0 0 1 195.6 324.8L203.5 314A79.2 79.2 0 0 0 250 329.2Z");
}
}
@keyframes zr54-ani-44 {
0% {
d:path("M250 342.5A92.5 92.5 0 0 1 221.4 338A92.5 92.5 0 0 0 250 342.5Z");
}
100% {
d:path("M250 355.8A105.8 105.8 0 0 1 217.3 350.7L221.4 338A92.5 92.5 0 0 0 250 342.5Z");
}
}
@keyframes zr54-ani-45 {
0% {
d:path("M221.4 338A92.5 92.5 0 0 1 195.6 324.8A92.5 92.5 0 0 0 221.4 338Z");
}
100% {
d:path("M217.3 350.7A105.8 105.8 0 0 1 187.8 335.6L195.6 324.8A92.5 92.5 0 0 0 221.4 338Z");
}
}
@keyframes zr54-ani-46 {
0% {
d:path("M217.3 350.7A105.8 105.8 0 0 1 187.8 335.6A105.8 105.8 0 0 0 217.3 350.7Z");
}
100% {
d:path("M213.2 363.3A119.2 119.2 0 0 1 180 346.4L187.8 335.6A105.8 105.8 0 0 0 217.3 350.7Z");
}
}
@keyframes zr54-ani-47 {
0% {
d:path("M227 281.7A39.2 39.2 0 0 1 218.3 273A39.2 39.2 0 0 0 227 281.7Z");
}
100% {
d:path("M219.1 292.5A52.5 52.5 0 0 1 207.5 280.9L218.3 273A39.2 39.2 0 0 0 227 281.7Z");
}
}
@keyframes zr54-ani-48 {
0% {
d:path("M219.1 292.5A52.5 52.5 0 0 1 207.5 280.9A52.5 52.5 0 0 0 219.1 292.5Z");
}
100% {
d:path("M211.3 303.3A65.8 65.8 0 0 1 196.7 288.7L207.5 280.9A52.5 52.5 0 0 0 219.1 292.5Z");
}
}
@keyframes zr54-ani-49 {
0% {
d:path("M211.3 303.3A65.8 65.8 0 0 1 196.7 288.7A65.8 65.8 0 0 0 211.3 303.3Z");
}
100% {
d:path("M203.5 314A79.2 79.2 0 0 1 186 296.5L196.7 288.7A65.8 65.8 0 0 0 211.3 303.3Z");
}
}
@keyframes zr54-ani-50 {
0% {
d:path("M203.5 314A79.2 79.2 0 0 1 186 296.5A79.2 79.2 0 0 0 203.5 314Z");
}
100% {
d:path("M195.6 324.8A92.5 92.5 0 0 1 175.2 304.4L186 296.5A79.2 79.2 0 0 0 203.5 314Z");
}
}
@keyframes zr54-ani-51 {
0% {
d:path("M229.1 265.2A25.8 25.8 0 0 1 224.2 250A25.8 25.8 0 0 0 229.1 265.2Z");
}
100% {
d:path("M218.3 273A39.2 39.2 0 0 1 210.8 250L224.2 250A25.8 25.8 0 0 0 229.1 265.2Z");
}
}
@keyframes zr54-ani-52 {
0% {
d:path("M218.3 273A39.2 39.2 0 0 1 212.8 262.1A39.2 39.2 0 0 0 218.3 273Z");
}
100% {
d:path("M207.5 280.9A52.5 52.5 0 0 1 200.1 266.2L212.8 262.1A39.2 39.2 0 0 0 218.3 273Z");
}
}
@keyframes zr54-ani-53 {
0% {
d:path("M207.5 280.9A52.5 52.5 0 0 1 200.1 266.2A52.5 52.5 0 0 0 207.5 280.9Z");
}
100% {
d:path("M196.7 288.7A65.8 65.8 0 0 1 187.4 270.3L200.1 266.2A52.5 52.5 0 0 0 207.5 280.9Z");
}
}
@keyframes zr54-ani-54 {
0% {
d:path("M212.8 262.1A39.2 39.2 0 0 1 210.8 250A39.2 39.2 0 0 0 212.8 262.1Z");
}
100% {
d:path("M200.1 266.2A52.5 52.5 0 0 1 197.5 250L210.8 250A39.2 39.2 0 0 0 212.8 262.1Z");
}
}
@keyframes zr54-ani-55 {
0% {
d:path("M200.1 266.2A52.5 52.5 0 0 1 197.5 250A52.5 52.5 0 0 0 200.1 266.2Z");
}
100% {
d:path("M187.4 270.3A65.8 65.8 0 0 1 184.2 250L197.5 250A52.5 52.5 0 0 0 200.1 266.2Z");
}
}
@keyframes zr54-ani-56 {
0% {
d:path("M224.2 250A25.8 25.8 0 0 1 225.4 242A25.8 25.8 0 0 0 224.2 250Z");
}
100% {
d:path("M210.8 250A39.2 39.2 0 0 1 212.8 237.9L225.4 242A25.8 25.8 0 0 0 224.2 250Z");
}
}
@keyframes zr54-ani-57 {
0% {
d:path("M210.8 250A39.2 39.2 0 0 1 212.8 237.9A39.2 39.2 0 0 0 210.8 250Z");
}
100% {
d:path("M197.5 250A52.5 52.5 0 0 1 200.1 233.8L212.8 237.9A39.2 39.2 0 0 0 210.8 250Z");
}
}
@keyframes zr54-ani-58 {
0% {
d:path("M197.5 250A52.5 52.5 0 0 1 200.1 233.8A52.5 52.5 0 0 0 197.5 250Z");
}
100% {
d:path("M184.2 250A65.8 65.8 0 0 1 187.4 229.7L200.1 233.8A52.5 52.5 0 0 0 197.5 250Z");
}
}
@keyframes zr54-ani-59 {
0% {
d:path("M238.1 246.1A12.5 12.5 0 0 1 250 237.5A12.5 12.5 0 0 0 238.1 246.1Z");
}
100% {
d:path("M225.4 242A25.8 25.8 0 0 1 250 224.2L250 237.5A12.5 12.5 0 0 0 238.1 246.1Z");
}
}
@keyframes zr54-ani-60 {
0% {
d:path("M225.4 242A25.8 25.8 0 0 1 250 224.2A25.8 25.8 0 0 0 225.4 242Z");
}
100% {
d:path("M212.8 237.9A39.2 39.2 0 0 1 250 210.8L250 224.2A25.8 25.8 0 0 0 225.4 242Z");
}
}
]]>

</style>
</svg>