<svg width="500" height="500" xmlns="http://www.w3.org/2000/svg" xmlns:xlink="http://www.w3.org/1999/xlink" version="1.1" baseProfile="full" viewBox="0 0 500 500">
<rect width="500" height="500" x="0" y="0" id="0" fill="none"></rect>
<path d="M250 204.2A45.8 45.8 0 1 1 210.3 272.9L239.2 256.3A12.5 12.5 0 1 0 250 237.5Z" fill="#C8C8C8" stroke="white" stroke-linejoin="bevel" class="zr80-cls-0"></path>
<path d="M250 170.8A79.2 79.2 0 1 1 181.4 289.6L210.3 272.9A45.8 45.8 0 1 0 250 204.2Z" fill="#C8C8C8" stroke="white" stroke-linejoin="bevel" class="zr80-cls-1"></path>
<path d="M210.3 272.9A45.8 45.8 0 0 1 220.5 214.9L242 240.4A12.5 12.5 0 0 0 239.2 256.2Z" fill="#000" stroke="white" stroke-linejoin="bevel" class="zr80-cls-2"></path>
<path d="M181.4 289.6A79.2 79.2 0 0 1 172 236.3L204.9 242A45.8 45.8 0 0 0 210.3 272.9Z" fill="#4949CD" fill-opacity="0.5" stroke="#fff" stroke-width="4" stroke-opacity="0.5" stroke-linejoin="bevel" class="zr80-cls-3"></path>
<path d="M152.6 306.3A112.5 112.5 0 0 1 139.2 230.5L172 236.3A79.2 79.2 0 0 0 181.4 289.6Z" fill="#000" stroke="white" stroke-linejoin="bevel" class="zr80-cls-4"></path>
<path d="M123.7 322.9A145.8 145.8 0 0 1 106.4 224.7L139.2 230.5A112.5 112.5 0 0 0 152.6 306.2Z" fill="#000" stroke="white" stroke-linejoin="bevel" class="zr80-cls-5"></path>
<path d="M94.8 339.6A179.2 179.2 0 0 1 73.6 218.9L106.4 224.7A145.8 145.8 0 0 0 123.7 322.9Z" fill="#49ff49" fill-opacity="0.5" stroke="#fff" stroke-width="4" stroke-opacity="0.5" stroke-linejoin="bevel" class="zr80-cls-6"></path>
<path d="M66 356.3A212.5 212.5 0 0 1 40.7 213.1L73.6 218.9A179.2 179.2 0 0 0 94.8 339.6Z" fill="#0AA40D" stroke="white" stroke-linejoin="bevel" class="zr80-cls-7"></path>
<path d="M172 236.3A79.2 79.2 0 0 1 199.1 189.4L220.5 214.9A45.8 45.8 0 0 0 204.9 242Z" fill="rgb(255,255,255)" fill-opacity="0.5" stroke="#fff" stroke-width="4" stroke-opacity="0.5" stroke-linejoin="bevel" class="zr80-cls-8"></path>
<path d="M139.2 230.5A112.5 112.5 0 0 1 177.7 163.8L199.1 189.4A79.2 79.2 0 0 0 172 236.3Z" fill="#000" stroke="white" stroke-linejoin="bevel" class="zr80-cls-9"></path>
<path d="M106.4 224.7A145.8 145.8 0 0 1 156.3 138.3L177.7 163.8A112.5 112.5 0 0 0 139.2 230.5Z" fill="#0AA40D" stroke="white" stroke-linejoin="bevel" class="zr80-cls-10"></path>
<path d="M220.5 214.9A45.8 45.8 0 0 1 250 204.2L250 237.5A12.5 12.5 0 0 0 242 240.4Z" fill="#C8C8C8" stroke="white" stroke-linejoin="bevel" class="zr80-cls-11"></path>
<path d="M199.1 189.4A79.2 79.2 0 0 1 250 170.8L250 204.2A45.8 45.8 0 0 0 220.5 214.9Z" fill="#49ff49" fill-opacity="0.5" stroke="#fff" stroke-width="4" stroke-opacity="0.5" stroke-linejoin="bevel" class="zr80-cls-12"></path>
<path d="M177.7 163.8A112.5 112.5 0 0 1 250 137.5L250 170.8A79.2 79.2 0 0 0 199.1 189.4Z" fill="#0AA40D" stroke="white" stroke-linejoin="bevel" class="zr80-cls-13"></path>
<text dominant-baseline="central" text-anchor="middle" style="font-size:12px;font-family:sans-serif;" transform="matrix(0.5,-0.866,0.866,0.5,275.2591,264.5833)" fill="#333">info</text>
<text dominant-baseline="central" text-anchor="middle" style="font-size:10px;font-family:sans-serif;" transform="matrix(0.5,-0.866,0.866,0.5,304.1266,281.25)" fill="#333">version</text>
<text dominant-baseline="central" text-anchor="middle" style="font-size:12px;font-family:sans-serif;" transform="matrix(0.174,-0.985,0.985,0.174,221.2764,244.9353)" fill="#ccc" stroke="#000" stroke-width="2" paint-order="stroke" stroke-miterlimit="2">paths</text>
<text dominant-baseline="central" text-anchor="middle" style="font-size:9px;font-family:sans-serif;" transform="matrix(0.174,0.985,-0.985,0.174,122.7957,272.4296)" fill="#ccc" stroke="#000" stroke-width="2" paint-order="stroke" stroke-miterlimit="2">operations</text>
<text dominant-baseline="central" text-anchor="middle" style="font-size:12px;font-family:sans-serif;" transform="matrix(0.174,0.985,-0.985,0.174,57.1418,284.0061)" fill="#eee" stroke="#0AA40D" stroke-width="2" paint-order="stroke" stroke-miterlimit="2">GET</text>
<text dominant-baseline="central" text-anchor="middle" style="font-size:12px;font-family:sans-serif;" transform="matrix(0.5,-0.866,0.866,0.5,138.1384,185.4167)" fill="#eee" stroke="#0AA40D" stroke-width="2" paint-order="stroke" stroke-miterlimit="2">GET</text>
<text dominant-baseline="central" text-anchor="middle" style="font-size:12px;font-family:sans-serif;" transform="matrix(0.94,-0.342,0.342,0.94,217.2231,159.9461)" fill="#eee" stroke="#0AA40D" stroke-width="2" paint-order="stroke" stroke-miterlimit="2">Get</text>
<path d="M-14.8 -16l66.6 0l0 32l-66.6 0Z" transform="translate(448.253 16)" fill="none" stroke="#ccc" stroke-width="0"></path>
<path d="M-7.3 -1.8L-0.1 4.8L7.3 -1.6M-7.3 4.3L-7.3 8.5L7.1 8.5L7.1 4.3M-0.1 4.7L-0.1 -8.5" transform="translate(448.253 16)" fill="none" stroke="#666"></path>
<path d="M-7.9 1M5.1 -3.4L8.1 -3.4L8.1 -6.4M8 -3C6.7 -6.4 3.2 -8.9 -1 -8.4C-5.3 -8 -8.6 -4.2 -8.4 0.2M-5.1 3.4L-8.1 3.4L-8.1 6.4M-8 3C-6.7 6.4 -3.2 8.9 1 8.4C5.3 8 8.6 4.2 8.4 -0.2" transform="translate(484.0476 16)" fill="none" stroke="#666"></path>
<style ><![CDATA[
.zr80-cls-0 {
animation:zr80-ani-0 1s cubic-bezier(0.65,0,0.35,1) both;
}
.zr80-cls-1 {
animation:zr80-ani-1 1s cubic-bezier(0.65,0,0.35,1) both;
}
.zr80-cls-2 {
animation:zr80-ani-2 1s cubic-bezier(0.65,0,0.35,1) both;
}
.zr80-cls-3 {
animation:zr80-ani-3 1s cubic-bezier(0.65,0,0.35,1) both;
}
.zr80-cls-4 {
animation:zr80-ani-4 1s cubic-bezier(0.65,0,0.35,1) both;
}
.zr80-cls-5 {
animation:zr80-ani-5 1s cubic-bezier(0.65,0,0.35,1) both;
}
.zr80-cls-6 {
animation:zr80-ani-6 1s cubic-bezier(0.65,0,0.35,1) both;
}
.zr80-cls-7 {
animation:zr80-ani-7 1s cubic-bezier(0.65,0,0.35,1) both;
}
.zr80-cls-8 {
animation:zr80-ani-8 1s cubic-bezier(0.65,0,0.35,1) both;
}
.zr80-cls-9 {
animation:zr80-ani-9 1s cubic-bezier(0.65,0,0.35,1) both;
}
.zr80-cls-10 {
animation:zr80-ani-10 1s cubic-bezier(0.65,0,0.35,1) both;
}
.zr80-cls-11 {
animation:zr80-ani-11 1s cubic-bezier(0.65,0,0.35,1) both;
}
.zr80-cls-12 {
animation:zr80-ani-12 1s cubic-bezier(0.65,0,0.35,1) both;
}
.zr80-cls-13 {
animation:zr80-ani-13 1s cubic-bezier(0.65,0,0.35,1) both;
}
@keyframes zr80-ani-0 {
0% {
d:path("M250 237.5A12.5 12.5 0 1 1 239.2 256.3A12.5 12.5 0 1 0 250 237.5Z");
}
100% {
d:path("M250 204.2A45.8 45.8 0 1 1 210.3 272.9L239.2 256.3A12.5 12.5 0 1 0 250 237.5Z");
}
}
@keyframes zr80-ani-1 {
0% {
d:path("M250 204.2A45.8 45.8 0 1 1 210.3 272.9L210.3 272.9A45.8 45.8 0 1 0 250 204.2Z");
}
100% {
d:path("M250 170.8A79.2 79.2 0 1 1 181.4 289.6L210.3 272.9A45.8 45.8 0 1 0 250 204.2Z");
}
}
@keyframes zr80-ani-2 {
0% {
d:path("M239.2 256.3A12.5 12.5 0 0 1 242 240.4L242 240.4A12.5 12.5 0 0 0 239.2 256.2Z");
}
100% {
d:path("M210.3 272.9A45.8 45.8 0 0 1 220.5 214.9L242 240.4A12.5 12.5 0 0 0 239.2 256.2Z");
}
}
@keyframes zr80-ani-3 {
0% {
d:path("M210.3 272.9A45.8 45.8 0 0 1 204.9 242L204.9 242A45.8 45.8 0 0 0 210.3 272.9Z");
}
100% {
d:path("M181.4 289.6A79.2 79.2 0 0 1 172 236.3L204.9 242A45.8 45.8 0 0 0 210.3 272.9Z");
}
}
@keyframes zr80-ani-4 {
0% {
d:path("M181.4 289.6A79.2 79.2 0 0 1 172 236.3L172 236.3A79.2 79.2 0 0 0 181.4 289.6Z");
}
100% {
d:path("M152.6 306.3A112.5 112.5 0 0 1 139.2 230.5L172 236.3A79.2 79.2 0 0 0 181.4 289.6Z");
}
}
@keyframes zr80-ani-5 {
0% {
d:path("M152.6 306.3A112.5 112.5 0 0 1 139.2 230.5L139.2 230.5A112.5 112.5 0 0 0 152.6 306.2Z");
}
100% {
d:path("M123.7 322.9A145.8 145.8 0 0 1 106.4 224.7L139.2 230.5A112.5 112.5 0 0 0 152.6 306.2Z");
}
}
@keyframes zr80-ani-6 {
0% {
d:path("M123.7 322.9A145.8 145.8 0 0 1 106.4 224.7L106.4 224.7A145.8 145.8 0 0 0 123.7 322.9Z");
}
100% {
d:path("M94.8 339.6A179.2 179.2 0 0 1 73.6 218.9L106.4 224.7A145.8 145.8 0 0 0 123.7 322.9Z");
}
}
@keyframes zr80-ani-7 {
0% {
d:path("M94.8 339.6A179.2 179.2 0 0 1 73.6 218.9L73.6 218.9A179.2 179.2 0 0 0 94.8 339.6Z");
}
100% {
d:path("M66 356.3A212.5 212.5 0 0 1 40.7 213.1L73.6 218.9A179.2 179.2 0 0 0 94.8 339.6Z");
}
}
@keyframes zr80-ani-8 {
0% {
d:path("M204.9 242A45.8 45.8 0 0 1 220.5 214.9L220.5 214.9A45.8 45.8 0 0 0 204.9 242Z");
}
100% {
d:path("M172 236.3A79.2 79.2 0 0 1 199.1 189.4L220.5 214.9A45.8 45.8 0 0 0 204.9 242Z");
}
}
@keyframes zr80-ani-9 {
0% {
d:path("M172 236.3A79.2 79.2 0 0 1 199.1 189.4L199.1 189.4A79.2 79.2 0 0 0 172 236.3Z");
}
100% {
d:path("M139.2 230.5A112.5 112.5 0 0 1 177.7 163.8L199.1 189.4A79.2 79.2 0 0 0 172 236.3Z");
}
}
@keyframes zr80-ani-10 {
0% {
d:path("M139.2 230.5A112.5 112.5 0 0 1 177.7 163.8L177.7 163.8A112.5 112.5 0 0 0 139.2 230.5Z");
}
100% {
d:path("M106.4 224.7A145.8 145.8 0 0 1 156.3 138.3L177.7 163.8A112.5 112.5 0 0 0 139.2 230.5Z");
}
}
@keyframes zr80-ani-11 {
0% {
d:path("M242 240.4A12.5 12.5 0 0 1 250 237.5L250 237.5A12.5 12.5 0 0 0 242 240.4Z");
}
100% {
d:path("M220.5 214.9A45.8 45.8 0 0 1 250 204.2L250 237.5A12.5 12.5 0 0 0 242 240.4Z");
}
}
@keyframes zr80-ani-12 {
0% {
d:path("M220.5 214.9A45.8 45.8 0 0 1 250 204.2L250 204.2A45.8 45.8 0 0 0 220.5 214.9Z");
}
100% {
d:path("M199.1 189.4A79.2 79.2 0 0 1 250 170.8L250 204.2A45.8 45.8 0 0 0 220.5 214.9Z");
}
}
@keyframes zr80-ani-13 {
0% {
d:path("M199.1 189.4A79.2 79.2 0 0 1 250 170.8L250 170.8A79.2 79.2 0 0 0 199.1 189.4Z");
}
100% {
d:path("M177.7 163.8A112.5 112.5 0 0 1 250 137.5L250 170.8A79.2 79.2 0 0 0 199.1 189.4Z");
}
}
]]>

</style>
</svg>